<?xml version="1.0" encoding="UTF-8" standalone="no"?>
<!DOCTYPE svg PUBLIC "-//W3C//DTD SVG 1.1//EN"
 "http://www.w3.org/Graphics/SVG/1.1/DTD/svg11.dtd">
<!-- Generated by graphviz version 2.43.0 (0)
 -->
<!-- Title: main Pages: 1 -->
<!--zoomable 874 -->
<svg id="main" version="1.1" xmlns="http://www.w3.org/2000/svg" xmlns:xlink="http://www.w3.org/1999/xlink" xml:space="preserve" onload="init(evt)">
<style type="text/css"><![CDATA[
.edge:hover path { stroke: red; }
.edge:hover polygon { stroke: red; fill: red; }
]]></style>
<script type="text/javascript"><![CDATA[
var edges = document.getElementsByTagName('g');
if (edges && edges.length) {
  for (var i=0;i<edges.length;i++) {
    if (edges[i].id.substr(0,4)=='edge') {
      edges[i].setAttribute('class','edge');
    }
  }
}
]]></script>
        <defs>
                <circle id="rim" cx="0" cy="0" r="7"/>
                <circle id="rim2" cx="0" cy="0" r="3.5"/>
                <g id="zoomPlus">
                        <use xlink:href="#rim" fill="#404040">
                                <set attributeName="fill" to="#808080" begin="zoomplus.mouseover" end="zoomplus.mouseout"/>
                        </use>
                        <path d="M-4,0h8M0,-4v8" fill="none" stroke="white" stroke-width="1.5" pointer-events="none"/>
                </g>
                <g id="zoomMin">
                        <use xlink:href="#rim" fill="#404040">
                                <set attributeName="fill" to="#808080" begin="zoomminus.mouseover" end="zoomminus.mouseout"/>
                        </use>
                        <path d="M-4,0h8" fill="none" stroke="white" stroke-width="1.5" pointer-events="none"/>
                </g>
                <g id="dirArrow">
                        <path fill="none" stroke="white" stroke-width="1.5" d="M0,-3.0v7 M-2.5,-0.5L0,-3.0L2.5,-0.5"/>
                </g>
               <g id="resetDef">
                       <use xlink:href="#rim2" fill="#404040">
                               <set attributeName="fill" to="#808080" begin="reset.mouseover" end="reset.mouseout"/>
                       </use>
               </g>
        </defs>

<script type="text/javascript">
var viewWidth = 1445;
var viewHeight = 874;
var sectionId = 'dynsection-1';
</script>
<script xlink:href="../../svgpan.js"/>
<svg id="graph" class="graph">
<g id="viewport">
<title>main</title>
<polygon fill="white" stroke="transparent" points="-4,4 -4,-870 1441,-870 1441,4 -4,4"/>
<!-- Node1 -->
<g id="node1" class="node">
<title>Node1</title>
<g id="a_node1"><a xlink:title=" ">
<polygon fill="#bfbfbf" stroke="black" points="0,-312.5 0,-335.5 51,-335.5 51,-312.5 0,-312.5"/>
<text text-anchor="middle" x="25.5" y="-320.3" font-family="Helvetica,sans-Serif" font-size="14.00">main</text>
</a>
</g>
</g>
<!-- Node2 -->
<g id="node2" class="node">
<title>Node2</title>
<g id="a_node2"><a xlink:href="../../d0/d96/parda_8c.html#ab5b52d038b8aaf5acd36508c229bd923" target="_top" xlink:title=" ">
<polygon fill="white" stroke="black" points="90,-437 90,-475 247,-475 247,-437 90,-437"/>
<text text-anchor="start" x="98" y="-459.8" font-family="Helvetica,sans-Serif" font-size="14.00">classical_tree_based</text>
<text text-anchor="middle" x="168.5" y="-444.8" font-family="Helvetica,sans-Serif" font-size="14.00">_stackdist</text>
</a>
</g>
</g>
<!-- Node1&#45;&gt;Node2 -->
<g id="edge1" class="edge">
<title>Node1&#45;&gt;Node2</title>
<path fill="none" stroke="midnightblue" d="M39.01,-335.71C61.5,-356.77 109.26,-401.48 139.79,-430.06"/>
<polygon fill="midnightblue" stroke="midnightblue" points="137.47,-432.68 147.16,-436.96 142.25,-427.57 137.47,-432.68"/>
</g>
<!-- Node20 -->
<g id="node20" class="node">
<title>Node20</title>
<g id="a_node20"><a xlink:href="../../d0/d82/parda__omp_8c.html#af99a329269ee6e1bd3f49b4442ab1097" target="_top" xlink:title=" ">
<polygon fill="white" stroke="black" points="87,-332.5 87,-355.5 250,-355.5 250,-332.5 87,-332.5"/>
<text text-anchor="middle" x="168.5" y="-340.3" font-family="Helvetica,sans-Serif" font-size="14.00">parda_omp_stackdist</text>
</a>
</g>
</g>
<!-- Node1&#45;&gt;Node20 -->
<g id="edge26" class="edge">
<title>Node1&#45;&gt;Node20</title>
<path fill="none" stroke="midnightblue" d="M51.06,-327.48C58.67,-328.56 67.55,-329.82 76.95,-331.16"/>
<polygon fill="midnightblue" stroke="midnightblue" points="76.51,-334.63 86.9,-332.57 77.49,-327.7 76.51,-334.63"/>
</g>
<!-- Node36 -->
<g id="node36" class="node">
<title>Node36</title>
<g id="a_node36"><a xlink:href="../../dc/d40/seperate_8c.html#a85143f432d331557ef6cb42706a78205" target="_top" xlink:title=" ">
<polygon fill="white" stroke="black" points="311,-84.5 311,-107.5 463,-107.5 463,-84.5 311,-84.5"/>
<text text-anchor="middle" x="387" y="-92.3" font-family="Helvetica,sans-Serif" font-size="14.00">parda_seperate_file</text>
</a>
</g>
</g>
<!-- Node1&#45;&gt;Node36 -->
<g id="edge60" class="edge">
<title>Node1&#45;&gt;Node36</title>
<path fill="none" stroke="midnightblue" d="M51.04,-322.67C102.54,-319.41 219.62,-309.45 250,-285 282.92,-258.51 262.69,-232.25 286,-197 307.73,-164.15 341.23,-133 363.39,-114.2"/>
<polygon fill="midnightblue" stroke="midnightblue" points="365.83,-116.72 371.27,-107.62 361.35,-111.34 365.83,-116.72"/>
</g>
<!-- Node40 -->
<g id="node40" class="node">
<title>Node40</title>
<g id="a_node40"><a xlink:href="../../d1/d9d/process__args_8c.html#a56d5a76295d6c8eae1f9c3059d40b19a" target="_top" xlink:title=" ">
<polygon fill="white" stroke="black" points="115,-252.5 115,-275.5 222,-275.5 222,-252.5 115,-252.5"/>
<text text-anchor="middle" x="168.5" y="-260.3" font-family="Helvetica,sans-Serif" font-size="14.00">process_args</text>
</a>
</g>
</g>
<!-- Node1&#45;&gt;Node40 -->
<g id="edge70" class="edge">
<title>Node1&#45;&gt;Node40</title>
<path fill="none" stroke="midnightblue" d="M44.81,-312.44C56.56,-305.35 72.32,-296.42 87,-290 96.39,-285.9 106.63,-282.1 116.58,-278.74"/>
<polygon fill="midnightblue" stroke="midnightblue" points="117.95,-281.98 126.37,-275.54 115.78,-275.32 117.95,-281.98"/>
</g>
<!-- Node3 -->
<g id="node3" class="node">
<title>Node3</title>
<g id="a_node3"><a xlink:href="../../de/d09/narray_8h.html#a58849f5cfc81dd047535c06f2e97cfb0" target="_top" xlink:title=" ">
<polygon fill="white" stroke="black" points="1054,-324.5 1054,-347.5 1173,-347.5 1173,-324.5 1054,-324.5"/>
<text text-anchor="middle" x="1113.5" y="-332.3" font-family="Helvetica,sans-Serif" font-size="14.00">narray_get_len</text>
</a>
</g>
</g>
<!-- Node2&#45;&gt;Node3 -->
<g id="edge2" class="edge">
<title>Node2&#45;&gt;Node3</title>
<path fill="none" stroke="midnightblue" d="M247.08,-457.71C311.58,-458.78 405.79,-459.52 488,-457 724.85,-449.73 811.74,-515.65 1018,-399 1039.4,-386.9 1033.76,-370.95 1054,-357 1056.67,-355.16 1059.51,-353.47 1062.45,-351.91"/>
<polygon fill="midnightblue" stroke="midnightblue" points="1063.97,-355.06 1071.51,-347.62 1060.97,-348.74 1063.97,-355.06"/>
</g>
<!-- Node4 -->
<g id="node4" class="node">
<title>Node4</title>
<g id="a_node4"><a xlink:href="../../d0/d96/parda_8c.html#aaecfcceb1c1b235b54a68a2d917874d8" target="_top" xlink:title=" ">
<polygon fill="white" stroke="black" points="607.5,-706.5 607.5,-729.5 697.5,-729.5 697.5,-706.5 607.5,-706.5"/>
<text text-anchor="middle" x="652.5" y="-714.3" font-family="Helvetica,sans-Serif" font-size="14.00">parda_free</text>
</a>
</g>
</g>
<!-- Node2&#45;&gt;Node4 -->
<g id="edge3" class="edge">
<title>Node2&#45;&gt;Node4</title>
<path fill="none" stroke="midnightblue" d="M179.91,-475.22C197.64,-506.19 236.62,-567.08 286,-601 383.56,-668.01 521.72,-698.36 597.16,-710.66"/>
<polygon fill="midnightblue" stroke="midnightblue" points="596.95,-714.17 607.37,-712.28 598.04,-707.26 596.95,-714.17"/>
</g>
<!-- Node8 -->
<g id="node8" class="node">
<title>Node8</title>
<g id="a_node8"><a xlink:href="../../d0/d96/parda_8c.html#ac09d652f19b088bdb26be5372506e473" target="_top" xlink:title=" ">
<polygon fill="white" stroke="black" points="610,-624.5 610,-647.5 695,-647.5 695,-624.5 610,-624.5"/>
<text text-anchor="middle" x="652.5" y="-632.3" font-family="Helvetica,sans-Serif" font-size="14.00">parda_init</text>
</a>
</g>
</g>
<!-- Node2&#45;&gt;Node8 -->
<g id="edge10" class="edge">
<title>Node2&#45;&gt;Node8</title>
<path fill="none" stroke="midnightblue" d="M185.55,-475.05C206.28,-498.36 244.67,-537.28 286,-558 389.38,-609.83 525.98,-627.3 599.43,-633.13"/>
<polygon fill="midnightblue" stroke="midnightblue" points="599.56,-636.65 609.8,-633.91 600.09,-629.67 599.56,-636.65"/>
</g>
<!-- Node11 -->
<g id="node11" class="node">
<title>Node11</title>
<g id="a_node11"><a xlink:href="../../d0/d96/parda_8c.html#a1505668d8e66fe882bf0368896c3a8ec" target="_top" xlink:title=" ">
<polygon fill="white" stroke="black" points="286,-424.5 286,-447.5 488,-447.5 488,-424.5 286,-424.5"/>
<text text-anchor="middle" x="387" y="-432.3" font-family="Helvetica,sans-Serif" font-size="14.00">parda_input_with_filename</text>
</a>
</g>
</g>
<!-- Node2&#45;&gt;Node11 -->
<g id="edge14" class="edge">
<title>Node2&#45;&gt;Node11</title>
<path fill="none" stroke="midnightblue" d="M247.05,-448.84C256.42,-447.97 266.11,-447.07 275.84,-446.18"/>
<polygon fill="midnightblue" stroke="midnightblue" points="276.32,-449.65 285.96,-445.24 275.68,-442.68 276.32,-449.65"/>
</g>
<!-- Node19 -->
<g id="node19" class="node">
<title>Node19</title>
<g id="a_node19"><a xlink:href="../../d0/dbf/parda_8h.html#aec88f011d490ecb12982491fe94340c6" target="_top" xlink:title=" ">
<polygon fill="white" stroke="black" points="300.5,-382.5 300.5,-405.5 473.5,-405.5 473.5,-382.5 300.5,-382.5"/>
<text text-anchor="middle" x="387" y="-390.3" font-family="Helvetica,sans-Serif" font-size="14.00">parda_print_histogram</text>
</a>
</g>
</g>
<!-- Node2&#45;&gt;Node19 -->
<g id="edge25" class="edge">
<title>Node2&#45;&gt;Node19</title>
<path fill="none" stroke="midnightblue" d="M218.93,-436.99C239.48,-429.51 263.7,-421.24 286,-415 295.35,-412.38 305.28,-409.93 315.11,-407.68"/>
<polygon fill="midnightblue" stroke="midnightblue" points="315.88,-411.09 324.88,-405.5 314.35,-404.26 315.88,-411.09"/>
</g>
<!-- Node5 -->
<g id="node5" class="node">
<title>Node5</title>
<g id="a_node5"><a xlink:href="../../da/de5/hostRuntime_8cpp.html#ae206dc2056b70c9901731e30447df1aa" target="_top" xlink:title=" ">
<polygon fill="white" stroke="black" points="1393,-706.5 1393,-729.5 1437,-729.5 1437,-706.5 1393,-706.5"/>
<text text-anchor="middle" x="1415" y="-714.3" font-family="Helvetica,sans-Serif" font-size="14.00">free</text>
</a>
</g>
</g>
<!-- Node4&#45;&gt;Node5 -->
<g id="edge4" class="edge">
<title>Node4&#45;&gt;Node5</title>
<path fill="none" stroke="midnightblue" d="M679.75,-729.57C711.52,-742.89 766.97,-763.95 817,-772 935.48,-791.06 1245.52,-816.42 1357,-772 1374.29,-765.11 1389.34,-750.22 1399.63,-737.81"/>
<polygon fill="midnightblue" stroke="midnightblue" points="1402.54,-739.78 1405.97,-729.75 1397.04,-735.45 1402.54,-739.78"/>
</g>
<!-- Node6 -->
<g id="node6" class="node">
<title>Node6</title>
<g id="a_node6"><a xlink:href="../../d1/df7/splay_8c.html#aa92af4ddcdf3134ef4943b684eb5c421" target="_top" xlink:title=" ">
<polygon fill="white" stroke="black" points="1247.5,-824.5 1247.5,-847.5 1318.5,-847.5 1318.5,-824.5 1247.5,-824.5"/>
<text text-anchor="middle" x="1283" y="-832.3" font-family="Helvetica,sans-Serif" font-size="14.00">freetree</text>
</a>
</g>
</g>
<!-- Node4&#45;&gt;Node6 -->
<g id="edge5" class="edge">
<title>Node4&#45;&gt;Node6</title>
<path fill="none" stroke="midnightblue" d="M668.65,-729.73C696.31,-750.38 757.6,-792.65 817,-810 966.01,-853.53 1153.05,-846.39 1237.27,-840.1"/>
<polygon fill="midnightblue" stroke="midnightblue" points="1237.57,-843.59 1247.26,-839.32 1237.02,-836.61 1237.57,-843.59"/>
</g>
<!-- Node7 -->
<g id="node7" class="node">
<title>Node7</title>
<g id="a_node7"><a xlink:href="../../dc/dce/narray_8c.html#ad4a6215f48c72db2c016b1f3d8aa2723" target="_top" xlink:title=" ">
<polygon fill="white" stroke="black" points="870,-706.5 870,-729.5 965,-729.5 965,-706.5 870,-706.5"/>
<text text-anchor="middle" x="917.5" y="-714.3" font-family="Helvetica,sans-Serif" font-size="14.00">narray_free</text>
</a>
</g>
</g>
<!-- Node4&#45;&gt;Node7 -->
<g id="edge8" class="edge">
<title>Node4&#45;&gt;Node7</title>
<path fill="none" stroke="midnightblue" d="M697.52,-718C742.03,-718 811,-718 859.62,-718"/>
<polygon fill="midnightblue" stroke="midnightblue" points="859.67,-721.5 869.67,-718 859.67,-714.5 859.67,-721.5"/>
</g>
<!-- Node6&#45;&gt;Node5 -->
<g id="edge6" class="edge">
<title>Node6&#45;&gt;Node5</title>
<path fill="none" stroke="midnightblue" d="M1318.76,-828.79C1331.75,-824.84 1346.01,-818.87 1357,-810 1380.39,-791.12 1396.8,-759.91 1405.83,-739.15"/>
<polygon fill="midnightblue" stroke="midnightblue" points="1409.18,-740.22 1409.77,-729.64 1402.71,-737.54 1409.18,-740.22"/>
</g>
<!-- Node6&#45;&gt;Node6 -->
<g id="edge7" class="edge">
<title>Node6&#45;&gt;Node6</title>
<path fill="none" stroke="midnightblue" d="M1261.45,-847.7C1253.39,-856.76 1260.57,-866 1283,-866 1297.02,-866 1305.08,-862.39 1307.19,-857.47"/>
<polygon fill="midnightblue" stroke="midnightblue" points="1310.54,-856.44 1304.55,-847.7 1303.78,-858.27 1310.54,-856.44"/>
</g>
<!-- Node7&#45;&gt;Node5 -->
<g id="edge9" class="edge">
<title>Node7&#45;&gt;Node5</title>
<path fill="none" stroke="midnightblue" d="M965.12,-718C1065.17,-718 1298.24,-718 1382.72,-718"/>
<polygon fill="midnightblue" stroke="midnightblue" points="1382.94,-721.5 1392.94,-718 1382.94,-714.5 1382.94,-721.5"/>
</g>
<!-- Node8&#45;&gt;Node5 -->
<g id="edge12" class="edge">
<title>Node8&#45;&gt;Node5</title>
<path fill="none" stroke="midnightblue" d="M686.77,-647.51C713.81,-657.85 752.08,-674.83 781,-697 800.51,-711.96 794.66,-728.73 817,-739 849.95,-754.15 1247.58,-746.39 1357,-732 1365.55,-730.88 1374.67,-728.97 1383.06,-726.91"/>
<polygon fill="midnightblue" stroke="midnightblue" points="1384.03,-730.28 1392.83,-724.38 1382.27,-723.5 1384.03,-730.28"/>
</g>
<!-- Node9 -->
<g id="node9" class="node">
<title>Node9</title>
<g id="a_node9"><a xlink:href="../../d0/d96/parda_8c.html#a91944ae0f09f2add974175b82819b9b1" target="_top" xlink:title=" ">
<polygon fill="white" stroke="black" points="852,-664.5 852,-687.5 983,-687.5 983,-664.5 852,-664.5"/>
<text text-anchor="middle" x="917.5" y="-672.3" font-family="Helvetica,sans-Serif" font-size="14.00">compare_strings</text>
</a>
</g>
</g>
<!-- Node8&#45;&gt;Node9 -->
<g id="edge11" class="edge">
<title>Node8&#45;&gt;Node9</title>
<path fill="none" stroke="midnightblue" d="M695.17,-642.34C734.52,-648.32 794.43,-657.43 842,-664.67"/>
<polygon fill="midnightblue" stroke="midnightblue" points="841.54,-668.14 851.95,-666.18 842.59,-661.22 841.54,-668.14"/>
</g>
<!-- Node10 -->
<g id="node10" class="node">
<title>Node10</title>
<g id="a_node10"><a xlink:href="../../dc/dce/narray_8c.html#a32d99037d1eb9c14a4802ce1999cd8d6" target="_top" xlink:title=" ">
<polygon fill="white" stroke="black" points="1065,-620.5 1065,-643.5 1162,-643.5 1162,-620.5 1065,-620.5"/>
<text text-anchor="middle" x="1113.5" y="-628.3" font-family="Helvetica,sans-Serif" font-size="14.00">narray_new</text>
</a>
</g>
</g>
<!-- Node8&#45;&gt;Node10 -->
<g id="edge13" class="edge">
<title>Node8&#45;&gt;Node10</title>
<path fill="none" stroke="midnightblue" d="M695.04,-635.64C777.25,-634.92 960.84,-633.32 1054.75,-632.5"/>
<polygon fill="midnightblue" stroke="midnightblue" points="1054.95,-636 1064.92,-632.41 1054.89,-629 1054.95,-636"/>
</g>
<!-- Node12 -->
<g id="node12" class="node">
<title>Node12</title>
<g id="a_node12"><a xlink:href="../../d0/d96/parda_8c.html#a2db3eea4fc07fce7ce243d7f257355f1" target="_top" xlink:title=" ">
<polygon fill="white" stroke="black" points="524,-406.5 524,-429.5 781,-429.5 781,-406.5 524,-406.5"/>
<text text-anchor="middle" x="652.5" y="-414.3" font-family="Helvetica,sans-Serif" font-size="14.00">parda_input_with_binaryfilepointer</text>
</a>
</g>
</g>
<!-- Node11&#45;&gt;Node12 -->
<g id="edge15" class="edge">
<title>Node11&#45;&gt;Node12</title>
<path fill="none" stroke="midnightblue" d="M488.37,-429.14C496.73,-428.57 505.27,-427.99 513.85,-427.4"/>
<polygon fill="midnightblue" stroke="midnightblue" points="514.18,-430.89 523.92,-426.71 513.71,-423.9 514.18,-430.89"/>
</g>
<!-- Node13 -->
<g id="node13" class="node">
<title>Node13</title>
<g id="a_node13"><a xlink:href="../../d0/d96/parda_8c.html#a2e011afd5d113d7b404cff2b9467af8d" target="_top" xlink:title=" ">
<polygon fill="white" stroke="black" points="533,-486.5 533,-509.5 772,-509.5 772,-486.5 533,-486.5"/>
<text text-anchor="middle" x="652.5" y="-494.3" font-family="Helvetica,sans-Serif" font-size="14.00">parda_input_with_textfilepointer</text>
</a>
</g>
</g>
<!-- Node11&#45;&gt;Node13 -->
<g id="edge16" class="edge">
<title>Node11&#45;&gt;Node13</title>
<path fill="none" stroke="midnightblue" d="M436.94,-447.52C480.9,-457.86 545.53,-473.07 592.36,-484.09"/>
<polygon fill="midnightblue" stroke="midnightblue" points="591.84,-487.56 602.37,-486.44 593.44,-480.74 591.84,-487.56"/>
</g>
<!-- Node14 -->
<g id="node14" class="node">
<title>Node14</title>
<g id="a_node14"><a xlink:href="../../d0/dbf/parda_8h.html#aba642b919a1605f65607ac245ce94fa9" target="_top" xlink:title=" ">
<polygon fill="white" stroke="black" points="840,-484.5 840,-507.5 995,-507.5 995,-484.5 840,-484.5"/>
<text text-anchor="middle" x="917.5" y="-492.3" font-family="Helvetica,sans-Serif" font-size="14.00">process_one_access</text>
</a>
</g>
</g>
<!-- Node13&#45;&gt;Node14 -->
<g id="edge17" class="edge">
<title>Node13&#45;&gt;Node14</title>
<path fill="none" stroke="midnightblue" d="M772.3,-497.1C791.6,-496.95 811.26,-496.8 829.61,-496.66"/>
<polygon fill="midnightblue" stroke="midnightblue" points="829.69,-500.16 839.66,-496.58 829.64,-493.16 829.69,-500.16"/>
</g>
<!-- Node18 -->
<g id="node18" class="node">
<title>Node18</title>
<g id="a_node18"><a xlink:href="../../d0/dbf/parda_8h.html#ab88eb69b6dc07345fb2318fe9c2093d1" target="_top" xlink:title=" ">
<polygon fill="white" stroke="black" points="840,-527 840,-565 995,-565 995,-527 840,-527"/>
<text text-anchor="start" x="848" y="-549.8" font-family="Helvetica,sans-Serif" font-size="14.00">process_one_access</text>
<text text-anchor="middle" x="917.5" y="-534.8" font-family="Helvetica,sans-Serif" font-size="14.00">_shared</text>
</a>
</g>
</g>
<!-- Node13&#45;&gt;Node18 -->
<g id="edge22" class="edge">
<title>Node13&#45;&gt;Node18</title>
<path fill="none" stroke="midnightblue" d="M716.83,-509.56C750.59,-515.72 792.64,-523.39 829.43,-530.11"/>
<polygon fill="midnightblue" stroke="midnightblue" points="829.19,-533.62 839.65,-531.97 830.44,-526.74 829.19,-533.62"/>
</g>
<!-- Node15 -->
<g id="node15" class="node">
<title>Node15</title>
<g id="a_node15"><a xlink:href="../../d1/df7/splay_8c.html#a7860ad42bad70e478b3778c1eb4c42b7" target="_top" xlink:title=" ">
<polygon fill="white" stroke="black" points="1085.5,-366.5 1085.5,-389.5 1141.5,-389.5 1141.5,-366.5 1085.5,-366.5"/>
<text text-anchor="middle" x="1113.5" y="-374.3" font-family="Helvetica,sans-Serif" font-size="14.00">insert</text>
</a>
</g>
</g>
<!-- Node14&#45;&gt;Node15 -->
<g id="edge18" class="edge">
<title>Node14&#45;&gt;Node15</title>
<path fill="none" stroke="midnightblue" d="M982.51,-484.5C994.74,-480.87 1007.12,-476.14 1018,-470 1050.95,-451.41 1080.73,-418.49 1097.71,-397.48"/>
<polygon fill="midnightblue" stroke="midnightblue" points="1100.53,-399.56 1103.97,-389.55 1095.03,-395.23 1100.53,-399.56"/>
</g>
<!-- Node17 -->
<g id="node17" class="node">
<title>Node17</title>
<g id="a_node17"><a xlink:href="../../dc/dce/narray_8c.html#a00e1ac7249125879d43230a3f1a49b1d" target="_top" xlink:title=" ">
<polygon fill="white" stroke="black" points="1209,-534.5 1209,-557.5 1357,-557.5 1357,-534.5 1209,-534.5"/>
<text text-anchor="middle" x="1283" y="-542.3" font-family="Helvetica,sans-Serif" font-size="14.00">narray_append_val</text>
</a>
</g>
</g>
<!-- Node14&#45;&gt;Node17 -->
<g id="edge20" class="edge">
<title>Node14&#45;&gt;Node17</title>
<path fill="none" stroke="midnightblue" d="M995.14,-506.54C1054.83,-514.75 1137.56,-526.13 1198.84,-534.56"/>
<polygon fill="midnightblue" stroke="midnightblue" points="1198.49,-538.05 1208.87,-535.94 1199.44,-531.11 1198.49,-538.05"/>
</g>
<!-- Node16 -->
<g id="node16" class="node">
<title>Node16</title>
<g id="a_node16"><a xlink:href="../../d1/df7/splay_8c.html#a504c21ef77c65b86162e01d158acd1d6" target="_top" xlink:title=" ">
<polygon fill="white" stroke="black" points="1256.5,-366.5 1256.5,-389.5 1309.5,-389.5 1309.5,-366.5 1256.5,-366.5"/>
<text text-anchor="middle" x="1283" y="-374.3" font-family="Helvetica,sans-Serif" font-size="14.00">splay</text>
</a>
</g>
</g>
<!-- Node15&#45;&gt;Node16 -->
<g id="edge19" class="edge">
<title>Node15&#45;&gt;Node16</title>
<path fill="none" stroke="midnightblue" d="M1141.78,-378C1170.27,-378 1215.06,-378 1246.33,-378"/>
<polygon fill="midnightblue" stroke="midnightblue" points="1246.38,-381.5 1256.38,-378 1246.38,-374.5 1246.38,-381.5"/>
</g>
<!-- Node17&#45;&gt;Node5 -->
<g id="edge21" class="edge">
<title>Node17&#45;&gt;Node5</title>
<path fill="none" stroke="midnightblue" d="M1292.73,-557.55C1314.56,-586.44 1371.73,-662.07 1399.04,-698.21"/>
<polygon fill="midnightblue" stroke="midnightblue" points="1396.48,-700.63 1405.31,-706.5 1402.07,-696.41 1396.48,-700.63"/>
</g>
<!-- Node18&#45;&gt;Node15 -->
<g id="edge23" class="edge">
<title>Node18&#45;&gt;Node15</title>
<path fill="none" stroke="midnightblue" d="M995.24,-529.63C1003.31,-526.19 1011.09,-522.03 1018,-517 1060.62,-486.01 1090.14,-429.57 1103.83,-399.01"/>
<polygon fill="midnightblue" stroke="midnightblue" points="1107.09,-400.28 1107.86,-389.71 1100.67,-397.5 1107.09,-400.28"/>
</g>
<!-- Node18&#45;&gt;Node17 -->
<g id="edge24" class="edge">
<title>Node18&#45;&gt;Node17</title>
<path fill="none" stroke="midnightblue" d="M995.14,-546C1054.83,-546 1137.56,-546 1198.84,-546"/>
<polygon fill="midnightblue" stroke="midnightblue" points="1198.87,-549.5 1208.87,-546 1198.87,-542.5 1198.87,-549.5"/>
</g>
<!-- Node20&#45;&gt;Node3 -->
<g id="edge27" class="edge">
<title>Node20&#45;&gt;Node3</title>
<path fill="none" stroke="midnightblue" d="M206.06,-332.46C228.8,-325.9 258.8,-318.34 286,-315 608.92,-275.41 694.61,-279.5 1018,-315 1031.71,-316.51 1046.35,-319.2 1059.9,-322.18"/>
<polygon fill="midnightblue" stroke="midnightblue" points="1059.49,-325.67 1070.02,-324.49 1061.05,-318.85 1059.49,-325.67"/>
</g>
<!-- Node20&#45;&gt;Node4 -->
<g id="edge28" class="edge">
<title>Node20&#45;&gt;Node4</title>
<path fill="none" stroke="midnightblue" d="M184.58,-355.7C202.74,-370.58 232.92,-397.98 250,-428 279.64,-480.11 242.35,-516.91 286,-558 352.84,-620.92 412.48,-548.82 488,-601 512.34,-617.82 501.81,-637.43 524,-657 547.33,-677.58 578.83,-692.74 604.68,-702.8"/>
<polygon fill="midnightblue" stroke="midnightblue" points="603.69,-706.17 614.29,-706.41 606.15,-699.61 603.69,-706.17"/>
</g>
<!-- Node20&#45;&gt;Node19 -->
<g id="edge58" class="edge">
<title>Node20&#45;&gt;Node19</title>
<path fill="none" stroke="midnightblue" d="M214.22,-355.54C235.85,-361.02 262.23,-367.55 286,-373 296.72,-375.46 308.12,-377.96 319.23,-380.34"/>
<polygon fill="midnightblue" stroke="midnightblue" points="318.82,-383.83 329.33,-382.48 320.28,-376.98 318.82,-383.83"/>
</g>
<!-- Node21 -->
<g id="node21" class="node">
<title>Node21</title>
<g id="a_node21"><a xlink:href="../../d0/d82/parda__omp_8c.html#aaf542e14f3fdeb83a97dff5b2c8f2860" target="_top" xlink:title=" ">
<polygon fill="white" stroke="black" points="1219,-285.5 1219,-308.5 1347,-308.5 1347,-285.5 1219,-285.5"/>
<text text-anchor="middle" x="1283" y="-293.3" font-family="Helvetica,sans-Serif" font-size="14.00">parda_omp_free</text>
</a>
</g>
</g>
<!-- Node20&#45;&gt;Node21 -->
<g id="edge29" class="edge">
<title>Node20&#45;&gt;Node21</title>
<path fill="none" stroke="midnightblue" d="M212.33,-332.45C224.82,-328.34 238.25,-323.17 250,-317 267.71,-307.7 267.32,-297.15 286,-290 438.3,-231.73 488.43,-258 651.5,-258 651.5,-258 651.5,-258 918.5,-258 1019.58,-258 1135.58,-273.09 1208.81,-284.5"/>
<polygon fill="midnightblue" stroke="midnightblue" points="1208.43,-287.98 1218.85,-286.08 1209.52,-281.07 1208.43,-287.98"/>
</g>
<!-- Node22 -->
<g id="node22" class="node">
<title>Node22</title>
<g id="a_node22"><a xlink:href="../../d0/d82/parda__omp_8c.html#ac3c36738a53637ee5b07e3b3f91629dc" target="_top" xlink:title=" ">
<polygon fill="white" stroke="black" points="326,-525.5 326,-548.5 448,-548.5 448,-525.5 326,-525.5"/>
<text text-anchor="middle" x="387" y="-533.3" font-family="Helvetica,sans-Serif" font-size="14.00">parda_omp_init</text>
</a>
</g>
</g>
<!-- Node20&#45;&gt;Node22 -->
<g id="edge31" class="edge">
<title>Node20&#45;&gt;Node22</title>
<path fill="none" stroke="midnightblue" d="M180.73,-355.6C201.12,-376.5 245.84,-421.6 286,-457 311.25,-479.25 341.6,-503.16 362.2,-518.99"/>
<polygon fill="midnightblue" stroke="midnightblue" points="360.31,-521.95 370.38,-525.24 364.56,-516.39 360.31,-521.95"/>
</g>
<!-- Node23 -->
<g id="node23" class="node">
<title>Node23</title>
<g id="a_node23"><a xlink:href="../../d0/d82/parda__omp_8c.html#a9608f67126e55a4e283694263aef00a4" target="_top" xlink:title=" ">
<polygon fill="white" stroke="black" points="300.5,-325 300.5,-363 473.5,-363 473.5,-325 300.5,-325"/>
<text text-anchor="start" x="308.5" y="-347.8" font-family="Helvetica,sans-Serif" font-size="14.00">parda_omp_input_with</text>
<text text-anchor="middle" x="387" y="-332.8" font-family="Helvetica,sans-Serif" font-size="14.00">_filename</text>
</a>
</g>
</g>
<!-- Node20&#45;&gt;Node23 -->
<g id="edge33" class="edge">
<title>Node20&#45;&gt;Node23</title>
<path fill="none" stroke="midnightblue" d="M250.12,-344C263.15,-344 276.75,-344 290.1,-344"/>
<polygon fill="midnightblue" stroke="midnightblue" points="290.24,-347.5 300.24,-344 290.24,-340.5 290.24,-347.5"/>
</g>
<!-- Node35 -->
<g id="node35" class="node">
<title>Node35</title>
<g id="a_node35"><a xlink:href="../../d0/dbf/parda_8h.html#adc17d2f5dd5536cc412cdbf3b7bd8c93" target="_top" xlink:title=" ">
<polygon fill="white" stroke="black" points="355.5,-206.5 355.5,-229.5 418.5,-229.5 418.5,-206.5 355.5,-206.5"/>
<text text-anchor="middle" x="387" y="-214.3" font-family="Helvetica,sans-Serif" font-size="14.00">rtclock</text>
</a>
</g>
</g>
<!-- Node20&#45;&gt;Node35 -->
<g id="edge59" class="edge">
<title>Node20&#45;&gt;Node35</title>
<path fill="none" stroke="midnightblue" d="M225.45,-332.46C234.32,-328.87 242.9,-324.16 250,-318 277.61,-294.02 257.7,-267.17 286,-244 302.66,-230.35 325.69,-223.79 345.45,-220.66"/>
<polygon fill="midnightblue" stroke="midnightblue" points="345.99,-224.12 355.44,-219.32 345.06,-217.19 345.99,-224.12"/>
</g>
<!-- Node21&#45;&gt;Node5 -->
<g id="edge30" class="edge">
<title>Node21&#45;&gt;Node5</title>
<path fill="none" stroke="midnightblue" d="M1305.24,-308.56C1322.12,-318.94 1344.86,-335.78 1357,-357 1390.66,-415.82 1407.83,-627.82 1412.6,-696.42"/>
<polygon fill="midnightblue" stroke="midnightblue" points="1409.11,-696.75 1413.28,-706.49 1416.1,-696.28 1409.11,-696.75"/>
</g>
<!-- Node22&#45;&gt;Node8 -->
<g id="edge32" class="edge">
<title>Node22&#45;&gt;Node8</title>
<path fill="none" stroke="midnightblue" d="M420.95,-548.65C440.48,-555.61 465.7,-564.69 488,-573 530.62,-588.88 579.24,-607.7 612.3,-620.61"/>
<polygon fill="midnightblue" stroke="midnightblue" points="611.45,-624.04 622.04,-624.42 614,-617.52 611.45,-624.04"/>
</g>
<!-- Node23&#45;&gt;Node12 -->
<g id="edge40" class="edge">
<title>Node23&#45;&gt;Node12</title>
<path fill="none" stroke="midnightblue" d="M463.19,-363.08C471.7,-366.04 480.13,-369.34 488,-373 505.44,-381.11 506.11,-389.95 524,-397 530.6,-399.6 537.52,-401.88 544.57,-403.88"/>
<polygon fill="midnightblue" stroke="midnightblue" points="543.69,-407.27 554.25,-406.43 545.47,-400.5 543.69,-407.27"/>
</g>
<!-- Node23&#45;&gt;Node13 -->
<g id="edge41" class="edge">
<title>Node23&#45;&gt;Node13</title>
<path fill="none" stroke="midnightblue" d="M472.86,-363.17C478.24,-366.01 483.35,-369.26 488,-373 514.05,-393.93 499.61,-416.17 524,-439 545.63,-459.25 575.44,-473.57 600.8,-483.02"/>
<polygon fill="midnightblue" stroke="midnightblue" points="599.68,-486.34 610.28,-486.41 602.04,-479.75 599.68,-486.34"/>
</g>
<!-- Node24 -->
<g id="node24" class="node">
<title>Node24</title>
<g id="a_node24"><a xlink:href="../../d0/d82/parda__omp_8c.html#a5d46267c0ac6b1974e173b966bade09c" target="_top" xlink:title=" ">
<polygon fill="white" stroke="black" points="567.5,-187.5 567.5,-210.5 737.5,-210.5 737.5,-187.5 567.5,-187.5"/>
<text text-anchor="middle" x="652.5" y="-195.3" font-family="Helvetica,sans-Serif" font-size="14.00">parda_get_thread_info</text>
</a>
</g>
</g>
<!-- Node23&#45;&gt;Node24 -->
<g id="edge34" class="edge">
<title>Node23&#45;&gt;Node24</title>
<path fill="none" stroke="midnightblue" d="M422.72,-324.89C474.84,-296.21 572.42,-242.51 621.58,-215.46"/>
<polygon fill="midnightblue" stroke="midnightblue" points="623.38,-218.47 630.46,-210.58 620.01,-212.33 623.38,-218.47"/>
</g>
<!-- Node28 -->
<g id="node28" class="node">
<title>Node28</title>
<g id="a_node28"><a xlink:href="../../d0/d96/parda_8c.html#ac66e3c12653af16fe2738d9e0089acfc" target="_top" xlink:title=" ">
<polygon fill="white" stroke="black" points="599,-364.5 599,-387.5 706,-387.5 706,-364.5 599,-364.5"/>
<text text-anchor="middle" x="652.5" y="-372.3" font-family="Helvetica,sans-Serif" font-size="14.00">parda_merge</text>
</a>
</g>
</g>
<!-- Node23&#45;&gt;Node28 -->
<g id="edge42" class="edge">
<title>Node23&#45;&gt;Node28</title>
<path fill="none" stroke="midnightblue" d="M473.55,-354.39C511.16,-358.96 554.53,-364.22 589.03,-368.41"/>
<polygon fill="midnightblue" stroke="midnightblue" points="588.63,-371.89 598.98,-369.62 589.47,-364.94 588.63,-371.89"/>
</g>
<!-- Node33 -->
<g id="node33" class="node">
<title>Node33</title>
<g id="a_node33"><a xlink:href="../../d0/d82/parda__omp_8c.html#ad56cad2d13d0e6b3cc0fb151a1766a6d" target="_top" xlink:title=" ">
<polygon fill="white" stroke="black" points="574.5,-84.5 574.5,-107.5 730.5,-107.5 730.5,-84.5 574.5,-84.5"/>
<text text-anchor="middle" x="652.5" y="-92.3" font-family="Helvetica,sans-Serif" font-size="14.00">parda_omp_openfile</text>
</a>
</g>
</g>
<!-- Node23&#45;&gt;Node33 -->
<g id="edge56" class="edge">
<title>Node23&#45;&gt;Node33</title>
<path fill="none" stroke="midnightblue" d="M411.99,-324.76C434.67,-305.36 468.1,-273.44 488,-239 516.29,-190.05 481.63,-154.43 524,-117 535.38,-106.95 549.65,-100.74 564.49,-97.05"/>
<polygon fill="midnightblue" stroke="midnightblue" points="565.25,-100.47 574.3,-94.98 563.8,-93.62 565.25,-100.47"/>
</g>
<!-- Node25 -->
<g id="node25" class="node">
<title>Node25</title>
<g id="a_node25"><a xlink:href="../../d0/dbf/parda_8h.html#acaab2e6efac0dda49e7cd3681b821bb1" target="_top" xlink:title=" ">
<polygon fill="white" stroke="black" points="870.5,-126.5 870.5,-149.5 964.5,-149.5 964.5,-126.5 870.5,-126.5"/>
<text text-anchor="middle" x="917.5" y="-134.3" font-family="Helvetica,sans-Serif" font-size="14.00">parda_high</text>
</a>
</g>
</g>
<!-- Node24&#45;&gt;Node25 -->
<g id="edge35" class="edge">
<title>Node24&#45;&gt;Node25</title>
<path fill="none" stroke="midnightblue" d="M703.28,-187.45C748.09,-177.06 813.88,-161.8 860.51,-150.99"/>
<polygon fill="midnightblue" stroke="midnightblue" points="861.5,-154.35 870.45,-148.68 859.92,-147.53 861.5,-154.35"/>
</g>
<!-- Node26 -->
<g id="node26" class="node">
<title>Node26</title>
<g id="a_node26"><a xlink:href="../../d0/dbf/parda_8h.html#ae98c5df9941618081aa7dd90a30627fc" target="_top" xlink:title=" ">
<polygon fill="white" stroke="black" points="1070.5,-126.5 1070.5,-149.5 1156.5,-149.5 1156.5,-126.5 1070.5,-126.5"/>
<text text-anchor="middle" x="1113.5" y="-134.3" font-family="Helvetica,sans-Serif" font-size="14.00">parda_low</text>
</a>
</g>
</g>
<!-- Node24&#45;&gt;Node26 -->
<g id="edge37" class="edge">
<title>Node24&#45;&gt;Node26</title>
<path fill="none" stroke="midnightblue" d="M737.83,-192.38C811.93,-185.94 922.53,-174.8 1018,-159 1031.88,-156.7 1046.78,-153.66 1060.55,-150.61"/>
<polygon fill="midnightblue" stroke="midnightblue" points="1061.37,-154.02 1070.35,-148.4 1059.83,-147.19 1061.37,-154.02"/>
</g>
<!-- Node27 -->
<g id="node27" class="node">
<title>Node27</title>
<g id="a_node27"><a xlink:href="../../d0/dbf/parda_8h.html#a8b096049ef5ab82de4e5eaa0c22aedd6" target="_top" xlink:title=" ">
<polygon fill="white" stroke="black" points="872.5,-206.5 872.5,-229.5 962.5,-229.5 962.5,-206.5 872.5,-206.5"/>
<text text-anchor="middle" x="917.5" y="-214.3" font-family="Helvetica,sans-Serif" font-size="14.00">parda_size</text>
</a>
</g>
</g>
<!-- Node24&#45;&gt;Node27 -->
<g id="edge38" class="edge">
<title>Node24&#45;&gt;Node27</title>
<path fill="none" stroke="midnightblue" d="M737.8,-205.09C778.55,-208.03 826.27,-211.48 862.15,-214.07"/>
<polygon fill="midnightblue" stroke="midnightblue" points="862.18,-217.58 872.41,-214.81 862.68,-210.6 862.18,-217.58"/>
</g>
<!-- Node25&#45;&gt;Node26 -->
<g id="edge36" class="edge">
<title>Node25&#45;&gt;Node26</title>
<path fill="none" stroke="midnightblue" d="M964.97,-138C993.65,-138 1030.5,-138 1060.2,-138"/>
<polygon fill="midnightblue" stroke="midnightblue" points="1060.38,-141.5 1070.38,-138 1060.38,-134.5 1060.38,-141.5"/>
</g>
<!-- Node27&#45;&gt;Node26 -->
<g id="edge39" class="edge">
<title>Node27&#45;&gt;Node26</title>
<path fill="none" stroke="midnightblue" d="M962.9,-209.04C980.41,-204.84 1000.48,-199.15 1018,-192 1042.51,-182 1068.49,-166.78 1086.99,-155.04"/>
<polygon fill="midnightblue" stroke="midnightblue" points="1088.93,-157.96 1095.44,-149.6 1085.14,-152.07 1088.93,-157.96"/>
</g>
<!-- Node28&#45;&gt;Node5 -->
<g id="edge43" class="edge">
<title>Node28&#45;&gt;Node5</title>
<path fill="none" stroke="midnightblue" d="M706.06,-383.94C861.11,-407.81 1308.81,-480 1357,-525 1405.91,-570.67 1413.54,-656.05 1414.28,-696.14"/>
<polygon fill="midnightblue" stroke="midnightblue" points="1410.78,-696.41 1414.33,-706.4 1417.78,-696.38 1410.78,-696.41"/>
</g>
<!-- Node28&#45;&gt;Node7 -->
<g id="edge44" class="edge">
<title>Node28&#45;&gt;Node7</title>
<path fill="none" stroke="midnightblue" d="M706.17,-370.99C732.23,-371.53 762.08,-377.23 781,-397 873.85,-494.01 726.34,-597.93 817,-697 827.9,-708.91 843.71,-714.99 859.54,-717.89"/>
<polygon fill="midnightblue" stroke="midnightblue" points="859.49,-721.42 869.89,-719.36 860.48,-714.49 859.49,-721.42"/>
</g>
<!-- Node29 -->
<g id="node29" class="node">
<title>Node29</title>
<g id="a_node29"><a xlink:href="../../d0/d96/parda_8c.html#a961dead466e68fdb22133f3544e60bda" target="_top" xlink:title=" ">
<polygon fill="white" stroke="black" points="838.5,-584.5 838.5,-607.5 996.5,-607.5 996.5,-584.5 838.5,-584.5"/>
<text text-anchor="middle" x="917.5" y="-592.3" font-family="Helvetica,sans-Serif" font-size="14.00">parda_generate_end</text>
</a>
</g>
</g>
<!-- Node28&#45;&gt;Node29 -->
<g id="edge45" class="edge">
<title>Node28&#45;&gt;Node29</title>
<path fill="none" stroke="midnightblue" d="M706.17,-371.64C731.91,-372.44 761.46,-378.16 781,-397 839.1,-453.03 760.17,-517.69 817,-575 820.71,-578.74 824.91,-581.9 829.43,-584.55"/>
<polygon fill="midnightblue" stroke="midnightblue" points="827.98,-587.74 838.49,-589.06 831.1,-581.47 827.98,-587.74"/>
</g>
<!-- Node31 -->
<g id="node31" class="node">
<title>Node31</title>
<g id="a_node31"><a xlink:href="../../d0/d96/parda_8c.html#a757e86b5a2b7eac055f98a355da1c184" target="_top" xlink:title=" ">
<polygon fill="white" stroke="black" points="849.5,-366.5 849.5,-389.5 985.5,-389.5 985.5,-366.5 849.5,-366.5"/>
<text text-anchor="middle" x="917.5" y="-374.3" font-family="Helvetica,sans-Serif" font-size="14.00">parda_get_abend</text>
</a>
</g>
</g>
<!-- Node28&#45;&gt;Node31 -->
<g id="edge49" class="edge">
<title>Node28&#45;&gt;Node31</title>
<path fill="none" stroke="midnightblue" d="M706.09,-376.4C744.25,-376.69 796.49,-377.09 839.36,-377.41"/>
<polygon fill="midnightblue" stroke="midnightblue" points="839.46,-380.91 849.48,-377.49 839.51,-373.91 839.46,-380.91"/>
</g>
<!-- Node32 -->
<g id="node32" class="node">
<title>Node32</title>
<g id="a_node32"><a xlink:href="../../d0/d96/parda_8c.html#a8e4c1106b242bf781e1ec7d62fc21a41" target="_top" xlink:title=" ">
<polygon fill="white" stroke="black" points="846,-324.5 846,-347.5 989,-347.5 989,-324.5 846,-324.5"/>
<text text-anchor="middle" x="917.5" y="-332.3" font-family="Helvetica,sans-Serif" font-size="14.00">parda_get_abfront</text>
</a>
</g>
</g>
<!-- Node28&#45;&gt;Node32 -->
<g id="edge52" class="edge">
<title>Node28&#45;&gt;Node32</title>
<path fill="none" stroke="midnightblue" d="M706.09,-368C743.14,-362.37 793.46,-354.71 835.6,-348.3"/>
<polygon fill="midnightblue" stroke="midnightblue" points="836.21,-351.75 845.57,-346.79 835.15,-344.83 836.21,-351.75"/>
</g>
<!-- Node29&#45;&gt;Node10 -->
<g id="edge48" class="edge">
<title>Node29&#45;&gt;Node10</title>
<path fill="none" stroke="midnightblue" d="M980.68,-607.54C1004.43,-611.95 1031.39,-616.95 1054.72,-621.28"/>
<polygon fill="midnightblue" stroke="midnightblue" points="1054.34,-624.77 1064.81,-623.15 1055.61,-617.88 1054.34,-624.77"/>
</g>
<!-- Node30 -->
<g id="node30" class="node">
<title>Node30</title>
<g id="a_node30"><a xlink:href="../../d0/d96/parda_8c.html#a91a802bec195082a1e725e3f307b099a" target="_top" xlink:title=" ">
<polygon fill="white" stroke="black" points="1079.5,-576.5 1079.5,-599.5 1147.5,-599.5 1147.5,-576.5 1079.5,-576.5"/>
<text text-anchor="middle" x="1113.5" y="-584.3" font-family="Helvetica,sans-Serif" font-size="14.00">iterator</text>
</a>
</g>
</g>
<!-- Node29&#45;&gt;Node30 -->
<g id="edge46" class="edge">
<title>Node29&#45;&gt;Node30</title>
<path fill="none" stroke="midnightblue" d="M996.57,-592.78C1021.36,-591.76 1047.87,-590.67 1069.27,-589.78"/>
<polygon fill="midnightblue" stroke="midnightblue" points="1069.49,-593.28 1079.34,-589.37 1069.2,-586.28 1069.49,-593.28"/>
</g>
<!-- Node30&#45;&gt;Node17 -->
<g id="edge47" class="edge">
<title>Node30&#45;&gt;Node17</title>
<path fill="none" stroke="midnightblue" d="M1147.59,-579.7C1170,-574.08 1200.15,-566.52 1226.21,-559.99"/>
<polygon fill="midnightblue" stroke="midnightblue" points="1227.13,-563.37 1235.98,-557.54 1225.43,-556.58 1227.13,-563.37"/>
</g>
<!-- Node31&#45;&gt;Node3 -->
<g id="edge51" class="edge">
<title>Node31&#45;&gt;Node3</title>
<path fill="none" stroke="midnightblue" d="M973.52,-366.5C988,-363.44 1003.59,-360.12 1018,-357 1028.69,-354.68 1040.05,-352.19 1051.05,-349.75"/>
<polygon fill="midnightblue" stroke="midnightblue" points="1052.02,-353.13 1061.02,-347.54 1050.5,-346.29 1052.02,-353.13"/>
</g>
<!-- Node31&#45;&gt;Node15 -->
<g id="edge50" class="edge">
<title>Node31&#45;&gt;Node15</title>
<path fill="none" stroke="midnightblue" d="M985.54,-378C1015.43,-378 1049.55,-378 1074.88,-378"/>
<polygon fill="midnightblue" stroke="midnightblue" points="1075.16,-381.5 1085.16,-378 1075.16,-374.5 1075.16,-381.5"/>
</g>
<!-- Node32&#45;&gt;Node3 -->
<g id="edge55" class="edge">
<title>Node32&#45;&gt;Node3</title>
<path fill="none" stroke="midnightblue" d="M989.09,-336C1006.84,-336 1025.87,-336 1043.54,-336"/>
<polygon fill="midnightblue" stroke="midnightblue" points="1043.76,-339.5 1053.76,-336 1043.76,-332.5 1043.76,-339.5"/>
</g>
<!-- Node32&#45;&gt;Node15 -->
<g id="edge53" class="edge">
<title>Node32&#45;&gt;Node15</title>
<path fill="none" stroke="midnightblue" d="M973.52,-347.5C988,-350.56 1003.59,-353.88 1018,-357 1036.95,-361.1 1058.01,-365.77 1075.43,-369.67"/>
<polygon fill="midnightblue" stroke="midnightblue" points="1074.7,-373.09 1085.22,-371.86 1076.23,-366.26 1074.7,-373.09"/>
</g>
<!-- Node32&#45;&gt;Node17 -->
<g id="edge54" class="edge">
<title>Node32&#45;&gt;Node17</title>
<path fill="none" stroke="midnightblue" d="M943.79,-324.41C992.63,-303.94 1101.38,-267.78 1173,-315 1206.91,-337.36 1191.96,-362.13 1209,-399 1230.07,-444.58 1256.72,-497.07 1271.29,-525.35"/>
<polygon fill="midnightblue" stroke="midnightblue" points="1268.21,-527.02 1275.91,-534.29 1274.43,-523.8 1268.21,-527.02"/>
</g>
<!-- Node34 -->
<g id="node34" class="node">
<title>Node34</title>
<g id="a_node34"><a xlink:href="../../d0/dbf/parda_8h.html#aa791bc155904822d2963775bdc5be422" target="_top" xlink:title=" ">
<polygon fill="white" stroke="black" points="817,-46.5 817,-69.5 1018,-69.5 1018,-46.5 817,-46.5"/>
<text text-anchor="middle" x="917.5" y="-54.3" font-family="Helvetica,sans-Serif" font-size="14.00">parda_generate_pfilename</text>
</a>
</g>
</g>
<!-- Node33&#45;&gt;Node34 -->
<g id="edge57" class="edge">
<title>Node33&#45;&gt;Node34</title>
<path fill="none" stroke="midnightblue" d="M730.63,-84.86C760.72,-80.51 795.42,-75.49 826.63,-70.99"/>
<polygon fill="midnightblue" stroke="midnightblue" points="827.23,-74.43 836.63,-69.54 826.23,-67.51 827.23,-74.43"/>
</g>
<!-- Node37 -->
<g id="node37" class="node">
<title>Node37</title>
<g id="a_node37"><a xlink:href="../../dc/d40/seperate_8c.html#a9595fc1446e2a34fa3413e3a93b31978" target="_top" xlink:title=" ">
<polygon fill="white" stroke="black" points="599.5,-0.5 599.5,-23.5 705.5,-23.5 705.5,-0.5 599.5,-0.5"/>
<text text-anchor="middle" x="652.5" y="-8.3" font-family="Helvetica,sans-Serif" font-size="14.00">get_file_lines</text>
</a>
</g>
</g>
<!-- Node36&#45;&gt;Node37 -->
<g id="edge61" class="edge">
<title>Node36&#45;&gt;Node37</title>
<path fill="none" stroke="midnightblue" d="M408.5,-84.35C434.53,-70.08 481.22,-46.16 524,-33 544.82,-26.59 568.19,-22.02 589.18,-18.82"/>
<polygon fill="midnightblue" stroke="midnightblue" points="589.88,-22.26 599.28,-17.36 588.88,-15.33 589.88,-22.26"/>
</g>
<!-- Node38 -->
<g id="node38" class="node">
<title>Node38</title>
<g id="a_node38"><a xlink:href="../../dc/d40/seperate_8c.html#adc18bc6000d39fe9a557b3882da19f8c" target="_top" xlink:title=" ">
<polygon fill="white" stroke="black" points="578,-126.5 578,-149.5 727,-149.5 727,-126.5 578,-126.5"/>
<text text-anchor="middle" x="652.5" y="-134.3" font-family="Helvetica,sans-Serif" font-size="14.00">seperate_binaryfile</text>
</a>
</g>
</g>
<!-- Node36&#45;&gt;Node38 -->
<g id="edge62" class="edge">
<title>Node36&#45;&gt;Node38</title>
<path fill="none" stroke="midnightblue" d="M460.35,-107.53C494.05,-112.9 534.3,-119.32 569.16,-124.88"/>
<polygon fill="midnightblue" stroke="midnightblue" points="568.88,-128.38 579.31,-126.49 569.99,-121.46 568.88,-128.38"/>
</g>
<!-- Node39 -->
<g id="node39" class="node">
<title>Node39</title>
<g id="a_node39"><a xlink:href="../../dc/d40/seperate_8c.html#a7baa57c40ff9963a510495ea573b3530" target="_top" xlink:title=" ">
<polygon fill="white" stroke="black" points="586.5,-42.5 586.5,-65.5 718.5,-65.5 718.5,-42.5 586.5,-42.5"/>
<text text-anchor="middle" x="652.5" y="-50.3" font-family="Helvetica,sans-Serif" font-size="14.00">seperate_textfile</text>
</a>
</g>
</g>
<!-- Node36&#45;&gt;Node39 -->
<g id="edge66" class="edge">
<title>Node36&#45;&gt;Node39</title>
<path fill="none" stroke="midnightblue" d="M460.35,-84.47C496.28,-78.74 539.67,-71.83 576.01,-66.03"/>
<polygon fill="midnightblue" stroke="midnightblue" points="576.74,-69.46 586.07,-64.43 575.64,-62.55 576.74,-69.46"/>
</g>
<!-- Node38&#45;&gt;Node25 -->
<g id="edge64" class="edge">
<title>Node38&#45;&gt;Node25</title>
<path fill="none" stroke="midnightblue" d="M727.11,-138C769.24,-138 821.27,-138 860.13,-138"/>
<polygon fill="midnightblue" stroke="midnightblue" points="860.21,-141.5 870.21,-138 860.21,-134.5 860.21,-141.5"/>
</g>
<!-- Node38&#45;&gt;Node26 -->
<g id="edge65" class="edge">
<title>Node38&#45;&gt;Node26</title>
<path fill="none" stroke="midnightblue" d="M727.34,-126.55C801.11,-116.8 917.66,-105.99 1018,-117 1031.98,-118.53 1046.92,-121.31 1060.7,-124.35"/>
<polygon fill="midnightblue" stroke="midnightblue" points="1059.96,-127.77 1070.49,-126.6 1061.53,-120.95 1059.96,-127.77"/>
</g>
<!-- Node38&#45;&gt;Node34 -->
<g id="edge63" class="edge">
<title>Node38&#45;&gt;Node34</title>
<path fill="none" stroke="midnightblue" d="M727.21,-133.23C745.43,-130.09 764.46,-125.04 781,-117 800.52,-107.51 797.94,-94.38 817,-84 825.32,-79.47 834.47,-75.7 843.74,-72.57"/>
<polygon fill="midnightblue" stroke="midnightblue" points="844.92,-75.86 853.42,-69.53 842.83,-69.19 844.92,-75.86"/>
</g>
<!-- Node39&#45;&gt;Node25 -->
<g id="edge68" class="edge">
<title>Node39&#45;&gt;Node25</title>
<path fill="none" stroke="midnightblue" d="M718.83,-61.27C739.03,-64.44 761.17,-68.88 781,-75 819.14,-86.77 860.38,-107.15 887.22,-121.54"/>
<polygon fill="midnightblue" stroke="midnightblue" points="885.62,-124.65 896.08,-126.35 888.96,-118.5 885.62,-124.65"/>
</g>
<!-- Node39&#45;&gt;Node26 -->
<g id="edge69" class="edge">
<title>Node39&#45;&gt;Node26</title>
<path fill="none" stroke="midnightblue" d="M718.85,-44.13C808.94,-31.69 966.06,-14.47 1018,-37 1055.73,-53.37 1085.27,-93.04 1100.69,-117.51"/>
<polygon fill="midnightblue" stroke="midnightblue" points="1097.89,-119.63 1106.08,-126.36 1103.87,-116 1097.89,-119.63"/>
</g>
<!-- Node39&#45;&gt;Node34 -->
<g id="edge67" class="edge">
<title>Node39&#45;&gt;Node34</title>
<path fill="none" stroke="midnightblue" d="M718.51,-54.99C745.16,-55.39 776.75,-55.87 806.79,-56.33"/>
<polygon fill="midnightblue" stroke="midnightblue" points="806.85,-59.83 816.9,-56.49 806.96,-52.83 806.85,-59.83"/>
</g>
</g>
</svg>
        <g id="navigator" transform="translate(0 0)" fill="#404254">
                <rect fill="#f2f5e9" fill-opacity="0.5" stroke="#606060" stroke-width=".5" x="0" y="0" width="60" height="60"/>
                <use id="zoomplus" xlink:href="#zoomPlus" x="17" y="9" onmousedown="handleZoom(evt,'in')"/>
                <use id="zoomminus" xlink:href="#zoomMin" x="42" y="9" onmousedown="handleZoom(evt,'out')"/>
                <use id="reset" xlink:href="#resetDef" x="30" y="36" onmousedown="handleReset()"/>
                <g id="arrowUp" xlink:href="#dirArrow" transform="translate(30 24)" onmousedown="handlePan(0,-1)">
                  <use xlink:href="#rim" fill="#404040">
                        <set attributeName="fill" to="#808080" begin="arrowUp.mouseover" end="arrowUp.mouseout"/>
                  </use>
                  <path fill="none" stroke="white" stroke-width="1.5" d="M0,-3.0v7 M-2.5,-0.5L0,-3.0L2.5,-0.5"/>
                </g>
                <g id="arrowRight" xlink:href="#dirArrow" transform="rotate(90) translate(36 -43)" onmousedown="handlePan(1,0)">
                  <use xlink:href="#rim" fill="#404040">
                        <set attributeName="fill" to="#808080" begin="arrowRight.mouseover" end="arrowRight.mouseout"/>
                  </use>
                  <path fill="none" stroke="white" stroke-width="1.5" d="M0,-3.0v7 M-2.5,-0.5L0,-3.0L2.5,-0.5"/>
                </g>
                <g id="arrowDown" xlink:href="#dirArrow" transform="rotate(180) translate(-30 -48)" onmousedown="handlePan(0,1)">
                  <use xlink:href="#rim" fill="#404040">
                        <set attributeName="fill" to="#808080" begin="arrowDown.mouseover" end="arrowDown.mouseout"/>
                  </use>
                  <path fill="none" stroke="white" stroke-width="1.5" d="M0,-3.0v7 M-2.5,-0.5L0,-3.0L2.5,-0.5"/>
                </g>
                <g id="arrowLeft" xlink:href="#dirArrow" transform="rotate(270) translate(-36 17)" onmousedown="handlePan(-1,0)">
                  <use xlink:href="#rim" fill="#404040">
                        <set attributeName="fill" to="#808080" begin="arrowLeft.mouseover" end="arrowLeft.mouseout"/>
                  </use>
                  <path fill="none" stroke="white" stroke-width="1.5" d="M0,-3.0v7 M-2.5,-0.5L0,-3.0L2.5,-0.5"/>
                </g>
        </g>
        <svg viewBox="0 0 15 15" width="100%" height="30px" preserveAspectRatio="xMaxYMin meet">
         <g id="arrow_out" transform="scale(0.3 0.3)">
          <a xlink:href="main_8c_a3c04138a5bfe5d72780bb7e82a18e627_cgraph_org.svg" target="_base">
           <rect id="button" ry="5" rx="5" y="6" x="6" height="38" width="38"
                fill="#f2f5e9" fill-opacity="0.5" stroke="#606060" stroke-width="1.0"/>
           <path id="arrow"
             d="M 11.500037,31.436501 C 11.940474,20.09759 22.043105,11.32322 32.158766,21.979434 L 37.068811,17.246167 C 37.068811,17.246167 37.088388,32 37.088388,32 L 22.160133,31.978069 C 22.160133,31.978069 26.997745,27.140456 26.997745,27.140456 C 18.528582,18.264221 13.291696,25.230495 11.500037,31.436501 z"
             style="fill:#404040;"/>
          </a>
         </g>
        </svg>
</svg>
