<?xml version="1.0" encoding="UTF-8" standalone="no"?>
<!DOCTYPE svg PUBLIC "-//W3C//DTD SVG 1.1//EN"
 "http://www.w3.org/Graphics/SVG/1.1/DTD/svg11.dtd">
<!-- Generated by graphviz version 2.43.0 (0)
 -->
<!-- Title: FluxDevicePass::runOnModule Pages: 1 -->
<svg width="933pt" height="410pt"
 viewBox="0.00 0.00 933.00 410.00" xmlns="http://www.w3.org/2000/svg" xmlns:xlink="http://www.w3.org/1999/xlink">
<g id="graph0" class="graph" transform="scale(1 1) rotate(0) translate(4 406)">
<title>FluxDevicePass::runOnModule</title>
<polygon fill="white" stroke="transparent" points="-4,4 -4,-406 929,-406 929,4 -4,4"/>
<!-- Node1 -->
<g id="node1" class="node">
<title>Node1</title>
<g id="a_node1"><a xlink:title=" ">
<polygon fill="#bfbfbf" stroke="black" points="0,-210.5 0,-233.5 227,-233.5 227,-210.5 0,-210.5"/>
<text text-anchor="middle" x="113.5" y="-218.3" font-family="Helvetica,sans-Serif" font-size="14.00">FluxDevicePass::runOnModule</text>
</a>
</g>
</g>
<!-- Node2 -->
<g id="node2" class="node">
<title>Node2</title>
<g id="a_node2"><a xlink:href="../../df/d50/fluxDevicePass_8cpp.html#a568ff618d3d2921cd08557e977754030" target="_top" xlink:title=" ">
<polygon fill="white" stroke="black" points="263,-294.5 263,-317.5 465,-317.5 465,-294.5 263,-294.5"/>
<text text-anchor="middle" x="364" y="-302.3" font-family="Helvetica,sans-Serif" font-size="14.00">basicBlockInstrumentation</text>
</a>
</g>
</g>
<!-- Node1&#45;&gt;Node2 -->
<g id="edge1" class="edge">
<title>Node1&#45;&gt;Node2</title>
<path fill="none" stroke="midnightblue" d="M144.75,-233.58C174.64,-244.88 221.73,-262.32 263,-276 279.1,-281.34 296.79,-286.78 312.76,-291.54"/>
<polygon fill="midnightblue" stroke="midnightblue" points="311.87,-294.93 322.45,-294.41 313.85,-288.21 311.87,-294.93"/>
</g>
<!-- Node5 -->
<g id="node5" class="node">
<title>Node5</title>
<g id="a_node5"><a xlink:href="../../d3/dcd/namespacemekong.html#a51a6949c9e5f60d1635f94ef386d397f" target="_top" xlink:title="===&#45;&#45;&#45;&#45;&#45;&#45;&#45;&#45;&#45;&#45;&#45;&#45;&#45;&#45;&#45;&#45;&#45;&#45;&#45;&#45;&#45;&#45;&#45;&#45;&#45;&#45;&#45;&#45;&#45;&#45;&#45;&#45;&#45;&#45;&#45;&#45;&#45;&#45;&#45;&#45;&#45;&#45;&#45;&#45;&#45;&#45;&#45;&#45;&#45;&#45;&#45;&#45;&#45;&#45;&#45;&#45;&#45;&#45;&#45;&#45;&#45;&#45;&#45;—===// Analysis Functions ===&#45;&#45;&#45;&#45;&#45;&#45;...">
<polygon fill="white" stroke="black" points="528.5,-252.5 528.5,-275.5 682.5,-275.5 682.5,-252.5 528.5,-252.5"/>
<text text-anchor="middle" x="605.5" y="-260.3" font-family="Helvetica,sans-Serif" font-size="14.00">mekong::getKernels</text>
</a>
</g>
</g>
<!-- Node1&#45;&gt;Node5 -->
<g id="edge7" class="edge">
<title>Node1&#45;&gt;Node5</title>
<path fill="none" stroke="midnightblue" d="M227.19,-232.77C239.28,-233.88 251.39,-234.98 263,-236 349.66,-243.64 448.75,-251.69 517.79,-257.18"/>
<polygon fill="midnightblue" stroke="midnightblue" points="517.94,-260.71 528.18,-258.01 518.49,-253.73 517.94,-260.71"/>
</g>
<!-- Node7 -->
<g id="node7" class="node">
<title>Node7</title>
<g id="a_node7"><a xlink:href="../../df/d50/fluxDevicePass_8cpp.html#a43b669bccb8bce8ea862a58a9dc116bd" target="_top" xlink:title=" ">
<polygon fill="white" stroke="black" points="581.5,-210.5 581.5,-233.5 629.5,-233.5 629.5,-210.5 581.5,-210.5"/>
<text text-anchor="middle" x="605.5" y="-218.3" font-family="Helvetica,sans-Serif" font-size="14.00">exec</text>
</a>
</g>
</g>
<!-- Node1&#45;&gt;Node7 -->
<g id="edge6" class="edge">
<title>Node1&#45;&gt;Node7</title>
<path fill="none" stroke="midnightblue" d="M227.22,-222C338.28,-222 501.11,-222 570.82,-222"/>
<polygon fill="midnightblue" stroke="midnightblue" points="571.18,-225.5 581.18,-222 571.18,-218.5 571.18,-225.5"/>
</g>
<!-- Node8 -->
<g id="node8" class="node">
<title>Node8</title>
<g id="a_node8"><a xlink:href="../../d3/dcd/namespacemekong.html#afa5bc629abb1ec6f490e28d93480e67b" target="_top" xlink:title=" ">
<polygon fill="white" stroke="black" points="304,-126.5 304,-149.5 424,-149.5 424,-126.5 304,-126.5"/>
<text text-anchor="middle" x="364" y="-134.3" font-family="Helvetica,sans-Serif" font-size="14.00">mekong::linkIR</text>
</a>
</g>
</g>
<!-- Node1&#45;&gt;Node8 -->
<g id="edge8" class="edge">
<title>Node1&#45;&gt;Node8</title>
<path fill="none" stroke="midnightblue" d="M137.88,-210.4C166.7,-196.5 217.44,-173.3 263,-159 272.88,-155.9 283.45,-153.12 293.88,-150.68"/>
<polygon fill="midnightblue" stroke="midnightblue" points="294.83,-154.06 303.81,-148.44 293.29,-147.23 294.83,-154.06"/>
</g>
<!-- Node9 -->
<g id="node9" class="node">
<title>Node9</title>
<g id="a_node9"><a xlink:href="../../df/d50/fluxDevicePass_8cpp.html#a2ac711460e8e656c38736b76db7c9e92" target="_top" xlink:title=" ">
<polygon fill="white" stroke="black" points="278,-168.5 278,-191.5 450,-191.5 450,-168.5 278,-168.5"/>
<text text-anchor="middle" x="364" y="-176.3" font-family="Helvetica,sans-Serif" font-size="14.00">ptxInstructionAnalysis</text>
</a>
</g>
</g>
<!-- Node1&#45;&gt;Node9 -->
<g id="edge9" class="edge">
<title>Node1&#45;&gt;Node9</title>
<path fill="none" stroke="midnightblue" d="M182.73,-210.47C214.37,-205.12 252.15,-198.74 284.92,-193.2"/>
<polygon fill="midnightblue" stroke="midnightblue" points="285.64,-196.62 294.92,-191.51 284.48,-189.72 285.64,-196.62"/>
</g>
<!-- Node3 -->
<g id="node3" class="node">
<title>Node3</title>
<g id="a_node3"><a xlink:href="../../d3/dcd/namespacemekong.html#a64c2cc8ef711bb2c9c8c88d992aa9d83" target="_top" xlink:title="===&#45;&#45;&#45;&#45;&#45;&#45;&#45;&#45;&#45;&#45;&#45;&#45;&#45;&#45;&#45;&#45;&#45;&#45;&#45;&#45;&#45;&#45;&#45;&#45;&#45;&#45;&#45;&#45;&#45;&#45;&#45;&#45;&#45;&#45;&#45;&#45;&#45;&#45;&#45;&#45;&#45;&#45;&#45;&#45;&#45;&#45;&#45;&#45;&#45;&#45;&#45;&#45;&#45;&#45;&#45;&#45;&#45;&#45;&#45;&#45;&#45;&#45;&#45;—===// Transformation Functions ===...">
<polygon fill="white" stroke="black" points="503.5,-378.5 503.5,-401.5 707.5,-401.5 707.5,-378.5 503.5,-378.5"/>
<text text-anchor="middle" x="605.5" y="-386.3" font-family="Helvetica,sans-Serif" font-size="14.00">mekong::cloneAndAddArgs</text>
</a>
</g>
</g>
<!-- Node2&#45;&gt;Node3 -->
<g id="edge2" class="edge">
<title>Node2&#45;&gt;Node3</title>
<path fill="none" stroke="midnightblue" d="M386.04,-317.64C412.24,-331.68 458.72,-355.13 501,-369 509.01,-371.63 517.49,-373.99 526,-376.1"/>
<polygon fill="midnightblue" stroke="midnightblue" points="525.45,-379.56 535.99,-378.45 527.06,-372.75 525.45,-379.56"/>
</g>
<!-- Node4 -->
<g id="node4" class="node">
<title>Node4</title>
<g id="a_node4"><a xlink:href="../../d3/dcd/namespacemekong.html#a769701c40cf1cb06898926ad2b7e6c6e" target="_top" xlink:title=" ">
<polygon fill="white" stroke="black" points="513,-336.5 513,-359.5 698,-359.5 698,-336.5 513,-336.5"/>
<text text-anchor="middle" x="605.5" y="-344.3" font-family="Helvetica,sans-Serif" font-size="14.00">mekong::getBlockIDMap</text>
</a>
</g>
</g>
<!-- Node2&#45;&gt;Node4 -->
<g id="edge3" class="edge">
<title>Node2&#45;&gt;Node4</title>
<path fill="none" stroke="midnightblue" d="M430.76,-317.53C461.13,-322.86 497.35,-329.21 528.84,-334.73"/>
<polygon fill="midnightblue" stroke="midnightblue" points="528.43,-338.21 538.89,-336.49 529.64,-331.32 528.43,-338.21"/>
</g>
<!-- Node2&#45;&gt;Node5 -->
<g id="edge4" class="edge">
<title>Node2&#45;&gt;Node5</title>
<path fill="none" stroke="midnightblue" d="M430.76,-294.47C461.13,-289.14 497.35,-282.79 528.84,-277.27"/>
<polygon fill="midnightblue" stroke="midnightblue" points="529.64,-280.68 538.89,-275.51 528.43,-273.79 529.64,-280.68"/>
</g>
<!-- Node6 -->
<g id="node6" class="node">
<title>Node6</title>
<g id="a_node6"><a xlink:href="../../d3/dcd/namespacemekong.html#a47c4770f047f5adfcc1ba8cc9d673480" target="_top" xlink:title="Adds metadata to the current module that will make the given function callable as kernel.">
<polygon fill="white" stroke="black" points="525.5,-294.5 525.5,-317.5 685.5,-317.5 685.5,-294.5 525.5,-294.5"/>
<text text-anchor="middle" x="605.5" y="-302.3" font-family="Helvetica,sans-Serif" font-size="14.00">mekong::markKernel</text>
</a>
</g>
</g>
<!-- Node2&#45;&gt;Node6 -->
<g id="edge5" class="edge">
<title>Node2&#45;&gt;Node6</title>
<path fill="none" stroke="midnightblue" d="M465.18,-306C481.85,-306 499.03,-306 515.4,-306"/>
<polygon fill="midnightblue" stroke="midnightblue" points="515.47,-309.5 525.47,-306 515.47,-302.5 515.47,-309.5"/>
</g>
<!-- Node9&#45;&gt;Node5 -->
<g id="edge12" class="edge">
<title>Node9&#45;&gt;Node5</title>
<path fill="none" stroke="midnightblue" d="M386.04,-191.64C412.24,-205.68 458.72,-229.13 501,-243 509.01,-245.63 517.49,-247.99 526,-250.1"/>
<polygon fill="midnightblue" stroke="midnightblue" points="525.45,-253.56 535.99,-252.45 527.06,-246.75 525.45,-253.56"/>
</g>
<!-- Node9&#45;&gt;Node7 -->
<g id="edge11" class="edge">
<title>Node9&#45;&gt;Node7</title>
<path fill="none" stroke="midnightblue" d="M430.76,-191.53C476.39,-199.53 535.24,-209.85 571.4,-216.2"/>
<polygon fill="midnightblue" stroke="midnightblue" points="570.95,-219.67 581.41,-217.95 572.16,-212.78 570.95,-219.67"/>
</g>
<!-- Node10 -->
<g id="node10" class="node">
<title>Node10</title>
<g id="a_node10"><a xlink:href="../../d3/dcd/namespacemekong.html#a96bab515b21a605171ce9159c92df460" target="_top" xlink:title=" ">
<polygon fill="white" stroke="black" points="501,-168.5 501,-191.5 710,-191.5 710,-168.5 501,-168.5"/>
<text text-anchor="middle" x="605.5" y="-176.3" font-family="Helvetica,sans-Serif" font-size="14.00">mekong::dumpModuleToFile</text>
</a>
</g>
</g>
<!-- Node9&#45;&gt;Node10 -->
<g id="edge10" class="edge">
<title>Node9&#45;&gt;Node10</title>
<path fill="none" stroke="midnightblue" d="M450.11,-180C463.18,-180 476.86,-180 490.43,-180"/>
<polygon fill="midnightblue" stroke="midnightblue" points="490.78,-183.5 500.78,-180 490.78,-176.5 490.78,-183.5"/>
</g>
<!-- Node11 -->
<g id="node11" class="node">
<title>Node11</title>
<g id="a_node11"><a xlink:href="../../d3/dcd/namespacemekong.html#a4d2a109ee246b5b72d6f02bd022443d0" target="_top" xlink:title="===&#45;&#45;&#45;&#45;&#45;&#45;&#45;&#45;&#45;&#45;&#45;&#45;&#45;&#45;&#45;&#45;&#45;&#45;&#45;&#45;&#45;&#45;&#45;&#45;&#45;&#45;&#45;&#45;&#45;&#45;&#45;&#45;&#45;&#45;&#45;&#45;&#45;&#45;&#45;&#45;&#45;&#45;&#45;&#45;&#45;&#45;&#45;&#45;&#45;&#45;&#45;&#45;&#45;&#45;&#45;&#45;&#45;&#45;&#45;&#45;&#45;&#45;&#45;—===// Utility Functions ===&#45;&#45;&#45;&#45;&#45;&#45;&#45;...">
<polygon fill="white" stroke="black" points="509,-126.5 509,-149.5 702,-149.5 702,-126.5 509,-126.5"/>
<text text-anchor="middle" x="605.5" y="-134.3" font-family="Helvetica,sans-Serif" font-size="14.00">mekong::getModulePrefix</text>
</a>
</g>
</g>
<!-- Node9&#45;&gt;Node11 -->
<g id="edge13" class="edge">
<title>Node9&#45;&gt;Node11</title>
<path fill="none" stroke="midnightblue" d="M430.76,-168.47C461.13,-163.14 497.35,-156.79 528.84,-151.27"/>
<polygon fill="midnightblue" stroke="midnightblue" points="529.64,-154.68 538.89,-149.51 528.43,-147.79 529.64,-154.68"/>
</g>
<!-- Node13 -->
<g id="node13" class="node">
<title>Node13</title>
<g id="a_node13"><a xlink:href="../../d3/dcd/namespacemekong.html#a3b07cd56e0e49b51928468d8b403d04d" target="_top" xlink:title=" ">
<polygon fill="white" stroke="black" points="514.5,-84.5 514.5,-107.5 696.5,-107.5 696.5,-84.5 514.5,-84.5"/>
<text text-anchor="middle" x="605.5" y="-92.3" font-family="Helvetica,sans-Serif" font-size="14.00">mekong::lexicalAnalysis</text>
</a>
</g>
</g>
<!-- Node9&#45;&gt;Node13 -->
<g id="edge15" class="edge">
<title>Node9&#45;&gt;Node13</title>
<path fill="none" stroke="midnightblue" d="M444.37,-168.47C451.59,-165.91 458.59,-162.8 465,-159 486.16,-146.47 479.8,-129.45 501,-117 504.5,-114.94 508.17,-113.08 511.96,-111.41"/>
<polygon fill="midnightblue" stroke="midnightblue" points="513.56,-114.54 521.56,-107.59 510.98,-108.03 513.56,-114.54"/>
</g>
<!-- Node14 -->
<g id="node14" class="node">
<title>Node14</title>
<g id="a_node14"><a xlink:href="../../da/de5/hostRuntime_8cpp.html#a5cea9cb5a5e08d11f5e41f8ca34d9e53" target="_top" xlink:title=" ">
<polygon fill="white" stroke="black" points="575.5,-42.5 575.5,-65.5 635.5,-65.5 635.5,-42.5 575.5,-42.5"/>
<text text-anchor="middle" x="605.5" y="-50.3" font-family="Helvetica,sans-Serif" font-size="14.00">outfile</text>
</a>
</g>
</g>
<!-- Node9&#45;&gt;Node14 -->
<g id="edge16" class="edge">
<title>Node9&#45;&gt;Node14</title>
<path fill="none" stroke="midnightblue" d="M450.14,-168.4C455.45,-165.81 460.47,-162.71 465,-159 496.42,-133.26 469.49,-100.64 501,-75 518.76,-60.55 543.83,-55.2 564.84,-53.51"/>
<polygon fill="midnightblue" stroke="midnightblue" points="565.3,-56.99 575.09,-52.94 564.92,-50 565.3,-56.99"/>
</g>
<!-- Node15 -->
<g id="node15" class="node">
<title>Node15</title>
<g id="a_node15"><a xlink:href="../../d3/dcd/namespacemekong.html#a2ffe7a5f9b1a44da5f20c80b3fc39c0c" target="_top" xlink:title=" ">
<polygon fill="white" stroke="black" points="545.5,-0.5 545.5,-23.5 665.5,-23.5 665.5,-0.5 545.5,-0.5"/>
<text text-anchor="middle" x="605.5" y="-8.3" font-family="Helvetica,sans-Serif" font-size="14.00">mekong::parse</text>
</a>
</g>
</g>
<!-- Node9&#45;&gt;Node15 -->
<g id="edge17" class="edge">
<title>Node9&#45;&gt;Node15</title>
<path fill="none" stroke="midnightblue" d="M450.22,-169.29C455.58,-166.5 460.59,-163.11 465,-159 507.62,-119.31 458.24,-72.54 501,-33 510.6,-24.12 522.88,-18.56 535.61,-15.16"/>
<polygon fill="midnightblue" stroke="midnightblue" points="536.41,-18.57 545.39,-12.96 534.87,-11.74 536.41,-18.57"/>
</g>
<!-- Node12 -->
<g id="node12" class="node">
<title>Node12</title>
<g id="a_node12"><a xlink:href="../../da/d38/x65599_8h.html#abc38f406ef9bc26963ae3e5e8220d60d" target="_top" xlink:title=" ">
<polygon fill="white" stroke="black" points="778.5,-126.5 778.5,-149.5 892.5,-149.5 892.5,-126.5 778.5,-126.5"/>
<text text-anchor="middle" x="835.5" y="-134.3" font-family="Helvetica,sans-Serif" font-size="14.00">generateHash</text>
</a>
</g>
</g>
<!-- Node11&#45;&gt;Node12 -->
<g id="edge14" class="edge">
<title>Node11&#45;&gt;Node12</title>
<path fill="none" stroke="midnightblue" d="M702.2,-138C724.41,-138 747.56,-138 768.18,-138"/>
<polygon fill="midnightblue" stroke="midnightblue" points="768.4,-141.5 778.4,-138 768.4,-134.5 768.4,-141.5"/>
</g>
<!-- Node16 -->
<g id="node16" class="node">
<title>Node16</title>
<g id="a_node16"><a xlink:href="../../d3/dcd/namespacemekong.html#ab00b89dec5d437648073ae49182698c4" target="_top" xlink:title=" ">
<polygon fill="white" stroke="black" points="746,-0.5 746,-23.5 925,-23.5 925,-0.5 746,-0.5"/>
<text text-anchor="middle" x="835.5" y="-8.3" font-family="Helvetica,sans-Serif" font-size="14.00">mekong::parseFunction</text>
</a>
</g>
</g>
<!-- Node15&#45;&gt;Node16 -->
<g id="edge18" class="edge">
<title>Node15&#45;&gt;Node16</title>
<path fill="none" stroke="midnightblue" d="M665.51,-12C686.87,-12 711.62,-12 735.47,-12"/>
<polygon fill="midnightblue" stroke="midnightblue" points="735.63,-15.5 745.63,-12 735.63,-8.5 735.63,-15.5"/>
</g>
</g>
</svg>
