<?xml version="1.0" encoding="UTF-8" standalone="no"?>
<!DOCTYPE svg PUBLIC "-//W3C//DTD SVG 1.1//EN"
 "http://www.w3.org/Graphics/SVG/1.1/DTD/svg11.dtd">
<!-- Generated by graphviz version 2.43.0 (0)
 -->
<!-- Title: PPT&#45;GPU/llvm_tool/mekong&#45;utils/src/HostUtils.cpp Pages: 1 -->
<svg width="1947pt" height="287pt"
 viewBox="0.00 0.00 1946.86 287.00" xmlns="http://www.w3.org/2000/svg" xmlns:xlink="http://www.w3.org/1999/xlink">
<g id="graph0" class="graph" transform="scale(1 1) rotate(0) translate(4 283)">
<title>PPT&#45;GPU/llvm_tool/mekong&#45;utils/src/HostUtils.cpp</title>
<polygon fill="white" stroke="transparent" points="-4,4 -4,-283 1942.86,-283 1942.86,4 -4,4"/>
<!-- Node1 -->
<g id="node1" class="node">
<title>Node1</title>
<g id="a_node1"><a xlink:title=" ">
<polygon fill="#bfbfbf" stroke="black" points="899.86,-240.5 899.86,-278.5 1100.86,-278.5 1100.86,-240.5 899.86,-240.5"/>
<text text-anchor="start" x="907.86" y="-263.3" font-family="Helvetica,sans-Serif" font-size="14.00">PPT&#45;GPU/llvm_tool/mekong</text>
<text text-anchor="middle" x="1000.36" y="-248.3" font-family="Helvetica,sans-Serif" font-size="14.00">&#45;utils/src/HostUtils.cpp</text>
</a>
</g>
</g>
<!-- Node2 -->
<g id="node2" class="node">
<title>Node2</title>
<g id="a_node2"><a xlink:href="../../de/d8a/Mekong-Utils_8h.html" target="_top" xlink:title=" ">
<polygon fill="white" stroke="black" points="340.36,-180.5 340.36,-203.5 460.36,-203.5 460.36,-180.5 340.36,-180.5"/>
<text text-anchor="middle" x="400.36" y="-188.3" font-family="Helvetica,sans-Serif" font-size="14.00">Mekong&#45;Utils.h</text>
</a>
</g>
</g>
<!-- Node1&#45;&gt;Node2 -->
<g id="edge1" class="edge">
<title>Node1&#45;&gt;Node2</title>
<path fill="none" stroke="midnightblue" d="M899.6,-247.5C778.01,-234.23 576.75,-212.26 470.71,-200.68"/>
<polygon fill="midnightblue" stroke="midnightblue" points="471.08,-197.2 460.75,-199.59 470.32,-204.16 471.08,-197.2"/>
</g>
<!-- Node5 -->
<g id="node5" class="node">
<title>Node5</title>
<g id="a_node5"><a xlink:title=" ">
<polygon fill="white" stroke="#bfbfbf" points="16.86,-60.5 16.86,-83.5 149.86,-83.5 149.86,-60.5 16.86,-60.5"/>
<text text-anchor="middle" x="83.36" y="-68.3" font-family="Helvetica,sans-Serif" font-size="14.00">llvm/IR/Module.h</text>
</a>
</g>
</g>
<!-- Node1&#45;&gt;Node5 -->
<g id="edge29" class="edge">
<title>Node1&#45;&gt;Node5</title>
<path fill="none" stroke="midnightblue" d="M899.65,-255.78C768.13,-250.98 531.1,-238.03 331.36,-204 227.64,-186.33 176.95,-218.2 102.36,-144 89.18,-130.89 84.85,-109.72 83.56,-93.9"/>
<polygon fill="midnightblue" stroke="midnightblue" points="87.04,-93.34 83.08,-83.52 80.05,-93.67 87.04,-93.34"/>
</g>
<!-- Node7 -->
<g id="node7" class="node">
<title>Node7</title>
<g id="a_node7"><a xlink:title=" ">
<polygon fill="white" stroke="#bfbfbf" points="206.86,-60.5 206.86,-83.5 371.86,-83.5 371.86,-60.5 206.86,-60.5"/>
<text text-anchor="middle" x="289.36" y="-68.3" font-family="Helvetica,sans-Serif" font-size="14.00">llvm/IR/Instructions.h</text>
</a>
</g>
</g>
<!-- Node1&#45;&gt;Node7 -->
<g id="edge28" class="edge">
<title>Node1&#45;&gt;Node7</title>
<path fill="none" stroke="midnightblue" d="M931.22,-240.46C788.52,-203.23 464.32,-118.65 339.58,-86.1"/>
<polygon fill="midnightblue" stroke="midnightblue" points="340.45,-82.71 329.89,-83.57 338.68,-89.48 340.45,-82.71"/>
</g>
<!-- Node15 -->
<g id="node15" class="node">
<title>Node15</title>
<g id="a_node15"><a xlink:title=" ">
<polygon fill="white" stroke="#bfbfbf" points="1599.36,-60.5 1599.36,-83.5 1775.36,-83.5 1775.36,-60.5 1599.36,-60.5"/>
<text text-anchor="middle" x="1687.36" y="-68.3" font-family="Helvetica,sans-Serif" font-size="14.00">llvm/Support/Casting.h</text>
</a>
</g>
</g>
<!-- Node1&#45;&gt;Node15 -->
<g id="edge24" class="edge">
<title>Node1&#45;&gt;Node15</title>
<path fill="none" stroke="midnightblue" d="M990.88,-240.44C976.89,-211.01 955.53,-152.72 986.36,-120 1030.75,-72.88 1487.56,-88.49 1589.22,-83.82"/>
<polygon fill="midnightblue" stroke="midnightblue" points="1589.59,-87.31 1599.35,-83.19 1589.15,-80.32 1589.59,-87.31"/>
</g>
<!-- Node16 -->
<g id="node16" class="node">
<title>Node16</title>
<g id="a_node16"><a xlink:title=" ">
<polygon fill="white" stroke="#bfbfbf" points="1793.86,-60.5 1793.86,-83.5 1938.86,-83.5 1938.86,-60.5 1793.86,-60.5"/>
<text text-anchor="middle" x="1866.36" y="-68.3" font-family="Helvetica,sans-Serif" font-size="14.00">llvm/IR/IRBuilder.h</text>
</a>
</g>
</g>
<!-- Node1&#45;&gt;Node16 -->
<g id="edge27" class="edge">
<title>Node1&#45;&gt;Node16</title>
<path fill="none" stroke="midnightblue" d="M999.31,-240.31C999.35,-222.21 1002.52,-195.04 1019.36,-180 1144.83,-67.92 1597.68,-104.65 1783.5,-84.01"/>
<polygon fill="midnightblue" stroke="midnightblue" points="1783.98,-87.48 1793.49,-82.81 1783.14,-80.53 1783.98,-87.48"/>
</g>
<!-- Node19 -->
<g id="node19" class="node">
<title>Node19</title>
<g id="a_node19"><a xlink:title=" ">
<polygon fill="white" stroke="#bfbfbf" points="1028.86,-180.5 1028.86,-203.5 1139.86,-203.5 1139.86,-180.5 1028.86,-180.5"/>
<text text-anchor="middle" x="1084.36" y="-188.3" font-family="Helvetica,sans-Serif" font-size="14.00">llvm/IR/CFG.h</text>
</a>
</g>
</g>
<!-- Node1&#45;&gt;Node19 -->
<g id="edge25" class="edge">
<title>Node1&#45;&gt;Node19</title>
<path fill="none" stroke="midnightblue" d="M1023.76,-240.25C1035.95,-230.75 1050.75,-219.21 1062.68,-209.91"/>
<polygon fill="midnightblue" stroke="midnightblue" points="1065.04,-212.5 1070.78,-203.59 1060.74,-206.98 1065.04,-212.5"/>
</g>
<!-- Node20 -->
<g id="node20" class="node">
<title>Node20</title>
<g id="a_node20"><a xlink:title=" ">
<polygon fill="white" stroke="#bfbfbf" points="1158.36,-180.5 1158.36,-203.5 1370.36,-203.5 1370.36,-180.5 1158.36,-180.5"/>
<text text-anchor="middle" x="1264.36" y="-188.3" font-family="Helvetica,sans-Serif" font-size="14.00">llvm/Support/VersionTuple.h</text>
</a>
</g>
</g>
<!-- Node1&#45;&gt;Node20 -->
<g id="edge26" class="edge">
<title>Node1&#45;&gt;Node20</title>
<path fill="none" stroke="midnightblue" d="M1073.2,-240.43C1117.24,-229.5 1172.35,-215.83 1212.07,-205.97"/>
<polygon fill="midnightblue" stroke="midnightblue" points="1212.96,-209.36 1221.82,-203.55 1211.28,-202.56 1212.96,-209.36"/>
</g>
<!-- Node21 -->
<g id="node21" class="node">
<title>Node21</title>
<g id="a_node21"><a xlink:title=" ">
<polygon fill="white" stroke="#bfbfbf" points="1388.36,-180.5 1388.36,-203.5 1600.36,-203.5 1600.36,-180.5 1388.36,-180.5"/>
<text text-anchor="middle" x="1494.36" y="-188.3" font-family="Helvetica,sans-Serif" font-size="14.00">llvm/Support/raw_ostream.h</text>
</a>
</g>
</g>
<!-- Node1&#45;&gt;Node21 -->
<g id="edge30" class="edge">
<title>Node1&#45;&gt;Node21</title>
<path fill="none" stroke="midnightblue" d="M1100.92,-245.17C1190.2,-233.33 1319.43,-216.19 1405.11,-204.83"/>
<polygon fill="midnightblue" stroke="midnightblue" points="1405.62,-208.3 1415.08,-203.51 1404.7,-201.36 1405.62,-208.3"/>
</g>
<!-- Node22 -->
<g id="node22" class="node">
<title>Node22</title>
<g id="a_node22"><a xlink:title=" ">
<polygon fill="white" stroke="#bfbfbf" points="1618.36,-180.5 1618.36,-203.5 1678.36,-203.5 1678.36,-180.5 1618.36,-180.5"/>
<text text-anchor="middle" x="1648.36" y="-188.3" font-family="Helvetica,sans-Serif" font-size="14.00">queue</text>
</a>
</g>
</g>
<!-- Node1&#45;&gt;Node22 -->
<g id="edge31" class="edge">
<title>Node1&#45;&gt;Node22</title>
<path fill="none" stroke="midnightblue" d="M1101.09,-255.21C1220.3,-250.02 1424.73,-237.08 1608.15,-203.94"/>
<polygon fill="midnightblue" stroke="midnightblue" points="1609.05,-207.33 1618.26,-202.09 1607.79,-200.45 1609.05,-207.33"/>
</g>
<!-- Node3 -->
<g id="node3" class="node">
<title>Node3</title>
<g id="a_node3"><a xlink:href="../../d3/dee/DeviceUtils_8h.html" target="_top" xlink:title=" ">
<polygon fill="white" stroke="black" points="111.86,-120.5 111.86,-143.5 218.86,-143.5 218.86,-120.5 111.86,-120.5"/>
<text text-anchor="middle" x="165.36" y="-128.3" font-family="Helvetica,sans-Serif" font-size="14.00">DeviceUtils.h</text>
</a>
</g>
</g>
<!-- Node2&#45;&gt;Node3 -->
<g id="edge2" class="edge">
<title>Node2&#45;&gt;Node3</title>
<path fill="none" stroke="midnightblue" d="M357.8,-180.5C318.5,-170.8 259.99,-156.35 217.81,-145.94"/>
<polygon fill="midnightblue" stroke="midnightblue" points="218.54,-142.52 208,-143.52 216.87,-149.32 218.54,-142.52"/>
</g>
<!-- Node6 -->
<g id="node6" class="node">
<title>Node6</title>
<g id="a_node6"><a xlink:href="../../d4/de6/HostUtils_8h.html" target="_top" xlink:title=" ">
<polygon fill="white" stroke="black" points="240.36,-120.5 240.36,-143.5 332.36,-143.5 332.36,-120.5 240.36,-120.5"/>
<text text-anchor="middle" x="286.36" y="-128.3" font-family="Helvetica,sans-Serif" font-size="14.00">HostUtils.h</text>
</a>
</g>
</g>
<!-- Node2&#45;&gt;Node6 -->
<g id="edge5" class="edge">
<title>Node2&#45;&gt;Node6</title>
<path fill="none" stroke="midnightblue" d="M379.72,-180.5C361.99,-171.48 336.22,-158.36 316.24,-148.2"/>
<polygon fill="midnightblue" stroke="midnightblue" points="317.74,-145.04 307.24,-143.62 314.56,-151.28 317.74,-145.04"/>
</g>
<!-- Node8 -->
<g id="node8" class="node">
<title>Node8</title>
<g id="a_node8"><a xlink:href="../../db/d19/IRUtils_8h.html" target="_top" xlink:title=" ">
<polygon fill="white" stroke="black" points="858.86,-120.5 858.86,-143.5 933.86,-143.5 933.86,-120.5 858.86,-120.5"/>
<text text-anchor="middle" x="896.36" y="-128.3" font-family="Helvetica,sans-Serif" font-size="14.00">IRUtils.h</text>
</a>
</g>
</g>
<!-- Node2&#45;&gt;Node8 -->
<g id="edge9" class="edge">
<title>Node2&#45;&gt;Node8</title>
<path fill="none" stroke="midnightblue" d="M460.68,-183.95C560.49,-172.27 757.97,-149.18 848.72,-138.57"/>
<polygon fill="midnightblue" stroke="midnightblue" points="849.2,-142.04 858.72,-137.4 848.39,-135.09 849.2,-142.04"/>
</g>
<!-- Node4 -->
<g id="node4" class="node">
<title>Node4</title>
<g id="a_node4"><a xlink:title=" ">
<polygon fill="white" stroke="#bfbfbf" points="148.36,-0.5 148.36,-23.5 208.36,-23.5 208.36,-0.5 148.36,-0.5"/>
<text text-anchor="middle" x="178.36" y="-8.3" font-family="Helvetica,sans-Serif" font-size="14.00">vector</text>
</a>
</g>
</g>
<!-- Node3&#45;&gt;Node4 -->
<g id="edge3" class="edge">
<title>Node3&#45;&gt;Node4</title>
<path fill="none" stroke="midnightblue" d="M111.84,-125.91C54.81,-118.31 -23.36,-100.3 7.36,-60 23.12,-39.33 92.48,-25.48 137.88,-18.45"/>
<polygon fill="midnightblue" stroke="midnightblue" points="138.64,-21.87 148.01,-16.93 137.6,-14.95 138.64,-21.87"/>
</g>
<!-- Node3&#45;&gt;Node5 -->
<g id="edge4" class="edge">
<title>Node3&#45;&gt;Node5</title>
<path fill="none" stroke="midnightblue" d="M150.32,-120.36C138.07,-111.7 120.56,-99.31 106.52,-89.38"/>
<polygon fill="midnightblue" stroke="midnightblue" points="108.49,-86.49 98.3,-83.57 104.45,-92.2 108.49,-86.49"/>
</g>
<!-- Node6&#45;&gt;Node4 -->
<g id="edge8" class="edge">
<title>Node6&#45;&gt;Node4</title>
<path fill="none" stroke="midnightblue" d="M251.88,-120.44C233.21,-113.05 211.2,-101.35 197.36,-84 185.9,-69.63 181.32,-48.95 179.51,-33.62"/>
<polygon fill="midnightblue" stroke="midnightblue" points="182.99,-33.21 178.62,-23.56 176.01,-33.83 182.99,-33.21"/>
</g>
<!-- Node6&#45;&gt;Node5 -->
<g id="edge7" class="edge">
<title>Node6&#45;&gt;Node5</title>
<path fill="none" stroke="midnightblue" d="M249.6,-120.5C216.07,-110.92 166.38,-96.72 130.06,-86.34"/>
<polygon fill="midnightblue" stroke="midnightblue" points="130.77,-82.91 120.19,-83.52 128.84,-89.64 130.77,-82.91"/>
</g>
<!-- Node6&#45;&gt;Node7 -->
<g id="edge6" class="edge">
<title>Node6&#45;&gt;Node7</title>
<path fill="none" stroke="midnightblue" d="M286.91,-120.36C287.3,-112.92 287.82,-102.74 288.29,-93.73"/>
<polygon fill="midnightblue" stroke="midnightblue" points="291.79,-93.74 288.81,-83.57 284.8,-93.38 291.79,-93.74"/>
</g>
<!-- Node8&#45;&gt;Node5 -->
<g id="edge16" class="edge">
<title>Node8&#45;&gt;Node5</title>
<path fill="none" stroke="midnightblue" d="M858.82,-128.86C754.09,-122.81 449.81,-104.66 197.36,-84 185.36,-83.02 172.66,-81.89 160.26,-80.73"/>
<polygon fill="midnightblue" stroke="midnightblue" points="160.23,-77.21 149.94,-79.75 159.57,-84.18 160.23,-77.21"/>
</g>
<!-- Node8&#45;&gt;Node7 -->
<g id="edge15" class="edge">
<title>Node8&#45;&gt;Node7</title>
<path fill="none" stroke="midnightblue" d="M858.77,-127.96C775.11,-121.11 566.97,-103.6 382.34,-84.19"/>
<polygon fill="midnightblue" stroke="midnightblue" points="382.49,-80.69 372.18,-83.12 381.75,-87.65 382.49,-80.69"/>
</g>
<!-- Node9 -->
<g id="node9" class="node">
<title>Node9</title>
<g id="a_node9"><a xlink:href="../../d9/dc8/BasicBlockEnumerator_8h.html" target="_top" xlink:title=" ">
<polygon fill="white" stroke="black" points="1184.86,-60.5 1184.86,-83.5 1369.86,-83.5 1369.86,-60.5 1184.86,-60.5"/>
<text text-anchor="middle" x="1277.36" y="-68.3" font-family="Helvetica,sans-Serif" font-size="14.00">BasicBlockEnumerator.h</text>
</a>
</g>
</g>
<!-- Node8&#45;&gt;Node9 -->
<g id="edge10" class="edge">
<title>Node8&#45;&gt;Node9</title>
<path fill="none" stroke="midnightblue" d="M934.08,-122.71C938.87,-121.75 943.73,-120.82 948.36,-120 1026.99,-106.08 1116.76,-93.48 1182.64,-84.83"/>
<polygon fill="midnightblue" stroke="midnightblue" points="1183.13,-88.3 1192.59,-83.53 1182.22,-81.36 1183.13,-88.3"/>
</g>
<!-- Node11 -->
<g id="node11" class="node">
<title>Node11</title>
<g id="a_node11"><a xlink:href="../../db/d2b/PTXFunction_8h.html" target="_top" xlink:title=" ">
<polygon fill="white" stroke="black" points="1013.36,-60.5 1013.36,-83.5 1129.36,-83.5 1129.36,-60.5 1013.36,-60.5"/>
<text text-anchor="middle" x="1071.36" y="-68.3" font-family="Helvetica,sans-Serif" font-size="14.00">PTXFunction.h</text>
</a>
</g>
</g>
<!-- Node8&#45;&gt;Node11 -->
<g id="edge12" class="edge">
<title>Node8&#45;&gt;Node11</title>
<path fill="none" stroke="midnightblue" d="M928.05,-120.5C956.58,-111.04 998.7,-97.08 1029.89,-86.74"/>
<polygon fill="midnightblue" stroke="midnightblue" points="1031.22,-89.99 1039.61,-83.52 1029.02,-83.35 1031.22,-89.99"/>
</g>
<!-- Node12 -->
<g id="node12" class="node">
<title>Node12</title>
<g id="a_node12"><a xlink:title=" ">
<polygon fill="white" stroke="#bfbfbf" points="1082.86,-0.5 1082.86,-23.5 1139.86,-23.5 1139.86,-0.5 1082.86,-0.5"/>
<text text-anchor="middle" x="1111.36" y="-8.3" font-family="Helvetica,sans-Serif" font-size="14.00">string</text>
</a>
</g>
</g>
<!-- Node8&#45;&gt;Node12 -->
<g id="edge23" class="edge">
<title>Node8&#45;&gt;Node12</title>
<path fill="none" stroke="midnightblue" d="M934.11,-122.92C938.91,-121.92 943.75,-120.93 948.36,-120 990.5,-111.55 1110.95,-117.09 1138.36,-84 1150.99,-68.75 1139.51,-46.95 1127.86,-31.54"/>
<polygon fill="midnightblue" stroke="midnightblue" points="1130.54,-29.29 1121.52,-23.72 1125.1,-33.7 1130.54,-29.29"/>
</g>
<!-- Node13 -->
<g id="node13" class="node">
<title>Node13</title>
<g id="a_node13"><a xlink:title=" ">
<polygon fill="white" stroke="#bfbfbf" points="1387.86,-60.5 1387.86,-83.5 1580.86,-83.5 1580.86,-60.5 1387.86,-60.5"/>
<text text-anchor="middle" x="1484.36" y="-68.3" font-family="Helvetica,sans-Serif" font-size="14.00">llvm/IRReader/IRReader.h</text>
</a>
</g>
</g>
<!-- Node8&#45;&gt;Node13 -->
<g id="edge17" class="edge">
<title>Node8&#45;&gt;Node13</title>
<path fill="none" stroke="midnightblue" d="M934.03,-122.45C938.84,-121.53 943.7,-120.68 948.36,-120 1135.29,-92.53 1186.25,-101.69 1377.57,-84.15"/>
<polygon fill="midnightblue" stroke="midnightblue" points="1378.04,-87.62 1387.68,-83.21 1377.4,-80.65 1378.04,-87.62"/>
</g>
<!-- Node14 -->
<g id="node14" class="node">
<title>Node14</title>
<g id="a_node14"><a xlink:title=" ">
<polygon fill="white" stroke="#bfbfbf" points="389.86,-60.5 389.86,-83.5 540.86,-83.5 540.86,-60.5 389.86,-60.5"/>
<text text-anchor="middle" x="465.36" y="-68.3" font-family="Helvetica,sans-Serif" font-size="14.00">llvm/Linker/Linker.h</text>
</a>
</g>
</g>
<!-- Node8&#45;&gt;Node14 -->
<g id="edge18" class="edge">
<title>Node8&#45;&gt;Node14</title>
<path fill="none" stroke="midnightblue" d="M858.49,-125.9C790.11,-116.7 644.48,-97.1 550.94,-84.52"/>
<polygon fill="midnightblue" stroke="midnightblue" points="551.31,-81.03 540.93,-83.17 550.37,-87.97 551.31,-81.03"/>
</g>
<!-- Node8&#45;&gt;Node15 -->
<g id="edge19" class="edge">
<title>Node8&#45;&gt;Node15</title>
<path fill="none" stroke="midnightblue" d="M934.02,-122.33C938.83,-121.43 943.7,-120.62 948.36,-120 1228.33,-82.76 1303.84,-107.51 1589.12,-84.06"/>
<polygon fill="midnightblue" stroke="midnightblue" points="1589.68,-87.52 1599.35,-83.2 1589.1,-80.55 1589.68,-87.52"/>
</g>
<!-- Node8&#45;&gt;Node16 -->
<g id="edge20" class="edge">
<title>Node8&#45;&gt;Node16</title>
<path fill="none" stroke="midnightblue" d="M933.95,-125.75C950.06,-123.68 969.1,-121.44 986.36,-120 1336.87,-90.72 1429.04,-115.17 1783.49,-84"/>
<polygon fill="midnightblue" stroke="midnightblue" points="1783.87,-87.48 1793.52,-83.11 1783.25,-80.51 1783.87,-87.48"/>
</g>
<!-- Node17 -->
<g id="node17" class="node">
<title>Node17</title>
<g id="a_node17"><a xlink:title=" ">
<polygon fill="white" stroke="#bfbfbf" points="558.86,-60.5 558.86,-83.5 779.86,-83.5 779.86,-60.5 558.86,-60.5"/>
<text text-anchor="middle" x="669.36" y="-68.3" font-family="Helvetica,sans-Serif" font-size="14.00">llvm/Support/MemoryBuffer.h</text>
</a>
</g>
</g>
<!-- Node8&#45;&gt;Node17 -->
<g id="edge21" class="edge">
<title>Node8&#45;&gt;Node17</title>
<path fill="none" stroke="midnightblue" d="M858.62,-121.36C820.81,-111.7 762.34,-96.76 720.4,-86.04"/>
<polygon fill="midnightblue" stroke="midnightblue" points="721.21,-82.63 710.65,-83.55 719.47,-89.42 721.21,-82.63"/>
</g>
<!-- Node18 -->
<g id="node18" class="node">
<title>Node18</title>
<g id="a_node18"><a xlink:title=" ">
<polygon fill="white" stroke="#bfbfbf" points="797.86,-60.5 797.86,-83.5 994.86,-83.5 994.86,-60.5 797.86,-60.5"/>
<text text-anchor="middle" x="896.36" y="-68.3" font-family="Helvetica,sans-Serif" font-size="14.00">llvm/Support/SourceMgr.h</text>
</a>
</g>
</g>
<!-- Node8&#45;&gt;Node18 -->
<g id="edge22" class="edge">
<title>Node8&#45;&gt;Node18</title>
<path fill="none" stroke="midnightblue" d="M896.36,-120.36C896.36,-112.92 896.36,-102.74 896.36,-93.73"/>
<polygon fill="midnightblue" stroke="midnightblue" points="899.86,-93.57 896.36,-83.57 892.86,-93.57 899.86,-93.57"/>
</g>
<!-- Node10 -->
<g id="node10" class="node">
<title>Node10</title>
<g id="a_node10"><a xlink:title=" ">
<polygon fill="white" stroke="#bfbfbf" points="1198.86,-0.5 1198.86,-23.5 1355.86,-23.5 1355.86,-0.5 1198.86,-0.5"/>
<text text-anchor="middle" x="1277.36" y="-8.3" font-family="Helvetica,sans-Serif" font-size="14.00">llvm/IR/BasicBlock.h</text>
</a>
</g>
</g>
<!-- Node9&#45;&gt;Node10 -->
<g id="edge11" class="edge">
<title>Node9&#45;&gt;Node10</title>
<path fill="none" stroke="midnightblue" d="M1277.36,-60.36C1277.36,-52.92 1277.36,-42.74 1277.36,-33.73"/>
<polygon fill="midnightblue" stroke="midnightblue" points="1280.86,-33.57 1277.36,-23.57 1273.86,-33.57 1280.86,-33.57"/>
</g>
<!-- Node11&#45;&gt;Node4 -->
<g id="edge14" class="edge">
<title>Node11&#45;&gt;Node4</title>
<path fill="none" stroke="midnightblue" d="M1013.18,-61.18C1009.86,-60.75 1006.57,-60.35 1003.36,-60 702.95,-27.23 338.35,-16.57 218.59,-13.82"/>
<polygon fill="midnightblue" stroke="midnightblue" points="218.5,-10.31 208.42,-13.59 218.34,-17.31 218.5,-10.31"/>
</g>
<!-- Node11&#45;&gt;Node12 -->
<g id="edge13" class="edge">
<title>Node11&#45;&gt;Node12</title>
<path fill="none" stroke="midnightblue" d="M1078.7,-60.36C1084.17,-52.43 1091.78,-41.39 1098.28,-31.96"/>
<polygon fill="midnightblue" stroke="midnightblue" points="1101.27,-33.79 1104.07,-23.57 1095.51,-29.82 1101.27,-33.79"/>
</g>
</g>
</svg>
