<?xml version="1.0" encoding="UTF-8" standalone="no"?>
<!DOCTYPE svg PUBLIC "-//W3C//DTD SVG 1.1//EN"
 "http://www.w3.org/Graphics/SVG/1.1/DTD/svg11.dtd">
<!-- Generated by graphviz version 2.43.0 (0)
 -->
<!-- Title: free Pages: 1 -->
<!--zoomable 542 -->
<svg id="main" version="1.1" xmlns="http://www.w3.org/2000/svg" xmlns:xlink="http://www.w3.org/1999/xlink" xml:space="preserve" onload="init(evt)">
<style type="text/css"><![CDATA[
.edge:hover path { stroke: red; }
.edge:hover polygon { stroke: red; fill: red; }
]]></style>
<script type="text/javascript"><![CDATA[
var edges = document.getElementsByTagName('g');
if (edges && edges.length) {
  for (var i=0;i<edges.length;i++) {
    if (edges[i].id.substr(0,4)=='edge') {
      edges[i].setAttribute('class','edge');
    }
  }
}
]]></script>
        <defs>
                <circle id="rim" cx="0" cy="0" r="7"/>
                <circle id="rim2" cx="0" cy="0" r="3.5"/>
                <g id="zoomPlus">
                        <use xlink:href="#rim" fill="#404040">
                                <set attributeName="fill" to="#808080" begin="zoomplus.mouseover" end="zoomplus.mouseout"/>
                        </use>
                        <path d="M-4,0h8M0,-4v8" fill="none" stroke="white" stroke-width="1.5" pointer-events="none"/>
                </g>
                <g id="zoomMin">
                        <use xlink:href="#rim" fill="#404040">
                                <set attributeName="fill" to="#808080" begin="zoomminus.mouseover" end="zoomminus.mouseout"/>
                        </use>
                        <path d="M-4,0h8" fill="none" stroke="white" stroke-width="1.5" pointer-events="none"/>
                </g>
                <g id="dirArrow">
                        <path fill="none" stroke="white" stroke-width="1.5" d="M0,-3.0v7 M-2.5,-0.5L0,-3.0L2.5,-0.5"/>
                </g>
               <g id="resetDef">
                       <use xlink:href="#rim2" fill="#404040">
                               <set attributeName="fill" to="#808080" begin="reset.mouseover" end="reset.mouseout"/>
                       </use>
               </g>
        </defs>

<script type="text/javascript">
var viewWidth = 1435;
var viewHeight = 542;
var sectionId = 'dynsection-1';
</script>
<script xlink:href="../../svgpan.js"/>
<svg id="graph" class="graph">
<g id="viewport">
<title>free</title>
<polygon fill="white" stroke="transparent" points="-4,4 -4,-537.84 1431,-537.84 1431,4 -4,4"/>
<!-- Node1 -->
<g id="node1" class="node">
<title>Node1</title>
<g id="a_node1"><a xlink:title=" ">
<polygon fill="#bfbfbf" stroke="black" points="1383,-352.34 1383,-375.34 1427,-375.34 1427,-352.34 1383,-352.34"/>
<text text-anchor="middle" x="1405" y="-360.14" font-family="Helvetica,sans-Serif" font-size="14.00">free</text>
</a>
</g>
</g>
<!-- Node2 -->
<g id="node2" class="node">
<title>Node2</title>
<g id="a_node2"><a xlink:href="../../d2/db0/splay_8h.html#abdac9e5d9aa4c821228951ee07ec6465" target="_top" xlink:title=" ">
<polygon fill="white" stroke="black" points="1243.5,-510.34 1243.5,-533.34 1302.5,-533.34 1302.5,-510.34 1243.5,-510.34"/>
<text text-anchor="middle" x="1273" y="-518.14" font-family="Helvetica,sans-Serif" font-size="14.00">delete</text>
</a>
</g>
</g>
<!-- Node1&#45;&gt;Node2 -->
<g id="edge1" class="edge">
<title>Node1&#45;&gt;Node2</title>
<path fill="none" stroke="midnightblue" d="M1400.22,-385.43C1394.06,-414.42 1379.15,-465.73 1347,-495.84 1334.92,-507.16 1317.6,-513.6 1302.86,-517.24"/>
<polygon fill="midnightblue" stroke="midnightblue" points="1403.68,-386 1402.17,-375.51 1396.81,-384.65 1403.68,-386"/>
</g>
<!-- Node3 -->
<g id="node3" class="node">
<title>Node3</title>
<g id="a_node3"><a xlink:href="../../d2/db0/splay_8h.html#aa92af4ddcdf3134ef4943b684eb5c421" target="_top" xlink:title=" ">
<polygon fill="white" stroke="black" points="1237.5,-412.34 1237.5,-435.34 1308.5,-435.34 1308.5,-412.34 1237.5,-412.34"/>
<text text-anchor="middle" x="1273" y="-420.14" font-family="Helvetica,sans-Serif" font-size="14.00">freetree</text>
</a>
</g>
</g>
<!-- Node1&#45;&gt;Node3 -->
<g id="edge2" class="edge">
<title>Node1&#45;&gt;Node3</title>
<path fill="none" stroke="midnightblue" d="M1377.92,-380.86C1368.41,-386.67 1357.43,-392.93 1347,-397.84 1334.83,-403.57 1321.03,-408.79 1308.73,-413.03"/>
<polygon fill="midnightblue" stroke="midnightblue" points="1379.89,-383.75 1386.52,-375.49 1376.19,-377.82 1379.89,-383.75"/>
</g>
<!-- Node4 -->
<g id="node4" class="node">
<title>Node4</title>
<g id="a_node4"><a xlink:href="../../d0/dbf/parda_8h.html#aaecfcceb1c1b235b54a68a2d917874d8" target="_top" xlink:title=" ">
<polygon fill="white" stroke="black" points="1040.5,-412.34 1040.5,-435.34 1130.5,-435.34 1130.5,-412.34 1040.5,-412.34"/>
<text text-anchor="middle" x="1085.5" y="-420.14" font-family="Helvetica,sans-Serif" font-size="14.00">parda_free</text>
</a>
</g>
</g>
<!-- Node1&#45;&gt;Node4 -->
<g id="edge30" class="edge">
<title>Node1&#45;&gt;Node4</title>
<path fill="none" stroke="midnightblue" d="M1398.57,-385.25C1391.26,-409.02 1375.74,-446.23 1347,-462.84 1268.02,-508.51 1153.93,-459.31 1107.42,-435.38"/>
<polygon fill="midnightblue" stroke="midnightblue" points="1402,-385.97 1401.36,-375.4 1395.27,-384.06 1402,-385.97"/>
</g>
<!-- Node8 -->
<g id="node8" class="node">
<title>Node8</title>
<g id="a_node8"><a xlink:href="../../de/d09/narray_8h.html#a00e1ac7249125879d43230a3f1a49b1d" target="_top" xlink:title=" ">
<polygon fill="white" stroke="black" points="1199,-219.34 1199,-242.34 1347,-242.34 1347,-219.34 1199,-219.34"/>
<text text-anchor="middle" x="1273" y="-227.14" font-family="Helvetica,sans-Serif" font-size="14.00">narray_append_val</text>
</a>
</g>
</g>
<!-- Node1&#45;&gt;Node8 -->
<g id="edge9" class="edge">
<title>Node1&#45;&gt;Node8</title>
<path fill="none" stroke="midnightblue" d="M1385.4,-344.81C1358.03,-316.82 1307.76,-265.38 1285.33,-242.43"/>
<polygon fill="midnightblue" stroke="midnightblue" points="1382.97,-347.34 1392.46,-352.04 1387.98,-342.44 1382.97,-347.34"/>
</g>
<!-- Node11 -->
<g id="node11" class="node">
<title>Node11</title>
<g id="a_node11"><a xlink:href="../../d0/dbf/parda_8h.html#ac66e3c12653af16fe2738d9e0089acfc" target="_top" xlink:title=" ">
<polygon fill="white" stroke="black" points="542.5,-191.34 542.5,-214.34 649.5,-214.34 649.5,-191.34 542.5,-191.34"/>
<text text-anchor="middle" x="596" y="-199.14" font-family="Helvetica,sans-Serif" font-size="14.00">parda_merge</text>
</a>
</g>
</g>
<!-- Node1&#45;&gt;Node11 -->
<g id="edge35" class="edge">
<title>Node1&#45;&gt;Node11</title>
<path fill="none" stroke="midnightblue" d="M1401.07,-342.18C1395.67,-309.83 1381.39,-248.54 1347,-209.84 1286,-141.2 1252.17,-137.8 1163,-115.84 1135.05,-108.96 746.02,-109.96 733,-113.84 681.62,-129.16 631.59,-170.77 609.21,-191.2"/>
<polygon fill="midnightblue" stroke="midnightblue" points="1397.65,-342.98 1402.63,-352.34 1404.57,-341.92 1397.65,-342.98"/>
</g>
<!-- Node20 -->
<g id="node20" class="node">
<title>Node20</title>
<g id="a_node20"><a xlink:href="../../de/d09/narray_8h.html#ad4a6215f48c72db2c016b1f3d8aa2723" target="_top" xlink:title=" ">
<polygon fill="white" stroke="black" points="1225.5,-332.34 1225.5,-355.34 1320.5,-355.34 1320.5,-332.34 1225.5,-332.34"/>
<text text-anchor="middle" x="1273" y="-340.14" font-family="Helvetica,sans-Serif" font-size="14.00">narray_free</text>
</a>
</g>
</g>
<!-- Node1&#45;&gt;Node20 -->
<g id="edge27" class="edge">
<title>Node1&#45;&gt;Node20</title>
<path fill="none" stroke="midnightblue" d="M1372.65,-359.02C1357.02,-356.62 1337.82,-353.66 1320.52,-351"/>
<polygon fill="midnightblue" stroke="midnightblue" points="1372.41,-362.52 1382.82,-360.59 1373.47,-355.61 1372.41,-362.52"/>
</g>
<!-- Node21 -->
<g id="node21" class="node">
<title>Node21</title>
<g id="a_node21"><a xlink:href="../../d0/dbf/parda_8h.html#a8ce846b74cc5c09b66895149e3f559ed" target="_top" xlink:title=" ">
<polygon fill="white" stroke="black" points="553.5,-371.34 553.5,-394.34 638.5,-394.34 638.5,-371.34 553.5,-371.34"/>
<text text-anchor="middle" x="596" y="-379.14" font-family="Helvetica,sans-Serif" font-size="14.00">parda_init</text>
</a>
</g>
</g>
<!-- Node1&#45;&gt;Node21 -->
<g id="edge31" class="edge">
<title>Node1&#45;&gt;Node21</title>
<path fill="none" stroke="midnightblue" d="M1372.76,-364.58C1247.44,-367.53 781.16,-378.51 638.64,-381.86"/>
<polygon fill="midnightblue" stroke="midnightblue" points="1372.91,-368.08 1382.83,-364.34 1372.75,-361.08 1372.91,-368.08"/>
</g>
<!-- Node23 -->
<g id="node23" class="node">
<title>Node23</title>
<g id="a_node23"><a xlink:href="../../d5/d13/parda__omp_8h.html#aaf542e14f3fdeb83a97dff5b2c8f2860" target="_top" xlink:title=" ">
<polygon fill="white" stroke="black" points="788.5,-34.34 788.5,-57.34 916.5,-57.34 916.5,-34.34 788.5,-34.34"/>
<text text-anchor="middle" x="852.5" y="-42.14" font-family="Helvetica,sans-Serif" font-size="14.00">parda_omp_free</text>
</a>
</g>
</g>
<!-- Node1&#45;&gt;Node23 -->
<g id="edge36" class="edge">
<title>Node1&#45;&gt;Node23</title>
<path fill="none" stroke="midnightblue" d="M1403.08,-341.92C1400.01,-280.23 1387.84,-107.32 1347,-71.84 1215.04,42.81 980.52,-8.57 890.29,-34.32"/>
<polygon fill="midnightblue" stroke="midnightblue" points="1399.59,-342.26 1403.56,-352.09 1406.59,-341.94 1399.59,-342.26"/>
</g>
<!-- Node3&#45;&gt;Node3 -->
<g id="edge3" class="edge">
<title>Node3&#45;&gt;Node3</title>
<path fill="none" stroke="midnightblue" d="M1297.19,-445.32C1295.08,-450.23 1287.02,-453.84 1273,-453.84 1250.57,-453.84 1243.39,-444.6 1251.45,-435.55"/>
<polygon fill="midnightblue" stroke="midnightblue" points="1300.54,-444.29 1294.55,-435.55 1293.78,-446.11 1300.54,-444.29"/>
</g>
<!-- Node3&#45;&gt;Node4 -->
<g id="edge4" class="edge">
<title>Node3&#45;&gt;Node4</title>
<path fill="none" stroke="midnightblue" d="M1226.77,-423.84C1197.57,-423.84 1159.75,-423.84 1130.74,-423.84"/>
<polygon fill="midnightblue" stroke="midnightblue" points="1227.11,-427.34 1237.11,-423.84 1227.11,-420.34 1227.11,-427.34"/>
</g>
<!-- Node5 -->
<g id="node5" class="node">
<title>Node5</title>
<g id="a_node5"><a xlink:href="../../d0/dbf/parda_8h.html#ab5b52d038b8aaf5acd36508c229bd923" target="_top" xlink:title=" ">
<polygon fill="white" stroke="black" points="294,-392.84 294,-430.84 451,-430.84 451,-392.84 294,-392.84"/>
<text text-anchor="start" x="302" y="-415.64" font-family="Helvetica,sans-Serif" font-size="14.00">classical_tree_based</text>
<text text-anchor="middle" x="372.5" y="-400.64" font-family="Helvetica,sans-Serif" font-size="14.00">_stackdist</text>
</a>
</g>
</g>
<!-- Node4&#45;&gt;Node5 -->
<g id="edge5" class="edge">
<title>Node4&#45;&gt;Node5</title>
<path fill="none" stroke="midnightblue" d="M1030.19,-422.93C905.08,-420.82 596.27,-415.6 451.17,-413.15"/>
<polygon fill="midnightblue" stroke="midnightblue" points="1030.23,-426.43 1040.29,-423.1 1030.35,-419.43 1030.23,-426.43"/>
</g>
<!-- Node7 -->
<g id="node7" class="node">
<title>Node7</title>
<g id="a_node7"><a xlink:href="../../d5/d13/parda__omp_8h.html#af99a329269ee6e1bd3f49b4442ab1097" target="_top" xlink:title=" ">
<polygon fill="white" stroke="black" points="87,-350.34 87,-373.34 250,-373.34 250,-350.34 87,-350.34"/>
<text text-anchor="middle" x="168.5" y="-358.14" font-family="Helvetica,sans-Serif" font-size="14.00">parda_omp_stackdist</text>
</a>
</g>
</g>
<!-- Node4&#45;&gt;Node7 -->
<g id="edge7" class="edge">
<title>Node4&#45;&gt;Node7</title>
<path fill="none" stroke="midnightblue" d="M1030.52,-436.37C899.38,-464.39 555.03,-523.46 286,-440.84 242.78,-427.57 201.19,-392.23 181.44,-373.64"/>
<polygon fill="midnightblue" stroke="midnightblue" points="1031.3,-439.78 1040.33,-434.24 1029.82,-432.94 1031.3,-439.78"/>
</g>
<!-- Node6 -->
<g id="node6" class="node">
<title>Node6</title>
<g id="a_node6"><a xlink:href="../../d0/d29/main_8c.html#a3c04138a5bfe5d72780bb7e82a18e627" target="_top" xlink:title=" ">
<polygon fill="white" stroke="black" points="0,-370.34 0,-393.34 51,-393.34 51,-370.34 0,-370.34"/>
<text text-anchor="middle" x="25.5" y="-378.14" font-family="Helvetica,sans-Serif" font-size="14.00">main</text>
</a>
</g>
</g>
<!-- Node5&#45;&gt;Node6 -->
<g id="edge6" class="edge">
<title>Node5&#45;&gt;Node6</title>
<path fill="none" stroke="midnightblue" d="M283.43,-404.19C206.19,-397.47 98.97,-388.15 51.19,-383.99"/>
<polygon fill="midnightblue" stroke="midnightblue" points="283.38,-407.69 293.65,-405.07 283.99,-400.72 283.38,-407.69"/>
</g>
<!-- Node7&#45;&gt;Node6 -->
<g id="edge8" class="edge">
<title>Node7&#45;&gt;Node6</title>
<path fill="none" stroke="midnightblue" d="M76.54,-374.75C67.33,-376.05 58.63,-377.29 51.14,-378.35"/>
<polygon fill="midnightblue" stroke="midnightblue" points="77.3,-378.17 86.71,-373.3 76.31,-371.24 77.3,-378.17"/>
</g>
<!-- Node9 -->
<g id="node9" class="node">
<title>Node9</title>
<g id="a_node9"><a xlink:href="../../d0/dbf/parda_8h.html#a91a802bec195082a1e725e3f307b099a" target="_top" xlink:title=" ">
<polygon fill="white" stroke="black" points="1051.5,-152.34 1051.5,-175.34 1119.5,-175.34 1119.5,-152.34 1051.5,-152.34"/>
<text text-anchor="middle" x="1085.5" y="-160.14" font-family="Helvetica,sans-Serif" font-size="14.00">iterator</text>
</a>
</g>
</g>
<!-- Node8&#45;&gt;Node9 -->
<g id="edge10" class="edge">
<title>Node8&#45;&gt;Node9</title>
<path fill="none" stroke="midnightblue" d="M1237.99,-215.13C1216.72,-205.64 1188.58,-193.71 1163,-184.84 1148.95,-179.97 1133.13,-175.47 1119.55,-171.9"/>
<polygon fill="midnightblue" stroke="midnightblue" points="1236.7,-218.39 1247.25,-219.3 1239.57,-212 1236.7,-218.39"/>
</g>
<!-- Node14 -->
<g id="node14" class="node">
<title>Node14</title>
<g id="a_node14"><a xlink:href="../../d0/dbf/parda_8h.html#a8e4c1106b242bf781e1ec7d62fc21a41" target="_top" xlink:title=" ">
<polygon fill="white" stroke="black" points="781,-123.34 781,-146.34 924,-146.34 924,-123.34 781,-123.34"/>
<text text-anchor="middle" x="852.5" y="-131.14" font-family="Helvetica,sans-Serif" font-size="14.00">parda_get_abfront</text>
</a>
</g>
</g>
<!-- Node8&#45;&gt;Node14 -->
<g id="edge16" class="edge">
<title>Node8&#45;&gt;Node14</title>
<path fill="none" stroke="midnightblue" d="M1255.67,-211.64C1236.14,-190.28 1201.25,-156.92 1163,-142.84 1085.06,-114.17 988.47,-117.19 924.12,-124.1"/>
<polygon fill="midnightblue" stroke="midnightblue" points="1253.11,-214.04 1262.37,-219.18 1258.34,-209.38 1253.11,-214.04"/>
</g>
<!-- Node15 -->
<g id="node15" class="node">
<title>Node15</title>
<g id="a_node15"><a xlink:href="../../d0/dbf/parda_8h.html#a7d0ee3d41b9ae3b5ea299e358099b7c7" target="_top" xlink:title=" ">
<polygon fill="white" stroke="black" points="1027.5,-194.34 1027.5,-217.34 1143.5,-217.34 1143.5,-194.34 1027.5,-194.34"/>
<text text-anchor="middle" x="1085.5" y="-202.14" font-family="Helvetica,sans-Serif" font-size="14.00">parda_process</text>
</a>
</g>
</g>
<!-- Node8&#45;&gt;Node15 -->
<g id="edge18" class="edge">
<title>Node8&#45;&gt;Node15</title>
<path fill="none" stroke="midnightblue" d="M1188.97,-219.65C1173.68,-217.59 1158.04,-215.48 1143.72,-213.56"/>
<polygon fill="midnightblue" stroke="midnightblue" points="1188.57,-223.13 1198.95,-221 1189.51,-216.19 1188.57,-223.13"/>
</g>
<!-- Node16 -->
<g id="node16" class="node">
<title>Node16</title>
<g id="a_node16"><a xlink:href="../../d0/dbf/parda_8h.html#aba642b919a1605f65607ac245ce94fa9" target="_top" xlink:title=" ">
<polygon fill="white" stroke="black" points="1008,-332.34 1008,-355.34 1163,-355.34 1163,-332.34 1008,-332.34"/>
<text text-anchor="middle" x="1085.5" y="-340.14" font-family="Helvetica,sans-Serif" font-size="14.00">process_one_access</text>
</a>
</g>
</g>
<!-- Node8&#45;&gt;Node16 -->
<g id="edge19" class="edge">
<title>Node8&#45;&gt;Node16</title>
<path fill="none" stroke="midnightblue" d="M1244.28,-247.73C1206.14,-270.97 1138.47,-312.19 1105.55,-332.24"/>
<polygon fill="midnightblue" stroke="midnightblue" points="1246.13,-250.7 1252.85,-242.51 1242.49,-244.72 1246.13,-250.7"/>
</g>
<!-- Node19 -->
<g id="node19" class="node">
<title>Node19</title>
<g id="a_node19"><a xlink:href="../../d0/dbf/parda_8h.html#ab88eb69b6dc07345fb2318fe9c2093d1" target="_top" xlink:title=" ">
<polygon fill="white" stroke="black" points="1008,-236.84 1008,-274.84 1163,-274.84 1163,-236.84 1008,-236.84"/>
<text text-anchor="start" x="1016" y="-259.64" font-family="Helvetica,sans-Serif" font-size="14.00">process_one_access</text>
<text text-anchor="middle" x="1085.5" y="-244.64" font-family="Helvetica,sans-Serif" font-size="14.00">_shared</text>
</a>
</g>
</g>
<!-- Node8&#45;&gt;Node19 -->
<g id="edge25" class="edge">
<title>Node8&#45;&gt;Node19</title>
<path fill="none" stroke="midnightblue" d="M1188.94,-242.04C1180.35,-243.19 1171.66,-244.37 1163.14,-245.51"/>
<polygon fill="midnightblue" stroke="midnightblue" points="1189.51,-245.49 1198.95,-240.69 1188.57,-238.56 1189.51,-245.49"/>
</g>
<!-- Node10 -->
<g id="node10" class="node">
<title>Node10</title>
<g id="a_node10"><a xlink:href="../../d0/dbf/parda_8h.html#a961dead466e68fdb22133f3544e60bda" target="_top" xlink:title=" ">
<polygon fill="white" stroke="black" points="773.5,-182.34 773.5,-205.34 931.5,-205.34 931.5,-182.34 773.5,-182.34"/>
<text text-anchor="middle" x="852.5" y="-190.14" font-family="Helvetica,sans-Serif" font-size="14.00">parda_generate_end</text>
</a>
</g>
</g>
<!-- Node9&#45;&gt;Node10 -->
<g id="edge11" class="edge">
<title>Node9&#45;&gt;Node10</title>
<path fill="none" stroke="midnightblue" d="M1041.45,-169.43C1010.73,-173.42 968.54,-178.9 931.92,-183.66"/>
<polygon fill="midnightblue" stroke="midnightblue" points="1041.94,-172.9 1051.4,-168.14 1041.04,-165.96 1041.94,-172.9"/>
</g>
<!-- Node10&#45;&gt;Node11 -->
<g id="edge12" class="edge">
<title>Node10&#45;&gt;Node11</title>
<path fill="none" stroke="midnightblue" d="M763.38,-196.96C725.45,-198.3 682.39,-199.82 649.58,-200.98"/>
<polygon fill="midnightblue" stroke="midnightblue" points="763.54,-200.46 773.41,-196.61 763.29,-193.46 763.54,-200.46"/>
</g>
<!-- Node12 -->
<g id="node12" class="node">
<title>Node12</title>
<g id="a_node12"><a xlink:href="../../d5/d13/parda__omp_8h.html#ae6fbeb3538f797cfc948e920386b4741" target="_top" xlink:title=" ">
<polygon fill="white" stroke="black" points="304,-308.34 304,-331.34 441,-331.34 441,-308.34 304,-308.34"/>
<text text-anchor="middle" x="372.5" y="-316.14" font-family="Helvetica,sans-Serif" font-size="14.00">parda_omp_input</text>
</a>
</g>
</g>
<!-- Node11&#45;&gt;Node12 -->
<g id="edge13" class="edge">
<title>Node11&#45;&gt;Node12</title>
<path fill="none" stroke="midnightblue" d="M574.32,-221.24C548.91,-242.9 503.65,-278.49 459,-298.84 450.79,-302.58 441.83,-305.72 432.89,-308.32"/>
<polygon fill="midnightblue" stroke="midnightblue" points="576.87,-223.66 582.14,-214.47 572.29,-218.37 576.87,-223.66"/>
</g>
<!-- Node13 -->
<g id="node13" class="node">
<title>Node13</title>
<g id="a_node13"><a xlink:href="../../d0/d82/parda__omp_8c.html#a9608f67126e55a4e283694263aef00a4" target="_top" xlink:title=" ">
<polygon fill="white" stroke="black" points="286,-250.84 286,-288.84 459,-288.84 459,-250.84 286,-250.84"/>
<text text-anchor="start" x="294" y="-273.64" font-family="Helvetica,sans-Serif" font-size="14.00">parda_omp_input_with</text>
<text text-anchor="middle" x="372.5" y="-258.64" font-family="Helvetica,sans-Serif" font-size="14.00">_filename</text>
</a>
</g>
</g>
<!-- Node11&#45;&gt;Node13 -->
<g id="edge14" class="edge">
<title>Node11&#45;&gt;Node13</title>
<path fill="none" stroke="midnightblue" d="M547.25,-217.29C514.9,-227.07 471.8,-240.11 436.62,-250.75"/>
<polygon fill="midnightblue" stroke="midnightblue" points="548.36,-220.61 556.92,-214.36 546.34,-213.91 548.36,-220.61"/>
</g>
<!-- Node13&#45;&gt;Node7 -->
<g id="edge15" class="edge">
<title>Node13&#45;&gt;Node7</title>
<path fill="none" stroke="midnightblue" d="M301.6,-292.46C296.28,-294.51 291.03,-296.65 286,-298.84 250.59,-314.29 211.49,-336.6 188.78,-350.1"/>
<polygon fill="midnightblue" stroke="midnightblue" points="303.08,-295.65 311.22,-288.86 300.62,-289.09 303.08,-295.65"/>
</g>
<!-- Node14&#45;&gt;Node11 -->
<g id="edge17" class="edge">
<title>Node14&#45;&gt;Node11</title>
<path fill="none" stroke="midnightblue" d="M798.66,-148.96C751.79,-161.49 684.15,-179.56 640.38,-191.25"/>
<polygon fill="midnightblue" stroke="midnightblue" points="799.57,-152.34 808.33,-146.38 797.76,-145.58 799.57,-152.34"/>
</g>
<!-- Node17 -->
<g id="node17" class="node">
<title>Node17</title>
<g id="a_node17"><a xlink:href="../../d0/dbf/parda_8h.html#a2e011afd5d113d7b404cff2b9467af8d" target="_top" xlink:title=" ">
<polygon fill="white" stroke="black" points="733,-332.34 733,-355.34 972,-355.34 972,-332.34 733,-332.34"/>
<text text-anchor="middle" x="852.5" y="-340.14" font-family="Helvetica,sans-Serif" font-size="14.00">parda_input_with_textfilepointer</text>
</a>
</g>
</g>
<!-- Node16&#45;&gt;Node17 -->
<g id="edge20" class="edge">
<title>Node16&#45;&gt;Node17</title>
<path fill="none" stroke="midnightblue" d="M997.74,-343.84C989.32,-343.84 980.67,-343.84 972.01,-343.84"/>
<polygon fill="midnightblue" stroke="midnightblue" points="997.9,-347.34 1007.9,-343.84 997.9,-340.34 997.9,-347.34"/>
</g>
<!-- Node17&#45;&gt;Node13 -->
<g id="edge24" class="edge">
<title>Node17&#45;&gt;Node13</title>
<path fill="none" stroke="midnightblue" d="M767.25,-330.74C744.45,-327.2 719.78,-323.37 697,-319.84 616.41,-307.36 524.52,-293.16 459.32,-283.09"/>
<polygon fill="midnightblue" stroke="midnightblue" points="766.82,-334.22 777.24,-332.3 767.89,-327.3 766.82,-334.22"/>
</g>
<!-- Node18 -->
<g id="node18" class="node">
<title>Node18</title>
<g id="a_node18"><a xlink:href="../../d0/dbf/parda_8h.html#a1505668d8e66fe882bf0368896c3a8ec" target="_top" xlink:title=" ">
<polygon fill="white" stroke="black" points="495,-329.34 495,-352.34 697,-352.34 697,-329.34 495,-329.34"/>
<text text-anchor="middle" x="596" y="-337.14" font-family="Helvetica,sans-Serif" font-size="14.00">parda_input_with_filename</text>
</a>
</g>
</g>
<!-- Node17&#45;&gt;Node18 -->
<g id="edge21" class="edge">
<title>Node17&#45;&gt;Node18</title>
<path fill="none" stroke="midnightblue" d="M722.74,-342.33C714.16,-342.22 705.58,-342.12 697.17,-342.02"/>
<polygon fill="midnightblue" stroke="midnightblue" points="722.78,-345.83 732.82,-342.44 722.86,-338.83 722.78,-345.83"/>
</g>
<!-- Node18&#45;&gt;Node5 -->
<g id="edge22" class="edge">
<title>Node18&#45;&gt;Node5</title>
<path fill="none" stroke="midnightblue" d="M515.82,-354.99C508.69,-357 501.66,-359.28 495,-361.84 477.71,-368.5 475.86,-375.16 459,-382.84 451.3,-386.35 443.04,-389.67 434.81,-392.73"/>
<polygon fill="midnightblue" stroke="midnightblue" points="516.81,-358.35 525.57,-352.4 515.01,-351.58 516.81,-358.35"/>
</g>
<!-- Node18&#45;&gt;Node12 -->
<g id="edge23" class="edge">
<title>Node18&#45;&gt;Node12</title>
<path fill="none" stroke="midnightblue" d="M484.66,-330.38C469.79,-328.97 454.91,-327.56 441.09,-326.25"/>
<polygon fill="midnightblue" stroke="midnightblue" points="484.66,-333.9 494.94,-331.36 485.32,-326.93 484.66,-333.9"/>
</g>
<!-- Node19&#45;&gt;Node17 -->
<g id="edge26" class="edge">
<title>Node19&#45;&gt;Node17</title>
<path fill="none" stroke="midnightblue" d="M1024.97,-278.52C979.76,-295.74 919.46,-318.72 883.73,-332.33"/>
<polygon fill="midnightblue" stroke="midnightblue" points="1026.28,-281.77 1034.38,-274.94 1023.79,-275.23 1026.28,-281.77"/>
</g>
<!-- Node20&#45;&gt;Node4 -->
<g id="edge28" class="edge">
<title>Node20&#45;&gt;Node4</title>
<path fill="none" stroke="midnightblue" d="M1235.39,-359.63C1199.4,-375.16 1145.32,-398.48 1113.2,-412.33"/>
<polygon fill="midnightblue" stroke="midnightblue" points="1237.23,-362.65 1245.03,-355.48 1234.46,-356.22 1237.23,-362.65"/>
</g>
<!-- Node20&#45;&gt;Node11 -->
<g id="edge29" class="edge">
<title>Node20&#45;&gt;Node11</title>
<path fill="none" stroke="midnightblue" d="M1215.3,-332C1086.68,-305.13 774.3,-239.88 649.64,-213.84"/>
<polygon fill="midnightblue" stroke="midnightblue" points="1214.83,-335.48 1225.34,-334.1 1216.27,-328.63 1214.83,-335.48"/>
</g>
<!-- Node21&#45;&gt;Node5 -->
<g id="edge32" class="edge">
<title>Node21&#45;&gt;Node5</title>
<path fill="none" stroke="midnightblue" d="M543.21,-389.62C515.86,-393.2 481.75,-397.67 451.29,-401.66"/>
<polygon fill="midnightblue" stroke="midnightblue" points="543.88,-393.07 553.34,-388.3 542.97,-386.13 543.88,-393.07"/>
</g>
<!-- Node22 -->
<g id="node22" class="node">
<title>Node22</title>
<g id="a_node22"><a xlink:href="../../d5/d13/parda__omp_8h.html#a7d690cc9f8c5779105f049f091ee5e25" target="_top" xlink:title=" ">
<polygon fill="white" stroke="black" points="311.5,-350.34 311.5,-373.34 433.5,-373.34 433.5,-350.34 311.5,-350.34"/>
<text text-anchor="middle" x="372.5" y="-358.14" font-family="Helvetica,sans-Serif" font-size="14.00">parda_omp_init</text>
</a>
</g>
</g>
<!-- Node21&#45;&gt;Node22 -->
<g id="edge33" class="edge">
<title>Node21&#45;&gt;Node22</title>
<path fill="none" stroke="midnightblue" d="M543.08,-377.92C510.36,-374.82 468,-370.8 433.79,-367.56"/>
<polygon fill="midnightblue" stroke="midnightblue" points="543.05,-381.43 553.34,-378.89 543.71,-374.47 543.05,-381.43"/>
</g>
<!-- Node22&#45;&gt;Node7 -->
<g id="edge34" class="edge">
<title>Node22&#45;&gt;Node7</title>
<path fill="none" stroke="midnightblue" d="M301.35,-361.84C284.87,-361.84 267.18,-361.84 250.28,-361.84"/>
<polygon fill="midnightblue" stroke="midnightblue" points="301.44,-365.34 311.44,-361.84 301.44,-358.34 301.44,-365.34"/>
</g>
<!-- Node23&#45;&gt;Node7 -->
<g id="edge37" class="edge">
<title>Node23&#45;&gt;Node7</title>
<path fill="none" stroke="midnightblue" d="M778.49,-59.09C665.52,-82.11 444.84,-137.36 286,-241.84 238.45,-273.12 195.42,-326.85 177.86,-350.31"/>
<polygon fill="midnightblue" stroke="midnightblue" points="779.3,-62.49 788.42,-57.09 777.92,-55.63 779.3,-62.49"/>
</g>
</g>
</svg>
        <g id="navigator" transform="translate(0 0)" fill="#404254">
                <rect fill="#f2f5e9" fill-opacity="0.5" stroke="#606060" stroke-width=".5" x="0" y="0" width="60" height="60"/>
                <use id="zoomplus" xlink:href="#zoomPlus" x="17" y="9" onmousedown="handleZoom(evt,'in')"/>
                <use id="zoomminus" xlink:href="#zoomMin" x="42" y="9" onmousedown="handleZoom(evt,'out')"/>
                <use id="reset" xlink:href="#resetDef" x="30" y="36" onmousedown="handleReset()"/>
                <g id="arrowUp" xlink:href="#dirArrow" transform="translate(30 24)" onmousedown="handlePan(0,-1)">
                  <use xlink:href="#rim" fill="#404040">
                        <set attributeName="fill" to="#808080" begin="arrowUp.mouseover" end="arrowUp.mouseout"/>
                  </use>
                  <path fill="none" stroke="white" stroke-width="1.5" d="M0,-3.0v7 M-2.5,-0.5L0,-3.0L2.5,-0.5"/>
                </g>
                <g id="arrowRight" xlink:href="#dirArrow" transform="rotate(90) translate(36 -43)" onmousedown="handlePan(1,0)">
                  <use xlink:href="#rim" fill="#404040">
                        <set attributeName="fill" to="#808080" begin="arrowRight.mouseover" end="arrowRight.mouseout"/>
                  </use>
                  <path fill="none" stroke="white" stroke-width="1.5" d="M0,-3.0v7 M-2.5,-0.5L0,-3.0L2.5,-0.5"/>
                </g>
                <g id="arrowDown" xlink:href="#dirArrow" transform="rotate(180) translate(-30 -48)" onmousedown="handlePan(0,1)">
                  <use xlink:href="#rim" fill="#404040">
                        <set attributeName="fill" to="#808080" begin="arrowDown.mouseover" end="arrowDown.mouseout"/>
                  </use>
                  <path fill="none" stroke="white" stroke-width="1.5" d="M0,-3.0v7 M-2.5,-0.5L0,-3.0L2.5,-0.5"/>
                </g>
                <g id="arrowLeft" xlink:href="#dirArrow" transform="rotate(270) translate(-36 17)" onmousedown="handlePan(-1,0)">
                  <use xlink:href="#rim" fill="#404040">
                        <set attributeName="fill" to="#808080" begin="arrowLeft.mouseover" end="arrowLeft.mouseout"/>
                  </use>
                  <path fill="none" stroke="white" stroke-width="1.5" d="M0,-3.0v7 M-2.5,-0.5L0,-3.0L2.5,-0.5"/>
                </g>
        </g>
        <svg viewBox="0 0 15 15" width="100%" height="30px" preserveAspectRatio="xMaxYMin meet">
         <g id="arrow_out" transform="scale(0.3 0.3)">
          <a xlink:href="hostRuntime_8cpp_ae206dc2056b70c9901731e30447df1aa_icgraph_org.svg" target="_base">
           <rect id="button" ry="5" rx="5" y="6" x="6" height="38" width="38"
                fill="#f2f5e9" fill-opacity="0.5" stroke="#606060" stroke-width="1.0"/>
           <path id="arrow"
             d="M 11.500037,31.436501 C 11.940474,20.09759 22.043105,11.32322 32.158766,21.979434 L 37.068811,17.246167 C 37.068811,17.246167 37.088388,32 37.088388,32 L 22.160133,31.978069 C 22.160133,31.978069 26.997745,27.140456 26.997745,27.140456 C 18.528582,18.264221 13.291696,25.230495 11.500037,31.436501 z"
             style="fill:#404040;"/>
          </a>
         </g>
        </svg>
</svg>
