<?xml version="1.0" encoding="UTF-8" standalone="no"?>
<!DOCTYPE svg PUBLIC "-//W3C//DTD SVG 1.1//EN"
 "http://www.w3.org/Graphics/SVG/1.1/DTD/svg11.dtd">
<!-- Generated by graphviz version 2.43.0 (0)
 -->
<!-- Title: outfile Pages: 1 -->
<svg width="539pt" height="74pt"
 viewBox="0.00 0.00 539.00 74.00" xmlns="http://www.w3.org/2000/svg" xmlns:xlink="http://www.w3.org/1999/xlink">
<g id="graph0" class="graph" transform="scale(1 1) rotate(0) translate(4 70)">
<title>outfile</title>
<polygon fill="white" stroke="transparent" points="-4,4 -4,-70 535,-70 535,4 -4,4"/>
<!-- Node1 -->
<g id="node1" class="node">
<title>Node1</title>
<g id="a_node1"><a xlink:title=" ">
<polygon fill="#bfbfbf" stroke="black" points="471,-21.5 471,-44.5 531,-44.5 531,-21.5 471,-21.5"/>
<text text-anchor="middle" x="501" y="-29.3" font-family="Helvetica,sans-Serif" font-size="14.00">outfile</text>
</a>
</g>
</g>
<!-- Node2 -->
<g id="node2" class="node">
<title>Node2</title>
<g id="a_node2"><a xlink:href="../../da/de5/hostRuntime_8cpp.html#a71fe11a91ecfac7fc1c069025f3a3070" target="_top" xlink:title=" ">
<polygon fill="white" stroke="black" points="334.5,-42.5 334.5,-65.5 363.5,-65.5 363.5,-42.5 334.5,-42.5"/>
<text text-anchor="middle" x="349" y="-50.3" font-family="Helvetica,sans-Serif" font-size="14.00">if</text>
</a>
</g>
</g>
<!-- Node1&#45;&gt;Node2 -->
<g id="edge1" class="edge">
<title>Node1&#45;&gt;Node2</title>
<path fill="none" stroke="midnightblue" d="M460.8,-38.49C428.89,-42.96 385.69,-49 363.86,-52.06"/>
<polygon fill="midnightblue" stroke="midnightblue" points="461.3,-41.95 470.72,-37.1 460.33,-35.02 461.3,-41.95"/>
</g>
<!-- Node3 -->
<g id="node3" class="node">
<title>Node3</title>
<g id="a_node3"><a xlink:href="../../df/d50/fluxDevicePass_8cpp.html#a2ac711460e8e656c38736b76db7c9e92" target="_top" xlink:title=" ">
<polygon fill="white" stroke="black" points="263,-0.5 263,-23.5 435,-23.5 435,-0.5 263,-0.5"/>
<text text-anchor="middle" x="349" y="-8.3" font-family="Helvetica,sans-Serif" font-size="14.00">ptxInstructionAnalysis</text>
</a>
</g>
</g>
<!-- Node1&#45;&gt;Node3 -->
<g id="edge2" class="edge">
<title>Node1&#45;&gt;Node3</title>
<path fill="none" stroke="midnightblue" d="M460.74,-27.5C451.86,-26.26 442.11,-24.9 432.19,-23.51"/>
<polygon fill="midnightblue" stroke="midnightblue" points="460.33,-30.98 470.72,-28.9 461.3,-24.05 460.33,-30.98"/>
</g>
<!-- Node4 -->
<g id="node4" class="node">
<title>Node4</title>
<g id="a_node4"><a xlink:href="../../d8/d73/structFluxDevicePass.html#a7f76b1ede2deac3e76586fdc4f227aa7" target="_top" xlink:title=" ">
<polygon fill="white" stroke="black" points="0,-0.5 0,-23.5 227,-23.5 227,-0.5 0,-0.5"/>
<text text-anchor="middle" x="113.5" y="-8.3" font-family="Helvetica,sans-Serif" font-size="14.00">FluxDevicePass::runOnModule</text>
</a>
</g>
</g>
<!-- Node3&#45;&gt;Node4 -->
<g id="edge3" class="edge">
<title>Node3&#45;&gt;Node4</title>
<path fill="none" stroke="midnightblue" d="M252.56,-12C244.16,-12 235.61,-12 227.09,-12"/>
<polygon fill="midnightblue" stroke="midnightblue" points="252.71,-15.5 262.71,-12 252.71,-8.5 252.71,-15.5"/>
</g>
</g>
</svg>
