<?xml version="1.0" encoding="UTF-8" standalone="no"?>
<!DOCTYPE svg PUBLIC "-//W3C//DTD SVG 1.1//EN"
 "http://www.w3.org/Graphics/SVG/1.1/DTD/svg11.dtd">
<!-- Generated by graphviz version 2.43.0 (0)
 -->
<!-- Title: PPT&#45;GPU/llvm_tool/mekong&#45;utils/src/IRUtils.cpp Pages: 1 -->
<svg width="1891pt" height="227pt"
 viewBox="0.00 0.00 1891.00 227.00" xmlns="http://www.w3.org/2000/svg" xmlns:xlink="http://www.w3.org/1999/xlink">
<g id="graph0" class="graph" transform="scale(1 1) rotate(0) translate(4 223)">
<title>PPT&#45;GPU/llvm_tool/mekong&#45;utils/src/IRUtils.cpp</title>
<polygon fill="white" stroke="transparent" points="-4,4 -4,-223 1887,-223 1887,4 -4,4"/>
<!-- Node1 -->
<g id="node1" class="node">
<title>Node1</title>
<g id="a_node1"><a xlink:title=" ">
<polygon fill="#bfbfbf" stroke="black" points="1083,-180.5 1083,-218.5 1284,-218.5 1284,-180.5 1083,-180.5"/>
<text text-anchor="start" x="1091" y="-203.3" font-family="Helvetica,sans-Serif" font-size="14.00">PPT&#45;GPU/llvm_tool/mekong</text>
<text text-anchor="middle" x="1183.5" y="-188.3" font-family="Helvetica,sans-Serif" font-size="14.00">&#45;utils/src/IRUtils.cpp</text>
</a>
</g>
</g>
<!-- Node2 -->
<g id="node2" class="node">
<title>Node2</title>
<g id="a_node2"><a xlink:href="../../db/d19/IRUtils_8h.html" target="_top" xlink:title=" ">
<polygon fill="white" stroke="black" points="768,-120.5 768,-143.5 843,-143.5 843,-120.5 768,-120.5"/>
<text text-anchor="middle" x="805.5" y="-128.3" font-family="Helvetica,sans-Serif" font-size="14.00">IRUtils.h</text>
</a>
</g>
</g>
<!-- Node1&#45;&gt;Node2 -->
<g id="edge1" class="edge">
<title>Node1&#45;&gt;Node2</title>
<path fill="none" stroke="midnightblue" d="M1082.88,-183.72C1019.62,-174 936.11,-160.41 853.03,-144.01"/>
<polygon fill="midnightblue" stroke="midnightblue" points="853.65,-140.56 843.16,-142.05 852.29,-147.43 853.65,-140.56"/>
</g>
<!-- Node16 -->
<g id="node16" class="node">
<title>Node16</title>
<g id="a_node16"><a xlink:href="../../da/d38/x65599_8h.html" target="_top" xlink:title=" ">
<polygon fill="white" stroke="black" points="861,-120.5 861,-143.5 944,-143.5 944,-120.5 861,-120.5"/>
<text text-anchor="middle" x="902.5" y="-128.3" font-family="Helvetica,sans-Serif" font-size="14.00">x65599.h</text>
</a>
</g>
</g>
<!-- Node1&#45;&gt;Node16 -->
<g id="edge16" class="edge">
<title>Node1&#45;&gt;Node16</title>
<path fill="none" stroke="midnightblue" d="M1105.97,-180.43C1057.55,-169.14 996.53,-154.92 954.01,-145.01"/>
<polygon fill="midnightblue" stroke="midnightblue" points="954.69,-141.57 944.15,-142.71 953.1,-148.39 954.69,-141.57"/>
</g>
<!-- Node17 -->
<g id="node17" class="node">
<title>Node17</title>
<g id="a_node17"><a xlink:title=" ">
<polygon fill="white" stroke="#bfbfbf" points="962,-120.5 962,-143.5 1175,-143.5 1175,-120.5 962,-120.5"/>
<text text-anchor="middle" x="1068.5" y="-128.3" font-family="Helvetica,sans-Serif" font-size="14.00">llvm/Bitcode/BitcodeWriter.h</text>
</a>
</g>
</g>
<!-- Node1&#45;&gt;Node17 -->
<g id="edge17" class="edge">
<title>Node1&#45;&gt;Node17</title>
<path fill="none" stroke="midnightblue" d="M1151.77,-180.43C1134.27,-170.46 1112.75,-158.2 1095.97,-148.65"/>
<polygon fill="midnightblue" stroke="midnightblue" points="1097.62,-145.56 1087.2,-143.65 1094.15,-151.64 1097.62,-145.56"/>
</g>
<!-- Node18 -->
<g id="node18" class="node">
<title>Node18</title>
<g id="a_node18"><a xlink:title=" ">
<polygon fill="white" stroke="#bfbfbf" points="1192.5,-120.5 1192.5,-143.5 1404.5,-143.5 1404.5,-120.5 1192.5,-120.5"/>
<text text-anchor="middle" x="1298.5" y="-128.3" font-family="Helvetica,sans-Serif" font-size="14.00">llvm/Support/raw_ostream.h</text>
</a>
</g>
</g>
<!-- Node1&#45;&gt;Node18 -->
<g id="edge18" class="edge">
<title>Node1&#45;&gt;Node18</title>
<path fill="none" stroke="midnightblue" d="M1215.23,-180.43C1232.73,-170.46 1254.25,-158.2 1271.03,-148.65"/>
<polygon fill="midnightblue" stroke="midnightblue" points="1272.85,-151.64 1279.8,-143.65 1269.38,-145.56 1272.85,-151.64"/>
</g>
<!-- Node19 -->
<g id="node19" class="node">
<title>Node19</title>
<g id="a_node19"><a xlink:title=" ">
<polygon fill="white" stroke="#bfbfbf" points="1422.5,-120.5 1422.5,-143.5 1492.5,-143.5 1492.5,-120.5 1422.5,-120.5"/>
<text text-anchor="middle" x="1457.5" y="-128.3" font-family="Helvetica,sans-Serif" font-size="14.00">fstream</text>
</a>
</g>
</g>
<!-- Node1&#45;&gt;Node19 -->
<g id="edge19" class="edge">
<title>Node1&#45;&gt;Node19</title>
<path fill="none" stroke="midnightblue" d="M1260.75,-180.45C1302.97,-170.52 1356.44,-157.85 1412.66,-144.19"/>
<polygon fill="midnightblue" stroke="midnightblue" points="1413.56,-147.57 1422.45,-141.81 1411.9,-140.77 1413.56,-147.57"/>
</g>
<!-- Node20 -->
<g id="node20" class="node">
<title>Node20</title>
<g id="a_node20"><a xlink:title=" ">
<polygon fill="white" stroke="#bfbfbf" points="1510.5,-120.5 1510.5,-143.5 1582.5,-143.5 1582.5,-120.5 1510.5,-120.5"/>
<text text-anchor="middle" x="1546.5" y="-128.3" font-family="Helvetica,sans-Serif" font-size="14.00">sstream</text>
</a>
</g>
</g>
<!-- Node1&#45;&gt;Node20 -->
<g id="edge20" class="edge">
<title>Node1&#45;&gt;Node20</title>
<path fill="none" stroke="midnightblue" d="M1284.09,-183.11C1344.25,-173.46 1422.39,-160.18 1500.22,-144.17"/>
<polygon fill="midnightblue" stroke="midnightblue" points="1501.12,-147.56 1510.2,-142.1 1499.7,-140.71 1501.12,-147.56"/>
</g>
<!-- Node3 -->
<g id="node3" class="node">
<title>Node3</title>
<g id="a_node3"><a xlink:href="../../d9/dc8/BasicBlockEnumerator_8h.html" target="_top" xlink:title=" ">
<polygon fill="white" stroke="black" points="0,-60.5 0,-83.5 185,-83.5 185,-60.5 0,-60.5"/>
<text text-anchor="middle" x="92.5" y="-68.3" font-family="Helvetica,sans-Serif" font-size="14.00">BasicBlockEnumerator.h</text>
</a>
</g>
</g>
<!-- Node2&#45;&gt;Node3 -->
<g id="edge2" class="edge">
<title>Node2&#45;&gt;Node3</title>
<path fill="none" stroke="midnightblue" d="M767.82,-128.43C672.46,-121.84 413.77,-103.5 198.5,-84 197.42,-83.9 196.33,-83.8 195.23,-83.7"/>
<polygon fill="midnightblue" stroke="midnightblue" points="195.55,-80.22 185.27,-82.77 194.9,-87.19 195.55,-80.22"/>
</g>
<!-- Node5 -->
<g id="node5" class="node">
<title>Node5</title>
<g id="a_node5"><a xlink:href="../../db/d2b/PTXFunction_8h.html" target="_top" xlink:title=" ">
<polygon fill="white" stroke="black" points="240.5,-60.5 240.5,-83.5 356.5,-83.5 356.5,-60.5 240.5,-60.5"/>
<text text-anchor="middle" x="298.5" y="-68.3" font-family="Helvetica,sans-Serif" font-size="14.00">PTXFunction.h</text>
</a>
</g>
</g>
<!-- Node2&#45;&gt;Node5 -->
<g id="edge4" class="edge">
<title>Node2&#45;&gt;Node5</title>
<path fill="none" stroke="midnightblue" d="M767.84,-127.66C693.45,-120.9 522.21,-104.62 366.91,-83.99"/>
<polygon fill="midnightblue" stroke="midnightblue" points="367.08,-80.48 356.71,-82.63 366.16,-87.42 367.08,-80.48"/>
</g>
<!-- Node6 -->
<g id="node6" class="node">
<title>Node6</title>
<g id="a_node6"><a xlink:title=" ">
<polygon fill="white" stroke="#bfbfbf" points="191,-0.5 191,-23.5 248,-23.5 248,-0.5 191,-0.5"/>
<text text-anchor="middle" x="219.5" y="-8.3" font-family="Helvetica,sans-Serif" font-size="14.00">string</text>
</a>
</g>
</g>
<!-- Node2&#45;&gt;Node6 -->
<g id="edge15" class="edge">
<title>Node2&#45;&gt;Node6</title>
<path fill="none" stroke="midnightblue" d="M767.83,-130.55C646.41,-128.73 270.96,-120.21 231.5,-84 217.88,-71.5 215.99,-49.75 216.82,-33.61"/>
<polygon fill="midnightblue" stroke="midnightblue" points="220.32,-33.78 217.73,-23.51 213.35,-33.16 220.32,-33.78"/>
</g>
<!-- Node8 -->
<g id="node8" class="node">
<title>Node8</title>
<g id="a_node8"><a xlink:title=" ">
<polygon fill="white" stroke="#bfbfbf" points="375,-60.5 375,-83.5 540,-83.5 540,-60.5 375,-60.5"/>
<text text-anchor="middle" x="457.5" y="-68.3" font-family="Helvetica,sans-Serif" font-size="14.00">llvm/IR/Instructions.h</text>
</a>
</g>
</g>
<!-- Node2&#45;&gt;Node8 -->
<g id="edge7" class="edge">
<title>Node2&#45;&gt;Node8</title>
<path fill="none" stroke="midnightblue" d="M767.93,-124.74C711.36,-115.31 603.24,-97.29 530.73,-85.21"/>
<polygon fill="midnightblue" stroke="midnightblue" points="531.19,-81.73 520.75,-83.54 530.04,-88.64 531.19,-81.73"/>
</g>
<!-- Node9 -->
<g id="node9" class="node">
<title>Node9</title>
<g id="a_node9"><a xlink:title=" ">
<polygon fill="white" stroke="#bfbfbf" points="558,-60.5 558,-83.5 691,-83.5 691,-60.5 558,-60.5"/>
<text text-anchor="middle" x="624.5" y="-68.3" font-family="Helvetica,sans-Serif" font-size="14.00">llvm/IR/Module.h</text>
</a>
</g>
</g>
<!-- Node2&#45;&gt;Node9 -->
<g id="edge8" class="edge">
<title>Node2&#45;&gt;Node9</title>
<path fill="none" stroke="midnightblue" d="M772.72,-120.5C743.09,-111 699.28,-96.96 666.97,-86.61"/>
<polygon fill="midnightblue" stroke="midnightblue" points="667.93,-83.24 657.34,-83.52 665.79,-89.91 667.93,-83.24"/>
</g>
<!-- Node10 -->
<g id="node10" class="node">
<title>Node10</title>
<g id="a_node10"><a xlink:title=" ">
<polygon fill="white" stroke="#bfbfbf" points="709,-60.5 709,-83.5 902,-83.5 902,-60.5 709,-60.5"/>
<text text-anchor="middle" x="805.5" y="-68.3" font-family="Helvetica,sans-Serif" font-size="14.00">llvm/IRReader/IRReader.h</text>
</a>
</g>
</g>
<!-- Node2&#45;&gt;Node10 -->
<g id="edge9" class="edge">
<title>Node2&#45;&gt;Node10</title>
<path fill="none" stroke="midnightblue" d="M805.5,-120.36C805.5,-112.92 805.5,-102.74 805.5,-93.73"/>
<polygon fill="midnightblue" stroke="midnightblue" points="809,-93.57 805.5,-83.57 802,-93.57 809,-93.57"/>
</g>
<!-- Node11 -->
<g id="node11" class="node">
<title>Node11</title>
<g id="a_node11"><a xlink:title=" ">
<polygon fill="white" stroke="#bfbfbf" points="920,-60.5 920,-83.5 1071,-83.5 1071,-60.5 920,-60.5"/>
<text text-anchor="middle" x="995.5" y="-68.3" font-family="Helvetica,sans-Serif" font-size="14.00">llvm/Linker/Linker.h</text>
</a>
</g>
</g>
<!-- Node2&#45;&gt;Node11 -->
<g id="edge10" class="edge">
<title>Node2&#45;&gt;Node11</title>
<path fill="none" stroke="midnightblue" d="M839.91,-120.5C871.15,-110.96 917.4,-96.84 951.36,-86.48"/>
<polygon fill="midnightblue" stroke="midnightblue" points="952.49,-89.79 961.03,-83.52 950.44,-83.1 952.49,-89.79"/>
</g>
<!-- Node12 -->
<g id="node12" class="node">
<title>Node12</title>
<g id="a_node12"><a xlink:title=" ">
<polygon fill="white" stroke="#bfbfbf" points="1089.5,-60.5 1089.5,-83.5 1265.5,-83.5 1265.5,-60.5 1089.5,-60.5"/>
<text text-anchor="middle" x="1177.5" y="-68.3" font-family="Helvetica,sans-Serif" font-size="14.00">llvm/Support/Casting.h</text>
</a>
</g>
</g>
<!-- Node2&#45;&gt;Node12 -->
<g id="edge11" class="edge">
<title>Node2&#45;&gt;Node12</title>
<path fill="none" stroke="midnightblue" d="M843.15,-121.89C846.31,-121.21 849.45,-120.58 852.5,-120 928.54,-105.63 1015.31,-93.29 1080.06,-84.86"/>
<polygon fill="midnightblue" stroke="midnightblue" points="1080.79,-88.29 1090.26,-83.54 1079.89,-81.35 1080.79,-88.29"/>
</g>
<!-- Node13 -->
<g id="node13" class="node">
<title>Node13</title>
<g id="a_node13"><a xlink:title=" ">
<polygon fill="white" stroke="#bfbfbf" points="1284,-60.5 1284,-83.5 1429,-83.5 1429,-60.5 1284,-60.5"/>
<text text-anchor="middle" x="1356.5" y="-68.3" font-family="Helvetica,sans-Serif" font-size="14.00">llvm/IR/IRBuilder.h</text>
</a>
</g>
</g>
<!-- Node2&#45;&gt;Node13 -->
<g id="edge12" class="edge">
<title>Node2&#45;&gt;Node13</title>
<path fill="none" stroke="midnightblue" d="M843.12,-121.69C846.28,-121.06 849.44,-120.49 852.5,-120 1035.14,-90.99 1085.62,-104.04 1273.43,-84.06"/>
<polygon fill="midnightblue" stroke="midnightblue" points="1274.08,-87.51 1283.64,-82.96 1273.33,-80.55 1274.08,-87.51"/>
</g>
<!-- Node14 -->
<g id="node14" class="node">
<title>Node14</title>
<g id="a_node14"><a xlink:title=" ">
<polygon fill="white" stroke="#bfbfbf" points="1447,-60.5 1447,-83.5 1668,-83.5 1668,-60.5 1447,-60.5"/>
<text text-anchor="middle" x="1557.5" y="-68.3" font-family="Helvetica,sans-Serif" font-size="14.00">llvm/Support/MemoryBuffer.h</text>
</a>
</g>
</g>
<!-- Node2&#45;&gt;Node14 -->
<g id="edge13" class="edge">
<title>Node2&#45;&gt;Node14</title>
<path fill="none" stroke="midnightblue" d="M843.1,-121.61C846.27,-121 849.43,-120.45 852.5,-120 1107.4,-82.61 1176.58,-103.47 1436.84,-84.1"/>
<polygon fill="midnightblue" stroke="midnightblue" points="1437.27,-87.58 1446.98,-83.33 1436.74,-80.6 1437.27,-87.58"/>
</g>
<!-- Node15 -->
<g id="node15" class="node">
<title>Node15</title>
<g id="a_node15"><a xlink:title=" ">
<polygon fill="white" stroke="#bfbfbf" points="1686,-60.5 1686,-83.5 1883,-83.5 1883,-60.5 1686,-60.5"/>
<text text-anchor="middle" x="1784.5" y="-68.3" font-family="Helvetica,sans-Serif" font-size="14.00">llvm/Support/SourceMgr.h</text>
</a>
</g>
</g>
<!-- Node2&#45;&gt;Node15 -->
<g id="edge14" class="edge">
<title>Node2&#45;&gt;Node15</title>
<path fill="none" stroke="midnightblue" d="M843.09,-121.55C846.26,-120.95 849.43,-120.42 852.5,-120 1212.8,-70.42 1309.72,-110.05 1675.91,-84.07"/>
<polygon fill="midnightblue" stroke="midnightblue" points="1676.26,-87.56 1685.99,-83.35 1675.76,-80.58 1676.26,-87.56"/>
</g>
<!-- Node4 -->
<g id="node4" class="node">
<title>Node4</title>
<g id="a_node4"><a xlink:title=" ">
<polygon fill="white" stroke="#bfbfbf" points="14,-0.5 14,-23.5 171,-23.5 171,-0.5 14,-0.5"/>
<text text-anchor="middle" x="92.5" y="-8.3" font-family="Helvetica,sans-Serif" font-size="14.00">llvm/IR/BasicBlock.h</text>
</a>
</g>
</g>
<!-- Node3&#45;&gt;Node4 -->
<g id="edge3" class="edge">
<title>Node3&#45;&gt;Node4</title>
<path fill="none" stroke="midnightblue" d="M92.5,-60.36C92.5,-52.92 92.5,-42.74 92.5,-33.73"/>
<polygon fill="midnightblue" stroke="midnightblue" points="96,-33.57 92.5,-23.57 89,-33.57 96,-33.57"/>
</g>
<!-- Node5&#45;&gt;Node6 -->
<g id="edge5" class="edge">
<title>Node5&#45;&gt;Node6</title>
<path fill="none" stroke="midnightblue" d="M284.01,-60.36C272.32,-51.78 255.66,-39.55 242.2,-29.66"/>
<polygon fill="midnightblue" stroke="midnightblue" points="244.03,-26.67 233.9,-23.57 239.89,-32.31 244.03,-26.67"/>
</g>
<!-- Node7 -->
<g id="node7" class="node">
<title>Node7</title>
<g id="a_node7"><a xlink:title=" ">
<polygon fill="white" stroke="#bfbfbf" points="268.5,-0.5 268.5,-23.5 328.5,-23.5 328.5,-0.5 268.5,-0.5"/>
<text text-anchor="middle" x="298.5" y="-8.3" font-family="Helvetica,sans-Serif" font-size="14.00">vector</text>
</a>
</g>
</g>
<!-- Node5&#45;&gt;Node7 -->
<g id="edge6" class="edge">
<title>Node5&#45;&gt;Node7</title>
<path fill="none" stroke="midnightblue" d="M298.5,-60.36C298.5,-52.92 298.5,-42.74 298.5,-33.73"/>
<polygon fill="midnightblue" stroke="midnightblue" points="302,-33.57 298.5,-23.57 295,-33.57 302,-33.57"/>
</g>
</g>
</svg>
