<?xml version="1.0" encoding="UTF-8" standalone="no"?>
<!DOCTYPE svg PUBLIC "-//W3C//DTD SVG 1.1//EN"
 "http://www.w3.org/Graphics/SVG/1.1/DTD/svg11.dtd">
<!-- Generated by graphviz version 2.43.0 (0)
 -->
<!-- Title: src.memory_model.preprocess_shared_trace Pages: 1 -->
<svg width="700pt" height="47pt"
 viewBox="0.00 0.00 700.00 47.00" xmlns="http://www.w3.org/2000/svg" xmlns:xlink="http://www.w3.org/1999/xlink">
<g id="graph0" class="graph" transform="scale(1 1) rotate(0) translate(4 43)">
<title>src.memory_model.preprocess_shared_trace</title>
<polygon fill="white" stroke="transparent" points="-4,4 -4,-43 696,-43 696,4 -4,4"/>
<!-- Node1 -->
<g id="node1" class="node">
<title>Node1</title>
<g id="a_node1"><a xlink:title=" ">
<polygon fill="#bfbfbf" stroke="black" points="463,-0.5 463,-38.5 692,-38.5 692,-0.5 463,-0.5"/>
<text text-anchor="start" x="471" y="-23.3" font-family="Helvetica,sans-Serif" font-size="14.00">src.memory_model.preprocess</text>
<text text-anchor="middle" x="577.5" y="-8.3" font-family="Helvetica,sans-Serif" font-size="14.00">_shared_trace</text>
</a>
</g>
</g>
<!-- Node2 -->
<g id="node2" class="node">
<title>Node2</title>
<g id="a_node2"><a xlink:href="../../de/db9/namespacesrc_1_1memory__model.html#a274a5f5a23dfb02170d3fa39cc00d000" target="_top" xlink:title=" ">
<polygon fill="white" stroke="black" points="251,-0.5 251,-38.5 427,-38.5 427,-0.5 251,-0.5"/>
<text text-anchor="start" x="259" y="-23.3" font-family="Helvetica,sans-Serif" font-size="14.00">src.memory_model.get</text>
<text text-anchor="middle" x="339" y="-8.3" font-family="Helvetica,sans-Serif" font-size="14.00">_memory_perf</text>
</a>
</g>
</g>
<!-- Node1&#45;&gt;Node2 -->
<g id="edge1" class="edge">
<title>Node1&#45;&gt;Node2</title>
<path fill="none" stroke="midnightblue" d="M452.66,-19.5C444.08,-19.5 435.53,-19.5 427.2,-19.5"/>
<polygon fill="midnightblue" stroke="midnightblue" points="452.75,-23 462.75,-19.5 452.75,-16 452.75,-23"/>
</g>
<!-- Node3 -->
<g id="node3" class="node">
<title>Node3</title>
<g id="a_node3"><a xlink:href="../../dd/d03/classsrc_1_1kernels_1_1Kernel.html#a6e36826a0e520a03aea969b4c4b420aa" target="_top" xlink:title=" ">
<polygon fill="white" stroke="black" points="0,-8 0,-31 215,-31 215,-8 0,-8"/>
<text text-anchor="middle" x="107.5" y="-15.8" font-family="Helvetica,sans-Serif" font-size="14.00">src.kernels.Kernel.kernel_call</text>
</a>
</g>
</g>
<!-- Node2&#45;&gt;Node3 -->
<g id="edge2" class="edge">
<title>Node2&#45;&gt;Node3</title>
<path fill="none" stroke="midnightblue" d="M240.7,-19.5C232.27,-19.5 223.72,-19.5 215.22,-19.5"/>
<polygon fill="midnightblue" stroke="midnightblue" points="240.91,-23 250.91,-19.5 240.91,-16 240.91,-23"/>
</g>
</g>
</svg>
