<?xml version="1.0" encoding="UTF-8" standalone="no"?>
<!DOCTYPE svg PUBLIC "-//W3C//DTD SVG 1.1//EN"
 "http://www.w3.org/Graphics/SVG/1.1/DTD/svg11.dtd">
<!-- Generated by graphviz version 2.43.0 (0)
 -->
<!-- Title: src.memory_model.interleave_trace Pages: 1 -->
<svg width="719pt" height="104pt"
 viewBox="0.00 0.00 719.00 104.00" xmlns="http://www.w3.org/2000/svg" xmlns:xlink="http://www.w3.org/1999/xlink">
<g id="graph0" class="graph" transform="scale(1 1) rotate(0) translate(4 100)">
<title>src.memory_model.interleave_trace</title>
<polygon fill="white" stroke="transparent" points="-4,4 -4,-100 715,-100 715,4 -4,4"/>
<!-- Node1 -->
<g id="node1" class="node">
<title>Node1</title>
<g id="a_node1"><a xlink:title=" ">
<polygon fill="#bfbfbf" stroke="black" points="489,-28.5 489,-66.5 711,-66.5 711,-28.5 489,-28.5"/>
<text text-anchor="start" x="497" y="-51.3" font-family="Helvetica,sans-Serif" font-size="14.00">src.memory_model.interleave</text>
<text text-anchor="middle" x="600" y="-36.3" font-family="Helvetica,sans-Serif" font-size="14.00">_trace</text>
</a>
</g>
</g>
<!-- Node2 -->
<g id="node2" class="node">
<title>Node2</title>
<g id="a_node2"><a xlink:href="../../de/db9/namespacesrc_1_1memory__model.html#a274a5f5a23dfb02170d3fa39cc00d000" target="_top" xlink:title=" ">
<polygon fill="white" stroke="black" points="264,-57.5 264,-95.5 440,-95.5 440,-57.5 264,-57.5"/>
<text text-anchor="start" x="272" y="-80.3" font-family="Helvetica,sans-Serif" font-size="14.00">src.memory_model.get</text>
<text text-anchor="middle" x="352" y="-65.3" font-family="Helvetica,sans-Serif" font-size="14.00">_memory_perf</text>
</a>
</g>
</g>
<!-- Node1&#45;&gt;Node2 -->
<g id="edge1" class="edge">
<title>Node1&#45;&gt;Node2</title>
<path fill="none" stroke="midnightblue" d="M478.94,-61.65C465.83,-63.2 452.68,-64.75 440.08,-66.23"/>
<polygon fill="midnightblue" stroke="midnightblue" points="479.43,-65.12 488.95,-60.47 478.61,-58.17 479.43,-65.12"/>
</g>
<!-- Node4 -->
<g id="node4" class="node">
<title>Node4</title>
<g id="a_node4"><a xlink:href="../../de/db9/namespacesrc_1_1memory__model.html#a3bcf43f0c56077bb688c7b61e0066a38" target="_top" xlink:title=" ">
<polygon fill="white" stroke="black" points="251,-0.5 251,-38.5 453,-38.5 453,-0.5 251,-0.5"/>
<text text-anchor="start" x="259" y="-23.3" font-family="Helvetica,sans-Serif" font-size="14.00">src.memory_model.private</text>
<text text-anchor="middle" x="352" y="-8.3" font-family="Helvetica,sans-Serif" font-size="14.00">_SM_computation</text>
</a>
</g>
</g>
<!-- Node1&#45;&gt;Node4 -->
<g id="edge3" class="edge">
<title>Node1&#45;&gt;Node4</title>
<path fill="none" stroke="midnightblue" d="M478.88,-33.83C470.29,-32.85 461.68,-31.87 453.22,-30.91"/>
<polygon fill="midnightblue" stroke="midnightblue" points="478.62,-37.32 488.95,-34.97 479.41,-30.37 478.62,-37.32"/>
</g>
<!-- Node3 -->
<g id="node3" class="node">
<title>Node3</title>
<g id="a_node3"><a xlink:href="../../dd/d03/classsrc_1_1kernels_1_1Kernel.html#a6e36826a0e520a03aea969b4c4b420aa" target="_top" xlink:title=" ">
<polygon fill="white" stroke="black" points="0,-65 0,-88 215,-88 215,-65 0,-65"/>
<text text-anchor="middle" x="107.5" y="-72.8" font-family="Helvetica,sans-Serif" font-size="14.00">src.kernels.Kernel.kernel_call</text>
</a>
</g>
</g>
<!-- Node2&#45;&gt;Node3 -->
<g id="edge2" class="edge">
<title>Node2&#45;&gt;Node3</title>
<path fill="none" stroke="midnightblue" d="M253.73,-76.5C241.06,-76.5 228.03,-76.5 215.23,-76.5"/>
<polygon fill="midnightblue" stroke="midnightblue" points="253.79,-80 263.79,-76.5 253.79,-73 253.79,-80"/>
</g>
</g>
</svg>
