<?xml version="1.0" encoding="UTF-8" standalone="no"?>
<!DOCTYPE svg PUBLIC "-//W3C//DTD SVG 1.1//EN"
 "http://www.w3.org/Graphics/SVG/1.1/DTD/svg11.dtd">
<!-- Generated by graphviz version 2.43.0 (0)
 -->
<!-- Title: src.memory_model.preprocess_private_trace Pages: 1 -->
<svg width="475pt" height="47pt"
 viewBox="0.00 0.00 475.00 47.00" xmlns="http://www.w3.org/2000/svg" xmlns:xlink="http://www.w3.org/1999/xlink">
<g id="graph0" class="graph" transform="scale(1 1) rotate(0) translate(4 43)">
<title>src.memory_model.preprocess_private_trace</title>
<polygon fill="white" stroke="transparent" points="-4,4 -4,-43 471,-43 471,4 -4,4"/>
<!-- Node1 -->
<g id="node1" class="node">
<title>Node1</title>
<g id="a_node1"><a xlink:title=" ">
<polygon fill="#bfbfbf" stroke="black" points="238,-0.5 238,-38.5 467,-38.5 467,-0.5 238,-0.5"/>
<text text-anchor="start" x="246" y="-23.3" font-family="Helvetica,sans-Serif" font-size="14.00">src.memory_model.preprocess</text>
<text text-anchor="middle" x="352.5" y="-8.3" font-family="Helvetica,sans-Serif" font-size="14.00">_private_trace</text>
</a>
</g>
</g>
<!-- Node2 -->
<g id="node2" class="node">
<title>Node2</title>
<g id="a_node2"><a xlink:href="../../de/db9/namespacesrc_1_1memory__model.html#a3bcf43f0c56077bb688c7b61e0066a38" target="_top" xlink:title=" ">
<polygon fill="white" stroke="black" points="0,-0.5 0,-38.5 202,-38.5 202,-0.5 0,-0.5"/>
<text text-anchor="start" x="8" y="-23.3" font-family="Helvetica,sans-Serif" font-size="14.00">src.memory_model.private</text>
<text text-anchor="middle" x="101" y="-8.3" font-family="Helvetica,sans-Serif" font-size="14.00">_SM_computation</text>
</a>
</g>
</g>
<!-- Node1&#45;&gt;Node2 -->
<g id="edge1" class="edge">
<title>Node1&#45;&gt;Node2</title>
<path fill="none" stroke="midnightblue" d="M227.43,-19.5C218.99,-19.5 210.55,-19.5 202.26,-19.5"/>
<polygon fill="midnightblue" stroke="midnightblue" points="227.7,-23 237.7,-19.5 227.7,-16 227.7,-23"/>
</g>
</g>
</svg>
