<?xml version="1.0" encoding="UTF-8" standalone="no"?>
<!DOCTYPE svg PUBLIC "-//W3C//DTD SVG 1.1//EN"
 "http://www.w3.org/Graphics/SVG/1.1/DTD/svg11.dtd">
<!-- Generated by graphviz version 2.43.0 (0)
 -->
<!-- Title: src.memory_model.get_memory_perf Pages: 1 -->
<svg width="682pt" height="161pt"
 viewBox="0.00 0.00 682.00 161.00" xmlns="http://www.w3.org/2000/svg" xmlns:xlink="http://www.w3.org/1999/xlink">
<g id="graph0" class="graph" transform="scale(1 1) rotate(0) translate(4 157)">
<title>src.memory_model.get_memory_perf</title>
<polygon fill="white" stroke="transparent" points="-4,4 -4,-157 678,-157 678,4 -4,4"/>
<!-- Node1 -->
<g id="node1" class="node">
<title>Node1</title>
<g id="a_node1"><a xlink:title=" ">
<polygon fill="#bfbfbf" stroke="black" points="0,-57.5 0,-95.5 176,-95.5 176,-57.5 0,-57.5"/>
<text text-anchor="start" x="8" y="-80.3" font-family="Helvetica,sans-Serif" font-size="14.00">src.memory_model.get</text>
<text text-anchor="middle" x="88" y="-65.3" font-family="Helvetica,sans-Serif" font-size="14.00">_memory_perf</text>
</a>
</g>
</g>
<!-- Node2 -->
<g id="node2" class="node">
<title>Node2</title>
<g id="a_node2"><a xlink:href="../../de/db9/namespacesrc_1_1memory__model.html#a8ab81f12956def8507e91bc6c4f63c29" target="_top" xlink:title=" ">
<polygon fill="white" stroke="black" points="238.5,-114.5 238.5,-152.5 414.5,-152.5 414.5,-114.5 238.5,-114.5"/>
<text text-anchor="start" x="246.5" y="-137.3" font-family="Helvetica,sans-Serif" font-size="14.00">src.memory_model.get</text>
<text text-anchor="middle" x="326.5" y="-122.3" font-family="Helvetica,sans-Serif" font-size="14.00">_hit_rate_analytical</text>
</a>
</g>
</g>
<!-- Node1&#45;&gt;Node2 -->
<g id="edge1" class="edge">
<title>Node1&#45;&gt;Node2</title>
<path fill="none" stroke="midnightblue" d="M168.08,-95.56C190.07,-100.86 214.1,-106.65 236.61,-112.08"/>
<polygon fill="midnightblue" stroke="midnightblue" points="235.95,-115.52 246.49,-114.46 237.59,-108.71 235.95,-115.52"/>
</g>
<!-- Node4 -->
<g id="node4" class="node">
<title>Node4</title>
<g id="a_node4"><a xlink:href="../../de/db9/namespacesrc_1_1memory__model.html#a965a7bf1cde6b370a9bf1dcda323fd51" target="_top" xlink:title=" ">
<polygon fill="white" stroke="black" points="215.5,-57.5 215.5,-95.5 437.5,-95.5 437.5,-57.5 215.5,-57.5"/>
<text text-anchor="start" x="223.5" y="-80.3" font-family="Helvetica,sans-Serif" font-size="14.00">src.memory_model.interleave</text>
<text text-anchor="middle" x="326.5" y="-65.3" font-family="Helvetica,sans-Serif" font-size="14.00">_trace</text>
</a>
</g>
</g>
<!-- Node1&#45;&gt;Node4 -->
<g id="edge3" class="edge">
<title>Node1&#45;&gt;Node4</title>
<path fill="none" stroke="midnightblue" d="M176.06,-76.5C185.54,-76.5 195.31,-76.5 205.1,-76.5"/>
<polygon fill="midnightblue" stroke="midnightblue" points="205.3,-80 215.3,-76.5 205.3,-73 205.3,-80"/>
</g>
<!-- Node5 -->
<g id="node5" class="node">
<title>Node5</title>
<g id="a_node5"><a xlink:href="../../de/db9/namespacesrc_1_1memory__model.html#ae7d28577d201057426edebbed1a7b02e" target="_top" xlink:title=" ">
<polygon fill="white" stroke="black" points="212,-0.5 212,-38.5 441,-38.5 441,-0.5 212,-0.5"/>
<text text-anchor="start" x="220" y="-23.3" font-family="Helvetica,sans-Serif" font-size="14.00">src.memory_model.preprocess</text>
<text text-anchor="middle" x="326.5" y="-8.3" font-family="Helvetica,sans-Serif" font-size="14.00">_shared_trace</text>
</a>
</g>
</g>
<!-- Node1&#45;&gt;Node5 -->
<g id="edge4" class="edge">
<title>Node1&#45;&gt;Node5</title>
<path fill="none" stroke="midnightblue" d="M168.08,-57.44C190.07,-52.14 214.1,-46.35 236.61,-40.92"/>
<polygon fill="midnightblue" stroke="midnightblue" points="237.59,-44.29 246.49,-38.54 235.95,-37.48 237.59,-44.29"/>
</g>
<!-- Node3 -->
<g id="node3" class="node">
<title>Node3</title>
<g id="a_node3"><a xlink:href="../../db/dd9/namespacesrc_1_1helper__methods.html#a3d32aea1067f90390d01df20424039dc" target="_top" xlink:title=" ">
<polygon fill="white" stroke="black" points="477,-122 477,-145 674,-145 674,-122 477,-122"/>
<text text-anchor="middle" x="575.5" y="-129.8" font-family="Helvetica,sans-Serif" font-size="14.00">src.helper_methods.qfunc</text>
</a>
</g>
</g>
<!-- Node2&#45;&gt;Node3 -->
<g id="edge2" class="edge">
<title>Node2&#45;&gt;Node3</title>
<path fill="none" stroke="midnightblue" d="M414.58,-133.5C431.42,-133.5 449.24,-133.5 466.65,-133.5"/>
<polygon fill="midnightblue" stroke="midnightblue" points="466.84,-137 476.84,-133.5 466.84,-130 466.84,-137"/>
</g>
</g>
</svg>
