<?xml version="1.0" encoding="UTF-8" standalone="no"?>
<!DOCTYPE svg PUBLIC "-//W3C//DTD SVG 1.1//EN"
 "http://www.w3.org/Graphics/SVG/1.1/DTD/svg11.dtd">
<!-- Generated by graphviz version 2.43.0 (0)
 -->
<!-- Title: src.memory_model.private_SM_computation Pages: 1 -->
<svg width="708pt" height="161pt"
 viewBox="0.00 0.00 708.00 161.00" xmlns="http://www.w3.org/2000/svg" xmlns:xlink="http://www.w3.org/1999/xlink">
<g id="graph0" class="graph" transform="scale(1 1) rotate(0) translate(4 157)">
<title>src.memory_model.private_SM_computation</title>
<polygon fill="white" stroke="transparent" points="-4,4 -4,-157 704,-157 704,4 -4,4"/>
<!-- Node1 -->
<g id="node1" class="node">
<title>Node1</title>
<g id="a_node1"><a xlink:title=" ">
<polygon fill="#bfbfbf" stroke="black" points="0,-57.5 0,-95.5 202,-95.5 202,-57.5 0,-57.5"/>
<text text-anchor="start" x="8" y="-80.3" font-family="Helvetica,sans-Serif" font-size="14.00">src.memory_model.private</text>
<text text-anchor="middle" x="101" y="-65.3" font-family="Helvetica,sans-Serif" font-size="14.00">_SM_computation</text>
</a>
</g>
</g>
<!-- Node2 -->
<g id="node2" class="node">
<title>Node2</title>
<g id="a_node2"><a xlink:href="../../de/db9/namespacesrc_1_1memory__model.html#a8ab81f12956def8507e91bc6c4f63c29" target="_top" xlink:title=" ">
<polygon fill="white" stroke="black" points="264.5,-114.5 264.5,-152.5 440.5,-152.5 440.5,-114.5 264.5,-114.5"/>
<text text-anchor="start" x="272.5" y="-137.3" font-family="Helvetica,sans-Serif" font-size="14.00">src.memory_model.get</text>
<text text-anchor="middle" x="352.5" y="-122.3" font-family="Helvetica,sans-Serif" font-size="14.00">_hit_rate_analytical</text>
</a>
</g>
</g>
<!-- Node1&#45;&gt;Node2 -->
<g id="edge1" class="edge">
<title>Node1&#45;&gt;Node2</title>
<path fill="none" stroke="midnightblue" d="M185.43,-95.56C208.83,-100.91 234.43,-106.75 258.36,-112.22"/>
<polygon fill="midnightblue" stroke="midnightblue" points="257.62,-115.64 268.15,-114.46 259.18,-108.82 257.62,-115.64"/>
</g>
<!-- Node4 -->
<g id="node4" class="node">
<title>Node4</title>
<g id="a_node4"><a xlink:href="../../de/db9/namespacesrc_1_1memory__model.html#a965a7bf1cde6b370a9bf1dcda323fd51" target="_top" xlink:title=" ">
<polygon fill="white" stroke="black" points="241.5,-57.5 241.5,-95.5 463.5,-95.5 463.5,-57.5 241.5,-57.5"/>
<text text-anchor="start" x="249.5" y="-80.3" font-family="Helvetica,sans-Serif" font-size="14.00">src.memory_model.interleave</text>
<text text-anchor="middle" x="352.5" y="-65.3" font-family="Helvetica,sans-Serif" font-size="14.00">_trace</text>
</a>
</g>
</g>
<!-- Node1&#45;&gt;Node4 -->
<g id="edge3" class="edge">
<title>Node1&#45;&gt;Node4</title>
<path fill="none" stroke="midnightblue" d="M202.04,-76.5C211.6,-76.5 221.36,-76.5 231.09,-76.5"/>
<polygon fill="midnightblue" stroke="midnightblue" points="231.2,-80 241.2,-76.5 231.2,-73 231.2,-80"/>
</g>
<!-- Node5 -->
<g id="node5" class="node">
<title>Node5</title>
<g id="a_node5"><a xlink:href="../../de/db9/namespacesrc_1_1memory__model.html#a9ad7191f3c03309d0d1aaa38c9a51af0" target="_top" xlink:title=" ">
<polygon fill="white" stroke="black" points="238,-0.5 238,-38.5 467,-38.5 467,-0.5 238,-0.5"/>
<text text-anchor="start" x="246" y="-23.3" font-family="Helvetica,sans-Serif" font-size="14.00">src.memory_model.preprocess</text>
<text text-anchor="middle" x="352.5" y="-8.3" font-family="Helvetica,sans-Serif" font-size="14.00">_private_trace</text>
</a>
</g>
</g>
<!-- Node1&#45;&gt;Node5 -->
<g id="edge4" class="edge">
<title>Node1&#45;&gt;Node5</title>
<path fill="none" stroke="midnightblue" d="M185.43,-57.44C208.83,-52.09 234.43,-46.25 258.36,-40.78"/>
<polygon fill="midnightblue" stroke="midnightblue" points="259.18,-44.18 268.15,-38.54 257.62,-37.36 259.18,-44.18"/>
</g>
<!-- Node3 -->
<g id="node3" class="node">
<title>Node3</title>
<g id="a_node3"><a xlink:href="../../db/dd9/namespacesrc_1_1helper__methods.html#a3d32aea1067f90390d01df20424039dc" target="_top" xlink:title=" ">
<polygon fill="white" stroke="black" points="503,-122 503,-145 700,-145 700,-122 503,-122"/>
<text text-anchor="middle" x="601.5" y="-129.8" font-family="Helvetica,sans-Serif" font-size="14.00">src.helper_methods.qfunc</text>
</a>
</g>
</g>
<!-- Node2&#45;&gt;Node3 -->
<g id="edge2" class="edge">
<title>Node2&#45;&gt;Node3</title>
<path fill="none" stroke="midnightblue" d="M440.58,-133.5C457.42,-133.5 475.24,-133.5 492.65,-133.5"/>
<polygon fill="midnightblue" stroke="midnightblue" points="492.84,-137 502.84,-133.5 492.84,-130 492.84,-137"/>
</g>
<!-- Node6 -->
<g id="node6" class="node">
<title>Node6</title>
<g id="a_node6"><a xlink:href="../../de/db9/namespacesrc_1_1memory__model.html#ab30eb8062695902ae76ee771d8f2f5cb" target="_top" xlink:title=" ">
<polygon fill="white" stroke="black" points="513.5,-0.5 513.5,-38.5 689.5,-38.5 689.5,-0.5 513.5,-0.5"/>
<text text-anchor="start" x="521.5" y="-23.3" font-family="Helvetica,sans-Serif" font-size="14.00">src.memory_model.get</text>
<text text-anchor="middle" x="601.5" y="-8.3" font-family="Helvetica,sans-Serif" font-size="14.00">_line_adresses</text>
</a>
</g>
</g>
<!-- Node5&#45;&gt;Node6 -->
<g id="edge5" class="edge">
<title>Node5&#45;&gt;Node6</title>
<path fill="none" stroke="midnightblue" d="M467.24,-19.5C479.19,-19.5 491.26,-19.5 503,-19.5"/>
<polygon fill="midnightblue" stroke="midnightblue" points="503.22,-23 513.22,-19.5 503.22,-16 503.22,-23"/>
</g>
</g>
</svg>
