<?xml version="1.0" encoding="UTF-8" standalone="no"?>
<!DOCTYPE svg PUBLIC "-//W3C//DTD SVG 1.1//EN"
 "http://www.w3.org/Graphics/SVG/1.1/DTD/svg11.dtd">
<!-- Generated by graphviz version 2.43.0 (0)
 -->
<!-- Title: PPT&#45;GPU/reuse_distance_tool/parda_print.c Pages: 1 -->
<svg width="851pt" height="227pt"
 viewBox="0.00 0.00 851.34 227.00" xmlns="http://www.w3.org/2000/svg" xmlns:xlink="http://www.w3.org/1999/xlink">
<g id="graph0" class="graph" transform="scale(1 1) rotate(0) translate(4 223)">
<title>PPT&#45;GPU/reuse_distance_tool/parda_print.c</title>
<polygon fill="white" stroke="transparent" points="-4,4 -4,-223 847.34,-223 847.34,4 -4,4"/>
<!-- Node1 -->
<g id="node1" class="node">
<title>Node1</title>
<g id="a_node1"><a xlink:title=" ">
<polygon fill="#bfbfbf" stroke="black" points="234.84,-180.5 234.84,-218.5 417.84,-218.5 417.84,-180.5 234.84,-180.5"/>
<text text-anchor="start" x="242.84" y="-203.3" font-family="Helvetica,sans-Serif" font-size="14.00">PPT&#45;GPU/reuse_distance</text>
<text text-anchor="middle" x="326.34" y="-188.3" font-family="Helvetica,sans-Serif" font-size="14.00">_tool/parda_print.c</text>
</a>
</g>
</g>
<!-- Node2 -->
<g id="node2" class="node">
<title>Node2</title>
<g id="a_node2"><a xlink:href="../../d0/dbf/parda_8h.html" target="_top" xlink:title=" ">
<polygon fill="white" stroke="black" points="291.34,-120.5 291.34,-143.5 361.34,-143.5 361.34,-120.5 291.34,-120.5"/>
<text text-anchor="middle" x="326.34" y="-128.3" font-family="Helvetica,sans-Serif" font-size="14.00">parda.h</text>
</a>
</g>
</g>
<!-- Node1&#45;&gt;Node2 -->
<g id="edge1" class="edge">
<title>Node1&#45;&gt;Node2</title>
<path fill="none" stroke="midnightblue" d="M326.34,-180.25C326.34,-172.04 326.34,-162.31 326.34,-153.81"/>
<polygon fill="midnightblue" stroke="midnightblue" points="329.84,-153.59 326.34,-143.59 322.84,-153.59 329.84,-153.59"/>
</g>
<!-- Node3 -->
<g id="node3" class="node">
<title>Node3</title>
<g id="a_node3"><a xlink:href="../../de/d09/narray_8h.html" target="_top" xlink:title=" ">
<polygon fill="white" stroke="black" points="136.84,-60.5 136.84,-83.5 209.84,-83.5 209.84,-60.5 136.84,-60.5"/>
<text text-anchor="middle" x="173.34" y="-68.3" font-family="Helvetica,sans-Serif" font-size="14.00">narray.h</text>
</a>
</g>
</g>
<!-- Node2&#45;&gt;Node3 -->
<g id="edge2" class="edge">
<title>Node2&#45;&gt;Node3</title>
<path fill="none" stroke="midnightblue" d="M298.64,-120.5C274.02,-111.16 237.83,-97.44 210.66,-87.15"/>
<polygon fill="midnightblue" stroke="midnightblue" points="211.69,-83.8 201.1,-83.52 209.21,-90.34 211.69,-83.8"/>
</g>
<!-- Node4 -->
<g id="node4" class="node">
<title>Node4</title>
<g id="a_node4"><a xlink:title=" ">
<polygon fill="white" stroke="#bfbfbf" points="15.34,-0.5 15.34,-23.5 79.34,-23.5 79.34,-0.5 15.34,-0.5"/>
<text text-anchor="middle" x="47.34" y="-8.3" font-family="Helvetica,sans-Serif" font-size="14.00">stdio.h</text>
</a>
</g>
</g>
<!-- Node2&#45;&gt;Node4 -->
<g id="edge20" class="edge">
<title>Node2&#45;&gt;Node4</title>
<path fill="none" stroke="midnightblue" d="M291.14,-131.35C215.63,-131.28 41.99,-126.4 5.34,-84 -8.9,-67.52 8.61,-45.56 25.17,-30.45"/>
<polygon fill="midnightblue" stroke="midnightblue" points="27.79,-32.81 33.08,-23.63 23.22,-27.51 27.79,-32.81"/>
</g>
<!-- Node5 -->
<g id="node5" class="node">
<title>Node5</title>
<g id="a_node5"><a xlink:title=" ">
<polygon fill="white" stroke="#bfbfbf" points="97.34,-0.5 97.34,-23.5 165.34,-23.5 165.34,-0.5 97.34,-0.5"/>
<text text-anchor="middle" x="131.34" y="-8.3" font-family="Helvetica,sans-Serif" font-size="14.00">stdlib.h</text>
</a>
</g>
</g>
<!-- Node2&#45;&gt;Node5 -->
<g id="edge21" class="edge">
<title>Node2&#45;&gt;Node5</title>
<path fill="none" stroke="midnightblue" d="M291.27,-127.81C239.94,-122.34 148.28,-109.22 128.34,-84 117.22,-69.92 119.7,-48.93 123.92,-33.41"/>
<polygon fill="midnightblue" stroke="midnightblue" points="127.31,-34.29 126.98,-23.7 120.64,-32.19 127.31,-34.29"/>
</g>
<!-- Node6 -->
<g id="node6" class="node">
<title>Node6</title>
<g id="a_node6"><a xlink:title=" ">
<polygon fill="white" stroke="#bfbfbf" points="183.84,-0.5 183.84,-23.5 254.84,-23.5 254.84,-0.5 183.84,-0.5"/>
<text text-anchor="middle" x="219.34" y="-8.3" font-family="Helvetica,sans-Serif" font-size="14.00">string.h</text>
</a>
</g>
</g>
<!-- Node2&#45;&gt;Node6 -->
<g id="edge22" class="edge">
<title>Node2&#45;&gt;Node6</title>
<path fill="none" stroke="midnightblue" d="M305.67,-120.45C290.83,-112.09 271.1,-99.31 257.34,-84 243.83,-68.96 233.45,-48.25 226.99,-33.08"/>
<polygon fill="midnightblue" stroke="midnightblue" points="230.14,-31.55 223.14,-23.6 223.66,-34.18 230.14,-31.55"/>
</g>
<!-- Node7 -->
<g id="node7" class="node">
<title>Node7</title>
<g id="a_node7"><a xlink:href="../../da/d28/process__args_8h.html" target="_top" xlink:title=" ">
<polygon fill="white" stroke="black" points="266.34,-60.5 266.34,-83.5 386.34,-83.5 386.34,-60.5 266.34,-60.5"/>
<text text-anchor="middle" x="326.34" y="-68.3" font-family="Helvetica,sans-Serif" font-size="14.00">process_args.h</text>
</a>
</g>
</g>
<!-- Node2&#45;&gt;Node7 -->
<g id="edge6" class="edge">
<title>Node2&#45;&gt;Node7</title>
<path fill="none" stroke="midnightblue" d="M326.34,-120.36C326.34,-112.92 326.34,-102.74 326.34,-93.73"/>
<polygon fill="midnightblue" stroke="midnightblue" points="329.84,-93.57 326.34,-83.57 322.84,-93.57 329.84,-93.57"/>
</g>
<!-- Node12 -->
<g id="node12" class="node">
<title>Node12</title>
<g id="a_node12"><a xlink:href="../../d2/db0/splay_8h.html" target="_top" xlink:title=" ">
<polygon fill="white" stroke="black" points="14.84,-60.5 14.84,-83.5 79.84,-83.5 79.84,-60.5 14.84,-60.5"/>
<text text-anchor="middle" x="47.34" y="-68.3" font-family="Helvetica,sans-Serif" font-size="14.00">splay.h</text>
</a>
</g>
</g>
<!-- Node2&#45;&gt;Node12 -->
<g id="edge14" class="edge">
<title>Node2&#45;&gt;Node12</title>
<path fill="none" stroke="midnightblue" d="M291.29,-124.24C245.81,-115.39 164,-99.2 94.34,-84 92.88,-83.68 91.4,-83.35 89.9,-83.02"/>
<polygon fill="midnightblue" stroke="midnightblue" points="90.46,-79.56 79.93,-80.76 88.91,-86.38 90.46,-79.56"/>
</g>
<!-- Node13 -->
<g id="node13" class="node">
<title>Node13</title>
<g id="a_node13"><a xlink:title=" ">
<polygon fill="white" stroke="#bfbfbf" points="404.84,-60.5 404.84,-83.5 477.84,-83.5 477.84,-60.5 404.84,-60.5"/>
<text text-anchor="middle" x="441.34" y="-68.3" font-family="Helvetica,sans-Serif" font-size="14.00">assert.h</text>
</a>
</g>
</g>
<!-- Node2&#45;&gt;Node13 -->
<g id="edge17" class="edge">
<title>Node2&#45;&gt;Node13</title>
<path fill="none" stroke="midnightblue" d="M347.17,-120.5C365.05,-111.48 391.05,-98.36 411.2,-88.2"/>
<polygon fill="midnightblue" stroke="midnightblue" points="412.93,-91.25 420.28,-83.62 409.78,-85 412.93,-91.25"/>
</g>
<!-- Node14 -->
<g id="node14" class="node">
<title>Node14</title>
<g id="a_node14"><a xlink:title=" ">
<polygon fill="white" stroke="#bfbfbf" points="496.34,-60.5 496.34,-83.5 552.34,-83.5 552.34,-60.5 496.34,-60.5"/>
<text text-anchor="middle" x="524.34" y="-68.3" font-family="Helvetica,sans-Serif" font-size="14.00">glib.h</text>
</a>
</g>
</g>
<!-- Node2&#45;&gt;Node14 -->
<g id="edge18" class="edge">
<title>Node2&#45;&gt;Node14</title>
<path fill="none" stroke="midnightblue" d="M361.53,-120.78C392.12,-111.89 437.88,-98.55 486.34,-84.29"/>
<polygon fill="midnightblue" stroke="midnightblue" points="487.46,-87.61 496.07,-81.42 485.48,-80.89 487.46,-87.61"/>
</g>
<!-- Node15 -->
<g id="node15" class="node">
<title>Node15</title>
<g id="a_node15"><a xlink:title=" ">
<polygon fill="white" stroke="#bfbfbf" points="570.84,-60.5 570.84,-83.5 643.84,-83.5 643.84,-60.5 570.84,-60.5"/>
<text text-anchor="middle" x="607.34" y="-68.3" font-family="Helvetica,sans-Serif" font-size="14.00">libgen.h</text>
</a>
</g>
</g>
<!-- Node2&#45;&gt;Node15 -->
<g id="edge19" class="edge">
<title>Node2&#45;&gt;Node15</title>
<path fill="none" stroke="midnightblue" d="M361.46,-124.4C405.59,-116.01 483.87,-100.83 560.85,-84.05"/>
<polygon fill="midnightblue" stroke="midnightblue" points="561.69,-87.45 570.71,-81.89 560.2,-80.61 561.69,-87.45"/>
</g>
<!-- Node16 -->
<g id="node16" class="node">
<title>Node16</title>
<g id="a_node16"><a xlink:title=" ">
<polygon fill="white" stroke="#bfbfbf" points="661.84,-60.5 661.84,-83.5 750.84,-83.5 750.84,-60.5 661.84,-60.5"/>
<text text-anchor="middle" x="706.34" y="-68.3" font-family="Helvetica,sans-Serif" font-size="14.00">sys/time.h</text>
</a>
</g>
</g>
<!-- Node2&#45;&gt;Node16 -->
<g id="edge23" class="edge">
<title>Node2&#45;&gt;Node16</title>
<path fill="none" stroke="midnightblue" d="M361.78,-126.64C420.15,-119.29 540.39,-103.5 651.53,-84.25"/>
<polygon fill="midnightblue" stroke="midnightblue" points="652.31,-87.67 661.56,-82.5 651.11,-80.77 652.31,-87.67"/>
</g>
<!-- Node17 -->
<g id="node17" class="node">
<title>Node17</title>
<g id="a_node17"><a xlink:title=" ">
<polygon fill="white" stroke="#bfbfbf" points="769.34,-60.5 769.34,-83.5 843.34,-83.5 843.34,-60.5 769.34,-60.5"/>
<text text-anchor="middle" x="806.34" y="-68.3" font-family="Helvetica,sans-Serif" font-size="14.00">unistd.h</text>
</a>
</g>
</g>
<!-- Node2&#45;&gt;Node17 -->
<g id="edge24" class="edge">
<title>Node2&#45;&gt;Node17</title>
<path fill="none" stroke="midnightblue" d="M361.43,-128.72C433.93,-123.67 605.64,-110.05 759.18,-84.02"/>
<polygon fill="midnightblue" stroke="midnightblue" points="760.01,-87.43 769.27,-82.29 758.82,-80.54 760.01,-87.43"/>
</g>
<!-- Node3&#45;&gt;Node4 -->
<g id="edge3" class="edge">
<title>Node3&#45;&gt;Node4</title>
<path fill="none" stroke="midnightblue" d="M150.53,-60.5C130.76,-51.4 101.93,-38.13 79.77,-27.93"/>
<polygon fill="midnightblue" stroke="midnightblue" points="80.96,-24.62 70.42,-23.62 78.04,-30.98 80.96,-24.62"/>
</g>
<!-- Node3&#45;&gt;Node5 -->
<g id="edge4" class="edge">
<title>Node3&#45;&gt;Node5</title>
<path fill="none" stroke="midnightblue" d="M165.64,-60.36C159.9,-52.43 151.9,-41.39 145.07,-31.96"/>
<polygon fill="midnightblue" stroke="midnightblue" points="147.7,-29.62 139,-23.57 142.03,-33.72 147.7,-29.62"/>
</g>
<!-- Node3&#45;&gt;Node6 -->
<g id="edge5" class="edge">
<title>Node3&#45;&gt;Node6</title>
<path fill="none" stroke="midnightblue" d="M181.78,-60.36C188.13,-52.35 197.01,-41.16 204.54,-31.67"/>
<polygon fill="midnightblue" stroke="midnightblue" points="207.49,-33.58 210.96,-23.57 202,-29.23 207.49,-33.58"/>
</g>
<!-- Node7&#45;&gt;Node4 -->
<g id="edge9" class="edge">
<title>Node7&#45;&gt;Node4</title>
<path fill="none" stroke="midnightblue" d="M266.93,-60.41C220.91,-51.95 155.35,-39.33 89.27,-24.11"/>
<polygon fill="midnightblue" stroke="midnightblue" points="90.05,-20.7 79.52,-21.85 88.47,-27.52 90.05,-20.7"/>
</g>
<!-- Node7&#45;&gt;Node5 -->
<g id="edge10" class="edge">
<title>Node7&#45;&gt;Node5</title>
<path fill="none" stroke="midnightblue" d="M291.03,-60.5C258.56,-50.84 210.31,-36.49 175.35,-26.09"/>
<polygon fill="midnightblue" stroke="midnightblue" points="176,-22.63 165.41,-23.13 174,-29.34 176,-22.63"/>
</g>
<!-- Node7&#45;&gt;Node6 -->
<g id="edge11" class="edge">
<title>Node7&#45;&gt;Node6</title>
<path fill="none" stroke="midnightblue" d="M306.72,-60.36C290.2,-51.41 266.37,-38.49 247.77,-28.41"/>
<polygon fill="midnightblue" stroke="midnightblue" points="249.3,-25.26 238.84,-23.57 245.97,-31.41 249.3,-25.26"/>
</g>
<!-- Node8 -->
<g id="node8" class="node">
<title>Node8</title>
<g id="a_node8"><a xlink:title=" ">
<polygon fill="white" stroke="#bfbfbf" points="581.84,-0.5 581.84,-23.5 642.84,-23.5 642.84,-0.5 581.84,-0.5"/>
<text text-anchor="middle" x="612.34" y="-8.3" font-family="Helvetica,sans-Serif" font-size="14.00">fcntl.h</text>
</a>
</g>
</g>
<!-- Node7&#45;&gt;Node8 -->
<g id="edge7" class="edge">
<title>Node7&#45;&gt;Node8</title>
<path fill="none" stroke="midnightblue" d="M386.53,-60.88C434.26,-52.54 502.85,-39.86 572.06,-23.93"/>
<polygon fill="midnightblue" stroke="midnightblue" points="572.88,-27.33 581.83,-21.66 571.3,-20.51 572.88,-27.33"/>
</g>
<!-- Node9 -->
<g id="node9" class="node">
<title>Node9</title>
<g id="a_node9"><a xlink:title=" ">
<polygon fill="white" stroke="#bfbfbf" points="272.84,-0.5 272.84,-23.5 347.84,-23.5 347.84,-0.5 272.84,-0.5"/>
<text text-anchor="middle" x="310.34" y="-8.3" font-family="Helvetica,sans-Serif" font-size="14.00">getopt.h</text>
</a>
</g>
</g>
<!-- Node7&#45;&gt;Node9 -->
<g id="edge8" class="edge">
<title>Node7&#45;&gt;Node9</title>
<path fill="none" stroke="midnightblue" d="M323.41,-60.36C321.33,-52.84 318.49,-42.52 315.98,-33.43"/>
<polygon fill="midnightblue" stroke="midnightblue" points="319.29,-32.28 313.26,-23.57 312.54,-34.14 319.29,-32.28"/>
</g>
<!-- Node10 -->
<g id="node10" class="node">
<title>Node10</title>
<g id="a_node10"><a xlink:title=" ">
<polygon fill="white" stroke="#bfbfbf" points="365.34,-0.5 365.34,-23.5 449.34,-23.5 449.34,-0.5 365.34,-0.5"/>
<text text-anchor="middle" x="407.34" y="-8.3" font-family="Helvetica,sans-Serif" font-size="14.00">sys/stat.h</text>
</a>
</g>
</g>
<!-- Node7&#45;&gt;Node10 -->
<g id="edge12" class="edge">
<title>Node7&#45;&gt;Node10</title>
<path fill="none" stroke="midnightblue" d="M341.2,-60.36C353.19,-51.78 370.27,-39.55 384.07,-29.66"/>
<polygon fill="midnightblue" stroke="midnightblue" points="386.49,-32.24 392.58,-23.57 382.41,-26.55 386.49,-32.24"/>
</g>
<!-- Node11 -->
<g id="node11" class="node">
<title>Node11</title>
<g id="a_node11"><a xlink:title=" ">
<polygon fill="white" stroke="#bfbfbf" points="467.34,-0.5 467.34,-23.5 563.34,-23.5 563.34,-0.5 467.34,-0.5"/>
<text text-anchor="middle" x="515.34" y="-8.3" font-family="Helvetica,sans-Serif" font-size="14.00">sys/types.h</text>
</a>
</g>
</g>
<!-- Node7&#45;&gt;Node11 -->
<g id="edge13" class="edge">
<title>Node7&#45;&gt;Node11</title>
<path fill="none" stroke="midnightblue" d="M360.57,-60.5C391.65,-50.96 437.65,-36.84 471.43,-26.48"/>
<polygon fill="midnightblue" stroke="midnightblue" points="472.52,-29.8 481.05,-23.52 470.47,-23.11 472.52,-29.8"/>
</g>
<!-- Node12&#45;&gt;Node4 -->
<g id="edge15" class="edge">
<title>Node12&#45;&gt;Node4</title>
<path fill="none" stroke="midnightblue" d="M47.34,-60.36C47.34,-52.92 47.34,-42.74 47.34,-33.73"/>
<polygon fill="midnightblue" stroke="midnightblue" points="50.84,-33.57 47.34,-23.57 43.84,-33.57 50.84,-33.57"/>
</g>
<!-- Node12&#45;&gt;Node5 -->
<g id="edge16" class="edge">
<title>Node12&#45;&gt;Node5</title>
<path fill="none" stroke="midnightblue" d="M62.75,-60.36C75.3,-51.7 93.24,-39.31 107.62,-29.38"/>
<polygon fill="midnightblue" stroke="midnightblue" points="109.79,-32.13 116.03,-23.57 105.82,-26.37 109.79,-32.13"/>
</g>
</g>
</svg>
