<?xml version="1.0" encoding="UTF-8" standalone="no"?>
<!DOCTYPE svg PUBLIC "-//W3C//DTD SVG 1.1//EN"
 "http://www.w3.org/Graphics/SVG/1.1/DTD/svg11.dtd">
<!-- Generated by graphviz version 2.43.0 (0)
 -->
<!-- Title: cuTexRefSetBorderColor_params_st Pages: 1 -->
<svg width="191pt" height="122pt"
 viewBox="0.00 0.00 191.00 122.00" xmlns="http://www.w3.org/2000/svg" xmlns:xlink="http://www.w3.org/1999/xlink">
<g id="graph0" class="graph" transform="scale(1 1) rotate(0) translate(4 118)">
<title>cuTexRefSetBorderColor_params_st</title>
<polygon fill="white" stroke="transparent" points="-4,4 -4,-118 187,-118 187,4 -4,4"/>
<!-- Node1 -->
<g id="node1" class="node">
<title>Node1</title>
<g id="a_node1"><a xlink:title=" ">
<polygon fill="#bfbfbf" stroke="black" points="0,-0.5 0,-38.5 183,-38.5 183,-0.5 0,-0.5"/>
<text text-anchor="start" x="8" y="-23.3" font-family="Helvetica,sans-Serif" font-size="14.00">cuTexRefSetBorderColor</text>
<text text-anchor="middle" x="91.5" y="-8.3" font-family="Helvetica,sans-Serif" font-size="14.00">_params_st</text>
</a>
</g>
</g>
<!-- Node2 -->
<g id="node2" class="node">
<title>Node2</title>
<g id="a_node2"><a xlink:title=" ">
<polygon fill="white" stroke="#bfbfbf" points="63,-90.5 63,-113.5 120,-113.5 120,-90.5 63,-90.5"/>
<text text-anchor="middle" x="91.5" y="-98.3" font-family="Helvetica,sans-Serif" font-size="14.00">struct</text>
</a>
</g>
</g>
<!-- Node2&#45;&gt;Node1 -->
<g id="edge1" class="edge">
<title>Node2&#45;&gt;Node1</title>
<path fill="none" stroke="#9a32cd" stroke-dasharray="5,2" d="M91.5,-80.28C91.5,-67.43 91.5,-51.07 91.5,-38.72"/>
<polygon fill="#9a32cd" stroke="#9a32cd" points="88,-80.48 91.5,-90.48 95,-80.48 88,-80.48"/>
<text text-anchor="middle" x="121" y="-60.8" font-family="Helvetica,sans-Serif" font-size="14.00"> hTexRef</text>
</g>
</g>
</svg>
