<?xml version="1.0" encoding="UTF-8" standalone="no"?>
<!DOCTYPE svg PUBLIC "-//W3C//DTD SVG 1.1//EN"
 "http://www.w3.org/Graphics/SVG/1.1/DTD/svg11.dtd">
<!-- Generated by graphviz version 2.43.0 (0)
 -->
<!-- Title: PPT&#45;GPU Pages: 1 -->
<svg width="778pt" height="76pt"
 viewBox="0.00 0.00 778.00 76.00" xmlns="http://www.w3.org/2000/svg" xmlns:xlink="http://www.w3.org/1999/xlink">
<g id="graph0" class="graph" transform="scale(1 1) rotate(0) translate(4 72)">
<title>PPT&#45;GPU</title>
<polygon fill="white" stroke="transparent" points="-4,4 -4,-72 774,-72 774,4 -4,4"/>
<g id="clust1" class="cluster">
<title>clusterdir_314b7b0ae7a94aec80f890d054939bbf</title>
<g id="a_clust1"><a xlink:href="dir_314b7b0ae7a94aec80f890d054939bbf.html" target="_top">
<polygon fill="#eeeeff" stroke="black" points="8,-8 8,-60 762,-60 762,-8 8,-8"/>
</a>
</g>
</g>
<!-- dir_314b7b0ae7a94aec80f890d054939bbf -->
<g id="node1" class="node">
<title>dir_314b7b0ae7a94aec80f890d054939bbf</title>
<text text-anchor="middle" x="717" y="-30.3" font-family="Helvetica,sans-Serif" font-size="14.00">PPT&#45;GPU</text>
</g>
<!-- dir_ce21b135df27819701bb9f3d2b3d670c -->
<g id="node2" class="node">
<title>dir_ce21b135df27819701bb9f3d2b3d670c</title>
<g id="a_node2"><a xlink:href="dir_ce21b135df27819701bb9f3d2b3d670c.html" target="_top" xlink:title="hardware">
<polygon fill="white" stroke="red" points="661.5,-52 580.5,-52 580.5,-16 661.5,-16 661.5,-52"/>
<text text-anchor="middle" x="621" y="-30.3" font-family="Helvetica,sans-Serif" font-size="14.00">hardware</text>
</a>
</g>
</g>
<!-- dir_c929907b3df392004849043603e038da -->
<g id="node3" class="node">
<title>dir_c929907b3df392004849043603e038da</title>
<g id="a_node3"><a xlink:href="dir_c929907b3df392004849043603e038da.html" target="_top" xlink:title="ISA_parser">
<polygon fill="white" stroke="black" points="562,-52 470,-52 470,-16 562,-16 562,-52"/>
<text text-anchor="middle" x="516" y="-30.3" font-family="Helvetica,sans-Serif" font-size="14.00">ISA_parser</text>
</a>
</g>
</g>
<!-- dir_7d6a815a392553a1821bb22282fb703f -->
<g id="node4" class="node">
<title>dir_7d6a815a392553a1821bb22282fb703f</title>
<g id="a_node4"><a xlink:href="dir_7d6a815a392553a1821bb22282fb703f.html" target="_top" xlink:title="llvm_tool">
<polygon fill="white" stroke="red" points="452,-52 374,-52 374,-16 452,-16 452,-52"/>
<text text-anchor="middle" x="413" y="-30.3" font-family="Helvetica,sans-Serif" font-size="14.00">llvm_tool</text>
</a>
</g>
</g>
<!-- dir_50af1df319d10f5c51eee9bbede28432 -->
<g id="node5" class="node">
<title>dir_50af1df319d10f5c51eee9bbede28432</title>
<g id="a_node5"><a xlink:href="dir_50af1df319d10f5c51eee9bbede28432.html" target="_top" xlink:title="reuse_distance_tool">
<polygon fill="white" stroke="black" points="356,-52 204,-52 204,-16 356,-16 356,-52"/>
<text text-anchor="middle" x="280" y="-30.3" font-family="Helvetica,sans-Serif" font-size="14.00">reuse_distance_tool</text>
</a>
</g>
</g>
<!-- dir_8c8e81d5c76b5adcb9dd7b0fe05abe2b -->
<g id="node6" class="node">
<title>dir_8c8e81d5c76b5adcb9dd7b0fe05abe2b</title>
<g id="a_node6"><a xlink:href="dir_8c8e81d5c76b5adcb9dd7b0fe05abe2b.html" target="_top" xlink:title="src">
<polygon fill="white" stroke="black" points="186,-52 132,-52 132,-16 186,-16 186,-52"/>
<text text-anchor="middle" x="159" y="-30.3" font-family="Helvetica,sans-Serif" font-size="14.00">src</text>
</a>
</g>
</g>
<!-- dir_58cfb55cbfaff9e91601a961016c9903 -->
<g id="node7" class="node">
<title>dir_58cfb55cbfaff9e91601a961016c9903</title>
<g id="a_node7"><a xlink:href="dir_58cfb55cbfaff9e91601a961016c9903.html" target="_top" xlink:title="tracing_tool">
<polygon fill="white" stroke="red" points="114,-52 16,-52 16,-16 114,-16 114,-52"/>
<text text-anchor="middle" x="65" y="-30.3" font-family="Helvetica,sans-Serif" font-size="14.00">tracing_tool</text>
</a>
</g>
</g>
</g>
</svg>
