<?xml version="1.0" encoding="UTF-8" standalone="no"?>
<!DOCTYPE svg PUBLIC "-//W3C//DTD SVG 1.1//EN"
 "http://www.w3.org/Graphics/SVG/1.1/DTD/svg11.dtd">
<!-- Generated by graphviz version 2.43.0 (0)
 -->
<!-- Title: PPT&#45;GPU/llvm_tool/mekong&#45;utils/src Pages: 1 -->
<svg width="131pt" height="155pt"
 viewBox="0.00 0.00 131.00 155.00" xmlns="http://www.w3.org/2000/svg" xmlns:xlink="http://www.w3.org/1999/xlink">
<g id="graph0" class="graph" transform="scale(1 1) rotate(0) translate(4 151)">
<title>PPT&#45;GPU/llvm_tool/mekong&#45;utils/src</title>
<polygon fill="white" stroke="transparent" points="-4,4 -4,-151 127,-151 127,4 -4,4"/>
<g id="clust1" class="cluster">
<title>clusterdir_fa20cea49a7d62b8b59bb21548ea1dd9</title>
<g id="a_clust1"><a xlink:href="dir_fa20cea49a7d62b8b59bb21548ea1dd9.html" target="_top" xlink:title="mekong&#45;utils">
<polygon fill="#ddddee" stroke="black" points="8,-64 8,-139 115,-139 115,-64 8,-64"/>
<text text-anchor="middle" x="61.5" y="-123.8" font-family="Helvetica,sans-Serif" font-size="14.00">mekong&#45;utils</text>
</a>
</g>
</g>
<!-- dir_13687f0d68aa6f57e2b7521f837f07eb -->
<g id="node1" class="node">
<title>dir_13687f0d68aa6f57e2b7521f837f07eb</title>
<g id="a_node1"><a xlink:href="dir_13687f0d68aa6f57e2b7521f837f07eb.html" target="_top" xlink:title="src">
<polygon fill="#eeeeff" stroke="black" points="88,-108 34,-108 34,-72 88,-72 88,-108"/>
<text text-anchor="middle" x="61" y="-86.3" font-family="Helvetica,sans-Serif" font-size="14.00">src</text>
</a>
</g>
</g>
<!-- dir_7e7b32e584863a147d29b9e8d5d641ea -->
<g id="node2" class="node">
<title>dir_7e7b32e584863a147d29b9e8d5d641ea</title>
<g id="a_node2"><a xlink:href="dir_7e7b32e584863a147d29b9e8d5d641ea.html" target="_top" xlink:title="inc">
<polygon fill="none" stroke="black" points="88,-36 34,-36 34,0 88,0 88,-36"/>
<text text-anchor="middle" x="61" y="-14.3" font-family="Helvetica,sans-Serif" font-size="14.00">inc</text>
</a>
</g>
</g>
<!-- dir_13687f0d68aa6f57e2b7521f837f07eb&#45;&gt;dir_7e7b32e584863a147d29b9e8d5d641ea -->
<g id="edge1" class="edge">
<title>dir_13687f0d68aa6f57e2b7521f837f07eb&#45;&gt;dir_7e7b32e584863a147d29b9e8d5d641ea</title>
<path fill="none" stroke="black" d="M61,-71.7C61,-63.98 61,-54.71 61,-46.11"/>
<polygon fill="black" stroke="black" points="64.5,-46.1 61,-36.1 57.5,-46.1 64.5,-46.1"/>
<g id="a_edge1&#45;headlabel"><a xlink:href="dir_000011_000010.html" target="_top" xlink:title="5">
<text text-anchor="middle" x="67.34" y="-46" font-family="Helvetica,sans-Serif" font-size="14.00">5</text>
</a>
</g>
</g>
</g>
</svg>
