<?xml version="1.0" encoding="UTF-8" standalone="no"?>
<!DOCTYPE svg PUBLIC "-//W3C//DTD SVG 1.1//EN"
 "http://www.w3.org/Graphics/SVG/1.1/DTD/svg11.dtd">
<!-- Generated by graphviz version 2.43.0 (0)
 -->
<!-- Title: PPT&#45;GPU/llvm_tool/lib Pages: 1 -->
<svg width="188pt" height="155pt"
 viewBox="0.00 0.00 187.50 155.00" xmlns="http://www.w3.org/2000/svg" xmlns:xlink="http://www.w3.org/1999/xlink">
<g id="graph0" class="graph" transform="scale(1 1) rotate(0) translate(4 151)">
<title>PPT&#45;GPU/llvm_tool/lib</title>
<polygon fill="white" stroke="transparent" points="-4,4 -4,-151 183.5,-151 183.5,4 -4,4"/>
<g id="clust1" class="cluster">
<title>clusterdir_7d6a815a392553a1821bb22282fb703f</title>
<g id="a_clust1"><a xlink:href="dir_7d6a815a392553a1821bb22282fb703f.html" target="_top" xlink:title="llvm_tool">
<polygon fill="#ddddee" stroke="black" points="63.5,-64 63.5,-139 141.5,-139 141.5,-64 63.5,-64"/>
<text text-anchor="middle" x="102.5" y="-123.8" font-family="Helvetica,sans-Serif" font-size="14.00">llvm_tool</text>
</a>
</g>
</g>
<!-- dir_f9d65d30b8233027dfbe0b8aeff5b0c8 -->
<g id="node1" class="node">
<title>dir_f9d65d30b8233027dfbe0b8aeff5b0c8</title>
<g id="a_node1"><a xlink:href="dir_f9d65d30b8233027dfbe0b8aeff5b0c8.html" target="_top" xlink:title="lib">
<polygon fill="#eeeeff" stroke="black" points="129.5,-108 75.5,-108 75.5,-72 129.5,-72 129.5,-108"/>
<text text-anchor="middle" x="102.5" y="-86.3" font-family="Helvetica,sans-Serif" font-size="14.00">lib</text>
</a>
</g>
</g>
<!-- dir_fa20cea49a7d62b8b59bb21548ea1dd9 -->
<g id="node2" class="node">
<title>dir_fa20cea49a7d62b8b59bb21548ea1dd9</title>
<g id="a_node2"><a xlink:href="dir_fa20cea49a7d62b8b59bb21548ea1dd9.html" target="_top" xlink:title="mekong&#45;utils">
<polygon fill="white" stroke="red" points="107,-36 0,-36 0,0 107,0 107,-36"/>
<text text-anchor="middle" x="53.5" y="-14.3" font-family="Helvetica,sans-Serif" font-size="14.00">mekong&#45;utils</text>
</a>
</g>
</g>
<!-- dir_f9d65d30b8233027dfbe0b8aeff5b0c8&#45;&gt;dir_fa20cea49a7d62b8b59bb21548ea1dd9 -->
<g id="edge1" class="edge">
<title>dir_f9d65d30b8233027dfbe0b8aeff5b0c8&#45;&gt;dir_fa20cea49a7d62b8b59bb21548ea1dd9</title>
<path fill="none" stroke="black" d="M90.39,-71.7C84.63,-63.47 77.64,-53.48 71.29,-44.42"/>
<polygon fill="black" stroke="black" points="74.08,-42.29 65.47,-36.1 68.34,-46.3 74.08,-42.29"/>
<g id="a_edge1&#45;headlabel"><a xlink:href="dir_000008_000009.html" target="_top" xlink:title="3">
<text text-anchor="middle" x="78.46" y="-39.91" font-family="Helvetica,sans-Serif" font-size="14.00">3</text>
</a>
</g>
</g>
<!-- dir_5ce0b0ca26119a994822e09dff4f474e -->
<g id="node3" class="node">
<title>dir_5ce0b0ca26119a994822e09dff4f474e</title>
<g id="a_node3"><a xlink:href="dir_5ce0b0ca26119a994822e09dff4f474e.html" target="_top" xlink:title="inc">
<polygon fill="none" stroke="black" points="179.5,-36 125.5,-36 125.5,0 179.5,0 179.5,-36"/>
<text text-anchor="middle" x="152.5" y="-14.3" font-family="Helvetica,sans-Serif" font-size="14.00">inc</text>
</a>
</g>
</g>
<!-- dir_f9d65d30b8233027dfbe0b8aeff5b0c8&#45;&gt;dir_5ce0b0ca26119a994822e09dff4f474e -->
<g id="edge2" class="edge">
<title>dir_f9d65d30b8233027dfbe0b8aeff5b0c8&#45;&gt;dir_5ce0b0ca26119a994822e09dff4f474e</title>
<path fill="none" stroke="black" d="M114.86,-71.7C120.73,-63.47 127.87,-53.48 134.34,-44.42"/>
<polygon fill="black" stroke="black" points="137.32,-46.28 140.28,-36.1 131.62,-42.21 137.32,-46.28"/>
<g id="a_edge2&#45;headlabel"><a xlink:href="dir_000008_000007.html" target="_top" xlink:title="5">
<text text-anchor="middle" x="137.54" y="-47.15" font-family="Helvetica,sans-Serif" font-size="14.00">5</text>
</a>
</g>
</g>
</g>
</svg>
