<?xml version="1.0" encoding="UTF-8" standalone="no"?>
<!DOCTYPE svg PUBLIC "-//W3C//DTD SVG 1.1//EN"
 "http://www.w3.org/Graphics/SVG/1.1/DTD/svg11.dtd">
<!-- Generated by graphviz version 2.43.0 (0)
 -->
<!-- Title: PPT&#45;GPU/llvm_tool Pages: 1 -->
<svg width="278pt" height="187pt"
 viewBox="0.00 0.00 278.00 187.00" xmlns="http://www.w3.org/2000/svg" xmlns:xlink="http://www.w3.org/1999/xlink">
<g id="graph0" class="graph" transform="scale(1 1) rotate(0) translate(4 183)">
<title>PPT&#45;GPU/llvm_tool</title>
<polygon fill="white" stroke="transparent" points="-4,4 -4,-183 274,-183 274,4 -4,4"/>
<g id="clust1" class="cluster">
<title>clusterdir_314b7b0ae7a94aec80f890d054939bbf</title>
<g id="a_clust1"><a xlink:href="dir_314b7b0ae7a94aec80f890d054939bbf.html" target="_top" xlink:title="PPT&#45;GPU">
<polygon fill="#ddddee" stroke="black" points="8,-8 8,-171 262,-171 262,-8 8,-8"/>
<text text-anchor="middle" x="135" y="-155.8" font-family="Helvetica,sans-Serif" font-size="14.00">PPT&#45;GPU</text>
</a>
</g>
</g>
<g id="clust2" class="cluster">
<title>clusterdir_7d6a815a392553a1821bb22282fb703f</title>
<g id="a_clust2"><a xlink:href="dir_7d6a815a392553a1821bb22282fb703f.html" target="_top">
<polygon fill="#eeeeff" stroke="black" points="16,-16 16,-140 254,-140 254,-16 16,-16"/>
</a>
</g>
</g>
<!-- dir_7d6a815a392553a1821bb22282fb703f -->
<g id="node1" class="node">
<title>dir_7d6a815a392553a1821bb22282fb703f</title>
<text text-anchor="middle" x="207" y="-110.3" font-family="Helvetica,sans-Serif" font-size="14.00">llvm_tool</text>
</g>
<!-- dir_5ce0b0ca26119a994822e09dff4f474e -->
<g id="node2" class="node">
<title>dir_5ce0b0ca26119a994822e09dff4f474e</title>
<g id="a_node2"><a xlink:href="dir_5ce0b0ca26119a994822e09dff4f474e.html" target="_top" xlink:title="inc">
<polygon fill="white" stroke="black" points="99,-60 45,-60 45,-24 99,-24 99,-60"/>
<text text-anchor="middle" x="72" y="-38.3" font-family="Helvetica,sans-Serif" font-size="14.00">inc</text>
</a>
</g>
</g>
<!-- dir_f9d65d30b8233027dfbe0b8aeff5b0c8 -->
<g id="node3" class="node">
<title>dir_f9d65d30b8233027dfbe0b8aeff5b0c8</title>
<g id="a_node3"><a xlink:href="dir_f9d65d30b8233027dfbe0b8aeff5b0c8.html" target="_top" xlink:title="lib">
<polygon fill="white" stroke="black" points="150,-132 96,-132 96,-96 150,-96 150,-132"/>
<text text-anchor="middle" x="123" y="-110.3" font-family="Helvetica,sans-Serif" font-size="14.00">lib</text>
</a>
</g>
</g>
<!-- dir_f9d65d30b8233027dfbe0b8aeff5b0c8&#45;&gt;dir_5ce0b0ca26119a994822e09dff4f474e -->
<g id="edge2" class="edge">
<title>dir_f9d65d30b8233027dfbe0b8aeff5b0c8&#45;&gt;dir_5ce0b0ca26119a994822e09dff4f474e</title>
<path fill="none" stroke="black" d="M110.39,-95.7C104.4,-87.47 97.12,-77.48 90.52,-68.42"/>
<polygon fill="black" stroke="black" points="93.18,-66.13 84.46,-60.1 87.52,-70.25 93.18,-66.13"/>
<g id="a_edge2&#45;headlabel"><a xlink:href="dir_000008_000007.html" target="_top" xlink:title="5">
<text text-anchor="middle" x="97.59" y="-63.66" font-family="Helvetica,sans-Serif" font-size="14.00">5</text>
</a>
</g>
</g>
<!-- dir_fa20cea49a7d62b8b59bb21548ea1dd9 -->
<g id="node4" class="node">
<title>dir_fa20cea49a7d62b8b59bb21548ea1dd9</title>
<g id="a_node4"><a xlink:href="dir_fa20cea49a7d62b8b59bb21548ea1dd9.html" target="_top" xlink:title="mekong&#45;utils">
<polygon fill="white" stroke="red" points="224.5,-60 117.5,-60 117.5,-24 224.5,-24 224.5,-60"/>
<text text-anchor="middle" x="171" y="-38.3" font-family="Helvetica,sans-Serif" font-size="14.00">mekong&#45;utils</text>
</a>
</g>
</g>
<!-- dir_f9d65d30b8233027dfbe0b8aeff5b0c8&#45;&gt;dir_fa20cea49a7d62b8b59bb21548ea1dd9 -->
<g id="edge1" class="edge">
<title>dir_f9d65d30b8233027dfbe0b8aeff5b0c8&#45;&gt;dir_fa20cea49a7d62b8b59bb21548ea1dd9</title>
<path fill="none" stroke="black" d="M134.87,-95.7C140.5,-87.47 147.35,-77.48 153.57,-68.42"/>
<polygon fill="black" stroke="black" points="156.5,-70.33 159.27,-60.1 150.73,-66.37 156.5,-70.33"/>
<g id="a_edge1&#45;headlabel"><a xlink:href="dir_000008_000009.html" target="_top" xlink:title="3">
<text text-anchor="middle" x="156.81" y="-71.2" font-family="Helvetica,sans-Serif" font-size="14.00">3</text>
</a>
</g>
</g>
<!-- dir_bdad3be92be8ceb0c554640e49206d26 -->
<g id="node5" class="node">
<title>dir_bdad3be92be8ceb0c554640e49206d26</title>
<g id="a_node5"><a xlink:href="dir_bdad3be92be8ceb0c554640e49206d26.html" target="_top" xlink:title="utils">
<polygon fill="white" stroke="black" points="78,-132 24,-132 24,-96 78,-96 78,-132"/>
<text text-anchor="middle" x="51" y="-110.3" font-family="Helvetica,sans-Serif" font-size="14.00">utils</text>
</a>
</g>
</g>
</g>
</svg>
