<?xml version="1.0" encoding="UTF-8" standalone="no"?>
<!DOCTYPE svg PUBLIC "-//W3C//DTD SVG 1.1//EN"
 "http://www.w3.org/Graphics/SVG/1.1/DTD/svg11.dtd">
<!-- Generated by graphviz version 2.43.0 (0)
 -->
<!-- Title: PPT&#45;GPU/llvm_tool/mekong&#45;utils Pages: 1 -->
<svg width="235pt" height="187pt"
 viewBox="0.00 0.00 235.00 187.00" xmlns="http://www.w3.org/2000/svg" xmlns:xlink="http://www.w3.org/1999/xlink">
<g id="graph0" class="graph" transform="scale(1 1) rotate(0) translate(4 183)">
<title>PPT&#45;GPU/llvm_tool/mekong&#45;utils</title>
<polygon fill="white" stroke="transparent" points="-4,4 -4,-183 231,-183 231,4 -4,4"/>
<g id="clust1" class="cluster">
<title>clusterdir_7d6a815a392553a1821bb22282fb703f</title>
<g id="a_clust1"><a xlink:href="dir_7d6a815a392553a1821bb22282fb703f.html" target="_top" xlink:title="llvm_tool">
<polygon fill="#ddddee" stroke="black" points="8,-8 8,-171 219,-171 219,-8 8,-8"/>
<text text-anchor="middle" x="113.5" y="-155.8" font-family="Helvetica,sans-Serif" font-size="14.00">llvm_tool</text>
</a>
</g>
</g>
<g id="clust2" class="cluster">
<title>clusterdir_fa20cea49a7d62b8b59bb21548ea1dd9</title>
<g id="a_clust2"><a xlink:href="dir_fa20cea49a7d62b8b59bb21548ea1dd9.html" target="_top">
<polygon fill="#eeeeff" stroke="black" points="16,-16 16,-140 211,-140 211,-16 16,-16"/>
</a>
</g>
</g>
<!-- dir_fa20cea49a7d62b8b59bb21548ea1dd9 -->
<g id="node1" class="node">
<title>dir_fa20cea49a7d62b8b59bb21548ea1dd9</title>
<text text-anchor="middle" x="150" y="-110.3" font-family="Helvetica,sans-Serif" font-size="14.00">mekong&#45;utils</text>
</g>
<!-- dir_7e7b32e584863a147d29b9e8d5d641ea -->
<g id="node2" class="node">
<title>dir_7e7b32e584863a147d29b9e8d5d641ea</title>
<g id="a_node2"><a xlink:href="dir_7e7b32e584863a147d29b9e8d5d641ea.html" target="_top" xlink:title="inc">
<polygon fill="white" stroke="black" points="78,-60 24,-60 24,-24 78,-24 78,-60"/>
<text text-anchor="middle" x="51" y="-38.3" font-family="Helvetica,sans-Serif" font-size="14.00">inc</text>
</a>
</g>
</g>
<!-- dir_13687f0d68aa6f57e2b7521f837f07eb -->
<g id="node3" class="node">
<title>dir_13687f0d68aa6f57e2b7521f837f07eb</title>
<g id="a_node3"><a xlink:href="dir_13687f0d68aa6f57e2b7521f837f07eb.html" target="_top" xlink:title="src">
<polygon fill="white" stroke="black" points="78,-132 24,-132 24,-96 78,-96 78,-132"/>
<text text-anchor="middle" x="51" y="-110.3" font-family="Helvetica,sans-Serif" font-size="14.00">src</text>
</a>
</g>
</g>
<!-- dir_13687f0d68aa6f57e2b7521f837f07eb&#45;&gt;dir_7e7b32e584863a147d29b9e8d5d641ea -->
<g id="edge1" class="edge">
<title>dir_13687f0d68aa6f57e2b7521f837f07eb&#45;&gt;dir_7e7b32e584863a147d29b9e8d5d641ea</title>
<path fill="none" stroke="black" d="M51,-95.7C51,-87.98 51,-78.71 51,-70.11"/>
<polygon fill="black" stroke="black" points="54.5,-70.1 51,-60.1 47.5,-70.1 54.5,-70.1"/>
<g id="a_edge1&#45;headlabel"><a xlink:href="dir_000011_000010.html" target="_top" xlink:title="5">
<text text-anchor="middle" x="57.34" y="-70" font-family="Helvetica,sans-Serif" font-size="14.00">5</text>
</a>
</g>
</g>
</g>
</svg>
