<?xml version="1.0" encoding="UTF-8" standalone="no"?>
<!DOCTYPE svg PUBLIC "-//W3C//DTD SVG 1.1//EN"
 "http://www.w3.org/Graphics/SVG/1.1/DTD/svg11.dtd">
<!-- Generated by graphviz version 2.43.0 (0)
 -->
<!-- Title: Graphical Class Hierarchy Pages: 1 -->
<svg width="501pt" height="494pt"
 viewBox="0.00 0.00 501.00 494.00" xmlns="http://www.w3.org/2000/svg" xmlns:xlink="http://www.w3.org/1999/xlink">
<g id="graph0" class="graph" transform="scale(1 1) rotate(0) translate(4 490)">
<title>Graphical Class Hierarchy</title>
<polygon fill="white" stroke="transparent" points="-4,4 -4,-490 497,-490 497,4 -4,4"/>
<!-- Node15 -->
<g id="node1" class="node">
<title>Node15</title>
<g id="a_node1"><a xlink:title=" ">
<polygon fill="white" stroke="#bfbfbf" points="0,-231.5 0,-254.5 59,-254.5 59,-231.5 0,-231.5"/>
<text text-anchor="middle" x="29.5" y="-239.3" font-family="Helvetica,sans-Serif" font-size="14.00">object</text>
</a>
</g>
</g>
<!-- Node0 -->
<g id="node2" class="node">
<title>Node0</title>
<g id="a_node2"><a xlink:href="d7/d25/classppt_1_1GPUNode.html" target="_top" xlink:title=" ">
<polygon fill="white" stroke="black" points="152,-462.5 152,-485.5 262,-485.5 262,-462.5 152,-462.5"/>
<text text-anchor="middle" x="207" y="-470.3" font-family="Helvetica,sans-Serif" font-size="14.00">ppt.GPUNode</text>
</a>
</g>
</g>
<!-- Node15&#45;&gt;Node0 -->
<g id="edge1" class="edge">
<title>Node15&#45;&gt;Node0</title>
<path fill="none" stroke="midnightblue" d="M30.31,-264.9C31.2,-307.91 39.69,-403.51 95,-453 110.35,-466.73 131.78,-472.73 151.72,-475.03"/>
<polygon fill="midnightblue" stroke="midnightblue" points="33.8,-264.67 30.22,-254.7 26.8,-264.73 33.8,-264.67"/>
</g>
<!-- Node17 -->
<g id="node3" class="node">
<title>Node17</title>
<g id="a_node3"><a xlink:href="df/d82/classsimian_1_1Entity.html" target="_top" xlink:title=" ">
<polygon fill="white" stroke="black" points="153.5,-420.5 153.5,-443.5 260.5,-443.5 260.5,-420.5 153.5,-420.5"/>
<text text-anchor="middle" x="207" y="-428.3" font-family="Helvetica,sans-Serif" font-size="14.00">simian.Entity</text>
</a>
</g>
</g>
<!-- Node15&#45;&gt;Node17 -->
<g id="edge2" class="edge">
<title>Node15&#45;&gt;Node17</title>
<path fill="none" stroke="midnightblue" d="M32.22,-264.53C36.32,-300.72 50.01,-373.44 95,-411 111.11,-424.45 133.14,-430.32 153.34,-432.61"/>
<polygon fill="midnightblue" stroke="midnightblue" points="35.7,-264.16 31.23,-254.55 28.73,-264.85 35.7,-264.16"/>
</g>
<!-- Node19 -->
<g id="node5" class="node">
<title>Node19</title>
<g id="a_node5"><a xlink:href="d4/d28/classsimian_1_1MPI.html" target="_top" xlink:title=" ">
<polygon fill="white" stroke="black" points="161,-378.5 161,-401.5 253,-401.5 253,-378.5 161,-378.5"/>
<text text-anchor="middle" x="207" y="-386.3" font-family="Helvetica,sans-Serif" font-size="14.00">simian.MPI</text>
</a>
</g>
</g>
<!-- Node15&#45;&gt;Node19 -->
<g id="edge4" class="edge">
<title>Node15&#45;&gt;Node19</title>
<path fill="none" stroke="midnightblue" d="M35.26,-264.41C42.78,-292.99 60.28,-343.02 95,-369 113.77,-383.04 139.2,-388.55 160.99,-390.43"/>
<polygon fill="midnightblue" stroke="midnightblue" points="38.63,-263.48 32.85,-254.6 31.83,-265.15 38.63,-263.48"/>
</g>
<!-- Node20 -->
<g id="node6" class="node">
<title>Node20</title>
<g id="a_node6"><a xlink:href="d0/d93/classsimian_1_1Process.html" target="_top" xlink:title=" ">
<polygon fill="white" stroke="black" points="147.5,-336.5 147.5,-359.5 266.5,-359.5 266.5,-336.5 147.5,-336.5"/>
<text text-anchor="middle" x="207" y="-344.3" font-family="Helvetica,sans-Serif" font-size="14.00">simian.Process</text>
</a>
</g>
</g>
<!-- Node15&#45;&gt;Node20 -->
<g id="edge5" class="edge">
<title>Node15&#45;&gt;Node20</title>
<path fill="none" stroke="midnightblue" d="M40.69,-263.72C51.42,-283.25 70.21,-311.75 95,-327 110.62,-336.61 129.64,-342 147.49,-344.97"/>
<polygon fill="midnightblue" stroke="midnightblue" points="43.69,-261.91 35.95,-254.69 37.5,-265.17 43.69,-261.91"/>
</g>
<!-- Node21 -->
<g id="node7" class="node">
<title>Node21</title>
<g id="a_node7"><a xlink:href="df/d7a/classsimian_1_1Simian.html" target="_top" xlink:title=" ">
<polygon fill="white" stroke="black" points="150,-294.5 150,-317.5 264,-317.5 264,-294.5 150,-294.5"/>
<text text-anchor="middle" x="207" y="-302.3" font-family="Helvetica,sans-Serif" font-size="14.00">simian.Simian</text>
</a>
</g>
</g>
<!-- Node15&#45;&gt;Node21 -->
<g id="edge6" class="edge">
<title>Node15&#45;&gt;Node21</title>
<path fill="none" stroke="midnightblue" d="M52.73,-260.58C64.64,-269.18 79.93,-278.95 95,-285 112.2,-291.91 131.82,-296.58 149.74,-299.72"/>
<polygon fill="midnightblue" stroke="midnightblue" points="54.81,-257.77 44.7,-254.6 50.63,-263.39 54.81,-257.77"/>
</g>
<!-- Node22 -->
<g id="node8" class="node">
<title>Node22</title>
<g id="a_node8"><a xlink:href="d3/d80/classsimian_1_1umsgPack.html" target="_top" xlink:title="Module Initialization.">
<polygon fill="white" stroke="black" points="138.5,-252.5 138.5,-275.5 275.5,-275.5 275.5,-252.5 138.5,-252.5"/>
<text text-anchor="middle" x="207" y="-260.3" font-family="Helvetica,sans-Serif" font-size="14.00">simian.umsgPack</text>
</a>
</g>
</g>
<!-- Node15&#45;&gt;Node22 -->
<g id="edge7" class="edge">
<title>Node15&#45;&gt;Node22</title>
<path fill="none" stroke="midnightblue" d="M69.19,-247.63C89.49,-250.06 114.94,-253.1 138.38,-255.91"/>
<polygon fill="midnightblue" stroke="midnightblue" points="69.43,-244.13 59.09,-246.42 68.6,-251.08 69.43,-244.13"/>
</g>
<!-- Node23 -->
<g id="node9" class="node">
<title>Node23</title>
<g id="a_node9"><a xlink:href="d7/d51/classsrc_1_1accelerators_1_1Accelerator.html" target="_top" xlink:title="&amp;copy 2017.">
<polygon fill="white" stroke="black" points="102.5,-210.5 102.5,-233.5 311.5,-233.5 311.5,-210.5 102.5,-210.5"/>
<text text-anchor="middle" x="207" y="-218.3" font-family="Helvetica,sans-Serif" font-size="14.00">src.accelerators.Accelerator</text>
</a>
</g>
</g>
<!-- Node15&#45;&gt;Node23 -->
<g id="edge8" class="edge">
<title>Node15&#45;&gt;Node23</title>
<path fill="none" stroke="midnightblue" d="M69.28,-238.36C81.47,-236.9 95.51,-235.22 109.85,-233.5"/>
<polygon fill="midnightblue" stroke="midnightblue" points="68.6,-234.92 59.09,-239.58 69.43,-241.87 68.6,-234.92"/>
</g>
<!-- Node24 -->
<g id="node10" class="node">
<title>Node24</title>
<g id="a_node10"><a xlink:href="d5/d64/classsrc_1_1blocks_1_1Block.html" target="_top" xlink:title=" ">
<polygon fill="white" stroke="black" points="143,-168.5 143,-191.5 271,-191.5 271,-168.5 143,-168.5"/>
<text text-anchor="middle" x="207" y="-176.3" font-family="Helvetica,sans-Serif" font-size="14.00">src.blocks.Block</text>
</a>
</g>
</g>
<!-- Node15&#45;&gt;Node24 -->
<g id="edge9" class="edge">
<title>Node15&#45;&gt;Node24</title>
<path fill="none" stroke="midnightblue" d="M52.73,-225.42C64.64,-216.82 79.93,-207.05 95,-201 110.01,-194.97 126.88,-190.64 142.84,-187.55"/>
<polygon fill="midnightblue" stroke="midnightblue" points="50.63,-222.61 44.7,-231.4 54.81,-228.23 50.63,-222.61"/>
</g>
<!-- Node25 -->
<g id="node11" class="node">
<title>Node25</title>
<g id="a_node11"><a xlink:href="da/d8b/classsrc_1_1helper__methods_1_1Stack.html" target="_top" xlink:title=" ">
<polygon fill="white" stroke="black" points="109,-126.5 109,-149.5 305,-149.5 305,-126.5 109,-126.5"/>
<text text-anchor="middle" x="207" y="-134.3" font-family="Helvetica,sans-Serif" font-size="14.00">src.helper_methods.Stack</text>
</a>
</g>
</g>
<!-- Node15&#45;&gt;Node25 -->
<g id="edge10" class="edge">
<title>Node15&#45;&gt;Node25</title>
<path fill="none" stroke="midnightblue" d="M40.69,-222.28C51.42,-202.75 70.21,-174.25 95,-159 101.1,-155.25 107.71,-152.14 114.57,-149.57"/>
<polygon fill="midnightblue" stroke="midnightblue" points="37.5,-220.83 35.95,-231.31 43.69,-224.09 37.5,-220.83"/>
</g>
<!-- Node26 -->
<g id="node12" class="node">
<title>Node26</title>
<g id="a_node12"><a xlink:href="d8/d41/classsrc_1_1helper__methods_1_1stack__el.html" target="_top" xlink:title=" ">
<polygon fill="white" stroke="black" points="100.5,-84.5 100.5,-107.5 313.5,-107.5 313.5,-84.5 100.5,-84.5"/>
<text text-anchor="middle" x="207" y="-92.3" font-family="Helvetica,sans-Serif" font-size="14.00">src.helper_methods.stack_el</text>
</a>
</g>
</g>
<!-- Node15&#45;&gt;Node26 -->
<g id="edge11" class="edge">
<title>Node15&#45;&gt;Node26</title>
<path fill="none" stroke="midnightblue" d="M35.26,-221.59C42.78,-193.01 60.28,-142.98 95,-117 99.95,-113.3 105.36,-110.19 111.04,-107.59"/>
<polygon fill="midnightblue" stroke="midnightblue" points="31.83,-220.85 32.85,-231.4 38.63,-222.52 31.83,-220.85"/>
</g>
<!-- Node27 -->
<g id="node13" class="node">
<title>Node27</title>
<g id="a_node13"><a xlink:href="d5/d50/classsrc_1_1warp__scheduler_1_1Scheduler.html" target="_top" xlink:title=" ">
<polygon fill="white" stroke="black" points="95,-42.5 95,-65.5 319,-65.5 319,-42.5 95,-42.5"/>
<text text-anchor="middle" x="207" y="-50.3" font-family="Helvetica,sans-Serif" font-size="14.00">src.warp_scheduler.Scheduler</text>
</a>
</g>
</g>
<!-- Node15&#45;&gt;Node27 -->
<g id="edge12" class="edge">
<title>Node15&#45;&gt;Node27</title>
<path fill="none" stroke="midnightblue" d="M32.22,-221.47C36.32,-185.28 50.01,-112.56 95,-75 99.44,-71.29 104.33,-68.16 109.51,-65.52"/>
<polygon fill="midnightblue" stroke="midnightblue" points="28.73,-221.15 31.23,-231.45 35.7,-221.84 28.73,-221.15"/>
</g>
<!-- Node28 -->
<g id="node14" class="node">
<title>Node28</title>
<g id="a_node14"><a xlink:href="d2/d42/classsrc_1_1warps_1_1Warp.html" target="_top" xlink:title="&amp;copy 2017.">
<polygon fill="white" stroke="black" points="145,-0.5 145,-23.5 269,-23.5 269,-0.5 145,-0.5"/>
<text text-anchor="middle" x="207" y="-8.3" font-family="Helvetica,sans-Serif" font-size="14.00">src.warps.Warp</text>
</a>
</g>
</g>
<!-- Node15&#45;&gt;Node28 -->
<g id="edge13" class="edge">
<title>Node15&#45;&gt;Node28</title>
<path fill="none" stroke="midnightblue" d="M30.31,-221.1C31.2,-178.09 39.69,-82.49 95,-33 108.59,-20.84 126.96,-14.74 144.84,-11.91"/>
<polygon fill="midnightblue" stroke="midnightblue" points="26.8,-221.27 30.22,-231.3 33.8,-221.33 26.8,-221.27"/>
</g>
<!-- Node18 -->
<g id="node4" class="node">
<title>Node18</title>
<g id="a_node4"><a xlink:href="dd/d03/classsrc_1_1kernels_1_1Kernel.html" target="_top" xlink:title=" ">
<polygon fill="white" stroke="black" points="355,-420.5 355,-443.5 493,-443.5 493,-420.5 355,-420.5"/>
<text text-anchor="middle" x="424" y="-428.3" font-family="Helvetica,sans-Serif" font-size="14.00">src.kernels.Kernel</text>
</a>
</g>
</g>
<!-- Node17&#45;&gt;Node18 -->
<g id="edge3" class="edge">
<title>Node17&#45;&gt;Node18</title>
<path fill="none" stroke="midnightblue" d="M270.83,-432C297.15,-432 327.81,-432 354.69,-432"/>
<polygon fill="midnightblue" stroke="midnightblue" points="270.59,-428.5 260.59,-432 270.59,-435.5 270.59,-428.5"/>
</g>
</g>
</svg>
