<?xml version="1.0" encoding="UTF-8" standalone="no"?>
<!DOCTYPE svg PUBLIC "-//W3C//DTD SVG 1.1//EN"
 "http://www.w3.org/Graphics/SVG/1.1/DTD/svg11.dtd">
<!-- Generated by graphviz version 2.43.0 (0)
 -->
<!-- Title: Graphical Class Hierarchy Pages: 1 -->
<svg width="265pt" height="74pt"
 viewBox="0.00 0.00 265.00 74.00" xmlns="http://www.w3.org/2000/svg" xmlns:xlink="http://www.w3.org/1999/xlink">
<g id="graph0" class="graph" transform="scale(1 1) rotate(0) translate(4 70)">
<title>Graphical Class Hierarchy</title>
<polygon fill="white" stroke="transparent" points="-4,4 -4,-70 261,-70 261,4 -4,4"/>
<!-- Node30 -->
<g id="node1" class="node">
<title>Node30</title>
<g id="a_node1"><a xlink:title=" ">
<polygon fill="white" stroke="#bfbfbf" points="0,-21.5 0,-44.5 98,-44.5 98,-21.5 0,-21.5"/>
<text text-anchor="middle" x="49" y="-29.3" font-family="Helvetica,sans-Serif" font-size="14.00">ModulePass</text>
</a>
</g>
</g>
<!-- Node0 -->
<g id="node2" class="node">
<title>Node0</title>
<g id="a_node2"><a xlink:href="d8/d73/structFluxDevicePass.html" target="_top" xlink:title="DeviceBlockProfilerPass Instruments nvptx kernels with code to count the execution count of each basi...">
<polygon fill="white" stroke="black" points="134,-42.5 134,-65.5 257,-65.5 257,-42.5 134,-42.5"/>
<text text-anchor="middle" x="195.5" y="-50.3" font-family="Helvetica,sans-Serif" font-size="14.00">FluxDevicePass</text>
</a>
</g>
</g>
<!-- Node30&#45;&gt;Node0 -->
<g id="edge1" class="edge">
<title>Node30&#45;&gt;Node0</title>
<path fill="none" stroke="midnightblue" d="M108.28,-41.47C116.75,-42.7 125.49,-43.97 134,-45.21"/>
<polygon fill="midnightblue" stroke="midnightblue" points="108.52,-37.97 98.12,-39.99 107.51,-44.89 108.52,-37.97"/>
</g>
<!-- Node32 -->
<g id="node3" class="node">
<title>Node32</title>
<g id="a_node3"><a xlink:href="d2/da0/structFluxHostPass.html" target="_top" xlink:title="HostBlockProfilerPass Provides setup for DeviceBlockProfilerPass in host code.">
<polygon fill="white" stroke="black" points="141.5,-0.5 141.5,-23.5 249.5,-23.5 249.5,-0.5 141.5,-0.5"/>
<text text-anchor="middle" x="195.5" y="-8.3" font-family="Helvetica,sans-Serif" font-size="14.00">FluxHostPass</text>
</a>
</g>
</g>
<!-- Node30&#45;&gt;Node32 -->
<g id="edge2" class="edge">
<title>Node30&#45;&gt;Node32</title>
<path fill="none" stroke="midnightblue" d="M108.06,-24.56C119.07,-22.96 130.53,-21.3 141.37,-19.72"/>
<polygon fill="midnightblue" stroke="midnightblue" points="107.51,-21.11 98.12,-26.01 108.52,-28.03 107.51,-21.11"/>
</g>
</g>
</svg>
