<?xml version="1.0" encoding="UTF-8" standalone="no"?>
<!DOCTYPE svg PUBLIC "-//W3C//DTD SVG 1.1//EN"
 "http://www.w3.org/Graphics/SVG/1.1/DTD/svg11.dtd">
<!-- Generated by graphviz version 2.43.0 (0)
 -->
<!-- Title: Graphical Class Hierarchy Pages: 1 -->
<svg width="240pt" height="242pt"
 viewBox="0.00 0.00 240.00 242.00" xmlns="http://www.w3.org/2000/svg" xmlns:xlink="http://www.w3.org/1999/xlink">
<g id="graph0" class="graph" transform="scale(1 1) rotate(0) translate(4 238)">
<title>Graphical Class Hierarchy</title>
<polygon fill="white" stroke="transparent" points="-4,4 -4,-238 236,-238 236,4 -4,4"/>
<!-- Node1 -->
<g id="node1" class="node">
<title>Node1</title>
<g id="a_node1"><a xlink:title=" ">
<polygon fill="white" stroke="#bfbfbf" points="0,-105.5 0,-128.5 59,-128.5 59,-105.5 0,-105.5"/>
<text text-anchor="middle" x="29.5" y="-113.3" font-family="Helvetica,sans-Serif" font-size="14.00">object</text>
</a>
</g>
</g>
<!-- Node0 -->
<g id="node2" class="node">
<title>Node0</title>
<g id="a_node2"><a xlink:href="d7/d25/classppt_1_1GPUNode.html" target="_top" xlink:title=" ">
<polygon fill="white" stroke="black" points="108.5,-210.5 108.5,-233.5 218.5,-233.5 218.5,-210.5 108.5,-210.5"/>
<text text-anchor="middle" x="163.5" y="-218.3" font-family="Helvetica,sans-Serif" font-size="14.00">ppt.GPUNode</text>
</a>
</g>
</g>
<!-- Node1&#45;&gt;Node0 -->
<g id="edge1" class="edge">
<title>Node1&#45;&gt;Node0</title>
<path fill="none" stroke="midnightblue" d="M41.27,-137.42C52.33,-156.49 71.26,-184.45 95,-201 100.44,-204.79 106.58,-207.92 112.9,-210.49"/>
<polygon fill="midnightblue" stroke="midnightblue" points="44.28,-135.63 36.35,-128.6 38.17,-139.04 44.28,-135.63"/>
</g>
<!-- Node3 -->
<g id="node3" class="node">
<title>Node3</title>
<g id="a_node3"><a xlink:href="df/d82/classsimian_1_1Entity.html" target="_top" xlink:title=" ">
<polygon fill="white" stroke="black" points="110,-168.5 110,-191.5 217,-191.5 217,-168.5 110,-168.5"/>
<text text-anchor="middle" x="163.5" y="-176.3" font-family="Helvetica,sans-Serif" font-size="14.00">simian.Entity</text>
</a>
</g>
</g>
<!-- Node1&#45;&gt;Node3 -->
<g id="edge2" class="edge">
<title>Node1&#45;&gt;Node3</title>
<path fill="none" stroke="midnightblue" d="M54.1,-134.62C65.93,-142.85 80.74,-152.3 95,-159 102.55,-162.55 110.86,-165.7 118.98,-168.4"/>
<polygon fill="midnightblue" stroke="midnightblue" points="55.87,-131.58 45.7,-128.63 51.8,-137.28 55.87,-131.58"/>
</g>
<!-- Node4 -->
<g id="node4" class="node">
<title>Node4</title>
<g id="a_node4"><a xlink:href="d4/d28/classsimian_1_1MPI.html" target="_top" xlink:title=" ">
<polygon fill="white" stroke="black" points="117.5,-126.5 117.5,-149.5 209.5,-149.5 209.5,-126.5 117.5,-126.5"/>
<text text-anchor="middle" x="163.5" y="-134.3" font-family="Helvetica,sans-Serif" font-size="14.00">simian.MPI</text>
</a>
</g>
</g>
<!-- Node1&#45;&gt;Node4 -->
<g id="edge3" class="edge">
<title>Node1&#45;&gt;Node4</title>
<path fill="none" stroke="midnightblue" d="M69.17,-123.15C84.25,-125.55 101.65,-128.32 117.3,-130.81"/>
<polygon fill="midnightblue" stroke="midnightblue" points="69.57,-119.67 59.14,-121.56 68.47,-126.58 69.57,-119.67"/>
</g>
<!-- Node5 -->
<g id="node5" class="node">
<title>Node5</title>
<g id="a_node5"><a xlink:href="d0/d93/classsimian_1_1Process.html" target="_top" xlink:title=" ">
<polygon fill="white" stroke="black" points="104,-84.5 104,-107.5 223,-107.5 223,-84.5 104,-84.5"/>
<text text-anchor="middle" x="163.5" y="-92.3" font-family="Helvetica,sans-Serif" font-size="14.00">simian.Process</text>
</a>
</g>
</g>
<!-- Node1&#45;&gt;Node5 -->
<g id="edge4" class="edge">
<title>Node1&#45;&gt;Node5</title>
<path fill="none" stroke="midnightblue" d="M69.14,-110.85C80,-109.12 92.07,-107.2 103.82,-105.34"/>
<polygon fill="midnightblue" stroke="midnightblue" points="68.47,-107.42 59.14,-112.44 69.57,-114.33 68.47,-107.42"/>
</g>
<!-- Node6 -->
<g id="node6" class="node">
<title>Node6</title>
<g id="a_node6"><a xlink:href="df/d7a/classsimian_1_1Simian.html" target="_top" xlink:title=" ">
<polygon fill="white" stroke="black" points="106.5,-42.5 106.5,-65.5 220.5,-65.5 220.5,-42.5 106.5,-42.5"/>
<text text-anchor="middle" x="163.5" y="-50.3" font-family="Helvetica,sans-Serif" font-size="14.00">simian.Simian</text>
</a>
</g>
</g>
<!-- Node1&#45;&gt;Node6 -->
<g id="edge5" class="edge">
<title>Node1&#45;&gt;Node6</title>
<path fill="none" stroke="midnightblue" d="M54.1,-99.38C65.93,-91.15 80.74,-81.7 95,-75 102.55,-71.45 110.86,-68.3 118.98,-65.6"/>
<polygon fill="midnightblue" stroke="midnightblue" points="51.8,-96.72 45.7,-105.37 55.87,-102.42 51.8,-96.72"/>
</g>
<!-- Node7 -->
<g id="node7" class="node">
<title>Node7</title>
<g id="a_node7"><a xlink:href="d3/d80/classsimian_1_1umsgPack.html" target="_top" xlink:title="Module Initialization.">
<polygon fill="white" stroke="black" points="95,-0.5 95,-23.5 232,-23.5 232,-0.5 95,-0.5"/>
<text text-anchor="middle" x="163.5" y="-8.3" font-family="Helvetica,sans-Serif" font-size="14.00">simian.umsgPack</text>
</a>
</g>
</g>
<!-- Node1&#45;&gt;Node7 -->
<g id="edge6" class="edge">
<title>Node1&#45;&gt;Node7</title>
<path fill="none" stroke="midnightblue" d="M41.27,-96.58C52.33,-77.51 71.26,-49.55 95,-33 100.44,-29.21 106.58,-26.08 112.9,-23.51"/>
<polygon fill="midnightblue" stroke="midnightblue" points="38.17,-94.96 36.35,-105.4 44.28,-98.37 38.17,-94.96"/>
</g>
</g>
</svg>
