<?xml version="1.0" encoding="UTF-8" standalone="no"?>
<!DOCTYPE svg PUBLIC "-//W3C//DTD SVG 1.1//EN"
 "http://www.w3.org/Graphics/SVG/1.1/DTD/svg11.dtd">
<!-- Generated by graphviz version 2.43.0 (0)
 -->
<!-- Title: Graphical Class Hierarchy Pages: 1 -->
<svg width="610pt" height="242pt"
 viewBox="0.00 0.00 610.00 242.00" xmlns="http://www.w3.org/2000/svg" xmlns:xlink="http://www.w3.org/1999/xlink">
<g id="graph0" class="graph" transform="scale(1 1) rotate(0) translate(4 238)">
<title>Graphical Class Hierarchy</title>
<polygon fill="white" stroke="transparent" points="-4,4 -4,-238 606,-238 606,4 -4,4"/>
<!-- Node39 -->
<g id="node1" class="node">
<title>Node39</title>
<g id="a_node1"><a xlink:title=" ">
<polygon fill="white" stroke="#bfbfbf" points="0,-157.5 0,-180.5 85,-180.5 85,-157.5 0,-157.5"/>
<text text-anchor="middle" x="42.5" y="-165.3" font-family="Helvetica,sans-Serif" font-size="14.00">Exception</text>
</a>
</g>
</g>
<!-- Node0 -->
<g id="node2" class="node">
<title>Node0</title>
<g id="a_node2"><a xlink:href="d0/db7/classsimian_1_1PackException.html" target="_top" xlink:title=" ">
<polygon fill="white" stroke="black" points="131.5,-204.5 131.5,-227.5 298.5,-227.5 298.5,-204.5 131.5,-204.5"/>
<text text-anchor="middle" x="215" y="-212.3" font-family="Helvetica,sans-Serif" font-size="14.00">simian.PackException</text>
</a>
</g>
</g>
<!-- Node39&#45;&gt;Node0 -->
<g id="edge1" class="edge">
<title>Node39&#45;&gt;Node0</title>
<path fill="none" stroke="midnightblue" d="M95.12,-183.23C119.76,-190.02 148.88,-198.05 172.13,-204.46"/>
<polygon fill="midnightblue" stroke="midnightblue" points="95.78,-179.78 85.21,-180.5 93.92,-186.53 95.78,-179.78"/>
</g>
<!-- Node42 -->
<g id="node4" class="node">
<title>Node42</title>
<g id="a_node4"><a xlink:href="d9/d80/classsimian_1_1SimianError.html" target="_top" xlink:title=" ">
<polygon fill="white" stroke="black" points="141,-157.5 141,-180.5 289,-180.5 289,-157.5 141,-157.5"/>
<text text-anchor="middle" x="215" y="-165.3" font-family="Helvetica,sans-Serif" font-size="14.00">simian.SimianError</text>
</a>
</g>
</g>
<!-- Node39&#45;&gt;Node42 -->
<g id="edge3" class="edge">
<title>Node39&#45;&gt;Node42</title>
<path fill="none" stroke="midnightblue" d="M95.35,-169C109.68,-169 125.51,-169 140.81,-169"/>
<polygon fill="midnightblue" stroke="midnightblue" points="95.21,-165.5 85.21,-169 95.21,-172.5 95.21,-165.5"/>
</g>
<!-- Node43 -->
<g id="node5" class="node">
<title>Node43</title>
<g id="a_node5"><a xlink:href="d7/deb/classsimian_1_1UnpackException.html" target="_top" xlink:title=" ">
<polygon fill="white" stroke="black" points="121,-105.5 121,-128.5 309,-128.5 309,-105.5 121,-105.5"/>
<text text-anchor="middle" x="215" y="-113.3" font-family="Helvetica,sans-Serif" font-size="14.00">simian.UnpackException</text>
</a>
</g>
</g>
<!-- Node39&#45;&gt;Node43 -->
<g id="edge4" class="edge">
<title>Node39&#45;&gt;Node43</title>
<path fill="none" stroke="midnightblue" d="M90.95,-154.53C117.88,-146.31 151.12,-136.18 176.27,-128.51"/>
<polygon fill="midnightblue" stroke="midnightblue" points="89.88,-151.19 81.34,-157.46 91.93,-157.89 89.88,-151.19"/>
</g>
<!-- Node1 -->
<g id="node3" class="node">
<title>Node1</title>
<g id="a_node3"><a xlink:href="de/df2/classsimian_1_1UnsupportedTypeException.html" target="_top" xlink:title=" ">
<polygon fill="white" stroke="black" points="345,-210.5 345,-233.5 602,-233.5 602,-210.5 345,-210.5"/>
<text text-anchor="middle" x="473.5" y="-218.3" font-family="Helvetica,sans-Serif" font-size="14.00">simian.UnsupportedTypeException</text>
</a>
</g>
</g>
<!-- Node0&#45;&gt;Node1 -->
<g id="edge2" class="edge">
<title>Node0&#45;&gt;Node1</title>
<path fill="none" stroke="midnightblue" d="M308.76,-218.17C320.49,-218.44 332.65,-218.73 344.8,-219.01"/>
<polygon fill="midnightblue" stroke="midnightblue" points="308.65,-214.67 298.57,-217.93 308.49,-221.66 308.65,-214.67"/>
</g>
<!-- Node44 -->
<g id="node6" class="node">
<title>Node44</title>
<g id="a_node6"><a xlink:href="d6/dd2/classsimian_1_1DuplicateKeyException.html" target="_top" xlink:title=" ">
<polygon fill="white" stroke="black" points="361,-168.5 361,-191.5 586,-191.5 586,-168.5 361,-168.5"/>
<text text-anchor="middle" x="473.5" y="-176.3" font-family="Helvetica,sans-Serif" font-size="14.00">simian.DuplicateKeyException</text>
</a>
</g>
</g>
<!-- Node43&#45;&gt;Node44 -->
<g id="edge5" class="edge">
<title>Node43&#45;&gt;Node44</title>
<path fill="none" stroke="midnightblue" d="M260.43,-131.83C294.28,-143.07 336.49,-156.93 345,-159 359.71,-162.58 375.53,-165.74 390.85,-168.44"/>
<polygon fill="midnightblue" stroke="midnightblue" points="261.28,-128.43 250.69,-128.6 259.08,-135.07 261.28,-128.43"/>
</g>
<!-- Node45 -->
<g id="node7" class="node">
<title>Node45</title>
<g id="a_node7"><a xlink:href="d9/d7e/classsimian_1_1InsufficientDataException.html" target="_top" xlink:title=" ">
<polygon fill="white" stroke="black" points="351,-126.5 351,-149.5 596,-149.5 596,-126.5 351,-126.5"/>
<text text-anchor="middle" x="473.5" y="-134.3" font-family="Helvetica,sans-Serif" font-size="14.00">simian.InsufficientDataException</text>
</a>
</g>
</g>
<!-- Node43&#45;&gt;Node45 -->
<g id="edge6" class="edge">
<title>Node43&#45;&gt;Node45</title>
<path fill="none" stroke="midnightblue" d="M319.52,-125.48C329.8,-126.32 340.29,-127.18 350.73,-128.03"/>
<polygon fill="midnightblue" stroke="midnightblue" points="319.58,-121.97 309.33,-124.64 319.01,-128.95 319.58,-121.97"/>
</g>
<!-- Node46 -->
<g id="node8" class="node">
<title>Node46</title>
<g id="a_node8"><a xlink:href="d4/d43/classsimian_1_1InvalidStringException.html" target="_top" xlink:title=" ">
<polygon fill="white" stroke="black" points="361.5,-84.5 361.5,-107.5 585.5,-107.5 585.5,-84.5 361.5,-84.5"/>
<text text-anchor="middle" x="473.5" y="-92.3" font-family="Helvetica,sans-Serif" font-size="14.00">simian.InvalidStringException</text>
</a>
</g>
</g>
<!-- Node43&#45;&gt;Node46 -->
<g id="edge7" class="edge">
<title>Node43&#45;&gt;Node46</title>
<path fill="none" stroke="midnightblue" d="M319.32,-108.54C333.16,-107.41 347.4,-106.24 361.36,-105.1"/>
<polygon fill="midnightblue" stroke="midnightblue" points="319.01,-105.05 309.33,-109.36 319.58,-112.03 319.01,-105.05"/>
</g>
<!-- Node47 -->
<g id="node9" class="node">
<title>Node47</title>
<g id="a_node9"><a xlink:href="d4/d3d/classsimian_1_1ReservedCodeException.html" target="_top" xlink:title=" ">
<polygon fill="white" stroke="black" points="356,-42.5 356,-65.5 591,-65.5 591,-42.5 356,-42.5"/>
<text text-anchor="middle" x="473.5" y="-50.3" font-family="Helvetica,sans-Serif" font-size="14.00">simian.ReservedCodeException</text>
</a>
</g>
</g>
<!-- Node43&#45;&gt;Node47 -->
<g id="edge8" class="edge">
<title>Node43&#45;&gt;Node47</title>
<path fill="none" stroke="midnightblue" d="M256.48,-102.07C281.67,-93.22 314.9,-82.33 345,-75 359.71,-71.42 375.53,-68.26 390.85,-65.56"/>
<polygon fill="midnightblue" stroke="midnightblue" points="255.15,-98.83 246.9,-105.48 257.49,-105.43 255.15,-98.83"/>
</g>
<!-- Node48 -->
<g id="node10" class="node">
<title>Node48</title>
<g id="a_node10"><a xlink:href="d7/dc7/classsimian_1_1UnhashableKeyException.html" target="_top" xlink:title=" ">
<polygon fill="white" stroke="black" points="352.5,-0.5 352.5,-23.5 594.5,-23.5 594.5,-0.5 352.5,-0.5"/>
<text text-anchor="middle" x="473.5" y="-8.3" font-family="Helvetica,sans-Serif" font-size="14.00">simian.UnhashableKeyException</text>
</a>
</g>
</g>
<!-- Node43&#45;&gt;Node48 -->
<g id="edge9" class="edge">
<title>Node43&#45;&gt;Node48</title>
<path fill="none" stroke="midnightblue" d="M237.51,-98.92C261.94,-79.42 303.77,-49 345,-33 354.83,-29.19 365.35,-26.06 375.97,-23.51"/>
<polygon fill="midnightblue" stroke="midnightblue" points="235.18,-96.31 229.63,-105.33 239.6,-101.74 235.18,-96.31"/>
</g>
</g>
</svg>
