<?xml version="1.0" encoding="UTF-8" standalone="no"?>
<!DOCTYPE svg PUBLIC "-//W3C//DTD SVG 1.1//EN"
 "http://www.w3.org/Graphics/SVG/1.1/DTD/svg11.dtd">
<!-- Generated by graphviz version 2.43.0 (0)
 -->
<!-- Title: cuStreamIsCapturing_ptsz_params_st Pages: 1 -->
<svg width="172pt" height="122pt"
 viewBox="0.00 0.00 172.00 122.00" xmlns="http://www.w3.org/2000/svg" xmlns:xlink="http://www.w3.org/1999/xlink">
<g id="graph0" class="graph" transform="scale(1 1) rotate(0) translate(4 118)">
<title>cuStreamIsCapturing_ptsz_params_st</title>
<polygon fill="white" stroke="transparent" points="-4,4 -4,-118 168,-118 168,4 -4,4"/>
<!-- Node1 -->
<g id="node1" class="node">
<title>Node1</title>
<g id="a_node1"><a xlink:title=" ">
<polygon fill="#bfbfbf" stroke="black" points="0,-0.5 0,-38.5 164,-38.5 164,-0.5 0,-0.5"/>
<text text-anchor="start" x="8" y="-23.3" font-family="Helvetica,sans-Serif" font-size="14.00">cuStreamIsCapturing</text>
<text text-anchor="middle" x="82" y="-8.3" font-family="Helvetica,sans-Serif" font-size="14.00">_ptsz_params_st</text>
</a>
</g>
</g>
<!-- Node2 -->
<g id="node2" class="node">
<title>Node2</title>
<g id="a_node2"><a xlink:title=" ">
<polygon fill="white" stroke="#bfbfbf" points="53.5,-90.5 53.5,-113.5 110.5,-113.5 110.5,-90.5 53.5,-90.5"/>
<text text-anchor="middle" x="82" y="-98.3" font-family="Helvetica,sans-Serif" font-size="14.00">struct</text>
</a>
</g>
</g>
<!-- Node2&#45;&gt;Node1 -->
<g id="edge1" class="edge">
<title>Node2&#45;&gt;Node1</title>
<path fill="none" stroke="#9a32cd" stroke-dasharray="5,2" d="M82,-80.28C82,-67.43 82,-51.07 82,-38.72"/>
<polygon fill="#9a32cd" stroke="#9a32cd" points="78.5,-80.48 82,-90.48 85.5,-80.48 78.5,-80.48"/>
<text text-anchor="middle" x="114" y="-60.8" font-family="Helvetica,sans-Serif" font-size="14.00"> hStream</text>
</g>
</g>
</svg>
