<?xml version="1.0" encoding="UTF-8" standalone="no"?>
<!DOCTYPE svg PUBLIC "-//W3C//DTD SVG 1.1//EN"
 "http://www.w3.org/Graphics/SVG/1.1/DTD/svg11.dtd">
<!-- Generated by graphviz version 2.43.0 (0)
 -->
<!-- Title: PPT&#45;GPU/llvm_tool/mekong&#45;utils/inc/ptx_parser.h Pages: 1 -->
<svg width="587pt" height="167pt"
 viewBox="0.00 0.00 586.81 167.00" xmlns="http://www.w3.org/2000/svg" xmlns:xlink="http://www.w3.org/1999/xlink">
<g id="graph0" class="graph" transform="scale(1 1) rotate(0) translate(4 163)">
<title>PPT&#45;GPU/llvm_tool/mekong&#45;utils/inc/ptx_parser.h</title>
<polygon fill="white" stroke="transparent" points="-4,4 -4,-163 582.81,-163 582.81,4 -4,4"/>
<!-- Node1 -->
<g id="node1" class="node">
<title>Node1</title>
<g id="a_node1"><a xlink:title=" ">
<polygon fill="#bfbfbf" stroke="black" points="167.31,-120.5 167.31,-158.5 368.31,-158.5 368.31,-120.5 167.31,-120.5"/>
<text text-anchor="start" x="175.31" y="-143.3" font-family="Helvetica,sans-Serif" font-size="14.00">PPT&#45;GPU/llvm_tool/mekong</text>
<text text-anchor="middle" x="267.81" y="-128.3" font-family="Helvetica,sans-Serif" font-size="14.00">&#45;utils/inc/ptx_parser.h</text>
</a>
</g>
</g>
<!-- Node2 -->
<g id="node2" class="node">
<title>Node2</title>
<g id="a_node2"><a xlink:href="../../db/d2b/PTXFunction_8h.html" target="_top" xlink:title=" ">
<polygon fill="white" stroke="black" points="14.81,-60.5 14.81,-83.5 130.81,-83.5 130.81,-60.5 14.81,-60.5"/>
<text text-anchor="middle" x="72.81" y="-68.3" font-family="Helvetica,sans-Serif" font-size="14.00">PTXFunction.h</text>
</a>
</g>
</g>
<!-- Node1&#45;&gt;Node2 -->
<g id="edge1" class="edge">
<title>Node1&#45;&gt;Node2</title>
<path fill="none" stroke="midnightblue" d="M214.01,-120.43C182.45,-109.83 143.18,-96.64 114.07,-86.86"/>
<polygon fill="midnightblue" stroke="midnightblue" points="114.83,-83.42 104.23,-83.55 112.6,-90.06 114.83,-83.42"/>
</g>
<!-- Node3 -->
<g id="node3" class="node">
<title>Node3</title>
<g id="a_node3"><a xlink:title=" ">
<polygon fill="white" stroke="#bfbfbf" points="3.31,-0.5 3.31,-23.5 60.31,-23.5 60.31,-0.5 3.31,-0.5"/>
<text text-anchor="middle" x="31.81" y="-8.3" font-family="Helvetica,sans-Serif" font-size="14.00">string</text>
</a>
</g>
</g>
<!-- Node1&#45;&gt;Node3 -->
<g id="edge9" class="edge">
<title>Node1&#45;&gt;Node3</title>
<path fill="none" stroke="midnightblue" d="M167.12,-130.53C102.22,-123.06 26.26,-109.14 5.81,-84 -6.51,-68.85 4.27,-47.32 15.47,-31.95"/>
<polygon fill="midnightblue" stroke="midnightblue" points="18.52,-33.74 21.94,-23.71 13.01,-29.42 18.52,-33.74"/>
</g>
<!-- Node4 -->
<g id="node4" class="node">
<title>Node4</title>
<g id="a_node4"><a xlink:title=" ">
<polygon fill="white" stroke="#bfbfbf" points="82.81,-0.5 82.81,-23.5 142.81,-23.5 142.81,-0.5 82.81,-0.5"/>
<text text-anchor="middle" x="112.81" y="-8.3" font-family="Helvetica,sans-Serif" font-size="14.00">vector</text>
</a>
</g>
</g>
<!-- Node1&#45;&gt;Node4 -->
<g id="edge10" class="edge">
<title>Node1&#45;&gt;Node4</title>
<path fill="none" stroke="midnightblue" d="M232.95,-120.47C215.59,-110.75 194.76,-97.9 177.81,-84 158.59,-68.23 139.75,-46.81 127.35,-31.63"/>
<polygon fill="midnightblue" stroke="midnightblue" points="129.82,-29.12 120.83,-23.5 124.36,-33.49 129.82,-29.12"/>
</g>
<!-- Node5 -->
<g id="node5" class="node">
<title>Node5</title>
<g id="a_node5"><a xlink:title=" ">
<polygon fill="white" stroke="#bfbfbf" points="186.81,-60.5 186.81,-83.5 256.81,-83.5 256.81,-60.5 186.81,-60.5"/>
<text text-anchor="middle" x="221.81" y="-68.3" font-family="Helvetica,sans-Serif" font-size="14.00">fstream</text>
</a>
</g>
</g>
<!-- Node1&#45;&gt;Node5 -->
<g id="edge4" class="edge">
<title>Node1&#45;&gt;Node5</title>
<path fill="none" stroke="midnightblue" d="M255,-120.25C248.78,-111.4 241.31,-100.77 235.04,-91.83"/>
<polygon fill="midnightblue" stroke="midnightblue" points="237.86,-89.76 229.25,-83.59 232.13,-93.79 237.86,-89.76"/>
</g>
<!-- Node6 -->
<g id="node6" class="node">
<title>Node6</title>
<g id="a_node6"><a xlink:title=" ">
<polygon fill="white" stroke="#bfbfbf" points="275.31,-60.5 275.31,-83.5 352.31,-83.5 352.31,-60.5 275.31,-60.5"/>
<text text-anchor="middle" x="313.81" y="-68.3" font-family="Helvetica,sans-Serif" font-size="14.00">iostream</text>
</a>
</g>
</g>
<!-- Node1&#45;&gt;Node6 -->
<g id="edge5" class="edge">
<title>Node1&#45;&gt;Node6</title>
<path fill="none" stroke="midnightblue" d="M280.63,-120.25C286.85,-111.4 294.31,-100.77 300.59,-91.83"/>
<polygon fill="midnightblue" stroke="midnightblue" points="303.49,-93.79 306.37,-83.59 297.76,-89.76 303.49,-93.79"/>
</g>
<!-- Node7 -->
<g id="node7" class="node">
<title>Node7</title>
<g id="a_node7"><a xlink:title=" ">
<polygon fill="white" stroke="#bfbfbf" points="370.81,-60.5 370.81,-83.5 438.81,-83.5 438.81,-60.5 370.81,-60.5"/>
<text text-anchor="middle" x="404.81" y="-68.3" font-family="Helvetica,sans-Serif" font-size="14.00">istream</text>
</a>
</g>
</g>
<!-- Node1&#45;&gt;Node7 -->
<g id="edge6" class="edge">
<title>Node1&#45;&gt;Node7</title>
<path fill="none" stroke="midnightblue" d="M305.61,-120.43C326.94,-110.23 353.28,-97.64 373.46,-87.99"/>
<polygon fill="midnightblue" stroke="midnightblue" points="375.03,-91.12 382.54,-83.65 372.01,-84.8 375.03,-91.12"/>
</g>
<!-- Node8 -->
<g id="node8" class="node">
<title>Node8</title>
<g id="a_node8"><a xlink:title=" ">
<polygon fill="white" stroke="#bfbfbf" points="457.31,-60.5 457.31,-83.5 504.31,-83.5 504.31,-60.5 457.31,-60.5"/>
<text text-anchor="middle" x="480.81" y="-68.3" font-family="Helvetica,sans-Serif" font-size="14.00">map</text>
</a>
</g>
</g>
<!-- Node1&#45;&gt;Node8 -->
<g id="edge7" class="edge">
<title>Node1&#45;&gt;Node8</title>
<path fill="none" stroke="midnightblue" d="M329.18,-120.38C361.72,-110.66 402.59,-98.29 447.42,-84.07"/>
<polygon fill="midnightblue" stroke="midnightblue" points="448.58,-87.38 457.04,-81.01 446.45,-80.71 448.58,-87.38"/>
</g>
<!-- Node9 -->
<g id="node9" class="node">
<title>Node9</title>
<g id="a_node9"><a xlink:title=" ">
<polygon fill="white" stroke="#bfbfbf" points="522.81,-60.5 522.81,-83.5 578.81,-83.5 578.81,-60.5 522.81,-60.5"/>
<text text-anchor="middle" x="550.81" y="-68.3" font-family="Helvetica,sans-Serif" font-size="14.00">regex</text>
</a>
</g>
</g>
<!-- Node1&#45;&gt;Node9 -->
<g id="edge8" class="edge">
<title>Node1&#45;&gt;Node9</title>
<path fill="none" stroke="midnightblue" d="M356.41,-120.46C400.81,-111.04 455.57,-98.86 512.66,-84.19"/>
<polygon fill="midnightblue" stroke="midnightblue" points="513.78,-87.51 522.59,-81.62 512.03,-80.73 513.78,-87.51"/>
</g>
<!-- Node2&#45;&gt;Node3 -->
<g id="edge2" class="edge">
<title>Node2&#45;&gt;Node3</title>
<path fill="none" stroke="midnightblue" d="M65.29,-60.36C59.69,-52.43 51.88,-41.39 45.22,-31.96"/>
<polygon fill="midnightblue" stroke="midnightblue" points="47.92,-29.72 39.28,-23.57 42.2,-33.76 47.92,-29.72"/>
</g>
<!-- Node2&#45;&gt;Node4 -->
<g id="edge3" class="edge">
<title>Node2&#45;&gt;Node4</title>
<path fill="none" stroke="midnightblue" d="M80.15,-60.36C85.62,-52.43 93.23,-41.39 99.74,-31.96"/>
<polygon fill="midnightblue" stroke="midnightblue" points="102.73,-33.79 105.52,-23.57 96.96,-29.82 102.73,-33.79"/>
</g>
</g>
</svg>
