<?xml version="1.0" encoding="UTF-8" standalone="no"?>
<!DOCTYPE svg PUBLIC "-//W3C//DTD SVG 1.1//EN"
 "http://www.w3.org/Graphics/SVG/1.1/DTD/svg11.dtd">
<!-- Generated by graphviz version 2.43.0 (0)
 -->
<!-- Title: PPT&#45;GPU/tracing_tool/nvbit/utils/channel.hpp Pages: 1 -->
<svg width="555pt" height="167pt"
 viewBox="0.00 0.00 555.00 167.00" xmlns="http://www.w3.org/2000/svg" xmlns:xlink="http://www.w3.org/1999/xlink">
<g id="graph0" class="graph" transform="scale(1 1) rotate(0) translate(4 163)">
<title>PPT&#45;GPU/tracing_tool/nvbit/utils/channel.hpp</title>
<polygon fill="white" stroke="transparent" points="-4,4 -4,-163 551,-163 551,4 -4,4"/>
<!-- Node1 -->
<g id="node1" class="node">
<title>Node1</title>
<g id="a_node1"><a xlink:title=" ">
<polygon fill="#bfbfbf" stroke="black" points="223,-120.5 223,-158.5 404,-158.5 404,-120.5 223,-120.5"/>
<text text-anchor="start" x="231" y="-143.3" font-family="Helvetica,sans-Serif" font-size="14.00">PPT&#45;GPU/tracing_tool</text>
<text text-anchor="middle" x="313.5" y="-128.3" font-family="Helvetica,sans-Serif" font-size="14.00">/nvbit/utils/channel.hpp</text>
</a>
</g>
</g>
<!-- Node2 -->
<g id="node2" class="node">
<title>Node2</title>
<g id="a_node2"><a xlink:title=" ">
<polygon fill="white" stroke="#bfbfbf" points="0,-60.5 0,-83.5 73,-83.5 73,-60.5 0,-60.5"/>
<text text-anchor="middle" x="36.5" y="-68.3" font-family="Helvetica,sans-Serif" font-size="14.00">assert.h</text>
</a>
</g>
</g>
<!-- Node1&#45;&gt;Node2 -->
<g id="edge1" class="edge">
<title>Node1&#45;&gt;Node2</title>
<path fill="none" stroke="midnightblue" d="M236.75,-120.45C194.25,-110.45 140.21,-97.7 83.1,-84.14"/>
<polygon fill="midnightblue" stroke="midnightblue" points="83.69,-80.68 73.16,-81.78 82.08,-87.49 83.69,-80.68"/>
</g>
<!-- Node3 -->
<g id="node3" class="node">
<title>Node3</title>
<g id="a_node3"><a xlink:title=" ">
<polygon fill="white" stroke="#bfbfbf" points="91.5,-60.5 91.5,-83.5 175.5,-83.5 175.5,-60.5 91.5,-60.5"/>
<text text-anchor="middle" x="133.5" y="-68.3" font-family="Helvetica,sans-Serif" font-size="14.00">pthread.h</text>
</a>
</g>
</g>
<!-- Node1&#45;&gt;Node3 -->
<g id="edge2" class="edge">
<title>Node1&#45;&gt;Node3</title>
<path fill="none" stroke="midnightblue" d="M263.84,-120.43C234.83,-109.87 198.77,-96.75 171.94,-86.99"/>
<polygon fill="midnightblue" stroke="midnightblue" points="173.1,-83.68 162.5,-83.55 170.7,-90.26 173.1,-83.68"/>
</g>
<!-- Node4 -->
<g id="node4" class="node">
<title>Node4</title>
<g id="a_node4"><a xlink:title=" ">
<polygon fill="white" stroke="#bfbfbf" points="193.5,-60.5 193.5,-83.5 263.5,-83.5 263.5,-60.5 193.5,-60.5"/>
<text text-anchor="middle" x="228.5" y="-68.3" font-family="Helvetica,sans-Serif" font-size="14.00">stdint.h</text>
</a>
</g>
</g>
<!-- Node1&#45;&gt;Node4 -->
<g id="edge3" class="edge">
<title>Node1&#45;&gt;Node4</title>
<path fill="none" stroke="midnightblue" d="M289.82,-120.25C277.49,-110.75 262.51,-99.21 250.44,-89.91"/>
<polygon fill="midnightblue" stroke="midnightblue" points="252.3,-86.92 242.25,-83.59 248.03,-92.47 252.3,-86.92"/>
</g>
<!-- Node5 -->
<g id="node5" class="node">
<title>Node5</title>
<g id="a_node5"><a xlink:title=" ">
<polygon fill="white" stroke="#bfbfbf" points="281.5,-60.5 281.5,-83.5 345.5,-83.5 345.5,-60.5 281.5,-60.5"/>
<text text-anchor="middle" x="313.5" y="-68.3" font-family="Helvetica,sans-Serif" font-size="14.00">stdio.h</text>
</a>
</g>
</g>
<!-- Node1&#45;&gt;Node5 -->
<g id="edge4" class="edge">
<title>Node1&#45;&gt;Node5</title>
<path fill="none" stroke="midnightblue" d="M313.5,-120.25C313.5,-112.04 313.5,-102.31 313.5,-93.81"/>
<polygon fill="midnightblue" stroke="midnightblue" points="317,-93.59 313.5,-83.59 310,-93.59 317,-93.59"/>
</g>
<!-- Node6 -->
<g id="node6" class="node">
<title>Node6</title>
<g id="a_node6"><a xlink:title=" ">
<polygon fill="white" stroke="#bfbfbf" points="363.5,-60.5 363.5,-83.5 431.5,-83.5 431.5,-60.5 363.5,-60.5"/>
<text text-anchor="middle" x="397.5" y="-68.3" font-family="Helvetica,sans-Serif" font-size="14.00">stdlib.h</text>
</a>
</g>
</g>
<!-- Node1&#45;&gt;Node6 -->
<g id="edge5" class="edge">
<title>Node1&#45;&gt;Node6</title>
<path fill="none" stroke="midnightblue" d="M336.9,-120.25C349.09,-110.75 363.89,-99.21 375.82,-89.91"/>
<polygon fill="midnightblue" stroke="midnightblue" points="378.18,-92.5 383.92,-83.59 373.88,-86.98 378.18,-92.5"/>
</g>
<!-- Node7 -->
<g id="node7" class="node">
<title>Node7</title>
<g id="a_node7"><a xlink:title=" ">
<polygon fill="white" stroke="#bfbfbf" points="451.5,-0.5 451.5,-23.5 525.5,-23.5 525.5,-0.5 451.5,-0.5"/>
<text text-anchor="middle" x="488.5" y="-8.3" font-family="Helvetica,sans-Serif" font-size="14.00">unistd.h</text>
</a>
</g>
</g>
<!-- Node1&#45;&gt;Node7 -->
<g id="edge6" class="edge">
<title>Node1&#45;&gt;Node7</title>
<path fill="none" stroke="midnightblue" d="M374.31,-120.49C396.7,-111.88 421.27,-99.9 440.5,-84 457.43,-70 470.8,-48.53 479.08,-32.86"/>
<polygon fill="midnightblue" stroke="midnightblue" points="482.4,-34.05 483.78,-23.55 476.15,-30.9 482.4,-34.05"/>
</g>
<!-- Node8 -->
<g id="node8" class="node">
<title>Node8</title>
<g id="a_node8"><a xlink:href="../../d5/d60/utils_8h.html" target="_top" xlink:title=" ">
<polygon fill="white" stroke="black" points="488,-60.5 488,-83.5 547,-83.5 547,-60.5 488,-60.5"/>
<text text-anchor="middle" x="517.5" y="-68.3" font-family="Helvetica,sans-Serif" font-size="14.00">utils.h</text>
</a>
</g>
</g>
<!-- Node1&#45;&gt;Node8 -->
<g id="edge7" class="edge">
<title>Node1&#45;&gt;Node8</title>
<path fill="none" stroke="midnightblue" d="M369.78,-120.43C404.26,-109.36 447.53,-95.47 478.31,-85.58"/>
<polygon fill="midnightblue" stroke="midnightblue" points="479.38,-88.91 487.83,-82.53 477.24,-82.25 479.38,-88.91"/>
</g>
<!-- Node8&#45;&gt;Node7 -->
<g id="edge8" class="edge">
<title>Node8&#45;&gt;Node7</title>
<path fill="none" stroke="midnightblue" d="M512.18,-60.36C508.3,-52.59 502.92,-41.84 498.27,-32.55"/>
<polygon fill="midnightblue" stroke="midnightblue" points="501.39,-30.95 493.79,-23.57 495.13,-34.08 501.39,-30.95"/>
</g>
</g>
</svg>
