<?xml version="1.0" encoding="UTF-8" standalone="no"?>
<!DOCTYPE svg PUBLIC "-//W3C//DTD SVG 1.1//EN"
 "http://www.w3.org/Graphics/SVG/1.1/DTD/svg11.dtd">
<!-- Generated by graphviz version 2.43.0 (0)
 -->
<!-- Title: PPT&#45;GPU/reuse_distance_tool/parda.h Pages: 1 -->
<svg width="851pt" height="167pt"
 viewBox="0.00 0.00 851.22 167.00" xmlns="http://www.w3.org/2000/svg" xmlns:xlink="http://www.w3.org/1999/xlink">
<g id="graph0" class="graph" transform="scale(1 1) rotate(0) translate(4 163)">
<title>PPT&#45;GPU/reuse_distance_tool/parda.h</title>
<polygon fill="white" stroke="transparent" points="-4,4 -4,-163 847.22,-163 847.22,4 -4,4"/>
<!-- Node1 -->
<g id="node1" class="node">
<title>Node1</title>
<g id="a_node1"><a xlink:title=" ">
<polygon fill="#bfbfbf" stroke="black" points="234.72,-120.5 234.72,-158.5 417.72,-158.5 417.72,-120.5 234.72,-120.5"/>
<text text-anchor="start" x="242.72" y="-143.3" font-family="Helvetica,sans-Serif" font-size="14.00">PPT&#45;GPU/reuse_distance</text>
<text text-anchor="middle" x="326.22" y="-128.3" font-family="Helvetica,sans-Serif" font-size="14.00">_tool/parda.h</text>
</a>
</g>
</g>
<!-- Node2 -->
<g id="node2" class="node">
<title>Node2</title>
<g id="a_node2"><a xlink:href="../../de/d09/narray_8h.html" target="_top" xlink:title=" ">
<polygon fill="white" stroke="black" points="136.72,-60.5 136.72,-83.5 209.72,-83.5 209.72,-60.5 136.72,-60.5"/>
<text text-anchor="middle" x="173.22" y="-68.3" font-family="Helvetica,sans-Serif" font-size="14.00">narray.h</text>
</a>
</g>
</g>
<!-- Node1&#45;&gt;Node2 -->
<g id="edge1" class="edge">
<title>Node1&#45;&gt;Node2</title>
<path fill="none" stroke="midnightblue" d="M284.01,-120.43C259.86,-110.09 229.96,-97.29 207.32,-87.6"/>
<polygon fill="midnightblue" stroke="midnightblue" points="208.66,-84.37 198.09,-83.65 205.91,-90.8 208.66,-84.37"/>
</g>
<!-- Node3 -->
<g id="node3" class="node">
<title>Node3</title>
<g id="a_node3"><a xlink:title=" ">
<polygon fill="white" stroke="#bfbfbf" points="15.22,-0.5 15.22,-23.5 79.22,-23.5 79.22,-0.5 15.22,-0.5"/>
<text text-anchor="middle" x="47.22" y="-8.3" font-family="Helvetica,sans-Serif" font-size="14.00">stdio.h</text>
</a>
</g>
</g>
<!-- Node1&#45;&gt;Node3 -->
<g id="edge19" class="edge">
<title>Node1&#45;&gt;Node3</title>
<path fill="none" stroke="midnightblue" d="M234.58,-135.7C150.29,-130.96 34.12,-118.23 5.22,-84 -8.84,-67.36 8.64,-45.43 25.14,-30.37"/>
<polygon fill="midnightblue" stroke="midnightblue" points="27.72,-32.76 33.01,-23.58 23.15,-27.45 27.72,-32.76"/>
</g>
<!-- Node4 -->
<g id="node4" class="node">
<title>Node4</title>
<g id="a_node4"><a xlink:title=" ">
<polygon fill="white" stroke="#bfbfbf" points="97.22,-0.5 97.22,-23.5 165.22,-23.5 165.22,-0.5 97.22,-0.5"/>
<text text-anchor="middle" x="131.22" y="-8.3" font-family="Helvetica,sans-Serif" font-size="14.00">stdlib.h</text>
</a>
</g>
</g>
<!-- Node1&#45;&gt;Node4 -->
<g id="edge20" class="edge">
<title>Node1&#45;&gt;Node4</title>
<path fill="none" stroke="midnightblue" d="M234.62,-124.27C189.44,-115.19 141.75,-101.76 128.22,-84 117.34,-69.73 119.79,-48.76 123.94,-33.3"/>
<polygon fill="midnightblue" stroke="midnightblue" points="127.32,-34.23 126.93,-23.64 120.63,-32.15 127.32,-34.23"/>
</g>
<!-- Node5 -->
<g id="node5" class="node">
<title>Node5</title>
<g id="a_node5"><a xlink:title=" ">
<polygon fill="white" stroke="#bfbfbf" points="183.72,-0.5 183.72,-23.5 254.72,-23.5 254.72,-0.5 183.72,-0.5"/>
<text text-anchor="middle" x="219.22" y="-8.3" font-family="Helvetica,sans-Serif" font-size="14.00">string.h</text>
</a>
</g>
</g>
<!-- Node1&#45;&gt;Node5 -->
<g id="edge21" class="edge">
<title>Node1&#45;&gt;Node5</title>
<path fill="none" stroke="midnightblue" d="M298.1,-120.35C284.61,-110.69 268.88,-97.93 257.22,-84 244.39,-68.67 234.03,-48.31 227.39,-33.33"/>
<polygon fill="midnightblue" stroke="midnightblue" points="230.54,-31.77 223.4,-23.94 224.09,-34.51 230.54,-31.77"/>
</g>
<!-- Node6 -->
<g id="node6" class="node">
<title>Node6</title>
<g id="a_node6"><a xlink:href="../../da/d28/process__args_8h.html" target="_top" xlink:title=" ">
<polygon fill="white" stroke="black" points="266.22,-60.5 266.22,-83.5 386.22,-83.5 386.22,-60.5 266.22,-60.5"/>
<text text-anchor="middle" x="326.22" y="-68.3" font-family="Helvetica,sans-Serif" font-size="14.00">process_args.h</text>
</a>
</g>
</g>
<!-- Node1&#45;&gt;Node6 -->
<g id="edge5" class="edge">
<title>Node1&#45;&gt;Node6</title>
<path fill="none" stroke="midnightblue" d="M326.22,-120.25C326.22,-112.04 326.22,-102.31 326.22,-93.81"/>
<polygon fill="midnightblue" stroke="midnightblue" points="329.72,-93.59 326.22,-83.59 322.72,-93.59 329.72,-93.59"/>
</g>
<!-- Node11 -->
<g id="node11" class="node">
<title>Node11</title>
<g id="a_node11"><a xlink:href="../../d2/db0/splay_8h.html" target="_top" xlink:title=" ">
<polygon fill="white" stroke="black" points="14.72,-60.5 14.72,-83.5 79.72,-83.5 79.72,-60.5 14.72,-60.5"/>
<text text-anchor="middle" x="47.22" y="-68.3" font-family="Helvetica,sans-Serif" font-size="14.00">splay.h</text>
</a>
</g>
</g>
<!-- Node1&#45;&gt;Node11 -->
<g id="edge13" class="edge">
<title>Node1&#45;&gt;Node11</title>
<path fill="none" stroke="midnightblue" d="M249.24,-120.43C197.83,-108.36 132.14,-92.94 89.87,-83.01"/>
<polygon fill="midnightblue" stroke="midnightblue" points="90.45,-79.55 79.92,-80.68 88.85,-86.37 90.45,-79.55"/>
</g>
<!-- Node12 -->
<g id="node12" class="node">
<title>Node12</title>
<g id="a_node12"><a xlink:title=" ">
<polygon fill="white" stroke="#bfbfbf" points="404.72,-60.5 404.72,-83.5 477.72,-83.5 477.72,-60.5 404.72,-60.5"/>
<text text-anchor="middle" x="441.22" y="-68.3" font-family="Helvetica,sans-Serif" font-size="14.00">assert.h</text>
</a>
</g>
</g>
<!-- Node1&#45;&gt;Node12 -->
<g id="edge16" class="edge">
<title>Node1&#45;&gt;Node12</title>
<path fill="none" stroke="midnightblue" d="M357.95,-120.43C375.45,-110.46 396.97,-98.2 413.74,-88.65"/>
<polygon fill="midnightblue" stroke="midnightblue" points="415.56,-91.64 422.52,-83.65 412.1,-85.56 415.56,-91.64"/>
</g>
<!-- Node13 -->
<g id="node13" class="node">
<title>Node13</title>
<g id="a_node13"><a xlink:title=" ">
<polygon fill="white" stroke="#bfbfbf" points="496.22,-60.5 496.22,-83.5 552.22,-83.5 552.22,-60.5 496.22,-60.5"/>
<text text-anchor="middle" x="524.22" y="-68.3" font-family="Helvetica,sans-Serif" font-size="14.00">glib.h</text>
</a>
</g>
</g>
<!-- Node1&#45;&gt;Node13 -->
<g id="edge17" class="edge">
<title>Node1&#45;&gt;Node13</title>
<path fill="none" stroke="midnightblue" d="M380.85,-120.43C414.37,-109.34 456.46,-95.42 486.34,-85.53"/>
<polygon fill="midnightblue" stroke="midnightblue" points="487.58,-88.81 495.98,-82.34 485.38,-82.16 487.58,-88.81"/>
</g>
<!-- Node14 -->
<g id="node14" class="node">
<title>Node14</title>
<g id="a_node14"><a xlink:title=" ">
<polygon fill="white" stroke="#bfbfbf" points="570.72,-60.5 570.72,-83.5 643.72,-83.5 643.72,-60.5 570.72,-60.5"/>
<text text-anchor="middle" x="607.22" y="-68.3" font-family="Helvetica,sans-Serif" font-size="14.00">libgen.h</text>
</a>
</g>
</g>
<!-- Node1&#45;&gt;Node14 -->
<g id="edge18" class="edge">
<title>Node1&#45;&gt;Node14</title>
<path fill="none" stroke="midnightblue" d="M404.58,-120.47C447.79,-110.49 502.65,-97.77 560.5,-84.16"/>
<polygon fill="midnightblue" stroke="midnightblue" points="561.63,-87.49 570.57,-81.79 560.03,-80.67 561.63,-87.49"/>
</g>
<!-- Node15 -->
<g id="node15" class="node">
<title>Node15</title>
<g id="a_node15"><a xlink:title=" ">
<polygon fill="white" stroke="#bfbfbf" points="661.72,-60.5 661.72,-83.5 750.72,-83.5 750.72,-60.5 661.72,-60.5"/>
<text text-anchor="middle" x="706.22" y="-68.3" font-family="Helvetica,sans-Serif" font-size="14.00">sys/time.h</text>
</a>
</g>
</g>
<!-- Node1&#45;&gt;Node15 -->
<g id="edge22" class="edge">
<title>Node1&#45;&gt;Node15</title>
<path fill="none" stroke="midnightblue" d="M418.01,-124.2C481.14,-114.12 567.17,-99.94 651.68,-84.24"/>
<polygon fill="midnightblue" stroke="midnightblue" points="652.52,-87.65 661.71,-82.37 651.24,-80.76 652.52,-87.65"/>
</g>
<!-- Node16 -->
<g id="node16" class="node">
<title>Node16</title>
<g id="a_node16"><a xlink:title=" ">
<polygon fill="white" stroke="#bfbfbf" points="769.22,-60.5 769.22,-83.5 843.22,-83.5 843.22,-60.5 769.22,-60.5"/>
<text text-anchor="middle" x="806.22" y="-68.3" font-family="Helvetica,sans-Serif" font-size="14.00">unistd.h</text>
</a>
</g>
</g>
<!-- Node1&#45;&gt;Node16 -->
<g id="edge23" class="edge">
<title>Node1&#45;&gt;Node16</title>
<path fill="none" stroke="midnightblue" d="M418.11,-129.92C503.93,-121.23 635.74,-106.15 759.13,-84.05"/>
<polygon fill="midnightblue" stroke="midnightblue" points="759.92,-87.46 769.14,-82.24 758.67,-80.57 759.92,-87.46"/>
</g>
<!-- Node2&#45;&gt;Node3 -->
<g id="edge2" class="edge">
<title>Node2&#45;&gt;Node3</title>
<path fill="none" stroke="midnightblue" d="M150.4,-60.5C130.63,-51.4 101.8,-38.13 79.64,-27.93"/>
<polygon fill="midnightblue" stroke="midnightblue" points="80.84,-24.62 70.29,-23.62 77.91,-30.98 80.84,-24.62"/>
</g>
<!-- Node2&#45;&gt;Node4 -->
<g id="edge3" class="edge">
<title>Node2&#45;&gt;Node4</title>
<path fill="none" stroke="midnightblue" d="M165.51,-60.36C159.77,-52.43 151.78,-41.39 144.95,-31.96"/>
<polygon fill="midnightblue" stroke="midnightblue" points="147.57,-29.62 138.87,-23.57 141.9,-33.72 147.57,-29.62"/>
</g>
<!-- Node2&#45;&gt;Node5 -->
<g id="edge4" class="edge">
<title>Node2&#45;&gt;Node5</title>
<path fill="none" stroke="midnightblue" d="M181.66,-60.36C188.01,-52.35 196.88,-41.16 204.41,-31.67"/>
<polygon fill="midnightblue" stroke="midnightblue" points="207.36,-33.58 210.83,-23.57 201.88,-29.23 207.36,-33.58"/>
</g>
<!-- Node6&#45;&gt;Node3 -->
<g id="edge8" class="edge">
<title>Node6&#45;&gt;Node3</title>
<path fill="none" stroke="midnightblue" d="M266.81,-60.41C220.78,-51.95 155.22,-39.33 89.15,-24.11"/>
<polygon fill="midnightblue" stroke="midnightblue" points="89.93,-20.7 79.4,-21.85 88.35,-27.52 89.93,-20.7"/>
</g>
<!-- Node6&#45;&gt;Node4 -->
<g id="edge9" class="edge">
<title>Node6&#45;&gt;Node4</title>
<path fill="none" stroke="midnightblue" d="M290.91,-60.5C258.44,-50.84 210.19,-36.49 175.23,-26.09"/>
<polygon fill="midnightblue" stroke="midnightblue" points="175.87,-22.63 165.29,-23.13 173.88,-29.34 175.87,-22.63"/>
</g>
<!-- Node6&#45;&gt;Node5 -->
<g id="edge10" class="edge">
<title>Node6&#45;&gt;Node5</title>
<path fill="none" stroke="midnightblue" d="M306.59,-60.36C290.08,-51.41 266.24,-38.49 247.64,-28.41"/>
<polygon fill="midnightblue" stroke="midnightblue" points="249.18,-25.26 238.72,-23.57 245.84,-31.41 249.18,-25.26"/>
</g>
<!-- Node7 -->
<g id="node7" class="node">
<title>Node7</title>
<g id="a_node7"><a xlink:title=" ">
<polygon fill="white" stroke="#bfbfbf" points="581.72,-0.5 581.72,-23.5 642.72,-23.5 642.72,-0.5 581.72,-0.5"/>
<text text-anchor="middle" x="612.22" y="-8.3" font-family="Helvetica,sans-Serif" font-size="14.00">fcntl.h</text>
</a>
</g>
</g>
<!-- Node6&#45;&gt;Node7 -->
<g id="edge6" class="edge">
<title>Node6&#45;&gt;Node7</title>
<path fill="none" stroke="midnightblue" d="M386.4,-60.88C434.13,-52.54 502.72,-39.86 571.94,-23.93"/>
<polygon fill="midnightblue" stroke="midnightblue" points="572.76,-27.33 581.71,-21.66 571.17,-20.51 572.76,-27.33"/>
</g>
<!-- Node8 -->
<g id="node8" class="node">
<title>Node8</title>
<g id="a_node8"><a xlink:title=" ">
<polygon fill="white" stroke="#bfbfbf" points="272.72,-0.5 272.72,-23.5 347.72,-23.5 347.72,-0.5 272.72,-0.5"/>
<text text-anchor="middle" x="310.22" y="-8.3" font-family="Helvetica,sans-Serif" font-size="14.00">getopt.h</text>
</a>
</g>
</g>
<!-- Node6&#45;&gt;Node8 -->
<g id="edge7" class="edge">
<title>Node6&#45;&gt;Node8</title>
<path fill="none" stroke="midnightblue" d="M323.28,-60.36C321.21,-52.84 318.36,-42.52 315.85,-33.43"/>
<polygon fill="midnightblue" stroke="midnightblue" points="319.17,-32.28 313.13,-23.57 312.42,-34.14 319.17,-32.28"/>
</g>
<!-- Node9 -->
<g id="node9" class="node">
<title>Node9</title>
<g id="a_node9"><a xlink:title=" ">
<polygon fill="white" stroke="#bfbfbf" points="365.22,-0.5 365.22,-23.5 449.22,-23.5 449.22,-0.5 365.22,-0.5"/>
<text text-anchor="middle" x="407.22" y="-8.3" font-family="Helvetica,sans-Serif" font-size="14.00">sys/stat.h</text>
</a>
</g>
</g>
<!-- Node6&#45;&gt;Node9 -->
<g id="edge11" class="edge">
<title>Node6&#45;&gt;Node9</title>
<path fill="none" stroke="midnightblue" d="M341.07,-60.36C353.06,-51.78 370.15,-39.55 383.95,-29.66"/>
<polygon fill="midnightblue" stroke="midnightblue" points="386.36,-32.24 392.46,-23.57 382.29,-26.55 386.36,-32.24"/>
</g>
<!-- Node10 -->
<g id="node10" class="node">
<title>Node10</title>
<g id="a_node10"><a xlink:title=" ">
<polygon fill="white" stroke="#bfbfbf" points="467.22,-0.5 467.22,-23.5 563.22,-23.5 563.22,-0.5 467.22,-0.5"/>
<text text-anchor="middle" x="515.22" y="-8.3" font-family="Helvetica,sans-Serif" font-size="14.00">sys/types.h</text>
</a>
</g>
</g>
<!-- Node6&#45;&gt;Node10 -->
<g id="edge12" class="edge">
<title>Node6&#45;&gt;Node10</title>
<path fill="none" stroke="midnightblue" d="M360.44,-60.5C391.52,-50.96 437.53,-36.84 471.31,-26.48"/>
<polygon fill="midnightblue" stroke="midnightblue" points="472.39,-29.8 480.93,-23.52 470.34,-23.11 472.39,-29.8"/>
</g>
<!-- Node11&#45;&gt;Node3 -->
<g id="edge14" class="edge">
<title>Node11&#45;&gt;Node3</title>
<path fill="none" stroke="midnightblue" d="M47.22,-60.36C47.22,-52.92 47.22,-42.74 47.22,-33.73"/>
<polygon fill="midnightblue" stroke="midnightblue" points="50.72,-33.57 47.22,-23.57 43.72,-33.57 50.72,-33.57"/>
</g>
<!-- Node11&#45;&gt;Node4 -->
<g id="edge15" class="edge">
<title>Node11&#45;&gt;Node4</title>
<path fill="none" stroke="midnightblue" d="M62.63,-60.36C75.18,-51.7 93.11,-39.31 107.49,-29.38"/>
<polygon fill="midnightblue" stroke="midnightblue" points="109.67,-32.13 115.91,-23.57 105.69,-26.37 109.67,-32.13"/>
</g>
</g>
</svg>
