<?xml version="1.0" encoding="UTF-8" standalone="no"?>
<!DOCTYPE svg PUBLIC "-//W3C//DTD SVG 1.1//EN"
 "http://www.w3.org/Graphics/SVG/1.1/DTD/svg11.dtd">
<!-- Generated by graphviz version 2.43.0 (0)
 -->
<!-- Title: PPT&#45;GPU/llvm_tool/mekong&#45;utils/inc/BasicBlockEnumerator.h Pages: 1 -->
<svg width="763pt" height="272pt"
 viewBox="0.00 0.00 763.00 272.00" xmlns="http://www.w3.org/2000/svg" xmlns:xlink="http://www.w3.org/1999/xlink">
<g id="graph0" class="graph" transform="scale(1 1) rotate(0) translate(4 268)">
<title>PPT&#45;GPU/llvm_tool/mekong&#45;utils/inc/BasicBlockEnumerator.h</title>
<polygon fill="white" stroke="transparent" points="-4,4 -4,-268 759,-268 759,4 -4,4"/>
<!-- Node1 -->
<g id="node1" class="node">
<title>Node1</title>
<g id="a_node1"><a xlink:title=" ">
<polygon fill="#bfbfbf" stroke="black" points="371.5,-225.5 371.5,-263.5 620.5,-263.5 620.5,-225.5 371.5,-225.5"/>
<text text-anchor="start" x="379.5" y="-248.3" font-family="Helvetica,sans-Serif" font-size="14.00">PPT&#45;GPU/llvm_tool/mekong</text>
<text text-anchor="middle" x="496" y="-233.3" font-family="Helvetica,sans-Serif" font-size="14.00">&#45;utils/inc/BasicBlockEnumerator.h</text>
</a>
</g>
</g>
<!-- Node2 -->
<g id="node2" class="node">
<title>Node2</title>
<g id="a_node2"><a xlink:href="../../db/d19/IRUtils_8h.html" target="_top" xlink:title=" ">
<polygon fill="white" stroke="black" points="269.5,-150.5 269.5,-188.5 470.5,-188.5 470.5,-150.5 269.5,-150.5"/>
<text text-anchor="start" x="277.5" y="-173.3" font-family="Helvetica,sans-Serif" font-size="14.00">PPT&#45;GPU/llvm_tool/mekong</text>
<text text-anchor="middle" x="370" y="-158.3" font-family="Helvetica,sans-Serif" font-size="14.00">&#45;utils/inc/IRUtils.h</text>
</a>
</g>
</g>
<!-- Node1&#45;&gt;Node2 -->
<g id="edge1" class="edge">
<title>Node1&#45;&gt;Node2</title>
<path fill="none" stroke="midnightblue" d="M455.9,-220.27C438.21,-210.02 417.74,-198.16 401.22,-188.59"/>
<polygon fill="midnightblue" stroke="midnightblue" points="454.45,-223.47 464.85,-225.46 457.96,-217.41 454.45,-223.47"/>
</g>
<!-- Node8 -->
<g id="node8" class="node">
<title>Node8</title>
<g id="a_node8"><a xlink:href="../../dd/d08/BasicBlockEnumerator_8cpp.html" target="_top" xlink:title=" ">
<polygon fill="white" stroke="black" points="489,-150.5 489,-188.5 755,-188.5 755,-150.5 489,-150.5"/>
<text text-anchor="start" x="497" y="-173.3" font-family="Helvetica,sans-Serif" font-size="14.00">PPT&#45;GPU/llvm_tool/mekong</text>
<text text-anchor="middle" x="622" y="-158.3" font-family="Helvetica,sans-Serif" font-size="14.00">&#45;utils/src/BasicBlockEnumerator.cpp</text>
</a>
</g>
</g>
<!-- Node1&#45;&gt;Node8 -->
<g id="edge7" class="edge">
<title>Node1&#45;&gt;Node8</title>
<path fill="none" stroke="midnightblue" d="M536.1,-220.27C553.79,-210.02 574.26,-198.16 590.78,-188.59"/>
<polygon fill="midnightblue" stroke="midnightblue" points="534.04,-217.41 527.15,-225.46 537.55,-223.47 534.04,-217.41"/>
</g>
<!-- Node3 -->
<g id="node3" class="node">
<title>Node3</title>
<g id="a_node3"><a xlink:href="../../de/d8a/Mekong-Utils_8h.html" target="_top" xlink:title=" ">
<polygon fill="white" stroke="black" points="160.5,-75.5 160.5,-113.5 361.5,-113.5 361.5,-75.5 160.5,-75.5"/>
<text text-anchor="start" x="168.5" y="-98.3" font-family="Helvetica,sans-Serif" font-size="14.00">PPT&#45;GPU/llvm_tool/mekong</text>
<text text-anchor="middle" x="261" y="-83.3" font-family="Helvetica,sans-Serif" font-size="14.00">&#45;utils/inc/Mekong&#45;Utils.h</text>
</a>
</g>
</g>
<!-- Node2&#45;&gt;Node3 -->
<g id="edge2" class="edge">
<title>Node2&#45;&gt;Node3</title>
<path fill="none" stroke="midnightblue" d="M334.46,-144.7C319.36,-134.59 302.04,-122.99 288.01,-113.59"/>
<polygon fill="midnightblue" stroke="midnightblue" points="332.8,-147.8 343.06,-150.46 336.7,-141.98 332.8,-147.8"/>
</g>
<!-- Node7 -->
<g id="node7" class="node">
<title>Node7</title>
<g id="a_node7"><a xlink:href="../../d9/d85/IRUtils_8cpp.html" target="_top" xlink:title=" ">
<polygon fill="white" stroke="black" points="379.5,-75.5 379.5,-113.5 580.5,-113.5 580.5,-75.5 379.5,-75.5"/>
<text text-anchor="start" x="387.5" y="-98.3" font-family="Helvetica,sans-Serif" font-size="14.00">PPT&#45;GPU/llvm_tool/mekong</text>
<text text-anchor="middle" x="480" y="-83.3" font-family="Helvetica,sans-Serif" font-size="14.00">&#45;utils/src/IRUtils.cpp</text>
</a>
</g>
</g>
<!-- Node2&#45;&gt;Node7 -->
<g id="edge6" class="edge">
<title>Node2&#45;&gt;Node7</title>
<path fill="none" stroke="midnightblue" d="M405.86,-144.7C421.1,-134.59 438.58,-122.99 452.74,-113.59"/>
<polygon fill="midnightblue" stroke="midnightblue" points="403.59,-142.01 397.19,-150.46 407.46,-147.84 403.59,-142.01"/>
</g>
<!-- Node4 -->
<g id="node4" class="node">
<title>Node4</title>
<g id="a_node4"><a xlink:href="../../df/d50/fluxDevicePass_8cpp.html" target="_top" xlink:title=" ">
<polygon fill="white" stroke="black" points="0,-0.5 0,-38.5 162,-38.5 162,-0.5 0,-0.5"/>
<text text-anchor="start" x="8" y="-23.3" font-family="Helvetica,sans-Serif" font-size="14.00">PPT&#45;GPU/llvm_tool/lib</text>
<text text-anchor="middle" x="81" y="-8.3" font-family="Helvetica,sans-Serif" font-size="14.00">/fluxDevicePass.cpp</text>
</a>
</g>
</g>
<!-- Node3&#45;&gt;Node4 -->
<g id="edge3" class="edge">
<title>Node3&#45;&gt;Node4</title>
<path fill="none" stroke="midnightblue" d="M207.16,-71.66C181.14,-61.11 150.29,-48.6 125.61,-38.59"/>
<polygon fill="midnightblue" stroke="midnightblue" points="205.92,-74.94 216.51,-75.46 208.55,-68.45 205.92,-74.94"/>
</g>
<!-- Node5 -->
<g id="node5" class="node">
<title>Node5</title>
<g id="a_node5"><a xlink:href="../../d9/d28/fluxHostPass_8cpp.html" target="_top" xlink:title=" ">
<polygon fill="white" stroke="black" points="180,-0.5 180,-38.5 342,-38.5 342,-0.5 180,-0.5"/>
<text text-anchor="start" x="188" y="-23.3" font-family="Helvetica,sans-Serif" font-size="14.00">PPT&#45;GPU/llvm_tool/lib</text>
<text text-anchor="middle" x="261" y="-8.3" font-family="Helvetica,sans-Serif" font-size="14.00">/fluxHostPass.cpp</text>
</a>
</g>
</g>
<!-- Node3&#45;&gt;Node5 -->
<g id="edge4" class="edge">
<title>Node3&#45;&gt;Node5</title>
<path fill="none" stroke="midnightblue" d="M261,-65.37C261,-56.38 261,-46.67 261,-38.59"/>
<polygon fill="midnightblue" stroke="midnightblue" points="257.5,-65.46 261,-75.46 264.5,-65.46 257.5,-65.46"/>
</g>
<!-- Node6 -->
<g id="node6" class="node">
<title>Node6</title>
<g id="a_node6"><a xlink:href="../../db/d96/HostUtils_8cpp.html" target="_top" xlink:title=" ">
<polygon fill="white" stroke="black" points="360.5,-0.5 360.5,-38.5 561.5,-38.5 561.5,-0.5 360.5,-0.5"/>
<text text-anchor="start" x="368.5" y="-23.3" font-family="Helvetica,sans-Serif" font-size="14.00">PPT&#45;GPU/llvm_tool/mekong</text>
<text text-anchor="middle" x="461" y="-8.3" font-family="Helvetica,sans-Serif" font-size="14.00">&#45;utils/src/HostUtils.cpp</text>
</a>
</g>
</g>
<!-- Node3&#45;&gt;Node6 -->
<g id="edge5" class="edge">
<title>Node3&#45;&gt;Node6</title>
<path fill="none" stroke="midnightblue" d="M320.06,-71.94C349.13,-61.33 383.77,-48.69 411.44,-38.59"/>
<polygon fill="midnightblue" stroke="midnightblue" points="318.63,-68.74 310.44,-75.46 321.03,-75.31 318.63,-68.74"/>
</g>
</g>
</svg>
