<?xml version="1.0" encoding="UTF-8" standalone="no"?>
<!DOCTYPE svg PUBLIC "-//W3C//DTD SVG 1.1//EN"
 "http://www.w3.org/Graphics/SVG/1.1/DTD/svg11.dtd">
<!-- Generated by graphviz version 2.43.0 (0)
 -->
<!-- Title: cuGraphKernelNodeCopyAttributes_params_st Pages: 1 -->
<svg width="266pt" height="137pt"
 viewBox="0.00 0.00 266.00 137.00" xmlns="http://www.w3.org/2000/svg" xmlns:xlink="http://www.w3.org/1999/xlink">
<g id="graph0" class="graph" transform="scale(1 1) rotate(0) translate(4 133)">
<title>cuGraphKernelNodeCopyAttributes_params_st</title>
<polygon fill="white" stroke="transparent" points="-4,4 -4,-133 262,-133 262,4 -4,4"/>
<!-- Node1 -->
<g id="node1" class="node">
<title>Node1</title>
<g id="a_node1"><a xlink:title=" ">
<polygon fill="#bfbfbf" stroke="black" points="0,-0.5 0,-38.5 258,-38.5 258,-0.5 0,-0.5"/>
<text text-anchor="start" x="8" y="-23.3" font-family="Helvetica,sans-Serif" font-size="14.00">cuGraphKernelNodeCopyAttributes</text>
<text text-anchor="middle" x="129" y="-8.3" font-family="Helvetica,sans-Serif" font-size="14.00">_params_st</text>
</a>
</g>
</g>
<!-- Node2 -->
<g id="node2" class="node">
<title>Node2</title>
<g id="a_node2"><a xlink:title=" ">
<polygon fill="white" stroke="#bfbfbf" points="100.5,-105.5 100.5,-128.5 157.5,-128.5 157.5,-105.5 100.5,-105.5"/>
<text text-anchor="middle" x="129" y="-113.3" font-family="Helvetica,sans-Serif" font-size="14.00">struct</text>
</a>
</g>
</g>
<!-- Node2&#45;&gt;Node1 -->
<g id="edge1" class="edge">
<title>Node2&#45;&gt;Node1</title>
<path fill="none" stroke="#9a32cd" stroke-dasharray="5,2" d="M129,-94.96C129,-78.09 129,-54.67 129,-38.63"/>
<polygon fill="#9a32cd" stroke="#9a32cd" points="125.5,-95.41 129,-105.41 132.5,-95.41 125.5,-95.41"/>
<text text-anchor="middle" x="141.5" y="-75.8" font-family="Helvetica,sans-Serif" font-size="14.00"> src</text>
<text text-anchor="middle" x="141.5" y="-60.8" font-family="Helvetica,sans-Serif" font-size="14.00">dst</text>
</g>
</g>
</svg>
