<?xml version="1.0" encoding="UTF-8" standalone="no"?>
<!DOCTYPE svg PUBLIC "-//W3C//DTD SVG 1.1//EN"
 "http://www.w3.org/Graphics/SVG/1.1/DTD/svg11.dtd">
<!-- Generated by graphviz version 2.43.0 (0)
 -->
<!-- Title: parda_free Pages: 1 -->
<svg width="309pt" height="109pt"
 viewBox="0.00 0.00 309.00 109.43" xmlns="http://www.w3.org/2000/svg" xmlns:xlink="http://www.w3.org/1999/xlink">
<g id="graph0" class="graph" transform="scale(1 1) rotate(0) translate(4 105.43)">
<title>parda_free</title>
<polygon fill="white" stroke="transparent" points="-4,4 -4,-105.43 305,-105.43 305,4 -4,4"/>
<!-- Node1 -->
<g id="node1" class="node">
<title>Node1</title>
<g id="a_node1"><a xlink:title=" ">
<polygon fill="#bfbfbf" stroke="black" points="0,-42.5 0,-65.5 90,-65.5 90,-42.5 0,-42.5"/>
<text text-anchor="middle" x="45" y="-50.3" font-family="Helvetica,sans-Serif" font-size="14.00">parda_free</text>
</a>
</g>
</g>
<!-- Node2 -->
<g id="node2" class="node">
<title>Node2</title>
<g id="a_node2"><a xlink:href="../../da/de5/hostRuntime_8cpp.html#ae206dc2056b70c9901731e30447df1aa" target="_top" xlink:title=" ">
<polygon fill="white" stroke="black" points="257,-42.5 257,-65.5 301,-65.5 301,-42.5 257,-42.5"/>
<text text-anchor="middle" x="279" y="-50.3" font-family="Helvetica,sans-Serif" font-size="14.00">free</text>
</a>
</g>
</g>
<!-- Node1&#45;&gt;Node2 -->
<g id="edge1" class="edge">
<title>Node1&#45;&gt;Node2</title>
<path fill="none" stroke="midnightblue" d="M63.86,-65.65C79.52,-75.13 103.27,-87.75 126,-93 167.14,-102.49 180.66,-105.48 221,-93 234.42,-88.85 247.5,-80.32 257.74,-72.3"/>
<polygon fill="midnightblue" stroke="midnightblue" points="260.14,-74.86 265.61,-65.79 255.68,-69.46 260.14,-74.86"/>
</g>
<!-- Node3 -->
<g id="node3" class="node">
<title>Node3</title>
<g id="a_node3"><a xlink:href="../../d1/df7/splay_8c.html#aa92af4ddcdf3134ef4943b684eb5c421" target="_top" xlink:title=" ">
<polygon fill="white" stroke="black" points="138,-42.5 138,-65.5 209,-65.5 209,-42.5 138,-42.5"/>
<text text-anchor="middle" x="173.5" y="-50.3" font-family="Helvetica,sans-Serif" font-size="14.00">freetree</text>
</a>
</g>
</g>
<!-- Node1&#45;&gt;Node3 -->
<g id="edge2" class="edge">
<title>Node1&#45;&gt;Node3</title>
<path fill="none" stroke="midnightblue" d="M90.24,-54C102.26,-54 115.28,-54 127.34,-54"/>
<polygon fill="midnightblue" stroke="midnightblue" points="127.65,-57.5 137.65,-54 127.65,-50.5 127.65,-57.5"/>
</g>
<!-- Node4 -->
<g id="node4" class="node">
<title>Node4</title>
<g id="a_node4"><a xlink:href="../../dc/dce/narray_8c.html#ad4a6215f48c72db2c016b1f3d8aa2723" target="_top" xlink:title=" ">
<polygon fill="white" stroke="black" points="126,-0.5 126,-23.5 221,-23.5 221,-0.5 126,-0.5"/>
<text text-anchor="middle" x="173.5" y="-8.3" font-family="Helvetica,sans-Serif" font-size="14.00">narray_free</text>
</a>
</g>
</g>
<!-- Node1&#45;&gt;Node4 -->
<g id="edge5" class="edge">
<title>Node1&#45;&gt;Node4</title>
<path fill="none" stroke="midnightblue" d="M80.9,-42.41C95.42,-37.59 112.45,-31.94 127.86,-26.82"/>
<polygon fill="midnightblue" stroke="midnightblue" points="129.32,-30.02 137.71,-23.55 127.12,-23.38 129.32,-30.02"/>
</g>
<!-- Node3&#45;&gt;Node2 -->
<g id="edge3" class="edge">
<title>Node3&#45;&gt;Node2</title>
<path fill="none" stroke="midnightblue" d="M209.25,-54C221.3,-54 234.73,-54 246.51,-54"/>
<polygon fill="midnightblue" stroke="midnightblue" points="246.76,-57.5 256.76,-54 246.76,-50.5 246.76,-57.5"/>
</g>
<!-- Node3&#45;&gt;Node3 -->
<g id="edge4" class="edge">
<title>Node3&#45;&gt;Node3</title>
<path fill="none" stroke="midnightblue" d="M156.52,-65.7C150.17,-74.76 155.83,-84 173.5,-84 184.27,-84 190.58,-80.57 192.43,-75.84"/>
<polygon fill="midnightblue" stroke="midnightblue" points="195.8,-74.86 190.48,-65.7 188.93,-76.18 195.8,-74.86"/>
</g>
<!-- Node4&#45;&gt;Node2 -->
<g id="edge6" class="edge">
<title>Node4&#45;&gt;Node2</title>
<path fill="none" stroke="midnightblue" d="M203.06,-23.59C216.73,-29.14 233.13,-35.79 247.09,-41.46"/>
<polygon fill="midnightblue" stroke="midnightblue" points="246.18,-44.86 256.76,-45.38 248.81,-38.38 246.18,-44.86"/>
</g>
</g>
</svg>
