<?xml version="1.0" encoding="UTF-8" standalone="no"?>
<!DOCTYPE svg PUBLIC "-//W3C//DTD SVG 1.1//EN"
 "http://www.w3.org/Graphics/SVG/1.1/DTD/svg11.dtd">
<!-- Generated by graphviz version 2.43.0 (0)
 -->
<!-- Title: rtclock Pages: 1 -->
<svg width="357pt" height="32pt"
 viewBox="0.00 0.00 357.00 32.00" xmlns="http://www.w3.org/2000/svg" xmlns:xlink="http://www.w3.org/1999/xlink">
<g id="graph0" class="graph" transform="scale(1 1) rotate(0) translate(4 28)">
<title>rtclock</title>
<polygon fill="white" stroke="transparent" points="-4,4 -4,-28 353,-28 353,4 -4,4"/>
<!-- Node1 -->
<g id="node1" class="node">
<title>Node1</title>
<g id="a_node1"><a xlink:title=" ">
<polygon fill="#bfbfbf" stroke="black" points="286,-0.5 286,-23.5 349,-23.5 349,-0.5 286,-0.5"/>
<text text-anchor="middle" x="317.5" y="-8.3" font-family="Helvetica,sans-Serif" font-size="14.00">rtclock</text>
</a>
</g>
</g>
<!-- Node2 -->
<g id="node2" class="node">
<title>Node2</title>
<g id="a_node2"><a xlink:href="../../d5/d13/parda__omp_8h.html#af99a329269ee6e1bd3f49b4442ab1097" target="_top" xlink:title=" ">
<polygon fill="white" stroke="black" points="87,-0.5 87,-23.5 250,-23.5 250,-0.5 87,-0.5"/>
<text text-anchor="middle" x="168.5" y="-8.3" font-family="Helvetica,sans-Serif" font-size="14.00">parda_omp_stackdist</text>
</a>
</g>
</g>
<!-- Node1&#45;&gt;Node2 -->
<g id="edge1" class="edge">
<title>Node1&#45;&gt;Node2</title>
<path fill="none" stroke="midnightblue" d="M275.61,-12C267.63,-12 259.01,-12 250.25,-12"/>
<polygon fill="midnightblue" stroke="midnightblue" points="275.68,-15.5 285.68,-12 275.68,-8.5 275.68,-15.5"/>
</g>
<!-- Node3 -->
<g id="node3" class="node">
<title>Node3</title>
<g id="a_node3"><a xlink:href="../../d0/d29/main_8c.html#a3c04138a5bfe5d72780bb7e82a18e627" target="_top" xlink:title=" ">
<polygon fill="white" stroke="black" points="0,-0.5 0,-23.5 51,-23.5 51,-0.5 0,-0.5"/>
<text text-anchor="middle" x="25.5" y="-8.3" font-family="Helvetica,sans-Serif" font-size="14.00">main</text>
</a>
</g>
</g>
<!-- Node2&#45;&gt;Node3 -->
<g id="edge2" class="edge">
<title>Node2&#45;&gt;Node3</title>
<path fill="none" stroke="midnightblue" d="M76.54,-12C67.33,-12 58.63,-12 51.14,-12"/>
<polygon fill="midnightblue" stroke="midnightblue" points="76.71,-15.5 86.71,-12 76.71,-8.5 76.71,-15.5"/>
</g>
</g>
</svg>
