<?xml version="1.0" encoding="UTF-8" standalone="no"?>
<!DOCTYPE svg PUBLIC "-//W3C//DTD SVG 1.1//EN"
 "http://www.w3.org/Graphics/SVG/1.1/DTD/svg11.dtd">
<!-- Generated by graphviz version 2.43.0 (0)
 -->
<!-- Title: parda_get_abfront Pages: 1 -->
<svg width="789pt" height="90pt"
 viewBox="0.00 0.00 789.00 89.50" xmlns="http://www.w3.org/2000/svg" xmlns:xlink="http://www.w3.org/1999/xlink">
<g id="graph0" class="graph" transform="scale(1 1) rotate(0) translate(4 85.5)">
<title>parda_get_abfront</title>
<polygon fill="white" stroke="transparent" points="-4,4 -4,-85.5 785,-85.5 785,4 -4,4"/>
<!-- Node1 -->
<g id="node1" class="node">
<title>Node1</title>
<g id="a_node1"><a xlink:title=" ">
<polygon fill="#bfbfbf" stroke="black" points="638,-33 638,-56 781,-56 781,-33 638,-33"/>
<text text-anchor="middle" x="709.5" y="-40.8" font-family="Helvetica,sans-Serif" font-size="14.00">parda_get_abfront</text>
</a>
</g>
</g>
<!-- Node2 -->
<g id="node2" class="node">
<title>Node2</title>
<g id="a_node2"><a xlink:href="../../d0/dbf/parda_8h.html#ac66e3c12653af16fe2738d9e0089acfc" target="_top" xlink:title=" ">
<polygon fill="white" stroke="black" points="495,-33 495,-56 602,-56 602,-33 495,-33"/>
<text text-anchor="middle" x="548.5" y="-40.8" font-family="Helvetica,sans-Serif" font-size="14.00">parda_merge</text>
</a>
</g>
</g>
<!-- Node1&#45;&gt;Node2 -->
<g id="edge1" class="edge">
<title>Node1&#45;&gt;Node2</title>
<path fill="none" stroke="midnightblue" d="M627.72,-44.5C619.09,-44.5 610.48,-44.5 602.29,-44.5"/>
<polygon fill="midnightblue" stroke="midnightblue" points="627.83,-48 637.83,-44.5 627.83,-41 627.83,-48"/>
</g>
<!-- Node3 -->
<g id="node3" class="node">
<title>Node3</title>
<g id="a_node3"><a xlink:href="../../d5/d13/parda__omp_8h.html#ae6fbeb3538f797cfc948e920386b4741" target="_top" xlink:title=" ">
<polygon fill="white" stroke="black" points="304,-58 304,-81 441,-81 441,-58 304,-58"/>
<text text-anchor="middle" x="372.5" y="-65.8" font-family="Helvetica,sans-Serif" font-size="14.00">parda_omp_input</text>
</a>
</g>
</g>
<!-- Node2&#45;&gt;Node3 -->
<g id="edge2" class="edge">
<title>Node2&#45;&gt;Node3</title>
<path fill="none" stroke="midnightblue" d="M484.71,-53.52C470.55,-55.56 455.47,-57.72 441.13,-59.78"/>
<polygon fill="midnightblue" stroke="midnightblue" points="485.42,-56.96 494.82,-52.07 484.43,-50.03 485.42,-56.96"/>
</g>
<!-- Node4 -->
<g id="node4" class="node">
<title>Node4</title>
<g id="a_node4"><a xlink:href="../../d0/d82/parda__omp_8c.html#a9608f67126e55a4e283694263aef00a4" target="_top" xlink:title=" ">
<polygon fill="white" stroke="black" points="286,-0.5 286,-38.5 459,-38.5 459,-0.5 286,-0.5"/>
<text text-anchor="start" x="294" y="-23.3" font-family="Helvetica,sans-Serif" font-size="14.00">parda_omp_input_with</text>
<text text-anchor="middle" x="372.5" y="-8.3" font-family="Helvetica,sans-Serif" font-size="14.00">_filename</text>
</a>
</g>
</g>
<!-- Node2&#45;&gt;Node4 -->
<g id="edge3" class="edge">
<title>Node2&#45;&gt;Node4</title>
<path fill="none" stroke="midnightblue" d="M484.81,-35.49C476.46,-34.29 467.77,-33.05 459.11,-31.8"/>
<polygon fill="midnightblue" stroke="midnightblue" points="484.43,-38.97 494.82,-36.93 485.42,-32.04 484.43,-38.97"/>
</g>
<!-- Node5 -->
<g id="node5" class="node">
<title>Node5</title>
<g id="a_node5"><a xlink:href="../../d5/d13/parda__omp_8h.html#af99a329269ee6e1bd3f49b4442ab1097" target="_top" xlink:title=" ">
<polygon fill="white" stroke="black" points="87,-8 87,-31 250,-31 250,-8 87,-8"/>
<text text-anchor="middle" x="168.5" y="-15.8" font-family="Helvetica,sans-Serif" font-size="14.00">parda_omp_stackdist</text>
</a>
</g>
</g>
<!-- Node4&#45;&gt;Node5 -->
<g id="edge4" class="edge">
<title>Node4&#45;&gt;Node5</title>
<path fill="none" stroke="midnightblue" d="M275.8,-19.5C267.22,-19.5 258.59,-19.5 250.16,-19.5"/>
<polygon fill="midnightblue" stroke="midnightblue" points="275.83,-23 285.83,-19.5 275.83,-16 275.83,-23"/>
</g>
<!-- Node6 -->
<g id="node6" class="node">
<title>Node6</title>
<g id="a_node6"><a xlink:href="../../d0/d29/main_8c.html#a3c04138a5bfe5d72780bb7e82a18e627" target="_top" xlink:title=" ">
<polygon fill="white" stroke="black" points="0,-8 0,-31 51,-31 51,-8 0,-8"/>
<text text-anchor="middle" x="25.5" y="-15.8" font-family="Helvetica,sans-Serif" font-size="14.00">main</text>
</a>
</g>
</g>
<!-- Node5&#45;&gt;Node6 -->
<g id="edge5" class="edge">
<title>Node5&#45;&gt;Node6</title>
<path fill="none" stroke="midnightblue" d="M76.54,-19.5C67.33,-19.5 58.63,-19.5 51.14,-19.5"/>
<polygon fill="midnightblue" stroke="midnightblue" points="76.71,-23 86.71,-19.5 76.71,-16 76.71,-23"/>
</g>
</g>
</svg>
