<?xml version="1.0" encoding="UTF-8" standalone="no"?>
<!DOCTYPE svg PUBLIC "-//W3C//DTD SVG 1.1//EN"
 "http://www.w3.org/Graphics/SVG/1.1/DTD/svg11.dtd">
<!-- Generated by graphviz version 2.43.0 (0)
 -->
<!-- Title: parda_size Pages: 1 -->
<svg width="822pt" height="107pt"
 viewBox="0.00 0.00 822.00 106.50" xmlns="http://www.w3.org/2000/svg" xmlns:xlink="http://www.w3.org/1999/xlink">
<g id="graph0" class="graph" transform="scale(1 1) rotate(0) translate(4 102.5)">
<title>parda_size</title>
<polygon fill="white" stroke="transparent" points="-4,4 -4,-102.5 818,-102.5 818,4 -4,4"/>
<!-- Node1 -->
<g id="node1" class="node">
<title>Node1</title>
<g id="a_node1"><a xlink:title=" ">
<polygon fill="#bfbfbf" stroke="black" points="724,-54 724,-77 814,-77 814,-54 724,-54"/>
<text text-anchor="middle" x="769" y="-61.8" font-family="Helvetica,sans-Serif" font-size="14.00">parda_size</text>
</a>
</g>
</g>
<!-- Node2 -->
<g id="node2" class="node">
<title>Node2</title>
<g id="a_node2"><a xlink:href="../../d0/dbf/parda_8h.html#a6e83fb9c7da59f819f085e24cc2a5e85" target="_top" xlink:title=" ">
<polygon fill="white" stroke="black" points="495,-75 495,-98 688,-98 688,-75 495,-75"/>
<text text-anchor="middle" x="591.5" y="-82.8" font-family="Helvetica,sans-Serif" font-size="14.00">parda_get_processor_info</text>
</a>
</g>
</g>
<!-- Node1&#45;&gt;Node2 -->
<g id="edge1" class="edge">
<title>Node1&#45;&gt;Node2</title>
<path fill="none" stroke="midnightblue" d="M713.65,-72C705.5,-72.98 696.89,-74.01 688.18,-75.05"/>
<polygon fill="midnightblue" stroke="midnightblue" points="714.2,-75.46 723.71,-70.8 713.37,-68.51 714.2,-75.46"/>
</g>
<!-- Node3 -->
<g id="node3" class="node">
<title>Node3</title>
<g id="a_node3"><a xlink:href="../../d5/d13/parda__omp_8h.html#a5d46267c0ac6b1974e173b966bade09c" target="_top" xlink:title=" ">
<polygon fill="white" stroke="black" points="506.5,-33 506.5,-56 676.5,-56 676.5,-33 506.5,-33"/>
<text text-anchor="middle" x="591.5" y="-40.8" font-family="Helvetica,sans-Serif" font-size="14.00">parda_get_thread_info</text>
</a>
</g>
</g>
<!-- Node1&#45;&gt;Node3 -->
<g id="edge2" class="edge">
<title>Node1&#45;&gt;Node3</title>
<path fill="none" stroke="midnightblue" d="M713.69,-59C701.98,-57.6 689.34,-56.09 676.79,-54.59"/>
<polygon fill="midnightblue" stroke="midnightblue" points="713.37,-62.49 723.71,-60.2 714.2,-55.54 713.37,-62.49"/>
</g>
<!-- Node4 -->
<g id="node4" class="node">
<title>Node4</title>
<g id="a_node4"><a xlink:href="../../d5/d13/parda__omp_8h.html#ae6fbeb3538f797cfc948e920386b4741" target="_top" xlink:title=" ">
<polygon fill="white" stroke="black" points="304,-58 304,-81 441,-81 441,-58 304,-58"/>
<text text-anchor="middle" x="372.5" y="-65.8" font-family="Helvetica,sans-Serif" font-size="14.00">parda_omp_input</text>
</a>
</g>
</g>
<!-- Node3&#45;&gt;Node4 -->
<g id="edge3" class="edge">
<title>Node3&#45;&gt;Node4</title>
<path fill="none" stroke="midnightblue" d="M496.36,-55.35C477.8,-57.48 458.67,-59.69 441.2,-61.7"/>
<polygon fill="midnightblue" stroke="midnightblue" points="496.76,-58.82 506.29,-54.2 495.96,-51.87 496.76,-58.82"/>
</g>
<!-- Node5 -->
<g id="node5" class="node">
<title>Node5</title>
<g id="a_node5"><a xlink:href="../../d0/d82/parda__omp_8c.html#a9608f67126e55a4e283694263aef00a4" target="_top" xlink:title=" ">
<polygon fill="white" stroke="black" points="286,-0.5 286,-38.5 459,-38.5 459,-0.5 286,-0.5"/>
<text text-anchor="start" x="294" y="-23.3" font-family="Helvetica,sans-Serif" font-size="14.00">parda_omp_input_with</text>
<text text-anchor="middle" x="372.5" y="-8.3" font-family="Helvetica,sans-Serif" font-size="14.00">_filename</text>
</a>
</g>
</g>
<!-- Node3&#45;&gt;Node5 -->
<g id="edge4" class="edge">
<title>Node3&#45;&gt;Node5</title>
<path fill="none" stroke="midnightblue" d="M496.04,-33.62C483.76,-32.2 471.22,-30.76 459.09,-29.36"/>
<polygon fill="midnightblue" stroke="midnightblue" points="495.96,-37.13 506.29,-34.8 496.76,-30.18 495.96,-37.13"/>
</g>
<!-- Node6 -->
<g id="node6" class="node">
<title>Node6</title>
<g id="a_node6"><a xlink:href="../../d5/d13/parda__omp_8h.html#af99a329269ee6e1bd3f49b4442ab1097" target="_top" xlink:title=" ">
<polygon fill="white" stroke="black" points="87,-8 87,-31 250,-31 250,-8 87,-8"/>
<text text-anchor="middle" x="168.5" y="-15.8" font-family="Helvetica,sans-Serif" font-size="14.00">parda_omp_stackdist</text>
</a>
</g>
</g>
<!-- Node5&#45;&gt;Node6 -->
<g id="edge5" class="edge">
<title>Node5&#45;&gt;Node6</title>
<path fill="none" stroke="midnightblue" d="M275.8,-19.5C267.22,-19.5 258.59,-19.5 250.16,-19.5"/>
<polygon fill="midnightblue" stroke="midnightblue" points="275.83,-23 285.83,-19.5 275.83,-16 275.83,-23"/>
</g>
<!-- Node7 -->
<g id="node7" class="node">
<title>Node7</title>
<g id="a_node7"><a xlink:href="../../d0/d29/main_8c.html#a3c04138a5bfe5d72780bb7e82a18e627" target="_top" xlink:title=" ">
<polygon fill="white" stroke="black" points="0,-8 0,-31 51,-31 51,-8 0,-8"/>
<text text-anchor="middle" x="25.5" y="-15.8" font-family="Helvetica,sans-Serif" font-size="14.00">main</text>
</a>
</g>
</g>
<!-- Node6&#45;&gt;Node7 -->
<g id="edge6" class="edge">
<title>Node6&#45;&gt;Node7</title>
<path fill="none" stroke="midnightblue" d="M76.54,-19.5C67.33,-19.5 58.63,-19.5 51.14,-19.5"/>
<polygon fill="midnightblue" stroke="midnightblue" points="76.71,-23 86.71,-19.5 76.71,-16 76.71,-23"/>
</g>
</g>
</svg>
