<?xml version="1.0" encoding="UTF-8" standalone="no"?>
<!DOCTYPE svg PUBLIC "-//W3C//DTD SVG 1.1//EN"
 "http://www.w3.org/Graphics/SVG/1.1/DTD/svg11.dtd">
<!-- Generated by graphviz version 2.43.0 (0)
 -->
<!-- Title: process_one_access Pages: 1 -->
<svg width="962pt" height="139pt"
 viewBox="0.00 0.00 962.00 139.00" xmlns="http://www.w3.org/2000/svg" xmlns:xlink="http://www.w3.org/1999/xlink">
<g id="graph0" class="graph" transform="scale(1 1) rotate(0) translate(4 135)">
<title>process_one_access</title>
<polygon fill="white" stroke="transparent" points="-4,4 -4,-135 958,-135 958,4 -4,4"/>
<!-- Node1 -->
<g id="node1" class="node">
<title>Node1</title>
<g id="a_node1"><a xlink:title=" ">
<polygon fill="#bfbfbf" stroke="black" points="799,-33 799,-56 954,-56 954,-33 799,-33"/>
<text text-anchor="middle" x="876.5" y="-40.8" font-family="Helvetica,sans-Serif" font-size="14.00">process_one_access</text>
</a>
</g>
</g>
<!-- Node2 -->
<g id="node2" class="node">
<title>Node2</title>
<g id="a_node2"><a xlink:href="../../d0/dbf/parda_8h.html#a2e011afd5d113d7b404cff2b9467af8d" target="_top" xlink:title=" ">
<polygon fill="white" stroke="black" points="524,-33 524,-56 763,-56 763,-33 524,-33"/>
<text text-anchor="middle" x="643.5" y="-40.8" font-family="Helvetica,sans-Serif" font-size="14.00">parda_input_with_textfilepointer</text>
</a>
</g>
</g>
<!-- Node1&#45;&gt;Node2 -->
<g id="edge1" class="edge">
<title>Node1&#45;&gt;Node2</title>
<path fill="none" stroke="midnightblue" d="M788.74,-44.5C780.32,-44.5 771.67,-44.5 763.01,-44.5"/>
<polygon fill="midnightblue" stroke="midnightblue" points="788.9,-48 798.9,-44.5 788.9,-41 788.9,-48"/>
</g>
<!-- Node3 -->
<g id="node3" class="node">
<title>Node3</title>
<g id="a_node3"><a xlink:href="../../d0/dbf/parda_8h.html#a1505668d8e66fe882bf0368896c3a8ec" target="_top" xlink:title=" ">
<polygon fill="white" stroke="black" points="286,-58 286,-81 488,-81 488,-58 286,-58"/>
<text text-anchor="middle" x="387" y="-65.8" font-family="Helvetica,sans-Serif" font-size="14.00">parda_input_with_filename</text>
</a>
</g>
</g>
<!-- Node2&#45;&gt;Node3 -->
<g id="edge2" class="edge">
<title>Node2&#45;&gt;Node3</title>
<path fill="none" stroke="midnightblue" d="M515.12,-57.01C506.09,-57.9 497.06,-58.79 488.22,-59.66"/>
<polygon fill="midnightblue" stroke="midnightblue" points="515.7,-60.47 525.31,-56.01 515.01,-53.51 515.7,-60.47"/>
</g>
<!-- Node7 -->
<g id="node7" class="node">
<title>Node7</title>
<g id="a_node7"><a xlink:href="../../d0/d82/parda__omp_8c.html#a9608f67126e55a4e283694263aef00a4" target="_top" xlink:title=" ">
<polygon fill="white" stroke="black" points="300.5,-0.5 300.5,-38.5 473.5,-38.5 473.5,-0.5 300.5,-0.5"/>
<text text-anchor="start" x="308.5" y="-23.3" font-family="Helvetica,sans-Serif" font-size="14.00">parda_omp_input_with</text>
<text text-anchor="middle" x="387" y="-8.3" font-family="Helvetica,sans-Serif" font-size="14.00">_filename</text>
</a>
</g>
</g>
<!-- Node2&#45;&gt;Node7 -->
<g id="edge6" class="edge">
<title>Node2&#45;&gt;Node7</title>
<path fill="none" stroke="midnightblue" d="M515.12,-31.99C501.12,-30.61 487.12,-29.24 473.8,-27.93"/>
<polygon fill="midnightblue" stroke="midnightblue" points="515.01,-35.49 525.31,-32.99 515.7,-28.53 515.01,-35.49"/>
</g>
<!-- Node4 -->
<g id="node4" class="node">
<title>Node4</title>
<g id="a_node4"><a xlink:href="../../d0/dbf/parda_8h.html#ab5b52d038b8aaf5acd36508c229bd923" target="_top" xlink:title=" ">
<polygon fill="white" stroke="black" points="90,-92.5 90,-130.5 247,-130.5 247,-92.5 90,-92.5"/>
<text text-anchor="start" x="98" y="-115.3" font-family="Helvetica,sans-Serif" font-size="14.00">classical_tree_based</text>
<text text-anchor="middle" x="168.5" y="-100.3" font-family="Helvetica,sans-Serif" font-size="14.00">_stackdist</text>
</a>
</g>
</g>
<!-- Node3&#45;&gt;Node4 -->
<g id="edge3" class="edge">
<title>Node3&#45;&gt;Node4</title>
<path fill="none" stroke="midnightblue" d="M316.57,-82.97C294.42,-87.27 269.78,-92.05 247.09,-96.45"/>
<polygon fill="midnightblue" stroke="midnightblue" points="317.4,-86.37 326.55,-81.03 316.07,-79.5 317.4,-86.37"/>
</g>
<!-- Node6 -->
<g id="node6" class="node">
<title>Node6</title>
<g id="a_node6"><a xlink:href="../../d5/d13/parda__omp_8h.html#ae6fbeb3538f797cfc948e920386b4741" target="_top" xlink:title=" ">
<polygon fill="white" stroke="black" points="100,-50 100,-73 237,-73 237,-50 100,-50"/>
<text text-anchor="middle" x="168.5" y="-57.8" font-family="Helvetica,sans-Serif" font-size="14.00">parda_omp_input</text>
</a>
</g>
</g>
<!-- Node3&#45;&gt;Node6 -->
<g id="edge5" class="edge">
<title>Node3&#45;&gt;Node6</title>
<path fill="none" stroke="midnightblue" d="M275.91,-65.43C262.72,-64.94 249.57,-64.46 237.24,-64"/>
<polygon fill="midnightblue" stroke="midnightblue" points="275.87,-68.93 285.99,-65.8 276.12,-61.94 275.87,-68.93"/>
</g>
<!-- Node5 -->
<g id="node5" class="node">
<title>Node5</title>
<g id="a_node5"><a xlink:href="../../d0/d29/main_8c.html#a3c04138a5bfe5d72780bb7e82a18e627" target="_top" xlink:title=" ">
<polygon fill="white" stroke="black" points="0,-54 0,-77 51,-77 51,-54 0,-54"/>
<text text-anchor="middle" x="25.5" y="-61.8" font-family="Helvetica,sans-Serif" font-size="14.00">main</text>
</a>
</g>
</g>
<!-- Node4&#45;&gt;Node5 -->
<g id="edge4" class="edge">
<title>Node4&#45;&gt;Node5</title>
<path fill="none" stroke="midnightblue" d="M99.35,-89.27C82.03,-83.62 64.51,-77.9 51,-73.49"/>
<polygon fill="midnightblue" stroke="midnightblue" points="98.34,-92.62 108.93,-92.39 100.51,-85.96 98.34,-92.62"/>
</g>
<!-- Node8 -->
<g id="node8" class="node">
<title>Node8</title>
<g id="a_node8"><a xlink:href="../../d5/d13/parda__omp_8h.html#af99a329269ee6e1bd3f49b4442ab1097" target="_top" xlink:title=" ">
<polygon fill="white" stroke="black" points="87,-8 87,-31 250,-31 250,-8 87,-8"/>
<text text-anchor="middle" x="168.5" y="-15.8" font-family="Helvetica,sans-Serif" font-size="14.00">parda_omp_stackdist</text>
</a>
</g>
</g>
<!-- Node7&#45;&gt;Node8 -->
<g id="edge7" class="edge">
<title>Node7&#45;&gt;Node8</title>
<path fill="none" stroke="midnightblue" d="M290.27,-19.5C276.9,-19.5 263.27,-19.5 250.21,-19.5"/>
<polygon fill="midnightblue" stroke="midnightblue" points="290.43,-23 300.43,-19.5 290.43,-16 290.43,-23"/>
</g>
<!-- Node8&#45;&gt;Node5 -->
<g id="edge8" class="edge">
<title>Node8&#45;&gt;Node5</title>
<path fill="none" stroke="midnightblue" d="M108.94,-33.77C101.51,-35.88 94.05,-38.14 87,-40.5 75.04,-44.51 62.08,-49.74 51.23,-54.38"/>
<polygon fill="midnightblue" stroke="midnightblue" points="109.94,-37.13 118.66,-31.1 108.09,-30.38 109.94,-37.13"/>
</g>
</g>
</svg>
