<?xml version="1.0" encoding="UTF-8" standalone="no"?>
<!DOCTYPE svg PUBLIC "-//W3C//DTD SVG 1.1//EN"
 "http://www.w3.org/Graphics/SVG/1.1/DTD/svg11.dtd">
<!-- Generated by graphviz version 2.43.0 (0)
 -->
<!-- Title: parda_process Pages: 1 -->
<svg width="397pt" height="74pt"
 viewBox="0.00 0.00 397.00 74.00" xmlns="http://www.w3.org/2000/svg" xmlns:xlink="http://www.w3.org/1999/xlink">
<g id="graph0" class="graph" transform="scale(1 1) rotate(0) translate(4 70)">
<title>parda_process</title>
<polygon fill="white" stroke="transparent" points="-4,4 -4,-70 393,-70 393,4 -4,4"/>
<!-- Node1 -->
<g id="node1" class="node">
<title>Node1</title>
<g id="a_node1"><a xlink:title=" ">
<polygon fill="#bfbfbf" stroke="black" points="0,-21.5 0,-44.5 116,-44.5 116,-21.5 0,-21.5"/>
<text text-anchor="middle" x="58" y="-29.3" font-family="Helvetica,sans-Serif" font-size="14.00">parda_process</text>
</a>
</g>
</g>
<!-- Node2 -->
<g id="node2" class="node">
<title>Node2</title>
<g id="a_node2"><a xlink:href="../../d1/df7/splay_8c.html#a7860ad42bad70e478b3778c1eb4c42b7" target="_top" xlink:title=" ">
<polygon fill="white" stroke="black" points="198,-42.5 198,-65.5 254,-65.5 254,-42.5 198,-42.5"/>
<text text-anchor="middle" x="226" y="-50.3" font-family="Helvetica,sans-Serif" font-size="14.00">insert</text>
</a>
</g>
</g>
<!-- Node1&#45;&gt;Node2 -->
<g id="edge1" class="edge">
<title>Node1&#45;&gt;Node2</title>
<path fill="none" stroke="midnightblue" d="M116.13,-40.23C139.72,-43.21 166.4,-46.59 187.45,-49.25"/>
<polygon fill="midnightblue" stroke="midnightblue" points="187.23,-52.75 197.59,-50.53 188.11,-45.81 187.23,-52.75"/>
</g>
<!-- Node4 -->
<g id="node4" class="node">
<title>Node4</title>
<g id="a_node4"><a xlink:href="../../dc/dce/narray_8c.html#a00e1ac7249125879d43230a3f1a49b1d" target="_top" xlink:title=" ">
<polygon fill="white" stroke="black" points="152,-0.5 152,-23.5 300,-23.5 300,-0.5 152,-0.5"/>
<text text-anchor="middle" x="226" y="-8.3" font-family="Helvetica,sans-Serif" font-size="14.00">narray_append_val</text>
</a>
</g>
</g>
<!-- Node1&#45;&gt;Node4 -->
<g id="edge3" class="edge">
<title>Node1&#45;&gt;Node4</title>
<path fill="none" stroke="midnightblue" d="M116.13,-25.77C124.42,-24.72 133.09,-23.63 141.77,-22.53"/>
<polygon fill="midnightblue" stroke="midnightblue" points="142.45,-25.97 151.94,-21.24 141.57,-19.03 142.45,-25.97"/>
</g>
<!-- Node3 -->
<g id="node3" class="node">
<title>Node3</title>
<g id="a_node3"><a xlink:href="../../d1/df7/splay_8c.html#a504c21ef77c65b86162e01d158acd1d6" target="_top" xlink:title=" ">
<polygon fill="white" stroke="black" points="336,-42.5 336,-65.5 389,-65.5 389,-42.5 336,-42.5"/>
<text text-anchor="middle" x="362.5" y="-50.3" font-family="Helvetica,sans-Serif" font-size="14.00">splay</text>
</a>
</g>
</g>
<!-- Node2&#45;&gt;Node3 -->
<g id="edge2" class="edge">
<title>Node2&#45;&gt;Node3</title>
<path fill="none" stroke="midnightblue" d="M254.22,-54C274.76,-54 303.14,-54 325.55,-54"/>
<polygon fill="midnightblue" stroke="midnightblue" points="325.69,-57.5 335.69,-54 325.69,-50.5 325.69,-57.5"/>
</g>
<!-- Node5 -->
<g id="node5" class="node">
<title>Node5</title>
<g id="a_node5"><a xlink:href="../../da/de5/hostRuntime_8cpp.html#ae206dc2056b70c9901731e30447df1aa" target="_top" xlink:title=" ">
<polygon fill="white" stroke="black" points="340.5,-0.5 340.5,-23.5 384.5,-23.5 384.5,-0.5 340.5,-0.5"/>
<text text-anchor="middle" x="362.5" y="-8.3" font-family="Helvetica,sans-Serif" font-size="14.00">free</text>
</a>
</g>
</g>
<!-- Node4&#45;&gt;Node5 -->
<g id="edge4" class="edge">
<title>Node4&#45;&gt;Node5</title>
<path fill="none" stroke="midnightblue" d="M300.15,-12C310.78,-12 321.21,-12 330.37,-12"/>
<polygon fill="midnightblue" stroke="midnightblue" points="330.48,-15.5 340.48,-12 330.48,-8.5 330.48,-15.5"/>
</g>
</g>
</svg>
