<?xml version="1.0" encoding="UTF-8" standalone="no"?>
<!DOCTYPE svg PUBLIC "-//W3C//DTD SVG 1.1//EN"
 "http://www.w3.org/Graphics/SVG/1.1/DTD/svg11.dtd">
<!-- Generated by graphviz version 2.43.0 (0)
 -->
<!-- Title: parda_low Pages: 1 -->
<!--zoomable 194 -->
<svg id="main" version="1.1" xmlns="http://www.w3.org/2000/svg" xmlns:xlink="http://www.w3.org/1999/xlink" xml:space="preserve" onload="init(evt)">
<style type="text/css"><![CDATA[
.edge:hover path { stroke: red; }
.edge:hover polygon { stroke: red; fill: red; }
]]></style>
<script type="text/javascript"><![CDATA[
var edges = document.getElementsByTagName('g');
if (edges && edges.length) {
  for (var i=0;i<edges.length;i++) {
    if (edges[i].id.substr(0,4)=='edge') {
      edges[i].setAttribute('class','edge');
    }
  }
}
]]></script>
        <defs>
                <circle id="rim" cx="0" cy="0" r="7"/>
                <circle id="rim2" cx="0" cy="0" r="3.5"/>
                <g id="zoomPlus">
                        <use xlink:href="#rim" fill="#404040">
                                <set attributeName="fill" to="#808080" begin="zoomplus.mouseover" end="zoomplus.mouseout"/>
                        </use>
                        <path d="M-4,0h8M0,-4v8" fill="none" stroke="white" stroke-width="1.5" pointer-events="none"/>
                </g>
                <g id="zoomMin">
                        <use xlink:href="#rim" fill="#404040">
                                <set attributeName="fill" to="#808080" begin="zoomminus.mouseover" end="zoomminus.mouseout"/>
                        </use>
                        <path d="M-4,0h8" fill="none" stroke="white" stroke-width="1.5" pointer-events="none"/>
                </g>
                <g id="dirArrow">
                        <path fill="none" stroke="white" stroke-width="1.5" d="M0,-3.0v7 M-2.5,-0.5L0,-3.0L2.5,-0.5"/>
                </g>
               <g id="resetDef">
                       <use xlink:href="#rim2" fill="#404040">
                               <set attributeName="fill" to="#808080" begin="reset.mouseover" end="reset.mouseout"/>
                       </use>
               </g>
        </defs>

<script type="text/javascript">
var viewWidth = 948;
var viewHeight = 194;
var sectionId = 'dynsection-26';
</script>
<script xlink:href="../../svgpan.js"/>
<svg id="graph" class="graph">
<g id="viewport">
<title>parda_low</title>
<polygon fill="white" stroke="transparent" points="-4,4 -4,-190.15 944,-190.15 944,4 -4,4"/>
<!-- Node1 -->
<g id="node1" class="node">
<title>Node1</title>
<g id="a_node1"><a xlink:title=" ">
<polygon fill="#bfbfbf" stroke="black" points="854,-79.5 854,-102.5 940,-102.5 940,-79.5 854,-79.5"/>
<text text-anchor="middle" x="897" y="-87.3" font-family="Helvetica,sans-Serif" font-size="14.00">parda_low</text>
</a>
</g>
</g>
<!-- Node2 -->
<g id="node2" class="node">
<title>Node2</title>
<g id="a_node2"><a xlink:href="../../d0/dbf/parda_8h.html#a6e83fb9c7da59f819f085e24cc2a5e85" target="_top" xlink:title=" ">
<polygon fill="white" stroke="black" points="495,-140.5 495,-163.5 688,-163.5 688,-140.5 495,-140.5"/>
<text text-anchor="middle" x="591.5" y="-148.3" font-family="Helvetica,sans-Serif" font-size="14.00">parda_get_processor_info</text>
</a>
</g>
</g>
<!-- Node1&#45;&gt;Node2 -->
<g id="edge1" class="edge">
<title>Node1&#45;&gt;Node2</title>
<path fill="none" stroke="midnightblue" d="M883.59,-111.26C870.19,-130.99 846.85,-159.73 818,-172 752.9,-199.69 667.86,-178.55 623.11,-163.56"/>
<polygon fill="midnightblue" stroke="midnightblue" points="886.66,-112.96 889.19,-102.67 880.8,-109.14 886.66,-112.96"/>
</g>
<!-- Node3 -->
<g id="node3" class="node">
<title>Node3</title>
<g id="a_node3"><a xlink:href="../../d5/d13/parda__omp_8h.html#a5d46267c0ac6b1974e173b966bade09c" target="_top" xlink:title=" ">
<polygon fill="white" stroke="black" points="506.5,-98.5 506.5,-121.5 676.5,-121.5 676.5,-98.5 506.5,-98.5"/>
<text text-anchor="middle" x="591.5" y="-106.3" font-family="Helvetica,sans-Serif" font-size="14.00">parda_get_thread_info</text>
</a>
</g>
</g>
<!-- Node1&#45;&gt;Node3 -->
<g id="edge2" class="edge">
<title>Node1&#45;&gt;Node3</title>
<path fill="none" stroke="midnightblue" d="M843.78,-94.27C797.89,-97.14 730.27,-101.37 676.74,-104.73"/>
<polygon fill="midnightblue" stroke="midnightblue" points="844.04,-97.76 853.8,-93.64 843.6,-90.77 844.04,-97.76"/>
</g>
<!-- Node8 -->
<g id="node8" class="node">
<title>Node8</title>
<g id="a_node8"><a xlink:href="../../d0/dbf/parda_8h.html#acaab2e6efac0dda49e7cd3681b821bb1" target="_top" xlink:title=" ">
<polygon fill="white" stroke="black" points="724,-59.5 724,-82.5 818,-82.5 818,-59.5 724,-59.5"/>
<text text-anchor="middle" x="771" y="-67.3" font-family="Helvetica,sans-Serif" font-size="14.00">parda_high</text>
</a>
</g>
</g>
<!-- Node1&#45;&gt;Node8 -->
<g id="edge7" class="edge">
<title>Node1&#45;&gt;Node8</title>
<path fill="none" stroke="midnightblue" d="M843.61,-82.55C835.23,-81.2 826.61,-79.81 818.38,-78.48"/>
<polygon fill="midnightblue" stroke="midnightblue" points="843.24,-86.04 853.67,-84.17 844.36,-79.13 843.24,-86.04"/>
</g>
<!-- Node9 -->
<g id="node9" class="node">
<title>Node9</title>
<g id="a_node9"><a xlink:href="../../de/dfb/seperate_8h.html#aa707105e4c8a26db53702f3c61fc6970" target="_top" xlink:title=" ">
<polygon fill="white" stroke="black" points="517,-42.5 517,-65.5 666,-65.5 666,-42.5 517,-42.5"/>
<text text-anchor="middle" x="591.5" y="-50.3" font-family="Helvetica,sans-Serif" font-size="14.00">seperate_binaryfile</text>
</a>
</g>
</g>
<!-- Node1&#45;&gt;Node9 -->
<g id="edge18" class="edge">
<title>Node1&#45;&gt;Node9</title>
<path fill="none" stroke="midnightblue" d="M871.1,-73.92C856.37,-64.87 836.94,-54.68 818,-50 768.39,-37.76 710.76,-39.03 666.18,-43.23"/>
<polygon fill="midnightblue" stroke="midnightblue" points="869.3,-76.92 879.61,-79.35 873.06,-71.02 869.3,-76.92"/>
</g>
<!-- Node11 -->
<g id="node11" class="node">
<title>Node11</title>
<g id="a_node11"><a xlink:href="../../de/dfb/seperate_8h.html#a7baa57c40ff9963a510495ea573b3530" target="_top" xlink:title=" ">
<polygon fill="white" stroke="black" points="525.5,-0.5 525.5,-23.5 657.5,-23.5 657.5,-0.5 525.5,-0.5"/>
<text text-anchor="middle" x="591.5" y="-8.3" font-family="Helvetica,sans-Serif" font-size="14.00">seperate_textfile</text>
</a>
</g>
</g>
<!-- Node1&#45;&gt;Node11 -->
<g id="edge19" class="edge">
<title>Node1&#45;&gt;Node11</title>
<path fill="none" stroke="midnightblue" d="M875.64,-72.66C860.78,-60.38 839.54,-45.06 818,-37 766.35,-17.68 703.75,-12.01 657.63,-10.85"/>
<polygon fill="midnightblue" stroke="midnightblue" points="873.73,-75.63 883.61,-79.45 878.27,-70.3 873.73,-75.63"/>
</g>
<!-- Node12 -->
<g id="node12" class="node">
<title>Node12</title>
<g id="a_node12"><a xlink:href="../../d0/dbf/parda_8h.html#a8b096049ef5ab82de4e5eaa0c22aedd6" target="_top" xlink:title=" ">
<polygon fill="white" stroke="black" points="726,-139.5 726,-162.5 816,-162.5 816,-139.5 726,-139.5"/>
<text text-anchor="middle" x="771" y="-147.3" font-family="Helvetica,sans-Serif" font-size="14.00">parda_size</text>
</a>
</g>
</g>
<!-- Node1&#45;&gt;Node12 -->
<g id="edge15" class="edge">
<title>Node1&#45;&gt;Node12</title>
<path fill="none" stroke="midnightblue" d="M862.84,-107.04C841.72,-117.26 814.86,-130.26 795.84,-139.47"/>
<polygon fill="midnightblue" stroke="midnightblue" points="864.61,-110.07 872.09,-102.57 861.57,-103.77 864.61,-110.07"/>
</g>
<!-- Node4 -->
<g id="node4" class="node">
<title>Node4</title>
<g id="a_node4"><a xlink:href="../../d5/d13/parda__omp_8h.html#ae6fbeb3538f797cfc948e920386b4741" target="_top" xlink:title=" ">
<polygon fill="white" stroke="black" points="304,-63.5 304,-86.5 441,-86.5 441,-63.5 304,-63.5"/>
<text text-anchor="middle" x="372.5" y="-71.3" font-family="Helvetica,sans-Serif" font-size="14.00">parda_omp_input</text>
</a>
</g>
</g>
<!-- Node3&#45;&gt;Node4 -->
<g id="edge3" class="edge">
<title>Node3&#45;&gt;Node4</title>
<path fill="none" stroke="midnightblue" d="M509.01,-96.86C486.67,-93.25 462.69,-89.39 441.21,-85.92"/>
<polygon fill="midnightblue" stroke="midnightblue" points="508.72,-100.35 519.15,-98.49 509.83,-93.44 508.72,-100.35"/>
</g>
<!-- Node5 -->
<g id="node5" class="node">
<title>Node5</title>
<g id="a_node5"><a xlink:href="../../d0/d82/parda__omp_8c.html#a9608f67126e55a4e283694263aef00a4" target="_top" xlink:title=" ">
<polygon fill="white" stroke="black" points="286,-106 286,-144 459,-144 459,-106 286,-106"/>
<text text-anchor="start" x="294" y="-128.8" font-family="Helvetica,sans-Serif" font-size="14.00">parda_omp_input_with</text>
<text text-anchor="middle" x="372.5" y="-113.8" font-family="Helvetica,sans-Serif" font-size="14.00">_filename</text>
</a>
</g>
</g>
<!-- Node3&#45;&gt;Node5 -->
<g id="edge4" class="edge">
<title>Node3&#45;&gt;Node5</title>
<path fill="none" stroke="midnightblue" d="M496.04,-116.53C483.76,-117.38 471.22,-118.24 459.09,-119.08"/>
<polygon fill="midnightblue" stroke="midnightblue" points="496.56,-120 506.29,-115.82 496.07,-113.02 496.56,-120"/>
</g>
<!-- Node6 -->
<g id="node6" class="node">
<title>Node6</title>
<g id="a_node6"><a xlink:href="../../d5/d13/parda__omp_8h.html#af99a329269ee6e1bd3f49b4442ab1097" target="_top" xlink:title=" ">
<polygon fill="white" stroke="black" points="87,-100.5 87,-123.5 250,-123.5 250,-100.5 87,-100.5"/>
<text text-anchor="middle" x="168.5" y="-108.3" font-family="Helvetica,sans-Serif" font-size="14.00">parda_omp_stackdist</text>
</a>
</g>
</g>
<!-- Node5&#45;&gt;Node6 -->
<g id="edge5" class="edge">
<title>Node5&#45;&gt;Node6</title>
<path fill="none" stroke="midnightblue" d="M275.8,-118.84C267.22,-118.29 258.59,-117.73 250.16,-117.19"/>
<polygon fill="midnightblue" stroke="midnightblue" points="275.63,-122.34 285.83,-119.49 276.08,-115.35 275.63,-122.34"/>
</g>
<!-- Node7 -->
<g id="node7" class="node">
<title>Node7</title>
<g id="a_node7"><a xlink:href="../../d0/d29/main_8c.html#a3c04138a5bfe5d72780bb7e82a18e627" target="_top" xlink:title=" ">
<polygon fill="white" stroke="black" points="0,-67.5 0,-90.5 51,-90.5 51,-67.5 0,-67.5"/>
<text text-anchor="middle" x="25.5" y="-75.3" font-family="Helvetica,sans-Serif" font-size="14.00">main</text>
</a>
</g>
</g>
<!-- Node6&#45;&gt;Node7 -->
<g id="edge6" class="edge">
<title>Node6&#45;&gt;Node7</title>
<path fill="none" stroke="midnightblue" d="M108.44,-98.18C88.32,-93.47 66.93,-88.46 51.05,-84.74"/>
<polygon fill="midnightblue" stroke="midnightblue" points="107.65,-101.59 118.19,-100.46 109.25,-94.77 107.65,-101.59"/>
</g>
<!-- Node8&#45;&gt;Node2 -->
<g id="edge8" class="edge">
<title>Node8&#45;&gt;Node2</title>
<path fill="none" stroke="midnightblue" d="M750.19,-89.19C734.45,-102.68 711.27,-120.49 688,-131 679.64,-134.77 670.57,-137.89 661.44,-140.45"/>
<polygon fill="midnightblue" stroke="midnightblue" points="752.5,-91.82 757.71,-82.59 747.89,-86.56 752.5,-91.82"/>
</g>
<!-- Node8&#45;&gt;Node3 -->
<g id="edge9" class="edge">
<title>Node8&#45;&gt;Node3</title>
<path fill="none" stroke="midnightblue" d="M713.94,-83.32C691.9,-88.16 666.72,-93.69 645.03,-98.46"/>
<polygon fill="midnightblue" stroke="midnightblue" points="714.81,-86.71 723.83,-81.14 713.31,-79.87 714.81,-86.71"/>
</g>
<!-- Node8&#45;&gt;Node9 -->
<g id="edge10" class="edge">
<title>Node8&#45;&gt;Node9</title>
<path fill="none" stroke="midnightblue" d="M713.67,-65.6C698.62,-64.16 682.13,-62.58 666.29,-61.07"/>
<polygon fill="midnightblue" stroke="midnightblue" points="713.54,-69.11 723.83,-66.58 714.21,-62.14 713.54,-69.11"/>
</g>
<!-- Node8&#45;&gt;Node11 -->
<g id="edge13" class="edge">
<title>Node8&#45;&gt;Node11</title>
<path fill="none" stroke="midnightblue" d="M738.91,-54.65C723.85,-47.23 705.32,-38.84 688,-33 677.3,-29.39 665.72,-26.24 654.43,-23.56"/>
<polygon fill="midnightblue" stroke="midnightblue" points="737.75,-57.98 748.26,-59.34 740.89,-51.72 737.75,-57.98"/>
</g>
<!-- Node10 -->
<g id="node10" class="node">
<title>Node10</title>
<g id="a_node10"><a xlink:href="../../de/dfb/seperate_8h.html#a85143f432d331557ef6cb42706a78205" target="_top" xlink:title=" ">
<polygon fill="white" stroke="black" points="296.5,-21.5 296.5,-44.5 448.5,-44.5 448.5,-21.5 296.5,-21.5"/>
<text text-anchor="middle" x="372.5" y="-29.3" font-family="Helvetica,sans-Serif" font-size="14.00">parda_seperate_file</text>
</a>
</g>
</g>
<!-- Node9&#45;&gt;Node10 -->
<g id="edge11" class="edge">
<title>Node9&#45;&gt;Node10</title>
<path fill="none" stroke="midnightblue" d="M506.55,-45.88C487.44,-44.03 467.25,-42.07 448.54,-40.26"/>
<polygon fill="midnightblue" stroke="midnightblue" points="506.44,-49.38 516.73,-46.86 507.11,-42.41 506.44,-49.38"/>
</g>
<!-- Node10&#45;&gt;Node7 -->
<g id="edge12" class="edge">
<title>Node10&#45;&gt;Node7</title>
<path fill="none" stroke="midnightblue" d="M285.99,-44.4C208.58,-54.72 99.51,-69.27 51.19,-75.71"/>
<polygon fill="midnightblue" stroke="midnightblue" points="286.76,-47.83 296.21,-43.04 285.84,-40.89 286.76,-47.83"/>
</g>
<!-- Node11&#45;&gt;Node10 -->
<g id="edge14" class="edge">
<title>Node11&#45;&gt;Node10</title>
<path fill="none" stroke="midnightblue" d="M515.33,-19.27C493.82,-21.36 470.38,-23.62 448.86,-25.71"/>
<polygon fill="midnightblue" stroke="midnightblue" points="515.78,-22.75 525.39,-18.3 515.1,-15.78 515.78,-22.75"/>
</g>
<!-- Node12&#45;&gt;Node2 -->
<g id="edge16" class="edge">
<title>Node12&#45;&gt;Node2</title>
<path fill="none" stroke="midnightblue" d="M715.39,-151.31C706.73,-151.36 697.55,-151.41 688.28,-151.46"/>
<polygon fill="midnightblue" stroke="midnightblue" points="715.69,-154.81 725.67,-151.25 715.65,-147.81 715.69,-154.81"/>
</g>
<!-- Node12&#45;&gt;Node3 -->
<g id="edge17" class="edge">
<title>Node12&#45;&gt;Node3</title>
<path fill="none" stroke="midnightblue" d="M715.86,-137.61C706.57,-135.37 697.02,-133.09 688,-131 674.36,-127.84 659.59,-124.53 645.84,-121.5"/>
<polygon fill="midnightblue" stroke="midnightblue" points="715.24,-141.06 725.79,-140.02 716.89,-134.26 715.24,-141.06"/>
</g>
</g>
</svg>
        <g id="navigator" transform="translate(0 0)" fill="#404254">
                <rect fill="#f2f5e9" fill-opacity="0.5" stroke="#606060" stroke-width=".5" x="0" y="0" width="60" height="60"/>
                <use id="zoomplus" xlink:href="#zoomPlus" x="17" y="9" onmousedown="handleZoom(evt,'in')"/>
                <use id="zoomminus" xlink:href="#zoomMin" x="42" y="9" onmousedown="handleZoom(evt,'out')"/>
                <use id="reset" xlink:href="#resetDef" x="30" y="36" onmousedown="handleReset()"/>
                <g id="arrowUp" xlink:href="#dirArrow" transform="translate(30 24)" onmousedown="handlePan(0,-1)">
                  <use xlink:href="#rim" fill="#404040">
                        <set attributeName="fill" to="#808080" begin="arrowUp.mouseover" end="arrowUp.mouseout"/>
                  </use>
                  <path fill="none" stroke="white" stroke-width="1.5" d="M0,-3.0v7 M-2.5,-0.5L0,-3.0L2.5,-0.5"/>
                </g>
                <g id="arrowRight" xlink:href="#dirArrow" transform="rotate(90) translate(36 -43)" onmousedown="handlePan(1,0)">
                  <use xlink:href="#rim" fill="#404040">
                        <set attributeName="fill" to="#808080" begin="arrowRight.mouseover" end="arrowRight.mouseout"/>
                  </use>
                  <path fill="none" stroke="white" stroke-width="1.5" d="M0,-3.0v7 M-2.5,-0.5L0,-3.0L2.5,-0.5"/>
                </g>
                <g id="arrowDown" xlink:href="#dirArrow" transform="rotate(180) translate(-30 -48)" onmousedown="handlePan(0,1)">
                  <use xlink:href="#rim" fill="#404040">
                        <set attributeName="fill" to="#808080" begin="arrowDown.mouseover" end="arrowDown.mouseout"/>
                  </use>
                  <path fill="none" stroke="white" stroke-width="1.5" d="M0,-3.0v7 M-2.5,-0.5L0,-3.0L2.5,-0.5"/>
                </g>
                <g id="arrowLeft" xlink:href="#dirArrow" transform="rotate(270) translate(-36 17)" onmousedown="handlePan(-1,0)">
                  <use xlink:href="#rim" fill="#404040">
                        <set attributeName="fill" to="#808080" begin="arrowLeft.mouseover" end="arrowLeft.mouseout"/>
                  </use>
                  <path fill="none" stroke="white" stroke-width="1.5" d="M0,-3.0v7 M-2.5,-0.5L0,-3.0L2.5,-0.5"/>
                </g>
        </g>
        <svg viewBox="0 0 15 15" width="100%" height="30px" preserveAspectRatio="xMaxYMin meet">
         <g id="arrow_out" transform="scale(0.3 0.3)">
          <a xlink:href="parda_8h_ae98c5df9941618081aa7dd90a30627fc_icgraph_org.svg" target="_base">
           <rect id="button" ry="5" rx="5" y="6" x="6" height="38" width="38"
                fill="#f2f5e9" fill-opacity="0.5" stroke="#606060" stroke-width="1.0"/>
           <path id="arrow"
             d="M 11.500037,31.436501 C 11.940474,20.09759 22.043105,11.32322 32.158766,21.979434 L 37.068811,17.246167 C 37.068811,17.246167 37.088388,32 37.088388,32 L 22.160133,31.978069 C 22.160133,31.978069 26.997745,27.140456 26.997745,27.140456 C 18.528582,18.264221 13.291696,25.230495 11.500037,31.436501 z"
             style="fill:#404040;"/>
          </a>
         </g>
        </svg>
</svg>
