<?xml version="1.0" encoding="UTF-8" standalone="no"?>
<!DOCTYPE svg PUBLIC "-//W3C//DTD SVG 1.1//EN"
 "http://www.w3.org/Graphics/SVG/1.1/DTD/svg11.dtd">
<!-- Generated by graphviz version 2.43.0 (0)
 -->
<!-- Title: process_one_access_shared Pages: 1 -->
<svg width="436pt" height="74pt"
 viewBox="0.00 0.00 436.00 74.00" xmlns="http://www.w3.org/2000/svg" xmlns:xlink="http://www.w3.org/1999/xlink">
<g id="graph0" class="graph" transform="scale(1 1) rotate(0) translate(4 70)">
<title>process_one_access_shared</title>
<polygon fill="white" stroke="transparent" points="-4,4 -4,-70 432,-70 432,4 -4,4"/>
<!-- Node1 -->
<g id="node1" class="node">
<title>Node1</title>
<g id="a_node1"><a xlink:title=" ">
<polygon fill="#bfbfbf" stroke="black" points="0,-14 0,-52 155,-52 155,-14 0,-14"/>
<text text-anchor="start" x="8" y="-36.8" font-family="Helvetica,sans-Serif" font-size="14.00">process_one_access</text>
<text text-anchor="middle" x="77.5" y="-21.8" font-family="Helvetica,sans-Serif" font-size="14.00">_shared</text>
</a>
</g>
</g>
<!-- Node2 -->
<g id="node2" class="node">
<title>Node2</title>
<g id="a_node2"><a xlink:href="../../d1/df7/splay_8c.html#a7860ad42bad70e478b3778c1eb4c42b7" target="_top" xlink:title=" ">
<polygon fill="white" stroke="black" points="237,-42.5 237,-65.5 293,-65.5 293,-42.5 237,-42.5"/>
<text text-anchor="middle" x="265" y="-50.3" font-family="Helvetica,sans-Serif" font-size="14.00">insert</text>
</a>
</g>
</g>
<!-- Node1&#45;&gt;Node2 -->
<g id="edge1" class="edge">
<title>Node1&#45;&gt;Node2</title>
<path fill="none" stroke="midnightblue" d="M155.02,-41.66C179.67,-44.45 205.89,-47.42 226.44,-49.75"/>
<polygon fill="midnightblue" stroke="midnightblue" points="226.3,-53.25 236.63,-50.9 227.08,-46.3 226.3,-53.25"/>
</g>
<!-- Node4 -->
<g id="node4" class="node">
<title>Node4</title>
<g id="a_node4"><a xlink:href="../../dc/dce/narray_8c.html#a00e1ac7249125879d43230a3f1a49b1d" target="_top" xlink:title=" ">
<polygon fill="white" stroke="black" points="191,-0.5 191,-23.5 339,-23.5 339,-0.5 191,-0.5"/>
<text text-anchor="middle" x="265" y="-8.3" font-family="Helvetica,sans-Serif" font-size="14.00">narray_append_val</text>
</a>
</g>
</g>
<!-- Node1&#45;&gt;Node4 -->
<g id="edge3" class="edge">
<title>Node1&#45;&gt;Node4</title>
<path fill="none" stroke="midnightblue" d="M155.02,-24.34C163.56,-23.37 172.28,-22.38 180.9,-21.41"/>
<polygon fill="midnightblue" stroke="midnightblue" points="181.39,-24.87 190.94,-20.27 180.61,-17.92 181.39,-24.87"/>
</g>
<!-- Node3 -->
<g id="node3" class="node">
<title>Node3</title>
<g id="a_node3"><a xlink:href="../../d1/df7/splay_8c.html#a504c21ef77c65b86162e01d158acd1d6" target="_top" xlink:title=" ">
<polygon fill="white" stroke="black" points="375,-42.5 375,-65.5 428,-65.5 428,-42.5 375,-42.5"/>
<text text-anchor="middle" x="401.5" y="-50.3" font-family="Helvetica,sans-Serif" font-size="14.00">splay</text>
</a>
</g>
</g>
<!-- Node2&#45;&gt;Node3 -->
<g id="edge2" class="edge">
<title>Node2&#45;&gt;Node3</title>
<path fill="none" stroke="midnightblue" d="M293.22,-54C313.76,-54 342.14,-54 364.55,-54"/>
<polygon fill="midnightblue" stroke="midnightblue" points="364.69,-57.5 374.69,-54 364.69,-50.5 364.69,-57.5"/>
</g>
<!-- Node5 -->
<g id="node5" class="node">
<title>Node5</title>
<g id="a_node5"><a xlink:href="../../da/de5/hostRuntime_8cpp.html#ae206dc2056b70c9901731e30447df1aa" target="_top" xlink:title=" ">
<polygon fill="white" stroke="black" points="379.5,-0.5 379.5,-23.5 423.5,-23.5 423.5,-0.5 379.5,-0.5"/>
<text text-anchor="middle" x="401.5" y="-8.3" font-family="Helvetica,sans-Serif" font-size="14.00">free</text>
</a>
</g>
</g>
<!-- Node4&#45;&gt;Node5 -->
<g id="edge4" class="edge">
<title>Node4&#45;&gt;Node5</title>
<path fill="none" stroke="midnightblue" d="M339.15,-12C349.78,-12 360.21,-12 369.37,-12"/>
<polygon fill="midnightblue" stroke="midnightblue" points="369.48,-15.5 379.48,-12 369.48,-8.5 369.48,-15.5"/>
</g>
</g>
</svg>
