<?xml version="1.0" encoding="UTF-8" standalone="no"?>
<!DOCTYPE svg PUBLIC "-//W3C//DTD SVG 1.1//EN"
 "http://www.w3.org/Graphics/SVG/1.1/DTD/svg11.dtd">
<!-- Generated by graphviz version 2.43.0 (0)
 -->
<!-- Title: parda_generate_pfilename Pages: 1 -->
<svg width="896pt" height="158pt"
 viewBox="0.00 0.00 896.00 158.00" xmlns="http://www.w3.org/2000/svg" xmlns:xlink="http://www.w3.org/1999/xlink">
<g id="graph0" class="graph" transform="scale(1 1) rotate(0) translate(4 154)">
<title>parda_generate_pfilename</title>
<polygon fill="white" stroke="transparent" points="-4,4 -4,-154 892,-154 892,4 -4,4"/>
<!-- Node1 -->
<g id="node1" class="node">
<title>Node1</title>
<g id="a_node1"><a xlink:title=" ">
<polygon fill="#bfbfbf" stroke="black" points="687,-63.5 687,-86.5 888,-86.5 888,-63.5 687,-63.5"/>
<text text-anchor="middle" x="787.5" y="-71.3" font-family="Helvetica,sans-Serif" font-size="14.00">parda_generate_pfilename</text>
</a>
</g>
</g>
<!-- Node2 -->
<g id="node2" class="node">
<title>Node2</title>
<g id="a_node2"><a xlink:href="../../d5/d13/parda__omp_8h.html#ae6fbeb3538f797cfc948e920386b4741" target="_top" xlink:title=" ">
<polygon fill="white" stroke="black" points="504.5,-126.5 504.5,-149.5 641.5,-149.5 641.5,-126.5 504.5,-126.5"/>
<text text-anchor="middle" x="573" y="-134.3" font-family="Helvetica,sans-Serif" font-size="14.00">parda_omp_input</text>
</a>
</g>
</g>
<!-- Node1&#45;&gt;Node2 -->
<g id="edge1" class="edge">
<title>Node1&#45;&gt;Node2</title>
<path fill="none" stroke="midnightblue" d="M740.71,-89.62C714.51,-97.88 680.98,-108.27 651,-117 640.09,-120.18 628.27,-123.47 617.24,-126.49"/>
<polygon fill="midnightblue" stroke="midnightblue" points="741.89,-92.92 750.37,-86.57 739.78,-86.25 741.89,-92.92"/>
</g>
<!-- Node3 -->
<g id="node3" class="node">
<title>Node3</title>
<g id="a_node3"><a xlink:href="../../d0/d82/parda__omp_8c.html#ad56cad2d13d0e6b3cc0fb151a1766a6d" target="_top" xlink:title=" ">
<polygon fill="white" stroke="black" points="495,-84.5 495,-107.5 651,-107.5 651,-84.5 495,-84.5"/>
<text text-anchor="middle" x="573" y="-92.3" font-family="Helvetica,sans-Serif" font-size="14.00">parda_omp_openfile</text>
</a>
</g>
</g>
<!-- Node1&#45;&gt;Node3 -->
<g id="edge2" class="edge">
<title>Node1&#45;&gt;Node3</title>
<path fill="none" stroke="midnightblue" d="M676.67,-85.85C668.06,-86.7 659.48,-87.55 651.15,-88.38"/>
<polygon fill="midnightblue" stroke="midnightblue" points="677.18,-89.32 686.78,-84.85 676.49,-82.35 677.18,-89.32"/>
</g>
<!-- Node7 -->
<g id="node7" class="node">
<title>Node7</title>
<g id="a_node7"><a xlink:href="../../de/dfb/seperate_8h.html#aa707105e4c8a26db53702f3c61fc6970" target="_top" xlink:title=" ">
<polygon fill="white" stroke="black" points="498.5,-42.5 498.5,-65.5 647.5,-65.5 647.5,-42.5 498.5,-42.5"/>
<text text-anchor="middle" x="573" y="-50.3" font-family="Helvetica,sans-Serif" font-size="14.00">seperate_binaryfile</text>
</a>
</g>
</g>
<!-- Node1&#45;&gt;Node7 -->
<g id="edge6" class="edge">
<title>Node1&#45;&gt;Node7</title>
<path fill="none" stroke="midnightblue" d="M676.6,-64.14C666.82,-63.17 657.09,-62.21 647.72,-61.29"/>
<polygon fill="midnightblue" stroke="midnightblue" points="676.49,-67.65 686.78,-65.15 677.18,-60.68 676.49,-67.65"/>
</g>
<!-- Node9 -->
<g id="node9" class="node">
<title>Node9</title>
<g id="a_node9"><a xlink:href="../../de/dfb/seperate_8h.html#a7baa57c40ff9963a510495ea573b3530" target="_top" xlink:title=" ">
<polygon fill="white" stroke="black" points="507,-0.5 507,-23.5 639,-23.5 639,-0.5 507,-0.5"/>
<text text-anchor="middle" x="573" y="-8.3" font-family="Helvetica,sans-Serif" font-size="14.00">seperate_textfile</text>
</a>
</g>
</g>
<!-- Node1&#45;&gt;Node9 -->
<g id="edge9" class="edge">
<title>Node1&#45;&gt;Node9</title>
<path fill="none" stroke="midnightblue" d="M740.71,-60.38C714.51,-52.12 680.98,-41.73 651,-33 640.09,-29.82 628.27,-26.53 617.24,-23.51"/>
<polygon fill="midnightblue" stroke="midnightblue" points="739.78,-63.75 750.37,-63.43 741.89,-57.08 739.78,-63.75"/>
</g>
<!-- Node4 -->
<g id="node4" class="node">
<title>Node4</title>
<g id="a_node4"><a xlink:href="../../d0/d82/parda__omp_8c.html#a9608f67126e55a4e283694263aef00a4" target="_top" xlink:title=" ">
<polygon fill="white" stroke="black" points="286,-77 286,-115 459,-115 459,-77 286,-77"/>
<text text-anchor="start" x="294" y="-99.8" font-family="Helvetica,sans-Serif" font-size="14.00">parda_omp_input_with</text>
<text text-anchor="middle" x="372.5" y="-84.8" font-family="Helvetica,sans-Serif" font-size="14.00">_filename</text>
</a>
</g>
</g>
<!-- Node3&#45;&gt;Node4 -->
<g id="edge3" class="edge">
<title>Node3&#45;&gt;Node4</title>
<path fill="none" stroke="midnightblue" d="M484.95,-96C476.35,-96 467.63,-96 459.05,-96"/>
<polygon fill="midnightblue" stroke="midnightblue" points="484.97,-99.5 494.97,-96 484.97,-92.5 484.97,-99.5"/>
</g>
<!-- Node5 -->
<g id="node5" class="node">
<title>Node5</title>
<g id="a_node5"><a xlink:href="../../d5/d13/parda__omp_8h.html#af99a329269ee6e1bd3f49b4442ab1097" target="_top" xlink:title=" ">
<polygon fill="white" stroke="black" points="87,-81.5 87,-104.5 250,-104.5 250,-81.5 87,-81.5"/>
<text text-anchor="middle" x="168.5" y="-89.3" font-family="Helvetica,sans-Serif" font-size="14.00">parda_omp_stackdist</text>
</a>
</g>
</g>
<!-- Node4&#45;&gt;Node5 -->
<g id="edge4" class="edge">
<title>Node4&#45;&gt;Node5</title>
<path fill="none" stroke="midnightblue" d="M275.8,-94.58C267.22,-94.45 258.59,-94.32 250.16,-94.2"/>
<polygon fill="midnightblue" stroke="midnightblue" points="275.78,-98.08 285.83,-94.73 275.89,-91.08 275.78,-98.08"/>
</g>
<!-- Node6 -->
<g id="node6" class="node">
<title>Node6</title>
<g id="a_node6"><a xlink:href="../../d0/d29/main_8c.html#a3c04138a5bfe5d72780bb7e82a18e627" target="_top" xlink:title=" ">
<polygon fill="white" stroke="black" points="0,-59.5 0,-82.5 51,-82.5 51,-59.5 0,-59.5"/>
<text text-anchor="middle" x="25.5" y="-67.3" font-family="Helvetica,sans-Serif" font-size="14.00">main</text>
</a>
</g>
</g>
<!-- Node5&#45;&gt;Node6 -->
<g id="edge5" class="edge">
<title>Node5&#45;&gt;Node6</title>
<path fill="none" stroke="midnightblue" d="M83.7,-79.92C71.91,-78.08 60.63,-76.33 51.25,-74.86"/>
<polygon fill="midnightblue" stroke="midnightblue" points="83.28,-83.4 93.7,-81.48 84.36,-76.48 83.28,-83.4"/>
</g>
<!-- Node8 -->
<g id="node8" class="node">
<title>Node8</title>
<g id="a_node8"><a xlink:href="../../de/dfb/seperate_8h.html#a85143f432d331557ef6cb42706a78205" target="_top" xlink:title=" ">
<polygon fill="white" stroke="black" points="296.5,-34.5 296.5,-57.5 448.5,-57.5 448.5,-34.5 296.5,-34.5"/>
<text text-anchor="middle" x="372.5" y="-42.3" font-family="Helvetica,sans-Serif" font-size="14.00">parda_seperate_file</text>
</a>
</g>
</g>
<!-- Node7&#45;&gt;Node8 -->
<g id="edge7" class="edge">
<title>Node7&#45;&gt;Node8</title>
<path fill="none" stroke="midnightblue" d="M487.99,-50.61C474.93,-50.09 461.52,-49.55 448.67,-49.03"/>
<polygon fill="midnightblue" stroke="midnightblue" points="488.24,-54.13 498.37,-51.03 488.52,-47.13 488.24,-54.13"/>
</g>
<!-- Node8&#45;&gt;Node6 -->
<g id="edge8" class="edge">
<title>Node8&#45;&gt;Node6</title>
<path fill="none" stroke="midnightblue" d="M285.99,-52.2C208.58,-57.81 99.51,-65.71 51.19,-69.21"/>
<polygon fill="midnightblue" stroke="midnightblue" points="286.49,-55.67 296.21,-51.46 285.99,-48.69 286.49,-55.67"/>
</g>
<!-- Node9&#45;&gt;Node8 -->
<g id="edge10" class="edge">
<title>Node9&#45;&gt;Node8</title>
<path fill="none" stroke="midnightblue" d="M496.67,-24.9C478.32,-28.05 458.81,-31.39 440.85,-34.46"/>
<polygon fill="midnightblue" stroke="midnightblue" points="497.46,-28.32 506.73,-23.18 496.28,-21.42 497.46,-28.32"/>
</g>
</g>
</svg>
