<?xml version="1.0" encoding="UTF-8" standalone="no"?>
<!DOCTYPE svg PUBLIC "-//W3C//DTD SVG 1.1//EN"
 "http://www.w3.org/Graphics/SVG/1.1/DTD/svg11.dtd">
<!-- Generated by graphviz version 2.43.0 (0)
 -->
<!-- Title: parda_high Pages: 1 -->
<svg width="826pt" height="158pt"
 viewBox="0.00 0.00 826.00 158.00" xmlns="http://www.w3.org/2000/svg" xmlns:xlink="http://www.w3.org/1999/xlink">
<g id="graph0" class="graph" transform="scale(1 1) rotate(0) translate(4 154)">
<title>parda_high</title>
<polygon fill="white" stroke="transparent" points="-4,4 -4,-154 822,-154 822,4 -4,4"/>
<!-- Node1 -->
<g id="node1" class="node">
<title>Node1</title>
<g id="a_node1"><a xlink:title=" ">
<polygon fill="#bfbfbf" stroke="black" points="724,-63.5 724,-86.5 818,-86.5 818,-63.5 724,-63.5"/>
<text text-anchor="middle" x="771" y="-71.3" font-family="Helvetica,sans-Serif" font-size="14.00">parda_high</text>
</a>
</g>
</g>
<!-- Node2 -->
<g id="node2" class="node">
<title>Node2</title>
<g id="a_node2"><a xlink:href="../../d0/dbf/parda_8h.html#a6e83fb9c7da59f819f085e24cc2a5e85" target="_top" xlink:title=" ">
<polygon fill="white" stroke="black" points="495,-126.5 495,-149.5 688,-149.5 688,-126.5 495,-126.5"/>
<text text-anchor="middle" x="591.5" y="-134.3" font-family="Helvetica,sans-Serif" font-size="14.00">parda_get_processor_info</text>
</a>
</g>
</g>
<!-- Node1&#45;&gt;Node2 -->
<g id="edge1" class="edge">
<title>Node1&#45;&gt;Node2</title>
<path fill="none" stroke="midnightblue" d="M741.74,-91.76C726.29,-100.33 706.57,-110.33 688,-117 677.78,-120.67 666.69,-123.82 655.82,-126.48"/>
<polygon fill="midnightblue" stroke="midnightblue" points="743.78,-94.63 750.75,-86.66 740.33,-88.54 743.78,-94.63"/>
</g>
<!-- Node3 -->
<g id="node3" class="node">
<title>Node3</title>
<g id="a_node3"><a xlink:href="../../d5/d13/parda__omp_8h.html#a5d46267c0ac6b1974e173b966bade09c" target="_top" xlink:title=" ">
<polygon fill="white" stroke="black" points="506.5,-84.5 506.5,-107.5 676.5,-107.5 676.5,-84.5 506.5,-84.5"/>
<text text-anchor="middle" x="591.5" y="-92.3" font-family="Helvetica,sans-Serif" font-size="14.00">parda_get_thread_info</text>
</a>
</g>
</g>
<!-- Node1&#45;&gt;Node3 -->
<g id="edge2" class="edge">
<title>Node1&#45;&gt;Node3</title>
<path fill="none" stroke="midnightblue" d="M713.7,-81.66C701.89,-83.06 689.19,-84.56 676.62,-86.05"/>
<polygon fill="midnightblue" stroke="midnightblue" points="714.31,-85.11 723.83,-80.46 713.49,-78.16 714.31,-85.11"/>
</g>
<!-- Node8 -->
<g id="node8" class="node">
<title>Node8</title>
<g id="a_node8"><a xlink:href="../../de/dfb/seperate_8h.html#aa707105e4c8a26db53702f3c61fc6970" target="_top" xlink:title=" ">
<polygon fill="white" stroke="black" points="517,-42.5 517,-65.5 666,-65.5 666,-42.5 517,-42.5"/>
<text text-anchor="middle" x="591.5" y="-50.3" font-family="Helvetica,sans-Serif" font-size="14.00">seperate_binaryfile</text>
</a>
</g>
</g>
<!-- Node1&#45;&gt;Node8 -->
<g id="edge7" class="edge">
<title>Node1&#45;&gt;Node8</title>
<path fill="none" stroke="midnightblue" d="M713.67,-68.34C698.62,-66.55 682.13,-64.6 666.29,-62.73"/>
<polygon fill="midnightblue" stroke="midnightblue" points="713.49,-71.84 723.83,-69.54 714.31,-64.89 713.49,-71.84"/>
</g>
<!-- Node10 -->
<g id="node10" class="node">
<title>Node10</title>
<g id="a_node10"><a xlink:href="../../de/dfb/seperate_8h.html#a7baa57c40ff9963a510495ea573b3530" target="_top" xlink:title=" ">
<polygon fill="white" stroke="black" points="525.5,-0.5 525.5,-23.5 657.5,-23.5 657.5,-0.5 525.5,-0.5"/>
<text text-anchor="middle" x="591.5" y="-8.3" font-family="Helvetica,sans-Serif" font-size="14.00">seperate_textfile</text>
</a>
</g>
</g>
<!-- Node1&#45;&gt;Node10 -->
<g id="edge10" class="edge">
<title>Node1&#45;&gt;Node10</title>
<path fill="none" stroke="midnightblue" d="M741.74,-58.24C726.29,-49.67 706.57,-39.67 688,-33 677.78,-29.33 666.69,-26.18 655.82,-23.52"/>
<polygon fill="midnightblue" stroke="midnightblue" points="740.33,-61.46 750.75,-63.34 743.78,-55.37 740.33,-61.46"/>
</g>
<!-- Node4 -->
<g id="node4" class="node">
<title>Node4</title>
<g id="a_node4"><a xlink:href="../../d5/d13/parda__omp_8h.html#ae6fbeb3538f797cfc948e920386b4741" target="_top" xlink:title=" ">
<polygon fill="white" stroke="black" points="304,-117.5 304,-140.5 441,-140.5 441,-117.5 304,-117.5"/>
<text text-anchor="middle" x="372.5" y="-125.3" font-family="Helvetica,sans-Serif" font-size="14.00">parda_omp_input</text>
</a>
</g>
</g>
<!-- Node3&#45;&gt;Node4 -->
<g id="edge3" class="edge">
<title>Node3&#45;&gt;Node4</title>
<path fill="none" stroke="midnightblue" d="M504.66,-109.05C483.51,-112.27 461.17,-115.67 441.03,-118.73"/>
<polygon fill="midnightblue" stroke="midnightblue" points="505.24,-112.51 514.6,-107.54 504.19,-105.59 505.24,-112.51"/>
</g>
<!-- Node5 -->
<g id="node5" class="node">
<title>Node5</title>
<g id="a_node5"><a xlink:href="../../d0/d82/parda__omp_8c.html#a9608f67126e55a4e283694263aef00a4" target="_top" xlink:title=" ">
<polygon fill="white" stroke="black" points="286,-60 286,-98 459,-98 459,-60 286,-60"/>
<text text-anchor="start" x="294" y="-82.8" font-family="Helvetica,sans-Serif" font-size="14.00">parda_omp_input_with</text>
<text text-anchor="middle" x="372.5" y="-67.8" font-family="Helvetica,sans-Serif" font-size="14.00">_filename</text>
</a>
</g>
</g>
<!-- Node3&#45;&gt;Node5 -->
<g id="edge4" class="edge">
<title>Node3&#45;&gt;Node5</title>
<path fill="none" stroke="midnightblue" d="M496.04,-88.6C483.76,-87.64 471.22,-86.66 459.09,-85.71"/>
<polygon fill="midnightblue" stroke="midnightblue" points="496.05,-92.11 506.29,-89.4 496.6,-85.13 496.05,-92.11"/>
</g>
<!-- Node6 -->
<g id="node6" class="node">
<title>Node6</title>
<g id="a_node6"><a xlink:href="../../d5/d13/parda__omp_8h.html#af99a329269ee6e1bd3f49b4442ab1097" target="_top" xlink:title=" ">
<polygon fill="white" stroke="black" points="87,-64.5 87,-87.5 250,-87.5 250,-64.5 87,-64.5"/>
<text text-anchor="middle" x="168.5" y="-72.3" font-family="Helvetica,sans-Serif" font-size="14.00">parda_omp_stackdist</text>
</a>
</g>
</g>
<!-- Node5&#45;&gt;Node6 -->
<g id="edge5" class="edge">
<title>Node5&#45;&gt;Node6</title>
<path fill="none" stroke="midnightblue" d="M275.8,-77.58C267.22,-77.45 258.59,-77.32 250.16,-77.2"/>
<polygon fill="midnightblue" stroke="midnightblue" points="275.78,-81.08 285.83,-77.73 275.89,-74.08 275.78,-81.08"/>
</g>
<!-- Node7 -->
<g id="node7" class="node">
<title>Node7</title>
<g id="a_node7"><a xlink:href="../../d0/d29/main_8c.html#a3c04138a5bfe5d72780bb7e82a18e627" target="_top" xlink:title=" ">
<polygon fill="white" stroke="black" points="0,-42.5 0,-65.5 51,-65.5 51,-42.5 0,-42.5"/>
<text text-anchor="middle" x="25.5" y="-50.3" font-family="Helvetica,sans-Serif" font-size="14.00">main</text>
</a>
</g>
</g>
<!-- Node6&#45;&gt;Node7 -->
<g id="edge6" class="edge">
<title>Node6&#45;&gt;Node7</title>
<path fill="none" stroke="midnightblue" d="M83.7,-62.92C71.91,-61.08 60.63,-59.33 51.25,-57.86"/>
<polygon fill="midnightblue" stroke="midnightblue" points="83.28,-66.4 93.7,-64.48 84.36,-59.48 83.28,-66.4"/>
</g>
<!-- Node9 -->
<g id="node9" class="node">
<title>Node9</title>
<g id="a_node9"><a xlink:href="../../de/dfb/seperate_8h.html#a85143f432d331557ef6cb42706a78205" target="_top" xlink:title=" ">
<polygon fill="white" stroke="black" points="296.5,-17.5 296.5,-40.5 448.5,-40.5 448.5,-17.5 296.5,-17.5"/>
<text text-anchor="middle" x="372.5" y="-25.3" font-family="Helvetica,sans-Serif" font-size="14.00">parda_seperate_file</text>
</a>
</g>
</g>
<!-- Node8&#45;&gt;Node9 -->
<g id="edge8" class="edge">
<title>Node8&#45;&gt;Node9</title>
<path fill="none" stroke="midnightblue" d="M506.55,-44.33C487.44,-42.13 467.25,-39.8 448.54,-37.65"/>
<polygon fill="midnightblue" stroke="midnightblue" points="506.4,-47.83 516.73,-45.5 507.2,-40.88 506.4,-47.83"/>
</g>
<!-- Node9&#45;&gt;Node7 -->
<g id="edge9" class="edge">
<title>Node9&#45;&gt;Node7</title>
<path fill="none" stroke="midnightblue" d="M285.99,-35.2C208.58,-40.81 99.51,-48.71 51.19,-52.21"/>
<polygon fill="midnightblue" stroke="midnightblue" points="286.49,-38.67 296.21,-34.46 285.99,-31.69 286.49,-38.67"/>
</g>
<!-- Node10&#45;&gt;Node9 -->
<g id="edge11" class="edge">
<title>Node10&#45;&gt;Node9</title>
<path fill="none" stroke="midnightblue" d="M515.33,-17.89C493.82,-19.57 470.38,-21.41 448.86,-23.1"/>
<polygon fill="midnightblue" stroke="midnightblue" points="515.7,-21.37 525.39,-17.1 515.15,-14.39 515.7,-21.37"/>
</g>
</g>
</svg>
