<?xml version="1.0" encoding="UTF-8" standalone="no"?>
<!DOCTYPE svg PUBLIC "-//W3C//DTD SVG 1.1//EN"
 "http://www.w3.org/Graphics/SVG/1.1/DTD/svg11.dtd">
<!-- Generated by graphviz version 2.43.0 (0)
 -->
<!-- Title: parda_print Pages: 1 -->
<svg width="432pt" height="134pt"
 viewBox="0.00 0.00 432.00 134.00" xmlns="http://www.w3.org/2000/svg" xmlns:xlink="http://www.w3.org/1999/xlink">
<g id="graph0" class="graph" transform="scale(1 1) rotate(0) translate(4 130)">
<title>parda_print</title>
<polygon fill="white" stroke="transparent" points="-4,4 -4,-130 428,-130 428,4 -4,4"/>
<!-- Node1 -->
<g id="node1" class="node">
<title>Node1</title>
<g id="a_node1"><a xlink:title=" ">
<polygon fill="#bfbfbf" stroke="black" points="0,-60.5 0,-83.5 96,-83.5 96,-60.5 0,-60.5"/>
<text text-anchor="middle" x="48" y="-68.3" font-family="Helvetica,sans-Serif" font-size="14.00">parda_print</text>
</a>
</g>
</g>
<!-- Node2 -->
<g id="node2" class="node">
<title>Node2</title>
<g id="a_node2"><a xlink:href="../../dd/dad/parda__print_8c.html#a10c5fba0fabbe35ce5451af0d934fd52" target="_top" xlink:title=" ">
<polygon fill="white" stroke="black" points="132.5,-102.5 132.5,-125.5 268.5,-125.5 268.5,-102.5 132.5,-102.5"/>
<text text-anchor="middle" x="200.5" y="-110.3" font-family="Helvetica,sans-Serif" font-size="14.00">parda_print_front</text>
</a>
</g>
</g>
<!-- Node1&#45;&gt;Node2 -->
<g id="edge1" class="edge">
<title>Node1&#45;&gt;Node2</title>
<path fill="none" stroke="midnightblue" d="M90.52,-83.59C108.45,-88.59 129.6,-94.49 148.48,-99.76"/>
<polygon fill="midnightblue" stroke="midnightblue" points="147.54,-103.13 158.11,-102.45 149.42,-96.39 147.54,-103.13"/>
</g>
<!-- Node4 -->
<g id="node4" class="node">
<title>Node4</title>
<g id="a_node4"><a xlink:href="../../dd/dad/parda__print_8c.html#a2cde8523020cc29d7a7168acfe21d3a6" target="_top" xlink:title=" ">
<polygon fill="white" stroke="black" points="132,-60.5 132,-83.5 269,-83.5 269,-60.5 132,-60.5"/>
<text text-anchor="middle" x="200.5" y="-68.3" font-family="Helvetica,sans-Serif" font-size="14.00">parda_print_hash</text>
</a>
</g>
</g>
<!-- Node1&#45;&gt;Node4 -->
<g id="edge3" class="edge">
<title>Node1&#45;&gt;Node4</title>
<path fill="none" stroke="midnightblue" d="M96.21,-72C104.32,-72 112.95,-72 121.62,-72"/>
<polygon fill="midnightblue" stroke="midnightblue" points="121.79,-75.5 131.79,-72 121.79,-68.5 121.79,-75.5"/>
</g>
<!-- Node6 -->
<g id="node6" class="node">
<title>Node6</title>
<g id="a_node6"><a xlink:href="../../dd/dad/parda__print_8c.html#ab48ab938b7bf88bafe3f62a501223e95" target="_top" xlink:title=" ">
<polygon fill="white" stroke="black" points="135.5,-9.5 135.5,-32.5 265.5,-32.5 265.5,-9.5 135.5,-9.5"/>
<text text-anchor="middle" x="200.5" y="-17.3" font-family="Helvetica,sans-Serif" font-size="14.00">parda_print_tree</text>
</a>
</g>
</g>
<!-- Node1&#45;&gt;Node6 -->
<g id="edge5" class="edge">
<title>Node1&#45;&gt;Node6</title>
<path fill="none" stroke="midnightblue" d="M83.15,-60.43C104.7,-53.12 132.74,-43.62 155.89,-35.78"/>
<polygon fill="midnightblue" stroke="midnightblue" points="157.14,-39.05 165.48,-32.53 154.89,-32.42 157.14,-39.05"/>
</g>
<!-- Node3 -->
<g id="node3" class="node">
<title>Node3</title>
<g id="a_node3"><a xlink:href="../../de/d09/narray_8h.html#a58849f5cfc81dd047535c06f2e97cfb0" target="_top" xlink:title=" ">
<polygon fill="white" stroke="black" points="305,-102.5 305,-125.5 424,-125.5 424,-102.5 305,-102.5"/>
<text text-anchor="middle" x="364.5" y="-110.3" font-family="Helvetica,sans-Serif" font-size="14.00">narray_get_len</text>
</a>
</g>
</g>
<!-- Node2&#45;&gt;Node3 -->
<g id="edge2" class="edge">
<title>Node2&#45;&gt;Node3</title>
<path fill="none" stroke="midnightblue" d="M268.8,-114C277.42,-114 286.25,-114 294.9,-114"/>
<polygon fill="midnightblue" stroke="midnightblue" points="294.93,-117.5 304.93,-114 294.93,-110.5 294.93,-117.5"/>
</g>
<!-- Node5 -->
<g id="node5" class="node">
<title>Node5</title>
<g id="a_node5"><a xlink:href="../../dd/dad/parda__print_8c.html#a039dfa82aa8dd71f2ac73b64855be163" target="_top" xlink:title=" ">
<polygon fill="white" stroke="black" points="311,-60.5 311,-83.5 418,-83.5 418,-60.5 311,-60.5"/>
<text text-anchor="middle" x="364.5" y="-68.3" font-family="Helvetica,sans-Serif" font-size="14.00">print_iterator</text>
</a>
</g>
</g>
<!-- Node4&#45;&gt;Node5 -->
<g id="edge4" class="edge">
<title>Node4&#45;&gt;Node5</title>
<path fill="none" stroke="midnightblue" d="M269.26,-72C279.67,-72 290.37,-72 300.66,-72"/>
<polygon fill="midnightblue" stroke="midnightblue" points="300.79,-75.5 310.79,-72 300.79,-68.5 300.79,-75.5"/>
</g>
<!-- Node7 -->
<g id="node7" class="node">
<title>Node7</title>
<g id="a_node7"><a xlink:href="../../d1/df7/splay_8c.html#a6aad0c93712dcf637c21efdccd0f79b4" target="_top" xlink:title=" ">
<polygon fill="white" stroke="black" points="326,-0.5 326,-23.5 403,-23.5 403,-0.5 326,-0.5"/>
<text text-anchor="middle" x="364.5" y="-8.3" font-family="Helvetica,sans-Serif" font-size="14.00">printtree</text>
</a>
</g>
</g>
<!-- Node6&#45;&gt;Node7 -->
<g id="edge6" class="edge">
<title>Node6&#45;&gt;Node7</title>
<path fill="none" stroke="midnightblue" d="M265.53,-17.44C282.21,-16.52 299.91,-15.53 315.6,-14.66"/>
<polygon fill="midnightblue" stroke="midnightblue" points="315.8,-18.16 325.59,-14.11 315.41,-11.17 315.8,-18.16"/>
</g>
<!-- Node7&#45;&gt;Node7 -->
<g id="edge7" class="edge">
<title>Node7&#45;&gt;Node7</title>
<path fill="none" stroke="midnightblue" d="M337.72,-23.7C327.71,-32.76 336.63,-42 364.5,-42 382.35,-42 392.43,-38.21 394.74,-33.1"/>
<polygon fill="midnightblue" stroke="midnightblue" points="398.02,-31.88 391.28,-23.7 391.45,-34.29 398.02,-31.88"/>
</g>
</g>
</svg>
