<?xml version="1.0" encoding="UTF-8" standalone="no"?>
<!DOCTYPE svg PUBLIC "-//W3C//DTD SVG 1.1//EN"
 "http://www.w3.org/Graphics/SVG/1.1/DTD/svg11.dtd">
<!-- Generated by graphviz version 2.43.0 (0)
 -->
<!-- Title: PPT&#45;GPU/reuse_distance_tool/parda_omp.c Pages: 1 -->
<!--zoomable 287 -->
<svg id="main" version="1.1" xmlns="http://www.w3.org/2000/svg" xmlns:xlink="http://www.w3.org/1999/xlink" xml:space="preserve" onload="init(evt)">
<style type="text/css"><![CDATA[
.edge:hover path { stroke: red; }
.edge:hover polygon { stroke: red; fill: red; }
]]></style>
<script type="text/javascript"><![CDATA[
var edges = document.getElementsByTagName('g');
if (edges && edges.length) {
  for (var i=0;i<edges.length;i++) {
    if (edges[i].id.substr(0,4)=='edge') {
      edges[i].setAttribute('class','edge');
    }
  }
}
]]></script>
        <defs>
                <circle id="rim" cx="0" cy="0" r="7"/>
                <circle id="rim2" cx="0" cy="0" r="3.5"/>
                <g id="zoomPlus">
                        <use xlink:href="#rim" fill="#404040">
                                <set attributeName="fill" to="#808080" begin="zoomplus.mouseover" end="zoomplus.mouseout"/>
                        </use>
                        <path d="M-4,0h8M0,-4v8" fill="none" stroke="white" stroke-width="1.5" pointer-events="none"/>
                </g>
                <g id="zoomMin">
                        <use xlink:href="#rim" fill="#404040">
                                <set attributeName="fill" to="#808080" begin="zoomminus.mouseover" end="zoomminus.mouseout"/>
                        </use>
                        <path d="M-4,0h8" fill="none" stroke="white" stroke-width="1.5" pointer-events="none"/>
                </g>
                <g id="dirArrow">
                        <path fill="none" stroke="white" stroke-width="1.5" d="M0,-3.0v7 M-2.5,-0.5L0,-3.0L2.5,-0.5"/>
                </g>
               <g id="resetDef">
                       <use xlink:href="#rim2" fill="#404040">
                               <set attributeName="fill" to="#808080" begin="reset.mouseover" end="reset.mouseout"/>
                       </use>
               </g>
        </defs>

<script type="text/javascript">
var viewWidth = 851;
var viewHeight = 287;
var sectionId = 'dynsection-0';
</script>
<script xlink:href="../../svgpan.js"/>
<svg id="graph" class="graph">
<g id="viewport">
<title>PPT&#45;GPU/reuse_distance_tool/parda_omp.c</title>
<polygon fill="white" stroke="transparent" points="-4,4 -4,-283 847.34,-283 847.34,4 -4,4"/>
<!-- Node1 -->
<g id="node1" class="node">
<title>Node1</title>
<g id="a_node1"><a xlink:title=" ">
<polygon fill="#bfbfbf" stroke="black" points="276.84,-240.5 276.84,-278.5 459.84,-278.5 459.84,-240.5 276.84,-240.5"/>
<text text-anchor="start" x="284.84" y="-263.3" font-family="Helvetica,sans-Serif" font-size="14.00">PPT&#45;GPU/reuse_distance</text>
<text text-anchor="middle" x="368.34" y="-248.3" font-family="Helvetica,sans-Serif" font-size="14.00">_tool/parda_omp.c</text>
</a>
</g>
</g>
<!-- Node2 -->
<g id="node2" class="node">
<title>Node2</title>
<g id="a_node2"><a xlink:href="../../d5/d13/parda__omp_8h.html" target="_top" xlink:title=" ">
<polygon fill="white" stroke="black" points="314.84,-180.5 314.84,-203.5 421.84,-203.5 421.84,-180.5 314.84,-180.5"/>
<text text-anchor="middle" x="368.34" y="-188.3" font-family="Helvetica,sans-Serif" font-size="14.00">parda_omp.h</text>
</a>
</g>
</g>
<!-- Node1&#45;&gt;Node2 -->
<g id="edge1" class="edge">
<title>Node1&#45;&gt;Node2</title>
<path fill="none" stroke="midnightblue" d="M368.34,-240.25C368.34,-232.04 368.34,-222.31 368.34,-213.81"/>
<polygon fill="midnightblue" stroke="midnightblue" points="371.84,-213.59 368.34,-203.59 364.84,-213.59 371.84,-213.59"/>
</g>
<!-- Node3 -->
<g id="node3" class="node">
<title>Node3</title>
<g id="a_node3"><a xlink:href="../../d0/dbf/parda_8h.html" target="_top" xlink:title=" ">
<polygon fill="white" stroke="black" points="291.34,-120.5 291.34,-143.5 361.34,-143.5 361.34,-120.5 291.34,-120.5"/>
<text text-anchor="middle" x="326.34" y="-128.3" font-family="Helvetica,sans-Serif" font-size="14.00">parda.h</text>
</a>
</g>
</g>
<!-- Node2&#45;&gt;Node3 -->
<g id="edge2" class="edge">
<title>Node2&#45;&gt;Node3</title>
<path fill="none" stroke="midnightblue" d="M360.64,-180.36C354.9,-172.43 346.9,-161.39 340.07,-151.96"/>
<polygon fill="midnightblue" stroke="midnightblue" points="342.7,-149.62 334,-143.57 337.03,-153.72 342.7,-149.62"/>
</g>
<!-- Node19 -->
<g id="node19" class="node">
<title>Node19</title>
<g id="a_node19"><a xlink:title=" ">
<polygon fill="white" stroke="#bfbfbf" points="379.84,-120.5 379.84,-143.5 440.84,-143.5 440.84,-120.5 379.84,-120.5"/>
<text text-anchor="middle" x="410.34" y="-128.3" font-family="Helvetica,sans-Serif" font-size="14.00">omp.h</text>
</a>
</g>
</g>
<!-- Node2&#45;&gt;Node19 -->
<g id="edge26" class="edge">
<title>Node2&#45;&gt;Node19</title>
<path fill="none" stroke="midnightblue" d="M376.05,-180.36C381.79,-172.43 389.79,-161.39 396.61,-151.96"/>
<polygon fill="midnightblue" stroke="midnightblue" points="399.66,-153.72 402.69,-143.57 393.99,-149.62 399.66,-153.72"/>
</g>
<!-- Node4 -->
<g id="node4" class="node">
<title>Node4</title>
<g id="a_node4"><a xlink:href="../../de/d09/narray_8h.html" target="_top" xlink:title=" ">
<polygon fill="white" stroke="black" points="136.84,-60.5 136.84,-83.5 209.84,-83.5 209.84,-60.5 136.84,-60.5"/>
<text text-anchor="middle" x="173.34" y="-68.3" font-family="Helvetica,sans-Serif" font-size="14.00">narray.h</text>
</a>
</g>
</g>
<!-- Node3&#45;&gt;Node4 -->
<g id="edge3" class="edge">
<title>Node3&#45;&gt;Node4</title>
<path fill="none" stroke="midnightblue" d="M298.64,-120.5C274.02,-111.16 237.83,-97.44 210.66,-87.15"/>
<polygon fill="midnightblue" stroke="midnightblue" points="211.69,-83.8 201.1,-83.52 209.21,-90.34 211.69,-83.8"/>
</g>
<!-- Node5 -->
<g id="node5" class="node">
<title>Node5</title>
<g id="a_node5"><a xlink:title=" ">
<polygon fill="white" stroke="#bfbfbf" points="15.34,-0.5 15.34,-23.5 79.34,-23.5 79.34,-0.5 15.34,-0.5"/>
<text text-anchor="middle" x="47.34" y="-8.3" font-family="Helvetica,sans-Serif" font-size="14.00">stdio.h</text>
</a>
</g>
</g>
<!-- Node3&#45;&gt;Node5 -->
<g id="edge21" class="edge">
<title>Node3&#45;&gt;Node5</title>
<path fill="none" stroke="midnightblue" d="M291.14,-131.35C215.63,-131.28 41.99,-126.4 5.34,-84 -8.9,-67.52 8.61,-45.56 25.17,-30.45"/>
<polygon fill="midnightblue" stroke="midnightblue" points="27.79,-32.81 33.08,-23.63 23.22,-27.51 27.79,-32.81"/>
</g>
<!-- Node6 -->
<g id="node6" class="node">
<title>Node6</title>
<g id="a_node6"><a xlink:title=" ">
<polygon fill="white" stroke="#bfbfbf" points="97.34,-0.5 97.34,-23.5 165.34,-23.5 165.34,-0.5 97.34,-0.5"/>
<text text-anchor="middle" x="131.34" y="-8.3" font-family="Helvetica,sans-Serif" font-size="14.00">stdlib.h</text>
</a>
</g>
</g>
<!-- Node3&#45;&gt;Node6 -->
<g id="edge22" class="edge">
<title>Node3&#45;&gt;Node6</title>
<path fill="none" stroke="midnightblue" d="M291.27,-127.81C239.94,-122.34 148.28,-109.22 128.34,-84 117.22,-69.92 119.7,-48.93 123.92,-33.41"/>
<polygon fill="midnightblue" stroke="midnightblue" points="127.31,-34.29 126.98,-23.7 120.64,-32.19 127.31,-34.29"/>
</g>
<!-- Node7 -->
<g id="node7" class="node">
<title>Node7</title>
<g id="a_node7"><a xlink:title=" ">
<polygon fill="white" stroke="#bfbfbf" points="183.84,-0.5 183.84,-23.5 254.84,-23.5 254.84,-0.5 183.84,-0.5"/>
<text text-anchor="middle" x="219.34" y="-8.3" font-family="Helvetica,sans-Serif" font-size="14.00">string.h</text>
</a>
</g>
</g>
<!-- Node3&#45;&gt;Node7 -->
<g id="edge23" class="edge">
<title>Node3&#45;&gt;Node7</title>
<path fill="none" stroke="midnightblue" d="M305.67,-120.45C290.83,-112.09 271.1,-99.31 257.34,-84 243.83,-68.96 233.45,-48.25 226.99,-33.08"/>
<polygon fill="midnightblue" stroke="midnightblue" points="230.14,-31.55 223.14,-23.6 223.66,-34.18 230.14,-31.55"/>
</g>
<!-- Node8 -->
<g id="node8" class="node">
<title>Node8</title>
<g id="a_node8"><a xlink:href="../../da/d28/process__args_8h.html" target="_top" xlink:title=" ">
<polygon fill="white" stroke="black" points="266.34,-60.5 266.34,-83.5 386.34,-83.5 386.34,-60.5 266.34,-60.5"/>
<text text-anchor="middle" x="326.34" y="-68.3" font-family="Helvetica,sans-Serif" font-size="14.00">process_args.h</text>
</a>
</g>
</g>
<!-- Node3&#45;&gt;Node8 -->
<g id="edge7" class="edge">
<title>Node3&#45;&gt;Node8</title>
<path fill="none" stroke="midnightblue" d="M326.34,-120.36C326.34,-112.92 326.34,-102.74 326.34,-93.73"/>
<polygon fill="midnightblue" stroke="midnightblue" points="329.84,-93.57 326.34,-83.57 322.84,-93.57 329.84,-93.57"/>
</g>
<!-- Node13 -->
<g id="node13" class="node">
<title>Node13</title>
<g id="a_node13"><a xlink:href="../../d2/db0/splay_8h.html" target="_top" xlink:title=" ">
<polygon fill="white" stroke="black" points="14.84,-60.5 14.84,-83.5 79.84,-83.5 79.84,-60.5 14.84,-60.5"/>
<text text-anchor="middle" x="47.34" y="-68.3" font-family="Helvetica,sans-Serif" font-size="14.00">splay.h</text>
</a>
</g>
</g>
<!-- Node3&#45;&gt;Node13 -->
<g id="edge15" class="edge">
<title>Node3&#45;&gt;Node13</title>
<path fill="none" stroke="midnightblue" d="M291.29,-124.24C245.81,-115.39 164,-99.2 94.34,-84 92.88,-83.68 91.4,-83.35 89.9,-83.02"/>
<polygon fill="midnightblue" stroke="midnightblue" points="90.46,-79.56 79.93,-80.76 88.91,-86.38 90.46,-79.56"/>
</g>
<!-- Node14 -->
<g id="node14" class="node">
<title>Node14</title>
<g id="a_node14"><a xlink:title=" ">
<polygon fill="white" stroke="#bfbfbf" points="404.84,-60.5 404.84,-83.5 477.84,-83.5 477.84,-60.5 404.84,-60.5"/>
<text text-anchor="middle" x="441.34" y="-68.3" font-family="Helvetica,sans-Serif" font-size="14.00">assert.h</text>
</a>
</g>
</g>
<!-- Node3&#45;&gt;Node14 -->
<g id="edge18" class="edge">
<title>Node3&#45;&gt;Node14</title>
<path fill="none" stroke="midnightblue" d="M347.17,-120.5C365.05,-111.48 391.05,-98.36 411.2,-88.2"/>
<polygon fill="midnightblue" stroke="midnightblue" points="412.93,-91.25 420.28,-83.62 409.78,-85 412.93,-91.25"/>
</g>
<!-- Node15 -->
<g id="node15" class="node">
<title>Node15</title>
<g id="a_node15"><a xlink:title=" ">
<polygon fill="white" stroke="#bfbfbf" points="496.34,-60.5 496.34,-83.5 552.34,-83.5 552.34,-60.5 496.34,-60.5"/>
<text text-anchor="middle" x="524.34" y="-68.3" font-family="Helvetica,sans-Serif" font-size="14.00">glib.h</text>
</a>
</g>
</g>
<!-- Node3&#45;&gt;Node15 -->
<g id="edge19" class="edge">
<title>Node3&#45;&gt;Node15</title>
<path fill="none" stroke="midnightblue" d="M361.53,-120.78C392.12,-111.89 437.88,-98.55 486.34,-84.29"/>
<polygon fill="midnightblue" stroke="midnightblue" points="487.46,-87.61 496.07,-81.42 485.48,-80.89 487.46,-87.61"/>
</g>
<!-- Node16 -->
<g id="node16" class="node">
<title>Node16</title>
<g id="a_node16"><a xlink:title=" ">
<polygon fill="white" stroke="#bfbfbf" points="570.84,-60.5 570.84,-83.5 643.84,-83.5 643.84,-60.5 570.84,-60.5"/>
<text text-anchor="middle" x="607.34" y="-68.3" font-family="Helvetica,sans-Serif" font-size="14.00">libgen.h</text>
</a>
</g>
</g>
<!-- Node3&#45;&gt;Node16 -->
<g id="edge20" class="edge">
<title>Node3&#45;&gt;Node16</title>
<path fill="none" stroke="midnightblue" d="M361.68,-122.18C364.94,-121.42 368.2,-120.68 371.34,-120 452.3,-102.45 475.63,-102.01 560.87,-84.02"/>
<polygon fill="midnightblue" stroke="midnightblue" points="561.67,-87.43 570.72,-81.92 560.21,-80.58 561.67,-87.43"/>
</g>
<!-- Node17 -->
<g id="node17" class="node">
<title>Node17</title>
<g id="a_node17"><a xlink:title=" ">
<polygon fill="white" stroke="#bfbfbf" points="661.84,-60.5 661.84,-83.5 750.84,-83.5 750.84,-60.5 661.84,-60.5"/>
<text text-anchor="middle" x="706.34" y="-68.3" font-family="Helvetica,sans-Serif" font-size="14.00">sys/time.h</text>
</a>
</g>
</g>
<!-- Node3&#45;&gt;Node17 -->
<g id="edge24" class="edge">
<title>Node3&#45;&gt;Node17</title>
<path fill="none" stroke="midnightblue" d="M361.63,-121.97C364.91,-121.26 368.18,-120.59 371.34,-120 492.42,-97.55 526.98,-104.47 651.64,-84.19"/>
<polygon fill="midnightblue" stroke="midnightblue" points="652.27,-87.63 661.57,-82.55 651.13,-80.73 652.27,-87.63"/>
</g>
<!-- Node18 -->
<g id="node18" class="node">
<title>Node18</title>
<g id="a_node18"><a xlink:title=" ">
<polygon fill="white" stroke="#bfbfbf" points="769.34,-60.5 769.34,-83.5 843.34,-83.5 843.34,-60.5 769.34,-60.5"/>
<text text-anchor="middle" x="806.34" y="-68.3" font-family="Helvetica,sans-Serif" font-size="14.00">unistd.h</text>
</a>
</g>
</g>
<!-- Node3&#45;&gt;Node18 -->
<g id="edge25" class="edge">
<title>Node3&#45;&gt;Node18</title>
<path fill="none" stroke="midnightblue" d="M361.61,-121.86C364.89,-121.17 368.17,-120.53 371.34,-120 539.41,-91.84 587.26,-111.5 759.38,-83.96"/>
<polygon fill="midnightblue" stroke="midnightblue" points="759.97,-87.41 769.28,-82.34 758.85,-80.5 759.97,-87.41"/>
</g>
<!-- Node4&#45;&gt;Node5 -->
<g id="edge4" class="edge">
<title>Node4&#45;&gt;Node5</title>
<path fill="none" stroke="midnightblue" d="M150.53,-60.5C130.76,-51.4 101.93,-38.13 79.77,-27.93"/>
<polygon fill="midnightblue" stroke="midnightblue" points="80.96,-24.62 70.42,-23.62 78.04,-30.98 80.96,-24.62"/>
</g>
<!-- Node4&#45;&gt;Node6 -->
<g id="edge5" class="edge">
<title>Node4&#45;&gt;Node6</title>
<path fill="none" stroke="midnightblue" d="M165.64,-60.36C159.9,-52.43 151.9,-41.39 145.07,-31.96"/>
<polygon fill="midnightblue" stroke="midnightblue" points="147.7,-29.62 139,-23.57 142.03,-33.72 147.7,-29.62"/>
</g>
<!-- Node4&#45;&gt;Node7 -->
<g id="edge6" class="edge">
<title>Node4&#45;&gt;Node7</title>
<path fill="none" stroke="midnightblue" d="M181.78,-60.36C188.13,-52.35 197.01,-41.16 204.54,-31.67"/>
<polygon fill="midnightblue" stroke="midnightblue" points="207.49,-33.58 210.96,-23.57 202,-29.23 207.49,-33.58"/>
</g>
<!-- Node8&#45;&gt;Node5 -->
<g id="edge10" class="edge">
<title>Node8&#45;&gt;Node5</title>
<path fill="none" stroke="midnightblue" d="M266.93,-60.41C220.91,-51.95 155.35,-39.33 89.27,-24.11"/>
<polygon fill="midnightblue" stroke="midnightblue" points="90.05,-20.7 79.52,-21.85 88.47,-27.52 90.05,-20.7"/>
</g>
<!-- Node8&#45;&gt;Node6 -->
<g id="edge11" class="edge">
<title>Node8&#45;&gt;Node6</title>
<path fill="none" stroke="midnightblue" d="M291.03,-60.5C258.56,-50.84 210.31,-36.49 175.35,-26.09"/>
<polygon fill="midnightblue" stroke="midnightblue" points="176,-22.63 165.41,-23.13 174,-29.34 176,-22.63"/>
</g>
<!-- Node8&#45;&gt;Node7 -->
<g id="edge12" class="edge">
<title>Node8&#45;&gt;Node7</title>
<path fill="none" stroke="midnightblue" d="M306.72,-60.36C290.2,-51.41 266.37,-38.49 247.77,-28.41"/>
<polygon fill="midnightblue" stroke="midnightblue" points="249.3,-25.26 238.84,-23.57 245.97,-31.41 249.3,-25.26"/>
</g>
<!-- Node9 -->
<g id="node9" class="node">
<title>Node9</title>
<g id="a_node9"><a xlink:title=" ">
<polygon fill="white" stroke="#bfbfbf" points="581.84,-0.5 581.84,-23.5 642.84,-23.5 642.84,-0.5 581.84,-0.5"/>
<text text-anchor="middle" x="612.34" y="-8.3" font-family="Helvetica,sans-Serif" font-size="14.00">fcntl.h</text>
</a>
</g>
</g>
<!-- Node8&#45;&gt;Node9 -->
<g id="edge8" class="edge">
<title>Node8&#45;&gt;Node9</title>
<path fill="none" stroke="midnightblue" d="M386.53,-60.88C434.26,-52.54 502.85,-39.86 572.06,-23.93"/>
<polygon fill="midnightblue" stroke="midnightblue" points="572.88,-27.33 581.83,-21.66 571.3,-20.51 572.88,-27.33"/>
</g>
<!-- Node10 -->
<g id="node10" class="node">
<title>Node10</title>
<g id="a_node10"><a xlink:title=" ">
<polygon fill="white" stroke="#bfbfbf" points="272.84,-0.5 272.84,-23.5 347.84,-23.5 347.84,-0.5 272.84,-0.5"/>
<text text-anchor="middle" x="310.34" y="-8.3" font-family="Helvetica,sans-Serif" font-size="14.00">getopt.h</text>
</a>
</g>
</g>
<!-- Node8&#45;&gt;Node10 -->
<g id="edge9" class="edge">
<title>Node8&#45;&gt;Node10</title>
<path fill="none" stroke="midnightblue" d="M323.41,-60.36C321.33,-52.84 318.49,-42.52 315.98,-33.43"/>
<polygon fill="midnightblue" stroke="midnightblue" points="319.29,-32.28 313.26,-23.57 312.54,-34.14 319.29,-32.28"/>
</g>
<!-- Node11 -->
<g id="node11" class="node">
<title>Node11</title>
<g id="a_node11"><a xlink:title=" ">
<polygon fill="white" stroke="#bfbfbf" points="365.34,-0.5 365.34,-23.5 449.34,-23.5 449.34,-0.5 365.34,-0.5"/>
<text text-anchor="middle" x="407.34" y="-8.3" font-family="Helvetica,sans-Serif" font-size="14.00">sys/stat.h</text>
</a>
</g>
</g>
<!-- Node8&#45;&gt;Node11 -->
<g id="edge13" class="edge">
<title>Node8&#45;&gt;Node11</title>
<path fill="none" stroke="midnightblue" d="M341.2,-60.36C353.19,-51.78 370.27,-39.55 384.07,-29.66"/>
<polygon fill="midnightblue" stroke="midnightblue" points="386.49,-32.24 392.58,-23.57 382.41,-26.55 386.49,-32.24"/>
</g>
<!-- Node12 -->
<g id="node12" class="node">
<title>Node12</title>
<g id="a_node12"><a xlink:title=" ">
<polygon fill="white" stroke="#bfbfbf" points="467.34,-0.5 467.34,-23.5 563.34,-23.5 563.34,-0.5 467.34,-0.5"/>
<text text-anchor="middle" x="515.34" y="-8.3" font-family="Helvetica,sans-Serif" font-size="14.00">sys/types.h</text>
</a>
</g>
</g>
<!-- Node8&#45;&gt;Node12 -->
<g id="edge14" class="edge">
<title>Node8&#45;&gt;Node12</title>
<path fill="none" stroke="midnightblue" d="M360.57,-60.5C391.65,-50.96 437.65,-36.84 471.43,-26.48"/>
<polygon fill="midnightblue" stroke="midnightblue" points="472.52,-29.8 481.05,-23.52 470.47,-23.11 472.52,-29.8"/>
</g>
<!-- Node13&#45;&gt;Node5 -->
<g id="edge16" class="edge">
<title>Node13&#45;&gt;Node5</title>
<path fill="none" stroke="midnightblue" d="M47.34,-60.36C47.34,-52.92 47.34,-42.74 47.34,-33.73"/>
<polygon fill="midnightblue" stroke="midnightblue" points="50.84,-33.57 47.34,-23.57 43.84,-33.57 50.84,-33.57"/>
</g>
<!-- Node13&#45;&gt;Node6 -->
<g id="edge17" class="edge">
<title>Node13&#45;&gt;Node6</title>
<path fill="none" stroke="midnightblue" d="M62.75,-60.36C75.3,-51.7 93.24,-39.31 107.62,-29.38"/>
<polygon fill="midnightblue" stroke="midnightblue" points="109.79,-32.13 116.03,-23.57 105.82,-26.37 109.79,-32.13"/>
</g>
</g>
</svg>
        <g id="navigator" transform="translate(0 0)" fill="#404254">
                <rect fill="#f2f5e9" fill-opacity="0.5" stroke="#606060" stroke-width=".5" x="0" y="0" width="60" height="60"/>
                <use id="zoomplus" xlink:href="#zoomPlus" x="17" y="9" onmousedown="handleZoom(evt,'in')"/>
                <use id="zoomminus" xlink:href="#zoomMin" x="42" y="9" onmousedown="handleZoom(evt,'out')"/>
                <use id="reset" xlink:href="#resetDef" x="30" y="36" onmousedown="handleReset()"/>
                <g id="arrowUp" xlink:href="#dirArrow" transform="translate(30 24)" onmousedown="handlePan(0,-1)">
                  <use xlink:href="#rim" fill="#404040">
                        <set attributeName="fill" to="#808080" begin="arrowUp.mouseover" end="arrowUp.mouseout"/>
                  </use>
                  <path fill="none" stroke="white" stroke-width="1.5" d="M0,-3.0v7 M-2.5,-0.5L0,-3.0L2.5,-0.5"/>
                </g>
                <g id="arrowRight" xlink:href="#dirArrow" transform="rotate(90) translate(36 -43)" onmousedown="handlePan(1,0)">
                  <use xlink:href="#rim" fill="#404040">
                        <set attributeName="fill" to="#808080" begin="arrowRight.mouseover" end="arrowRight.mouseout"/>
                  </use>
                  <path fill="none" stroke="white" stroke-width="1.5" d="M0,-3.0v7 M-2.5,-0.5L0,-3.0L2.5,-0.5"/>
                </g>
                <g id="arrowDown" xlink:href="#dirArrow" transform="rotate(180) translate(-30 -48)" onmousedown="handlePan(0,1)">
                  <use xlink:href="#rim" fill="#404040">
                        <set attributeName="fill" to="#808080" begin="arrowDown.mouseover" end="arrowDown.mouseout"/>
                  </use>
                  <path fill="none" stroke="white" stroke-width="1.5" d="M0,-3.0v7 M-2.5,-0.5L0,-3.0L2.5,-0.5"/>
                </g>
                <g id="arrowLeft" xlink:href="#dirArrow" transform="rotate(270) translate(-36 17)" onmousedown="handlePan(-1,0)">
                  <use xlink:href="#rim" fill="#404040">
                        <set attributeName="fill" to="#808080" begin="arrowLeft.mouseover" end="arrowLeft.mouseout"/>
                  </use>
                  <path fill="none" stroke="white" stroke-width="1.5" d="M0,-3.0v7 M-2.5,-0.5L0,-3.0L2.5,-0.5"/>
                </g>
        </g>
        <svg viewBox="0 0 15 15" width="100%" height="30px" preserveAspectRatio="xMaxYMin meet">
         <g id="arrow_out" transform="scale(0.3 0.3)">
          <a xlink:href="parda__omp_8c__incl_org.svg" target="_base">
           <rect id="button" ry="5" rx="5" y="6" x="6" height="38" width="38"
                fill="#f2f5e9" fill-opacity="0.5" stroke="#606060" stroke-width="1.0"/>
           <path id="arrow"
             d="M 11.500037,31.436501 C 11.940474,20.09759 22.043105,11.32322 32.158766,21.979434 L 37.068811,17.246167 C 37.068811,17.246167 37.088388,32 37.088388,32 L 22.160133,31.978069 C 22.160133,31.978069 26.997745,27.140456 26.997745,27.140456 C 18.528582,18.264221 13.291696,25.230495 11.500037,31.436501 z"
             style="fill:#404040;"/>
          </a>
         </g>
        </svg>
</svg>
