<?xml version="1.0" encoding="UTF-8" standalone="no"?>
<!DOCTYPE svg PUBLIC "-//W3C//DTD SVG 1.1//EN"
 "http://www.w3.org/Graphics/SVG/1.1/DTD/svg11.dtd">
<!-- Generated by graphviz version 2.43.0 (0)
 -->
<!-- Title: PPT&#45;GPU/tracing_tool/nvbit/tools_cuda_api_meta.h Pages: 1 -->
<svg width="170pt" height="137pt"
 viewBox="0.00 0.00 170.00 137.00" xmlns="http://www.w3.org/2000/svg" xmlns:xlink="http://www.w3.org/1999/xlink">
<g id="graph0" class="graph" transform="scale(1 1) rotate(0) translate(4 133)">
<title>PPT&#45;GPU/tracing_tool/nvbit/tools_cuda_api_meta.h</title>
<polygon fill="white" stroke="transparent" points="-4,4 -4,-133 166,-133 166,4 -4,4"/>
<!-- Node1 -->
<g id="node1" class="node">
<title>Node1</title>
<g id="a_node1"><a xlink:title=" ">
<polygon fill="#bfbfbf" stroke="black" points="0,-75.5 0,-128.5 162,-128.5 162,-75.5 0,-75.5"/>
<text text-anchor="start" x="8" y="-113.3" font-family="Helvetica,sans-Serif" font-size="14.00">PPT&#45;GPU/tracing_tool</text>
<text text-anchor="start" x="8" y="-98.3" font-family="Helvetica,sans-Serif" font-size="14.00">/nvbit/tools_cuda_api</text>
<text text-anchor="middle" x="81" y="-83.3" font-family="Helvetica,sans-Serif" font-size="14.00">_meta.h</text>
</a>
</g>
</g>
<!-- Node2 -->
<g id="node2" class="node">
<title>Node2</title>
<g id="a_node2"><a xlink:href="../../d4/d49/nvbit_8h.html" target="_top" xlink:title=" ">
<polygon fill="white" stroke="black" points="0.5,-0.5 0.5,-38.5 161.5,-38.5 161.5,-0.5 0.5,-0.5"/>
<text text-anchor="start" x="8.5" y="-23.3" font-family="Helvetica,sans-Serif" font-size="14.00">PPT&#45;GPU/tracing_tool</text>
<text text-anchor="middle" x="81" y="-8.3" font-family="Helvetica,sans-Serif" font-size="14.00">/nvbit/nvbit.h</text>
</a>
</g>
</g>
<!-- Node1&#45;&gt;Node2 -->
<g id="edge1" class="edge">
<title>Node1&#45;&gt;Node2</title>
<path fill="none" stroke="midnightblue" d="M81,-64.82C81,-55.88 81,-46.66 81,-38.97"/>
<polygon fill="midnightblue" stroke="midnightblue" points="77.5,-65.09 81,-75.09 84.5,-65.09 77.5,-65.09"/>
</g>
</g>
</svg>
