<?xml version="1.0" encoding="UTF-8" standalone="no"?>
<!DOCTYPE svg PUBLIC "-//W3C//DTD SVG 1.1//EN"
 "http://www.w3.org/Graphics/SVG/1.1/DTD/svg11.dtd">
<!-- Generated by graphviz version 2.43.0 (0)
 -->
<!-- Title: simian.UnhashableKeyException Pages: 1 -->
<svg width="250pt" height="152pt"
 viewBox="0.00 0.00 250.00 152.00" xmlns="http://www.w3.org/2000/svg" xmlns:xlink="http://www.w3.org/1999/xlink">
<g id="graph0" class="graph" transform="scale(1 1) rotate(0) translate(4 148)">
<title>simian.UnhashableKeyException</title>
<polygon fill="white" stroke="transparent" points="-4,4 -4,-148 246,-148 246,4 -4,4"/>
<!-- Node1 -->
<g id="node1" class="node">
<title>Node1</title>
<g id="a_node1"><a xlink:title=" ">
<polygon fill="#bfbfbf" stroke="black" points="0,-0.5 0,-23.5 242,-23.5 242,-0.5 0,-0.5"/>
<text text-anchor="middle" x="121" y="-8.3" font-family="Helvetica,sans-Serif" font-size="14.00">simian.UnhashableKeyException</text>
</a>
</g>
</g>
<!-- Node2 -->
<g id="node2" class="node">
<title>Node2</title>
<g id="a_node2"><a xlink:href="../../d7/deb/classsimian_1_1UnpackException.html" target="_top" xlink:title=" ">
<polygon fill="white" stroke="black" points="27,-60.5 27,-83.5 215,-83.5 215,-60.5 27,-60.5"/>
<text text-anchor="middle" x="121" y="-68.3" font-family="Helvetica,sans-Serif" font-size="14.00">simian.UnpackException</text>
</a>
</g>
</g>
<!-- Node2&#45;&gt;Node1 -->
<g id="edge1" class="edge">
<title>Node2&#45;&gt;Node1</title>
<path fill="none" stroke="midnightblue" d="M121,-50.19C121,-41.17 121,-30.99 121,-23.57"/>
<polygon fill="midnightblue" stroke="midnightblue" points="117.5,-50.36 121,-60.36 124.5,-50.36 117.5,-50.36"/>
</g>
<!-- Node3 -->
<g id="node3" class="node">
<title>Node3</title>
<g id="a_node3"><a xlink:title=" ">
<polygon fill="white" stroke="#bfbfbf" points="78.5,-120.5 78.5,-143.5 163.5,-143.5 163.5,-120.5 78.5,-120.5"/>
<text text-anchor="middle" x="121" y="-128.3" font-family="Helvetica,sans-Serif" font-size="14.00">Exception</text>
</a>
</g>
</g>
<!-- Node3&#45;&gt;Node2 -->
<g id="edge2" class="edge">
<title>Node3&#45;&gt;Node2</title>
<path fill="none" stroke="midnightblue" d="M121,-110.19C121,-101.17 121,-90.99 121,-83.57"/>
<polygon fill="midnightblue" stroke="midnightblue" points="117.5,-110.36 121,-120.36 124.5,-110.36 117.5,-110.36"/>
</g>
</g>
</svg>
