<?xml version="1.0" encoding="UTF-8" standalone="no"?>
<!DOCTYPE svg PUBLIC "-//W3C//DTD SVG 1.1//EN"
 "http://www.w3.org/Graphics/SVG/1.1/DTD/svg11.dtd">
<!-- Generated by graphviz version 2.43.0 (0)
 -->
<!-- Title: ppt.main Pages: 1 -->
<svg width="328pt" height="74pt"
 viewBox="0.00 0.00 328.00 74.00" xmlns="http://www.w3.org/2000/svg" xmlns:xlink="http://www.w3.org/1999/xlink">
<g id="graph0" class="graph" transform="scale(1 1) rotate(0) translate(4 70)">
<title>ppt.main</title>
<polygon fill="white" stroke="transparent" points="-4,4 -4,-70 324,-70 324,4 -4,4"/>
<!-- Node1 -->
<g id="node1" class="node">
<title>Node1</title>
<g id="a_node1"><a xlink:title=" ">
<polygon fill="#bfbfbf" stroke="black" points="0,-21.5 0,-44.5 79,-44.5 79,-21.5 0,-21.5"/>
<text text-anchor="middle" x="39.5" y="-29.3" font-family="Helvetica,sans-Serif" font-size="14.00">ppt.main</text>
</a>
</g>
</g>
<!-- Node2 -->
<g id="node2" class="node">
<title>Node2</title>
<g id="a_node2"><a xlink:href="../../d6/d4c/namespaceppt.html#add78beeace0655d7bdef4924f2a7bc6e" target="_top" xlink:title=" ">
<polygon fill="white" stroke="black" points="115,-42.5 115,-65.5 320,-65.5 320,-42.5 115,-42.5"/>
<text text-anchor="middle" x="217.5" y="-50.3" font-family="Helvetica,sans-Serif" font-size="14.00">ppt.get_current_kernel_info</text>
</a>
</g>
</g>
<!-- Node1&#45;&gt;Node2 -->
<g id="edge1" class="edge">
<title>Node1&#45;&gt;Node2</title>
<path fill="none" stroke="midnightblue" d="M79.12,-37.61C88.5,-38.73 98.98,-39.98 109.86,-41.28"/>
<polygon fill="midnightblue" stroke="midnightblue" points="109.59,-44.77 119.94,-42.48 110.42,-37.82 109.59,-44.77"/>
</g>
<!-- Node3 -->
<g id="node3" class="node">
<title>Node3</title>
<g id="a_node3"><a xlink:href="../../d6/d4c/namespaceppt.html#a36efe971cb30d25a8cca6639bb1a3e61" target="_top" xlink:title=" ">
<polygon fill="white" stroke="black" points="174.5,-0.5 174.5,-23.5 260.5,-23.5 260.5,-0.5 174.5,-0.5"/>
<text text-anchor="middle" x="217.5" y="-8.3" font-family="Helvetica,sans-Serif" font-size="14.00">ppt.usage</text>
</a>
</g>
</g>
<!-- Node1&#45;&gt;Node3 -->
<g id="edge2" class="edge">
<title>Node1&#45;&gt;Node3</title>
<path fill="none" stroke="midnightblue" d="M79.12,-28.39C104.07,-25.42 136.84,-21.51 164.11,-18.25"/>
<polygon fill="midnightblue" stroke="midnightblue" points="164.76,-21.7 174.27,-17.04 163.93,-14.75 164.76,-21.7"/>
</g>
</g>
</svg>
