<?xml version="1.0" encoding="UTF-8" standalone="no"?>
<!DOCTYPE svg PUBLIC "-//W3C//DTD SVG 1.1//EN"
 "http://www.w3.org/Graphics/SVG/1.1/DTD/svg11.dtd">
<!-- Generated by graphviz version 2.43.0 (0)
 -->
<!-- Title: parda_omp_init Pages: 1 -->
<svg width="418pt" height="116pt"
 viewBox="0.00 0.00 418.00 116.00" xmlns="http://www.w3.org/2000/svg" xmlns:xlink="http://www.w3.org/1999/xlink">
<g id="graph0" class="graph" transform="scale(1 1) rotate(0) translate(4 112)">
<title>parda_omp_init</title>
<polygon fill="white" stroke="transparent" points="-4,4 -4,-112 414,-112 414,4 -4,4"/>
<!-- Node1 -->
<g id="node1" class="node">
<title>Node1</title>
<g id="a_node1"><a xlink:title=" ">
<polygon fill="#bfbfbf" stroke="black" points="0,-42.5 0,-65.5 122,-65.5 122,-42.5 0,-42.5"/>
<text text-anchor="middle" x="61" y="-50.3" font-family="Helvetica,sans-Serif" font-size="14.00">parda_omp_init</text>
</a>
</g>
</g>
<!-- Node2 -->
<g id="node2" class="node">
<title>Node2</title>
<g id="a_node2"><a xlink:href="../../d0/d96/parda_8c.html#ac09d652f19b088bdb26be5372506e473" target="_top" xlink:title=" ">
<polygon fill="white" stroke="black" points="158,-42.5 158,-65.5 243,-65.5 243,-42.5 158,-42.5"/>
<text text-anchor="middle" x="200.5" y="-50.3" font-family="Helvetica,sans-Serif" font-size="14.00">parda_init</text>
</a>
</g>
</g>
<!-- Node1&#45;&gt;Node2 -->
<g id="edge1" class="edge">
<title>Node1&#45;&gt;Node2</title>
<path fill="none" stroke="midnightblue" d="M122.31,-54C130.73,-54 139.33,-54 147.57,-54"/>
<polygon fill="midnightblue" stroke="midnightblue" points="147.8,-57.5 157.8,-54 147.8,-50.5 147.8,-57.5"/>
</g>
<!-- Node3 -->
<g id="node3" class="node">
<title>Node3</title>
<g id="a_node3"><a xlink:href="../../d0/d96/parda_8c.html#a91944ae0f09f2add974175b82819b9b1" target="_top" xlink:title=" ">
<polygon fill="white" stroke="black" points="279,-84.5 279,-107.5 410,-107.5 410,-84.5 279,-84.5"/>
<text text-anchor="middle" x="344.5" y="-92.3" font-family="Helvetica,sans-Serif" font-size="14.00">compare_strings</text>
</a>
</g>
</g>
<!-- Node2&#45;&gt;Node3 -->
<g id="edge2" class="edge">
<title>Node2&#45;&gt;Node3</title>
<path fill="none" stroke="midnightblue" d="M240.68,-65.59C257.28,-70.5 276.82,-76.28 294.38,-81.47"/>
<polygon fill="midnightblue" stroke="midnightblue" points="293.87,-84.97 304.45,-84.45 295.85,-78.26 293.87,-84.97"/>
</g>
<!-- Node4 -->
<g id="node4" class="node">
<title>Node4</title>
<g id="a_node4"><a xlink:href="../../da/de5/hostRuntime_8cpp.html#ae206dc2056b70c9901731e30447df1aa" target="_top" xlink:title=" ">
<polygon fill="white" stroke="black" points="322.5,-42.5 322.5,-65.5 366.5,-65.5 366.5,-42.5 322.5,-42.5"/>
<text text-anchor="middle" x="344.5" y="-50.3" font-family="Helvetica,sans-Serif" font-size="14.00">free</text>
</a>
</g>
</g>
<!-- Node2&#45;&gt;Node4 -->
<g id="edge3" class="edge">
<title>Node2&#45;&gt;Node4</title>
<path fill="none" stroke="midnightblue" d="M243.34,-54C265.39,-54 291.98,-54 312.23,-54"/>
<polygon fill="midnightblue" stroke="midnightblue" points="312.46,-57.5 322.46,-54 312.46,-50.5 312.46,-57.5"/>
</g>
<!-- Node5 -->
<g id="node5" class="node">
<title>Node5</title>
<g id="a_node5"><a xlink:href="../../dc/dce/narray_8c.html#a32d99037d1eb9c14a4802ce1999cd8d6" target="_top" xlink:title=" ">
<polygon fill="white" stroke="black" points="296,-0.5 296,-23.5 393,-23.5 393,-0.5 296,-0.5"/>
<text text-anchor="middle" x="344.5" y="-8.3" font-family="Helvetica,sans-Serif" font-size="14.00">narray_new</text>
</a>
</g>
</g>
<!-- Node2&#45;&gt;Node5 -->
<g id="edge4" class="edge">
<title>Node2&#45;&gt;Node5</title>
<path fill="none" stroke="midnightblue" d="M240.68,-42.41C257.28,-37.5 276.82,-31.72 294.38,-26.53"/>
<polygon fill="midnightblue" stroke="midnightblue" points="295.85,-29.74 304.45,-23.55 293.87,-23.03 295.85,-29.74"/>
</g>
</g>
</svg>
