<?xml version="1.0" encoding="UTF-8" standalone="no"?>
<!DOCTYPE svg PUBLIC "-//W3C//DTD SVG 1.1//EN"
 "http://www.w3.org/Graphics/SVG/1.1/DTD/svg11.dtd">
<!-- Generated by graphviz version 2.43.0 (0)
 -->
<!-- Title: parda_omp_stackdist Pages: 1 -->
<!--zoomable 702 -->
<svg id="main" version="1.1" xmlns="http://www.w3.org/2000/svg" xmlns:xlink="http://www.w3.org/1999/xlink" xml:space="preserve" onload="init(evt)">
<style type="text/css"><![CDATA[
.edge:hover path { stroke: red; }
.edge:hover polygon { stroke: red; fill: red; }
]]></style>
<script type="text/javascript"><![CDATA[
var edges = document.getElementsByTagName('g');
if (edges && edges.length) {
  for (var i=0;i<edges.length;i++) {
    if (edges[i].id.substr(0,4)=='edge') {
      edges[i].setAttribute('class','edge');
    }
  }
}
]]></script>
        <defs>
                <circle id="rim" cx="0" cy="0" r="7"/>
                <circle id="rim2" cx="0" cy="0" r="3.5"/>
                <g id="zoomPlus">
                        <use xlink:href="#rim" fill="#404040">
                                <set attributeName="fill" to="#808080" begin="zoomplus.mouseover" end="zoomplus.mouseout"/>
                        </use>
                        <path d="M-4,0h8M0,-4v8" fill="none" stroke="white" stroke-width="1.5" pointer-events="none"/>
                </g>
                <g id="zoomMin">
                        <use xlink:href="#rim" fill="#404040">
                                <set attributeName="fill" to="#808080" begin="zoomminus.mouseover" end="zoomminus.mouseout"/>
                        </use>
                        <path d="M-4,0h8" fill="none" stroke="white" stroke-width="1.5" pointer-events="none"/>
                </g>
                <g id="dirArrow">
                        <path fill="none" stroke="white" stroke-width="1.5" d="M0,-3.0v7 M-2.5,-0.5L0,-3.0L2.5,-0.5"/>
                </g>
               <g id="resetDef">
                       <use xlink:href="#rim2" fill="#404040">
                               <set attributeName="fill" to="#808080" begin="reset.mouseover" end="reset.mouseout"/>
                       </use>
               </g>
        </defs>

<script type="text/javascript">
var viewWidth = 1341;
var viewHeight = 702;
var sectionId = 'dynsection-12';
</script>
<script xlink:href="../../svgpan.js"/>
<svg id="graph" class="graph">
<g id="viewport">
<title>parda_omp_stackdist</title>
<polygon fill="white" stroke="transparent" points="-4,4 -4,-697.59 1337,-697.59 1337,4 -4,4"/>
<!-- Node1 -->
<g id="node1" class="node">
<title>Node1</title>
<g id="a_node1"><a xlink:title=" ">
<polygon fill="#bfbfbf" stroke="black" points="0,-304.5 0,-327.5 163,-327.5 163,-304.5 0,-304.5"/>
<text text-anchor="middle" x="81.5" y="-312.3" font-family="Helvetica,sans-Serif" font-size="14.00">parda_omp_stackdist</text>
</a>
</g>
</g>
<!-- Node2 -->
<g id="node2" class="node">
<title>Node2</title>
<g id="a_node2"><a xlink:href="../../de/d09/narray_8h.html#a58849f5cfc81dd047535c06f2e97cfb0" target="_top" xlink:title=" ">
<polygon fill="white" stroke="black" points="944,-264.5 944,-287.5 1063,-287.5 1063,-264.5 944,-264.5"/>
<text text-anchor="middle" x="1003.5" y="-272.3" font-family="Helvetica,sans-Serif" font-size="14.00">narray_get_len</text>
</a>
</g>
</g>
<!-- Node1&#45;&gt;Node2 -->
<g id="edge1" class="edge">
<title>Node1&#45;&gt;Node2</title>
<path fill="none" stroke="midnightblue" d="M163.1,-318.99C310.39,-323.38 632.67,-328 902,-297 916.39,-295.34 931.77,-292.62 946.07,-289.68"/>
<polygon fill="midnightblue" stroke="midnightblue" points="947.2,-293.02 956.26,-287.51 945.75,-286.17 947.2,-293.02"/>
</g>
<!-- Node3 -->
<g id="node3" class="node">
<title>Node3</title>
<g id="a_node3"><a xlink:href="../../d0/d96/parda_8c.html#aaecfcceb1c1b235b54a68a2d917874d8" target="_top" xlink:title=" ">
<polygon fill="white" stroke="black" points="958.5,-623.5 958.5,-646.5 1048.5,-646.5 1048.5,-623.5 958.5,-623.5"/>
<text text-anchor="middle" x="1003.5" y="-631.3" font-family="Helvetica,sans-Serif" font-size="14.00">parda_free</text>
</a>
</g>
</g>
<!-- Node1&#45;&gt;Node3 -->
<g id="edge2" class="edge">
<title>Node1&#45;&gt;Node3</title>
<path fill="none" stroke="midnightblue" d="M85.12,-327.58C94.09,-364.59 127.07,-481.1 199,-542 419.88,-729 805.87,-675.19 947.98,-647.1"/>
<polygon fill="midnightblue" stroke="midnightblue" points="949.07,-650.45 958.18,-645.04 947.69,-643.58 949.07,-650.45"/>
</g>
<!-- Node7 -->
<g id="node7" class="node">
<title>Node7</title>
<g id="a_node7"><a xlink:href="../../d0/d82/parda__omp_8c.html#aaf542e14f3fdeb83a97dff5b2c8f2860" target="_top" xlink:title=" ">
<polygon fill="white" stroke="black" points="221.5,-509.5 221.5,-532.5 349.5,-532.5 349.5,-509.5 221.5,-509.5"/>
<text text-anchor="middle" x="285.5" y="-517.3" font-family="Helvetica,sans-Serif" font-size="14.00">parda_omp_free</text>
</a>
</g>
</g>
<!-- Node1&#45;&gt;Node7 -->
<g id="edge9" class="edge">
<title>Node1&#45;&gt;Node7</title>
<path fill="none" stroke="midnightblue" d="M93.94,-327.61C127.26,-361.43 224.5,-460.11 265.7,-501.92"/>
<polygon fill="midnightblue" stroke="midnightblue" points="263.42,-504.6 272.94,-509.26 268.41,-499.68 263.42,-504.6"/>
</g>
<!-- Node8 -->
<g id="node8" class="node">
<title>Node8</title>
<g id="a_node8"><a xlink:href="../../d0/d82/parda__omp_8c.html#ac3c36738a53637ee5b07e3b3f91629dc" target="_top" xlink:title=" ">
<polygon fill="white" stroke="black" points="224.5,-394.5 224.5,-417.5 346.5,-417.5 346.5,-394.5 224.5,-394.5"/>
<text text-anchor="middle" x="285.5" y="-402.3" font-family="Helvetica,sans-Serif" font-size="14.00">parda_omp_init</text>
</a>
</g>
</g>
<!-- Node1&#45;&gt;Node8 -->
<g id="edge11" class="edge">
<title>Node1&#45;&gt;Node8</title>
<path fill="none" stroke="midnightblue" d="M108.49,-327.58C144.4,-343.58 209.29,-372.49 249.45,-390.38"/>
<polygon fill="midnightblue" stroke="midnightblue" points="248.05,-393.59 258.61,-394.46 250.9,-387.2 248.05,-393.59"/>
</g>
<!-- Node12 -->
<g id="node12" class="node">
<title>Node12</title>
<g id="a_node12"><a xlink:href="../../d0/d82/parda__omp_8c.html#a9608f67126e55a4e283694263aef00a4" target="_top" xlink:title=" ">
<polygon fill="white" stroke="black" points="199,-249 199,-287 372,-287 372,-249 199,-249"/>
<text text-anchor="start" x="207" y="-271.8" font-family="Helvetica,sans-Serif" font-size="14.00">parda_omp_input_with</text>
<text text-anchor="middle" x="285.5" y="-256.8" font-family="Helvetica,sans-Serif" font-size="14.00">_filename</text>
</a>
</g>
</g>
<!-- Node1&#45;&gt;Node12 -->
<g id="edge16" class="edge">
<title>Node1&#45;&gt;Node12</title>
<path fill="none" stroke="midnightblue" d="M131.14,-304.44C150.17,-299.92 172.63,-294.58 194.41,-289.41"/>
<polygon fill="midnightblue" stroke="midnightblue" points="195.43,-292.76 204.35,-287.04 193.82,-285.95 195.43,-292.76"/>
</g>
<!-- Node31 -->
<g id="node31" class="node">
<title>Node31</title>
<g id="a_node31"><a xlink:href="../../d0/dbf/parda_8h.html#aec88f011d490ecb12982491fe94340c6" target="_top" xlink:title=" ">
<polygon fill="white" stroke="black" points="199,-206.5 199,-229.5 372,-229.5 372,-206.5 199,-206.5"/>
<text text-anchor="middle" x="285.5" y="-214.3" font-family="Helvetica,sans-Serif" font-size="14.00">parda_print_histogram</text>
</a>
</g>
</g>
<!-- Node1&#45;&gt;Node31 -->
<g id="edge49" class="edge">
<title>Node1&#45;&gt;Node31</title>
<path fill="none" stroke="midnightblue" d="M96.64,-304.3C117.67,-287.45 159.02,-256.49 199,-239 204.38,-236.64 210.08,-234.52 215.87,-232.62"/>
<polygon fill="midnightblue" stroke="midnightblue" points="217.13,-235.89 225.66,-229.62 215.08,-229.2 217.13,-235.89"/>
</g>
<!-- Node32 -->
<g id="node32" class="node">
<title>Node32</title>
<g id="a_node32"><a xlink:href="../../d0/dbf/parda_8h.html#adc17d2f5dd5536cc412cdbf3b7bd8c93" target="_top" xlink:title=" ">
<polygon fill="white" stroke="black" points="254,-164.5 254,-187.5 317,-187.5 317,-164.5 254,-164.5"/>
<text text-anchor="middle" x="285.5" y="-172.3" font-family="Helvetica,sans-Serif" font-size="14.00">rtclock</text>
</a>
</g>
</g>
<!-- Node1&#45;&gt;Node32 -->
<g id="edge50" class="edge">
<title>Node1&#45;&gt;Node32</title>
<path fill="none" stroke="midnightblue" d="M90.33,-304.45C107.21,-280.48 149.53,-225.22 199,-197 212.59,-189.25 228.99,-184.34 243.77,-181.23"/>
<polygon fill="midnightblue" stroke="midnightblue" points="244.51,-184.66 253.69,-179.36 243.21,-177.78 244.51,-184.66"/>
</g>
<!-- Node4 -->
<g id="node4" class="node">
<title>Node4</title>
<g id="a_node4"><a xlink:href="../../da/de5/hostRuntime_8cpp.html#ae206dc2056b70c9901731e30447df1aa" target="_top" xlink:title=" ">
<polygon fill="white" stroke="black" points="1289,-541.5 1289,-564.5 1333,-564.5 1333,-541.5 1289,-541.5"/>
<text text-anchor="middle" x="1311" y="-549.3" font-family="Helvetica,sans-Serif" font-size="14.00">free</text>
</a>
</g>
</g>
<!-- Node3&#45;&gt;Node4 -->
<g id="edge3" class="edge">
<title>Node3&#45;&gt;Node4</title>
<path fill="none" stroke="midnightblue" d="M1024.72,-646.68C1069.61,-670.91 1179.43,-720.67 1253,-674 1287.45,-652.15 1301.46,-603.3 1306.86,-574.81"/>
<polygon fill="midnightblue" stroke="midnightblue" points="1310.36,-575.09 1308.58,-564.64 1303.46,-573.92 1310.36,-575.09"/>
</g>
<!-- Node5 -->
<g id="node5" class="node">
<title>Node5</title>
<g id="a_node5"><a xlink:href="../../d1/df7/splay_8c.html#aa92af4ddcdf3134ef4943b684eb5c421" target="_top" xlink:title=" ">
<polygon fill="white" stroke="black" points="1143.5,-623.5 1143.5,-646.5 1214.5,-646.5 1214.5,-623.5 1143.5,-623.5"/>
<text text-anchor="middle" x="1179" y="-631.3" font-family="Helvetica,sans-Serif" font-size="14.00">freetree</text>
</a>
</g>
</g>
<!-- Node3&#45;&gt;Node5 -->
<g id="edge4" class="edge">
<title>Node3&#45;&gt;Node5</title>
<path fill="none" stroke="midnightblue" d="M1048.73,-635C1074.58,-635 1107.13,-635 1133.1,-635"/>
<polygon fill="midnightblue" stroke="midnightblue" points="1133.43,-638.5 1143.43,-635 1133.43,-631.5 1133.43,-638.5"/>
</g>
<!-- Node6 -->
<g id="node6" class="node">
<title>Node6</title>
<g id="a_node6"><a xlink:href="../../dc/dce/narray_8c.html#ad4a6215f48c72db2c016b1f3d8aa2723" target="_top" xlink:title=" ">
<polygon fill="white" stroke="black" points="1131.5,-581.5 1131.5,-604.5 1226.5,-604.5 1226.5,-581.5 1131.5,-581.5"/>
<text text-anchor="middle" x="1179" y="-589.3" font-family="Helvetica,sans-Serif" font-size="14.00">narray_free</text>
</a>
</g>
</g>
<!-- Node3&#45;&gt;Node6 -->
<g id="edge7" class="edge">
<title>Node3&#45;&gt;Node6</title>
<path fill="none" stroke="midnightblue" d="M1048.73,-624.29C1070.87,-618.93 1097.91,-612.39 1121.53,-606.67"/>
<polygon fill="midnightblue" stroke="midnightblue" points="1122.53,-610.03 1131.42,-604.28 1120.88,-603.23 1122.53,-610.03"/>
</g>
<!-- Node5&#45;&gt;Node4 -->
<g id="edge5" class="edge">
<title>Node5&#45;&gt;Node4</title>
<path fill="none" stroke="midnightblue" d="M1214.65,-629.07C1227.34,-625.88 1241.42,-621.1 1253,-614 1270.23,-603.44 1285.61,-586.28 1296.03,-572.85"/>
<polygon fill="midnightblue" stroke="midnightblue" points="1298.96,-574.78 1302.14,-564.67 1293.35,-570.59 1298.96,-574.78"/>
</g>
<!-- Node5&#45;&gt;Node5 -->
<g id="edge6" class="edge">
<title>Node5&#45;&gt;Node5</title>
<path fill="none" stroke="midnightblue" d="M1157.45,-646.7C1149.39,-655.76 1156.57,-665 1179,-665 1193.02,-665 1201.08,-661.39 1203.19,-656.47"/>
<polygon fill="midnightblue" stroke="midnightblue" points="1206.54,-655.44 1200.55,-646.7 1199.78,-657.27 1206.54,-655.44"/>
</g>
<!-- Node6&#45;&gt;Node4 -->
<g id="edge8" class="edge">
<title>Node6&#45;&gt;Node4</title>
<path fill="none" stroke="midnightblue" d="M1217.6,-581.43C1237.09,-575.43 1260.6,-568.2 1279.03,-562.53"/>
<polygon fill="midnightblue" stroke="midnightblue" points="1280.15,-565.85 1288.68,-559.56 1278.1,-559.15 1280.15,-565.85"/>
</g>
<!-- Node7&#45;&gt;Node4 -->
<g id="edge10" class="edge">
<title>Node7&#45;&gt;Node4</title>
<path fill="none" stroke="midnightblue" d="M349.6,-530.82C482.55,-550.32 801.29,-590.83 1069,-576 1085.07,-575.11 1088.98,-573.63 1105,-572 1166.53,-565.73 1238.54,-559.26 1278.75,-555.72"/>
<polygon fill="midnightblue" stroke="midnightblue" points="1279.08,-559.2 1288.74,-554.84 1278.47,-552.23 1279.08,-559.2"/>
</g>
<!-- Node9 -->
<g id="node9" class="node">
<title>Node9</title>
<g id="a_node9"><a xlink:href="../../d0/d96/parda_8c.html#ac09d652f19b088bdb26be5372506e473" target="_top" xlink:title=" ">
<polygon fill="white" stroke="black" points="759,-504.5 759,-527.5 844,-527.5 844,-504.5 759,-504.5"/>
<text text-anchor="middle" x="801.5" y="-512.3" font-family="Helvetica,sans-Serif" font-size="14.00">parda_init</text>
</a>
</g>
</g>
<!-- Node8&#45;&gt;Node9 -->
<g id="edge12" class="edge">
<title>Node8&#45;&gt;Node9</title>
<path fill="none" stroke="midnightblue" d="M340.54,-417.56C440.11,-438.87 651.29,-484.07 748.97,-504.97"/>
<polygon fill="midnightblue" stroke="midnightblue" points="748.39,-508.43 758.9,-507.1 749.85,-501.58 748.39,-508.43"/>
</g>
<!-- Node9&#45;&gt;Node4 -->
<g id="edge14" class="edge">
<title>Node9&#45;&gt;Node4</title>
<path fill="none" stroke="midnightblue" d="M844.06,-515.5C923.81,-515.11 1103.65,-517.05 1253,-539 1261.53,-540.25 1270.65,-542.21 1279.03,-544.26"/>
<polygon fill="midnightblue" stroke="midnightblue" points="1278.25,-547.68 1288.81,-546.78 1279.99,-540.9 1278.25,-547.68"/>
</g>
<!-- Node10 -->
<g id="node10" class="node">
<title>Node10</title>
<g id="a_node10"><a xlink:href="../../d0/d96/parda_8c.html#a91944ae0f09f2add974175b82819b9b1" target="_top" xlink:title=" ">
<polygon fill="white" stroke="black" points="938,-543.5 938,-566.5 1069,-566.5 1069,-543.5 938,-543.5"/>
<text text-anchor="middle" x="1003.5" y="-551.3" font-family="Helvetica,sans-Serif" font-size="14.00">compare_strings</text>
</a>
</g>
</g>
<!-- Node9&#45;&gt;Node10 -->
<g id="edge13" class="edge">
<title>Node9&#45;&gt;Node10</title>
<path fill="none" stroke="midnightblue" d="M844.43,-524.18C870.15,-529.19 903.73,-535.74 933.32,-541.51"/>
<polygon fill="midnightblue" stroke="midnightblue" points="932.7,-544.95 943.18,-543.43 934.04,-538.08 932.7,-544.95"/>
</g>
<!-- Node11 -->
<g id="node11" class="node">
<title>Node11</title>
<g id="a_node11"><a xlink:href="../../dc/dce/narray_8c.html#a32d99037d1eb9c14a4802ce1999cd8d6" target="_top" xlink:title=" ">
<polygon fill="white" stroke="black" points="955,-463.5 955,-486.5 1052,-486.5 1052,-463.5 955,-463.5"/>
<text text-anchor="middle" x="1003.5" y="-471.3" font-family="Helvetica,sans-Serif" font-size="14.00">narray_new</text>
</a>
</g>
</g>
<!-- Node9&#45;&gt;Node11 -->
<g id="edge15" class="edge">
<title>Node9&#45;&gt;Node11</title>
<path fill="none" stroke="midnightblue" d="M844.43,-507.41C873.47,-501.45 912.52,-493.45 944.53,-486.88"/>
<polygon fill="midnightblue" stroke="midnightblue" points="945.57,-490.24 954.66,-484.81 944.16,-483.39 945.57,-490.24"/>
</g>
<!-- Node13 -->
<g id="node13" class="node">
<title>Node13</title>
<g id="a_node13"><a xlink:href="../../d0/d82/parda__omp_8c.html#a5d46267c0ac6b1974e173b966bade09c" target="_top" xlink:title=" ">
<polygon fill="white" stroke="black" points="451.5,-62.5 451.5,-85.5 621.5,-85.5 621.5,-62.5 451.5,-62.5"/>
<text text-anchor="middle" x="536.5" y="-70.3" font-family="Helvetica,sans-Serif" font-size="14.00">parda_get_thread_info</text>
</a>
</g>
</g>
<!-- Node12&#45;&gt;Node13 -->
<g id="edge17" class="edge">
<title>Node12&#45;&gt;Node13</title>
<path fill="none" stroke="midnightblue" d="M357.46,-248.9C362.66,-246.04 367.58,-242.76 372,-239 398.03,-216.83 385.87,-197.07 408,-171 436.46,-137.47 478.4,-108.35 506.32,-90.99"/>
<polygon fill="midnightblue" stroke="midnightblue" points="508.5,-93.76 515.21,-85.56 504.85,-87.79 508.5,-93.76"/>
</g>
<!-- Node17 -->
<g id="node17" class="node">
<title>Node17</title>
<g id="a_node17"><a xlink:href="../../d0/d96/parda_8c.html#a2db3eea4fc07fce7ce243d7f257355f1" target="_top" xlink:title=" ">
<polygon fill="white" stroke="black" points="408,-264.5 408,-287.5 665,-287.5 665,-264.5 408,-264.5"/>
<text text-anchor="middle" x="536.5" y="-272.3" font-family="Helvetica,sans-Serif" font-size="14.00">parda_input_with_binaryfilepointer</text>
</a>
</g>
</g>
<!-- Node12&#45;&gt;Node17 -->
<g id="edge23" class="edge">
<title>Node12&#45;&gt;Node17</title>
<path fill="none" stroke="midnightblue" d="M372.19,-270.75C380.48,-271.02 389.03,-271.29 397.66,-271.57"/>
<polygon fill="midnightblue" stroke="midnightblue" points="397.72,-275.08 407.83,-271.9 397.94,-268.08 397.72,-275.08"/>
</g>
<!-- Node18 -->
<g id="node18" class="node">
<title>Node18</title>
<g id="a_node18"><a xlink:href="../../d0/d96/parda_8c.html#a2e011afd5d113d7b404cff2b9467af8d" target="_top" xlink:title=" ">
<polygon fill="white" stroke="black" points="417,-180.5 417,-203.5 656,-203.5 656,-180.5 417,-180.5"/>
<text text-anchor="middle" x="536.5" y="-188.3" font-family="Helvetica,sans-Serif" font-size="14.00">parda_input_with_textfilepointer</text>
</a>
</g>
</g>
<!-- Node12&#45;&gt;Node18 -->
<g id="edge24" class="edge">
<title>Node12&#45;&gt;Node18</title>
<path fill="none" stroke="midnightblue" d="M349.96,-248.87C357.53,-245.89 365.03,-242.59 372,-239 389.54,-229.95 389.78,-220.58 408,-213 414.12,-210.45 420.53,-208.21 427.08,-206.24"/>
<polygon fill="midnightblue" stroke="midnightblue" points="428.06,-209.6 436.75,-203.55 426.18,-202.86 428.06,-209.6"/>
</g>
<!-- Node24 -->
<g id="node24" class="node">
<title>Node24</title>
<g id="a_node24"><a xlink:href="../../d0/d96/parda_8c.html#ac66e3c12653af16fe2738d9e0089acfc" target="_top" xlink:title=" ">
<polygon fill="white" stroke="black" points="483,-364.5 483,-387.5 590,-387.5 590,-364.5 483,-364.5"/>
<text text-anchor="middle" x="536.5" y="-372.3" font-family="Helvetica,sans-Serif" font-size="14.00">parda_merge</text>
</a>
</g>
</g>
<!-- Node12&#45;&gt;Node24 -->
<g id="edge33" class="edge">
<title>Node12&#45;&gt;Node24</title>
<path fill="none" stroke="midnightblue" d="M330.44,-287.06C378.57,-307.93 454.84,-341.01 499.54,-360.4"/>
<polygon fill="midnightblue" stroke="midnightblue" points="498.28,-363.67 508.85,-364.44 501.07,-357.25 498.28,-363.67"/>
</g>
<!-- Node29 -->
<g id="node29" class="node">
<title>Node29</title>
<g id="a_node29"><a xlink:href="../../d0/d82/parda__omp_8c.html#ad56cad2d13d0e6b3cc0fb151a1766a6d" target="_top" xlink:title=" ">
<polygon fill="white" stroke="black" points="458.5,-222.5 458.5,-245.5 614.5,-245.5 614.5,-222.5 458.5,-222.5"/>
<text text-anchor="middle" x="536.5" y="-230.3" font-family="Helvetica,sans-Serif" font-size="14.00">parda_omp_openfile</text>
</a>
</g>
</g>
<!-- Node12&#45;&gt;Node29 -->
<g id="edge47" class="edge">
<title>Node12&#45;&gt;Node29</title>
<path fill="none" stroke="midnightblue" d="M372.19,-256.3C396.8,-252.94 423.65,-249.27 448.34,-245.9"/>
<polygon fill="midnightblue" stroke="midnightblue" points="448.98,-249.35 458.41,-244.53 448.03,-242.41 448.98,-249.35"/>
</g>
<!-- Node14 -->
<g id="node14" class="node">
<title>Node14</title>
<g id="a_node14"><a xlink:href="../../d0/dbf/parda_8h.html#acaab2e6efac0dda49e7cd3681b821bb1" target="_top" xlink:title=" ">
<polygon fill="white" stroke="black" points="754.5,-0.5 754.5,-23.5 848.5,-23.5 848.5,-0.5 754.5,-0.5"/>
<text text-anchor="middle" x="801.5" y="-8.3" font-family="Helvetica,sans-Serif" font-size="14.00">parda_high</text>
</a>
</g>
</g>
<!-- Node13&#45;&gt;Node14 -->
<g id="edge18" class="edge">
<title>Node13&#45;&gt;Node14</title>
<path fill="none" stroke="midnightblue" d="M581.46,-62.5C614.31,-54.02 660.37,-42.38 701,-33 714.98,-29.77 730.11,-26.48 744.26,-23.48"/>
<polygon fill="midnightblue" stroke="midnightblue" points="745.28,-26.84 754.35,-21.36 743.84,-19.99 745.28,-26.84"/>
</g>
<!-- Node15 -->
<g id="node15" class="node">
<title>Node15</title>
<g id="a_node15"><a xlink:href="../../d0/dbf/parda_8h.html#ae98c5df9941618081aa7dd90a30627fc" target="_top" xlink:title=" ">
<polygon fill="white" stroke="black" points="960.5,-42.5 960.5,-65.5 1046.5,-65.5 1046.5,-42.5 960.5,-42.5"/>
<text text-anchor="middle" x="1003.5" y="-50.3" font-family="Helvetica,sans-Serif" font-size="14.00">parda_low</text>
</a>
</g>
</g>
<!-- Node13&#45;&gt;Node15 -->
<g id="edge20" class="edge">
<title>Node13&#45;&gt;Node15</title>
<path fill="none" stroke="midnightblue" d="M621.72,-79.26C695.76,-82.68 806.32,-84.89 902,-75 917.85,-73.36 934.89,-70.31 950.36,-67.02"/>
<polygon fill="midnightblue" stroke="midnightblue" points="951.25,-70.41 960.26,-64.84 949.74,-63.57 951.25,-70.41"/>
</g>
<!-- Node16 -->
<g id="node16" class="node">
<title>Node16</title>
<g id="a_node16"><a xlink:href="../../d0/dbf/parda_8h.html#a8b096049ef5ab82de4e5eaa0c22aedd6" target="_top" xlink:title=" ">
<polygon fill="white" stroke="black" points="756.5,-42.5 756.5,-65.5 846.5,-65.5 846.5,-42.5 756.5,-42.5"/>
<text text-anchor="middle" x="801.5" y="-50.3" font-family="Helvetica,sans-Serif" font-size="14.00">parda_size</text>
</a>
</g>
</g>
<!-- Node13&#45;&gt;Node16 -->
<g id="edge21" class="edge">
<title>Node13&#45;&gt;Node16</title>
<path fill="none" stroke="midnightblue" d="M621.8,-67.59C662.55,-64.49 710.27,-60.86 746.15,-58.13"/>
<polygon fill="midnightblue" stroke="midnightblue" points="746.7,-61.6 756.41,-57.35 746.17,-54.62 746.7,-61.6"/>
</g>
<!-- Node14&#45;&gt;Node15 -->
<g id="edge19" class="edge">
<title>Node14&#45;&gt;Node15</title>
<path fill="none" stroke="midnightblue" d="M848.64,-21.69C879.03,-28.07 918.89,-36.44 950.42,-43.06"/>
<polygon fill="midnightblue" stroke="midnightblue" points="949.84,-46.52 960.35,-45.15 951.28,-39.67 949.84,-46.52"/>
</g>
<!-- Node16&#45;&gt;Node15 -->
<g id="edge22" class="edge">
<title>Node16&#45;&gt;Node15</title>
<path fill="none" stroke="midnightblue" d="M846.89,-54C877.42,-54 918.09,-54 950.19,-54"/>
<polygon fill="midnightblue" stroke="midnightblue" points="950.29,-57.5 960.29,-54 950.29,-50.5 950.29,-57.5"/>
</g>
<!-- Node19 -->
<g id="node19" class="node">
<title>Node19</title>
<g id="a_node19"><a xlink:href="../../d0/dbf/parda_8h.html#aba642b919a1605f65607ac245ce94fa9" target="_top" xlink:title=" ">
<polygon fill="white" stroke="black" points="724,-180.5 724,-203.5 879,-203.5 879,-180.5 724,-180.5"/>
<text text-anchor="middle" x="801.5" y="-188.3" font-family="Helvetica,sans-Serif" font-size="14.00">process_one_access</text>
</a>
</g>
</g>
<!-- Node18&#45;&gt;Node19 -->
<g id="edge25" class="edge">
<title>Node18&#45;&gt;Node19</title>
<path fill="none" stroke="midnightblue" d="M656.3,-192C675.6,-192 695.26,-192 713.61,-192"/>
<polygon fill="midnightblue" stroke="midnightblue" points="713.66,-195.5 723.66,-192 713.66,-188.5 713.66,-195.5"/>
</g>
<!-- Node23 -->
<g id="node23" class="node">
<title>Node23</title>
<g id="a_node23"><a xlink:href="../../d0/dbf/parda_8h.html#ab88eb69b6dc07345fb2318fe9c2093d1" target="_top" xlink:title=" ">
<polygon fill="white" stroke="black" points="724,-123 724,-161 879,-161 879,-123 724,-123"/>
<text text-anchor="start" x="732" y="-145.8" font-family="Helvetica,sans-Serif" font-size="14.00">process_one_access</text>
<text text-anchor="middle" x="801.5" y="-130.8" font-family="Helvetica,sans-Serif" font-size="14.00">_shared</text>
</a>
</g>
</g>
<!-- Node18&#45;&gt;Node23 -->
<g id="edge30" class="edge">
<title>Node18&#45;&gt;Node23</title>
<path fill="none" stroke="midnightblue" d="M598.17,-180.47C632.42,-173.95 675.82,-165.7 713.63,-158.51"/>
<polygon fill="midnightblue" stroke="midnightblue" points="714.46,-161.92 723.63,-156.61 713.15,-155.04 714.46,-161.92"/>
</g>
<!-- Node20 -->
<g id="node20" class="node">
<title>Node20</title>
<g id="a_node20"><a xlink:href="../../d1/df7/splay_8c.html#a7860ad42bad70e478b3778c1eb4c42b7" target="_top" xlink:title=" ">
<polygon fill="white" stroke="black" points="975.5,-221.5 975.5,-244.5 1031.5,-244.5 1031.5,-221.5 975.5,-221.5"/>
<text text-anchor="middle" x="1003.5" y="-229.3" font-family="Helvetica,sans-Serif" font-size="14.00">insert</text>
</a>
</g>
</g>
<!-- Node19&#45;&gt;Node20 -->
<g id="edge26" class="edge">
<title>Node19&#45;&gt;Node20</title>
<path fill="none" stroke="midnightblue" d="M858.74,-203.53C892.85,-210.52 935.41,-219.25 965.35,-225.38"/>
<polygon fill="midnightblue" stroke="midnightblue" points="964.87,-228.86 975.37,-227.44 966.28,-222 964.87,-228.86"/>
</g>
<!-- Node22 -->
<g id="node22" class="node">
<title>Node22</title>
<g id="a_node22"><a xlink:href="../../dc/dce/narray_8c.html#a00e1ac7249125879d43230a3f1a49b1d" target="_top" xlink:title=" ">
<polygon fill="white" stroke="black" points="1105,-304.5 1105,-327.5 1253,-327.5 1253,-304.5 1105,-304.5"/>
<text text-anchor="middle" x="1179" y="-312.3" font-family="Helvetica,sans-Serif" font-size="14.00">narray_append_val</text>
</a>
</g>
</g>
<!-- Node19&#45;&gt;Node22 -->
<g id="edge28" class="edge">
<title>Node19&#45;&gt;Node22</title>
<path fill="none" stroke="midnightblue" d="M879,-182.67C934.65,-179.35 1010.22,-182.25 1069,-212 1090.94,-223.1 1087.58,-236.65 1105,-254 1120.76,-269.69 1139.98,-285.91 1154.74,-297.82"/>
<polygon fill="midnightblue" stroke="midnightblue" points="1152.86,-300.8 1162.86,-304.3 1157.23,-295.33 1152.86,-300.8"/>
</g>
<!-- Node21 -->
<g id="node21" class="node">
<title>Node21</title>
<g id="a_node21"><a xlink:href="../../d1/df7/splay_8c.html#a504c21ef77c65b86162e01d158acd1d6" target="_top" xlink:title=" ">
<polygon fill="white" stroke="black" points="1152.5,-221.5 1152.5,-244.5 1205.5,-244.5 1205.5,-221.5 1152.5,-221.5"/>
<text text-anchor="middle" x="1179" y="-229.3" font-family="Helvetica,sans-Serif" font-size="14.00">splay</text>
</a>
</g>
</g>
<!-- Node20&#45;&gt;Node21 -->
<g id="edge27" class="edge">
<title>Node20&#45;&gt;Node21</title>
<path fill="none" stroke="midnightblue" d="M1031.61,-233C1061.45,-233 1109.54,-233 1142.4,-233"/>
<polygon fill="midnightblue" stroke="midnightblue" points="1142.49,-236.5 1152.49,-233 1142.49,-229.5 1142.49,-236.5"/>
</g>
<!-- Node22&#45;&gt;Node4 -->
<g id="edge29" class="edge">
<title>Node22&#45;&gt;Node4</title>
<path fill="none" stroke="midnightblue" d="M1197.41,-327.68C1213.89,-339.56 1238.23,-359.4 1253,-382 1284.37,-430.02 1300.04,-496.93 1306.41,-531.07"/>
<polygon fill="midnightblue" stroke="midnightblue" points="1303.03,-532.08 1308.22,-541.32 1309.93,-530.86 1303.03,-532.08"/>
</g>
<!-- Node23&#45;&gt;Node20 -->
<g id="edge31" class="edge">
<title>Node23&#45;&gt;Node20</title>
<path fill="none" stroke="midnightblue" d="M876.13,-161.02C884.97,-164.01 893.78,-167.35 902,-171 929.46,-183.2 958.41,-201.75 978.15,-215.38"/>
<polygon fill="midnightblue" stroke="midnightblue" points="976.34,-218.39 986.54,-221.26 980.36,-212.65 976.34,-218.39"/>
</g>
<!-- Node23&#45;&gt;Node22 -->
<g id="edge32" class="edge">
<title>Node23&#45;&gt;Node22</title>
<path fill="none" stroke="midnightblue" d="M879.1,-134.29C936.6,-132.54 1014.48,-139.2 1069,-179 1098.86,-200.8 1082.41,-224.73 1105,-254 1118.25,-271.17 1136.94,-286.93 1152.09,-298.27"/>
<polygon fill="midnightblue" stroke="midnightblue" points="1150.39,-301.36 1160.54,-304.41 1154.51,-295.7 1150.39,-301.36"/>
</g>
<!-- Node24&#45;&gt;Node4 -->
<g id="edge34" class="edge">
<title>Node24&#45;&gt;Node4</title>
<path fill="none" stroke="midnightblue" d="M590.27,-376.69C687.04,-379.16 898.59,-390.24 1069,-439 1150.46,-462.31 1238.66,-510.58 1282.3,-536.19"/>
<polygon fill="midnightblue" stroke="midnightblue" points="1280.78,-539.36 1291.17,-541.44 1284.35,-533.33 1280.78,-539.36"/>
</g>
<!-- Node24&#45;&gt;Node6 -->
<g id="edge35" class="edge">
<title>Node24&#45;&gt;Node6</title>
<path fill="none" stroke="midnightblue" d="M572.23,-387.58C598.56,-397.03 635.17,-411.62 665,-429 682.51,-439.2 681.83,-450.42 701,-457 785.5,-485.99 812.74,-460.71 902,-457 918.04,-456.33 921.96,-454.67 938,-454 996.17,-451.58 1016.65,-428.52 1069,-454 1119.51,-478.58 1153.54,-539.15 1168.82,-571.62"/>
<polygon fill="midnightblue" stroke="midnightblue" points="1165.8,-573.44 1173.12,-581.1 1172.17,-570.54 1165.8,-573.44"/>
</g>
<!-- Node25 -->
<g id="node25" class="node">
<title>Node25</title>
<g id="a_node25"><a xlink:href="../../d0/d96/parda_8c.html#a961dead466e68fdb22133f3544e60bda" target="_top" xlink:title=" ">
<polygon fill="white" stroke="black" points="722.5,-424.5 722.5,-447.5 880.5,-447.5 880.5,-424.5 722.5,-424.5"/>
<text text-anchor="middle" x="801.5" y="-432.3" font-family="Helvetica,sans-Serif" font-size="14.00">parda_generate_end</text>
</a>
</g>
</g>
<!-- Node24&#45;&gt;Node25 -->
<g id="edge36" class="edge">
<title>Node24&#45;&gt;Node25</title>
<path fill="none" stroke="midnightblue" d="M588.21,-387.57C631.6,-397.47 694.14,-411.74 740.11,-422.22"/>
<polygon fill="midnightblue" stroke="midnightblue" points="739.42,-425.65 749.95,-424.47 740.98,-418.83 739.42,-425.65"/>
</g>
<!-- Node27 -->
<g id="node27" class="node">
<title>Node27</title>
<g id="a_node27"><a xlink:href="../../d0/d96/parda_8c.html#a757e86b5a2b7eac055f98a355da1c184" target="_top" xlink:title=" ">
<polygon fill="white" stroke="black" points="733.5,-264.5 733.5,-287.5 869.5,-287.5 869.5,-264.5 733.5,-264.5"/>
<text text-anchor="middle" x="801.5" y="-272.3" font-family="Helvetica,sans-Serif" font-size="14.00">parda_get_abend</text>
</a>
</g>
</g>
<!-- Node24&#45;&gt;Node27 -->
<g id="edge40" class="edge">
<title>Node24&#45;&gt;Node27</title>
<path fill="none" stroke="midnightblue" d="M567.93,-364.43C615.53,-346.33 707.65,-311.31 760.54,-291.19"/>
<polygon fill="midnightblue" stroke="midnightblue" points="761.84,-294.44 769.94,-287.62 759.35,-287.9 761.84,-294.44"/>
</g>
<!-- Node28 -->
<g id="node28" class="node">
<title>Node28</title>
<g id="a_node28"><a xlink:href="../../d0/d96/parda_8c.html#a8e4c1106b242bf781e1ec7d62fc21a41" target="_top" xlink:title=" ">
<polygon fill="white" stroke="black" points="730,-344.5 730,-367.5 873,-367.5 873,-344.5 730,-344.5"/>
<text text-anchor="middle" x="801.5" y="-352.3" font-family="Helvetica,sans-Serif" font-size="14.00">parda_get_abfront</text>
</a>
</g>
</g>
<!-- Node24&#45;&gt;Node28 -->
<g id="edge43" class="edge">
<title>Node24&#45;&gt;Node28</title>
<path fill="none" stroke="midnightblue" d="M590.09,-372C627.07,-369.19 677.25,-365.37 719.33,-362.17"/>
<polygon fill="midnightblue" stroke="midnightblue" points="719.86,-365.64 729.57,-361.39 719.33,-358.66 719.86,-365.64"/>
</g>
<!-- Node25&#45;&gt;Node11 -->
<g id="edge39" class="edge">
<title>Node25&#45;&gt;Node11</title>
<path fill="none" stroke="midnightblue" d="M861.69,-447.54C887.93,-452.66 918.69,-458.66 944.75,-463.74"/>
<polygon fill="midnightblue" stroke="midnightblue" points="944.38,-467.23 954.86,-465.71 945.72,-460.36 944.38,-467.23"/>
</g>
<!-- Node26 -->
<g id="node26" class="node">
<title>Node26</title>
<g id="a_node26"><a xlink:href="../../d0/d96/parda_8c.html#a91a802bec195082a1e725e3f307b099a" target="_top" xlink:title=" ">
<polygon fill="white" stroke="black" points="969.5,-344.5 969.5,-367.5 1037.5,-367.5 1037.5,-344.5 969.5,-344.5"/>
<text text-anchor="middle" x="1003.5" y="-352.3" font-family="Helvetica,sans-Serif" font-size="14.00">iterator</text>
</a>
</g>
</g>
<!-- Node25&#45;&gt;Node26 -->
<g id="edge37" class="edge">
<title>Node25&#45;&gt;Node26</title>
<path fill="none" stroke="midnightblue" d="M831.58,-424.37C866.64,-410.34 925.65,-386.74 964.34,-371.27"/>
<polygon fill="midnightblue" stroke="midnightblue" points="965.72,-374.48 973.71,-367.52 963.12,-367.98 965.72,-374.48"/>
</g>
<!-- Node26&#45;&gt;Node22 -->
<g id="edge38" class="edge">
<title>Node26&#45;&gt;Node22</title>
<path fill="none" stroke="midnightblue" d="M1037.54,-348.38C1060.31,-343.13 1091.21,-336.01 1118.24,-329.78"/>
<polygon fill="midnightblue" stroke="midnightblue" points="1119.04,-333.19 1127.99,-327.53 1117.46,-326.36 1119.04,-333.19"/>
</g>
<!-- Node27&#45;&gt;Node2 -->
<g id="edge42" class="edge">
<title>Node27&#45;&gt;Node2</title>
<path fill="none" stroke="midnightblue" d="M869.65,-276C890.33,-276 913.11,-276 933.88,-276"/>
<polygon fill="midnightblue" stroke="midnightblue" points="933.9,-279.5 943.9,-276 933.9,-272.5 933.9,-279.5"/>
</g>
<!-- Node27&#45;&gt;Node20 -->
<g id="edge41" class="edge">
<title>Node27&#45;&gt;Node20</title>
<path fill="none" stroke="midnightblue" d="M857.52,-264.47C871.99,-261.41 887.59,-258.1 902,-255 922.92,-250.5 946.27,-245.4 965.2,-241.24"/>
<polygon fill="midnightblue" stroke="midnightblue" points="966.2,-244.6 975.21,-239.03 964.69,-237.76 966.2,-244.6"/>
</g>
<!-- Node28&#45;&gt;Node2 -->
<g id="edge46" class="edge">
<title>Node28&#45;&gt;Node2</title>
<path fill="none" stroke="midnightblue" d="M862.59,-344.49C875.94,-340.8 889.75,-336.04 902,-330 920.18,-321.03 920.43,-312.11 938,-302 944.62,-298.19 951.9,-294.68 959.12,-291.55"/>
<polygon fill="midnightblue" stroke="midnightblue" points="960.95,-294.58 968.86,-287.52 958.28,-288.11 960.95,-294.58"/>
</g>
<!-- Node28&#45;&gt;Node20 -->
<g id="edge44" class="edge">
<title>Node28&#45;&gt;Node20</title>
<path fill="none" stroke="midnightblue" d="M826.85,-344.42C847.93,-333.75 878.63,-316.64 902,-297 920.82,-281.19 917.65,-268.79 938,-255 946.29,-249.39 956.14,-245.08 965.62,-241.83"/>
<polygon fill="midnightblue" stroke="midnightblue" points="966.78,-245.13 975.29,-238.81 964.7,-238.45 966.78,-245.13"/>
</g>
<!-- Node28&#45;&gt;Node22 -->
<g id="edge45" class="edge">
<title>Node28&#45;&gt;Node22</title>
<path fill="none" stroke="midnightblue" d="M870.25,-344.48C891.86,-341.08 915.89,-337.58 938,-335 990.02,-328.92 1048.62,-324.24 1094.89,-321.04"/>
<polygon fill="midnightblue" stroke="midnightblue" points="1095.13,-324.54 1104.87,-320.37 1094.65,-317.55 1095.13,-324.54"/>
</g>
<!-- Node30 -->
<g id="node30" class="node">
<title>Node30</title>
<g id="a_node30"><a xlink:href="../../d0/dbf/parda_8h.html#aa791bc155904822d2963775bdc5be422" target="_top" xlink:title=" ">
<polygon fill="white" stroke="black" points="701,-222.5 701,-245.5 902,-245.5 902,-222.5 701,-222.5"/>
<text text-anchor="middle" x="801.5" y="-230.3" font-family="Helvetica,sans-Serif" font-size="14.00">parda_generate_pfilename</text>
</a>
</g>
</g>
<!-- Node29&#45;&gt;Node30 -->
<g id="edge48" class="edge">
<title>Node29&#45;&gt;Node30</title>
<path fill="none" stroke="midnightblue" d="M614.63,-234C638.45,-234 665.16,-234 690.73,-234"/>
<polygon fill="midnightblue" stroke="midnightblue" points="690.85,-237.5 700.85,-234 690.85,-230.5 690.85,-237.5"/>
</g>
</g>
</svg>
        <g id="navigator" transform="translate(0 0)" fill="#404254">
                <rect fill="#f2f5e9" fill-opacity="0.5" stroke="#606060" stroke-width=".5" x="0" y="0" width="60" height="60"/>
                <use id="zoomplus" xlink:href="#zoomPlus" x="17" y="9" onmousedown="handleZoom(evt,'in')"/>
                <use id="zoomminus" xlink:href="#zoomMin" x="42" y="9" onmousedown="handleZoom(evt,'out')"/>
                <use id="reset" xlink:href="#resetDef" x="30" y="36" onmousedown="handleReset()"/>
                <g id="arrowUp" xlink:href="#dirArrow" transform="translate(30 24)" onmousedown="handlePan(0,-1)">
                  <use xlink:href="#rim" fill="#404040">
                        <set attributeName="fill" to="#808080" begin="arrowUp.mouseover" end="arrowUp.mouseout"/>
                  </use>
                  <path fill="none" stroke="white" stroke-width="1.5" d="M0,-3.0v7 M-2.5,-0.5L0,-3.0L2.5,-0.5"/>
                </g>
                <g id="arrowRight" xlink:href="#dirArrow" transform="rotate(90) translate(36 -43)" onmousedown="handlePan(1,0)">
                  <use xlink:href="#rim" fill="#404040">
                        <set attributeName="fill" to="#808080" begin="arrowRight.mouseover" end="arrowRight.mouseout"/>
                  </use>
                  <path fill="none" stroke="white" stroke-width="1.5" d="M0,-3.0v7 M-2.5,-0.5L0,-3.0L2.5,-0.5"/>
                </g>
                <g id="arrowDown" xlink:href="#dirArrow" transform="rotate(180) translate(-30 -48)" onmousedown="handlePan(0,1)">
                  <use xlink:href="#rim" fill="#404040">
                        <set attributeName="fill" to="#808080" begin="arrowDown.mouseover" end="arrowDown.mouseout"/>
                  </use>
                  <path fill="none" stroke="white" stroke-width="1.5" d="M0,-3.0v7 M-2.5,-0.5L0,-3.0L2.5,-0.5"/>
                </g>
                <g id="arrowLeft" xlink:href="#dirArrow" transform="rotate(270) translate(-36 17)" onmousedown="handlePan(-1,0)">
                  <use xlink:href="#rim" fill="#404040">
                        <set attributeName="fill" to="#808080" begin="arrowLeft.mouseover" end="arrowLeft.mouseout"/>
                  </use>
                  <path fill="none" stroke="white" stroke-width="1.5" d="M0,-3.0v7 M-2.5,-0.5L0,-3.0L2.5,-0.5"/>
                </g>
        </g>
        <svg viewBox="0 0 15 15" width="100%" height="30px" preserveAspectRatio="xMaxYMin meet">
         <g id="arrow_out" transform="scale(0.3 0.3)">
          <a xlink:href="parda__omp_8c_af99a329269ee6e1bd3f49b4442ab1097_cgraph_org.svg" target="_base">
           <rect id="button" ry="5" rx="5" y="6" x="6" height="38" width="38"
                fill="#f2f5e9" fill-opacity="0.5" stroke="#606060" stroke-width="1.0"/>
           <path id="arrow"
             d="M 11.500037,31.436501 C 11.940474,20.09759 22.043105,11.32322 32.158766,21.979434 L 37.068811,17.246167 C 37.068811,17.246167 37.088388,32 37.088388,32 L 22.160133,31.978069 C 22.160133,31.978069 26.997745,27.140456 26.997745,27.140456 C 18.528582,18.264221 13.291696,25.230495 11.500037,31.436501 z"
             style="fill:#404040;"/>
          </a>
         </g>
        </svg>
</svg>
