<?xml version="1.0" encoding="UTF-8" standalone="no"?>
<!DOCTYPE svg PUBLIC "-//W3C//DTD SVG 1.1//EN"
 "http://www.w3.org/Graphics/SVG/1.1/DTD/svg11.dtd">
<!-- Generated by graphviz version 2.43.0 (0)
 -->
<!-- Title: parda_omp_input Pages: 1 -->
<svg width="1140pt" height="495pt"
 viewBox="0.00 0.00 1140.00 494.96" xmlns="http://www.w3.org/2000/svg" xmlns:xlink="http://www.w3.org/1999/xlink">
<g id="graph0" class="graph" transform="scale(1 1) rotate(0) translate(4 490.96)">
<title>parda_omp_input</title>
<polygon fill="white" stroke="transparent" points="-4,4 -4,-490.96 1136,-490.96 1136,4 -4,4"/>
<!-- Node1 -->
<g id="node1" class="node">
<title>Node1</title>
<g id="a_node1"><a xlink:title=" ">
<polygon fill="#bfbfbf" stroke="black" points="0,-365.5 0,-388.5 137,-388.5 137,-365.5 0,-365.5"/>
<text text-anchor="middle" x="68.5" y="-373.3" font-family="Helvetica,sans-Serif" font-size="14.00">parda_omp_input</text>
</a>
</g>
</g>
<!-- Node2 -->
<g id="node2" class="node">
<title>Node2</title>
<g id="a_node2"><a xlink:href="../../d0/dbf/parda_8h.html#aa791bc155904822d2963775bdc5be422" target="_top" xlink:title=" ">
<polygon fill="white" stroke="black" points="173.5,-428.5 173.5,-451.5 374.5,-451.5 374.5,-428.5 173.5,-428.5"/>
<text text-anchor="middle" x="274" y="-436.3" font-family="Helvetica,sans-Serif" font-size="14.00">parda_generate_pfilename</text>
</a>
</g>
</g>
<!-- Node1&#45;&gt;Node2 -->
<g id="edge1" class="edge">
<title>Node1&#45;&gt;Node2</title>
<path fill="none" stroke="midnightblue" d="M94.56,-388.64C115.25,-397.89 145.55,-410.62 173,-419 181.6,-421.62 190.71,-424.03 199.8,-426.21"/>
<polygon fill="midnightblue" stroke="midnightblue" points="199.09,-429.64 209.62,-428.47 200.66,-422.81 199.09,-429.64"/>
</g>
<!-- Node3 -->
<g id="node3" class="node">
<title>Node3</title>
<g id="a_node3"><a xlink:href="../../d0/d82/parda__omp_8c.html#a5d46267c0ac6b1974e173b966bade09c" target="_top" xlink:title=" ">
<polygon fill="white" stroke="black" points="189,-386.5 189,-409.5 359,-409.5 359,-386.5 189,-386.5"/>
<text text-anchor="middle" x="274" y="-394.3" font-family="Helvetica,sans-Serif" font-size="14.00">parda_get_thread_info</text>
</a>
</g>
</g>
<!-- Node1&#45;&gt;Node3 -->
<g id="edge2" class="edge">
<title>Node1&#45;&gt;Node3</title>
<path fill="none" stroke="midnightblue" d="M137.26,-383.99C150.57,-385.37 164.75,-386.83 178.74,-388.27"/>
<polygon fill="midnightblue" stroke="midnightblue" points="178.57,-391.77 188.88,-389.32 179.29,-384.81 178.57,-391.77"/>
</g>
<!-- Node7 -->
<g id="node7" class="node">
<title>Node7</title>
<g id="a_node7"><a xlink:href="../../d0/d96/parda_8c.html#a1505668d8e66fe882bf0368896c3a8ec" target="_top" xlink:title=" ">
<polygon fill="white" stroke="black" points="173,-344.5 173,-367.5 375,-367.5 375,-344.5 173,-344.5"/>
<text text-anchor="middle" x="274" y="-352.3" font-family="Helvetica,sans-Serif" font-size="14.00">parda_input_with_filename</text>
</a>
</g>
</g>
<!-- Node1&#45;&gt;Node7 -->
<g id="edge8" class="edge">
<title>Node1&#45;&gt;Node7</title>
<path fill="none" stroke="midnightblue" d="M137.26,-370.01C145.49,-369.16 154.05,-368.27 162.7,-367.38"/>
<polygon fill="midnightblue" stroke="midnightblue" points="163.28,-370.84 172.87,-366.33 162.56,-363.88 163.28,-370.84"/>
</g>
<!-- Node16 -->
<g id="node16" class="node">
<title>Node16</title>
<g id="a_node16"><a xlink:href="../../d0/d96/parda_8c.html#ac66e3c12653af16fe2738d9e0089acfc" target="_top" xlink:title=" ">
<polygon fill="white" stroke="black" points="220.5,-225.5 220.5,-248.5 327.5,-248.5 327.5,-225.5 220.5,-225.5"/>
<text text-anchor="middle" x="274" y="-233.3" font-family="Helvetica,sans-Serif" font-size="14.00">parda_merge</text>
</a>
</g>
</g>
<!-- Node1&#45;&gt;Node16 -->
<g id="edge19" class="edge">
<title>Node1&#45;&gt;Node16</title>
<path fill="none" stroke="midnightblue" d="M86.5,-365.3C122.35,-340.64 205.85,-283.19 247.88,-254.28"/>
<polygon fill="midnightblue" stroke="midnightblue" points="249.94,-257.12 256.19,-248.56 245.97,-251.35 249.94,-257.12"/>
</g>
<!-- Node4 -->
<g id="node4" class="node">
<title>Node4</title>
<g id="a_node4"><a xlink:href="../../d0/dbf/parda_8h.html#acaab2e6efac0dda49e7cd3681b821bb1" target="_top" xlink:title=" ">
<polygon fill="white" stroke="black" points="492.5,-428.5 492.5,-451.5 586.5,-451.5 586.5,-428.5 492.5,-428.5"/>
<text text-anchor="middle" x="539.5" y="-436.3" font-family="Helvetica,sans-Serif" font-size="14.00">parda_high</text>
</a>
</g>
</g>
<!-- Node3&#45;&gt;Node4 -->
<g id="edge3" class="edge">
<title>Node3&#45;&gt;Node4</title>
<path fill="none" stroke="midnightblue" d="M347.35,-409.53C389.96,-416.32 443.05,-424.79 482.46,-431.07"/>
<polygon fill="midnightblue" stroke="midnightblue" points="482,-434.54 492.42,-432.66 483.1,-427.63 482,-434.54"/>
</g>
<!-- Node5 -->
<g id="node5" class="node">
<title>Node5</title>
<g id="a_node5"><a xlink:href="../../d0/dbf/parda_8h.html#ae98c5df9941618081aa7dd90a30627fc" target="_top" xlink:title=" ">
<polygon fill="white" stroke="black" points="738.5,-428.5 738.5,-451.5 824.5,-451.5 824.5,-428.5 738.5,-428.5"/>
<text text-anchor="middle" x="781.5" y="-436.3" font-family="Helvetica,sans-Serif" font-size="14.00">parda_low</text>
</a>
</g>
</g>
<!-- Node3&#45;&gt;Node5 -->
<g id="edge5" class="edge">
<title>Node3&#45;&gt;Node5</title>
<path fill="none" stroke="midnightblue" d="M354.37,-409.53C361.59,-412.09 368.59,-415.2 375,-419 396.16,-431.53 388.66,-450.73 411,-461 520.19,-511.22 667.08,-476.84 738.29,-454.68"/>
<polygon fill="midnightblue" stroke="midnightblue" points="739.77,-457.88 748.23,-451.51 737.64,-451.21 739.77,-457.88"/>
</g>
<!-- Node6 -->
<g id="node6" class="node">
<title>Node6</title>
<g id="a_node6"><a xlink:href="../../d0/dbf/parda_8h.html#a8b096049ef5ab82de4e5eaa0c22aedd6" target="_top" xlink:title=" ">
<polygon fill="white" stroke="black" points="494.5,-386.5 494.5,-409.5 584.5,-409.5 584.5,-386.5 494.5,-386.5"/>
<text text-anchor="middle" x="539.5" y="-394.3" font-family="Helvetica,sans-Serif" font-size="14.00">parda_size</text>
</a>
</g>
</g>
<!-- Node3&#45;&gt;Node6 -->
<g id="edge6" class="edge">
<title>Node3&#45;&gt;Node6</title>
<path fill="none" stroke="midnightblue" d="M359.1,-398C399.95,-398 447.86,-398 483.89,-398"/>
<polygon fill="midnightblue" stroke="midnightblue" points="484.2,-401.5 494.2,-398 484.2,-394.5 484.2,-401.5"/>
</g>
<!-- Node4&#45;&gt;Node5 -->
<g id="edge4" class="edge">
<title>Node4&#45;&gt;Node5</title>
<path fill="none" stroke="midnightblue" d="M586.77,-440C627.29,-440 686.12,-440 728.31,-440"/>
<polygon fill="midnightblue" stroke="midnightblue" points="728.39,-443.5 738.39,-440 728.39,-436.5 728.39,-443.5"/>
</g>
<!-- Node6&#45;&gt;Node5 -->
<g id="edge7" class="edge">
<title>Node6&#45;&gt;Node5</title>
<path fill="none" stroke="midnightblue" d="M584.79,-405.06C609.34,-409.03 640.38,-414.15 668,-419 687.74,-422.47 709.39,-426.46 728.38,-430.03"/>
<polygon fill="midnightblue" stroke="midnightblue" points="727.86,-433.5 738.33,-431.91 729.16,-426.62 727.86,-433.5"/>
</g>
<!-- Node8 -->
<g id="node8" class="node">
<title>Node8</title>
<g id="a_node8"><a xlink:href="../../d0/d96/parda_8c.html#a2db3eea4fc07fce7ce243d7f257355f1" target="_top" xlink:title=" ">
<polygon fill="white" stroke="black" points="411,-344.5 411,-367.5 668,-367.5 668,-344.5 411,-344.5"/>
<text text-anchor="middle" x="539.5" y="-352.3" font-family="Helvetica,sans-Serif" font-size="14.00">parda_input_with_binaryfilepointer</text>
</a>
</g>
</g>
<!-- Node7&#45;&gt;Node8 -->
<g id="edge9" class="edge">
<title>Node7&#45;&gt;Node8</title>
<path fill="none" stroke="midnightblue" d="M375.37,-356C383.73,-356 392.27,-356 400.85,-356"/>
<polygon fill="midnightblue" stroke="midnightblue" points="400.92,-359.5 410.92,-356 400.92,-352.5 400.92,-359.5"/>
</g>
<!-- Node9 -->
<g id="node9" class="node">
<title>Node9</title>
<g id="a_node9"><a xlink:href="../../d0/d96/parda_8c.html#a2e011afd5d113d7b404cff2b9467af8d" target="_top" xlink:title=" ">
<polygon fill="white" stroke="black" points="420,-213.5 420,-236.5 659,-236.5 659,-213.5 420,-213.5"/>
<text text-anchor="middle" x="539.5" y="-221.3" font-family="Helvetica,sans-Serif" font-size="14.00">parda_input_with_textfilepointer</text>
</a>
</g>
</g>
<!-- Node7&#45;&gt;Node9 -->
<g id="edge10" class="edge">
<title>Node7&#45;&gt;Node9</title>
<path fill="none" stroke="midnightblue" d="M298.38,-344.37C345.56,-320.92 452.19,-267.91 506.06,-241.13"/>
<polygon fill="midnightblue" stroke="midnightblue" points="507.77,-244.19 515.17,-236.6 504.66,-237.92 507.77,-244.19"/>
</g>
<!-- Node10 -->
<g id="node10" class="node">
<title>Node10</title>
<g id="a_node10"><a xlink:href="../../d0/dbf/parda_8h.html#aba642b919a1605f65607ac245ce94fa9" target="_top" xlink:title=" ">
<polygon fill="white" stroke="black" points="704,-126.5 704,-149.5 859,-149.5 859,-126.5 704,-126.5"/>
<text text-anchor="middle" x="781.5" y="-134.3" font-family="Helvetica,sans-Serif" font-size="14.00">process_one_access</text>
</a>
</g>
</g>
<!-- Node9&#45;&gt;Node10 -->
<g id="edge11" class="edge">
<title>Node9&#45;&gt;Node10</title>
<path fill="none" stroke="midnightblue" d="M647.6,-213.39C654.72,-210.8 661.59,-207.71 668,-204 689.87,-191.35 682.9,-173.9 704,-160 707.74,-157.54 711.75,-155.35 715.91,-153.4"/>
<polygon fill="midnightblue" stroke="midnightblue" points="717.34,-156.6 725.21,-149.51 714.64,-150.14 717.34,-156.6"/>
</g>
<!-- Node15 -->
<g id="node15" class="node">
<title>Node15</title>
<g id="a_node15"><a xlink:href="../../d0/dbf/parda_8h.html#ab88eb69b6dc07345fb2318fe9c2093d1" target="_top" xlink:title=" ">
<polygon fill="white" stroke="black" points="704,-169 704,-207 859,-207 859,-169 704,-169"/>
<text text-anchor="start" x="712" y="-191.8" font-family="Helvetica,sans-Serif" font-size="14.00">process_one_access</text>
<text text-anchor="middle" x="781.5" y="-176.8" font-family="Helvetica,sans-Serif" font-size="14.00">_shared</text>
</a>
</g>
</g>
<!-- Node9&#45;&gt;Node15 -->
<g id="edge16" class="edge">
<title>Node9&#45;&gt;Node15</title>
<path fill="none" stroke="midnightblue" d="M615.12,-213.5C640.02,-209.66 667.99,-205.35 693.73,-201.38"/>
<polygon fill="midnightblue" stroke="midnightblue" points="694.5,-204.8 703.85,-199.82 693.44,-197.88 694.5,-204.8"/>
</g>
<!-- Node11 -->
<g id="node11" class="node">
<title>Node11</title>
<g id="a_node11"><a xlink:href="../../d1/df7/splay_8c.html#a7860ad42bad70e478b3778c1eb4c42b7" target="_top" xlink:title=" ">
<polygon fill="white" stroke="black" points="941,-105.5 941,-128.5 997,-128.5 997,-105.5 941,-105.5"/>
<text text-anchor="middle" x="969" y="-113.3" font-family="Helvetica,sans-Serif" font-size="14.00">insert</text>
</a>
</g>
</g>
<!-- Node10&#45;&gt;Node11 -->
<g id="edge12" class="edge">
<title>Node10&#45;&gt;Node11</title>
<path fill="none" stroke="midnightblue" d="M859.02,-129.34C883.67,-126.55 909.89,-123.58 930.44,-121.25"/>
<polygon fill="midnightblue" stroke="midnightblue" points="931.08,-124.7 940.63,-120.1 930.3,-117.75 931.08,-124.7"/>
</g>
<!-- Node13 -->
<g id="node13" class="node">
<title>Node13</title>
<g id="a_node13"><a xlink:href="../../dc/dce/narray_8c.html#a00e1ac7249125879d43230a3f1a49b1d" target="_top" xlink:title=" ">
<polygon fill="white" stroke="black" points="895,-176.5 895,-199.5 1043,-199.5 1043,-176.5 895,-176.5"/>
<text text-anchor="middle" x="969" y="-184.3" font-family="Helvetica,sans-Serif" font-size="14.00">narray_append_val</text>
</a>
</g>
</g>
<!-- Node10&#45;&gt;Node13 -->
<g id="edge14" class="edge">
<title>Node10&#45;&gt;Node13</title>
<path fill="none" stroke="midnightblue" d="M825.52,-149.6C852.33,-156.82 887.01,-166.17 915.44,-173.83"/>
<polygon fill="midnightblue" stroke="midnightblue" points="914.64,-177.24 925.21,-176.47 916.47,-170.48 914.64,-177.24"/>
</g>
<!-- Node12 -->
<g id="node12" class="node">
<title>Node12</title>
<g id="a_node12"><a xlink:href="../../d1/df7/splay_8c.html#a504c21ef77c65b86162e01d158acd1d6" target="_top" xlink:title=" ">
<polygon fill="white" stroke="black" points="1079,-105.5 1079,-128.5 1132,-128.5 1132,-105.5 1079,-105.5"/>
<text text-anchor="middle" x="1105.5" y="-113.3" font-family="Helvetica,sans-Serif" font-size="14.00">splay</text>
</a>
</g>
</g>
<!-- Node11&#45;&gt;Node12 -->
<g id="edge13" class="edge">
<title>Node11&#45;&gt;Node12</title>
<path fill="none" stroke="midnightblue" d="M997.22,-117C1017.76,-117 1046.14,-117 1068.55,-117"/>
<polygon fill="midnightblue" stroke="midnightblue" points="1068.69,-120.5 1078.69,-117 1068.69,-113.5 1068.69,-120.5"/>
</g>
<!-- Node14 -->
<g id="node14" class="node">
<title>Node14</title>
<g id="a_node14"><a xlink:href="../../da/de5/hostRuntime_8cpp.html#ae206dc2056b70c9901731e30447df1aa" target="_top" xlink:title=" ">
<polygon fill="white" stroke="black" points="1083.5,-264.5 1083.5,-287.5 1127.5,-287.5 1127.5,-264.5 1083.5,-264.5"/>
<text text-anchor="middle" x="1105.5" y="-272.3" font-family="Helvetica,sans-Serif" font-size="14.00">free</text>
</a>
</g>
</g>
<!-- Node13&#45;&gt;Node14 -->
<g id="edge15" class="edge">
<title>Node13&#45;&gt;Node14</title>
<path fill="none" stroke="midnightblue" d="M987.58,-199.5C1010.74,-214.66 1051.66,-241.43 1078.42,-258.94"/>
<polygon fill="midnightblue" stroke="midnightblue" points="1076.63,-261.95 1086.91,-264.49 1080.46,-256.09 1076.63,-261.95"/>
</g>
<!-- Node15&#45;&gt;Node11 -->
<g id="edge17" class="edge">
<title>Node15&#45;&gt;Node11</title>
<path fill="none" stroke="midnightblue" d="M833.13,-168.85C841.76,-165.57 850.64,-162.19 859,-159 883.04,-149.81 910.03,-139.41 931.14,-131.26"/>
<polygon fill="midnightblue" stroke="midnightblue" points="932.62,-134.44 940.69,-127.57 930.1,-127.91 932.62,-134.44"/>
</g>
<!-- Node15&#45;&gt;Node13 -->
<g id="edge18" class="edge">
<title>Node15&#45;&gt;Node13</title>
<path fill="none" stroke="midnightblue" d="M859.02,-188C867.56,-188 876.28,-188 884.9,-188"/>
<polygon fill="midnightblue" stroke="midnightblue" points="884.94,-191.5 894.94,-188 884.94,-184.5 884.94,-191.5"/>
</g>
<!-- Node16&#45;&gt;Node14 -->
<g id="edge20" class="edge">
<title>Node16&#45;&gt;Node14</title>
<path fill="none" stroke="midnightblue" d="M319.09,-248.55C345.55,-255.02 379.99,-262.65 411,-267 624.43,-296.97 679.58,-290.33 895,-297 960.75,-299.04 978.11,-307.77 1043,-297 1053.24,-295.3 1064.07,-292.11 1073.74,-288.72"/>
<polygon fill="midnightblue" stroke="midnightblue" points="1075.16,-291.92 1083.32,-285.16 1072.72,-285.36 1075.16,-291.92"/>
</g>
<!-- Node17 -->
<g id="node17" class="node">
<title>Node17</title>
<g id="a_node17"><a xlink:href="../../dc/dce/narray_8c.html#ad4a6215f48c72db2c016b1f3d8aa2723" target="_top" xlink:title=" ">
<polygon fill="white" stroke="black" points="921.5,-264.5 921.5,-287.5 1016.5,-287.5 1016.5,-264.5 921.5,-264.5"/>
<text text-anchor="middle" x="969" y="-272.3" font-family="Helvetica,sans-Serif" font-size="14.00">narray_free</text>
</a>
</g>
</g>
<!-- Node16&#45;&gt;Node17 -->
<g id="edge21" class="edge">
<title>Node16&#45;&gt;Node17</title>
<path fill="none" stroke="midnightblue" d="M327.63,-240.63C352.85,-242.34 383.48,-244.35 411,-246 593.76,-256.97 810.37,-268.1 911.15,-273.17"/>
<polygon fill="midnightblue" stroke="midnightblue" points="911.25,-276.68 921.41,-273.68 911.6,-269.69 911.25,-276.68"/>
</g>
<!-- Node18 -->
<g id="node18" class="node">
<title>Node18</title>
<g id="a_node18"><a xlink:href="../../d0/d96/parda_8c.html#a961dead466e68fdb22133f3544e60bda" target="_top" xlink:title=" ">
<polygon fill="white" stroke="black" points="460.5,-171.5 460.5,-194.5 618.5,-194.5 618.5,-171.5 460.5,-171.5"/>
<text text-anchor="middle" x="539.5" y="-179.3" font-family="Helvetica,sans-Serif" font-size="14.00">parda_generate_end</text>
</a>
</g>
</g>
<!-- Node16&#45;&gt;Node18 -->
<g id="edge23" class="edge">
<title>Node16&#45;&gt;Node18</title>
<path fill="none" stroke="midnightblue" d="M318.91,-225.46C345.46,-218.71 380.05,-210.29 411,-204 424.44,-201.27 438.74,-198.64 452.72,-196.23"/>
<polygon fill="midnightblue" stroke="midnightblue" points="453.55,-199.63 462.82,-194.51 452.37,-192.73 453.55,-199.63"/>
</g>
<!-- Node21 -->
<g id="node21" class="node">
<title>Node21</title>
<g id="a_node21"><a xlink:href="../../d0/d96/parda_8c.html#a757e86b5a2b7eac055f98a355da1c184" target="_top" xlink:title=" ">
<polygon fill="white" stroke="black" points="713.5,-0.5 713.5,-23.5 849.5,-23.5 849.5,-0.5 713.5,-0.5"/>
<text text-anchor="middle" x="781.5" y="-8.3" font-family="Helvetica,sans-Serif" font-size="14.00">parda_get_abend</text>
</a>
</g>
</g>
<!-- Node16&#45;&gt;Node21 -->
<g id="edge27" class="edge">
<title>Node16&#45;&gt;Node21</title>
<path fill="none" stroke="midnightblue" d="M281.08,-225.35C297.48,-195.19 345.83,-114.33 411,-77 501.87,-24.95 624.35,-12.64 702.89,-10.68"/>
<polygon fill="midnightblue" stroke="midnightblue" points="703.26,-14.18 713.19,-10.48 703.12,-7.18 703.26,-14.18"/>
</g>
<!-- Node23 -->
<g id="node23" class="node">
<title>Node23</title>
<g id="a_node23"><a xlink:href="../../d0/d96/parda_8c.html#a8e4c1106b242bf781e1ec7d62fc21a41" target="_top" xlink:title=" ">
<polygon fill="white" stroke="black" points="710,-42.5 710,-65.5 853,-65.5 853,-42.5 710,-42.5"/>
<text text-anchor="middle" x="781.5" y="-50.3" font-family="Helvetica,sans-Serif" font-size="14.00">parda_get_abfront</text>
</a>
</g>
</g>
<!-- Node16&#45;&gt;Node23 -->
<g id="edge30" class="edge">
<title>Node16&#45;&gt;Node23</title>
<path fill="none" stroke="midnightblue" d="M293.28,-225.24C318.81,-209.22 366.97,-180.42 411,-162 515.08,-118.45 642.56,-85.37 717.33,-67.89"/>
<polygon fill="midnightblue" stroke="midnightblue" points="718.57,-71.2 727.52,-65.53 716.99,-64.38 718.57,-71.2"/>
</g>
<!-- Node17&#45;&gt;Node14 -->
<g id="edge22" class="edge">
<title>Node17&#45;&gt;Node14</title>
<path fill="none" stroke="midnightblue" d="M1016.66,-276C1035.21,-276 1056.07,-276 1072.81,-276"/>
<polygon fill="midnightblue" stroke="midnightblue" points="1073.14,-279.5 1083.14,-276 1073.14,-272.5 1073.14,-279.5"/>
</g>
<!-- Node19 -->
<g id="node19" class="node">
<title>Node19</title>
<g id="a_node19"><a xlink:href="../../d0/d96/parda_8c.html#a91a802bec195082a1e725e3f307b099a" target="_top" xlink:title=" ">
<polygon fill="white" stroke="black" points="747.5,-226.5 747.5,-249.5 815.5,-249.5 815.5,-226.5 747.5,-226.5"/>
<text text-anchor="middle" x="781.5" y="-234.3" font-family="Helvetica,sans-Serif" font-size="14.00">iterator</text>
</a>
</g>
</g>
<!-- Node18&#45;&gt;Node19 -->
<g id="edge24" class="edge">
<title>Node18&#45;&gt;Node19</title>
<path fill="none" stroke="midnightblue" d="M618.52,-193.52C634.98,-196.39 652.15,-199.87 668,-204 684.46,-208.29 687.79,-211.86 704,-217 714.75,-220.41 726.46,-223.79 737.41,-226.81"/>
<polygon fill="midnightblue" stroke="midnightblue" points="736.63,-230.22 747.2,-229.47 738.46,-223.47 736.63,-230.22"/>
</g>
<!-- Node20 -->
<g id="node20" class="node">
<title>Node20</title>
<g id="a_node20"><a xlink:href="../../dc/dce/narray_8c.html#a32d99037d1eb9c14a4802ce1999cd8d6" target="_top" xlink:title=" ">
<polygon fill="white" stroke="black" points="733,-84.5 733,-107.5 830,-107.5 830,-84.5 733,-84.5"/>
<text text-anchor="middle" x="781.5" y="-92.3" font-family="Helvetica,sans-Serif" font-size="14.00">narray_new</text>
</a>
</g>
</g>
<!-- Node18&#45;&gt;Node20 -->
<g id="edge26" class="edge">
<title>Node18&#45;&gt;Node20</title>
<path fill="none" stroke="midnightblue" d="M568.51,-171.49C611.6,-153.81 690.62,-121.52 704,-117 710.82,-114.7 718.04,-112.46 725.22,-110.36"/>
<polygon fill="midnightblue" stroke="midnightblue" points="726.28,-113.69 734.93,-107.58 724.35,-106.96 726.28,-113.69"/>
</g>
<!-- Node19&#45;&gt;Node13 -->
<g id="edge25" class="edge">
<title>Node19&#45;&gt;Node13</title>
<path fill="none" stroke="midnightblue" d="M815.66,-229.06C843.43,-221.58 883.55,-210.76 915.65,-202.11"/>
<polygon fill="midnightblue" stroke="midnightblue" points="916.59,-205.48 925.33,-199.5 914.76,-198.72 916.59,-205.48"/>
</g>
<!-- Node21&#45;&gt;Node11 -->
<g id="edge28" class="edge">
<title>Node21&#45;&gt;Node11</title>
<path fill="none" stroke="midnightblue" d="M835.36,-23.6C843.47,-26.2 851.6,-29.31 859,-33 893.74,-50.31 928.28,-79.47 948.88,-98.48"/>
<polygon fill="midnightblue" stroke="midnightblue" points="946.63,-101.17 956.32,-105.46 951.42,-96.06 946.63,-101.17"/>
</g>
<!-- Node22 -->
<g id="node22" class="node">
<title>Node22</title>
<g id="a_node22"><a xlink:href="../../de/d09/narray_8h.html#a58849f5cfc81dd047535c06f2e97cfb0" target="_top" xlink:title=" ">
<polygon fill="white" stroke="black" points="909.5,-21.5 909.5,-44.5 1028.5,-44.5 1028.5,-21.5 909.5,-21.5"/>
<text text-anchor="middle" x="969" y="-29.3" font-family="Helvetica,sans-Serif" font-size="14.00">narray_get_len</text>
</a>
</g>
</g>
<!-- Node21&#45;&gt;Node22 -->
<g id="edge29" class="edge">
<title>Node21&#45;&gt;Node22</title>
<path fill="none" stroke="midnightblue" d="M849.73,-19.61C865.72,-21.42 882.81,-23.36 898.88,-25.18"/>
<polygon fill="midnightblue" stroke="midnightblue" points="898.95,-28.7 909.28,-26.35 899.73,-21.75 898.95,-28.7"/>
</g>
<!-- Node23&#45;&gt;Node11 -->
<g id="edge31" class="edge">
<title>Node23&#45;&gt;Node11</title>
<path fill="none" stroke="midnightblue" d="M827.63,-65.58C837.99,-68.47 848.93,-71.69 859,-75 883.45,-83.04 910.44,-93.43 931.45,-101.87"/>
<polygon fill="midnightblue" stroke="midnightblue" points="930.36,-105.2 940.95,-105.71 932.99,-98.71 930.36,-105.2"/>
</g>
<!-- Node23&#45;&gt;Node13 -->
<g id="edge32" class="edge">
<title>Node23&#45;&gt;Node13</title>
<path fill="none" stroke="midnightblue" d="M842.76,-65.54C848.56,-68.09 854.1,-71.2 859,-75 884.48,-94.77 873.14,-114.29 895,-138 907.04,-151.06 923.1,-162.53 937.1,-171.18"/>
<polygon fill="midnightblue" stroke="midnightblue" points="935.55,-174.33 945.93,-176.44 939.13,-168.31 935.55,-174.33"/>
</g>
<!-- Node23&#45;&gt;Node22 -->
<g id="edge33" class="edge">
<title>Node23&#45;&gt;Node22</title>
<path fill="none" stroke="midnightblue" d="M853.16,-46C868.22,-44.3 884.1,-42.5 899.09,-40.8"/>
<polygon fill="midnightblue" stroke="midnightblue" points="899.76,-44.25 909.3,-39.64 898.97,-37.29 899.76,-44.25"/>
</g>
</g>
</svg>
