<?xml version="1.0" encoding="UTF-8" standalone="no"?>
<!DOCTYPE svg PUBLIC "-//W3C//DTD SVG 1.1//EN"
 "http://www.w3.org/Graphics/SVG/1.1/DTD/svg11.dtd">
<!-- Generated by graphviz version 2.43.0 (0)
 -->
<!-- Title: parda_omp_input_with_filename Pages: 1 -->
<svg width="1130pt" height="474pt"
 viewBox="0.00 0.00 1130.00 473.95" xmlns="http://www.w3.org/2000/svg" xmlns:xlink="http://www.w3.org/1999/xlink">
<g id="graph0" class="graph" transform="scale(1 1) rotate(0) translate(4 469.95)">
<title>parda_omp_input_with_filename</title>
<polygon fill="white" stroke="transparent" points="-4,4 -4,-469.95 1126,-469.95 1126,4 -4,4"/>
<!-- Node1 -->
<g id="node1" class="node">
<title>Node1</title>
<g id="a_node1"><a xlink:title=" ">
<polygon fill="#bfbfbf" stroke="black" points="0,-284 0,-322 173,-322 173,-284 0,-284"/>
<text text-anchor="start" x="8" y="-306.8" font-family="Helvetica,sans-Serif" font-size="14.00">parda_omp_input_with</text>
<text text-anchor="middle" x="86.5" y="-291.8" font-family="Helvetica,sans-Serif" font-size="14.00">_filename</text>
</a>
</g>
</g>
<!-- Node2 -->
<g id="node2" class="node">
<title>Node2</title>
<g id="a_node2"><a xlink:href="../../d0/d82/parda__omp_8c.html#a5d46267c0ac6b1974e173b966bade09c" target="_top" xlink:title=" ">
<polygon fill="white" stroke="black" points="252.5,-404.5 252.5,-427.5 422.5,-427.5 422.5,-404.5 252.5,-404.5"/>
<text text-anchor="middle" x="337.5" y="-412.3" font-family="Helvetica,sans-Serif" font-size="14.00">parda_get_thread_info</text>
</a>
</g>
</g>
<!-- Node1&#45;&gt;Node2 -->
<g id="edge1" class="edge">
<title>Node1&#45;&gt;Node2</title>
<path fill="none" stroke="midnightblue" d="M121.85,-322.04C145.93,-335.08 179.03,-352.4 209,-366 237.19,-378.8 269.69,-391.51 294.82,-400.92"/>
<polygon fill="midnightblue" stroke="midnightblue" points="293.82,-404.28 304.41,-404.48 296.26,-397.72 293.82,-404.28"/>
</g>
<!-- Node6 -->
<g id="node6" class="node">
<title>Node6</title>
<g id="a_node6"><a xlink:href="../../d0/d96/parda_8c.html#a2db3eea4fc07fce7ce243d7f257355f1" target="_top" xlink:title=" ">
<polygon fill="white" stroke="black" points="209,-333.5 209,-356.5 466,-356.5 466,-333.5 209,-333.5"/>
<text text-anchor="middle" x="337.5" y="-341.3" font-family="Helvetica,sans-Serif" font-size="14.00">parda_input_with_binaryfilepointer</text>
</a>
</g>
</g>
<!-- Node1&#45;&gt;Node6 -->
<g id="edge7" class="edge">
<title>Node1&#45;&gt;Node6</title>
<path fill="none" stroke="midnightblue" d="M173.11,-317.88C185.16,-319.95 197.39,-322.04 209,-324 224.15,-326.56 240.32,-329.25 255.88,-331.82"/>
<polygon fill="midnightblue" stroke="midnightblue" points="255.57,-335.32 266,-333.49 256.71,-328.41 255.57,-335.32"/>
</g>
<!-- Node7 -->
<g id="node7" class="node">
<title>Node7</title>
<g id="a_node7"><a xlink:href="../../d0/d96/parda_8c.html#a2e011afd5d113d7b404cff2b9467af8d" target="_top" xlink:title=" ">
<polygon fill="white" stroke="black" points="218,-291.5 218,-314.5 457,-314.5 457,-291.5 218,-291.5"/>
<text text-anchor="middle" x="337.5" y="-299.3" font-family="Helvetica,sans-Serif" font-size="14.00">parda_input_with_textfilepointer</text>
</a>
</g>
</g>
<!-- Node1&#45;&gt;Node7 -->
<g id="edge8" class="edge">
<title>Node1&#45;&gt;Node7</title>
<path fill="none" stroke="midnightblue" d="M173.19,-303C184.29,-303 195.85,-303 207.45,-303"/>
<polygon fill="midnightblue" stroke="midnightblue" points="207.66,-306.5 217.66,-303 207.66,-299.5 207.66,-306.5"/>
</g>
<!-- Node14 -->
<g id="node14" class="node">
<title>Node14</title>
<g id="a_node14"><a xlink:href="../../d0/d96/parda_8c.html#ac66e3c12653af16fe2738d9e0089acfc" target="_top" xlink:title=" ">
<polygon fill="white" stroke="black" points="284,-178.5 284,-201.5 391,-201.5 391,-178.5 284,-178.5"/>
<text text-anchor="middle" x="337.5" y="-186.3" font-family="Helvetica,sans-Serif" font-size="14.00">parda_merge</text>
</a>
</g>
</g>
<!-- Node1&#45;&gt;Node14 -->
<g id="edge17" class="edge">
<title>Node1&#45;&gt;Node14</title>
<path fill="none" stroke="midnightblue" d="M129.46,-283.96C177.88,-261.98 256.62,-226.25 301.76,-205.77"/>
<polygon fill="midnightblue" stroke="midnightblue" points="303.47,-208.84 311.13,-201.52 300.57,-202.46 303.47,-208.84"/>
</g>
<!-- Node22 -->
<g id="node22" class="node">
<title>Node22</title>
<g id="a_node22"><a xlink:href="../../d0/d82/parda__omp_8c.html#ad56cad2d13d0e6b3cc0fb151a1766a6d" target="_top" xlink:title=" ">
<polygon fill="white" stroke="black" points="259.5,-58.5 259.5,-81.5 415.5,-81.5 415.5,-58.5 259.5,-58.5"/>
<text text-anchor="middle" x="337.5" y="-66.3" font-family="Helvetica,sans-Serif" font-size="14.00">parda_omp_openfile</text>
</a>
</g>
</g>
<!-- Node1&#45;&gt;Node22 -->
<g id="edge32" class="edge">
<title>Node1&#45;&gt;Node22</title>
<path fill="none" stroke="midnightblue" d="M103.05,-283.84C125.27,-256.93 168,-206.99 209,-169 242.43,-138.03 284.84,-106.46 311.33,-87.55"/>
<polygon fill="midnightblue" stroke="midnightblue" points="313.53,-90.27 319.66,-81.64 309.48,-84.56 313.53,-90.27"/>
</g>
<!-- Node3 -->
<g id="node3" class="node">
<title>Node3</title>
<g id="a_node3"><a xlink:href="../../d0/dbf/parda_8h.html#acaab2e6efac0dda49e7cd3681b821bb1" target="_top" xlink:title=" ">
<polygon fill="white" stroke="black" points="555.5,-425.5 555.5,-448.5 649.5,-448.5 649.5,-425.5 555.5,-425.5"/>
<text text-anchor="middle" x="602.5" y="-433.3" font-family="Helvetica,sans-Serif" font-size="14.00">parda_high</text>
</a>
</g>
</g>
<!-- Node2&#45;&gt;Node3 -->
<g id="edge2" class="edge">
<title>Node2&#45;&gt;Node3</title>
<path fill="none" stroke="midnightblue" d="M422.8,-422.73C462.73,-425.92 509.36,-429.64 544.97,-432.49"/>
<polygon fill="midnightblue" stroke="midnightblue" points="544.93,-435.99 555.17,-433.3 545.48,-429.02 544.93,-435.99"/>
</g>
<!-- Node4 -->
<g id="node4" class="node">
<title>Node4</title>
<g id="a_node4"><a xlink:href="../../d0/dbf/parda_8h.html#ae98c5df9941618081aa7dd90a30627fc" target="_top" xlink:title=" ">
<polygon fill="white" stroke="black" points="755.5,-425.5 755.5,-448.5 841.5,-448.5 841.5,-425.5 755.5,-425.5"/>
<text text-anchor="middle" x="798.5" y="-433.3" font-family="Helvetica,sans-Serif" font-size="14.00">parda_low</text>
</a>
</g>
</g>
<!-- Node2&#45;&gt;Node4 -->
<g id="edge4" class="edge">
<title>Node2&#45;&gt;Node4</title>
<path fill="none" stroke="midnightblue" d="M373.09,-427.6C405.85,-437.93 456.64,-452.27 502,-458 590.63,-469.2 614.2,-467.75 703,-458 716.98,-456.47 731.92,-453.69 745.7,-450.65"/>
<polygon fill="midnightblue" stroke="midnightblue" points="746.53,-454.05 755.49,-448.4 744.96,-447.23 746.53,-454.05"/>
</g>
<!-- Node5 -->
<g id="node5" class="node">
<title>Node5</title>
<g id="a_node5"><a xlink:href="../../d0/dbf/parda_8h.html#a8b096049ef5ab82de4e5eaa0c22aedd6" target="_top" xlink:title=" ">
<polygon fill="white" stroke="black" points="557.5,-383.5 557.5,-406.5 647.5,-406.5 647.5,-383.5 557.5,-383.5"/>
<text text-anchor="middle" x="602.5" y="-391.3" font-family="Helvetica,sans-Serif" font-size="14.00">parda_size</text>
</a>
</g>
</g>
<!-- Node2&#45;&gt;Node5 -->
<g id="edge5" class="edge">
<title>Node2&#45;&gt;Node5</title>
<path fill="none" stroke="midnightblue" d="M422.8,-409.27C463.55,-406.01 511.27,-402.2 547.15,-399.34"/>
<polygon fill="midnightblue" stroke="midnightblue" points="547.72,-402.81 557.41,-398.52 547.16,-395.83 547.72,-402.81"/>
</g>
<!-- Node3&#45;&gt;Node4 -->
<g id="edge3" class="edge">
<title>Node3&#45;&gt;Node4</title>
<path fill="none" stroke="midnightblue" d="M649.97,-437C678.65,-437 715.5,-437 745.2,-437"/>
<polygon fill="midnightblue" stroke="midnightblue" points="745.38,-440.5 755.38,-437 745.38,-433.5 745.38,-440.5"/>
</g>
<!-- Node5&#45;&gt;Node4 -->
<g id="edge6" class="edge">
<title>Node5&#45;&gt;Node4</title>
<path fill="none" stroke="midnightblue" d="M647.6,-404.2C664.89,-407.84 684.88,-412.08 703,-416 716.75,-418.98 731.6,-422.25 745.38,-425.31"/>
<polygon fill="midnightblue" stroke="midnightblue" points="744.66,-428.74 755.18,-427.5 746.18,-421.91 744.66,-428.74"/>
</g>
<!-- Node8 -->
<g id="node8" class="node">
<title>Node8</title>
<g id="a_node8"><a xlink:href="../../d0/dbf/parda_8h.html#aba642b919a1605f65607ac245ce94fa9" target="_top" xlink:title=" ">
<polygon fill="white" stroke="black" points="525,-341.5 525,-364.5 680,-364.5 680,-341.5 525,-341.5"/>
<text text-anchor="middle" x="602.5" y="-349.3" font-family="Helvetica,sans-Serif" font-size="14.00">process_one_access</text>
</a>
</g>
</g>
<!-- Node7&#45;&gt;Node8 -->
<g id="edge9" class="edge">
<title>Node7&#45;&gt;Node8</title>
<path fill="none" stroke="midnightblue" d="M412.79,-314.52C430.27,-317.43 448.82,-320.68 466,-324 482.09,-327.11 485.98,-328.53 502,-332 513.14,-334.41 525,-336.95 536.49,-339.38"/>
<polygon fill="midnightblue" stroke="midnightblue" points="535.97,-342.85 546.48,-341.5 537.42,-336 535.97,-342.85"/>
</g>
<!-- Node13 -->
<g id="node13" class="node">
<title>Node13</title>
<g id="a_node13"><a xlink:href="../../d0/dbf/parda_8h.html#ab88eb69b6dc07345fb2318fe9c2093d1" target="_top" xlink:title=" ">
<polygon fill="white" stroke="black" points="525,-284 525,-322 680,-322 680,-284 525,-284"/>
<text text-anchor="start" x="533" y="-306.8" font-family="Helvetica,sans-Serif" font-size="14.00">process_one_access</text>
<text text-anchor="middle" x="602.5" y="-291.8" font-family="Helvetica,sans-Serif" font-size="14.00">_shared</text>
</a>
</g>
</g>
<!-- Node7&#45;&gt;Node13 -->
<g id="edge14" class="edge">
<title>Node7&#45;&gt;Node13</title>
<path fill="none" stroke="midnightblue" d="M457.3,-303C476.6,-303 496.26,-303 514.61,-303"/>
<polygon fill="midnightblue" stroke="midnightblue" points="514.66,-306.5 524.66,-303 514.66,-299.5 514.66,-306.5"/>
</g>
<!-- Node9 -->
<g id="node9" class="node">
<title>Node9</title>
<g id="a_node9"><a xlink:href="../../d1/df7/splay_8c.html#a7860ad42bad70e478b3778c1eb4c42b7" target="_top" xlink:title=" ">
<polygon fill="white" stroke="black" points="770.5,-320.5 770.5,-343.5 826.5,-343.5 826.5,-320.5 770.5,-320.5"/>
<text text-anchor="middle" x="798.5" y="-328.3" font-family="Helvetica,sans-Serif" font-size="14.00">insert</text>
</a>
</g>
</g>
<!-- Node8&#45;&gt;Node9 -->
<g id="edge10" class="edge">
<title>Node8&#45;&gt;Node9</title>
<path fill="none" stroke="midnightblue" d="M680.17,-344.7C707.6,-341.73 737.3,-338.52 759.96,-336.06"/>
<polygon fill="midnightblue" stroke="midnightblue" points="760.59,-339.52 770.15,-334.96 759.84,-332.56 760.59,-339.52"/>
</g>
<!-- Node11 -->
<g id="node11" class="node">
<title>Node11</title>
<g id="a_node11"><a xlink:href="../../dc/dce/narray_8c.html#a00e1ac7249125879d43230a3f1a49b1d" target="_top" xlink:title=" ">
<polygon fill="white" stroke="black" points="894,-200.5 894,-223.5 1042,-223.5 1042,-200.5 894,-200.5"/>
<text text-anchor="middle" x="968" y="-208.3" font-family="Helvetica,sans-Serif" font-size="14.00">narray_append_val</text>
</a>
</g>
</g>
<!-- Node8&#45;&gt;Node11 -->
<g id="edge12" class="edge">
<title>Node8&#45;&gt;Node11</title>
<path fill="none" stroke="midnightblue" d="M649.42,-364.6C702.59,-375.49 791.37,-385.71 858,-353 864.75,-349.69 924.11,-270.09 952.28,-231.98"/>
<polygon fill="midnightblue" stroke="midnightblue" points="955.29,-233.8 958.41,-223.67 949.66,-229.64 955.29,-233.8"/>
</g>
<!-- Node10 -->
<g id="node10" class="node">
<title>Node10</title>
<g id="a_node10"><a xlink:href="../../d1/df7/splay_8c.html#a504c21ef77c65b86162e01d158acd1d6" target="_top" xlink:title=" ">
<polygon fill="white" stroke="black" points="941.5,-320.5 941.5,-343.5 994.5,-343.5 994.5,-320.5 941.5,-320.5"/>
<text text-anchor="middle" x="968" y="-328.3" font-family="Helvetica,sans-Serif" font-size="14.00">splay</text>
</a>
</g>
</g>
<!-- Node9&#45;&gt;Node10 -->
<g id="edge11" class="edge">
<title>Node9&#45;&gt;Node10</title>
<path fill="none" stroke="midnightblue" d="M826.78,-332C855.27,-332 900.06,-332 931.33,-332"/>
<polygon fill="midnightblue" stroke="midnightblue" points="931.38,-335.5 941.38,-332 931.38,-328.5 931.38,-335.5"/>
</g>
<!-- Node12 -->
<g id="node12" class="node">
<title>Node12</title>
<g id="a_node12"><a xlink:href="../../da/de5/hostRuntime_8cpp.html#ae206dc2056b70c9901731e30447df1aa" target="_top" xlink:title=" ">
<polygon fill="white" stroke="black" points="1078,-78.5 1078,-101.5 1122,-101.5 1122,-78.5 1078,-78.5"/>
<text text-anchor="middle" x="1100" y="-86.3" font-family="Helvetica,sans-Serif" font-size="14.00">free</text>
</a>
</g>
</g>
<!-- Node11&#45;&gt;Node12 -->
<g id="edge13" class="edge">
<title>Node11&#45;&gt;Node12</title>
<path fill="none" stroke="midnightblue" d="M981.46,-200.3C1004.02,-179.13 1051.8,-134.3 1078.98,-108.79"/>
<polygon fill="midnightblue" stroke="midnightblue" points="1081.48,-111.24 1086.38,-101.84 1076.69,-106.13 1081.48,-111.24"/>
</g>
<!-- Node13&#45;&gt;Node9 -->
<g id="edge15" class="edge">
<title>Node13&#45;&gt;Node9</title>
<path fill="none" stroke="midnightblue" d="M680.17,-314.46C707.6,-318.56 737.3,-323 759.96,-326.39"/>
<polygon fill="midnightblue" stroke="midnightblue" points="759.75,-329.9 770.15,-327.91 760.78,-322.97 759.75,-329.9"/>
</g>
<!-- Node13&#45;&gt;Node11 -->
<g id="edge16" class="edge">
<title>Node13&#45;&gt;Node11</title>
<path fill="none" stroke="midnightblue" d="M680.05,-301.76C731.47,-299.06 800.13,-291.78 858,-273 889.04,-262.93 921.26,-243.61 942.54,-229.41"/>
<polygon fill="midnightblue" stroke="midnightblue" points="944.66,-232.2 950.95,-223.67 940.72,-226.41 944.66,-232.2"/>
</g>
<!-- Node14&#45;&gt;Node12 -->
<g id="edge18" class="edge">
<title>Node14&#45;&gt;Node12</title>
<path fill="none" stroke="midnightblue" d="M379.25,-178.46C412.19,-169.4 459.84,-156.87 502,-148 606.47,-126.03 632.87,-120.5 739,-109 860.17,-95.87 1005.31,-91.72 1067.83,-90.49"/>
<polygon fill="midnightblue" stroke="midnightblue" points="1067.9,-93.99 1077.83,-90.3 1067.77,-86.99 1067.9,-93.99"/>
</g>
<!-- Node15 -->
<g id="node15" class="node">
<title>Node15</title>
<g id="a_node15"><a xlink:href="../../dc/dce/narray_8c.html#ad4a6215f48c72db2c016b1f3d8aa2723" target="_top" xlink:title=" ">
<polygon fill="white" stroke="black" points="920.5,-38.5 920.5,-61.5 1015.5,-61.5 1015.5,-38.5 920.5,-38.5"/>
<text text-anchor="middle" x="968" y="-46.3" font-family="Helvetica,sans-Serif" font-size="14.00">narray_free</text>
</a>
</g>
</g>
<!-- Node14&#45;&gt;Node15 -->
<g id="edge19" class="edge">
<title>Node14&#45;&gt;Node15</title>
<path fill="none" stroke="midnightblue" d="M350.28,-178.17C375.48,-153.76 437.56,-98.24 502,-76 642.24,-27.59 820.33,-35.22 909.96,-43.42"/>
<polygon fill="midnightblue" stroke="midnightblue" points="909.9,-46.93 920.19,-44.4 910.56,-39.97 909.9,-46.93"/>
</g>
<!-- Node16 -->
<g id="node16" class="node">
<title>Node16</title>
<g id="a_node16"><a xlink:href="../../d0/d96/parda_8c.html#a961dead466e68fdb22133f3544e60bda" target="_top" xlink:title=" ">
<polygon fill="white" stroke="black" points="523.5,-157.5 523.5,-180.5 681.5,-180.5 681.5,-157.5 523.5,-157.5"/>
<text text-anchor="middle" x="602.5" y="-165.3" font-family="Helvetica,sans-Serif" font-size="14.00">parda_generate_end</text>
</a>
</g>
</g>
<!-- Node14&#45;&gt;Node16 -->
<g id="edge21" class="edge">
<title>Node14&#45;&gt;Node16</title>
<path fill="none" stroke="midnightblue" d="M391.09,-185.8C425.98,-183.01 472.64,-179.29 513.15,-176.05"/>
<polygon fill="midnightblue" stroke="midnightblue" points="513.62,-179.53 523.31,-175.24 513.06,-172.55 513.62,-179.53"/>
</g>
<!-- Node19 -->
<g id="node19" class="node">
<title>Node19</title>
<g id="a_node19"><a xlink:href="../../d0/d96/parda_8c.html#a757e86b5a2b7eac055f98a355da1c184" target="_top" xlink:title=" ">
<polygon fill="white" stroke="black" points="534.5,-241.5 534.5,-264.5 670.5,-264.5 670.5,-241.5 534.5,-241.5"/>
<text text-anchor="middle" x="602.5" y="-249.3" font-family="Helvetica,sans-Serif" font-size="14.00">parda_get_abend</text>
</a>
</g>
</g>
<!-- Node14&#45;&gt;Node19 -->
<g id="edge25" class="edge">
<title>Node14&#45;&gt;Node19</title>
<path fill="none" stroke="midnightblue" d="M381.41,-201.56C414.31,-210.3 460.91,-222.39 502,-232 512.6,-234.48 523.86,-236.98 534.85,-239.35"/>
<polygon fill="midnightblue" stroke="midnightblue" points="534.33,-242.82 544.84,-241.49 535.79,-235.97 534.33,-242.82"/>
</g>
<!-- Node21 -->
<g id="node21" class="node">
<title>Node21</title>
<g id="a_node21"><a xlink:href="../../d0/d96/parda_8c.html#a8e4c1106b242bf781e1ec7d62fc21a41" target="_top" xlink:title=" ">
<polygon fill="white" stroke="black" points="531,-199.5 531,-222.5 674,-222.5 674,-199.5 531,-199.5"/>
<text text-anchor="middle" x="602.5" y="-207.3" font-family="Helvetica,sans-Serif" font-size="14.00">parda_get_abfront</text>
</a>
</g>
</g>
<!-- Node14&#45;&gt;Node21 -->
<g id="edge28" class="edge">
<title>Node14&#45;&gt;Node21</title>
<path fill="none" stroke="midnightblue" d="M391.09,-194.2C428.07,-197.15 478.25,-201.16 520.33,-204.52"/>
<polygon fill="midnightblue" stroke="midnightblue" points="520.32,-208.03 530.57,-205.34 520.88,-201.05 520.32,-208.03"/>
</g>
<!-- Node15&#45;&gt;Node12 -->
<g id="edge20" class="edge">
<title>Node15&#45;&gt;Node12</title>
<path fill="none" stroke="midnightblue" d="M1006.6,-61.57C1026.09,-67.57 1049.6,-74.8 1068.03,-80.47"/>
<polygon fill="midnightblue" stroke="midnightblue" points="1067.1,-83.85 1077.68,-83.44 1069.15,-77.15 1067.1,-83.85"/>
</g>
<!-- Node17 -->
<g id="node17" class="node">
<title>Node17</title>
<g id="a_node17"><a xlink:href="../../d0/d96/parda_8c.html#a91a802bec195082a1e725e3f307b099a" target="_top" xlink:title=" ">
<polygon fill="white" stroke="black" points="764.5,-160.5 764.5,-183.5 832.5,-183.5 832.5,-160.5 764.5,-160.5"/>
<text text-anchor="middle" x="798.5" y="-168.3" font-family="Helvetica,sans-Serif" font-size="14.00">iterator</text>
</a>
</g>
</g>
<!-- Node16&#45;&gt;Node17 -->
<g id="edge22" class="edge">
<title>Node16&#45;&gt;Node17</title>
<path fill="none" stroke="midnightblue" d="M681.57,-170.21C706.36,-170.59 732.87,-171 754.27,-171.33"/>
<polygon fill="midnightblue" stroke="midnightblue" points="754.29,-174.83 764.34,-171.49 754.39,-167.83 754.29,-174.83"/>
</g>
<!-- Node18 -->
<g id="node18" class="node">
<title>Node18</title>
<g id="a_node18"><a xlink:href="../../dc/dce/narray_8c.html#a32d99037d1eb9c14a4802ce1999cd8d6" target="_top" xlink:title=" ">
<polygon fill="white" stroke="black" points="750,-118.5 750,-141.5 847,-141.5 847,-118.5 750,-118.5"/>
<text text-anchor="middle" x="798.5" y="-126.3" font-family="Helvetica,sans-Serif" font-size="14.00">narray_new</text>
</a>
</g>
</g>
<!-- Node16&#45;&gt;Node18 -->
<g id="edge24" class="edge">
<title>Node16&#45;&gt;Node18</title>
<path fill="none" stroke="midnightblue" d="M660.92,-157.46C685.76,-152.46 714.79,-146.63 739.68,-141.62"/>
<polygon fill="midnightblue" stroke="midnightblue" points="740.6,-145.01 749.71,-139.61 739.22,-138.15 740.6,-145.01"/>
</g>
<!-- Node17&#45;&gt;Node11 -->
<g id="edge23" class="edge">
<title>Node17&#45;&gt;Node11</title>
<path fill="none" stroke="midnightblue" d="M832.59,-179.9C854.31,-185.09 883.3,-192.01 908.8,-198.1"/>
<polygon fill="midnightblue" stroke="midnightblue" points="908.21,-201.56 918.75,-200.48 909.83,-194.75 908.21,-201.56"/>
</g>
<!-- Node19&#45;&gt;Node9 -->
<g id="edge26" class="edge">
<title>Node19&#45;&gt;Node9</title>
<path fill="none" stroke="midnightblue" d="M669.98,-264.54C681.19,-267.38 692.57,-270.83 703,-275 728.53,-285.2 755.14,-301.88 773.59,-314.57"/>
<polygon fill="midnightblue" stroke="midnightblue" points="771.75,-317.55 781.95,-320.43 775.77,-311.82 771.75,-317.55"/>
</g>
<!-- Node20 -->
<g id="node20" class="node">
<title>Node20</title>
<g id="a_node20"><a xlink:href="../../de/d09/narray_8h.html#a58849f5cfc81dd047535c06f2e97cfb0" target="_top" xlink:title=" ">
<polygon fill="white" stroke="black" points="739,-240.5 739,-263.5 858,-263.5 858,-240.5 739,-240.5"/>
<text text-anchor="middle" x="798.5" y="-248.3" font-family="Helvetica,sans-Serif" font-size="14.00">narray_get_len</text>
</a>
</g>
</g>
<!-- Node19&#45;&gt;Node20 -->
<g id="edge27" class="edge">
<title>Node19&#45;&gt;Node20</title>
<path fill="none" stroke="midnightblue" d="M670.54,-252.65C689.38,-252.56 709.9,-252.45 728.84,-252.35"/>
<polygon fill="midnightblue" stroke="midnightblue" points="728.9,-255.85 738.88,-252.3 728.86,-248.85 728.9,-255.85"/>
</g>
<!-- Node21&#45;&gt;Node9 -->
<g id="edge29" class="edge">
<title>Node21&#45;&gt;Node9</title>
<path fill="none" stroke="midnightblue" d="M674.13,-219.98C684.22,-222.93 694.16,-226.83 703,-232 723.93,-244.24 722.46,-255.27 739,-273 751.79,-286.71 766.68,-301.71 778.23,-313.15"/>
<polygon fill="midnightblue" stroke="midnightblue" points="776.05,-315.92 785.63,-320.45 780.97,-310.94 776.05,-315.92"/>
</g>
<!-- Node21&#45;&gt;Node11 -->
<g id="edge30" class="edge">
<title>Node21&#45;&gt;Node11</title>
<path fill="none" stroke="midnightblue" d="M674.02,-211.19C733.96,-211.36 820.13,-211.6 883.51,-211.77"/>
<polygon fill="midnightblue" stroke="midnightblue" points="883.87,-215.27 893.88,-211.8 883.89,-208.27 883.87,-215.27"/>
</g>
<!-- Node21&#45;&gt;Node20 -->
<g id="edge31" class="edge">
<title>Node21&#45;&gt;Node20</title>
<path fill="none" stroke="midnightblue" d="M658.24,-222.55C672.79,-225.62 688.49,-228.93 703,-232 712.72,-234.05 723,-236.23 733.07,-238.36"/>
<polygon fill="midnightblue" stroke="midnightblue" points="732.52,-241.82 743.03,-240.47 733.97,-234.97 732.52,-241.82"/>
</g>
<!-- Node23 -->
<g id="node23" class="node">
<title>Node23</title>
<g id="a_node23"><a xlink:href="../../d0/dbf/parda_8h.html#aa791bc155904822d2963775bdc5be422" target="_top" xlink:title=" ">
<polygon fill="white" stroke="black" points="502,-0.5 502,-23.5 703,-23.5 703,-0.5 502,-0.5"/>
<text text-anchor="middle" x="602.5" y="-8.3" font-family="Helvetica,sans-Serif" font-size="14.00">parda_generate_pfilename</text>
</a>
</g>
</g>
<!-- Node22&#45;&gt;Node23 -->
<g id="edge33" class="edge">
<title>Node22&#45;&gt;Node23</title>
<path fill="none" stroke="midnightblue" d="M390.77,-58.47C433.53,-49.04 494.1,-35.69 539.34,-25.71"/>
<polygon fill="midnightblue" stroke="midnightblue" points="540.31,-29.08 549.32,-23.51 538.81,-22.24 540.31,-29.08"/>
</g>
</g>
</svg>
