<?xml version="1.0" encoding="UTF-8" standalone="no"?>
<!DOCTYPE svg PUBLIC "-//W3C//DTD SVG 1.1//EN"
 "http://www.w3.org/Graphics/SVG/1.1/DTD/svg11.dtd">
<!-- Generated by graphviz version 2.43.0 (0)
 -->
<!-- Title: PPT&#45;GPU/reuse_distance_tool/parda.h Pages: 1 -->
<svg width="914pt" height="197pt"
 viewBox="0.00 0.00 914.00 197.00" xmlns="http://www.w3.org/2000/svg" xmlns:xlink="http://www.w3.org/1999/xlink">
<g id="graph0" class="graph" transform="scale(1 1) rotate(0) translate(4 193)">
<title>PPT&#45;GPU/reuse_distance_tool/parda.h</title>
<polygon fill="white" stroke="transparent" points="-4,4 -4,-193 910,-193 910,4 -4,4"/>
<!-- Node1 -->
<g id="node1" class="node">
<title>Node1</title>
<g id="a_node1"><a xlink:title=" ">
<polygon fill="#bfbfbf" stroke="black" points="321,-150.5 321,-188.5 504,-188.5 504,-150.5 321,-150.5"/>
<text text-anchor="start" x="329" y="-173.3" font-family="Helvetica,sans-Serif" font-size="14.00">PPT&#45;GPU/reuse_distance</text>
<text text-anchor="middle" x="412.5" y="-158.3" font-family="Helvetica,sans-Serif" font-size="14.00">_tool/parda.h</text>
</a>
</g>
</g>
<!-- Node2 -->
<g id="node2" class="node">
<title>Node2</title>
<g id="a_node2"><a xlink:href="../../d0/d29/main_8c.html" target="_top" xlink:title=" ">
<polygon fill="white" stroke="black" points="0,-0.5 0,-38.5 183,-38.5 183,-0.5 0,-0.5"/>
<text text-anchor="start" x="8" y="-23.3" font-family="Helvetica,sans-Serif" font-size="14.00">PPT&#45;GPU/reuse_distance</text>
<text text-anchor="middle" x="91.5" y="-8.3" font-family="Helvetica,sans-Serif" font-size="14.00">_tool/main.c</text>
</a>
</g>
</g>
<!-- Node1&#45;&gt;Node2 -->
<g id="edge1" class="edge">
<title>Node1&#45;&gt;Node2</title>
<path fill="none" stroke="midnightblue" d="M310.69,-162.22C234.41,-155.36 138.56,-141.46 110.5,-114 90.49,-94.42 88.62,-59.95 89.66,-38.77"/>
<polygon fill="midnightblue" stroke="midnightblue" points="310.58,-165.72 320.84,-163.1 311.18,-158.75 310.58,-165.72"/>
</g>
<!-- Node3 -->
<g id="node3" class="node">
<title>Node3</title>
<g id="a_node3"><a xlink:href="../../de/dfb/seperate_8h.html" target="_top" xlink:title=" ">
<polygon fill="white" stroke="black" points="120,-75.5 120,-113.5 303,-113.5 303,-75.5 120,-75.5"/>
<text text-anchor="start" x="128" y="-98.3" font-family="Helvetica,sans-Serif" font-size="14.00">PPT&#45;GPU/reuse_distance</text>
<text text-anchor="middle" x="211.5" y="-83.3" font-family="Helvetica,sans-Serif" font-size="14.00">_tool/seperate.h</text>
</a>
</g>
</g>
<!-- Node1&#45;&gt;Node3 -->
<g id="edge2" class="edge">
<title>Node1&#45;&gt;Node3</title>
<path fill="none" stroke="midnightblue" d="M353.14,-146.94C323.93,-136.33 289.11,-123.69 261.31,-113.59"/>
<polygon fill="midnightblue" stroke="midnightblue" points="352.22,-150.33 362.81,-150.46 354.61,-143.75 352.22,-150.33"/>
</g>
<!-- Node5 -->
<g id="node5" class="node">
<title>Node5</title>
<g id="a_node5"><a xlink:href="../../d0/d96/parda_8c.html" target="_top" xlink:title=" ">
<polygon fill="white" stroke="black" points="321,-75.5 321,-113.5 504,-113.5 504,-75.5 321,-75.5"/>
<text text-anchor="start" x="329" y="-98.3" font-family="Helvetica,sans-Serif" font-size="14.00">PPT&#45;GPU/reuse_distance</text>
<text text-anchor="middle" x="412.5" y="-83.3" font-family="Helvetica,sans-Serif" font-size="14.00">_tool/parda.c</text>
</a>
</g>
</g>
<!-- Node1&#45;&gt;Node5 -->
<g id="edge5" class="edge">
<title>Node1&#45;&gt;Node5</title>
<path fill="none" stroke="midnightblue" d="M412.5,-140.37C412.5,-131.38 412.5,-121.67 412.5,-113.59"/>
<polygon fill="midnightblue" stroke="midnightblue" points="409,-140.46 412.5,-150.46 416,-140.46 409,-140.46"/>
</g>
<!-- Node6 -->
<g id="node6" class="node">
<title>Node6</title>
<g id="a_node6"><a xlink:href="../../d5/d13/parda__omp_8h.html" target="_top" xlink:title=" ">
<polygon fill="white" stroke="black" points="522,-75.5 522,-113.5 705,-113.5 705,-75.5 522,-75.5"/>
<text text-anchor="start" x="530" y="-98.3" font-family="Helvetica,sans-Serif" font-size="14.00">PPT&#45;GPU/reuse_distance</text>
<text text-anchor="middle" x="613.5" y="-83.3" font-family="Helvetica,sans-Serif" font-size="14.00">_tool/parda_omp.h</text>
</a>
</g>
</g>
<!-- Node1&#45;&gt;Node6 -->
<g id="edge6" class="edge">
<title>Node1&#45;&gt;Node6</title>
<path fill="none" stroke="midnightblue" d="M471.86,-146.94C501.07,-136.33 535.89,-123.69 563.69,-113.59"/>
<polygon fill="midnightblue" stroke="midnightblue" points="470.39,-143.75 462.19,-150.46 472.78,-150.33 470.39,-143.75"/>
</g>
<!-- Node8 -->
<g id="node8" class="node">
<title>Node8</title>
<g id="a_node8"><a xlink:href="../../dd/dad/parda__print_8c.html" target="_top" xlink:title=" ">
<polygon fill="white" stroke="black" points="723,-75.5 723,-113.5 906,-113.5 906,-75.5 723,-75.5"/>
<text text-anchor="start" x="731" y="-98.3" font-family="Helvetica,sans-Serif" font-size="14.00">PPT&#45;GPU/reuse_distance</text>
<text text-anchor="middle" x="814.5" y="-83.3" font-family="Helvetica,sans-Serif" font-size="14.00">_tool/parda_print.c</text>
</a>
</g>
</g>
<!-- Node1&#45;&gt;Node8 -->
<g id="edge8" class="edge">
<title>Node1&#45;&gt;Node8</title>
<path fill="none" stroke="midnightblue" d="M514.04,-150.29C572.65,-139.75 647.74,-126.2 714.5,-114 717.28,-113.49 720.1,-112.98 722.95,-112.45"/>
<polygon fill="midnightblue" stroke="midnightblue" points="513.26,-146.87 504.04,-152.09 514.5,-153.76 513.26,-146.87"/>
</g>
<!-- Node3&#45;&gt;Node2 -->
<g id="edge3" class="edge">
<title>Node3&#45;&gt;Node2</title>
<path fill="none" stroke="midnightblue" d="M172.84,-69.98C156.11,-59.8 136.83,-48.07 121.24,-38.59"/>
<polygon fill="midnightblue" stroke="midnightblue" points="171.47,-73.25 181.84,-75.46 175.11,-67.27 171.47,-73.25"/>
</g>
<!-- Node4 -->
<g id="node4" class="node">
<title>Node4</title>
<g id="a_node4"><a xlink:href="../../dc/d40/seperate_8c.html" target="_top" xlink:title=" ">
<polygon fill="white" stroke="black" points="201,-0.5 201,-38.5 384,-38.5 384,-0.5 201,-0.5"/>
<text text-anchor="start" x="209" y="-23.3" font-family="Helvetica,sans-Serif" font-size="14.00">PPT&#45;GPU/reuse_distance</text>
<text text-anchor="middle" x="292.5" y="-8.3" font-family="Helvetica,sans-Serif" font-size="14.00">_tool/seperate.c</text>
</a>
</g>
</g>
<!-- Node3&#45;&gt;Node4 -->
<g id="edge4" class="edge">
<title>Node3&#45;&gt;Node4</title>
<path fill="none" stroke="midnightblue" d="M239.17,-68.56C250.09,-58.72 262.39,-47.63 272.43,-38.59"/>
<polygon fill="midnightblue" stroke="midnightblue" points="236.61,-66.16 231.52,-75.46 241.29,-71.36 236.61,-66.16"/>
</g>
<!-- Node7 -->
<g id="node7" class="node">
<title>Node7</title>
<g id="a_node7"><a xlink:href="../../d0/d82/parda__omp_8c.html" target="_top" xlink:title=" ">
<polygon fill="white" stroke="black" points="522,-0.5 522,-38.5 705,-38.5 705,-0.5 522,-0.5"/>
<text text-anchor="start" x="530" y="-23.3" font-family="Helvetica,sans-Serif" font-size="14.00">PPT&#45;GPU/reuse_distance</text>
<text text-anchor="middle" x="613.5" y="-8.3" font-family="Helvetica,sans-Serif" font-size="14.00">_tool/parda_omp.c</text>
</a>
</g>
</g>
<!-- Node6&#45;&gt;Node7 -->
<g id="edge7" class="edge">
<title>Node6&#45;&gt;Node7</title>
<path fill="none" stroke="midnightblue" d="M613.5,-65.37C613.5,-56.38 613.5,-46.67 613.5,-38.59"/>
<polygon fill="midnightblue" stroke="midnightblue" points="610,-65.46 613.5,-75.46 617,-65.46 610,-65.46"/>
</g>
</g>
</svg>
