<?xml version="1.0" encoding="UTF-8" standalone="no"?>
<!DOCTYPE svg PUBLIC "-//W3C//DTD SVG 1.1//EN"
 "http://www.w3.org/Graphics/SVG/1.1/DTD/svg11.dtd">
<!-- Generated by graphviz version 2.43.0 (0)
 -->
<!-- Title: PPT&#45;GPU/llvm_tool/mekong&#45;utils/inc/PTXFunction.h Pages: 1 -->
<svg width="209pt" height="107pt"
 viewBox="0.00 0.00 209.00 107.00" xmlns="http://www.w3.org/2000/svg" xmlns:xlink="http://www.w3.org/1999/xlink">
<g id="graph0" class="graph" transform="scale(1 1) rotate(0) translate(4 103)">
<title>PPT&#45;GPU/llvm_tool/mekong&#45;utils/inc/PTXFunction.h</title>
<polygon fill="white" stroke="transparent" points="-4,4 -4,-103 205,-103 205,4 -4,4"/>
<!-- Node1 -->
<g id="node1" class="node">
<title>Node1</title>
<g id="a_node1"><a xlink:title=" ">
<polygon fill="#bfbfbf" stroke="black" points="0,-60.5 0,-98.5 201,-98.5 201,-60.5 0,-60.5"/>
<text text-anchor="start" x="8" y="-83.3" font-family="Helvetica,sans-Serif" font-size="14.00">PPT&#45;GPU/llvm_tool/mekong</text>
<text text-anchor="middle" x="100.5" y="-68.3" font-family="Helvetica,sans-Serif" font-size="14.00">&#45;utils/inc/PTXFunction.h</text>
</a>
</g>
</g>
<!-- Node2 -->
<g id="node2" class="node">
<title>Node2</title>
<g id="a_node2"><a xlink:title=" ">
<polygon fill="white" stroke="#bfbfbf" points="34,-0.5 34,-23.5 91,-23.5 91,-0.5 34,-0.5"/>
<text text-anchor="middle" x="62.5" y="-8.3" font-family="Helvetica,sans-Serif" font-size="14.00">string</text>
</a>
</g>
</g>
<!-- Node1&#45;&gt;Node2 -->
<g id="edge1" class="edge">
<title>Node1&#45;&gt;Node2</title>
<path fill="none" stroke="midnightblue" d="M89.91,-60.25C84.88,-51.58 78.86,-41.21 73.75,-32.39"/>
<polygon fill="midnightblue" stroke="midnightblue" points="76.69,-30.49 68.64,-23.59 70.64,-34 76.69,-30.49"/>
</g>
<!-- Node3 -->
<g id="node3" class="node">
<title>Node3</title>
<g id="a_node3"><a xlink:title=" ">
<polygon fill="white" stroke="#bfbfbf" points="109.5,-0.5 109.5,-23.5 169.5,-23.5 169.5,-0.5 109.5,-0.5"/>
<text text-anchor="middle" x="139.5" y="-8.3" font-family="Helvetica,sans-Serif" font-size="14.00">vector</text>
</a>
</g>
</g>
<!-- Node1&#45;&gt;Node3 -->
<g id="edge2" class="edge">
<title>Node1&#45;&gt;Node3</title>
<path fill="none" stroke="midnightblue" d="M111.36,-60.25C116.53,-51.58 122.7,-41.21 127.95,-32.39"/>
<polygon fill="midnightblue" stroke="midnightblue" points="131.08,-33.97 133.19,-23.59 125.07,-30.39 131.08,-33.97"/>
</g>
</g>
</svg>
