<?xml version="1.0" encoding="UTF-8" standalone="no"?>
<!DOCTYPE svg PUBLIC "-//W3C//DTD SVG 1.1//EN"
 "http://www.w3.org/Graphics/SVG/1.1/DTD/svg11.dtd">
<!-- Generated by graphviz version 2.43.0 (0)
 -->
<!-- Title: simian.PackException Pages: 1 -->
<svg width="265pt" height="152pt"
 viewBox="0.00 0.00 265.00 152.00" xmlns="http://www.w3.org/2000/svg" xmlns:xlink="http://www.w3.org/1999/xlink">
<g id="graph0" class="graph" transform="scale(1 1) rotate(0) translate(4 148)">
<title>simian.PackException</title>
<polygon fill="white" stroke="transparent" points="-4,4 -4,-148 261,-148 261,4 -4,4"/>
<!-- Node1 -->
<g id="node1" class="node">
<title>Node1</title>
<g id="a_node1"><a xlink:title=" ">
<polygon fill="#bfbfbf" stroke="black" points="45,-60.5 45,-83.5 212,-83.5 212,-60.5 45,-60.5"/>
<text text-anchor="middle" x="128.5" y="-68.3" font-family="Helvetica,sans-Serif" font-size="14.00">simian.PackException</text>
</a>
</g>
</g>
<!-- Node3 -->
<g id="node3" class="node">
<title>Node3</title>
<g id="a_node3"><a xlink:href="../../de/df2/classsimian_1_1UnsupportedTypeException.html" target="_top" xlink:title=" ">
<polygon fill="white" stroke="black" points="0,-0.5 0,-23.5 257,-23.5 257,-0.5 0,-0.5"/>
<text text-anchor="middle" x="128.5" y="-8.3" font-family="Helvetica,sans-Serif" font-size="14.00">simian.UnsupportedTypeException</text>
</a>
</g>
</g>
<!-- Node1&#45;&gt;Node3 -->
<g id="edge2" class="edge">
<title>Node1&#45;&gt;Node3</title>
<path fill="none" stroke="midnightblue" d="M128.5,-50.19C128.5,-41.17 128.5,-30.99 128.5,-23.57"/>
<polygon fill="midnightblue" stroke="midnightblue" points="125,-50.36 128.5,-60.36 132,-50.36 125,-50.36"/>
</g>
<!-- Node2 -->
<g id="node2" class="node">
<title>Node2</title>
<g id="a_node2"><a xlink:title=" ">
<polygon fill="white" stroke="#bfbfbf" points="86,-120.5 86,-143.5 171,-143.5 171,-120.5 86,-120.5"/>
<text text-anchor="middle" x="128.5" y="-128.3" font-family="Helvetica,sans-Serif" font-size="14.00">Exception</text>
</a>
</g>
</g>
<!-- Node2&#45;&gt;Node1 -->
<g id="edge1" class="edge">
<title>Node2&#45;&gt;Node1</title>
<path fill="none" stroke="midnightblue" d="M128.5,-110.19C128.5,-101.17 128.5,-90.99 128.5,-83.57"/>
<polygon fill="midnightblue" stroke="midnightblue" points="125,-110.36 128.5,-120.36 132,-110.36 125,-110.36"/>
</g>
</g>
</svg>
