<?xml version="1.0" encoding="UTF-8" standalone="no"?>
<!DOCTYPE svg PUBLIC "-//W3C//DTD SVG 1.1//EN"
 "http://www.w3.org/Graphics/SVG/1.1/DTD/svg11.dtd">
<!-- Generated by graphviz version 2.43.0 (0)
 -->
<!-- Title: PPT&#45;GPU/llvm_tool/mekong&#45;utils/inc/DeviceUtils.h Pages: 1 -->
<svg width="233pt" height="107pt"
 viewBox="0.00 0.00 233.00 107.00" xmlns="http://www.w3.org/2000/svg" xmlns:xlink="http://www.w3.org/1999/xlink">
<g id="graph0" class="graph" transform="scale(1 1) rotate(0) translate(4 103)">
<title>PPT&#45;GPU/llvm_tool/mekong&#45;utils/inc/DeviceUtils.h</title>
<polygon fill="white" stroke="transparent" points="-4,4 -4,-103 229,-103 229,4 -4,4"/>
<!-- Node1 -->
<g id="node1" class="node">
<title>Node1</title>
<g id="a_node1"><a xlink:title=" ">
<polygon fill="#bfbfbf" stroke="black" points="0,-60.5 0,-98.5 201,-98.5 201,-60.5 0,-60.5"/>
<text text-anchor="start" x="8" y="-83.3" font-family="Helvetica,sans-Serif" font-size="14.00">PPT&#45;GPU/llvm_tool/mekong</text>
<text text-anchor="middle" x="100.5" y="-68.3" font-family="Helvetica,sans-Serif" font-size="14.00">&#45;utils/inc/DeviceUtils.h</text>
</a>
</g>
</g>
<!-- Node2 -->
<g id="node2" class="node">
<title>Node2</title>
<g id="a_node2"><a xlink:title=" ">
<polygon fill="white" stroke="#bfbfbf" points="13.5,-0.5 13.5,-23.5 73.5,-23.5 73.5,-0.5 13.5,-0.5"/>
<text text-anchor="middle" x="43.5" y="-8.3" font-family="Helvetica,sans-Serif" font-size="14.00">vector</text>
</a>
</g>
</g>
<!-- Node1&#45;&gt;Node2 -->
<g id="edge1" class="edge">
<title>Node1&#45;&gt;Node2</title>
<path fill="none" stroke="midnightblue" d="M84.62,-60.25C76.75,-51.21 67.28,-40.32 59.4,-31.28"/>
<polygon fill="midnightblue" stroke="midnightblue" points="61.92,-28.84 52.72,-23.59 56.64,-33.43 61.92,-28.84"/>
</g>
<!-- Node3 -->
<g id="node3" class="node">
<title>Node3</title>
<g id="a_node3"><a xlink:title=" ">
<polygon fill="white" stroke="#bfbfbf" points="92,-0.5 92,-23.5 225,-23.5 225,-0.5 92,-0.5"/>
<text text-anchor="middle" x="158.5" y="-8.3" font-family="Helvetica,sans-Serif" font-size="14.00">llvm/IR/Module.h</text>
</a>
</g>
</g>
<!-- Node1&#45;&gt;Node3 -->
<g id="edge2" class="edge">
<title>Node1&#45;&gt;Node3</title>
<path fill="none" stroke="midnightblue" d="M116.66,-60.25C124.66,-51.21 134.31,-40.32 142.32,-31.28"/>
<polygon fill="midnightblue" stroke="midnightblue" points="145.11,-33.4 149.12,-23.59 139.87,-28.76 145.11,-33.4"/>
</g>
</g>
</svg>
