<?xml version="1.0" encoding="UTF-8" standalone="no"?>
<!DOCTYPE svg PUBLIC "-//W3C//DTD SVG 1.1//EN"
 "http://www.w3.org/Graphics/SVG/1.1/DTD/svg11.dtd">
<!-- Generated by graphviz version 2.43.0 (0)
 -->
<!-- Title: PPT&#45;GPU/reuse_distance_tool/seperate.h Pages: 1 -->
<svg width="1084pt" height="227pt"
 viewBox="0.00 0.00 1083.75 227.00" xmlns="http://www.w3.org/2000/svg" xmlns:xlink="http://www.w3.org/1999/xlink">
<g id="graph0" class="graph" transform="scale(1 1) rotate(0) translate(4 223)">
<title>PPT&#45;GPU/reuse_distance_tool/seperate.h</title>
<polygon fill="white" stroke="transparent" points="-4,4 -4,-223 1079.75,-223 1079.75,4 -4,4"/>
<!-- Node1 -->
<g id="node1" class="node">
<title>Node1</title>
<g id="a_node1"><a xlink:title=" ">
<polygon fill="#bfbfbf" stroke="black" points="758.25,-180.5 758.25,-218.5 941.25,-218.5 941.25,-180.5 758.25,-180.5"/>
<text text-anchor="start" x="766.25" y="-203.3" font-family="Helvetica,sans-Serif" font-size="14.00">PPT&#45;GPU/reuse_distance</text>
<text text-anchor="middle" x="849.75" y="-188.3" font-family="Helvetica,sans-Serif" font-size="14.00">_tool/seperate.h</text>
</a>
</g>
</g>
<!-- Node2 -->
<g id="node2" class="node">
<title>Node2</title>
<g id="a_node2"><a xlink:href="../../d0/dbf/parda_8h.html" target="_top" xlink:title=" ">
<polygon fill="white" stroke="black" points="368.75,-120.5 368.75,-143.5 438.75,-143.5 438.75,-120.5 368.75,-120.5"/>
<text text-anchor="middle" x="403.75" y="-128.3" font-family="Helvetica,sans-Serif" font-size="14.00">parda.h</text>
</a>
</g>
</g>
<!-- Node1&#45;&gt;Node2 -->
<g id="edge1" class="edge">
<title>Node1&#45;&gt;Node2</title>
<path fill="none" stroke="midnightblue" d="M758.15,-185.05C664,-171.22 521.27,-150.26 449.04,-139.65"/>
<polygon fill="midnightblue" stroke="midnightblue" points="449.31,-136.15 438.91,-138.16 448.29,-143.08 449.31,-136.15"/>
</g>
<!-- Node4 -->
<g id="node4" class="node">
<title>Node4</title>
<g id="a_node4"><a xlink:title=" ">
<polygon fill="white" stroke="#bfbfbf" points="22.75,-0.5 22.75,-23.5 86.75,-23.5 86.75,-0.5 22.75,-0.5"/>
<text text-anchor="middle" x="54.75" y="-8.3" font-family="Helvetica,sans-Serif" font-size="14.00">stdio.h</text>
</a>
</g>
</g>
<!-- Node1&#45;&gt;Node4 -->
<g id="edge27" class="edge">
<title>Node1&#45;&gt;Node4</title>
<path fill="none" stroke="midnightblue" d="M758.04,-196.86C587.19,-192.97 226.74,-180.59 107.75,-144 56.75,-128.32 30.44,-130.21 3.75,-84 -7.57,-64.4 11.62,-43.53 29.6,-29.54"/>
<polygon fill="midnightblue" stroke="midnightblue" points="31.68,-32.35 37.67,-23.62 27.54,-26.71 31.68,-32.35"/>
</g>
<!-- Node5 -->
<g id="node5" class="node">
<title>Node5</title>
<g id="a_node5"><a xlink:title=" ">
<polygon fill="white" stroke="#bfbfbf" points="198.75,-0.5 198.75,-23.5 266.75,-23.5 266.75,-0.5 198.75,-0.5"/>
<text text-anchor="middle" x="232.75" y="-8.3" font-family="Helvetica,sans-Serif" font-size="14.00">stdlib.h</text>
</a>
</g>
</g>
<!-- Node1&#45;&gt;Node5 -->
<g id="edge28" class="edge">
<title>Node1&#45;&gt;Node5</title>
<path fill="none" stroke="midnightblue" d="M758.19,-192.8C550.96,-178.95 60.31,-140.48 12.75,-84 5.88,-75.84 6.05,-68.29 12.75,-60 34.38,-33.27 130.3,-21.08 188.1,-16.07"/>
<polygon fill="midnightblue" stroke="midnightblue" points="188.75,-19.53 198.43,-15.21 188.17,-12.55 188.75,-19.53"/>
</g>
<!-- Node6 -->
<g id="node6" class="node">
<title>Node6</title>
<g id="a_node6"><a xlink:title=" ">
<polygon fill="white" stroke="#bfbfbf" points="592.25,-0.5 592.25,-23.5 663.25,-23.5 663.25,-0.5 592.25,-0.5"/>
<text text-anchor="middle" x="627.75" y="-8.3" font-family="Helvetica,sans-Serif" font-size="14.00">string.h</text>
</a>
</g>
</g>
<!-- Node1&#45;&gt;Node6 -->
<g id="edge29" class="edge">
<title>Node1&#45;&gt;Node6</title>
<path fill="none" stroke="midnightblue" d="M808.14,-180.45C767.73,-161.25 706.65,-127.66 665.75,-84 651.93,-69.24 641.6,-48.5 635.22,-33.24"/>
<polygon fill="midnightblue" stroke="midnightblue" points="638.38,-31.71 631.45,-23.7 631.87,-34.29 638.38,-31.71"/>
</g>
<!-- Node8 -->
<g id="node8" class="node">
<title>Node8</title>
<g id="a_node8"><a xlink:title=" ">
<polygon fill="white" stroke="#bfbfbf" points="704.25,-0.5 704.25,-23.5 765.25,-23.5 765.25,-0.5 704.25,-0.5"/>
<text text-anchor="middle" x="734.75" y="-8.3" font-family="Helvetica,sans-Serif" font-size="14.00">fcntl.h</text>
</a>
</g>
</g>
<!-- Node1&#45;&gt;Node8 -->
<g id="edge25" class="edge">
<title>Node1&#45;&gt;Node8</title>
<path fill="none" stroke="midnightblue" d="M865.63,-180.19C888.11,-151.93 923.57,-97.1 895.75,-60 893.88,-57.5 822.33,-37.28 775.25,-24.18"/>
<polygon fill="midnightblue" stroke="midnightblue" points="775.89,-20.73 765.32,-21.43 774.02,-27.47 775.89,-20.73"/>
</g>
<!-- Node9 -->
<g id="node9" class="node">
<title>Node9</title>
<g id="a_node9"><a xlink:title=" ">
<polygon fill="white" stroke="#bfbfbf" points="784.25,-0.5 784.25,-23.5 859.25,-23.5 859.25,-0.5 784.25,-0.5"/>
<text text-anchor="middle" x="821.75" y="-8.3" font-family="Helvetica,sans-Serif" font-size="14.00">getopt.h</text>
</a>
</g>
</g>
<!-- Node1&#45;&gt;Node9 -->
<g id="edge26" class="edge">
<title>Node1&#45;&gt;Node9</title>
<path fill="none" stroke="midnightblue" d="M890.88,-180.4C905.59,-171.67 920.54,-159.64 928.75,-144 946.11,-110.95 949.17,-91.26 928.75,-60 921.28,-48.55 892.02,-36.13 865.98,-26.93"/>
<polygon fill="midnightblue" stroke="midnightblue" points="866.8,-23.52 856.21,-23.58 864.53,-30.14 866.8,-23.52"/>
</g>
<!-- Node10 -->
<g id="node10" class="node">
<title>Node10</title>
<g id="a_node10"><a xlink:title=" ">
<polygon fill="white" stroke="#bfbfbf" points="877.75,-0.5 877.75,-23.5 961.75,-23.5 961.75,-0.5 877.75,-0.5"/>
<text text-anchor="middle" x="919.75" y="-8.3" font-family="Helvetica,sans-Serif" font-size="14.00">sys/stat.h</text>
</a>
</g>
</g>
<!-- Node1&#45;&gt;Node10 -->
<g id="edge30" class="edge">
<title>Node1&#45;&gt;Node10</title>
<path fill="none" stroke="midnightblue" d="M905.94,-180.38C922.68,-172.05 939.12,-160.3 948.75,-144 967.75,-111.86 958.94,-95.92 948.75,-60 945.94,-50.08 940.37,-40.2 934.86,-32.08"/>
<polygon fill="midnightblue" stroke="midnightblue" points="937.52,-29.79 928.82,-23.75 931.86,-33.9 937.52,-29.79"/>
</g>
<!-- Node11 -->
<g id="node11" class="node">
<title>Node11</title>
<g id="a_node11"><a xlink:title=" ">
<polygon fill="white" stroke="#bfbfbf" points="979.75,-0.5 979.75,-23.5 1075.75,-23.5 1075.75,-0.5 979.75,-0.5"/>
<text text-anchor="middle" x="1027.75" y="-8.3" font-family="Helvetica,sans-Serif" font-size="14.00">sys/types.h</text>
</a>
</g>
</g>
<!-- Node1&#45;&gt;Node11 -->
<g id="edge31" class="edge">
<title>Node1&#45;&gt;Node11</title>
<path fill="none" stroke="midnightblue" d="M909.75,-180.38C930.12,-171.91 951.74,-160.06 967.75,-144 999.09,-112.56 1015.81,-61.77 1023.12,-33.55"/>
<polygon fill="midnightblue" stroke="midnightblue" points="1026.58,-34.16 1025.55,-23.61 1019.78,-32.5 1026.58,-34.16"/>
</g>
<!-- Node17 -->
<g id="node17" class="node">
<title>Node17</title>
<g id="a_node17"><a xlink:title=" ">
<polygon fill="white" stroke="#bfbfbf" points="812.75,-60.5 812.75,-83.5 886.75,-83.5 886.75,-60.5 812.75,-60.5"/>
<text text-anchor="middle" x="849.75" y="-68.3" font-family="Helvetica,sans-Serif" font-size="14.00">unistd.h</text>
</a>
</g>
</g>
<!-- Node1&#45;&gt;Node17 -->
<g id="edge32" class="edge">
<title>Node1&#45;&gt;Node17</title>
<path fill="none" stroke="midnightblue" d="M849.75,-180.25C849.75,-157.25 849.75,-117.8 849.75,-93.69"/>
<polygon fill="midnightblue" stroke="midnightblue" points="853.25,-93.52 849.75,-83.52 846.25,-93.52 853.25,-93.52"/>
</g>
<!-- Node3 -->
<g id="node3" class="node">
<title>Node3</title>
<g id="a_node3"><a xlink:href="../../de/d09/narray_8h.html" target="_top" xlink:title=" ">
<polygon fill="white" stroke="black" points="196.25,-60.5 196.25,-83.5 269.25,-83.5 269.25,-60.5 196.25,-60.5"/>
<text text-anchor="middle" x="232.75" y="-68.3" font-family="Helvetica,sans-Serif" font-size="14.00">narray.h</text>
</a>
</g>
</g>
<!-- Node2&#45;&gt;Node3 -->
<g id="edge2" class="edge">
<title>Node2&#45;&gt;Node3</title>
<path fill="none" stroke="midnightblue" d="M372.79,-120.5C344.91,-111.04 303.76,-97.08 273.27,-86.74"/>
<polygon fill="midnightblue" stroke="midnightblue" points="274.37,-83.42 263.78,-83.52 272.12,-90.05 274.37,-83.42"/>
</g>
<!-- Node2&#45;&gt;Node4 -->
<g id="edge20" class="edge">
<title>Node2&#45;&gt;Node4</title>
<path fill="none" stroke="midnightblue" d="M368.51,-129.39C276.8,-124.83 36.2,-110.44 12.75,-84 -1.7,-67.7 15.85,-45.71 32.48,-30.54"/>
<polygon fill="midnightblue" stroke="midnightblue" points="35.13,-32.87 40.42,-23.69 30.56,-27.57 35.13,-32.87"/>
</g>
<!-- Node2&#45;&gt;Node5 -->
<g id="edge21" class="edge">
<title>Node2&#45;&gt;Node5</title>
<path fill="none" stroke="midnightblue" d="M398.64,-120.37C390.78,-105.05 374.33,-76.76 352.75,-60 330.39,-42.62 300.81,-30.94 276.62,-23.57"/>
<polygon fill="midnightblue" stroke="midnightblue" points="277.53,-20.19 266.95,-20.76 275.58,-26.91 277.53,-20.19"/>
</g>
<!-- Node2&#45;&gt;Node6 -->
<g id="edge22" class="edge">
<title>Node2&#45;&gt;Node6</title>
<path fill="none" stroke="midnightblue" d="M439.06,-130.21C479.2,-127.61 544.86,-117.97 588.75,-84 605.27,-71.22 615.74,-49.38 621.63,-33.29"/>
<polygon fill="midnightblue" stroke="midnightblue" points="624.99,-34.29 624.86,-23.7 618.35,-32.06 624.99,-34.29"/>
</g>
<!-- Node7 -->
<g id="node7" class="node">
<title>Node7</title>
<g id="a_node7"><a xlink:href="../../da/d28/process__args_8h.html" target="_top" xlink:title=" ">
<polygon fill="white" stroke="black" points="674.75,-60.5 674.75,-83.5 794.75,-83.5 794.75,-60.5 674.75,-60.5"/>
<text text-anchor="middle" x="734.75" y="-68.3" font-family="Helvetica,sans-Serif" font-size="14.00">process_args.h</text>
</a>
</g>
</g>
<!-- Node2&#45;&gt;Node7 -->
<g id="edge6" class="edge">
<title>Node2&#45;&gt;Node7</title>
<path fill="none" stroke="midnightblue" d="M438.86,-124.85C492.38,-115.47 595.45,-97.41 664.68,-85.28"/>
<polygon fill="midnightblue" stroke="midnightblue" points="665.39,-88.71 674.64,-83.53 664.19,-81.81 665.39,-88.71"/>
</g>
<!-- Node12 -->
<g id="node12" class="node">
<title>Node12</title>
<g id="a_node12"><a xlink:href="../../d2/db0/splay_8h.html" target="_top" xlink:title=" ">
<polygon fill="white" stroke="black" points="22.25,-60.5 22.25,-83.5 87.25,-83.5 87.25,-60.5 22.25,-60.5"/>
<text text-anchor="middle" x="54.75" y="-68.3" font-family="Helvetica,sans-Serif" font-size="14.00">splay.h</text>
</a>
</g>
</g>
<!-- Node2&#45;&gt;Node12 -->
<g id="edge14" class="edge">
<title>Node2&#45;&gt;Node12</title>
<path fill="none" stroke="midnightblue" d="M368.42,-126.9C312.72,-120.16 200.96,-105.5 97.35,-84.18"/>
<polygon fill="midnightblue" stroke="midnightblue" points="97.85,-80.71 87.35,-82.09 96.43,-87.56 97.85,-80.71"/>
</g>
<!-- Node13 -->
<g id="node13" class="node">
<title>Node13</title>
<g id="a_node13"><a xlink:title=" ">
<polygon fill="white" stroke="#bfbfbf" points="105.25,-60.5 105.25,-83.5 178.25,-83.5 178.25,-60.5 105.25,-60.5"/>
<text text-anchor="middle" x="141.75" y="-68.3" font-family="Helvetica,sans-Serif" font-size="14.00">assert.h</text>
</a>
</g>
</g>
<!-- Node2&#45;&gt;Node13 -->
<g id="edge17" class="edge">
<title>Node2&#45;&gt;Node13</title>
<path fill="none" stroke="midnightblue" d="M368.74,-123.71C327.72,-115.11 257.47,-100.18 188.32,-84.33"/>
<polygon fill="midnightblue" stroke="midnightblue" points="189.1,-80.92 178.57,-82.08 187.53,-87.74 189.1,-80.92"/>
</g>
<!-- Node14 -->
<g id="node14" class="node">
<title>Node14</title>
<g id="a_node14"><a xlink:title=" ">
<polygon fill="white" stroke="#bfbfbf" points="287.75,-60.5 287.75,-83.5 343.75,-83.5 343.75,-60.5 287.75,-60.5"/>
<text text-anchor="middle" x="315.75" y="-68.3" font-family="Helvetica,sans-Serif" font-size="14.00">glib.h</text>
</a>
</g>
</g>
<!-- Node2&#45;&gt;Node14 -->
<g id="edge18" class="edge">
<title>Node2&#45;&gt;Node14</title>
<path fill="none" stroke="midnightblue" d="M387.61,-120.36C374.34,-111.61 355.32,-99.08 340.18,-89.1"/>
<polygon fill="midnightblue" stroke="midnightblue" points="342.07,-86.15 331.79,-83.57 338.22,-92 342.07,-86.15"/>
</g>
<!-- Node15 -->
<g id="node15" class="node">
<title>Node15</title>
<g id="a_node15"><a xlink:title=" ">
<polygon fill="white" stroke="#bfbfbf" points="400.25,-60.5 400.25,-83.5 473.25,-83.5 473.25,-60.5 400.25,-60.5"/>
<text text-anchor="middle" x="436.75" y="-68.3" font-family="Helvetica,sans-Serif" font-size="14.00">libgen.h</text>
</a>
</g>
</g>
<!-- Node2&#45;&gt;Node15 -->
<g id="edge19" class="edge">
<title>Node2&#45;&gt;Node15</title>
<path fill="none" stroke="midnightblue" d="M409.81,-120.36C414.23,-112.59 420.34,-101.84 425.63,-92.55"/>
<polygon fill="midnightblue" stroke="midnightblue" points="428.84,-93.99 430.74,-83.57 422.75,-90.53 428.84,-93.99"/>
</g>
<!-- Node16 -->
<g id="node16" class="node">
<title>Node16</title>
<g id="a_node16"><a xlink:title=" ">
<polygon fill="white" stroke="#bfbfbf" points="491.25,-60.5 491.25,-83.5 580.25,-83.5 580.25,-60.5 491.25,-60.5"/>
<text text-anchor="middle" x="535.75" y="-68.3" font-family="Helvetica,sans-Serif" font-size="14.00">sys/time.h</text>
</a>
</g>
</g>
<!-- Node2&#45;&gt;Node16 -->
<g id="edge23" class="edge">
<title>Node2&#45;&gt;Node16</title>
<path fill="none" stroke="midnightblue" d="M427.66,-120.5C448.55,-111.32 479.11,-97.89 502.41,-87.65"/>
<polygon fill="midnightblue" stroke="midnightblue" points="503.83,-90.85 511.58,-83.62 501.02,-84.44 503.83,-90.85"/>
</g>
<!-- Node2&#45;&gt;Node17 -->
<g id="edge24" class="edge">
<title>Node2&#45;&gt;Node17</title>
<path fill="none" stroke="midnightblue" d="M439,-128.26C507.3,-122.66 662.52,-108.45 802.62,-84.04"/>
<polygon fill="midnightblue" stroke="midnightblue" points="803.44,-87.45 812.68,-82.26 802.22,-80.55 803.44,-87.45"/>
</g>
<!-- Node3&#45;&gt;Node4 -->
<g id="edge3" class="edge">
<title>Node3&#45;&gt;Node4</title>
<path fill="none" stroke="midnightblue" d="M200.52,-60.5C171.5,-51.04 128.66,-37.08 96.93,-26.74"/>
<polygon fill="midnightblue" stroke="midnightblue" points="97.64,-23.29 87.05,-23.52 95.47,-29.95 97.64,-23.29"/>
</g>
<!-- Node3&#45;&gt;Node5 -->
<g id="edge4" class="edge">
<title>Node3&#45;&gt;Node5</title>
<path fill="none" stroke="midnightblue" d="M232.75,-60.36C232.75,-52.92 232.75,-42.74 232.75,-33.73"/>
<polygon fill="midnightblue" stroke="midnightblue" points="236.25,-33.57 232.75,-23.57 229.25,-33.57 236.25,-33.57"/>
</g>
<!-- Node3&#45;&gt;Node6 -->
<g id="edge5" class="edge">
<title>Node3&#45;&gt;Node6</title>
<path fill="none" stroke="midnightblue" d="M269.34,-61.9C272.52,-61.22 275.69,-60.57 278.75,-60 386.72,-39.87 515.01,-24.85 581.94,-17.68"/>
<polygon fill="midnightblue" stroke="midnightblue" points="582.57,-21.13 592.14,-16.6 581.83,-14.17 582.57,-21.13"/>
</g>
<!-- Node7&#45;&gt;Node4 -->
<g id="edge9" class="edge">
<title>Node7&#45;&gt;Node4</title>
<path fill="none" stroke="midnightblue" d="M674.71,-65.88C539.53,-54.35 214.03,-26.59 97.31,-16.63"/>
<polygon fill="midnightblue" stroke="midnightblue" points="97.26,-13.11 87,-15.75 96.66,-20.09 97.26,-13.11"/>
</g>
<!-- Node7&#45;&gt;Node5 -->
<g id="edge10" class="edge">
<title>Node7&#45;&gt;Node5</title>
<path fill="none" stroke="midnightblue" d="M674.7,-64.06C572.56,-52.26 367.34,-28.55 277.07,-18.12"/>
<polygon fill="midnightblue" stroke="midnightblue" points="277.24,-14.62 266.91,-16.95 276.44,-21.57 277.24,-14.62"/>
</g>
<!-- Node7&#45;&gt;Node6 -->
<g id="edge11" class="edge">
<title>Node7&#45;&gt;Node6</title>
<path fill="none" stroke="midnightblue" d="M715.13,-60.36C698.61,-51.41 674.78,-38.49 656.18,-28.41"/>
<polygon fill="midnightblue" stroke="midnightblue" points="657.71,-25.26 647.26,-23.57 654.38,-31.41 657.71,-25.26"/>
</g>
<!-- Node7&#45;&gt;Node8 -->
<g id="edge7" class="edge">
<title>Node7&#45;&gt;Node8</title>
<path fill="none" stroke="midnightblue" d="M734.75,-60.36C734.75,-52.92 734.75,-42.74 734.75,-33.73"/>
<polygon fill="midnightblue" stroke="midnightblue" points="738.25,-33.57 734.75,-23.57 731.25,-33.57 738.25,-33.57"/>
</g>
<!-- Node7&#45;&gt;Node9 -->
<g id="edge8" class="edge">
<title>Node7&#45;&gt;Node9</title>
<path fill="none" stroke="midnightblue" d="M750.71,-60.36C763.71,-51.7 782.29,-39.31 797.18,-29.38"/>
<polygon fill="midnightblue" stroke="midnightblue" points="799.52,-32.03 805.9,-23.57 795.64,-26.21 799.52,-32.03"/>
</g>
<!-- Node7&#45;&gt;Node10 -->
<g id="edge12" class="edge">
<title>Node7&#45;&gt;Node10</title>
<path fill="none" stroke="midnightblue" d="M768.26,-60.5C798.55,-51 843.32,-36.96 876.35,-26.61"/>
<polygon fill="midnightblue" stroke="midnightblue" points="877.69,-29.85 886.19,-23.52 875.6,-23.17 877.69,-29.85"/>
</g>
<!-- Node7&#45;&gt;Node11 -->
<g id="edge13" class="edge">
<title>Node7&#45;&gt;Node11</title>
<path fill="none" stroke="midnightblue" d="M787.81,-60.5C839.09,-50.35 916.59,-35 969.54,-24.52"/>
<polygon fill="midnightblue" stroke="midnightblue" points="970.33,-27.93 979.46,-22.56 968.97,-21.07 970.33,-27.93"/>
</g>
<!-- Node12&#45;&gt;Node4 -->
<g id="edge15" class="edge">
<title>Node12&#45;&gt;Node4</title>
<path fill="none" stroke="midnightblue" d="M54.75,-60.36C54.75,-52.92 54.75,-42.74 54.75,-33.73"/>
<polygon fill="midnightblue" stroke="midnightblue" points="58.25,-33.57 54.75,-23.57 51.25,-33.57 58.25,-33.57"/>
</g>
<!-- Node12&#45;&gt;Node5 -->
<g id="edge16" class="edge">
<title>Node12&#45;&gt;Node5</title>
<path fill="none" stroke="midnightblue" d="M86.99,-60.5C116.01,-51.04 158.84,-37.08 190.58,-26.74"/>
<polygon fill="midnightblue" stroke="midnightblue" points="192.04,-29.95 200.46,-23.52 189.87,-23.29 192.04,-29.95"/>
</g>
</g>
</svg>
