<?xml version="1.0" encoding="UTF-8" standalone="no"?>
<!DOCTYPE svg PUBLIC "-//W3C//DTD SVG 1.1//EN"
 "http://www.w3.org/Graphics/SVG/1.1/DTD/svg11.dtd">
<!-- Generated by graphviz version 2.43.0 (0)
 -->
<!-- Title: PPT&#45;GPU/tracing_tool/nvbit/generated_cuda_meta.h Pages: 1 -->
<svg width="181pt" height="182pt"
 viewBox="0.00 0.00 181.00 182.00" xmlns="http://www.w3.org/2000/svg" xmlns:xlink="http://www.w3.org/1999/xlink">
<g id="graph0" class="graph" transform="scale(1 1) rotate(0) translate(4 178)">
<title>PPT&#45;GPU/tracing_tool/nvbit/generated_cuda_meta.h</title>
<polygon fill="white" stroke="transparent" points="-4,4 -4,-178 177,-178 177,4 -4,4"/>
<!-- Node1 -->
<g id="node1" class="node">
<title>Node1</title>
<g id="a_node1"><a xlink:title=" ">
<polygon fill="#bfbfbf" stroke="black" points="0,-120.5 0,-173.5 173,-173.5 173,-120.5 0,-120.5"/>
<text text-anchor="start" x="8" y="-158.3" font-family="Helvetica,sans-Serif" font-size="14.00">PPT&#45;GPU/tracing_tool</text>
<text text-anchor="start" x="8" y="-143.3" font-family="Helvetica,sans-Serif" font-size="14.00">/nvbit/generated_cuda</text>
<text text-anchor="middle" x="86.5" y="-128.3" font-family="Helvetica,sans-Serif" font-size="14.00">_meta.h</text>
</a>
</g>
</g>
<!-- Node2 -->
<g id="node2" class="node">
<title>Node2</title>
<g id="a_node2"><a xlink:href="../../dc/d57/cuda_8h.html" target="_top" xlink:title="Header file for the CUDA Toolkit application programming interface.">
<polygon fill="white" stroke="black" points="54.5,-60.5 54.5,-83.5 118.5,-83.5 118.5,-60.5 54.5,-60.5"/>
<text text-anchor="middle" x="86.5" y="-68.3" font-family="Helvetica,sans-Serif" font-size="14.00">cuda.h</text>
</a>
</g>
</g>
<!-- Node1&#45;&gt;Node2 -->
<g id="edge1" class="edge">
<title>Node1&#45;&gt;Node2</title>
<path fill="none" stroke="midnightblue" d="M86.5,-120.47C86.5,-111.76 86.5,-102.14 86.5,-93.84"/>
<polygon fill="midnightblue" stroke="midnightblue" points="90,-93.57 86.5,-83.57 83,-93.57 90,-93.57"/>
</g>
<!-- Node3 -->
<g id="node3" class="node">
<title>Node3</title>
<g id="a_node3"><a xlink:title=" ">
<polygon fill="white" stroke="#bfbfbf" points="9.5,-0.5 9.5,-23.5 77.5,-23.5 77.5,-0.5 9.5,-0.5"/>
<text text-anchor="middle" x="43.5" y="-8.3" font-family="Helvetica,sans-Serif" font-size="14.00">stdlib.h</text>
</a>
</g>
</g>
<!-- Node2&#45;&gt;Node3 -->
<g id="edge2" class="edge">
<title>Node2&#45;&gt;Node3</title>
<path fill="none" stroke="midnightblue" d="M78.61,-60.36C72.67,-52.35 64.38,-41.16 57.34,-31.67"/>
<polygon fill="midnightblue" stroke="midnightblue" points="60.1,-29.52 51.34,-23.57 54.48,-33.69 60.1,-29.52"/>
</g>
<!-- Node4 -->
<g id="node4" class="node">
<title>Node4</title>
<g id="a_node4"><a xlink:title=" ">
<polygon fill="white" stroke="#bfbfbf" points="95.5,-0.5 95.5,-23.5 165.5,-23.5 165.5,-0.5 95.5,-0.5"/>
<text text-anchor="middle" x="130.5" y="-8.3" font-family="Helvetica,sans-Serif" font-size="14.00">stdint.h</text>
</a>
</g>
</g>
<!-- Node2&#45;&gt;Node4 -->
<g id="edge3" class="edge">
<title>Node2&#45;&gt;Node4</title>
<path fill="none" stroke="midnightblue" d="M94.57,-60.36C100.65,-52.35 109.14,-41.16 116.34,-31.67"/>
<polygon fill="midnightblue" stroke="midnightblue" points="119.23,-33.65 122.48,-23.57 113.65,-29.42 119.23,-33.65"/>
</g>
</g>
</svg>
