<?xml version="1.0" encoding="UTF-8" standalone="no"?>
<!DOCTYPE svg PUBLIC "-//W3C//DTD SVG 1.1//EN"
 "http://www.w3.org/Graphics/SVG/1.1/DTD/svg11.dtd">
<!-- Generated by graphviz version 2.43.0 (0)
 -->
<!-- Title: src.kernels.Kernel Pages: 1 -->
<svg width="146pt" height="152pt"
 viewBox="0.00 0.00 146.00 152.00" xmlns="http://www.w3.org/2000/svg" xmlns:xlink="http://www.w3.org/1999/xlink">
<g id="graph0" class="graph" transform="scale(1 1) rotate(0) translate(4 148)">
<title>src.kernels.Kernel</title>
<polygon fill="white" stroke="transparent" points="-4,4 -4,-148 142,-148 142,4 -4,4"/>
<!-- Node1 -->
<g id="node1" class="node">
<title>Node1</title>
<g id="a_node1"><a xlink:title=" ">
<polygon fill="#bfbfbf" stroke="black" points="0,-0.5 0,-23.5 138,-23.5 138,-0.5 0,-0.5"/>
<text text-anchor="middle" x="69" y="-8.3" font-family="Helvetica,sans-Serif" font-size="14.00">src.kernels.Kernel</text>
</a>
</g>
</g>
<!-- Node2 -->
<g id="node2" class="node">
<title>Node2</title>
<g id="a_node2"><a xlink:href="../../df/d82/classsimian_1_1Entity.html" target="_top" xlink:title=" ">
<polygon fill="white" stroke="black" points="15.5,-60.5 15.5,-83.5 122.5,-83.5 122.5,-60.5 15.5,-60.5"/>
<text text-anchor="middle" x="69" y="-68.3" font-family="Helvetica,sans-Serif" font-size="14.00">simian.Entity</text>
</a>
</g>
</g>
<!-- Node2&#45;&gt;Node1 -->
<g id="edge1" class="edge">
<title>Node2&#45;&gt;Node1</title>
<path fill="none" stroke="midnightblue" d="M69,-50.19C69,-41.17 69,-30.99 69,-23.57"/>
<polygon fill="midnightblue" stroke="midnightblue" points="65.5,-50.36 69,-60.36 72.5,-50.36 65.5,-50.36"/>
</g>
<!-- Node3 -->
<g id="node3" class="node">
<title>Node3</title>
<g id="a_node3"><a xlink:title=" ">
<polygon fill="white" stroke="#bfbfbf" points="39.5,-120.5 39.5,-143.5 98.5,-143.5 98.5,-120.5 39.5,-120.5"/>
<text text-anchor="middle" x="69" y="-128.3" font-family="Helvetica,sans-Serif" font-size="14.00">object</text>
</a>
</g>
</g>
<!-- Node3&#45;&gt;Node2 -->
<g id="edge2" class="edge">
<title>Node3&#45;&gt;Node2</title>
<path fill="none" stroke="midnightblue" d="M69,-110.19C69,-101.17 69,-90.99 69,-83.57"/>
<polygon fill="midnightblue" stroke="midnightblue" points="65.5,-110.36 69,-120.36 72.5,-110.36 65.5,-110.36"/>
</g>
</g>
</svg>
