<?xml version="1.0" encoding="UTF-8" standalone="no"?>
<!DOCTYPE svg PUBLIC "-//W3C//DTD SVG 1.1//EN"
 "http://www.w3.org/Graphics/SVG/1.1/DTD/svg11.dtd">
<!-- Generated by graphviz version 2.43.0 (0)
 -->
<!-- Title: CUDA_MEMCPY3D_PEER_st Pages: 1 -->
<svg width="213pt" height="152pt"
 viewBox="0.00 0.00 213.00 152.00" xmlns="http://www.w3.org/2000/svg" xmlns:xlink="http://www.w3.org/1999/xlink">
<g id="graph0" class="graph" transform="scale(1 1) rotate(0) translate(4 148)">
<title>CUDA_MEMCPY3D_PEER_st</title>
<polygon fill="white" stroke="transparent" points="-4,4 -4,-148 209,-148 209,4 -4,4"/>
<!-- Node1 -->
<g id="node1" class="node">
<title>Node1</title>
<g id="a_node1"><a xlink:title=" ">
<polygon fill="#bfbfbf" stroke="black" points="0,-0.5 0,-23.5 205,-23.5 205,-0.5 0,-0.5"/>
<text text-anchor="middle" x="102.5" y="-8.3" font-family="Helvetica,sans-Serif" font-size="14.00">CUDA_MEMCPY3D_PEER_st</text>
</a>
</g>
</g>
<!-- Node2 -->
<g id="node2" class="node">
<title>Node2</title>
<g id="a_node2"><a xlink:title=" ">
<polygon fill="white" stroke="#bfbfbf" points="74,-120.5 74,-143.5 131,-143.5 131,-120.5 74,-120.5"/>
<text text-anchor="middle" x="102.5" y="-128.3" font-family="Helvetica,sans-Serif" font-size="14.00">struct</text>
</a>
</g>
</g>
<!-- Node2&#45;&gt;Node1 -->
<g id="edge1" class="edge">
<title>Node2&#45;&gt;Node1</title>
<path fill="none" stroke="#9a32cd" stroke-dasharray="5,2" d="M102.5,-110.05C102.5,-84.67 102.5,-42.93 102.5,-23.52"/>
<polygon fill="#9a32cd" stroke="#9a32cd" points="99,-110.11 102.5,-120.11 106,-110.11 99,-110.11"/>
<text text-anchor="middle" x="140.5" y="-90.8" font-family="Helvetica,sans-Serif" font-size="14.00"> dstArray</text>
<text text-anchor="middle" x="140.5" y="-75.8" font-family="Helvetica,sans-Serif" font-size="14.00">srcArray</text>
<text text-anchor="middle" x="140.5" y="-60.8" font-family="Helvetica,sans-Serif" font-size="14.00">srcContext</text>
<text text-anchor="middle" x="140.5" y="-45.8" font-family="Helvetica,sans-Serif" font-size="14.00">dstContext</text>
</g>
</g>
</svg>
