<?xml version="1.0" encoding="UTF-8" standalone="no"?>
<!DOCTYPE svg PUBLIC "-//W3C//DTD SVG 1.1//EN"
 "http://www.w3.org/Graphics/SVG/1.1/DTD/svg11.dtd">
<!-- Generated by graphviz version 2.43.0 (0)
 -->
<!-- Title: printtree Pages: 1 -->
<svg width="496pt" height="61pt"
 viewBox="0.00 0.00 496.00 61.00" xmlns="http://www.w3.org/2000/svg" xmlns:xlink="http://www.w3.org/1999/xlink">
<g id="graph0" class="graph" transform="scale(1 1) rotate(0) translate(4 57)">
<title>printtree</title>
<polygon fill="white" stroke="transparent" points="-4,4 -4,-57 492,-57 492,4 -4,4"/>
<!-- Node1 -->
<g id="node1" class="node">
<title>Node1</title>
<g id="a_node1"><a xlink:title=" ">
<polygon fill="#bfbfbf" stroke="black" points="411,-29.5 411,-52.5 488,-52.5 488,-29.5 411,-29.5"/>
<text text-anchor="middle" x="449.5" y="-37.3" font-family="Helvetica,sans-Serif" font-size="14.00">printtree</text>
</a>
</g>
</g>
<!-- Node2 -->
<g id="node2" class="node">
<title>Node2</title>
<g id="a_node2"><a xlink:href="../../dd/dad/parda__print_8c.html#ab48ab938b7bf88bafe3f62a501223e95" target="_top" xlink:title=" ">
<polygon fill="white" stroke="black" points="132,-29.5 132,-52.5 262,-52.5 262,-29.5 132,-29.5"/>
<text text-anchor="middle" x="197" y="-37.3" font-family="Helvetica,sans-Serif" font-size="14.00">parda_print_tree</text>
</a>
</g>
</g>
<!-- Node1&#45;&gt;Node2 -->
<g id="edge1" class="edge">
<title>Node1&#45;&gt;Node2</title>
<path fill="none" stroke="midnightblue" d="M400.92,-48.43C392.31,-49.5 383.4,-50.43 375,-51 340.86,-53.31 332.18,-52.7 298,-51 286.41,-50.42 274.1,-49.47 262.21,-48.38"/>
<polygon fill="midnightblue" stroke="midnightblue" points="401.37,-51.9 410.83,-47.12 400.46,-44.96 401.37,-51.9"/>
</g>
<!-- Node4 -->
<g id="node4" class="node">
<title>Node4</title>
<g id="a_node4"><a xlink:href="../../d2/db0/splay_8h.html#a6aad0c93712dcf637c21efdccd0f79b4" target="_top" xlink:title=" ">
<polygon fill="white" stroke="black" points="298,-0.5 298,-23.5 375,-23.5 375,-0.5 298,-0.5"/>
<text text-anchor="middle" x="336.5" y="-8.3" font-family="Helvetica,sans-Serif" font-size="14.00">printtree</text>
</a>
</g>
</g>
<!-- Node1&#45;&gt;Node4 -->
<g id="edge3" class="edge">
<title>Node1&#45;&gt;Node4</title>
<path fill="none" stroke="midnightblue" d="M401.21,-28.65C392.47,-26.36 383.45,-24 375.04,-21.81"/>
<polygon fill="midnightblue" stroke="midnightblue" points="400.36,-32.04 410.92,-31.18 402.13,-25.27 400.36,-32.04"/>
</g>
<!-- Node3 -->
<g id="node3" class="node">
<title>Node3</title>
<g id="a_node3"><a xlink:href="../../dd/dad/parda__print_8c.html#a3167143aad2db58a43433302ab5b0432" target="_top" xlink:title=" ">
<polygon fill="white" stroke="black" points="0,-29.5 0,-52.5 96,-52.5 96,-29.5 0,-29.5"/>
<text text-anchor="middle" x="48" y="-37.3" font-family="Helvetica,sans-Serif" font-size="14.00">parda_print</text>
</a>
</g>
</g>
<!-- Node2&#45;&gt;Node3 -->
<g id="edge2" class="edge">
<title>Node2&#45;&gt;Node3</title>
<path fill="none" stroke="midnightblue" d="M121.72,-41C112.98,-41 104.25,-41 96.04,-41"/>
<polygon fill="midnightblue" stroke="midnightblue" points="121.95,-44.5 131.95,-41 121.95,-37.5 121.95,-44.5"/>
</g>
<!-- Node4&#45;&gt;Node2 -->
<g id="edge4" class="edge">
<title>Node4&#45;&gt;Node2</title>
<path fill="none" stroke="midnightblue" d="M288.12,-21.99C276.65,-24.41 264.31,-27.02 252.54,-29.5"/>
<polygon fill="midnightblue" stroke="midnightblue" points="288.87,-25.41 297.93,-19.92 287.42,-18.56 288.87,-25.41"/>
</g>
<!-- Node4&#45;&gt;Node4 -->
<g id="edge5" class="edge">
<title>Node4&#45;&gt;Node4</title>
<path fill="none" stroke="midnightblue" d="M357.03,-33.47C355.24,-38.39 348.39,-42 336.5,-42 317.47,-42 311.37,-32.76 318.21,-23.7"/>
<polygon fill="midnightblue" stroke="midnightblue" points="360.43,-32.67 354.79,-23.7 353.61,-34.23 360.43,-32.67"/>
</g>
</g>
</svg>
