<?xml version="1.0" encoding="UTF-8" standalone="no"?>
<!DOCTYPE svg PUBLIC "-//W3C//DTD SVG 1.1//EN"
 "http://www.w3.org/Graphics/SVG/1.1/DTD/svg11.dtd">
<!-- Generated by graphviz version 2.43.0 (0)
 -->
<!-- Title: delete Pages: 1 -->
<svg width="156pt" height="74pt"
 viewBox="0.00 0.00 156.00 74.00" xmlns="http://www.w3.org/2000/svg" xmlns:xlink="http://www.w3.org/1999/xlink">
<g id="graph0" class="graph" transform="scale(1 1) rotate(0) translate(4 70)">
<title>delete</title>
<polygon fill="white" stroke="transparent" points="-4,4 -4,-70 152,-70 152,4 -4,4"/>
<!-- Node1 -->
<g id="node1" class="node">
<title>Node1</title>
<g id="a_node1"><a xlink:title=" ">
<polygon fill="#bfbfbf" stroke="black" points="0,-21.5 0,-44.5 59,-44.5 59,-21.5 0,-21.5"/>
<text text-anchor="middle" x="29.5" y="-29.3" font-family="Helvetica,sans-Serif" font-size="14.00">delete</text>
</a>
</g>
</g>
<!-- Node2 -->
<g id="node2" class="node">
<title>Node2</title>
<g id="a_node2"><a xlink:href="../../da/de5/hostRuntime_8cpp.html#ae206dc2056b70c9901731e30447df1aa" target="_top" xlink:title=" ">
<polygon fill="white" stroke="black" points="99.5,-42.5 99.5,-65.5 143.5,-65.5 143.5,-42.5 99.5,-42.5"/>
<text text-anchor="middle" x="121.5" y="-50.3" font-family="Helvetica,sans-Serif" font-size="14.00">free</text>
</a>
</g>
</g>
<!-- Node1&#45;&gt;Node2 -->
<g id="edge1" class="edge">
<title>Node1&#45;&gt;Node2</title>
<path fill="none" stroke="midnightblue" d="M59.47,-39.76C68.98,-41.98 79.59,-44.45 89.26,-46.71"/>
<polygon fill="midnightblue" stroke="midnightblue" points="88.76,-50.19 99.29,-49.05 90.35,-43.37 88.76,-50.19"/>
</g>
<!-- Node3 -->
<g id="node3" class="node">
<title>Node3</title>
<g id="a_node3"><a xlink:href="../../d1/df7/splay_8c.html#a504c21ef77c65b86162e01d158acd1d6" target="_top" xlink:title=" ">
<polygon fill="white" stroke="black" points="95,-0.5 95,-23.5 148,-23.5 148,-0.5 95,-0.5"/>
<text text-anchor="middle" x="121.5" y="-8.3" font-family="Helvetica,sans-Serif" font-size="14.00">splay</text>
</a>
</g>
</g>
<!-- Node1&#45;&gt;Node3 -->
<g id="edge2" class="edge">
<title>Node1&#45;&gt;Node3</title>
<path fill="none" stroke="midnightblue" d="M59.47,-26.24C67.58,-24.35 76.49,-22.27 84.94,-20.3"/>
<polygon fill="midnightblue" stroke="midnightblue" points="85.98,-23.65 94.92,-17.97 84.39,-16.83 85.98,-23.65"/>
</g>
</g>
</svg>
