<?xml version="1.0" encoding="UTF-8" standalone="no"?>
<!DOCTYPE svg PUBLIC "-//W3C//DTD SVG 1.1//EN"
 "http://www.w3.org/Graphics/SVG/1.1/DTD/svg11.dtd">
<!-- Generated by graphviz version 2.43.0 (0)
 -->
<!-- Title: freetree Pages: 1 -->
<svg width="598pt" height="95pt"
 viewBox="0.00 0.00 598.00 95.00" xmlns="http://www.w3.org/2000/svg" xmlns:xlink="http://www.w3.org/1999/xlink">
<g id="graph0" class="graph" transform="scale(1 1) rotate(0) translate(4 91)">
<title>freetree</title>
<polygon fill="white" stroke="transparent" points="-4,4 -4,-91 594,-91 594,4 -4,4"/>
<!-- Node1 -->
<g id="node1" class="node">
<title>Node1</title>
<g id="a_node1"><a xlink:title=" ">
<polygon fill="#bfbfbf" stroke="black" points="519,-25.5 519,-48.5 590,-48.5 590,-25.5 519,-25.5"/>
<text text-anchor="middle" x="554.5" y="-33.3" font-family="Helvetica,sans-Serif" font-size="14.00">freetree</text>
</a>
</g>
</g>
<!-- Node2 -->
<g id="node2" class="node">
<title>Node2</title>
<g id="a_node2"><a xlink:href="../../d2/db0/splay_8h.html#aa92af4ddcdf3134ef4943b684eb5c421" target="_top" xlink:title=" ">
<polygon fill="white" stroke="black" points="412,-45.5 412,-68.5 483,-68.5 483,-45.5 412,-45.5"/>
<text text-anchor="middle" x="447.5" y="-53.3" font-family="Helvetica,sans-Serif" font-size="14.00">freetree</text>
</a>
</g>
</g>
<!-- Node1&#45;&gt;Node2 -->
<g id="edge1" class="edge">
<title>Node1&#45;&gt;Node2</title>
<path fill="none" stroke="midnightblue" d="M508.9,-45.49C500.29,-47.14 491.38,-48.83 483.14,-50.4"/>
<polygon fill="midnightblue" stroke="midnightblue" points="509.66,-48.91 518.83,-43.6 508.35,-42.04 509.66,-48.91"/>
</g>
<!-- Node3 -->
<g id="node3" class="node">
<title>Node3</title>
<g id="a_node3"><a xlink:href="../../d0/dbf/parda_8h.html#aaecfcceb1c1b235b54a68a2d917874d8" target="_top" xlink:title=" ">
<polygon fill="white" stroke="black" points="286,-25.5 286,-48.5 376,-48.5 376,-25.5 286,-25.5"/>
<text text-anchor="middle" x="331" y="-33.3" font-family="Helvetica,sans-Serif" font-size="14.00">parda_free</text>
</a>
</g>
</g>
<!-- Node1&#45;&gt;Node3 -->
<g id="edge8" class="edge">
<title>Node1&#45;&gt;Node3</title>
<path fill="none" stroke="midnightblue" d="M508.57,-36.27C500.08,-36.16 491.27,-36.06 483,-36 451.45,-35.78 443.55,-35.8 412,-36 400.33,-36.07 387.71,-36.21 376.01,-36.35"/>
<polygon fill="midnightblue" stroke="midnightblue" points="508.67,-39.77 518.72,-36.41 508.77,-32.77 508.67,-39.77"/>
</g>
<!-- Node2&#45;&gt;Node2 -->
<g id="edge2" class="edge">
<title>Node2&#45;&gt;Node2</title>
<path fill="none" stroke="midnightblue" d="M466.79,-78.84C464.91,-83.57 458.48,-87 447.5,-87 429.49,-87 423.72,-77.76 430.19,-68.7"/>
<polygon fill="midnightblue" stroke="midnightblue" points="470.16,-77.84 464.81,-68.7 463.29,-79.19 470.16,-77.84"/>
</g>
<!-- Node2&#45;&gt;Node3 -->
<g id="edge3" class="edge">
<title>Node2&#45;&gt;Node3</title>
<path fill="none" stroke="midnightblue" d="M401.84,-49.2C393.45,-47.73 384.68,-46.2 376.3,-44.74"/>
<polygon fill="midnightblue" stroke="midnightblue" points="401.38,-52.67 411.84,-50.95 402.59,-45.78 401.38,-52.67"/>
</g>
<!-- Node4 -->
<g id="node4" class="node">
<title>Node4</title>
<g id="a_node4"><a xlink:href="../../d0/dbf/parda_8h.html#ab5b52d038b8aaf5acd36508c229bd923" target="_top" xlink:title=" ">
<polygon fill="white" stroke="black" points="90,-43 90,-81 247,-81 247,-43 90,-43"/>
<text text-anchor="start" x="98" y="-65.8" font-family="Helvetica,sans-Serif" font-size="14.00">classical_tree_based</text>
<text text-anchor="middle" x="168.5" y="-50.8" font-family="Helvetica,sans-Serif" font-size="14.00">_stackdist</text>
</a>
</g>
</g>
<!-- Node3&#45;&gt;Node4 -->
<g id="edge4" class="edge">
<title>Node3&#45;&gt;Node4</title>
<path fill="none" stroke="midnightblue" d="M275.63,-45.47C266.47,-46.9 256.82,-48.4 247.21,-49.9"/>
<polygon fill="midnightblue" stroke="midnightblue" points="276.38,-48.89 285.72,-43.9 275.3,-41.98 276.38,-48.89"/>
</g>
<!-- Node6 -->
<g id="node6" class="node">
<title>Node6</title>
<g id="a_node6"><a xlink:href="../../d5/d13/parda__omp_8h.html#af99a329269ee6e1bd3f49b4442ab1097" target="_top" xlink:title=" ">
<polygon fill="white" stroke="black" points="87,-0.5 87,-23.5 250,-23.5 250,-0.5 87,-0.5"/>
<text text-anchor="middle" x="168.5" y="-8.3" font-family="Helvetica,sans-Serif" font-size="14.00">parda_omp_stackdist</text>
</a>
</g>
</g>
<!-- Node3&#45;&gt;Node6 -->
<g id="edge6" class="edge">
<title>Node3&#45;&gt;Node6</title>
<path fill="none" stroke="midnightblue" d="M275.63,-28.53C265.31,-26.92 254.34,-25.21 243.52,-23.53"/>
<polygon fill="midnightblue" stroke="midnightblue" points="275.3,-32.02 285.72,-30.1 276.38,-25.11 275.3,-32.02"/>
</g>
<!-- Node5 -->
<g id="node5" class="node">
<title>Node5</title>
<g id="a_node5"><a xlink:href="../../d0/d29/main_8c.html#a3c04138a5bfe5d72780bb7e82a18e627" target="_top" xlink:title=" ">
<polygon fill="white" stroke="black" points="0,-25.5 0,-48.5 51,-48.5 51,-25.5 0,-25.5"/>
<text text-anchor="middle" x="25.5" y="-33.3" font-family="Helvetica,sans-Serif" font-size="14.00">main</text>
</a>
</g>
</g>
<!-- Node4&#45;&gt;Node5 -->
<g id="edge5" class="edge">
<title>Node4&#45;&gt;Node5</title>
<path fill="none" stroke="midnightblue" d="M79.86,-46.46C69.43,-44.61 59.53,-42.86 51.16,-41.37"/>
<polygon fill="midnightblue" stroke="midnightblue" points="79.53,-49.96 89.99,-48.26 80.75,-43.06 79.53,-49.96"/>
</g>
<!-- Node6&#45;&gt;Node5 -->
<g id="edge7" class="edge">
<title>Node6&#45;&gt;Node5</title>
<path fill="none" stroke="midnightblue" d="M92.12,-25.37C77.34,-27.99 62.84,-30.56 51.25,-32.61"/>
<polygon fill="midnightblue" stroke="midnightblue" points="93.13,-28.74 102.37,-23.55 91.91,-21.85 93.13,-28.74"/>
</g>
</g>
</svg>
