<?xml version="1.0" encoding="UTF-8" standalone="no"?>
<!DOCTYPE svg PUBLIC "-//W3C//DTD SVG 1.1//EN"
 "http://www.w3.org/Graphics/SVG/1.1/DTD/svg11.dtd">
<!-- Generated by graphviz version 2.43.0 (0)
 -->
<!-- Title: insert Pages: 1 -->
<svg width="1054pt" height="216pt"
 viewBox="0.00 0.00 1054.00 215.50" xmlns="http://www.w3.org/2000/svg" xmlns:xlink="http://www.w3.org/1999/xlink">
<g id="graph0" class="graph" transform="scale(1 1) rotate(0) translate(4 211.5)">
<title>insert</title>
<polygon fill="white" stroke="transparent" points="-4,4 -4,-211.5 1050,-211.5 1050,4 -4,4"/>
<!-- Node1 -->
<g id="node1" class="node">
<title>Node1</title>
<g id="a_node1"><a xlink:title=" ">
<polygon fill="#bfbfbf" stroke="black" points="990,-84.5 990,-107.5 1046,-107.5 1046,-84.5 990,-84.5"/>
<text text-anchor="middle" x="1018" y="-92.3" font-family="Helvetica,sans-Serif" font-size="14.00">insert</text>
</a>
</g>
</g>
<!-- Node2 -->
<g id="node2" class="node">
<title>Node2</title>
<g id="a_node2"><a xlink:href="../../d0/dbf/parda_8h.html#a757e86b5a2b7eac055f98a355da1c184" target="_top" xlink:title=" ">
<polygon fill="white" stroke="black" points="808.5,-42.5 808.5,-65.5 944.5,-65.5 944.5,-42.5 808.5,-42.5"/>
<text text-anchor="middle" x="876.5" y="-50.3" font-family="Helvetica,sans-Serif" font-size="14.00">parda_get_abend</text>
</a>
</g>
</g>
<!-- Node1&#45;&gt;Node2 -->
<g id="edge1" class="edge">
<title>Node1&#45;&gt;Node2</title>
<path fill="none" stroke="midnightblue" d="M980.1,-83.33C971.56,-80.5 962.48,-77.58 954,-75 943.46,-71.8 932.03,-68.55 921.31,-65.59"/>
<polygon fill="midnightblue" stroke="midnightblue" points="979.22,-86.73 989.81,-86.58 981.44,-80.09 979.22,-86.73"/>
</g>
<!-- Node8 -->
<g id="node8" class="node">
<title>Node8</title>
<g id="a_node8"><a xlink:href="../../d0/dbf/parda_8h.html#a8e4c1106b242bf781e1ec7d62fc21a41" target="_top" xlink:title=" ">
<polygon fill="white" stroke="black" points="805,-84.5 805,-107.5 948,-107.5 948,-84.5 805,-84.5"/>
<text text-anchor="middle" x="876.5" y="-92.3" font-family="Helvetica,sans-Serif" font-size="14.00">parda_get_abfront</text>
</a>
</g>
</g>
<!-- Node1&#45;&gt;Node8 -->
<g id="edge7" class="edge">
<title>Node1&#45;&gt;Node8</title>
<path fill="none" stroke="midnightblue" d="M979.64,-96C969.86,-96 958.99,-96 948.09,-96"/>
<polygon fill="midnightblue" stroke="midnightblue" points="979.77,-99.5 989.77,-96 979.77,-92.5 979.77,-99.5"/>
</g>
<!-- Node9 -->
<g id="node9" class="node">
<title>Node9</title>
<g id="a_node9"><a xlink:href="../../d0/dbf/parda_8h.html#a7d0ee3d41b9ae3b5ea299e358099b7c7" target="_top" xlink:title=" ">
<polygon fill="white" stroke="black" points="818.5,-0.5 818.5,-23.5 934.5,-23.5 934.5,-0.5 818.5,-0.5"/>
<text text-anchor="middle" x="876.5" y="-8.3" font-family="Helvetica,sans-Serif" font-size="14.00">parda_process</text>
</a>
</g>
</g>
<!-- Node1&#45;&gt;Node9 -->
<g id="edge9" class="edge">
<title>Node1&#45;&gt;Node9</title>
<path fill="none" stroke="midnightblue" d="M1002.05,-76.34C990.4,-62.33 973.05,-44.07 954,-33 947.57,-29.26 940.45,-26.17 933.22,-23.61"/>
<polygon fill="midnightblue" stroke="midnightblue" points="999.54,-78.81 1008.53,-84.42 1005,-74.43 999.54,-78.81"/>
</g>
<!-- Node10 -->
<g id="node10" class="node">
<title>Node10</title>
<g id="a_node10"><a xlink:href="../../d0/dbf/parda_8h.html#aba642b919a1605f65607ac245ce94fa9" target="_top" xlink:title=" ">
<polygon fill="white" stroke="black" points="799,-126.5 799,-149.5 954,-149.5 954,-126.5 799,-126.5"/>
<text text-anchor="middle" x="876.5" y="-134.3" font-family="Helvetica,sans-Serif" font-size="14.00">process_one_access</text>
</a>
</g>
</g>
<!-- Node1&#45;&gt;Node10 -->
<g id="edge10" class="edge">
<title>Node1&#45;&gt;Node10</title>
<path fill="none" stroke="midnightblue" d="M980.1,-108.67C971.56,-111.5 962.48,-114.42 954,-117 943.46,-120.2 932.03,-123.45 921.31,-126.41"/>
<polygon fill="midnightblue" stroke="midnightblue" points="981.44,-111.91 989.81,-105.42 979.22,-105.27 981.44,-111.91"/>
</g>
<!-- Node14 -->
<g id="node14" class="node">
<title>Node14</title>
<g id="a_node14"><a xlink:href="../../d0/dbf/parda_8h.html#ab88eb69b6dc07345fb2318fe9c2093d1" target="_top" xlink:title=" ">
<polygon fill="white" stroke="black" points="799,-169 799,-207 954,-207 954,-169 799,-169"/>
<text text-anchor="start" x="807" y="-191.8" font-family="Helvetica,sans-Serif" font-size="14.00">process_one_access</text>
<text text-anchor="middle" x="876.5" y="-176.8" font-family="Helvetica,sans-Serif" font-size="14.00">_shared</text>
</a>
</g>
</g>
<!-- Node1&#45;&gt;Node14 -->
<g id="edge17" class="edge">
<title>Node1&#45;&gt;Node14</title>
<path fill="none" stroke="midnightblue" d="M1001.32,-115.61C989.51,-129.31 972.29,-147.18 954,-159 948.39,-162.62 942.27,-165.9 936,-168.82"/>
<polygon fill="midnightblue" stroke="midnightblue" points="1004.19,-117.63 1007.92,-107.72 998.82,-113.14 1004.19,-117.63"/>
</g>
<!-- Node3 -->
<g id="node3" class="node">
<title>Node3</title>
<g id="a_node3"><a xlink:href="../../d0/dbf/parda_8h.html#ac66e3c12653af16fe2738d9e0089acfc" target="_top" xlink:title=" ">
<polygon fill="white" stroke="black" points="590,-73.5 590,-96.5 697,-96.5 697,-73.5 590,-73.5"/>
<text text-anchor="middle" x="643.5" y="-81.3" font-family="Helvetica,sans-Serif" font-size="14.00">parda_merge</text>
</a>
</g>
</g>
<!-- Node2&#45;&gt;Node3 -->
<g id="edge2" class="edge">
<title>Node2&#45;&gt;Node3</title>
<path fill="none" stroke="midnightblue" d="M798.23,-64.37C764.99,-68.83 727,-73.93 697.1,-77.94"/>
<polygon fill="midnightblue" stroke="midnightblue" points="798.93,-67.81 808.37,-63.01 798,-60.87 798.93,-67.81"/>
</g>
<!-- Node4 -->
<g id="node4" class="node">
<title>Node4</title>
<g id="a_node4"><a xlink:href="../../d5/d13/parda__omp_8h.html#ae6fbeb3538f797cfc948e920386b4741" target="_top" xlink:title=" ">
<polygon fill="white" stroke="black" points="100,-73.5 100,-96.5 237,-96.5 237,-73.5 100,-73.5"/>
<text text-anchor="middle" x="168.5" y="-81.3" font-family="Helvetica,sans-Serif" font-size="14.00">parda_omp_input</text>
</a>
</g>
</g>
<!-- Node3&#45;&gt;Node4 -->
<g id="edge3" class="edge">
<title>Node3&#45;&gt;Node4</title>
<path fill="none" stroke="midnightblue" d="M579.4,-85C490.4,-85 328.68,-85 237.24,-85"/>
<polygon fill="midnightblue" stroke="midnightblue" points="579.62,-88.5 589.62,-85 579.62,-81.5 579.62,-88.5"/>
</g>
<!-- Node5 -->
<g id="node5" class="node">
<title>Node5</title>
<g id="a_node5"><a xlink:href="../../d0/d82/parda__omp_8c.html#a9608f67126e55a4e283694263aef00a4" target="_top" xlink:title=" ">
<polygon fill="white" stroke="black" points="300.5,-111 300.5,-149 473.5,-149 473.5,-111 300.5,-111"/>
<text text-anchor="start" x="308.5" y="-133.8" font-family="Helvetica,sans-Serif" font-size="14.00">parda_omp_input_with</text>
<text text-anchor="middle" x="387" y="-118.8" font-family="Helvetica,sans-Serif" font-size="14.00">_filename</text>
</a>
</g>
</g>
<!-- Node3&#45;&gt;Node5 -->
<g id="edge4" class="edge">
<title>Node3&#45;&gt;Node5</title>
<path fill="none" stroke="midnightblue" d="M579.67,-96.11C547.72,-101.76 508.41,-108.71 473.72,-114.84"/>
<polygon fill="midnightblue" stroke="midnightblue" points="580.53,-99.51 589.77,-94.32 579.31,-92.62 580.53,-99.51"/>
</g>
<!-- Node6 -->
<g id="node6" class="node">
<title>Node6</title>
<g id="a_node6"><a xlink:href="../../d5/d13/parda__omp_8h.html#af99a329269ee6e1bd3f49b4442ab1097" target="_top" xlink:title=" ">
<polygon fill="white" stroke="black" points="87,-118.5 87,-141.5 250,-141.5 250,-118.5 87,-118.5"/>
<text text-anchor="middle" x="168.5" y="-126.3" font-family="Helvetica,sans-Serif" font-size="14.00">parda_omp_stackdist</text>
</a>
</g>
</g>
<!-- Node5&#45;&gt;Node6 -->
<g id="edge5" class="edge">
<title>Node5&#45;&gt;Node6</title>
<path fill="none" stroke="midnightblue" d="M290.27,-130C276.9,-130 263.27,-130 250.21,-130"/>
<polygon fill="midnightblue" stroke="midnightblue" points="290.43,-133.5 300.43,-130 290.43,-126.5 290.43,-133.5"/>
</g>
<!-- Node7 -->
<g id="node7" class="node">
<title>Node7</title>
<g id="a_node7"><a xlink:href="../../d0/d29/main_8c.html#a3c04138a5bfe5d72780bb7e82a18e627" target="_top" xlink:title=" ">
<polygon fill="white" stroke="black" points="0,-143.5 0,-166.5 51,-166.5 51,-143.5 0,-143.5"/>
<text text-anchor="middle" x="25.5" y="-151.3" font-family="Helvetica,sans-Serif" font-size="14.00">main</text>
</a>
</g>
</g>
<!-- Node6&#45;&gt;Node7 -->
<g id="edge6" class="edge">
<title>Node6&#45;&gt;Node7</title>
<path fill="none" stroke="midnightblue" d="M92.12,-143.37C77.34,-145.99 62.84,-148.56 51.25,-150.61"/>
<polygon fill="midnightblue" stroke="midnightblue" points="93.13,-146.74 102.37,-141.55 91.91,-139.85 93.13,-146.74"/>
</g>
<!-- Node8&#45;&gt;Node3 -->
<g id="edge8" class="edge">
<title>Node8&#45;&gt;Node3</title>
<path fill="none" stroke="midnightblue" d="M794.58,-92.15C762.22,-90.61 725.86,-88.87 697.03,-87.5"/>
<polygon fill="midnightblue" stroke="midnightblue" points="794.78,-95.66 804.94,-92.64 795.12,-88.67 794.78,-95.66"/>
</g>
<!-- Node11 -->
<g id="node11" class="node">
<title>Node11</title>
<g id="a_node11"><a xlink:href="../../d0/dbf/parda_8h.html#a2e011afd5d113d7b404cff2b9467af8d" target="_top" xlink:title=" ">
<polygon fill="white" stroke="black" points="524,-137.5 524,-160.5 763,-160.5 763,-137.5 524,-137.5"/>
<text text-anchor="middle" x="643.5" y="-145.3" font-family="Helvetica,sans-Serif" font-size="14.00">parda_input_with_textfilepointer</text>
</a>
</g>
</g>
<!-- Node10&#45;&gt;Node11 -->
<g id="edge11" class="edge">
<title>Node10&#45;&gt;Node11</title>
<path fill="none" stroke="midnightblue" d="M788.74,-142.13C780.32,-142.53 771.67,-142.94 763.01,-143.36"/>
<polygon fill="midnightblue" stroke="midnightblue" points="789.08,-145.62 798.9,-141.65 788.75,-138.63 789.08,-145.62"/>
</g>
<!-- Node11&#45;&gt;Node5 -->
<g id="edge16" class="edge">
<title>Node11&#45;&gt;Node5</title>
<path fill="none" stroke="midnightblue" d="M513.54,-139.37C500.09,-138.37 486.66,-137.37 473.86,-136.41"/>
<polygon fill="midnightblue" stroke="midnightblue" points="513.59,-142.89 523.82,-140.14 514.11,-135.9 513.59,-142.89"/>
</g>
<!-- Node12 -->
<g id="node12" class="node">
<title>Node12</title>
<g id="a_node12"><a xlink:href="../../d0/dbf/parda_8h.html#a1505668d8e66fe882bf0368896c3a8ec" target="_top" xlink:title=" ">
<polygon fill="white" stroke="black" points="286,-168.5 286,-191.5 488,-191.5 488,-168.5 286,-168.5"/>
<text text-anchor="middle" x="387" y="-176.3" font-family="Helvetica,sans-Serif" font-size="14.00">parda_input_with_filename</text>
</a>
</g>
</g>
<!-- Node11&#45;&gt;Node12 -->
<g id="edge12" class="edge">
<title>Node11&#45;&gt;Node12</title>
<path fill="none" stroke="midnightblue" d="M537.64,-161.77C519.35,-164 500.42,-166.31 482.42,-168.5"/>
<polygon fill="midnightblue" stroke="midnightblue" points="538.23,-165.23 547.73,-160.54 537.38,-158.28 538.23,-165.23"/>
</g>
<!-- Node12&#45;&gt;Node4 -->
<g id="edge15" class="edge">
<title>Node12&#45;&gt;Node4</title>
<path fill="none" stroke="midnightblue" d="M295.37,-164.32C292.13,-162.72 288.99,-160.95 286,-159 263.05,-144.06 272.31,-124.87 250,-109 242.75,-103.84 234.39,-99.78 225.85,-96.59"/>
<polygon fill="midnightblue" stroke="midnightblue" points="294.19,-167.63 304.76,-168.45 297.01,-161.22 294.19,-167.63"/>
</g>
<!-- Node13 -->
<g id="node13" class="node">
<title>Node13</title>
<g id="a_node13"><a xlink:href="../../d0/dbf/parda_8h.html#ab5b52d038b8aaf5acd36508c229bd923" target="_top" xlink:title=" ">
<polygon fill="white" stroke="black" points="90,-161 90,-199 247,-199 247,-161 90,-161"/>
<text text-anchor="start" x="98" y="-183.8" font-family="Helvetica,sans-Serif" font-size="14.00">classical_tree_based</text>
<text text-anchor="middle" x="168.5" y="-168.8" font-family="Helvetica,sans-Serif" font-size="14.00">_stackdist</text>
</a>
</g>
</g>
<!-- Node12&#45;&gt;Node13 -->
<g id="edge13" class="edge">
<title>Node12&#45;&gt;Node13</title>
<path fill="none" stroke="midnightblue" d="M275.86,-180C266.13,-180 256.42,-180 247.05,-180"/>
<polygon fill="midnightblue" stroke="midnightblue" points="275.99,-183.5 285.99,-180 275.99,-176.5 275.99,-183.5"/>
</g>
<!-- Node13&#45;&gt;Node7 -->
<g id="edge14" class="edge">
<title>Node13&#45;&gt;Node7</title>
<path fill="none" stroke="midnightblue" d="M79.86,-164.46C69.43,-162.61 59.53,-160.86 51.16,-159.37"/>
<polygon fill="midnightblue" stroke="midnightblue" points="79.53,-167.96 89.99,-166.26 80.75,-161.06 79.53,-167.96"/>
</g>
<!-- Node14&#45;&gt;Node11 -->
<g id="edge18" class="edge">
<title>Node14&#45;&gt;Node11</title>
<path fill="none" stroke="midnightblue" d="M788.98,-173.39C763.79,-169.14 736.63,-164.55 712.73,-160.52"/>
<polygon fill="midnightblue" stroke="midnightblue" points="788.46,-176.85 798.9,-175.07 789.62,-169.95 788.46,-176.85"/>
</g>
</g>
</svg>
