<?xml version="1.0" encoding="UTF-8" standalone="no"?>
<!DOCTYPE svg PUBLIC "-//W3C//DTD SVG 1.1//EN"
 "http://www.w3.org/Graphics/SVG/1.1/DTD/svg11.dtd">
<!-- Generated by graphviz version 2.43.0 (0)
 -->
<!-- Title: freetree Pages: 1 -->
<svg width="159pt" height="50pt"
 viewBox="0.00 0.00 159.00 50.00" xmlns="http://www.w3.org/2000/svg" xmlns:xlink="http://www.w3.org/1999/xlink">
<g id="graph0" class="graph" transform="scale(1 1) rotate(0) translate(4 46)">
<title>freetree</title>
<polygon fill="white" stroke="transparent" points="-4,4 -4,-46 155,-46 155,4 -4,4"/>
<!-- Node1 -->
<g id="node1" class="node">
<title>Node1</title>
<g id="a_node1"><a xlink:title=" ">
<polygon fill="#bfbfbf" stroke="black" points="0,-0.5 0,-23.5 71,-23.5 71,-0.5 0,-0.5"/>
<text text-anchor="middle" x="35.5" y="-8.3" font-family="Helvetica,sans-Serif" font-size="14.00">freetree</text>
</a>
</g>
</g>
<!-- Node1&#45;&gt;Node1 -->
<g id="edge2" class="edge">
<title>Node1&#45;&gt;Node1</title>
<path fill="none" stroke="midnightblue" d="M20.48,-23.7C14.86,-32.76 19.87,-42 35.5,-42 45.03,-42 50.61,-38.57 52.24,-33.84"/>
<polygon fill="midnightblue" stroke="midnightblue" points="55.65,-32.98 50.52,-23.7 48.74,-34.15 55.65,-32.98"/>
</g>
<!-- Node2 -->
<g id="node2" class="node">
<title>Node2</title>
<g id="a_node2"><a xlink:href="../../da/de5/hostRuntime_8cpp.html#ae206dc2056b70c9901731e30447df1aa" target="_top" xlink:title=" ">
<polygon fill="white" stroke="black" points="107,-0.5 107,-23.5 151,-23.5 151,-0.5 107,-0.5"/>
<text text-anchor="middle" x="129" y="-8.3" font-family="Helvetica,sans-Serif" font-size="14.00">free</text>
</a>
</g>
</g>
<!-- Node1&#45;&gt;Node2 -->
<g id="edge1" class="edge">
<title>Node1&#45;&gt;Node2</title>
<path fill="none" stroke="midnightblue" d="M71.09,-12C79.56,-12 88.57,-12 96.87,-12"/>
<polygon fill="midnightblue" stroke="midnightblue" points="96.9,-15.5 106.9,-12 96.9,-8.5 96.9,-15.5"/>
</g>
</g>
</svg>
