<?xml version="1.0" encoding="UTF-8" standalone="no"?>
<!DOCTYPE svg PUBLIC "-//W3C//DTD SVG 1.1//EN"
 "http://www.w3.org/Graphics/SVG/1.1/DTD/svg11.dtd">
<!-- Generated by graphviz version 2.43.0 (0)
 -->
<!-- Title: simian.MPI.recvAnySize Pages: 1 -->
<svg width="385pt" height="74pt"
 viewBox="0.00 0.00 385.00 74.00" xmlns="http://www.w3.org/2000/svg" xmlns:xlink="http://www.w3.org/1999/xlink">
<g id="graph0" class="graph" transform="scale(1 1) rotate(0) translate(4 70)">
<title>simian.MPI.recvAnySize</title>
<polygon fill="white" stroke="transparent" points="-4,4 -4,-70 381,-70 381,4 -4,4"/>
<!-- Node1 -->
<g id="node1" class="node">
<title>Node1</title>
<g id="a_node1"><a xlink:title=" ">
<polygon fill="#bfbfbf" stroke="black" points="0,-21.5 0,-44.5 181,-44.5 181,-21.5 0,-21.5"/>
<text text-anchor="middle" x="90.5" y="-29.3" font-family="Helvetica,sans-Serif" font-size="14.00">simian.MPI.recvAnySize</text>
</a>
</g>
</g>
<!-- Node2 -->
<g id="node2" class="node">
<title>Node2</title>
<g id="a_node2"><a xlink:href="../../d4/d28/classsimian_1_1MPI.html#afa50ea0228a77499e2b174cffbfca180" target="_top" xlink:title=" ">
<polygon fill="white" stroke="black" points="217,-42.5 217,-65.5 377,-65.5 377,-42.5 217,-42.5"/>
<text text-anchor="middle" x="297" y="-50.3" font-family="Helvetica,sans-Serif" font-size="14.00">simian.MPI.getCount</text>
</a>
</g>
</g>
<!-- Node1&#45;&gt;Node2 -->
<g id="edge1" class="edge">
<title>Node1&#45;&gt;Node2</title>
<path fill="none" stroke="midnightblue" d="M181.2,-42.21C189.76,-43.09 198.44,-43.98 207,-44.86"/>
<polygon fill="midnightblue" stroke="midnightblue" points="206.66,-48.34 216.97,-45.88 207.38,-41.38 206.66,-48.34"/>
</g>
<!-- Node3 -->
<g id="node3" class="node">
<title>Node3</title>
<g id="a_node3"><a xlink:href="../../d4/d28/classsimian_1_1MPI.html#a5c924491759a33133323fee92f02d6bb" target="_top" xlink:title=" ">
<polygon fill="white" stroke="black" points="234.5,-0.5 234.5,-23.5 359.5,-23.5 359.5,-0.5 234.5,-0.5"/>
<text text-anchor="middle" x="297" y="-8.3" font-family="Helvetica,sans-Serif" font-size="14.00">simian.MPI.recv</text>
</a>
</g>
</g>
<!-- Node1&#45;&gt;Node3 -->
<g id="edge2" class="edge">
<title>Node1&#45;&gt;Node3</title>
<path fill="none" stroke="midnightblue" d="M181.2,-23.79C195.62,-22.31 210.38,-20.79 224.31,-19.36"/>
<polygon fill="midnightblue" stroke="midnightblue" points="224.69,-22.84 234.28,-18.34 223.98,-15.88 224.69,-22.84"/>
</g>
</g>
</svg>
