<?xml version="1.0" encoding="UTF-8" standalone="no"?>
<!DOCTYPE svg PUBLIC "-//W3C//DTD SVG 1.1//EN"
 "http://www.w3.org/Graphics/SVG/1.1/DTD/svg11.dtd">
<!-- Generated by graphviz version 2.43.0 (0)
 -->
<!-- Title: mekong::dumpModuleToFile Pages: 1 -->
<svg width="725pt" height="74pt"
 viewBox="0.00 0.00 725.00 74.00" xmlns="http://www.w3.org/2000/svg" xmlns:xlink="http://www.w3.org/1999/xlink">
<g id="graph0" class="graph" transform="scale(1 1) rotate(0) translate(4 70)">
<title>mekong::dumpModuleToFile</title>
<polygon fill="white" stroke="transparent" points="-4,4 -4,-70 721,-70 721,4 -4,4"/>
<!-- Node1 -->
<g id="node1" class="node">
<title>Node1</title>
<g id="a_node1"><a xlink:title=" ">
<polygon fill="#bfbfbf" stroke="black" points="508,-21.5 508,-44.5 717,-44.5 717,-21.5 508,-21.5"/>
<text text-anchor="middle" x="612.5" y="-29.3" font-family="Helvetica,sans-Serif" font-size="14.00">mekong::dumpModuleToFile</text>
</a>
</g>
</g>
<!-- Node2 -->
<g id="node2" class="node">
<title>Node2</title>
<g id="a_node2"><a xlink:href="../../d3/dcd/namespacemekong.html#a8f1d14ab4ed79c0839543db0be001b93" target="_top" xlink:title=" ">
<polygon fill="white" stroke="black" points="263,-42.5 263,-65.5 472,-65.5 472,-42.5 263,-42.5"/>
<text text-anchor="middle" x="367.5" y="-50.3" font-family="Helvetica,sans-Serif" font-size="14.00">mekong::dumpModuleToFile</text>
</a>
</g>
</g>
<!-- Node1&#45;&gt;Node2 -->
<g id="edge1" class="edge">
<title>Node1&#45;&gt;Node2</title>
<path fill="none" stroke="midnightblue" d="M497.52,-42.85C489.1,-43.58 480.64,-44.31 472.3,-45.03"/>
<polygon fill="midnightblue" stroke="midnightblue" points="498.08,-46.31 507.74,-41.97 497.48,-39.34 498.08,-46.31"/>
</g>
<!-- Node3 -->
<g id="node3" class="node">
<title>Node3</title>
<g id="a_node3"><a xlink:href="../../df/d50/fluxDevicePass_8cpp.html#a2ac711460e8e656c38736b76db7c9e92" target="_top" xlink:title=" ">
<polygon fill="white" stroke="black" points="281.5,-0.5 281.5,-23.5 453.5,-23.5 453.5,-0.5 281.5,-0.5"/>
<text text-anchor="middle" x="367.5" y="-8.3" font-family="Helvetica,sans-Serif" font-size="14.00">ptxInstructionAnalysis</text>
</a>
</g>
</g>
<!-- Node1&#45;&gt;Node3 -->
<g id="edge2" class="edge">
<title>Node1&#45;&gt;Node3</title>
<path fill="none" stroke="midnightblue" d="M497.54,-23.15C482.75,-21.87 467.81,-20.58 453.6,-19.35"/>
<polygon fill="midnightblue" stroke="midnightblue" points="497.48,-26.66 507.74,-24.03 498.08,-19.69 497.48,-26.66"/>
</g>
<!-- Node4 -->
<g id="node4" class="node">
<title>Node4</title>
<g id="a_node4"><a xlink:href="../../d8/d73/structFluxDevicePass.html#a7f76b1ede2deac3e76586fdc4f227aa7" target="_top" xlink:title=" ">
<polygon fill="white" stroke="black" points="0,-0.5 0,-23.5 227,-23.5 227,-0.5 0,-0.5"/>
<text text-anchor="middle" x="113.5" y="-8.3" font-family="Helvetica,sans-Serif" font-size="14.00">FluxDevicePass::runOnModule</text>
</a>
</g>
</g>
<!-- Node3&#45;&gt;Node4 -->
<g id="edge3" class="edge">
<title>Node3&#45;&gt;Node4</title>
<path fill="none" stroke="midnightblue" d="M270.94,-12C256.73,-12 241.96,-12 227.43,-12"/>
<polygon fill="midnightblue" stroke="midnightblue" points="271.18,-15.5 281.18,-12 271.18,-8.5 271.18,-15.5"/>
</g>
</g>
</svg>
