<?xml version="1.0" encoding="UTF-8" standalone="no"?>
<!DOCTYPE svg PUBLIC "-//W3C//DTD SVG 1.1//EN"
 "http://www.w3.org/Graphics/SVG/1.1/DTD/svg11.dtd">
<!-- Generated by graphviz version 2.43.0 (0)
 -->
<!-- Title: mekong::getKernelLaunchConfig Pages: 1 -->
<svg width="775pt" height="32pt"
 viewBox="0.00 0.00 775.00 32.00" xmlns="http://www.w3.org/2000/svg" xmlns:xlink="http://www.w3.org/1999/xlink">
<g id="graph0" class="graph" transform="scale(1 1) rotate(0) translate(4 28)">
<title>mekong::getKernelLaunchConfig</title>
<polygon fill="white" stroke="transparent" points="-4,4 -4,-28 771,-28 771,4 -4,4"/>
<!-- Node1 -->
<g id="node1" class="node">
<title>Node1</title>
<g id="a_node1"><a xlink:title=" ">
<polygon fill="#bfbfbf" stroke="black" points="0,-0.5 0,-23.5 242,-23.5 242,-0.5 0,-0.5"/>
<text text-anchor="middle" x="121" y="-8.3" font-family="Helvetica,sans-Serif" font-size="14.00">mekong::getKernelLaunchConfig</text>
</a>
</g>
</g>
<!-- Node2 -->
<g id="node2" class="node">
<title>Node2</title>
<g id="a_node2"><a xlink:href="../../d3/dcd/namespacemekong.html#af67b4e2092df28422232475f7b5b7b2a" target="_top" xlink:title=" ">
<polygon fill="white" stroke="black" points="278,-0.5 278,-23.5 495,-23.5 495,-0.5 278,-0.5"/>
<text text-anchor="middle" x="386.5" y="-8.3" font-family="Helvetica,sans-Serif" font-size="14.00">mekong::getKernelConfigCall</text>
</a>
</g>
</g>
<!-- Node1&#45;&gt;Node2 -->
<g id="edge1" class="edge">
<title>Node1&#45;&gt;Node2</title>
<path fill="none" stroke="midnightblue" d="M242.18,-12C250.58,-12 259.04,-12 267.42,-12"/>
<polygon fill="midnightblue" stroke="midnightblue" points="267.6,-15.5 277.6,-12 267.6,-8.5 267.6,-15.5"/>
</g>
<!-- Node3 -->
<g id="node3" class="node">
<title>Node3</title>
<g id="a_node3"><a xlink:href="../../d3/dcd/namespacemekong.html#a8f87fb13cab87dec23b45604bb3e4143" target="_top" xlink:title="===&#45;&#45;&#45;&#45;&#45;&#45;&#45;&#45;&#45;&#45;&#45;&#45;&#45;&#45;&#45;&#45;&#45;&#45;&#45;&#45;&#45;&#45;&#45;&#45;&#45;&#45;&#45;&#45;&#45;&#45;&#45;&#45;&#45;&#45;&#45;&#45;&#45;&#45;&#45;&#45;&#45;&#45;&#45;&#45;&#45;&#45;&#45;&#45;&#45;&#45;&#45;&#45;&#45;&#45;&#45;&#45;&#45;&#45;&#45;&#45;&#45;&#45;&#45;—===// Analysis Functions ===&#45;&#45;&#45;&#45;&#45;&#45;...">
<polygon fill="white" stroke="black" points="531,-0.5 531,-23.5 767,-23.5 767,-0.5 531,-0.5"/>
<text text-anchor="middle" x="649" y="-8.3" font-family="Helvetica,sans-Serif" font-size="14.00">mekong::usesNewKernelLaunch</text>
</a>
</g>
</g>
<!-- Node2&#45;&gt;Node3 -->
<g id="edge2" class="edge">
<title>Node2&#45;&gt;Node3</title>
<path fill="none" stroke="midnightblue" d="M495.34,-12C503.79,-12 512.37,-12 520.93,-12"/>
<polygon fill="midnightblue" stroke="midnightblue" points="520.96,-15.5 530.96,-12 520.96,-8.5 520.96,-15.5"/>
</g>
</g>
</svg>
