<?xml version="1.0" encoding="UTF-8" standalone="no"?>
<!DOCTYPE svg PUBLIC "-//W3C//DTD SVG 1.1//EN"
 "http://www.w3.org/Graphics/SVG/1.1/DTD/svg11.dtd">
<!-- Generated by graphviz version 2.43.0 (0)
 -->
<!-- Title: mekong::parseFunction Pages: 1 -->
<svg width="814pt" height="32pt"
 viewBox="0.00 0.00 814.00 32.00" xmlns="http://www.w3.org/2000/svg" xmlns:xlink="http://www.w3.org/1999/xlink">
<g id="graph0" class="graph" transform="scale(1 1) rotate(0) translate(4 28)">
<title>mekong::parseFunction</title>
<polygon fill="white" stroke="transparent" points="-4,4 -4,-28 810,-28 810,4 -4,4"/>
<!-- Node1 -->
<g id="node1" class="node">
<title>Node1</title>
<g id="a_node1"><a xlink:title=" ">
<polygon fill="#bfbfbf" stroke="black" points="627,-0.5 627,-23.5 806,-23.5 806,-0.5 627,-0.5"/>
<text text-anchor="middle" x="716.5" y="-8.3" font-family="Helvetica,sans-Serif" font-size="14.00">mekong::parseFunction</text>
</a>
</g>
</g>
<!-- Node2 -->
<g id="node2" class="node">
<title>Node2</title>
<g id="a_node2"><a xlink:href="../../d3/dcd/namespacemekong.html#a2ffe7a5f9b1a44da5f20c80b3fc39c0c" target="_top" xlink:title=" ">
<polygon fill="white" stroke="black" points="471,-0.5 471,-23.5 591,-23.5 591,-0.5 471,-0.5"/>
<text text-anchor="middle" x="531" y="-8.3" font-family="Helvetica,sans-Serif" font-size="14.00">mekong::parse</text>
</a>
</g>
</g>
<!-- Node1&#45;&gt;Node2 -->
<g id="edge1" class="edge">
<title>Node1&#45;&gt;Node2</title>
<path fill="none" stroke="midnightblue" d="M616.69,-12C607.95,-12 599.29,-12 591.04,-12"/>
<polygon fill="midnightblue" stroke="midnightblue" points="616.98,-15.5 626.97,-12 616.97,-8.5 616.98,-15.5"/>
</g>
<!-- Node3 -->
<g id="node3" class="node">
<title>Node3</title>
<g id="a_node3"><a xlink:href="../../df/d50/fluxDevicePass_8cpp.html#a2ac711460e8e656c38736b76db7c9e92" target="_top" xlink:title=" ">
<polygon fill="white" stroke="black" points="263,-0.5 263,-23.5 435,-23.5 435,-0.5 263,-0.5"/>
<text text-anchor="middle" x="349" y="-8.3" font-family="Helvetica,sans-Serif" font-size="14.00">ptxInstructionAnalysis</text>
</a>
</g>
</g>
<!-- Node2&#45;&gt;Node3 -->
<g id="edge2" class="edge">
<title>Node2&#45;&gt;Node3</title>
<path fill="none" stroke="midnightblue" d="M460.54,-12C452.21,-12 443.63,-12 435.1,-12"/>
<polygon fill="midnightblue" stroke="midnightblue" points="460.56,-15.5 470.56,-12 460.56,-8.5 460.56,-15.5"/>
</g>
<!-- Node4 -->
<g id="node4" class="node">
<title>Node4</title>
<g id="a_node4"><a xlink:href="../../d8/d73/structFluxDevicePass.html#a7f76b1ede2deac3e76586fdc4f227aa7" target="_top" xlink:title=" ">
<polygon fill="white" stroke="black" points="0,-0.5 0,-23.5 227,-23.5 227,-0.5 0,-0.5"/>
<text text-anchor="middle" x="113.5" y="-8.3" font-family="Helvetica,sans-Serif" font-size="14.00">FluxDevicePass::runOnModule</text>
</a>
</g>
</g>
<!-- Node3&#45;&gt;Node4 -->
<g id="edge3" class="edge">
<title>Node3&#45;&gt;Node4</title>
<path fill="none" stroke="midnightblue" d="M252.56,-12C244.16,-12 235.61,-12 227.09,-12"/>
<polygon fill="midnightblue" stroke="midnightblue" points="252.71,-15.5 262.71,-12 252.71,-8.5 252.71,-15.5"/>
</g>
</g>
</svg>
