<?xml version="1.0" encoding="UTF-8" standalone="no"?>
<!DOCTYPE svg PUBLIC "-//W3C//DTD SVG 1.1//EN"
 "http://www.w3.org/Graphics/SVG/1.1/DTD/svg11.dtd">
<!-- Generated by graphviz version 2.43.0 (0)
 -->
<!-- Title: mekong::getKernels Pages: 1 -->
<svg width="663pt" height="112pt"
 viewBox="0.00 0.00 663.00 112.00" xmlns="http://www.w3.org/2000/svg" xmlns:xlink="http://www.w3.org/1999/xlink">
<g id="graph0" class="graph" transform="scale(1 1) rotate(0) translate(4 108)">
<title>mekong::getKernels</title>
<polygon fill="white" stroke="transparent" points="-4,4 -4,-108 659,-108 659,4 -4,4"/>
<!-- Node1 -->
<g id="node1" class="node">
<title>Node1</title>
<g id="a_node1"><a xlink:title="===&#45;&#45;&#45;&#45;&#45;&#45;&#45;&#45;&#45;&#45;&#45;&#45;&#45;&#45;&#45;&#45;&#45;&#45;&#45;&#45;&#45;&#45;&#45;&#45;&#45;&#45;&#45;&#45;&#45;&#45;&#45;&#45;&#45;&#45;&#45;&#45;&#45;&#45;&#45;&#45;&#45;&#45;&#45;&#45;&#45;&#45;&#45;&#45;&#45;&#45;&#45;&#45;&#45;&#45;&#45;&#45;&#45;&#45;&#45;&#45;&#45;&#45;&#45;—===// Analysis Functions ===&#45;&#45;&#45;&#45;&#45;&#45;...">
<polygon fill="#bfbfbf" stroke="black" points="501,-40.5 501,-63.5 655,-63.5 655,-40.5 501,-40.5"/>
<text text-anchor="middle" x="578" y="-48.3" font-family="Helvetica,sans-Serif" font-size="14.00">mekong::getKernels</text>
</a>
</g>
</g>
<!-- Node2 -->
<g id="node2" class="node">
<title>Node2</title>
<g id="a_node2"><a xlink:href="../../df/d50/fluxDevicePass_8cpp.html#a568ff618d3d2921cd08557e977754030" target="_top" xlink:title=" ">
<polygon fill="white" stroke="black" points="263,-80.5 263,-103.5 465,-103.5 465,-80.5 263,-80.5"/>
<text text-anchor="middle" x="364" y="-88.3" font-family="Helvetica,sans-Serif" font-size="14.00">basicBlockInstrumentation</text>
</a>
</g>
</g>
<!-- Node1&#45;&gt;Node2 -->
<g id="edge1" class="edge">
<title>Node1&#45;&gt;Node2</title>
<path fill="none" stroke="midnightblue" d="M505.83,-65.43C479.93,-70.31 450.91,-75.79 425.97,-80.5"/>
<polygon fill="midnightblue" stroke="midnightblue" points="506.79,-68.81 515.97,-63.52 505.49,-61.93 506.79,-68.81"/>
</g>
<!-- Node3 -->
<g id="node3" class="node">
<title>Node3</title>
<g id="a_node3"><a xlink:href="../../d8/d73/structFluxDevicePass.html#a7f76b1ede2deac3e76586fdc4f227aa7" target="_top" xlink:title=" ">
<polygon fill="white" stroke="black" points="0,-40.5 0,-63.5 227,-63.5 227,-40.5 0,-40.5"/>
<text text-anchor="middle" x="113.5" y="-48.3" font-family="Helvetica,sans-Serif" font-size="14.00">FluxDevicePass::runOnModule</text>
</a>
</g>
</g>
<!-- Node1&#45;&gt;Node3 -->
<g id="edge5" class="edge">
<title>Node1&#45;&gt;Node3</title>
<path fill="none" stroke="midnightblue" d="M490.61,-52C416.18,-52 308.23,-52 227.05,-52"/>
<polygon fill="midnightblue" stroke="midnightblue" points="490.89,-55.5 500.89,-52 490.89,-48.5 490.89,-55.5"/>
</g>
<!-- Node4 -->
<g id="node4" class="node">
<title>Node4</title>
<g id="a_node4"><a xlink:href="../../df/d50/fluxDevicePass_8cpp.html#a2ac711460e8e656c38736b76db7c9e92" target="_top" xlink:title=" ">
<polygon fill="white" stroke="black" points="278,-0.5 278,-23.5 450,-23.5 450,-0.5 278,-0.5"/>
<text text-anchor="middle" x="364" y="-8.3" font-family="Helvetica,sans-Serif" font-size="14.00">ptxInstructionAnalysis</text>
</a>
</g>
</g>
<!-- Node1&#45;&gt;Node4 -->
<g id="edge3" class="edge">
<title>Node1&#45;&gt;Node4</title>
<path fill="none" stroke="midnightblue" d="M505.83,-38.57C479.93,-33.69 450.91,-28.21 425.97,-23.5"/>
<polygon fill="midnightblue" stroke="midnightblue" points="505.49,-42.07 515.97,-40.48 506.79,-35.19 505.49,-42.07"/>
</g>
<!-- Node2&#45;&gt;Node3 -->
<g id="edge2" class="edge">
<title>Node2&#45;&gt;Node3</title>
<path fill="none" stroke="midnightblue" d="M281.19,-78.83C250.43,-73.88 215.72,-68.29 185.97,-63.5"/>
<polygon fill="midnightblue" stroke="midnightblue" points="281.03,-82.35 291.46,-80.48 282.14,-75.44 281.03,-82.35"/>
</g>
<!-- Node4&#45;&gt;Node3 -->
<g id="edge4" class="edge">
<title>Node4&#45;&gt;Node3</title>
<path fill="none" stroke="midnightblue" d="M281.19,-25.17C250.43,-30.12 215.72,-35.71 185.97,-40.5"/>
<polygon fill="midnightblue" stroke="midnightblue" points="282.14,-28.56 291.46,-23.52 281.03,-21.65 282.14,-28.56"/>
</g>
</g>
</svg>
