<?xml version="1.0" encoding="UTF-8" standalone="no"?>
<!DOCTYPE svg PUBLIC "-//W3C//DTD SVG 1.1//EN"
 "http://www.w3.org/Graphics/SVG/1.1/DTD/svg11.dtd">
<!-- Generated by graphviz version 2.43.0 (0)
 -->
<!-- Title: mekong::getModulePrefix Pages: 1 -->
<svg width="712pt" height="74pt"
 viewBox="0.00 0.00 712.00 74.00" xmlns="http://www.w3.org/2000/svg" xmlns:xlink="http://www.w3.org/1999/xlink">
<g id="graph0" class="graph" transform="scale(1 1) rotate(0) translate(4 70)">
<title>mekong::getModulePrefix</title>
<polygon fill="white" stroke="transparent" points="-4,4 -4,-70 708,-70 708,4 -4,4"/>
<!-- Node1 -->
<g id="node1" class="node">
<title>Node1</title>
<g id="a_node1"><a xlink:title="===&#45;&#45;&#45;&#45;&#45;&#45;&#45;&#45;&#45;&#45;&#45;&#45;&#45;&#45;&#45;&#45;&#45;&#45;&#45;&#45;&#45;&#45;&#45;&#45;&#45;&#45;&#45;&#45;&#45;&#45;&#45;&#45;&#45;&#45;&#45;&#45;&#45;&#45;&#45;&#45;&#45;&#45;&#45;&#45;&#45;&#45;&#45;&#45;&#45;&#45;&#45;&#45;&#45;&#45;&#45;&#45;&#45;&#45;&#45;&#45;&#45;&#45;&#45;—===// Utility Functions ===&#45;&#45;&#45;&#45;&#45;&#45;&#45;...">
<polygon fill="#bfbfbf" stroke="black" points="511,-21.5 511,-44.5 704,-44.5 704,-21.5 511,-21.5"/>
<text text-anchor="middle" x="607.5" y="-29.3" font-family="Helvetica,sans-Serif" font-size="14.00">mekong::getModulePrefix</text>
</a>
</g>
</g>
<!-- Node2 -->
<g id="node2" class="node">
<title>Node2</title>
<g id="a_node2"><a xlink:href="../../df/d50/fluxDevicePass_8cpp.html#a2ac711460e8e656c38736b76db7c9e92" target="_top" xlink:title=" ">
<polygon fill="white" stroke="black" points="283,-42.5 283,-65.5 455,-65.5 455,-42.5 283,-42.5"/>
<text text-anchor="middle" x="369" y="-50.3" font-family="Helvetica,sans-Serif" font-size="14.00">ptxInstructionAnalysis</text>
</a>
</g>
</g>
<!-- Node1&#45;&gt;Node2 -->
<g id="edge1" class="edge">
<title>Node1&#45;&gt;Node2</title>
<path fill="none" stroke="midnightblue" d="M500.97,-42.37C485.65,-43.73 470.05,-45.12 455.19,-46.44"/>
<polygon fill="midnightblue" stroke="midnightblue" points="501.34,-45.85 510.99,-41.48 500.72,-38.88 501.34,-45.85"/>
</g>
<!-- Node4 -->
<g id="node4" class="node">
<title>Node4</title>
<g id="a_node4"><a xlink:href="../../d2/da0/structFluxHostPass.html#aca382bcf6a274d6a7c08ea5dffb17d1b" target="_top" xlink:title=" ">
<polygon fill="white" stroke="black" points="263,-0.5 263,-23.5 475,-23.5 475,-0.5 263,-0.5"/>
<text text-anchor="middle" x="369" y="-8.3" font-family="Helvetica,sans-Serif" font-size="14.00">FluxHostPass::runOnModule</text>
</a>
</g>
</g>
<!-- Node1&#45;&gt;Node4 -->
<g id="edge3" class="edge">
<title>Node1&#45;&gt;Node4</title>
<path fill="none" stroke="midnightblue" d="M500.97,-23.63C492.4,-22.87 483.73,-22.1 475.16,-21.34"/>
<polygon fill="midnightblue" stroke="midnightblue" points="500.72,-27.12 510.99,-24.52 501.34,-20.15 500.72,-27.12"/>
</g>
<!-- Node3 -->
<g id="node3" class="node">
<title>Node3</title>
<g id="a_node3"><a xlink:href="../../d8/d73/structFluxDevicePass.html#a7f76b1ede2deac3e76586fdc4f227aa7" target="_top" xlink:title=" ">
<polygon fill="white" stroke="black" points="0,-42.5 0,-65.5 227,-65.5 227,-42.5 0,-42.5"/>
<text text-anchor="middle" x="113.5" y="-50.3" font-family="Helvetica,sans-Serif" font-size="14.00">FluxDevicePass::runOnModule</text>
</a>
</g>
</g>
<!-- Node2&#45;&gt;Node3 -->
<g id="edge2" class="edge">
<title>Node2&#45;&gt;Node3</title>
<path fill="none" stroke="midnightblue" d="M272.73,-54C257.91,-54 242.47,-54 227.31,-54"/>
<polygon fill="midnightblue" stroke="midnightblue" points="272.88,-57.5 282.88,-54 272.88,-50.5 272.88,-57.5"/>
</g>
</g>
</svg>
