<?xml version="1.0" encoding="UTF-8" standalone="no"?>
<!DOCTYPE svg PUBLIC "-//W3C//DTD SVG 1.1//EN"
 "http://www.w3.org/Graphics/SVG/1.1/DTD/svg11.dtd">
<!-- Generated by graphviz version 2.43.0 (0)
 -->
<!-- Title: mekong::cloneAndAddArgs Pages: 1 -->
<svg width="713pt" height="32pt"
 viewBox="0.00 0.00 713.00 32.00" xmlns="http://www.w3.org/2000/svg" xmlns:xlink="http://www.w3.org/1999/xlink">
<g id="graph0" class="graph" transform="scale(1 1) rotate(0) translate(4 28)">
<title>mekong::cloneAndAddArgs</title>
<polygon fill="white" stroke="transparent" points="-4,4 -4,-28 709,-28 709,4 -4,4"/>
<!-- Node1 -->
<g id="node1" class="node">
<title>Node1</title>
<g id="a_node1"><a xlink:title="===&#45;&#45;&#45;&#45;&#45;&#45;&#45;&#45;&#45;&#45;&#45;&#45;&#45;&#45;&#45;&#45;&#45;&#45;&#45;&#45;&#45;&#45;&#45;&#45;&#45;&#45;&#45;&#45;&#45;&#45;&#45;&#45;&#45;&#45;&#45;&#45;&#45;&#45;&#45;&#45;&#45;&#45;&#45;&#45;&#45;&#45;&#45;&#45;&#45;&#45;&#45;&#45;&#45;&#45;&#45;&#45;&#45;&#45;&#45;&#45;&#45;&#45;&#45;—===// Transformation Functions ===...">
<polygon fill="#bfbfbf" stroke="black" points="501,-0.5 501,-23.5 705,-23.5 705,-0.5 501,-0.5"/>
<text text-anchor="middle" x="603" y="-8.3" font-family="Helvetica,sans-Serif" font-size="14.00">mekong::cloneAndAddArgs</text>
</a>
</g>
</g>
<!-- Node2 -->
<g id="node2" class="node">
<title>Node2</title>
<g id="a_node2"><a xlink:href="../../df/d50/fluxDevicePass_8cpp.html#a568ff618d3d2921cd08557e977754030" target="_top" xlink:title=" ">
<polygon fill="white" stroke="black" points="263,-0.5 263,-23.5 465,-23.5 465,-0.5 263,-0.5"/>
<text text-anchor="middle" x="364" y="-8.3" font-family="Helvetica,sans-Serif" font-size="14.00">basicBlockInstrumentation</text>
</a>
</g>
</g>
<!-- Node1&#45;&gt;Node2 -->
<g id="edge1" class="edge">
<title>Node1&#45;&gt;Node2</title>
<path fill="none" stroke="midnightblue" d="M490.78,-12C482.21,-12 473.59,-12 465.1,-12"/>
<polygon fill="midnightblue" stroke="midnightblue" points="490.8,-15.5 500.8,-12 490.8,-8.5 490.8,-15.5"/>
</g>
<!-- Node3 -->
<g id="node3" class="node">
<title>Node3</title>
<g id="a_node3"><a xlink:href="../../d8/d73/structFluxDevicePass.html#a7f76b1ede2deac3e76586fdc4f227aa7" target="_top" xlink:title=" ">
<polygon fill="white" stroke="black" points="0,-0.5 0,-23.5 227,-23.5 227,-0.5 0,-0.5"/>
<text text-anchor="middle" x="113.5" y="-8.3" font-family="Helvetica,sans-Serif" font-size="14.00">FluxDevicePass::runOnModule</text>
</a>
</g>
</g>
<!-- Node2&#45;&gt;Node3 -->
<g id="edge2" class="edge">
<title>Node2&#45;&gt;Node3</title>
<path fill="none" stroke="midnightblue" d="M252.76,-12C244.32,-12 235.79,-12 227.34,-12"/>
<polygon fill="midnightblue" stroke="midnightblue" points="253,-15.5 263,-12 253,-8.5 253,-15.5"/>
</g>
</g>
</svg>
