<?xml version="1.0" encoding="UTF-8" standalone="no"?>
<!DOCTYPE svg PUBLIC "-//W3C//DTD SVG 1.1//EN"
 "http://www.w3.org/Graphics/SVG/1.1/DTD/svg11.dtd">
<!-- Generated by graphviz version 2.43.0 (0)
 -->
<!-- Title: mekong::linkIR Pages: 1 -->
<svg width="391pt" height="74pt"
 viewBox="0.00 0.00 391.00 74.00" xmlns="http://www.w3.org/2000/svg" xmlns:xlink="http://www.w3.org/1999/xlink">
<g id="graph0" class="graph" transform="scale(1 1) rotate(0) translate(4 70)">
<title>mekong::linkIR</title>
<polygon fill="white" stroke="transparent" points="-4,4 -4,-70 387,-70 387,4 -4,4"/>
<!-- Node1 -->
<g id="node1" class="node">
<title>Node1</title>
<g id="a_node1"><a xlink:title=" ">
<polygon fill="#bfbfbf" stroke="black" points="263,-21.5 263,-44.5 383,-44.5 383,-21.5 263,-21.5"/>
<text text-anchor="middle" x="323" y="-29.3" font-family="Helvetica,sans-Serif" font-size="14.00">mekong::linkIR</text>
</a>
</g>
</g>
<!-- Node2 -->
<g id="node2" class="node">
<title>Node2</title>
<g id="a_node2"><a xlink:href="../../d8/d73/structFluxDevicePass.html#a7f76b1ede2deac3e76586fdc4f227aa7" target="_top" xlink:title=" ">
<polygon fill="white" stroke="black" points="0,-42.5 0,-65.5 227,-65.5 227,-42.5 0,-42.5"/>
<text text-anchor="middle" x="113.5" y="-50.3" font-family="Helvetica,sans-Serif" font-size="14.00">FluxDevicePass::runOnModule</text>
</a>
</g>
</g>
<!-- Node1&#45;&gt;Node2 -->
<g id="edge1" class="edge">
<title>Node1&#45;&gt;Node2</title>
<path fill="none" stroke="midnightblue" d="M252.85,-40C244.53,-40.84 235.88,-41.72 227.14,-42.6"/>
<polygon fill="midnightblue" stroke="midnightblue" points="253.22,-43.48 262.82,-38.99 252.51,-36.51 253.22,-43.48"/>
</g>
<!-- Node3 -->
<g id="node3" class="node">
<title>Node3</title>
<g id="a_node3"><a xlink:href="../../d2/da0/structFluxHostPass.html#aca382bcf6a274d6a7c08ea5dffb17d1b" target="_top" xlink:title=" ">
<polygon fill="white" stroke="black" points="7.5,-0.5 7.5,-23.5 219.5,-23.5 219.5,-0.5 7.5,-0.5"/>
<text text-anchor="middle" x="113.5" y="-8.3" font-family="Helvetica,sans-Serif" font-size="14.00">FluxHostPass::runOnModule</text>
</a>
</g>
</g>
<!-- Node1&#45;&gt;Node3 -->
<g id="edge2" class="edge">
<title>Node1&#45;&gt;Node3</title>
<path fill="none" stroke="midnightblue" d="M252.78,-25.99C242.12,-24.92 230.9,-23.78 219.67,-22.64"/>
<polygon fill="midnightblue" stroke="midnightblue" points="252.51,-29.49 262.82,-27.01 253.22,-22.52 252.51,-29.49"/>
</g>
</g>
</svg>
