<?xml version="1.0" encoding="UTF-8" standalone="no"?>
<!DOCTYPE svg PUBLIC "-//W3C//DTD SVG 1.1//EN"
 "http://www.w3.org/Graphics/SVG/1.1/DTD/svg11.dtd">
<!-- Generated by graphviz version 2.43.0 (0)
 -->
<!-- Title: mekong::getKernelLaunchConfig Pages: 1 -->
<svg width="758pt" height="32pt"
 viewBox="0.00 0.00 758.00 32.00" xmlns="http://www.w3.org/2000/svg" xmlns:xlink="http://www.w3.org/1999/xlink">
<g id="graph0" class="graph" transform="scale(1 1) rotate(0) translate(4 28)">
<title>mekong::getKernelLaunchConfig</title>
<polygon fill="white" stroke="transparent" points="-4,4 -4,-28 754,-28 754,4 -4,4"/>
<!-- Node1 -->
<g id="node1" class="node">
<title>Node1</title>
<g id="a_node1"><a xlink:title=" ">
<polygon fill="#bfbfbf" stroke="black" points="508,-0.5 508,-23.5 750,-23.5 750,-0.5 508,-0.5"/>
<text text-anchor="middle" x="629" y="-8.3" font-family="Helvetica,sans-Serif" font-size="14.00">mekong::getKernelLaunchConfig</text>
</a>
</g>
</g>
<!-- Node2 -->
<g id="node2" class="node">
<title>Node2</title>
<g id="a_node2"><a xlink:href="../../d3/dcd/namespacemekong.html#a01e8a712eb01b37eaec66af5858a43d3" target="_top" xlink:title=" ">
<polygon fill="white" stroke="black" points="248,-0.5 248,-23.5 472,-23.5 472,-0.5 248,-0.5"/>
<text text-anchor="middle" x="360" y="-8.3" font-family="Helvetica,sans-Serif" font-size="14.00">mekong::replaceKernelLaunch</text>
</a>
</g>
</g>
<!-- Node1&#45;&gt;Node2 -->
<g id="edge1" class="edge">
<title>Node1&#45;&gt;Node2</title>
<path fill="none" stroke="midnightblue" d="M497.71,-12C489.12,-12 480.51,-12 472.02,-12"/>
<polygon fill="midnightblue" stroke="midnightblue" points="497.78,-15.5 507.78,-12 497.78,-8.5 497.78,-15.5"/>
</g>
<!-- Node3 -->
<g id="node3" class="node">
<title>Node3</title>
<g id="a_node3"><a xlink:href="../../d2/da0/structFluxHostPass.html#aca382bcf6a274d6a7c08ea5dffb17d1b" target="_top" xlink:title=" ">
<polygon fill="white" stroke="black" points="0,-0.5 0,-23.5 212,-23.5 212,-0.5 0,-0.5"/>
<text text-anchor="middle" x="106" y="-8.3" font-family="Helvetica,sans-Serif" font-size="14.00">FluxHostPass::runOnModule</text>
</a>
</g>
</g>
<!-- Node2&#45;&gt;Node3 -->
<g id="edge2" class="edge">
<title>Node2&#45;&gt;Node3</title>
<path fill="none" stroke="midnightblue" d="M237.69,-12C229.11,-12 220.51,-12 212.03,-12"/>
<polygon fill="midnightblue" stroke="midnightblue" points="237.74,-15.5 247.74,-12 237.74,-8.5 237.74,-15.5"/>
</g>
</g>
</svg>
