<?xml version="1.0" encoding="UTF-8" standalone="no"?>
<!DOCTYPE svg PUBLIC "-//W3C//DTD SVG 1.1//EN"
 "http://www.w3.org/Graphics/SVG/1.1/DTD/svg11.dtd">
<!-- Generated by graphviz version 2.43.0 (0)
 -->
<!-- Title: mekong::createGlobalString Pages: 1 -->
<svg width="730pt" height="32pt"
 viewBox="0.00 0.00 730.00 32.00" xmlns="http://www.w3.org/2000/svg" xmlns:xlink="http://www.w3.org/1999/xlink">
<g id="graph0" class="graph" transform="scale(1 1) rotate(0) translate(4 28)">
<title>mekong::createGlobalString</title>
<polygon fill="white" stroke="transparent" points="-4,4 -4,-28 726,-28 726,4 -4,4"/>
<!-- Node1 -->
<g id="node1" class="node">
<title>Node1</title>
<g id="a_node1"><a xlink:title="===&#45;&#45;&#45;&#45;&#45;&#45;&#45;&#45;&#45;&#45;&#45;&#45;&#45;&#45;&#45;&#45;&#45;&#45;&#45;&#45;&#45;&#45;&#45;&#45;&#45;&#45;&#45;&#45;&#45;&#45;&#45;&#45;&#45;&#45;&#45;&#45;&#45;&#45;&#45;&#45;&#45;&#45;&#45;&#45;&#45;&#45;&#45;&#45;&#45;&#45;&#45;&#45;&#45;&#45;&#45;&#45;&#45;&#45;&#45;&#45;&#45;&#45;&#45;—===// Analysis Functions ===&#45;&#45;&#45;&#45;&#45;&#45;...">
<polygon fill="#bfbfbf" stroke="black" points="513,-0.5 513,-23.5 722,-23.5 722,-0.5 513,-0.5"/>
<text text-anchor="middle" x="617.5" y="-8.3" font-family="Helvetica,sans-Serif" font-size="14.00">mekong::createGlobalString</text>
</a>
</g>
</g>
<!-- Node2 -->
<g id="node2" class="node">
<title>Node2</title>
<g id="a_node2"><a xlink:href="../../d3/dcd/namespacemekong.html#a1a7b5b753d9609d140a933b933905a5e" target="_top" xlink:title=" ">
<polygon fill="white" stroke="black" points="248,-0.5 248,-23.5 477,-23.5 477,-0.5 248,-0.5"/>
<text text-anchor="middle" x="362.5" y="-8.3" font-family="Helvetica,sans-Serif" font-size="14.00">mekong::createGlobalStringPtr</text>
</a>
</g>
</g>
<!-- Node1&#45;&gt;Node2 -->
<g id="edge1" class="edge">
<title>Node1&#45;&gt;Node2</title>
<path fill="none" stroke="midnightblue" d="M502.63,-12C494.2,-12 485.69,-12 477.27,-12"/>
<polygon fill="midnightblue" stroke="midnightblue" points="502.87,-15.5 512.87,-12 502.87,-8.5 502.87,-15.5"/>
</g>
<!-- Node3 -->
<g id="node3" class="node">
<title>Node3</title>
<g id="a_node3"><a xlink:href="../../d2/da0/structFluxHostPass.html#aca382bcf6a274d6a7c08ea5dffb17d1b" target="_top" xlink:title=" ">
<polygon fill="white" stroke="black" points="0,-0.5 0,-23.5 212,-23.5 212,-0.5 0,-0.5"/>
<text text-anchor="middle" x="106" y="-8.3" font-family="Helvetica,sans-Serif" font-size="14.00">FluxHostPass::runOnModule</text>
</a>
</g>
</g>
<!-- Node2&#45;&gt;Node3 -->
<g id="edge2" class="edge">
<title>Node2&#45;&gt;Node3</title>
<path fill="none" stroke="midnightblue" d="M237.41,-12C228.99,-12 220.56,-12 212.26,-12"/>
<polygon fill="midnightblue" stroke="midnightblue" points="237.65,-15.5 247.65,-12 237.65,-8.5 237.65,-15.5"/>
</g>
</g>
</svg>
