<?xml version="1.0" encoding="UTF-8" standalone="no"?>
<!DOCTYPE svg PUBLIC "-//W3C//DTD SVG 1.1//EN"
 "http://www.w3.org/Graphics/SVG/1.1/DTD/svg11.dtd">
<!-- Generated by graphviz version 2.43.0 (0)
 -->
<!-- Title: mekong::usesNewKernelLaunch Pages: 1 -->
<svg width="1283pt" height="90pt"
 viewBox="0.00 0.00 1283.00 90.00" xmlns="http://www.w3.org/2000/svg" xmlns:xlink="http://www.w3.org/1999/xlink">
<g id="graph0" class="graph" transform="scale(1 1) rotate(0) translate(4 86)">
<title>mekong::usesNewKernelLaunch</title>
<polygon fill="white" stroke="transparent" points="-4,4 -4,-86 1279,-86 1279,4 -4,4"/>
<!-- Node1 -->
<g id="node1" class="node">
<title>Node1</title>
<g id="a_node1"><a xlink:title="===&#45;&#45;&#45;&#45;&#45;&#45;&#45;&#45;&#45;&#45;&#45;&#45;&#45;&#45;&#45;&#45;&#45;&#45;&#45;&#45;&#45;&#45;&#45;&#45;&#45;&#45;&#45;&#45;&#45;&#45;&#45;&#45;&#45;&#45;&#45;&#45;&#45;&#45;&#45;&#45;&#45;&#45;&#45;&#45;&#45;&#45;&#45;&#45;&#45;&#45;&#45;&#45;&#45;&#45;&#45;&#45;&#45;&#45;&#45;&#45;&#45;&#45;&#45;—===// Analysis Functions ===&#45;&#45;&#45;&#45;&#45;&#45;...">
<polygon fill="#bfbfbf" stroke="black" points="1039,-18.5 1039,-41.5 1275,-41.5 1275,-18.5 1039,-18.5"/>
<text text-anchor="middle" x="1157" y="-26.3" font-family="Helvetica,sans-Serif" font-size="14.00">mekong::usesNewKernelLaunch</text>
</a>
</g>
</g>
<!-- Node2 -->
<g id="node2" class="node">
<title>Node2</title>
<g id="a_node2"><a xlink:href="../../d3/dcd/namespacemekong.html#af67b4e2092df28422232475f7b5b7b2a" target="_top" xlink:title=" ">
<polygon fill="white" stroke="black" points="786,-18.5 786,-41.5 1003,-41.5 1003,-18.5 786,-18.5"/>
<text text-anchor="middle" x="894.5" y="-26.3" font-family="Helvetica,sans-Serif" font-size="14.00">mekong::getKernelConfigCall</text>
</a>
</g>
</g>
<!-- Node1&#45;&gt;Node2 -->
<g id="edge1" class="edge">
<title>Node1&#45;&gt;Node2</title>
<path fill="none" stroke="midnightblue" d="M1028.65,-30C1020.07,-30 1011.48,-30 1003.02,-30"/>
<polygon fill="midnightblue" stroke="midnightblue" points="1028.71,-33.5 1038.71,-30 1028.71,-26.5 1028.71,-33.5"/>
</g>
<!-- Node3 -->
<g id="node3" class="node">
<title>Node3</title>
<g id="a_node3"><a xlink:href="../../d3/dcd/namespacemekong.html#a7fde4a8fee11ca20a1bf7a7fbc2cd8a6" target="_top" xlink:title=" ">
<polygon fill="white" stroke="black" points="508,-58.5 508,-81.5 750,-81.5 750,-58.5 508,-58.5"/>
<text text-anchor="middle" x="629" y="-66.3" font-family="Helvetica,sans-Serif" font-size="14.00">mekong::getKernelLaunchConfig</text>
</a>
</g>
</g>
<!-- Node2&#45;&gt;Node3 -->
<g id="edge2" class="edge">
<title>Node2&#45;&gt;Node3</title>
<path fill="none" stroke="midnightblue" d="M807.6,-43.04C774.77,-48.02 737.6,-53.67 705.78,-58.5"/>
<polygon fill="midnightblue" stroke="midnightblue" points="808.28,-46.48 817.64,-41.52 807.23,-39.56 808.28,-46.48"/>
</g>
<!-- Node4 -->
<g id="node4" class="node">
<title>Node4</title>
<g id="a_node4"><a xlink:href="../../d3/dcd/namespacemekong.html#a01e8a712eb01b37eaec66af5858a43d3" target="_top" xlink:title=" ">
<polygon fill="white" stroke="black" points="248,-20.5 248,-43.5 472,-43.5 472,-20.5 248,-20.5"/>
<text text-anchor="middle" x="360" y="-28.3" font-family="Helvetica,sans-Serif" font-size="14.00">mekong::replaceKernelLaunch</text>
</a>
</g>
</g>
<!-- Node2&#45;&gt;Node4 -->
<g id="edge5" class="edge">
<title>Node2&#45;&gt;Node4</title>
<path fill="none" stroke="midnightblue" d="M775.71,-30.44C685.21,-30.78 561.09,-31.25 472.26,-31.58"/>
<polygon fill="midnightblue" stroke="midnightblue" points="775.75,-33.94 785.74,-30.4 775.73,-26.94 775.75,-33.94"/>
</g>
<!-- Node5 -->
<g id="node5" class="node">
<title>Node5</title>
<g id="a_node5"><a xlink:href="../../d2/da0/structFluxHostPass.html#aca382bcf6a274d6a7c08ea5dffb17d1b" target="_top" xlink:title=" ">
<polygon fill="white" stroke="black" points="0,-0.5 0,-23.5 212,-23.5 212,-0.5 0,-0.5"/>
<text text-anchor="middle" x="106" y="-8.3" font-family="Helvetica,sans-Serif" font-size="14.00">FluxHostPass::runOnModule</text>
</a>
</g>
</g>
<!-- Node2&#45;&gt;Node5 -->
<g id="edge6" class="edge">
<title>Node2&#45;&gt;Node5</title>
<path fill="none" stroke="midnightblue" d="M775.55,-23.26C691.07,-18.78 574.57,-13.31 472,-11 372.47,-8.76 347.55,-10.65 248,-11 236.37,-11.04 224.21,-11.1 212.1,-11.17"/>
<polygon fill="midnightblue" stroke="midnightblue" points="775.52,-26.76 785.7,-23.8 775.9,-19.77 775.52,-26.76"/>
</g>
<!-- Node3&#45;&gt;Node4 -->
<g id="edge3" class="edge">
<title>Node3&#45;&gt;Node4</title>
<path fill="none" stroke="midnightblue" d="M536.87,-57.03C506.09,-52.65 471.96,-47.79 442.02,-43.53"/>
<polygon fill="midnightblue" stroke="midnightblue" points="536.77,-60.55 547.17,-58.5 537.76,-53.62 536.77,-60.55"/>
</g>
<!-- Node4&#45;&gt;Node5 -->
<g id="edge4" class="edge">
<title>Node4&#45;&gt;Node5</title>
<path fill="none" stroke="midnightblue" d="M237.69,-22.37C229.11,-21.69 220.51,-21.01 212.03,-20.34"/>
<polygon fill="midnightblue" stroke="midnightblue" points="237.49,-25.87 247.74,-23.17 238.04,-18.89 237.49,-25.87"/>
</g>
</g>
</svg>
