<?xml version="1.0" encoding="UTF-8" standalone="no"?>
<!DOCTYPE svg PUBLIC "-//W3C//DTD SVG 1.1//EN"
 "http://www.w3.org/Graphics/SVG/1.1/DTD/svg11.dtd">
<!-- Generated by graphviz version 2.43.0 (0)
 -->
<!-- Title: mekong::replaceKernelLaunch Pages: 1 -->
<svg width="1035pt" height="112pt"
 viewBox="0.00 0.00 1035.00 112.00" xmlns="http://www.w3.org/2000/svg" xmlns:xlink="http://www.w3.org/1999/xlink">
<g id="graph0" class="graph" transform="scale(1 1) rotate(0) translate(4 108)">
<title>mekong::replaceKernelLaunch</title>
<polygon fill="white" stroke="transparent" points="-4,4 -4,-108 1031,-108 1031,4 -4,4"/>
<!-- Node1 -->
<g id="node1" class="node">
<title>Node1</title>
<g id="a_node1"><a xlink:title=" ">
<polygon fill="#bfbfbf" stroke="black" points="0,-40.5 0,-63.5 224,-63.5 224,-40.5 0,-40.5"/>
<text text-anchor="middle" x="112" y="-48.3" font-family="Helvetica,sans-Serif" font-size="14.00">mekong::replaceKernelLaunch</text>
</a>
</g>
</g>
<!-- Node2 -->
<g id="node2" class="node">
<title>Node2</title>
<g id="a_node2"><a xlink:href="../../d3/dcd/namespacemekong.html#aecdc3c3f20e388e917fc8267ffbbe623" target="_top" xlink:title=" ">
<polygon fill="white" stroke="black" points="269.5,-80.5 269.5,-103.5 492.5,-103.5 492.5,-80.5 269.5,-80.5"/>
<text text-anchor="middle" x="381" y="-88.3" font-family="Helvetica,sans-Serif" font-size="14.00">mekong::getKernelArguments</text>
</a>
</g>
</g>
<!-- Node1&#45;&gt;Node2 -->
<g id="edge1" class="edge">
<title>Node1&#45;&gt;Node2</title>
<path fill="none" stroke="midnightblue" d="M189.87,-63.52C222.12,-68.35 259.78,-73.99 293.04,-78.97"/>
<polygon fill="midnightblue" stroke="midnightblue" points="292.8,-82.48 303.21,-80.5 293.84,-75.55 292.8,-82.48"/>
</g>
<!-- Node3 -->
<g id="node3" class="node">
<title>Node3</title>
<g id="a_node3"><a xlink:href="../../d3/dcd/namespacemekong.html#af67b4e2092df28422232475f7b5b7b2a" target="_top" xlink:title=" ">
<polygon fill="white" stroke="black" points="538,-20.5 538,-43.5 755,-43.5 755,-20.5 538,-20.5"/>
<text text-anchor="middle" x="646.5" y="-28.3" font-family="Helvetica,sans-Serif" font-size="14.00">mekong::getKernelConfigCall</text>
</a>
</g>
</g>
<!-- Node1&#45;&gt;Node3 -->
<g id="edge2" class="edge">
<title>Node1&#45;&gt;Node3</title>
<path fill="none" stroke="midnightblue" d="M224.31,-47.82C313.2,-44.48 437.44,-39.81 527.94,-36.42"/>
<polygon fill="midnightblue" stroke="midnightblue" points="528.11,-39.91 537.98,-36.04 527.85,-32.92 528.11,-39.91"/>
</g>
<!-- Node5 -->
<g id="node5" class="node">
<title>Node5</title>
<g id="a_node5"><a xlink:href="../../d3/dcd/namespacemekong.html#a7fde4a8fee11ca20a1bf7a7fbc2cd8a6" target="_top" xlink:title=" ">
<polygon fill="white" stroke="black" points="260,-0.5 260,-23.5 502,-23.5 502,-0.5 260,-0.5"/>
<text text-anchor="middle" x="381" y="-8.3" font-family="Helvetica,sans-Serif" font-size="14.00">mekong::getKernelLaunchConfig</text>
</a>
</g>
</g>
<!-- Node1&#45;&gt;Node5 -->
<g id="edge4" class="edge">
<title>Node1&#45;&gt;Node5</title>
<path fill="none" stroke="midnightblue" d="M189.87,-40.48C222.12,-35.65 259.78,-30.01 293.04,-25.03"/>
<polygon fill="midnightblue" stroke="midnightblue" points="293.84,-28.45 303.21,-23.5 292.8,-21.52 293.84,-28.45"/>
</g>
<!-- Node4 -->
<g id="node4" class="node">
<title>Node4</title>
<g id="a_node4"><a xlink:href="../../d3/dcd/namespacemekong.html#a8f87fb13cab87dec23b45604bb3e4143" target="_top" xlink:title="===&#45;&#45;&#45;&#45;&#45;&#45;&#45;&#45;&#45;&#45;&#45;&#45;&#45;&#45;&#45;&#45;&#45;&#45;&#45;&#45;&#45;&#45;&#45;&#45;&#45;&#45;&#45;&#45;&#45;&#45;&#45;&#45;&#45;&#45;&#45;&#45;&#45;&#45;&#45;&#45;&#45;&#45;&#45;&#45;&#45;&#45;&#45;&#45;&#45;&#45;&#45;&#45;&#45;&#45;&#45;&#45;&#45;&#45;&#45;&#45;&#45;&#45;&#45;—===// Analysis Functions ===&#45;&#45;&#45;&#45;&#45;&#45;...">
<polygon fill="white" stroke="black" points="791,-20.5 791,-43.5 1027,-43.5 1027,-20.5 791,-20.5"/>
<text text-anchor="middle" x="909" y="-28.3" font-family="Helvetica,sans-Serif" font-size="14.00">mekong::usesNewKernelLaunch</text>
</a>
</g>
</g>
<!-- Node3&#45;&gt;Node4 -->
<g id="edge3" class="edge">
<title>Node3&#45;&gt;Node4</title>
<path fill="none" stroke="midnightblue" d="M755.34,-32C763.79,-32 772.37,-32 780.93,-32"/>
<polygon fill="midnightblue" stroke="midnightblue" points="780.96,-35.5 790.96,-32 780.96,-28.5 780.96,-35.5"/>
</g>
<!-- Node5&#45;&gt;Node3 -->
<g id="edge5" class="edge">
<title>Node5&#45;&gt;Node3</title>
<path fill="none" stroke="midnightblue" d="M502.18,-21.12C510.58,-21.76 519.04,-22.4 527.42,-23.04"/>
<polygon fill="midnightblue" stroke="midnightblue" points="527.37,-26.54 537.6,-23.81 527.89,-19.56 527.37,-26.54"/>
</g>
</g>
</svg>
