<?xml version="1.0" encoding="UTF-8" standalone="no"?>
<!DOCTYPE svg PUBLIC "-//W3C//DTD SVG 1.1//EN"
 "http://www.w3.org/Graphics/SVG/1.1/DTD/svg11.dtd">
<!-- Generated by graphviz version 2.43.0 (0)
 -->
<!-- Title: PPT&#45;GPU/reuse_distance_tool/process_args.h Pages: 1 -->
<svg width="933pt" height="272pt"
 viewBox="0.00 0.00 933.00 272.00" xmlns="http://www.w3.org/2000/svg" xmlns:xlink="http://www.w3.org/1999/xlink">
<g id="graph0" class="graph" transform="scale(1 1) rotate(0) translate(4 268)">
<title>PPT&#45;GPU/reuse_distance_tool/process_args.h</title>
<polygon fill="white" stroke="transparent" points="-4,4 -4,-268 929,-268 929,4 -4,4"/>
<!-- Node1 -->
<g id="node1" class="node">
<title>Node1</title>
<g id="a_node1"><a xlink:title=" ">
<polygon fill="#bfbfbf" stroke="black" points="239,-225.5 239,-263.5 422,-263.5 422,-225.5 239,-225.5"/>
<text text-anchor="start" x="247" y="-248.3" font-family="Helvetica,sans-Serif" font-size="14.00">PPT&#45;GPU/reuse_distance</text>
<text text-anchor="middle" x="330.5" y="-233.3" font-family="Helvetica,sans-Serif" font-size="14.00">_tool/process_args.h</text>
</a>
</g>
</g>
<!-- Node2 -->
<g id="node2" class="node">
<title>Node2</title>
<g id="a_node2"><a xlink:href="../../d0/dbf/parda_8h.html" target="_top" xlink:title=" ">
<polygon fill="white" stroke="black" points="239,-150.5 239,-188.5 422,-188.5 422,-150.5 239,-150.5"/>
<text text-anchor="start" x="247" y="-173.3" font-family="Helvetica,sans-Serif" font-size="14.00">PPT&#45;GPU/reuse_distance</text>
<text text-anchor="middle" x="330.5" y="-158.3" font-family="Helvetica,sans-Serif" font-size="14.00">_tool/parda.h</text>
</a>
</g>
</g>
<!-- Node1&#45;&gt;Node2 -->
<g id="edge1" class="edge">
<title>Node1&#45;&gt;Node2</title>
<path fill="none" stroke="midnightblue" d="M330.5,-215.37C330.5,-206.38 330.5,-196.67 330.5,-188.59"/>
<polygon fill="midnightblue" stroke="midnightblue" points="327,-215.46 330.5,-225.46 334,-215.46 327,-215.46"/>
</g>
<!-- Node3 -->
<g id="node3" class="node">
<title>Node3</title>
<g id="a_node3"><a xlink:href="../../d0/d29/main_8c.html" target="_top" xlink:title=" ">
<polygon fill="white" stroke="black" points="0,-0.5 0,-38.5 183,-38.5 183,-0.5 0,-0.5"/>
<text text-anchor="start" x="8" y="-23.3" font-family="Helvetica,sans-Serif" font-size="14.00">PPT&#45;GPU/reuse_distance</text>
<text text-anchor="middle" x="91.5" y="-8.3" font-family="Helvetica,sans-Serif" font-size="14.00">_tool/main.c</text>
</a>
</g>
</g>
<!-- Node1&#45;&gt;Node3 -->
<g id="edge10" class="edge">
<title>Node1&#45;&gt;Node3</title>
<path fill="none" stroke="midnightblue" d="M255.35,-221.98C202.69,-202.71 135.66,-168.84 100.5,-114 85.89,-91.21 86.44,-58.66 88.64,-38.59"/>
<polygon fill="midnightblue" stroke="midnightblue" points="254.41,-225.36 265.01,-225.41 256.76,-218.77 254.41,-225.36"/>
</g>
<!-- Node10 -->
<g id="node10" class="node">
<title>Node10</title>
<g id="a_node10"><a xlink:href="../../d1/d9d/process__args_8c.html" target="_top" xlink:title=" ">
<polygon fill="white" stroke="black" points="440,-150.5 440,-188.5 623,-188.5 623,-150.5 440,-150.5"/>
<text text-anchor="start" x="448" y="-173.3" font-family="Helvetica,sans-Serif" font-size="14.00">PPT&#45;GPU/reuse_distance</text>
<text text-anchor="middle" x="531.5" y="-158.3" font-family="Helvetica,sans-Serif" font-size="14.00">_tool/process_args.c</text>
</a>
</g>
</g>
<!-- Node1&#45;&gt;Node10 -->
<g id="edge11" class="edge">
<title>Node1&#45;&gt;Node10</title>
<path fill="none" stroke="midnightblue" d="M389.86,-221.94C419.07,-211.33 453.89,-198.69 481.69,-188.59"/>
<polygon fill="midnightblue" stroke="midnightblue" points="388.39,-218.75 380.19,-225.46 390.78,-225.33 388.39,-218.75"/>
</g>
<!-- Node2&#45;&gt;Node3 -->
<g id="edge2" class="edge">
<title>Node2&#45;&gt;Node3</title>
<path fill="none" stroke="midnightblue" d="M228.53,-159.34C193.75,-151.75 156.78,-138.16 129.5,-114 107.33,-94.37 97.87,-59.91 94,-38.75"/>
<polygon fill="midnightblue" stroke="midnightblue" points="228.26,-162.85 238.76,-161.41 229.66,-155.99 228.26,-162.85"/>
</g>
<!-- Node4 -->
<g id="node4" class="node">
<title>Node4</title>
<g id="a_node4"><a xlink:href="../../de/dfb/seperate_8h.html" target="_top" xlink:title=" ">
<polygon fill="white" stroke="black" points="139,-75.5 139,-113.5 322,-113.5 322,-75.5 139,-75.5"/>
<text text-anchor="start" x="147" y="-98.3" font-family="Helvetica,sans-Serif" font-size="14.00">PPT&#45;GPU/reuse_distance</text>
<text text-anchor="middle" x="230.5" y="-83.3" font-family="Helvetica,sans-Serif" font-size="14.00">_tool/seperate.h</text>
</a>
</g>
</g>
<!-- Node2&#45;&gt;Node4 -->
<g id="edge3" class="edge">
<title>Node2&#45;&gt;Node4</title>
<path fill="none" stroke="midnightblue" d="M297.51,-144.42C283.75,-134.37 268.03,-122.9 255.28,-113.59"/>
<polygon fill="midnightblue" stroke="midnightblue" points="295.64,-147.39 305.78,-150.46 299.77,-141.73 295.64,-147.39"/>
</g>
<!-- Node6 -->
<g id="node6" class="node">
<title>Node6</title>
<g id="a_node6"><a xlink:href="../../d0/d96/parda_8c.html" target="_top" xlink:title=" ">
<polygon fill="white" stroke="black" points="340,-75.5 340,-113.5 523,-113.5 523,-75.5 340,-75.5"/>
<text text-anchor="start" x="348" y="-98.3" font-family="Helvetica,sans-Serif" font-size="14.00">PPT&#45;GPU/reuse_distance</text>
<text text-anchor="middle" x="431.5" y="-83.3" font-family="Helvetica,sans-Serif" font-size="14.00">_tool/parda.c</text>
</a>
</g>
</g>
<!-- Node2&#45;&gt;Node6 -->
<g id="edge6" class="edge">
<title>Node2&#45;&gt;Node6</title>
<path fill="none" stroke="midnightblue" d="M363.82,-144.42C377.72,-134.37 393.59,-122.9 406.47,-113.59"/>
<polygon fill="midnightblue" stroke="midnightblue" points="361.52,-141.76 355.47,-150.46 365.62,-147.43 361.52,-141.76"/>
</g>
<!-- Node7 -->
<g id="node7" class="node">
<title>Node7</title>
<g id="a_node7"><a xlink:href="../../d5/d13/parda__omp_8h.html" target="_top" xlink:title=" ">
<polygon fill="white" stroke="black" points="541,-75.5 541,-113.5 724,-113.5 724,-75.5 541,-75.5"/>
<text text-anchor="start" x="549" y="-98.3" font-family="Helvetica,sans-Serif" font-size="14.00">PPT&#45;GPU/reuse_distance</text>
<text text-anchor="middle" x="632.5" y="-83.3" font-family="Helvetica,sans-Serif" font-size="14.00">_tool/parda_omp.h</text>
</a>
</g>
</g>
<!-- Node2&#45;&gt;Node7 -->
<g id="edge7" class="edge">
<title>Node2&#45;&gt;Node7</title>
<path fill="none" stroke="midnightblue" d="M414.87,-148.11C459.8,-137.25 514.57,-124.01 557.92,-113.53"/>
<polygon fill="midnightblue" stroke="midnightblue" points="414.05,-144.7 405.15,-150.46 415.69,-151.51 414.05,-144.7"/>
</g>
<!-- Node9 -->
<g id="node9" class="node">
<title>Node9</title>
<g id="a_node9"><a xlink:href="../../dd/dad/parda__print_8c.html" target="_top" xlink:title=" ">
<polygon fill="white" stroke="black" points="742,-75.5 742,-113.5 925,-113.5 925,-75.5 742,-75.5"/>
<text text-anchor="start" x="750" y="-98.3" font-family="Helvetica,sans-Serif" font-size="14.00">PPT&#45;GPU/reuse_distance</text>
<text text-anchor="middle" x="833.5" y="-83.3" font-family="Helvetica,sans-Serif" font-size="14.00">_tool/parda_print.c</text>
</a>
</g>
</g>
<!-- Node2&#45;&gt;Node9 -->
<g id="edge9" class="edge">
<title>Node2&#45;&gt;Node9</title>
<path fill="none" stroke="midnightblue" d="M432.4,-149.92C566.91,-130.02 603.12,-133.81 733.5,-114 736.29,-113.58 739.13,-113.13 741.99,-112.67"/>
<polygon fill="midnightblue" stroke="midnightblue" points="431.49,-146.52 422.12,-151.46 432.52,-153.44 431.49,-146.52"/>
</g>
<!-- Node4&#45;&gt;Node3 -->
<g id="edge4" class="edge">
<title>Node4&#45;&gt;Node3</title>
<path fill="none" stroke="midnightblue" d="M187.06,-70.69C167.37,-60.35 144.42,-48.29 125.95,-38.59"/>
<polygon fill="midnightblue" stroke="midnightblue" points="185.66,-73.9 196.14,-75.46 188.91,-67.71 185.66,-73.9"/>
</g>
<!-- Node5 -->
<g id="node5" class="node">
<title>Node5</title>
<g id="a_node5"><a xlink:href="../../dc/d40/seperate_8c.html" target="_top" xlink:title=" ">
<polygon fill="white" stroke="black" points="201,-0.5 201,-38.5 384,-38.5 384,-0.5 201,-0.5"/>
<text text-anchor="start" x="209" y="-23.3" font-family="Helvetica,sans-Serif" font-size="14.00">PPT&#45;GPU/reuse_distance</text>
<text text-anchor="middle" x="292.5" y="-8.3" font-family="Helvetica,sans-Serif" font-size="14.00">_tool/seperate.c</text>
</a>
</g>
</g>
<!-- Node4&#45;&gt;Node5 -->
<g id="edge5" class="edge">
<title>Node4&#45;&gt;Node5</title>
<path fill="none" stroke="midnightblue" d="M252.42,-67.7C260.58,-58.08 269.68,-47.37 277.14,-38.59"/>
<polygon fill="midnightblue" stroke="midnightblue" points="249.63,-65.57 245.83,-75.46 254.97,-70.1 249.63,-65.57"/>
</g>
<!-- Node8 -->
<g id="node8" class="node">
<title>Node8</title>
<g id="a_node8"><a xlink:href="../../d0/d82/parda__omp_8c.html" target="_top" xlink:title=" ">
<polygon fill="white" stroke="black" points="541,-0.5 541,-38.5 724,-38.5 724,-0.5 541,-0.5"/>
<text text-anchor="start" x="549" y="-23.3" font-family="Helvetica,sans-Serif" font-size="14.00">PPT&#45;GPU/reuse_distance</text>
<text text-anchor="middle" x="632.5" y="-8.3" font-family="Helvetica,sans-Serif" font-size="14.00">_tool/parda_omp.c</text>
</a>
</g>
</g>
<!-- Node7&#45;&gt;Node8 -->
<g id="edge8" class="edge">
<title>Node7&#45;&gt;Node8</title>
<path fill="none" stroke="midnightblue" d="M632.5,-65.37C632.5,-56.38 632.5,-46.67 632.5,-38.59"/>
<polygon fill="midnightblue" stroke="midnightblue" points="629,-65.46 632.5,-75.46 636,-65.46 629,-65.46"/>
</g>
</g>
</svg>
