<?xml version="1.0" encoding="UTF-8" standalone="no"?>
<!DOCTYPE svg PUBLIC "-//W3C//DTD SVG 1.1//EN"
 "http://www.w3.org/Graphics/SVG/1.1/DTD/svg11.dtd">
<!-- Generated by graphviz version 2.43.0 (0)
 -->
<!-- Title: PPT&#45;GPU/reuse_distance_tool/process_args.h Pages: 1 -->
<!--zoomable 272 -->
<svg id="main" version="1.1" xmlns="http://www.w3.org/2000/svg" xmlns:xlink="http://www.w3.org/1999/xlink" xml:space="preserve" onload="init(evt)">
<style type="text/css"><![CDATA[
.edge:hover path { stroke: red; }
.edge:hover polygon { stroke: red; fill: red; }
]]></style>
<script type="text/javascript"><![CDATA[
var edges = document.getElementsByTagName('g');
if (edges && edges.length) {
  for (var i=0;i<edges.length;i++) {
    if (edges[i].id.substr(0,4)=='edge') {
      edges[i].setAttribute('class','edge');
    }
  }
}
]]></script>
        <defs>
                <circle id="rim" cx="0" cy="0" r="7"/>
                <circle id="rim2" cx="0" cy="0" r="3.5"/>
                <g id="zoomPlus">
                        <use xlink:href="#rim" fill="#404040">
                                <set attributeName="fill" to="#808080" begin="zoomplus.mouseover" end="zoomplus.mouseout"/>
                        </use>
                        <path d="M-4,0h8M0,-4v8" fill="none" stroke="white" stroke-width="1.5" pointer-events="none"/>
                </g>
                <g id="zoomMin">
                        <use xlink:href="#rim" fill="#404040">
                                <set attributeName="fill" to="#808080" begin="zoomminus.mouseover" end="zoomminus.mouseout"/>
                        </use>
                        <path d="M-4,0h8" fill="none" stroke="white" stroke-width="1.5" pointer-events="none"/>
                </g>
                <g id="dirArrow">
                        <path fill="none" stroke="white" stroke-width="1.5" d="M0,-3.0v7 M-2.5,-0.5L0,-3.0L2.5,-0.5"/>
                </g>
               <g id="resetDef">
                       <use xlink:href="#rim2" fill="#404040">
                               <set attributeName="fill" to="#808080" begin="reset.mouseover" end="reset.mouseout"/>
                       </use>
               </g>
        </defs>

<script type="text/javascript">
var viewWidth = 933;
var viewHeight = 272;
var sectionId = 'dynsection-1';
</script>
<script xlink:href="../../svgpan.js"/>
<svg id="graph" class="graph">
<g id="viewport">
<title>PPT&#45;GPU/reuse_distance_tool/process_args.h</title>
<polygon fill="white" stroke="transparent" points="-4,4 -4,-268 929,-268 929,4 -4,4"/>
<!-- Node1 -->
<g id="node1" class="node">
<title>Node1</title>
<g id="a_node1"><a xlink:title=" ">
<polygon fill="#bfbfbf" stroke="black" points="239,-225.5 239,-263.5 422,-263.5 422,-225.5 239,-225.5"/>
<text text-anchor="start" x="247" y="-248.3" font-family="Helvetica,sans-Serif" font-size="14.00">PPT&#45;GPU/reuse_distance</text>
<text text-anchor="middle" x="330.5" y="-233.3" font-family="Helvetica,sans-Serif" font-size="14.00">_tool/process_args.h</text>
</a>
</g>
</g>
<!-- Node2 -->
<g id="node2" class="node">
<title>Node2</title>
<g id="a_node2"><a xlink:href="../../d0/dbf/parda_8h.html" target="_top" xlink:title=" ">
<polygon fill="white" stroke="black" points="239,-150.5 239,-188.5 422,-188.5 422,-150.5 239,-150.5"/>
<text text-anchor="start" x="247" y="-173.3" font-family="Helvetica,sans-Serif" font-size="14.00">PPT&#45;GPU/reuse_distance</text>
<text text-anchor="middle" x="330.5" y="-158.3" font-family="Helvetica,sans-Serif" font-size="14.00">_tool/parda.h</text>
</a>
</g>
</g>
<!-- Node1&#45;&gt;Node2 -->
<g id="edge1" class="edge">
<title>Node1&#45;&gt;Node2</title>
<path fill="none" stroke="midnightblue" d="M330.5,-215.37C330.5,-206.38 330.5,-196.67 330.5,-188.59"/>
<polygon fill="midnightblue" stroke="midnightblue" points="327,-215.46 330.5,-225.46 334,-215.46 327,-215.46"/>
</g>
<!-- Node3 -->
<g id="node3" class="node">
<title>Node3</title>
<g id="a_node3"><a xlink:href="../../d0/d29/main_8c.html" target="_top" xlink:title=" ">
<polygon fill="white" stroke="black" points="0,-0.5 0,-38.5 183,-38.5 183,-0.5 0,-0.5"/>
<text text-anchor="start" x="8" y="-23.3" font-family="Helvetica,sans-Serif" font-size="14.00">PPT&#45;GPU/reuse_distance</text>
<text text-anchor="middle" x="91.5" y="-8.3" font-family="Helvetica,sans-Serif" font-size="14.00">_tool/main.c</text>
</a>
</g>
</g>
<!-- Node1&#45;&gt;Node3 -->
<g id="edge10" class="edge">
<title>Node1&#45;&gt;Node3</title>
<path fill="none" stroke="midnightblue" d="M255.35,-221.98C202.69,-202.71 135.66,-168.84 100.5,-114 85.89,-91.21 86.44,-58.66 88.64,-38.59"/>
<polygon fill="midnightblue" stroke="midnightblue" points="254.41,-225.36 265.01,-225.41 256.76,-218.77 254.41,-225.36"/>
</g>
<!-- Node10 -->
<g id="node10" class="node">
<title>Node10</title>
<g id="a_node10"><a xlink:href="../../d1/d9d/process__args_8c.html" target="_top" xlink:title=" ">
<polygon fill="white" stroke="black" points="440,-150.5 440,-188.5 623,-188.5 623,-150.5 440,-150.5"/>
<text text-anchor="start" x="448" y="-173.3" font-family="Helvetica,sans-Serif" font-size="14.00">PPT&#45;GPU/reuse_distance</text>
<text text-anchor="middle" x="531.5" y="-158.3" font-family="Helvetica,sans-Serif" font-size="14.00">_tool/process_args.c</text>
</a>
</g>
</g>
<!-- Node1&#45;&gt;Node10 -->
<g id="edge11" class="edge">
<title>Node1&#45;&gt;Node10</title>
<path fill="none" stroke="midnightblue" d="M389.86,-221.94C419.07,-211.33 453.89,-198.69 481.69,-188.59"/>
<polygon fill="midnightblue" stroke="midnightblue" points="388.39,-218.75 380.19,-225.46 390.78,-225.33 388.39,-218.75"/>
</g>
<!-- Node2&#45;&gt;Node3 -->
<g id="edge2" class="edge">
<title>Node2&#45;&gt;Node3</title>
<path fill="none" stroke="midnightblue" d="M228.53,-159.34C193.75,-151.75 156.78,-138.16 129.5,-114 107.33,-94.37 97.87,-59.91 94,-38.75"/>
<polygon fill="midnightblue" stroke="midnightblue" points="228.26,-162.85 238.76,-161.41 229.66,-155.99 228.26,-162.85"/>
</g>
<!-- Node4 -->
<g id="node4" class="node">
<title>Node4</title>
<g id="a_node4"><a xlink:href="../../de/dfb/seperate_8h.html" target="_top" xlink:title=" ">
<polygon fill="white" stroke="black" points="139,-75.5 139,-113.5 322,-113.5 322,-75.5 139,-75.5"/>
<text text-anchor="start" x="147" y="-98.3" font-family="Helvetica,sans-Serif" font-size="14.00">PPT&#45;GPU/reuse_distance</text>
<text text-anchor="middle" x="230.5" y="-83.3" font-family="Helvetica,sans-Serif" font-size="14.00">_tool/seperate.h</text>
</a>
</g>
</g>
<!-- Node2&#45;&gt;Node4 -->
<g id="edge3" class="edge">
<title>Node2&#45;&gt;Node4</title>
<path fill="none" stroke="midnightblue" d="M297.51,-144.42C283.75,-134.37 268.03,-122.9 255.28,-113.59"/>
<polygon fill="midnightblue" stroke="midnightblue" points="295.64,-147.39 305.78,-150.46 299.77,-141.73 295.64,-147.39"/>
</g>
<!-- Node6 -->
<g id="node6" class="node">
<title>Node6</title>
<g id="a_node6"><a xlink:href="../../d0/d96/parda_8c.html" target="_top" xlink:title=" ">
<polygon fill="white" stroke="black" points="340,-75.5 340,-113.5 523,-113.5 523,-75.5 340,-75.5"/>
<text text-anchor="start" x="348" y="-98.3" font-family="Helvetica,sans-Serif" font-size="14.00">PPT&#45;GPU/reuse_distance</text>
<text text-anchor="middle" x="431.5" y="-83.3" font-family="Helvetica,sans-Serif" font-size="14.00">_tool/parda.c</text>
</a>
</g>
</g>
<!-- Node2&#45;&gt;Node6 -->
<g id="edge6" class="edge">
<title>Node2&#45;&gt;Node6</title>
<path fill="none" stroke="midnightblue" d="M363.82,-144.42C377.72,-134.37 393.59,-122.9 406.47,-113.59"/>
<polygon fill="midnightblue" stroke="midnightblue" points="361.52,-141.76 355.47,-150.46 365.62,-147.43 361.52,-141.76"/>
</g>
<!-- Node7 -->
<g id="node7" class="node">
<title>Node7</title>
<g id="a_node7"><a xlink:href="../../d5/d13/parda__omp_8h.html" target="_top" xlink:title=" ">
<polygon fill="white" stroke="black" points="541,-75.5 541,-113.5 724,-113.5 724,-75.5 541,-75.5"/>
<text text-anchor="start" x="549" y="-98.3" font-family="Helvetica,sans-Serif" font-size="14.00">PPT&#45;GPU/reuse_distance</text>
<text text-anchor="middle" x="632.5" y="-83.3" font-family="Helvetica,sans-Serif" font-size="14.00">_tool/parda_omp.h</text>
</a>
</g>
</g>
<!-- Node2&#45;&gt;Node7 -->
<g id="edge7" class="edge">
<title>Node2&#45;&gt;Node7</title>
<path fill="none" stroke="midnightblue" d="M414.87,-148.11C459.8,-137.25 514.57,-124.01 557.92,-113.53"/>
<polygon fill="midnightblue" stroke="midnightblue" points="414.05,-144.7 405.15,-150.46 415.69,-151.51 414.05,-144.7"/>
</g>
<!-- Node9 -->
<g id="node9" class="node">
<title>Node9</title>
<g id="a_node9"><a xlink:href="../../dd/dad/parda__print_8c.html" target="_top" xlink:title=" ">
<polygon fill="white" stroke="black" points="742,-75.5 742,-113.5 925,-113.5 925,-75.5 742,-75.5"/>
<text text-anchor="start" x="750" y="-98.3" font-family="Helvetica,sans-Serif" font-size="14.00">PPT&#45;GPU/reuse_distance</text>
<text text-anchor="middle" x="833.5" y="-83.3" font-family="Helvetica,sans-Serif" font-size="14.00">_tool/parda_print.c</text>
</a>
</g>
</g>
<!-- Node2&#45;&gt;Node9 -->
<g id="edge9" class="edge">
<title>Node2&#45;&gt;Node9</title>
<path fill="none" stroke="midnightblue" d="M432.4,-149.92C566.91,-130.02 603.12,-133.81 733.5,-114 736.29,-113.58 739.13,-113.13 741.99,-112.67"/>
<polygon fill="midnightblue" stroke="midnightblue" points="431.49,-146.52 422.12,-151.46 432.52,-153.44 431.49,-146.52"/>
</g>
<!-- Node4&#45;&gt;Node3 -->
<g id="edge4" class="edge">
<title>Node4&#45;&gt;Node3</title>
<path fill="none" stroke="midnightblue" d="M187.06,-70.69C167.37,-60.35 144.42,-48.29 125.95,-38.59"/>
<polygon fill="midnightblue" stroke="midnightblue" points="185.66,-73.9 196.14,-75.46 188.91,-67.71 185.66,-73.9"/>
</g>
<!-- Node5 -->
<g id="node5" class="node">
<title>Node5</title>
<g id="a_node5"><a xlink:href="../../dc/d40/seperate_8c.html" target="_top" xlink:title=" ">
<polygon fill="white" stroke="black" points="201,-0.5 201,-38.5 384,-38.5 384,-0.5 201,-0.5"/>
<text text-anchor="start" x="209" y="-23.3" font-family="Helvetica,sans-Serif" font-size="14.00">PPT&#45;GPU/reuse_distance</text>
<text text-anchor="middle" x="292.5" y="-8.3" font-family="Helvetica,sans-Serif" font-size="14.00">_tool/seperate.c</text>
</a>
</g>
</g>
<!-- Node4&#45;&gt;Node5 -->
<g id="edge5" class="edge">
<title>Node4&#45;&gt;Node5</title>
<path fill="none" stroke="midnightblue" d="M252.42,-67.7C260.58,-58.08 269.68,-47.37 277.14,-38.59"/>
<polygon fill="midnightblue" stroke="midnightblue" points="249.63,-65.57 245.83,-75.46 254.97,-70.1 249.63,-65.57"/>
</g>
<!-- Node8 -->
<g id="node8" class="node">
<title>Node8</title>
<g id="a_node8"><a xlink:href="../../d0/d82/parda__omp_8c.html" target="_top" xlink:title=" ">
<polygon fill="white" stroke="black" points="541,-0.5 541,-38.5 724,-38.5 724,-0.5 541,-0.5"/>
<text text-anchor="start" x="549" y="-23.3" font-family="Helvetica,sans-Serif" font-size="14.00">PPT&#45;GPU/reuse_distance</text>
<text text-anchor="middle" x="632.5" y="-8.3" font-family="Helvetica,sans-Serif" font-size="14.00">_tool/parda_omp.c</text>
</a>
</g>
</g>
<!-- Node7&#45;&gt;Node8 -->
<g id="edge8" class="edge">
<title>Node7&#45;&gt;Node8</title>
<path fill="none" stroke="midnightblue" d="M632.5,-65.37C632.5,-56.38 632.5,-46.67 632.5,-38.59"/>
<polygon fill="midnightblue" stroke="midnightblue" points="629,-65.46 632.5,-75.46 636,-65.46 629,-65.46"/>
</g>
</g>
</svg>
        <g id="navigator" transform="translate(0 0)" fill="#404254">
                <rect fill="#f2f5e9" fill-opacity="0.5" stroke="#606060" stroke-width=".5" x="0" y="0" width="60" height="60"/>
                <use id="zoomplus" xlink:href="#zoomPlus" x="17" y="9" onmousedown="handleZoom(evt,'in')"/>
                <use id="zoomminus" xlink:href="#zoomMin" x="42" y="9" onmousedown="handleZoom(evt,'out')"/>
                <use id="reset" xlink:href="#resetDef" x="30" y="36" onmousedown="handleReset()"/>
                <g id="arrowUp" xlink:href="#dirArrow" transform="translate(30 24)" onmousedown="handlePan(0,-1)">
                  <use xlink:href="#rim" fill="#404040">
                        <set attributeName="fill" to="#808080" begin="arrowUp.mouseover" end="arrowUp.mouseout"/>
                  </use>
                  <path fill="none" stroke="white" stroke-width="1.5" d="M0,-3.0v7 M-2.5,-0.5L0,-3.0L2.5,-0.5"/>
                </g>
                <g id="arrowRight" xlink:href="#dirArrow" transform="rotate(90) translate(36 -43)" onmousedown="handlePan(1,0)">
                  <use xlink:href="#rim" fill="#404040">
                        <set attributeName="fill" to="#808080" begin="arrowRight.mouseover" end="arrowRight.mouseout"/>
                  </use>
                  <path fill="none" stroke="white" stroke-width="1.5" d="M0,-3.0v7 M-2.5,-0.5L0,-3.0L2.5,-0.5"/>
                </g>
                <g id="arrowDown" xlink:href="#dirArrow" transform="rotate(180) translate(-30 -48)" onmousedown="handlePan(0,1)">
                  <use xlink:href="#rim" fill="#404040">
                        <set attributeName="fill" to="#808080" begin="arrowDown.mouseover" end="arrowDown.mouseout"/>
                  </use>
                  <path fill="none" stroke="white" stroke-width="1.5" d="M0,-3.0v7 M-2.5,-0.5L0,-3.0L2.5,-0.5"/>
                </g>
                <g id="arrowLeft" xlink:href="#dirArrow" transform="rotate(270) translate(-36 17)" onmousedown="handlePan(-1,0)">
                  <use xlink:href="#rim" fill="#404040">
                        <set attributeName="fill" to="#808080" begin="arrowLeft.mouseover" end="arrowLeft.mouseout"/>
                  </use>
                  <path fill="none" stroke="white" stroke-width="1.5" d="M0,-3.0v7 M-2.5,-0.5L0,-3.0L2.5,-0.5"/>
                </g>
        </g>
        <svg viewBox="0 0 15 15" width="100%" height="30px" preserveAspectRatio="xMaxYMin meet">
         <g id="arrow_out" transform="scale(0.3 0.3)">
          <a xlink:href="process__args_8h__dep__incl_org.svg" target="_base">
           <rect id="button" ry="5" rx="5" y="6" x="6" height="38" width="38"
                fill="#f2f5e9" fill-opacity="0.5" stroke="#606060" stroke-width="1.0"/>
           <path id="arrow"
             d="M 11.500037,31.436501 C 11.940474,20.09759 22.043105,11.32322 32.158766,21.979434 L 37.068811,17.246167 C 37.068811,17.246167 37.088388,32 37.088388,32 L 22.160133,31.978069 C 22.160133,31.978069 26.997745,27.140456 26.997745,27.140456 C 18.528582,18.264221 13.291696,25.230495 11.500037,31.436501 z"
             style="fill:#404040;"/>
          </a>
         </g>
        </svg>
</svg>
