<?xml version="1.0" encoding="UTF-8" standalone="no"?>
<!DOCTYPE svg PUBLIC "-//W3C//DTD SVG 1.1//EN"
 "http://www.w3.org/Graphics/SVG/1.1/DTD/svg11.dtd">
<!-- Generated by graphviz version 2.43.0 (0)
 -->
<!-- Title: CUDA_MEMCPY3D_st Pages: 1 -->
<svg width="170pt" height="122pt"
 viewBox="0.00 0.00 170.00 122.00" xmlns="http://www.w3.org/2000/svg" xmlns:xlink="http://www.w3.org/1999/xlink">
<g id="graph0" class="graph" transform="scale(1 1) rotate(0) translate(4 118)">
<title>CUDA_MEMCPY3D_st</title>
<polygon fill="white" stroke="transparent" points="-4,4 -4,-118 166,-118 166,4 -4,4"/>
<!-- Node1 -->
<g id="node1" class="node">
<title>Node1</title>
<g id="a_node1"><a xlink:title=" ">
<polygon fill="#bfbfbf" stroke="black" points="0,-0.5 0,-23.5 162,-23.5 162,-0.5 0,-0.5"/>
<text text-anchor="middle" x="81" y="-8.3" font-family="Helvetica,sans-Serif" font-size="14.00">CUDA_MEMCPY3D_st</text>
</a>
</g>
</g>
<!-- Node2 -->
<g id="node2" class="node">
<title>Node2</title>
<g id="a_node2"><a xlink:title=" ">
<polygon fill="white" stroke="#bfbfbf" points="52.5,-90.5 52.5,-113.5 109.5,-113.5 109.5,-90.5 52.5,-90.5"/>
<text text-anchor="middle" x="81" y="-98.3" font-family="Helvetica,sans-Serif" font-size="14.00">struct</text>
</a>
</g>
</g>
<!-- Node2&#45;&gt;Node1 -->
<g id="edge1" class="edge">
<title>Node2&#45;&gt;Node1</title>
<path fill="none" stroke="#9a32cd" stroke-dasharray="5,2" d="M81,-79.96C81,-62.2 81,-37.5 81,-23.6"/>
<polygon fill="#9a32cd" stroke="#9a32cd" points="77.5,-80.21 81,-90.21 84.5,-80.21 77.5,-80.21"/>
<text text-anchor="middle" x="113" y="-60.8" font-family="Helvetica,sans-Serif" font-size="14.00"> dstArray</text>
<text text-anchor="middle" x="113" y="-45.8" font-family="Helvetica,sans-Serif" font-size="14.00">srcArray</text>
</g>
</g>
</svg>
