<?xml version="1.0" encoding="UTF-8" standalone="no"?>
<!DOCTYPE svg PUBLIC "-//W3C//DTD SVG 1.1//EN"
 "http://www.w3.org/Graphics/SVG/1.1/DTD/svg11.dtd">
<!-- Generated by graphviz version 2.43.0 (0)
 -->
<!-- Title: cuMemcpyDtoHAsync_v2_params_st Pages: 1 -->
<svg width="200pt" height="122pt"
 viewBox="0.00 0.00 200.00 122.00" xmlns="http://www.w3.org/2000/svg" xmlns:xlink="http://www.w3.org/1999/xlink">
<g id="graph0" class="graph" transform="scale(1 1) rotate(0) translate(4 118)">
<title>cuMemcpyDtoHAsync_v2_params_st</title>
<polygon fill="white" stroke="transparent" points="-4,4 -4,-118 196,-118 196,4 -4,4"/>
<!-- Node1 -->
<g id="node1" class="node">
<title>Node1</title>
<g id="a_node1"><a xlink:title=" ">
<polygon fill="#bfbfbf" stroke="black" points="0,-0.5 0,-38.5 192,-38.5 192,-0.5 0,-0.5"/>
<text text-anchor="start" x="8" y="-23.3" font-family="Helvetica,sans-Serif" font-size="14.00">cuMemcpyDtoHAsync_v2</text>
<text text-anchor="middle" x="96" y="-8.3" font-family="Helvetica,sans-Serif" font-size="14.00">_params_st</text>
</a>
</g>
</g>
<!-- Node2 -->
<g id="node2" class="node">
<title>Node2</title>
<g id="a_node2"><a xlink:title=" ">
<polygon fill="white" stroke="#bfbfbf" points="67.5,-90.5 67.5,-113.5 124.5,-113.5 124.5,-90.5 67.5,-90.5"/>
<text text-anchor="middle" x="96" y="-98.3" font-family="Helvetica,sans-Serif" font-size="14.00">struct</text>
</a>
</g>
</g>
<!-- Node2&#45;&gt;Node1 -->
<g id="edge1" class="edge">
<title>Node2&#45;&gt;Node1</title>
<path fill="none" stroke="#9a32cd" stroke-dasharray="5,2" d="M96,-80.28C96,-67.43 96,-51.07 96,-38.72"/>
<polygon fill="#9a32cd" stroke="#9a32cd" points="92.5,-80.48 96,-90.48 99.5,-80.48 92.5,-80.48"/>
<text text-anchor="middle" x="128" y="-60.8" font-family="Helvetica,sans-Serif" font-size="14.00"> hStream</text>
</g>
</g>
</svg>
