<?xml version="1.0" encoding="UTF-8" standalone="no"?>
<!DOCTYPE svg PUBLIC "-//W3C//DTD SVG 1.1//EN"
 "http://www.w3.org/Graphics/SVG/1.1/DTD/svg11.dtd">
<!-- Generated by graphviz version 2.43.0 (0)
 -->
<!-- Title: cuMemcpyPeer_params_st Pages: 1 -->
<svg width="209pt" height="122pt"
 viewBox="0.00 0.00 209.00 122.00" xmlns="http://www.w3.org/2000/svg" xmlns:xlink="http://www.w3.org/1999/xlink">
<g id="graph0" class="graph" transform="scale(1 1) rotate(0) translate(4 118)">
<title>cuMemcpyPeer_params_st</title>
<polygon fill="white" stroke="transparent" points="-4,4 -4,-118 205,-118 205,4 -4,4"/>
<!-- Node1 -->
<g id="node1" class="node">
<title>Node1</title>
<g id="a_node1"><a xlink:title=" ">
<polygon fill="#bfbfbf" stroke="black" points="0,-0.5 0,-23.5 201,-23.5 201,-0.5 0,-0.5"/>
<text text-anchor="middle" x="100.5" y="-8.3" font-family="Helvetica,sans-Serif" font-size="14.00">cuMemcpyPeer_params_st</text>
</a>
</g>
</g>
<!-- Node2 -->
<g id="node2" class="node">
<title>Node2</title>
<g id="a_node2"><a xlink:title=" ">
<polygon fill="white" stroke="#bfbfbf" points="72,-90.5 72,-113.5 129,-113.5 129,-90.5 72,-90.5"/>
<text text-anchor="middle" x="100.5" y="-98.3" font-family="Helvetica,sans-Serif" font-size="14.00">struct</text>
</a>
</g>
</g>
<!-- Node2&#45;&gt;Node1 -->
<g id="edge1" class="edge">
<title>Node2&#45;&gt;Node1</title>
<path fill="none" stroke="#9a32cd" stroke-dasharray="5,2" d="M100.5,-79.96C100.5,-62.2 100.5,-37.5 100.5,-23.6"/>
<polygon fill="#9a32cd" stroke="#9a32cd" points="97,-80.21 100.5,-90.21 104,-80.21 97,-80.21"/>
<text text-anchor="middle" x="140" y="-60.8" font-family="Helvetica,sans-Serif" font-size="14.00"> srcContext</text>
<text text-anchor="middle" x="140" y="-45.8" font-family="Helvetica,sans-Serif" font-size="14.00">dstContext</text>
</g>
</g>
</svg>
