<?xml version="1.0" encoding="UTF-8" standalone="no"?>
<!DOCTYPE svg PUBLIC "-//W3C//DTD SVG 1.1//EN"
 "http://www.w3.org/Graphics/SVG/1.1/DTD/svg11.dtd">
<!-- Generated by graphviz version 2.43.0 (0)
 -->
<!-- Title: ppt.GPUNode.generate_target_accelerators Pages: 1 -->
<svg width="540pt" height="74pt"
 viewBox="0.00 0.00 540.00 74.00" xmlns="http://www.w3.org/2000/svg" xmlns:xlink="http://www.w3.org/1999/xlink">
<g id="graph0" class="graph" transform="scale(1 1) rotate(0) translate(4 70)">
<title>ppt.GPUNode.generate_target_accelerators</title>
<polygon fill="white" stroke="transparent" points="-4,4 -4,-70 536,-70 536,4 -4,4"/>
<!-- Node1 -->
<g id="node1" class="node">
<title>Node1</title>
<g id="a_node1"><a xlink:title=" ">
<polygon fill="#bfbfbf" stroke="black" points="0,-14 0,-52 176,-52 176,-14 0,-14"/>
<text text-anchor="start" x="8" y="-36.8" font-family="Helvetica,sans-Serif" font-size="14.00">ppt.GPUNode.generate</text>
<text text-anchor="middle" x="88" y="-21.8" font-family="Helvetica,sans-Serif" font-size="14.00">_target_accelerators</text>
</a>
</g>
</g>
<!-- Node2 -->
<g id="node2" class="node">
<title>Node2</title>
<g id="a_node2"><a xlink:href="../../d6/d4c/namespaceppt.html#af5dcc24afe9af0d3e04b938b142a9a6d" target="_top" xlink:title=" ">
<polygon fill="white" stroke="black" points="212,-21.5 212,-44.5 291,-44.5 291,-21.5 212,-21.5"/>
<text text-anchor="middle" x="251.5" y="-29.3" font-family="Helvetica,sans-Serif" font-size="14.00">ppt.main</text>
</a>
</g>
</g>
<!-- Node1&#45;&gt;Node2 -->
<g id="edge1" class="edge">
<title>Node1&#45;&gt;Node2</title>
<path fill="none" stroke="midnightblue" d="M176.37,-33C185.15,-33 193.82,-33 201.97,-33"/>
<polygon fill="midnightblue" stroke="midnightblue" points="201.98,-36.5 211.98,-33 201.98,-29.5 201.98,-36.5"/>
</g>
<!-- Node3 -->
<g id="node3" class="node">
<title>Node3</title>
<g id="a_node3"><a xlink:href="../../d6/d4c/namespaceppt.html#add78beeace0655d7bdef4924f2a7bc6e" target="_top" xlink:title=" ">
<polygon fill="white" stroke="black" points="327,-42.5 327,-65.5 532,-65.5 532,-42.5 327,-42.5"/>
<text text-anchor="middle" x="429.5" y="-50.3" font-family="Helvetica,sans-Serif" font-size="14.00">ppt.get_current_kernel_info</text>
</a>
</g>
</g>
<!-- Node2&#45;&gt;Node3 -->
<g id="edge2" class="edge">
<title>Node2&#45;&gt;Node3</title>
<path fill="none" stroke="midnightblue" d="M291.12,-37.61C300.5,-38.73 310.98,-39.98 321.86,-41.28"/>
<polygon fill="midnightblue" stroke="midnightblue" points="321.59,-44.77 331.94,-42.48 322.42,-37.82 321.59,-44.77"/>
</g>
<!-- Node4 -->
<g id="node4" class="node">
<title>Node4</title>
<g id="a_node4"><a xlink:href="../../d6/d4c/namespaceppt.html#a36efe971cb30d25a8cca6639bb1a3e61" target="_top" xlink:title=" ">
<polygon fill="white" stroke="black" points="386.5,-0.5 386.5,-23.5 472.5,-23.5 472.5,-0.5 386.5,-0.5"/>
<text text-anchor="middle" x="429.5" y="-8.3" font-family="Helvetica,sans-Serif" font-size="14.00">ppt.usage</text>
</a>
</g>
</g>
<!-- Node2&#45;&gt;Node4 -->
<g id="edge3" class="edge">
<title>Node2&#45;&gt;Node4</title>
<path fill="none" stroke="midnightblue" d="M291.12,-28.39C316.07,-25.42 348.84,-21.51 376.11,-18.25"/>
<polygon fill="midnightblue" stroke="midnightblue" points="376.76,-21.7 386.27,-17.04 375.93,-14.75 376.76,-21.7"/>
</g>
</g>
</svg>
