<?xml version="1.0" encoding="UTF-8" standalone="no"?>
<!DOCTYPE svg PUBLIC "-//W3C//DTD SVG 1.1//EN"
 "http://www.w3.org/Graphics/SVG/1.1/DTD/svg11.dtd">
<!-- Generated by graphviz version 2.43.0 (0)
 -->
<!-- Title: PPT&#45;GPU/tracing_tool/nvbit/cuda.h Pages: 1 -->
<svg width="169pt" height="107pt"
 viewBox="0.00 0.00 169.00 107.00" xmlns="http://www.w3.org/2000/svg" xmlns:xlink="http://www.w3.org/1999/xlink">
<g id="graph0" class="graph" transform="scale(1 1) rotate(0) translate(4 103)">
<title>PPT&#45;GPU/tracing_tool/nvbit/cuda.h</title>
<polygon fill="white" stroke="transparent" points="-4,4 -4,-103 165,-103 165,4 -4,4"/>
<!-- Node1 -->
<g id="node1" class="node">
<title>Node1</title>
<g id="a_node1"><a xlink:title="Header file for the CUDA Toolkit application programming interface.">
<polygon fill="#bfbfbf" stroke="black" points="0,-60.5 0,-98.5 161,-98.5 161,-60.5 0,-60.5"/>
<text text-anchor="start" x="8" y="-83.3" font-family="Helvetica,sans-Serif" font-size="14.00">PPT&#45;GPU/tracing_tool</text>
<text text-anchor="middle" x="80.5" y="-68.3" font-family="Helvetica,sans-Serif" font-size="14.00">/nvbit/cuda.h</text>
</a>
</g>
</g>
<!-- Node2 -->
<g id="node2" class="node">
<title>Node2</title>
<g id="a_node2"><a xlink:title=" ">
<polygon fill="white" stroke="#bfbfbf" points="3.5,-0.5 3.5,-23.5 71.5,-23.5 71.5,-0.5 3.5,-0.5"/>
<text text-anchor="middle" x="37.5" y="-8.3" font-family="Helvetica,sans-Serif" font-size="14.00">stdlib.h</text>
</a>
</g>
</g>
<!-- Node1&#45;&gt;Node2 -->
<g id="edge1" class="edge">
<title>Node1&#45;&gt;Node2</title>
<path fill="none" stroke="midnightblue" d="M68.52,-60.25C62.77,-51.49 55.87,-40.99 50.05,-32.11"/>
<polygon fill="midnightblue" stroke="midnightblue" points="52.87,-30.03 44.45,-23.59 47.02,-33.87 52.87,-30.03"/>
</g>
<!-- Node3 -->
<g id="node3" class="node">
<title>Node3</title>
<g id="a_node3"><a xlink:title=" ">
<polygon fill="white" stroke="#bfbfbf" points="89.5,-0.5 89.5,-23.5 159.5,-23.5 159.5,-0.5 89.5,-0.5"/>
<text text-anchor="middle" x="124.5" y="-8.3" font-family="Helvetica,sans-Serif" font-size="14.00">stdint.h</text>
</a>
</g>
</g>
<!-- Node1&#45;&gt;Node3 -->
<g id="edge2" class="edge">
<title>Node1&#45;&gt;Node3</title>
<path fill="none" stroke="midnightblue" d="M92.76,-60.25C98.64,-51.49 105.7,-40.99 111.66,-32.11"/>
<polygon fill="midnightblue" stroke="midnightblue" points="114.71,-33.84 117.38,-23.59 108.9,-29.94 114.71,-33.84"/>
</g>
</g>
</svg>
