<?xml version="1.0" encoding="UTF-8" standalone="no"?>
<!DOCTYPE svg PUBLIC "-//W3C//DTD SVG 1.1//EN"
 "http://www.w3.org/Graphics/SVG/1.1/DTD/svg11.dtd">
<!-- Generated by graphviz version 2.43.0 (0)
 -->
<!-- Title: freetree Pages: 1 -->
<svg width="266pt" height="61pt"
 viewBox="0.00 0.00 266.00 61.00" xmlns="http://www.w3.org/2000/svg" xmlns:xlink="http://www.w3.org/1999/xlink">
<g id="graph0" class="graph" transform="scale(1 1) rotate(0) translate(4 57)">
<title>freetree</title>
<polygon fill="white" stroke="transparent" points="-4,4 -4,-57 262,-57 262,4 -4,4"/>
<!-- Node1 -->
<g id="node1" class="node">
<title>Node1</title>
<g id="a_node1"><a xlink:title=" ">
<polygon fill="#bfbfbf" stroke="black" points="0,-29.5 0,-52.5 71,-52.5 71,-29.5 0,-29.5"/>
<text text-anchor="middle" x="35.5" y="-37.3" font-family="Helvetica,sans-Serif" font-size="14.00">freetree</text>
</a>
</g>
</g>
<!-- Node2 -->
<g id="node2" class="node">
<title>Node2</title>
<g id="a_node2"><a xlink:href="../../da/de5/hostRuntime_8cpp.html#ae206dc2056b70c9901731e30447df1aa" target="_top" xlink:title=" ">
<polygon fill="white" stroke="black" points="214,-29.5 214,-52.5 258,-52.5 258,-29.5 214,-29.5"/>
<text text-anchor="middle" x="236" y="-37.3" font-family="Helvetica,sans-Serif" font-size="14.00">free</text>
</a>
</g>
</g>
<!-- Node1&#45;&gt;Node2 -->
<g id="edge1" class="edge">
<title>Node1&#45;&gt;Node2</title>
<path fill="none" stroke="midnightblue" d="M71.18,-46.91C82.56,-48.58 95.29,-50.17 107,-51 138.48,-53.22 146.56,-53.74 178,-51 186.37,-50.27 195.36,-48.95 203.67,-47.5"/>
<polygon fill="midnightblue" stroke="midnightblue" points="204.54,-50.9 213.73,-45.64 203.26,-44.02 204.54,-50.9"/>
</g>
<!-- Node3 -->
<g id="node3" class="node">
<title>Node3</title>
<g id="a_node3"><a xlink:href="../../d1/df7/splay_8c.html#aa92af4ddcdf3134ef4943b684eb5c421" target="_top" xlink:title=" ">
<polygon fill="white" stroke="black" points="107,-0.5 107,-23.5 178,-23.5 178,-0.5 107,-0.5"/>
<text text-anchor="middle" x="142.5" y="-8.3" font-family="Helvetica,sans-Serif" font-size="14.00">freetree</text>
</a>
</g>
</g>
<!-- Node1&#45;&gt;Node3 -->
<g id="edge2" class="edge">
<title>Node1&#45;&gt;Node3</title>
<path fill="none" stroke="midnightblue" d="M71.17,-31.42C79.5,-29.12 88.52,-26.63 97.22,-24.23"/>
<polygon fill="midnightblue" stroke="midnightblue" points="98.16,-27.6 106.86,-21.57 96.29,-20.85 98.16,-27.6"/>
</g>
<!-- Node3&#45;&gt;Node2 -->
<g id="edge3" class="edge">
<title>Node3&#45;&gt;Node2</title>
<path fill="none" stroke="midnightblue" d="M178.09,-22.96C186.66,-25.68 195.77,-28.57 204.15,-31.22"/>
<polygon fill="midnightblue" stroke="midnightblue" points="203.31,-34.63 213.9,-34.31 205.42,-27.95 203.31,-34.63"/>
</g>
<!-- Node3&#45;&gt;Node3 -->
<g id="edge4" class="edge">
<title>Node3&#45;&gt;Node3</title>
<path fill="none" stroke="midnightblue" d="M127.48,-23.7C121.86,-32.76 126.87,-42 142.5,-42 152.03,-42 157.61,-38.57 159.24,-33.84"/>
<polygon fill="midnightblue" stroke="midnightblue" points="162.65,-32.98 157.52,-23.7 155.74,-34.15 162.65,-32.98"/>
</g>
</g>
</svg>
