<?xml version="1.0" encoding="UTF-8" standalone="no"?>
<!DOCTYPE svg PUBLIC "-//W3C//DTD SVG 1.1//EN"
 "http://www.w3.org/Graphics/SVG/1.1/DTD/svg11.dtd">
<!-- Generated by graphviz version 2.43.0 (0)
 -->
<!-- Title: splay Pages: 1 -->
<svg width="1146pt" height="216pt"
 viewBox="0.00 0.00 1146.00 215.50" xmlns="http://www.w3.org/2000/svg" xmlns:xlink="http://www.w3.org/1999/xlink">
<g id="graph0" class="graph" transform="scale(1 1) rotate(0) translate(4 211.5)">
<title>splay</title>
<polygon fill="white" stroke="transparent" points="-4,4 -4,-211.5 1142,-211.5 1142,4 -4,4"/>
<!-- Node1 -->
<g id="node1" class="node">
<title>Node1</title>
<g id="a_node1"><a xlink:title=" ">
<polygon fill="#bfbfbf" stroke="black" points="1085,-105.5 1085,-128.5 1138,-128.5 1138,-105.5 1085,-105.5"/>
<text text-anchor="middle" x="1111.5" y="-113.3" font-family="Helvetica,sans-Serif" font-size="14.00">splay</text>
</a>
</g>
</g>
<!-- Node2 -->
<g id="node2" class="node">
<title>Node2</title>
<g id="a_node2"><a xlink:href="../../d2/db0/splay_8h.html#abdac9e5d9aa4c821228951ee07ec6465" target="_top" xlink:title=" ">
<polygon fill="white" stroke="black" points="990,-126.5 990,-149.5 1049,-149.5 1049,-126.5 990,-126.5"/>
<text text-anchor="middle" x="1019.5" y="-134.3" font-family="Helvetica,sans-Serif" font-size="14.00">delete</text>
</a>
</g>
</g>
<!-- Node1&#45;&gt;Node2 -->
<g id="edge1" class="edge">
<title>Node1&#45;&gt;Node2</title>
<path fill="none" stroke="midnightblue" d="M1075.18,-125.24C1066.6,-127.24 1057.52,-129.36 1049.28,-131.28"/>
<polygon fill="midnightblue" stroke="midnightblue" points="1076.01,-128.64 1084.95,-122.96 1074.42,-121.83 1076.01,-128.64"/>
</g>
<!-- Node3 -->
<g id="node3" class="node">
<title>Node3</title>
<g id="a_node3"><a xlink:href="../../d2/db0/splay_8h.html#a7860ad42bad70e478b3778c1eb4c42b7" target="_top" xlink:title=" ">
<polygon fill="white" stroke="black" points="991.5,-84.5 991.5,-107.5 1047.5,-107.5 1047.5,-84.5 991.5,-84.5"/>
<text text-anchor="middle" x="1019.5" y="-92.3" font-family="Helvetica,sans-Serif" font-size="14.00">insert</text>
</a>
</g>
</g>
<!-- Node1&#45;&gt;Node3 -->
<g id="edge2" class="edge">
<title>Node1&#45;&gt;Node3</title>
<path fill="none" stroke="midnightblue" d="M1075,-108.72C1065.91,-106.6 1056.28,-104.35 1047.69,-102.34"/>
<polygon fill="midnightblue" stroke="midnightblue" points="1074.42,-112.17 1084.95,-111.04 1076.01,-105.36 1074.42,-112.17"/>
</g>
<!-- Node4 -->
<g id="node4" class="node">
<title>Node4</title>
<g id="a_node4"><a xlink:href="../../d0/dbf/parda_8h.html#a757e86b5a2b7eac055f98a355da1c184" target="_top" xlink:title=" ">
<polygon fill="white" stroke="black" points="808.5,-42.5 808.5,-65.5 944.5,-65.5 944.5,-42.5 808.5,-42.5"/>
<text text-anchor="middle" x="876.5" y="-50.3" font-family="Helvetica,sans-Serif" font-size="14.00">parda_get_abend</text>
</a>
</g>
</g>
<!-- Node3&#45;&gt;Node4 -->
<g id="edge3" class="edge">
<title>Node3&#45;&gt;Node4</title>
<path fill="none" stroke="midnightblue" d="M981.77,-83.71C972.72,-80.78 963.03,-77.71 954,-75 943.31,-71.8 931.73,-68.52 920.89,-65.53"/>
<polygon fill="midnightblue" stroke="midnightblue" points="980.69,-87.04 991.28,-86.83 982.87,-80.39 980.69,-87.04"/>
</g>
<!-- Node10 -->
<g id="node10" class="node">
<title>Node10</title>
<g id="a_node10"><a xlink:href="../../d0/dbf/parda_8h.html#a8e4c1106b242bf781e1ec7d62fc21a41" target="_top" xlink:title=" ">
<polygon fill="white" stroke="black" points="805,-84.5 805,-107.5 948,-107.5 948,-84.5 805,-84.5"/>
<text text-anchor="middle" x="876.5" y="-92.3" font-family="Helvetica,sans-Serif" font-size="14.00">parda_get_abfront</text>
</a>
</g>
</g>
<!-- Node3&#45;&gt;Node10 -->
<g id="edge9" class="edge">
<title>Node3&#45;&gt;Node10</title>
<path fill="none" stroke="midnightblue" d="M981.19,-96C971.01,-96 959.63,-96 948.25,-96"/>
<polygon fill="midnightblue" stroke="midnightblue" points="981.31,-99.5 991.31,-96 981.31,-92.5 981.31,-99.5"/>
</g>
<!-- Node11 -->
<g id="node11" class="node">
<title>Node11</title>
<g id="a_node11"><a xlink:href="../../d0/dbf/parda_8h.html#a7d0ee3d41b9ae3b5ea299e358099b7c7" target="_top" xlink:title=" ">
<polygon fill="white" stroke="black" points="818.5,-0.5 818.5,-23.5 934.5,-23.5 934.5,-0.5 818.5,-0.5"/>
<text text-anchor="middle" x="876.5" y="-8.3" font-family="Helvetica,sans-Serif" font-size="14.00">parda_process</text>
</a>
</g>
</g>
<!-- Node3&#45;&gt;Node11 -->
<g id="edge11" class="edge">
<title>Node3&#45;&gt;Node11</title>
<path fill="none" stroke="midnightblue" d="M1003.1,-76.36C991.13,-62.35 973.34,-44.09 954,-33 947.43,-29.23 940.15,-26.11 932.77,-23.54"/>
<polygon fill="midnightblue" stroke="midnightblue" points="1000.7,-78.95 1009.77,-84.43 1006.1,-74.49 1000.7,-78.95"/>
</g>
<!-- Node12 -->
<g id="node12" class="node">
<title>Node12</title>
<g id="a_node12"><a xlink:href="../../d0/dbf/parda_8h.html#aba642b919a1605f65607ac245ce94fa9" target="_top" xlink:title=" ">
<polygon fill="white" stroke="black" points="799,-126.5 799,-149.5 954,-149.5 954,-126.5 799,-126.5"/>
<text text-anchor="middle" x="876.5" y="-134.3" font-family="Helvetica,sans-Serif" font-size="14.00">process_one_access</text>
</a>
</g>
</g>
<!-- Node3&#45;&gt;Node12 -->
<g id="edge12" class="edge">
<title>Node3&#45;&gt;Node12</title>
<path fill="none" stroke="midnightblue" d="M981.77,-108.29C972.72,-111.22 963.03,-114.29 954,-117 943.31,-120.2 931.73,-123.48 920.89,-126.47"/>
<polygon fill="midnightblue" stroke="midnightblue" points="982.87,-111.61 991.28,-105.17 980.69,-104.96 982.87,-111.61"/>
</g>
<!-- Node16 -->
<g id="node16" class="node">
<title>Node16</title>
<g id="a_node16"><a xlink:href="../../d0/dbf/parda_8h.html#ab88eb69b6dc07345fb2318fe9c2093d1" target="_top" xlink:title=" ">
<polygon fill="white" stroke="black" points="799,-169 799,-207 954,-207 954,-169 799,-169"/>
<text text-anchor="start" x="807" y="-191.8" font-family="Helvetica,sans-Serif" font-size="14.00">process_one_access</text>
<text text-anchor="middle" x="876.5" y="-176.8" font-family="Helvetica,sans-Serif" font-size="14.00">_shared</text>
</a>
</g>
</g>
<!-- Node3&#45;&gt;Node16 -->
<g id="edge19" class="edge">
<title>Node3&#45;&gt;Node16</title>
<path fill="none" stroke="midnightblue" d="M993.42,-113.96C992.24,-114.96 991.1,-115.98 990,-117 971.99,-133.73 974.12,-144.87 954,-159 948.77,-162.67 943.01,-165.95 937.08,-168.86"/>
<polygon fill="midnightblue" stroke="midnightblue" points="995.77,-116.57 1001.42,-107.61 991.41,-111.09 995.77,-116.57"/>
</g>
<!-- Node5 -->
<g id="node5" class="node">
<title>Node5</title>
<g id="a_node5"><a xlink:href="../../d0/dbf/parda_8h.html#ac66e3c12653af16fe2738d9e0089acfc" target="_top" xlink:title=" ">
<polygon fill="white" stroke="black" points="590,-73.5 590,-96.5 697,-96.5 697,-73.5 590,-73.5"/>
<text text-anchor="middle" x="643.5" y="-81.3" font-family="Helvetica,sans-Serif" font-size="14.00">parda_merge</text>
</a>
</g>
</g>
<!-- Node4&#45;&gt;Node5 -->
<g id="edge4" class="edge">
<title>Node4&#45;&gt;Node5</title>
<path fill="none" stroke="midnightblue" d="M798.23,-64.37C764.99,-68.83 727,-73.93 697.1,-77.94"/>
<polygon fill="midnightblue" stroke="midnightblue" points="798.93,-67.81 808.37,-63.01 798,-60.87 798.93,-67.81"/>
</g>
<!-- Node6 -->
<g id="node6" class="node">
<title>Node6</title>
<g id="a_node6"><a xlink:href="../../d5/d13/parda__omp_8h.html#ae6fbeb3538f797cfc948e920386b4741" target="_top" xlink:title=" ">
<polygon fill="white" stroke="black" points="100,-73.5 100,-96.5 237,-96.5 237,-73.5 100,-73.5"/>
<text text-anchor="middle" x="168.5" y="-81.3" font-family="Helvetica,sans-Serif" font-size="14.00">parda_omp_input</text>
</a>
</g>
</g>
<!-- Node5&#45;&gt;Node6 -->
<g id="edge5" class="edge">
<title>Node5&#45;&gt;Node6</title>
<path fill="none" stroke="midnightblue" d="M579.4,-85C490.4,-85 328.68,-85 237.24,-85"/>
<polygon fill="midnightblue" stroke="midnightblue" points="579.62,-88.5 589.62,-85 579.62,-81.5 579.62,-88.5"/>
</g>
<!-- Node7 -->
<g id="node7" class="node">
<title>Node7</title>
<g id="a_node7"><a xlink:href="../../d0/d82/parda__omp_8c.html#a9608f67126e55a4e283694263aef00a4" target="_top" xlink:title=" ">
<polygon fill="white" stroke="black" points="300.5,-111 300.5,-149 473.5,-149 473.5,-111 300.5,-111"/>
<text text-anchor="start" x="308.5" y="-133.8" font-family="Helvetica,sans-Serif" font-size="14.00">parda_omp_input_with</text>
<text text-anchor="middle" x="387" y="-118.8" font-family="Helvetica,sans-Serif" font-size="14.00">_filename</text>
</a>
</g>
</g>
<!-- Node5&#45;&gt;Node7 -->
<g id="edge6" class="edge">
<title>Node5&#45;&gt;Node7</title>
<path fill="none" stroke="midnightblue" d="M579.67,-96.11C547.72,-101.76 508.41,-108.71 473.72,-114.84"/>
<polygon fill="midnightblue" stroke="midnightblue" points="580.53,-99.51 589.77,-94.32 579.31,-92.62 580.53,-99.51"/>
</g>
<!-- Node8 -->
<g id="node8" class="node">
<title>Node8</title>
<g id="a_node8"><a xlink:href="../../d5/d13/parda__omp_8h.html#af99a329269ee6e1bd3f49b4442ab1097" target="_top" xlink:title=" ">
<polygon fill="white" stroke="black" points="87,-118.5 87,-141.5 250,-141.5 250,-118.5 87,-118.5"/>
<text text-anchor="middle" x="168.5" y="-126.3" font-family="Helvetica,sans-Serif" font-size="14.00">parda_omp_stackdist</text>
</a>
</g>
</g>
<!-- Node7&#45;&gt;Node8 -->
<g id="edge7" class="edge">
<title>Node7&#45;&gt;Node8</title>
<path fill="none" stroke="midnightblue" d="M290.27,-130C276.9,-130 263.27,-130 250.21,-130"/>
<polygon fill="midnightblue" stroke="midnightblue" points="290.43,-133.5 300.43,-130 290.43,-126.5 290.43,-133.5"/>
</g>
<!-- Node9 -->
<g id="node9" class="node">
<title>Node9</title>
<g id="a_node9"><a xlink:href="../../d0/d29/main_8c.html#a3c04138a5bfe5d72780bb7e82a18e627" target="_top" xlink:title=" ">
<polygon fill="white" stroke="black" points="0,-143.5 0,-166.5 51,-166.5 51,-143.5 0,-143.5"/>
<text text-anchor="middle" x="25.5" y="-151.3" font-family="Helvetica,sans-Serif" font-size="14.00">main</text>
</a>
</g>
</g>
<!-- Node8&#45;&gt;Node9 -->
<g id="edge8" class="edge">
<title>Node8&#45;&gt;Node9</title>
<path fill="none" stroke="midnightblue" d="M92.12,-143.37C77.34,-145.99 62.84,-148.56 51.25,-150.61"/>
<polygon fill="midnightblue" stroke="midnightblue" points="93.13,-146.74 102.37,-141.55 91.91,-139.85 93.13,-146.74"/>
</g>
<!-- Node10&#45;&gt;Node5 -->
<g id="edge10" class="edge">
<title>Node10&#45;&gt;Node5</title>
<path fill="none" stroke="midnightblue" d="M794.58,-92.15C762.22,-90.61 725.86,-88.87 697.03,-87.5"/>
<polygon fill="midnightblue" stroke="midnightblue" points="794.78,-95.66 804.94,-92.64 795.12,-88.67 794.78,-95.66"/>
</g>
<!-- Node13 -->
<g id="node13" class="node">
<title>Node13</title>
<g id="a_node13"><a xlink:href="../../d0/dbf/parda_8h.html#a2e011afd5d113d7b404cff2b9467af8d" target="_top" xlink:title=" ">
<polygon fill="white" stroke="black" points="524,-137.5 524,-160.5 763,-160.5 763,-137.5 524,-137.5"/>
<text text-anchor="middle" x="643.5" y="-145.3" font-family="Helvetica,sans-Serif" font-size="14.00">parda_input_with_textfilepointer</text>
</a>
</g>
</g>
<!-- Node12&#45;&gt;Node13 -->
<g id="edge13" class="edge">
<title>Node12&#45;&gt;Node13</title>
<path fill="none" stroke="midnightblue" d="M788.74,-142.13C780.32,-142.53 771.67,-142.94 763.01,-143.36"/>
<polygon fill="midnightblue" stroke="midnightblue" points="789.08,-145.62 798.9,-141.65 788.75,-138.63 789.08,-145.62"/>
</g>
<!-- Node13&#45;&gt;Node7 -->
<g id="edge18" class="edge">
<title>Node13&#45;&gt;Node7</title>
<path fill="none" stroke="midnightblue" d="M513.54,-139.37C500.09,-138.37 486.66,-137.37 473.86,-136.41"/>
<polygon fill="midnightblue" stroke="midnightblue" points="513.59,-142.89 523.82,-140.14 514.11,-135.9 513.59,-142.89"/>
</g>
<!-- Node14 -->
<g id="node14" class="node">
<title>Node14</title>
<g id="a_node14"><a xlink:href="../../d0/dbf/parda_8h.html#a1505668d8e66fe882bf0368896c3a8ec" target="_top" xlink:title=" ">
<polygon fill="white" stroke="black" points="286,-168.5 286,-191.5 488,-191.5 488,-168.5 286,-168.5"/>
<text text-anchor="middle" x="387" y="-176.3" font-family="Helvetica,sans-Serif" font-size="14.00">parda_input_with_filename</text>
</a>
</g>
</g>
<!-- Node13&#45;&gt;Node14 -->
<g id="edge14" class="edge">
<title>Node13&#45;&gt;Node14</title>
<path fill="none" stroke="midnightblue" d="M537.64,-161.77C519.35,-164 500.42,-166.31 482.42,-168.5"/>
<polygon fill="midnightblue" stroke="midnightblue" points="538.23,-165.23 547.73,-160.54 537.38,-158.28 538.23,-165.23"/>
</g>
<!-- Node14&#45;&gt;Node6 -->
<g id="edge17" class="edge">
<title>Node14&#45;&gt;Node6</title>
<path fill="none" stroke="midnightblue" d="M295.37,-164.32C292.13,-162.72 288.99,-160.95 286,-159 263.05,-144.06 272.31,-124.87 250,-109 242.75,-103.84 234.39,-99.78 225.85,-96.59"/>
<polygon fill="midnightblue" stroke="midnightblue" points="294.19,-167.63 304.76,-168.45 297.01,-161.22 294.19,-167.63"/>
</g>
<!-- Node15 -->
<g id="node15" class="node">
<title>Node15</title>
<g id="a_node15"><a xlink:href="../../d0/dbf/parda_8h.html#ab5b52d038b8aaf5acd36508c229bd923" target="_top" xlink:title=" ">
<polygon fill="white" stroke="black" points="90,-161 90,-199 247,-199 247,-161 90,-161"/>
<text text-anchor="start" x="98" y="-183.8" font-family="Helvetica,sans-Serif" font-size="14.00">classical_tree_based</text>
<text text-anchor="middle" x="168.5" y="-168.8" font-family="Helvetica,sans-Serif" font-size="14.00">_stackdist</text>
</a>
</g>
</g>
<!-- Node14&#45;&gt;Node15 -->
<g id="edge15" class="edge">
<title>Node14&#45;&gt;Node15</title>
<path fill="none" stroke="midnightblue" d="M275.86,-180C266.13,-180 256.42,-180 247.05,-180"/>
<polygon fill="midnightblue" stroke="midnightblue" points="275.99,-183.5 285.99,-180 275.99,-176.5 275.99,-183.5"/>
</g>
<!-- Node15&#45;&gt;Node9 -->
<g id="edge16" class="edge">
<title>Node15&#45;&gt;Node9</title>
<path fill="none" stroke="midnightblue" d="M79.86,-164.46C69.43,-162.61 59.53,-160.86 51.16,-159.37"/>
<polygon fill="midnightblue" stroke="midnightblue" points="79.53,-167.96 89.99,-166.26 80.75,-161.06 79.53,-167.96"/>
</g>
<!-- Node16&#45;&gt;Node13 -->
<g id="edge20" class="edge">
<title>Node16&#45;&gt;Node13</title>
<path fill="none" stroke="midnightblue" d="M788.98,-173.39C763.79,-169.14 736.63,-164.55 712.73,-160.52"/>
<polygon fill="midnightblue" stroke="midnightblue" points="788.46,-176.85 798.9,-175.07 789.62,-169.95 788.46,-176.85"/>
</g>
</g>
</svg>
