<?xml version="1.0" encoding="UTF-8" standalone="no"?>
<!DOCTYPE svg PUBLIC "-//W3C//DTD SVG 1.1//EN"
 "http://www.w3.org/Graphics/SVG/1.1/DTD/svg11.dtd">
<!-- Generated by graphviz version 2.43.0 (0)
 -->
<!-- Title: printtree Pages: 1 -->
<svg width="383pt" height="50pt"
 viewBox="0.00 0.00 383.00 50.00" xmlns="http://www.w3.org/2000/svg" xmlns:xlink="http://www.w3.org/1999/xlink">
<g id="graph0" class="graph" transform="scale(1 1) rotate(0) translate(4 46)">
<title>printtree</title>
<polygon fill="white" stroke="transparent" points="-4,4 -4,-46 379,-46 379,4 -4,4"/>
<!-- Node1 -->
<g id="node1" class="node">
<title>Node1</title>
<g id="a_node1"><a xlink:title=" ">
<polygon fill="#bfbfbf" stroke="black" points="298,-0.5 298,-23.5 375,-23.5 375,-0.5 298,-0.5"/>
<text text-anchor="middle" x="336.5" y="-8.3" font-family="Helvetica,sans-Serif" font-size="14.00">printtree</text>
</a>
</g>
</g>
<!-- Node1&#45;&gt;Node1 -->
<g id="edge3" class="edge">
<title>Node1&#45;&gt;Node1</title>
<path fill="none" stroke="midnightblue" d="M361.79,-33.47C359.59,-38.39 351.16,-42 336.5,-42 313.05,-42 305.54,-32.76 313.97,-23.7"/>
<polygon fill="midnightblue" stroke="midnightblue" points="365.12,-32.38 359.03,-23.7 358.38,-34.28 365.12,-32.38"/>
</g>
<!-- Node2 -->
<g id="node2" class="node">
<title>Node2</title>
<g id="a_node2"><a xlink:href="../../dd/dad/parda__print_8c.html#ab48ab938b7bf88bafe3f62a501223e95" target="_top" xlink:title=" ">
<polygon fill="white" stroke="black" points="132,-0.5 132,-23.5 262,-23.5 262,-0.5 132,-0.5"/>
<text text-anchor="middle" x="197" y="-8.3" font-family="Helvetica,sans-Serif" font-size="14.00">parda_print_tree</text>
</a>
</g>
</g>
<!-- Node1&#45;&gt;Node2 -->
<g id="edge1" class="edge">
<title>Node1&#45;&gt;Node2</title>
<path fill="none" stroke="midnightblue" d="M287.76,-12C279.52,-12 270.83,-12 262.23,-12"/>
<polygon fill="midnightblue" stroke="midnightblue" points="287.93,-15.5 297.93,-12 287.93,-8.5 287.93,-15.5"/>
</g>
<!-- Node3 -->
<g id="node3" class="node">
<title>Node3</title>
<g id="a_node3"><a xlink:href="../../dd/dad/parda__print_8c.html#a3167143aad2db58a43433302ab5b0432" target="_top" xlink:title=" ">
<polygon fill="white" stroke="black" points="0,-0.5 0,-23.5 96,-23.5 96,-0.5 0,-0.5"/>
<text text-anchor="middle" x="48" y="-8.3" font-family="Helvetica,sans-Serif" font-size="14.00">parda_print</text>
</a>
</g>
</g>
<!-- Node2&#45;&gt;Node3 -->
<g id="edge2" class="edge">
<title>Node2&#45;&gt;Node3</title>
<path fill="none" stroke="midnightblue" d="M121.72,-12C112.98,-12 104.25,-12 96.04,-12"/>
<polygon fill="midnightblue" stroke="midnightblue" points="121.95,-15.5 131.95,-12 121.95,-8.5 121.95,-15.5"/>
</g>
</g>
</svg>
