<?xml version="1.0" encoding="UTF-8" standalone="no"?>
<!DOCTYPE svg PUBLIC "-//W3C//DTD SVG 1.1//EN"
 "http://www.w3.org/Graphics/SVG/1.1/DTD/svg11.dtd">
<!-- Generated by graphviz version 2.43.0 (0)
 -->
<!-- Title: printtree Pages: 1 -->
<svg width="198pt" height="50pt"
 viewBox="0.00 0.00 198.00 50.00" xmlns="http://www.w3.org/2000/svg" xmlns:xlink="http://www.w3.org/1999/xlink">
<g id="graph0" class="graph" transform="scale(1 1) rotate(0) translate(4 46)">
<title>printtree</title>
<polygon fill="white" stroke="transparent" points="-4,4 -4,-46 194,-46 194,4 -4,4"/>
<!-- Node1 -->
<g id="node1" class="node">
<title>Node1</title>
<g id="a_node1"><a xlink:title=" ">
<polygon fill="#bfbfbf" stroke="black" points="0,-0.5 0,-23.5 77,-23.5 77,-0.5 0,-0.5"/>
<text text-anchor="middle" x="38.5" y="-8.3" font-family="Helvetica,sans-Serif" font-size="14.00">printtree</text>
</a>
</g>
</g>
<!-- Node2 -->
<g id="node2" class="node">
<title>Node2</title>
<g id="a_node2"><a xlink:href="../../d1/df7/splay_8c.html#a6aad0c93712dcf637c21efdccd0f79b4" target="_top" xlink:title=" ">
<polygon fill="white" stroke="black" points="113,-0.5 113,-23.5 190,-23.5 190,-0.5 113,-0.5"/>
<text text-anchor="middle" x="151.5" y="-8.3" font-family="Helvetica,sans-Serif" font-size="14.00">printtree</text>
</a>
</g>
</g>
<!-- Node1&#45;&gt;Node2 -->
<g id="edge1" class="edge">
<title>Node1&#45;&gt;Node2</title>
<path fill="none" stroke="midnightblue" d="M77.08,-12C85.31,-12 94.12,-12 102.69,-12"/>
<polygon fill="midnightblue" stroke="midnightblue" points="102.96,-15.5 112.96,-12 102.96,-8.5 102.96,-15.5"/>
</g>
<!-- Node2&#45;&gt;Node2 -->
<g id="edge2" class="edge">
<title>Node2&#45;&gt;Node2</title>
<path fill="none" stroke="midnightblue" d="M133.21,-23.7C126.37,-32.76 132.47,-42 151.5,-42 163.39,-42 170.24,-38.39 172.03,-33.47"/>
<polygon fill="midnightblue" stroke="midnightblue" points="175.43,-32.67 169.79,-23.7 168.61,-34.23 175.43,-32.67"/>
</g>
</g>
</svg>
