<?xml version="1.0" encoding="UTF-8" standalone="no"?>
<!DOCTYPE svg PUBLIC "-//W3C//DTD SVG 1.1//EN"
 "http://www.w3.org/Graphics/SVG/1.1/DTD/svg11.dtd">
<!-- Generated by graphviz version 2.43.0 (0)
 -->
<!-- Title: PPT&#45;GPU/llvm_tool/mekong&#45;utils/src/BasicBlockEnumerator.cpp Pages: 1 -->
<svg width="741pt" height="167pt"
 viewBox="0.00 0.00 740.50 167.00" xmlns="http://www.w3.org/2000/svg" xmlns:xlink="http://www.w3.org/1999/xlink">
<g id="graph0" class="graph" transform="scale(1 1) rotate(0) translate(4 163)">
<title>PPT&#45;GPU/llvm_tool/mekong&#45;utils/src/BasicBlockEnumerator.cpp</title>
<polygon fill="white" stroke="transparent" points="-4,4 -4,-163 736.5,-163 736.5,4 -4,4"/>
<!-- Node1 -->
<g id="node1" class="node">
<title>Node1</title>
<g id="a_node1"><a xlink:title=" ">
<polygon fill="#bfbfbf" stroke="black" points="359.5,-120.5 359.5,-158.5 625.5,-158.5 625.5,-120.5 359.5,-120.5"/>
<text text-anchor="start" x="367.5" y="-143.3" font-family="Helvetica,sans-Serif" font-size="14.00">PPT&#45;GPU/llvm_tool/mekong</text>
<text text-anchor="middle" x="492.5" y="-128.3" font-family="Helvetica,sans-Serif" font-size="14.00">&#45;utils/src/BasicBlockEnumerator.cpp</text>
</a>
</g>
</g>
<!-- Node2 -->
<g id="node2" class="node">
<title>Node2</title>
<g id="a_node2"><a xlink:href="../../d9/dc8/BasicBlockEnumerator_8h.html" target="_top" xlink:title=" ">
<polygon fill="white" stroke="black" points="0,-60.5 0,-83.5 185,-83.5 185,-60.5 0,-60.5"/>
<text text-anchor="middle" x="92.5" y="-68.3" font-family="Helvetica,sans-Serif" font-size="14.00">BasicBlockEnumerator.h</text>
</a>
</g>
</g>
<!-- Node1&#45;&gt;Node2 -->
<g id="edge1" class="edge">
<title>Node1&#45;&gt;Node2</title>
<path fill="none" stroke="midnightblue" d="M382.4,-120.47C313.87,-109.25 227.54,-95.11 166.99,-85.2"/>
<polygon fill="midnightblue" stroke="midnightblue" points="167.18,-81.68 156.74,-83.52 166.05,-88.59 167.18,-81.68"/>
</g>
<!-- Node4 -->
<g id="node4" class="node">
<title>Node4</title>
<g id="a_node4"><a xlink:title=" ">
<polygon fill="white" stroke="#bfbfbf" points="203,-60.5 203,-83.5 368,-83.5 368,-60.5 203,-60.5"/>
<text text-anchor="middle" x="285.5" y="-68.3" font-family="Helvetica,sans-Serif" font-size="14.00">llvm/IR/Instructions.h</text>
</a>
</g>
</g>
<!-- Node1&#45;&gt;Node4 -->
<g id="edge3" class="edge">
<title>Node1&#45;&gt;Node4</title>
<path fill="none" stroke="midnightblue" d="M435.39,-120.43C401.59,-109.73 359.47,-96.41 328.49,-86.6"/>
<polygon fill="midnightblue" stroke="midnightblue" points="329.44,-83.23 318.85,-83.55 327.33,-89.91 329.44,-83.23"/>
</g>
<!-- Node5 -->
<g id="node5" class="node">
<title>Node5</title>
<g id="a_node5"><a xlink:title=" ">
<polygon fill="white" stroke="#bfbfbf" points="386.5,-60.5 386.5,-83.5 598.5,-83.5 598.5,-60.5 386.5,-60.5"/>
<text text-anchor="middle" x="492.5" y="-68.3" font-family="Helvetica,sans-Serif" font-size="14.00">llvm/Support/raw_ostream.h</text>
</a>
</g>
</g>
<!-- Node1&#45;&gt;Node5 -->
<g id="edge4" class="edge">
<title>Node1&#45;&gt;Node5</title>
<path fill="none" stroke="midnightblue" d="M492.5,-120.25C492.5,-112.04 492.5,-102.31 492.5,-93.81"/>
<polygon fill="midnightblue" stroke="midnightblue" points="496,-93.59 492.5,-83.59 489,-93.59 496,-93.59"/>
</g>
<!-- Node6 -->
<g id="node6" class="node">
<title>Node6</title>
<g id="a_node6"><a xlink:title=" ">
<polygon fill="white" stroke="#bfbfbf" points="616.5,-60.5 616.5,-83.5 676.5,-83.5 676.5,-60.5 616.5,-60.5"/>
<text text-anchor="middle" x="646.5" y="-68.3" font-family="Helvetica,sans-Serif" font-size="14.00">deque</text>
</a>
</g>
</g>
<!-- Node1&#45;&gt;Node6 -->
<g id="edge5" class="edge">
<title>Node1&#45;&gt;Node6</title>
<path fill="none" stroke="midnightblue" d="M534.99,-120.43C559.29,-110.09 589.38,-97.29 612.18,-87.6"/>
<polygon fill="midnightblue" stroke="midnightblue" points="613.63,-90.78 621.46,-83.65 610.89,-84.34 613.63,-90.78"/>
</g>
<!-- Node7 -->
<g id="node7" class="node">
<title>Node7</title>
<g id="a_node7"><a xlink:title=" ">
<polygon fill="white" stroke="#bfbfbf" points="694.5,-60.5 694.5,-83.5 732.5,-83.5 732.5,-60.5 694.5,-60.5"/>
<text text-anchor="middle" x="713.5" y="-68.3" font-family="Helvetica,sans-Serif" font-size="14.00">set</text>
</a>
</g>
</g>
<!-- Node1&#45;&gt;Node7 -->
<g id="edge6" class="edge">
<title>Node1&#45;&gt;Node7</title>
<path fill="none" stroke="midnightblue" d="M562.69,-120.48C597.08,-111.23 639.21,-99.27 684.58,-84.11"/>
<polygon fill="midnightblue" stroke="midnightblue" points="685.96,-87.34 694.31,-80.83 683.72,-80.71 685.96,-87.34"/>
</g>
<!-- Node3 -->
<g id="node3" class="node">
<title>Node3</title>
<g id="a_node3"><a xlink:title=" ">
<polygon fill="white" stroke="#bfbfbf" points="14,-0.5 14,-23.5 171,-23.5 171,-0.5 14,-0.5"/>
<text text-anchor="middle" x="92.5" y="-8.3" font-family="Helvetica,sans-Serif" font-size="14.00">llvm/IR/BasicBlock.h</text>
</a>
</g>
</g>
<!-- Node2&#45;&gt;Node3 -->
<g id="edge2" class="edge">
<title>Node2&#45;&gt;Node3</title>
<path fill="none" stroke="midnightblue" d="M92.5,-60.36C92.5,-52.92 92.5,-42.74 92.5,-33.73"/>
<polygon fill="midnightblue" stroke="midnightblue" points="96,-33.57 92.5,-23.57 89,-33.57 96,-33.57"/>
</g>
</g>
</svg>
