<?xml version="1.0" encoding="UTF-8" standalone="no"?>
<!DOCTYPE svg PUBLIC "-//W3C//DTD SVG 1.1//EN"
 "http://www.w3.org/Graphics/SVG/1.1/DTD/svg11.dtd">
<!-- Generated by graphviz version 2.43.0 (0)
 -->
<!-- Title: PPT&#45;GPU/llvm_tool/mekong&#45;utils/inc/x65599.h Pages: 1 -->
<svg width="209pt" height="122pt"
 viewBox="0.00 0.00 209.00 122.00" xmlns="http://www.w3.org/2000/svg" xmlns:xlink="http://www.w3.org/1999/xlink">
<g id="graph0" class="graph" transform="scale(1 1) rotate(0) translate(4 118)">
<title>PPT&#45;GPU/llvm_tool/mekong&#45;utils/inc/x65599.h</title>
<polygon fill="white" stroke="transparent" points="-4,4 -4,-118 205,-118 205,4 -4,4"/>
<!-- Node1 -->
<g id="node1" class="node">
<title>Node1</title>
<g id="a_node1"><a xlink:title=" ">
<polygon fill="#bfbfbf" stroke="black" points="0,-75.5 0,-113.5 201,-113.5 201,-75.5 0,-75.5"/>
<text text-anchor="start" x="8" y="-98.3" font-family="Helvetica,sans-Serif" font-size="14.00">PPT&#45;GPU/llvm_tool/mekong</text>
<text text-anchor="middle" x="100.5" y="-83.3" font-family="Helvetica,sans-Serif" font-size="14.00">&#45;utils/inc/x65599.h</text>
</a>
</g>
</g>
<!-- Node2 -->
<g id="node2" class="node">
<title>Node2</title>
<g id="a_node2"><a xlink:href="../../d9/d85/IRUtils_8cpp.html" target="_top" xlink:title=" ">
<polygon fill="white" stroke="black" points="0,-0.5 0,-38.5 201,-38.5 201,-0.5 0,-0.5"/>
<text text-anchor="start" x="8" y="-23.3" font-family="Helvetica,sans-Serif" font-size="14.00">PPT&#45;GPU/llvm_tool/mekong</text>
<text text-anchor="middle" x="100.5" y="-8.3" font-family="Helvetica,sans-Serif" font-size="14.00">&#45;utils/src/IRUtils.cpp</text>
</a>
</g>
</g>
<!-- Node1&#45;&gt;Node2 -->
<g id="edge1" class="edge">
<title>Node1&#45;&gt;Node2</title>
<path fill="none" stroke="midnightblue" d="M100.5,-65.37C100.5,-56.38 100.5,-46.67 100.5,-38.59"/>
<polygon fill="midnightblue" stroke="midnightblue" points="97,-65.46 100.5,-75.46 104,-65.46 97,-65.46"/>
</g>
</g>
</svg>
