<?xml version="1.0" encoding="UTF-8" standalone="no"?>
<!DOCTYPE svg PUBLIC "-//W3C//DTD SVG 1.1//EN"
 "http://www.w3.org/Graphics/SVG/1.1/DTD/svg11.dtd">
<!-- Generated by graphviz version 2.43.0 (0)
 -->
<!-- Title: FluxHostPass::runOnModule Pages: 1 -->
<svg width="1289pt" height="385pt"
 viewBox="0.00 0.00 1289.00 385.00" xmlns="http://www.w3.org/2000/svg" xmlns:xlink="http://www.w3.org/1999/xlink">
<g id="graph0" class="graph" transform="scale(1 1) rotate(0) translate(4 381)">
<title>FluxHostPass::runOnModule</title>
<polygon fill="white" stroke="transparent" points="-4,4 -4,-381 1285,-381 1285,4 -4,4"/>
<!-- Node1 -->
<g id="node1" class="node">
<title>Node1</title>
<g id="a_node1"><a xlink:title=" ">
<polygon fill="#bfbfbf" stroke="black" points="0,-189.5 0,-212.5 212,-212.5 212,-189.5 0,-189.5"/>
<text text-anchor="middle" x="106" y="-197.3" font-family="Helvetica,sans-Serif" font-size="14.00">FluxHostPass::runOnModule</text>
</a>
</g>
</g>
<!-- Node2 -->
<g id="node2" class="node">
<title>Node2</title>
<g id="a_node2"><a xlink:href="../../d3/dcd/namespacemekong.html#a1a7b5b753d9609d140a933b933905a5e" target="_top" xlink:title=" ">
<polygon fill="white" stroke="black" points="248.5,-353.5 248.5,-376.5 477.5,-376.5 477.5,-353.5 248.5,-353.5"/>
<text text-anchor="middle" x="363" y="-361.3" font-family="Helvetica,sans-Serif" font-size="14.00">mekong::createGlobalStringPtr</text>
</a>
</g>
</g>
<!-- Node1&#45;&gt;Node2 -->
<g id="edge1" class="edge">
<title>Node1&#45;&gt;Node2</title>
<path fill="none" stroke="midnightblue" d="M114.59,-212.59C133.44,-240.36 185.46,-310.86 248,-344 252.22,-346.24 256.64,-348.24 261.19,-350.03"/>
<polygon fill="midnightblue" stroke="midnightblue" points="260.08,-353.35 270.67,-353.43 262.44,-346.76 260.08,-353.35"/>
</g>
<!-- Node4 -->
<g id="node4" class="node">
<title>Node4</title>
<g id="a_node4"><a xlink:href="../../d3/dcd/namespacemekong.html#aae5189d202110ef84f117c670e21a99d" target="_top" xlink:title=" ">
<polygon fill="white" stroke="black" points="249.5,-311.5 249.5,-334.5 476.5,-334.5 476.5,-311.5 249.5,-311.5"/>
<text text-anchor="middle" x="363" y="-319.3" font-family="Helvetica,sans-Serif" font-size="14.00">mekong::createKernelWrapper</text>
</a>
</g>
</g>
<!-- Node1&#45;&gt;Node4 -->
<g id="edge3" class="edge">
<title>Node1&#45;&gt;Node4</title>
<path fill="none" stroke="midnightblue" d="M120.38,-212.69C144.29,-232.97 196.69,-274.64 248,-297 258.83,-301.72 270.63,-305.64 282.4,-308.87"/>
<polygon fill="midnightblue" stroke="midnightblue" points="281.69,-312.31 292.25,-311.44 283.45,-305.53 281.69,-312.31"/>
</g>
<!-- Node5 -->
<g id="node5" class="node">
<title>Node5</title>
<g id="a_node5"><a xlink:href="../../d3/dcd/namespacemekong.html#af67b4e2092df28422232475f7b5b7b2a" target="_top" xlink:title=" ">
<polygon fill="white" stroke="black" points="792,-82.5 792,-105.5 1009,-105.5 1009,-82.5 792,-82.5"/>
<text text-anchor="middle" x="900.5" y="-90.3" font-family="Helvetica,sans-Serif" font-size="14.00">mekong::getKernelConfigCall</text>
</a>
</g>
</g>
<!-- Node1&#45;&gt;Node5 -->
<g id="edge4" class="edge">
<title>Node1&#45;&gt;Node5</title>
<path fill="none" stroke="midnightblue" d="M126.18,-212.73C152.51,-228.07 201.85,-254.16 248,-264 347.97,-285.32 376.88,-278.94 478,-264 605.69,-245.13 637.97,-232.24 756,-180 799.86,-160.59 846.84,-130.44 874.67,-111.48"/>
<polygon fill="midnightblue" stroke="midnightblue" points="876.75,-114.3 883.01,-105.74 872.78,-108.53 876.75,-114.3"/>
</g>
<!-- Node7 -->
<g id="node7" class="node">
<title>Node7</title>
<g id="a_node7"><a xlink:href="../../d3/dcd/namespacemekong.html#acfd248f7438e5605c69d142f8bfa1e6d" target="_top" xlink:title=" ">
<polygon fill="white" stroke="black" points="250,-231.5 250,-254.5 476,-254.5 476,-231.5 250,-231.5"/>
<text text-anchor="middle" x="363" y="-239.3" font-family="Helvetica,sans-Serif" font-size="14.00">mekong::getKernelDescriptors</text>
</a>
</g>
</g>
<!-- Node1&#45;&gt;Node7 -->
<g id="edge6" class="edge">
<title>Node1&#45;&gt;Node7</title>
<path fill="none" stroke="midnightblue" d="M177.02,-212.53C209.49,-217.88 248.25,-224.26 281.88,-229.8"/>
<polygon fill="midnightblue" stroke="midnightblue" points="281.7,-233.32 292.14,-231.49 282.84,-226.41 281.7,-233.32"/>
</g>
<!-- Node8 -->
<g id="node8" class="node">
<title>Node8</title>
<g id="a_node8"><a xlink:href="../../d3/dcd/namespacemekong.html#a3828496880960202cdb6218dbba7acc1" target="_top" xlink:title=" ">
<polygon fill="white" stroke="black" points="248,-189.5 248,-212.5 478,-212.5 478,-189.5 248,-189.5"/>
<text text-anchor="middle" x="363" y="-197.3" font-family="Helvetica,sans-Serif" font-size="14.00">mekong::getKernelLaunchSites</text>
</a>
</g>
</g>
<!-- Node1&#45;&gt;Node8 -->
<g id="edge7" class="edge">
<title>Node1&#45;&gt;Node8</title>
<path fill="none" stroke="midnightblue" d="M212.19,-201C220.67,-201 229.29,-201 237.88,-201"/>
<polygon fill="midnightblue" stroke="midnightblue" points="237.95,-204.5 247.95,-201 237.95,-197.5 237.95,-204.5"/>
</g>
<!-- Node9 -->
<g id="node9" class="node">
<title>Node9</title>
<g id="a_node9"><a xlink:href="../../d3/dcd/namespacemekong.html#a4d2a109ee246b5b72d6f02bd022443d0" target="_top" xlink:title="===&#45;&#45;&#45;&#45;&#45;&#45;&#45;&#45;&#45;&#45;&#45;&#45;&#45;&#45;&#45;&#45;&#45;&#45;&#45;&#45;&#45;&#45;&#45;&#45;&#45;&#45;&#45;&#45;&#45;&#45;&#45;&#45;&#45;&#45;&#45;&#45;&#45;&#45;&#45;&#45;&#45;&#45;&#45;&#45;&#45;&#45;&#45;&#45;&#45;&#45;&#45;&#45;&#45;&#45;&#45;&#45;&#45;&#45;&#45;&#45;&#45;&#45;&#45;—===// Utility Functions ===&#45;&#45;&#45;&#45;&#45;&#45;&#45;...">
<polygon fill="white" stroke="black" points="266.5,-147.5 266.5,-170.5 459.5,-170.5 459.5,-147.5 266.5,-147.5"/>
<text text-anchor="middle" x="363" y="-155.3" font-family="Helvetica,sans-Serif" font-size="14.00">mekong::getModulePrefix</text>
</a>
</g>
</g>
<!-- Node1&#45;&gt;Node9 -->
<g id="edge8" class="edge">
<title>Node1&#45;&gt;Node9</title>
<path fill="none" stroke="midnightblue" d="M177.02,-189.47C209.49,-184.12 248.25,-177.74 281.88,-172.2"/>
<polygon fill="midnightblue" stroke="midnightblue" points="282.84,-175.59 292.14,-170.51 281.7,-168.68 282.84,-175.59"/>
</g>
<!-- Node11 -->
<g id="node11" class="node">
<title>Node11</title>
<g id="a_node11"><a xlink:href="../../d3/dcd/namespacemekong.html#afa5bc629abb1ec6f490e28d93480e67b" target="_top" xlink:title=" ">
<polygon fill="white" stroke="black" points="303,-105.5 303,-128.5 423,-128.5 423,-105.5 303,-105.5"/>
<text text-anchor="middle" x="363" y="-113.3" font-family="Helvetica,sans-Serif" font-size="14.00">mekong::linkIR</text>
</a>
</g>
</g>
<!-- Node1&#45;&gt;Node11 -->
<g id="edge10" class="edge">
<title>Node1&#45;&gt;Node11</title>
<path fill="none" stroke="midnightblue" d="M128.83,-189.27C156.01,-175.14 204.22,-151.6 248,-138 262.21,-133.59 277.72,-129.97 292.6,-127.06"/>
<polygon fill="midnightblue" stroke="midnightblue" points="293.58,-130.44 302.77,-125.16 292.3,-123.55 293.58,-130.44"/>
</g>
<!-- Node12 -->
<g id="node12" class="node">
<title>Node12</title>
<g id="a_node12"><a xlink:href="../../d3/dcd/namespacemekong.html#a6708fc3d22a5b474f244577439f3ba13" target="_top" xlink:title="===&#45;&#45;&#45;&#45;&#45;&#45;&#45;&#45;&#45;&#45;&#45;&#45;&#45;&#45;&#45;&#45;&#45;&#45;&#45;&#45;&#45;&#45;&#45;&#45;&#45;&#45;&#45;&#45;&#45;&#45;&#45;&#45;&#45;&#45;&#45;&#45;&#45;&#45;&#45;&#45;&#45;&#45;&#45;&#45;&#45;&#45;&#45;&#45;&#45;&#45;&#45;&#45;&#45;&#45;&#45;&#45;&#45;&#45;&#45;&#45;&#45;&#45;&#45;—===// Transformation Functions ===...">
<polygon fill="white" stroke="black" points="274.5,-63.5 274.5,-86.5 451.5,-86.5 451.5,-63.5 274.5,-63.5"/>
<text text-anchor="middle" x="363" y="-71.3" font-family="Helvetica,sans-Serif" font-size="14.00">mekong::registerKernel</text>
</a>
</g>
</g>
<!-- Node1&#45;&gt;Node12 -->
<g id="edge11" class="edge">
<title>Node1&#45;&gt;Node12</title>
<path fill="none" stroke="midnightblue" d="M118.6,-189.33C141.28,-167.27 194,-119.54 248,-96 253.69,-93.52 259.66,-91.33 265.77,-89.4"/>
<polygon fill="midnightblue" stroke="midnightblue" points="266.83,-92.74 275.45,-86.58 264.87,-86.02 266.83,-92.74"/>
</g>
<!-- Node13 -->
<g id="node13" class="node">
<title>Node13</title>
<g id="a_node13"><a xlink:href="../../d3/dcd/namespacemekong.html#a01e8a712eb01b37eaec66af5858a43d3" target="_top" xlink:title=" ">
<polygon fill="white" stroke="black" points="251,-21.5 251,-44.5 475,-44.5 475,-21.5 251,-21.5"/>
<text text-anchor="middle" x="363" y="-29.3" font-family="Helvetica,sans-Serif" font-size="14.00">mekong::replaceKernelLaunch</text>
</a>
</g>
</g>
<!-- Node1&#45;&gt;Node13 -->
<g id="edge12" class="edge">
<title>Node1&#45;&gt;Node13</title>
<path fill="none" stroke="midnightblue" d="M114.5,-189.09C133.17,-160.53 184.8,-88.05 248,-54 252.05,-51.82 256.28,-49.86 260.63,-48.1"/>
<polygon fill="midnightblue" stroke="midnightblue" points="262.13,-51.28 270.32,-44.56 259.73,-44.71 262.13,-51.28"/>
</g>
<!-- Node3 -->
<g id="node3" class="node">
<title>Node3</title>
<g id="a_node3"><a xlink:href="../../d3/dcd/namespacemekong.html#aba9291373b94a4f20bd89da868f36897" target="_top" xlink:title="===&#45;&#45;&#45;&#45;&#45;&#45;&#45;&#45;&#45;&#45;&#45;&#45;&#45;&#45;&#45;&#45;&#45;&#45;&#45;&#45;&#45;&#45;&#45;&#45;&#45;&#45;&#45;&#45;&#45;&#45;&#45;&#45;&#45;&#45;&#45;&#45;&#45;&#45;&#45;&#45;&#45;&#45;&#45;&#45;&#45;&#45;&#45;&#45;&#45;&#45;&#45;&#45;&#45;&#45;&#45;&#45;&#45;&#45;&#45;&#45;&#45;&#45;&#45;—===// Analysis Functions ===&#45;&#45;&#45;&#45;&#45;&#45;...">
<polygon fill="white" stroke="black" points="530.5,-353.5 530.5,-376.5 739.5,-376.5 739.5,-353.5 530.5,-353.5"/>
<text text-anchor="middle" x="635" y="-361.3" font-family="Helvetica,sans-Serif" font-size="14.00">mekong::createGlobalString</text>
</a>
</g>
</g>
<!-- Node2&#45;&gt;Node3 -->
<g id="edge2" class="edge">
<title>Node2&#45;&gt;Node3</title>
<path fill="none" stroke="midnightblue" d="M477.72,-365C491.75,-365 506.1,-365 520.14,-365"/>
<polygon fill="midnightblue" stroke="midnightblue" points="520.29,-368.5 530.29,-365 520.29,-361.5 520.29,-368.5"/>
</g>
<!-- Node6 -->
<g id="node6" class="node">
<title>Node6</title>
<g id="a_node6"><a xlink:href="../../d3/dcd/namespacemekong.html#a8f87fb13cab87dec23b45604bb3e4143" target="_top" xlink:title="===&#45;&#45;&#45;&#45;&#45;&#45;&#45;&#45;&#45;&#45;&#45;&#45;&#45;&#45;&#45;&#45;&#45;&#45;&#45;&#45;&#45;&#45;&#45;&#45;&#45;&#45;&#45;&#45;&#45;&#45;&#45;&#45;&#45;&#45;&#45;&#45;&#45;&#45;&#45;&#45;&#45;&#45;&#45;&#45;&#45;&#45;&#45;&#45;&#45;&#45;&#45;&#45;&#45;&#45;&#45;&#45;&#45;&#45;&#45;&#45;&#45;&#45;&#45;—===// Analysis Functions ===&#45;&#45;&#45;&#45;&#45;&#45;...">
<polygon fill="white" stroke="black" points="1045,-82.5 1045,-105.5 1281,-105.5 1281,-82.5 1045,-82.5"/>
<text text-anchor="middle" x="1163" y="-90.3" font-family="Helvetica,sans-Serif" font-size="14.00">mekong::usesNewKernelLaunch</text>
</a>
</g>
</g>
<!-- Node5&#45;&gt;Node6 -->
<g id="edge5" class="edge">
<title>Node5&#45;&gt;Node6</title>
<path fill="none" stroke="midnightblue" d="M1009.34,-94C1017.79,-94 1026.37,-94 1034.93,-94"/>
<polygon fill="midnightblue" stroke="midnightblue" points="1034.96,-97.5 1044.96,-94 1034.96,-90.5 1034.96,-97.5"/>
</g>
<!-- Node10 -->
<g id="node10" class="node">
<title>Node10</title>
<g id="a_node10"><a xlink:href="../../da/d38/x65599_8h.html#abc38f406ef9bc26963ae3e5e8220d60d" target="_top" xlink:title=" ">
<polygon fill="white" stroke="black" points="578,-147.5 578,-170.5 692,-170.5 692,-147.5 578,-147.5"/>
<text text-anchor="middle" x="635" y="-155.3" font-family="Helvetica,sans-Serif" font-size="14.00">generateHash</text>
</a>
</g>
</g>
<!-- Node9&#45;&gt;Node10 -->
<g id="edge9" class="edge">
<title>Node9&#45;&gt;Node10</title>
<path fill="none" stroke="midnightblue" d="M459.57,-159C495.3,-159 535.06,-159 567.59,-159"/>
<polygon fill="midnightblue" stroke="midnightblue" points="567.89,-162.5 577.89,-159 567.89,-155.5 567.89,-162.5"/>
</g>
<!-- Node13&#45;&gt;Node5 -->
<g id="edge14" class="edge">
<title>Node13&#45;&gt;Node5</title>
<path fill="none" stroke="midnightblue" d="M445.89,-44.53C456.85,-47.1 467.81,-50.22 478,-54 495.37,-60.44 496.24,-69.73 514,-75 600.99,-100.83 703.82,-104.65 781.39,-102.52"/>
<polygon fill="midnightblue" stroke="midnightblue" points="781.79,-106.01 791.68,-102.2 781.58,-99.01 781.79,-106.01"/>
</g>
<!-- Node14 -->
<g id="node14" class="node">
<title>Node14</title>
<g id="a_node14"><a xlink:href="../../d3/dcd/namespacemekong.html#aecdc3c3f20e388e917fc8267ffbbe623" target="_top" xlink:title=" ">
<polygon fill="white" stroke="black" points="523.5,-42.5 523.5,-65.5 746.5,-65.5 746.5,-42.5 523.5,-42.5"/>
<text text-anchor="middle" x="635" y="-50.3" font-family="Helvetica,sans-Serif" font-size="14.00">mekong::getKernelArguments</text>
</a>
</g>
</g>
<!-- Node13&#45;&gt;Node14 -->
<g id="edge13" class="edge">
<title>Node13&#45;&gt;Node14</title>
<path fill="none" stroke="midnightblue" d="M475.38,-41.66C487.87,-42.63 500.64,-43.63 513.25,-44.61"/>
<polygon fill="midnightblue" stroke="midnightblue" points="513.07,-48.1 523.31,-45.39 513.61,-41.13 513.07,-48.1"/>
</g>
<!-- Node15 -->
<g id="node15" class="node">
<title>Node15</title>
<g id="a_node15"><a xlink:href="../../d3/dcd/namespacemekong.html#a7fde4a8fee11ca20a1bf7a7fbc2cd8a6" target="_top" xlink:title=" ">
<polygon fill="white" stroke="black" points="514,-0.5 514,-23.5 756,-23.5 756,-0.5 514,-0.5"/>
<text text-anchor="middle" x="635" y="-8.3" font-family="Helvetica,sans-Serif" font-size="14.00">mekong::getKernelLaunchConfig</text>
</a>
</g>
</g>
<!-- Node13&#45;&gt;Node15 -->
<g id="edge15" class="edge">
<title>Node13&#45;&gt;Node15</title>
<path fill="none" stroke="midnightblue" d="M475.38,-24.34C484.66,-23.62 494.09,-22.88 503.5,-22.15"/>
<polygon fill="midnightblue" stroke="midnightblue" points="503.99,-25.62 513.69,-21.36 503.44,-18.64 503.99,-25.62"/>
</g>
<!-- Node15&#45;&gt;Node5 -->
<g id="edge16" class="edge">
<title>Node15&#45;&gt;Node5</title>
<path fill="none" stroke="midnightblue" d="M716.95,-23.56C730.12,-26.18 743.53,-29.31 756,-33 795.65,-44.73 839.07,-64.17 867.64,-77.96"/>
<polygon fill="midnightblue" stroke="midnightblue" points="866.22,-81.15 876.74,-82.39 869.28,-74.86 866.22,-81.15"/>
</g>
</g>
</svg>
