<?xml version="1.0" encoding="UTF-8" standalone="no"?>
<!DOCTYPE svg PUBLIC "-//W3C//DTD SVG 1.1//EN"
 "http://www.w3.org/Graphics/SVG/1.1/DTD/svg11.dtd">
<!-- Generated by graphviz version 2.43.0 (0)
 -->
<!-- Title: cuLaunchKernel_params_st Pages: 1 -->
<svg width="213pt" height="122pt"
 viewBox="0.00 0.00 213.00 122.00" xmlns="http://www.w3.org/2000/svg" xmlns:xlink="http://www.w3.org/1999/xlink">
<g id="graph0" class="graph" transform="scale(1 1) rotate(0) translate(4 118)">
<title>cuLaunchKernel_params_st</title>
<polygon fill="white" stroke="transparent" points="-4,4 -4,-118 209,-118 209,4 -4,4"/>
<!-- Node1 -->
<g id="node1" class="node">
<title>Node1</title>
<g id="a_node1"><a xlink:title=" ">
<polygon fill="#bfbfbf" stroke="black" points="0,-0.5 0,-23.5 205,-23.5 205,-0.5 0,-0.5"/>
<text text-anchor="middle" x="102.5" y="-8.3" font-family="Helvetica,sans-Serif" font-size="14.00">cuLaunchKernel_params_st</text>
</a>
</g>
</g>
<!-- Node2 -->
<g id="node2" class="node">
<title>Node2</title>
<g id="a_node2"><a xlink:title=" ">
<polygon fill="white" stroke="#bfbfbf" points="74,-90.5 74,-113.5 131,-113.5 131,-90.5 74,-90.5"/>
<text text-anchor="middle" x="102.5" y="-98.3" font-family="Helvetica,sans-Serif" font-size="14.00">struct</text>
</a>
</g>
</g>
<!-- Node2&#45;&gt;Node1 -->
<g id="edge1" class="edge">
<title>Node2&#45;&gt;Node1</title>
<path fill="none" stroke="#9a32cd" stroke-dasharray="5,2" d="M102.5,-79.96C102.5,-62.2 102.5,-37.5 102.5,-23.6"/>
<polygon fill="#9a32cd" stroke="#9a32cd" points="99,-80.21 102.5,-90.21 106,-80.21 99,-80.21"/>
<text text-anchor="middle" x="132" y="-60.8" font-family="Helvetica,sans-Serif" font-size="14.00"> f</text>
<text text-anchor="middle" x="132" y="-45.8" font-family="Helvetica,sans-Serif" font-size="14.00">hStream</text>
</g>
</g>
</svg>
