<?xml version="1.0" encoding="UTF-8" standalone="no"?>
<!DOCTYPE svg PUBLIC "-//W3C//DTD SVG 1.1//EN"
 "http://www.w3.org/Graphics/SVG/1.1/DTD/svg11.dtd">
<!-- Generated by graphviz version 2.43.0 (0)
 -->
<!-- Title: src.helper_methods.dump_output Pages: 1 -->
<svg width="482pt" height="90pt"
 viewBox="0.00 0.00 482.00 89.50" xmlns="http://www.w3.org/2000/svg" xmlns:xlink="http://www.w3.org/1999/xlink">
<g id="graph0" class="graph" transform="scale(1 1) rotate(0) translate(4 85.5)">
<title>src.helper_methods.dump_output</title>
<polygon fill="white" stroke="transparent" points="-4,4 -4,-85.5 478,-85.5 478,4 -4,4"/>
<!-- Node1 -->
<g id="node1" class="node">
<title>Node1</title>
<g id="a_node1"><a xlink:title=" ">
<polygon fill="#bfbfbf" stroke="black" points="0,-25.5 0,-63.5 198,-63.5 198,-25.5 0,-25.5"/>
<text text-anchor="start" x="8" y="-48.3" font-family="Helvetica,sans-Serif" font-size="14.00">src.helper_methods.dump</text>
<text text-anchor="middle" x="99" y="-33.3" font-family="Helvetica,sans-Serif" font-size="14.00">_output</text>
</a>
</g>
</g>
<!-- Node2 -->
<g id="node2" class="node">
<title>Node2</title>
<g id="a_node2"><a xlink:href="../../db/dd9/namespacesrc_1_1helper__methods.html#a98a286a57a703d618a2379389654ac00" target="_top" xlink:title=" ">
<polygon fill="white" stroke="black" points="234,-58 234,-81 474,-81 474,-58 234,-58"/>
<text text-anchor="middle" x="354" y="-65.8" font-family="Helvetica,sans-Serif" font-size="14.00">src.helper_methods.convert_sec</text>
</a>
</g>
</g>
<!-- Node1&#45;&gt;Node2 -->
<g id="edge1" class="edge">
<title>Node1&#45;&gt;Node2</title>
<path fill="none" stroke="midnightblue" d="M198.18,-54.2C207.36,-55.11 216.75,-56.04 226.14,-56.96"/>
<polygon fill="midnightblue" stroke="midnightblue" points="226.03,-60.47 236.33,-57.97 226.72,-53.5 226.03,-60.47"/>
</g>
<!-- Node3 -->
<g id="node3" class="node">
<title>Node3</title>
<g id="a_node3"><a xlink:href="../../db/dd9/namespacesrc_1_1helper__methods.html#ac1a37d6a6c9bf80123c1e1761349484b" target="_top" xlink:title=" ">
<polygon fill="white" stroke="black" points="257,-0.5 257,-38.5 451,-38.5 451,-0.5 257,-0.5"/>
<text text-anchor="start" x="265" y="-23.3" font-family="Helvetica,sans-Serif" font-size="14.00">src.helper_methods.place</text>
<text text-anchor="middle" x="354" y="-8.3" font-family="Helvetica,sans-Serif" font-size="14.00">_value</text>
</a>
</g>
</g>
<!-- Node1&#45;&gt;Node3 -->
<g id="edge2" class="edge">
<title>Node1&#45;&gt;Node3</title>
<path fill="none" stroke="midnightblue" d="M198.18,-34.8C214.17,-33.22 230.79,-31.58 246.96,-29.98"/>
<polygon fill="midnightblue" stroke="midnightblue" points="247.35,-33.46 256.96,-28.99 246.66,-26.49 247.35,-33.46"/>
</g>
</g>
</svg>
