<?xml version="1.0" encoding="UTF-8" standalone="no"?>
<!DOCTYPE svg PUBLIC "-//W3C//DTD SVG 1.1//EN"
 "http://www.w3.org/Graphics/SVG/1.1/DTD/svg11.dtd">
<!-- Generated by graphviz version 2.43.0 (0)
 -->
<!-- Title: src.helper_methods.ncr Pages: 1 -->
<svg width="351pt" height="32pt"
 viewBox="0.00 0.00 351.00 32.00" xmlns="http://www.w3.org/2000/svg" xmlns:xlink="http://www.w3.org/1999/xlink">
<g id="graph0" class="graph" transform="scale(1 1) rotate(0) translate(4 28)">
<title>src.helper_methods.ncr</title>
<polygon fill="white" stroke="transparent" points="-4,4 -4,-28 347,-28 347,4 -4,4"/>
<!-- Node1 -->
<g id="node1" class="node">
<title>Node1</title>
<g id="a_node1"><a xlink:title=" ">
<polygon fill="#bfbfbf" stroke="black" points="0,-0.5 0,-23.5 180,-23.5 180,-0.5 0,-0.5"/>
<text text-anchor="middle" x="90" y="-8.3" font-family="Helvetica,sans-Serif" font-size="14.00">src.helper_methods.ncr</text>
</a>
</g>
</g>
<!-- Node2 -->
<g id="node2" class="node">
<title>Node2</title>
<g id="a_node2"><a xlink:href="../../da/de5/hostRuntime_8cpp.html#a81829bc9409ba547a37b7bd606db7dbc" target="_top" xlink:title=" ">
<polygon fill="white" stroke="black" points="216,-0.5 216,-23.5 245,-23.5 245,-0.5 216,-0.5"/>
<text text-anchor="middle" x="230.5" y="-8.3" font-family="Helvetica,sans-Serif" font-size="14.00">if</text>
</a>
</g>
</g>
<!-- Node1&#45;&gt;Node2 -->
<g id="edge1" class="edge">
<title>Node1&#45;&gt;Node2</title>
<path fill="none" stroke="midnightblue" d="M180.28,-12C189.46,-12 198.12,-12 205.54,-12"/>
<polygon fill="midnightblue" stroke="midnightblue" points="205.77,-15.5 215.77,-12 205.77,-8.5 205.77,-15.5"/>
</g>
<!-- Node3 -->
<g id="node3" class="node">
<title>Node3</title>
<g id="a_node3"><a xlink:href="../../da/de5/hostRuntime_8cpp.html#af14875acb7c97d86eb96861ee7922606" target="_top" xlink:title=" ">
<polygon fill="white" stroke="black" points="281,-0.5 281,-23.5 343,-23.5 343,-0.5 281,-0.5"/>
<text text-anchor="middle" x="312" y="-8.3" font-family="Helvetica,sans-Serif" font-size="14.00">output</text>
</a>
</g>
</g>
<!-- Node2&#45;&gt;Node3 -->
<g id="edge2" class="edge">
<title>Node2&#45;&gt;Node3</title>
<path fill="none" stroke="midnightblue" d="M245.35,-12C252.46,-12 261.53,-12 270.64,-12"/>
<polygon fill="midnightblue" stroke="midnightblue" points="270.85,-15.5 280.85,-12 270.85,-8.5 270.85,-15.5"/>
</g>
</g>
</svg>
