<?xml version="1.0" encoding="UTF-8" standalone="no"?>
<!DOCTYPE svg PUBLIC "-//W3C//DTD SVG 1.1//EN"
 "http://www.w3.org/Graphics/SVG/1.1/DTD/svg11.dtd">
<!-- Generated by graphviz version 2.43.0 (0)
 -->
<!-- Title: src.helper_methods.convert_sec Pages: 1 -->
<svg width="733pt" height="47pt"
 viewBox="0.00 0.00 733.00 47.00" xmlns="http://www.w3.org/2000/svg" xmlns:xlink="http://www.w3.org/1999/xlink">
<g id="graph0" class="graph" transform="scale(1 1) rotate(0) translate(4 43)">
<title>src.helper_methods.convert_sec</title>
<polygon fill="white" stroke="transparent" points="-4,4 -4,-43 729,-43 729,4 -4,4"/>
<!-- Node1 -->
<g id="node1" class="node">
<title>Node1</title>
<g id="a_node1"><a xlink:title=" ">
<polygon fill="#bfbfbf" stroke="black" points="485,-8 485,-31 725,-31 725,-8 485,-8"/>
<text text-anchor="middle" x="605" y="-15.8" font-family="Helvetica,sans-Serif" font-size="14.00">src.helper_methods.convert_sec</text>
</a>
</g>
</g>
<!-- Node2 -->
<g id="node2" class="node">
<title>Node2</title>
<g id="a_node2"><a xlink:href="../../db/dd9/namespacesrc_1_1helper__methods.html#ac0d3b86d6104d92062ef1ff28600b10b" target="_top" xlink:title=" ">
<polygon fill="white" stroke="black" points="251,-0.5 251,-38.5 449,-38.5 449,-0.5 251,-0.5"/>
<text text-anchor="start" x="259" y="-23.3" font-family="Helvetica,sans-Serif" font-size="14.00">src.helper_methods.dump</text>
<text text-anchor="middle" x="350" y="-8.3" font-family="Helvetica,sans-Serif" font-size="14.00">_output</text>
</a>
</g>
</g>
<!-- Node1&#45;&gt;Node2 -->
<g id="edge1" class="edge">
<title>Node1&#45;&gt;Node2</title>
<path fill="none" stroke="midnightblue" d="M474.84,-19.5C466.26,-19.5 457.7,-19.5 449.31,-19.5"/>
<polygon fill="midnightblue" stroke="midnightblue" points="474.91,-23 484.91,-19.5 474.91,-16 474.91,-23"/>
</g>
<!-- Node3 -->
<g id="node3" class="node">
<title>Node3</title>
<g id="a_node3"><a xlink:href="../../dd/d03/classsrc_1_1kernels_1_1Kernel.html#a6e36826a0e520a03aea969b4c4b420aa" target="_top" xlink:title=" ">
<polygon fill="white" stroke="black" points="0,-8 0,-31 215,-31 215,-8 0,-8"/>
<text text-anchor="middle" x="107.5" y="-15.8" font-family="Helvetica,sans-Serif" font-size="14.00">src.kernels.Kernel.kernel_call</text>
</a>
</g>
</g>
<!-- Node2&#45;&gt;Node3 -->
<g id="edge2" class="edge">
<title>Node2&#45;&gt;Node3</title>
<path fill="none" stroke="midnightblue" d="M240.63,-19.5C232.23,-19.5 223.75,-19.5 215.36,-19.5"/>
<polygon fill="midnightblue" stroke="midnightblue" points="240.83,-23 250.83,-19.5 240.83,-16 240.83,-23"/>
</g>
</g>
</svg>
