<?xml version="1.0" encoding="UTF-8" standalone="no"?>
<!DOCTYPE svg PUBLIC "-//W3C//DTD SVG 1.1//EN"
 "http://www.w3.org/Graphics/SVG/1.1/DTD/svg11.dtd">
<!-- Generated by graphviz version 2.43.0 (0)
 -->
<!-- Title: PPT&#45;GPU/reuse_distance_tool/main.c Pages: 1 -->
<!--zoomable 287 -->
<svg id="main" version="1.1" xmlns="http://www.w3.org/2000/svg" xmlns:xlink="http://www.w3.org/1999/xlink" xml:space="preserve" onload="init(evt)">
<style type="text/css"><![CDATA[
.edge:hover path { stroke: red; }
.edge:hover polygon { stroke: red; fill: red; }
]]></style>
<script type="text/javascript"><![CDATA[
var edges = document.getElementsByTagName('g');
if (edges && edges.length) {
  for (var i=0;i<edges.length;i++) {
    if (edges[i].id.substr(0,4)=='edge') {
      edges[i].setAttribute('class','edge');
    }
  }
}
]]></script>
        <defs>
                <circle id="rim" cx="0" cy="0" r="7"/>
                <circle id="rim2" cx="0" cy="0" r="3.5"/>
                <g id="zoomPlus">
                        <use xlink:href="#rim" fill="#404040">
                                <set attributeName="fill" to="#808080" begin="zoomplus.mouseover" end="zoomplus.mouseout"/>
                        </use>
                        <path d="M-4,0h8M0,-4v8" fill="none" stroke="white" stroke-width="1.5" pointer-events="none"/>
                </g>
                <g id="zoomMin">
                        <use xlink:href="#rim" fill="#404040">
                                <set attributeName="fill" to="#808080" begin="zoomminus.mouseover" end="zoomminus.mouseout"/>
                        </use>
                        <path d="M-4,0h8" fill="none" stroke="white" stroke-width="1.5" pointer-events="none"/>
                </g>
                <g id="dirArrow">
                        <path fill="none" stroke="white" stroke-width="1.5" d="M0,-3.0v7 M-2.5,-0.5L0,-3.0L2.5,-0.5"/>
                </g>
               <g id="resetDef">
                       <use xlink:href="#rim2" fill="#404040">
                               <set attributeName="fill" to="#808080" begin="reset.mouseover" end="reset.mouseout"/>
                       </use>
               </g>
        </defs>

<script type="text/javascript">
var viewWidth = 1165;
var viewHeight = 287;
var sectionId = 'dynsection-0';
</script>
<script xlink:href="../../svgpan.js"/>
<svg id="graph" class="graph">
<g id="viewport">
<title>PPT&#45;GPU/reuse_distance_tool/main.c</title>
<polygon fill="white" stroke="transparent" points="-4,4 -4,-283 1161.3,-283 1161.3,4 -4,4"/>
<!-- Node1 -->
<g id="node1" class="node">
<title>Node1</title>
<g id="a_node1"><a xlink:title=" ">
<polygon fill="#bfbfbf" stroke="black" points="687.8,-240.5 687.8,-278.5 870.8,-278.5 870.8,-240.5 687.8,-240.5"/>
<text text-anchor="start" x="695.8" y="-263.3" font-family="Helvetica,sans-Serif" font-size="14.00">PPT&#45;GPU/reuse_distance</text>
<text text-anchor="middle" x="779.3" y="-248.3" font-family="Helvetica,sans-Serif" font-size="14.00">_tool/main.c</text>
</a>
</g>
</g>
<!-- Node2 -->
<g id="node2" class="node">
<title>Node2</title>
<g id="a_node2"><a xlink:href="../../d0/dbf/parda_8h.html" target="_top" xlink:title=" ">
<polygon fill="white" stroke="black" points="446.3,-120.5 446.3,-143.5 516.3,-143.5 516.3,-120.5 446.3,-120.5"/>
<text text-anchor="middle" x="481.3" y="-128.3" font-family="Helvetica,sans-Serif" font-size="14.00">parda.h</text>
</a>
</g>
</g>
<!-- Node1&#45;&gt;Node2 -->
<g id="edge1" class="edge">
<title>Node1&#45;&gt;Node2</title>
<path fill="none" stroke="midnightblue" d="M736.29,-240.39C676.69,-215.28 570.17,-170.42 515.59,-147.44"/>
<polygon fill="midnightblue" stroke="midnightblue" points="516.92,-144.2 506.35,-143.55 514.2,-150.65 516.92,-144.2"/>
</g>
<!-- Node7 -->
<g id="node7" class="node">
<title>Node7</title>
<g id="a_node7"><a xlink:href="../../da/d28/process__args_8h.html" target="_top" xlink:title=" ">
<polygon fill="white" stroke="black" points="845.3,-60.5 845.3,-83.5 965.3,-83.5 965.3,-60.5 845.3,-60.5"/>
<text text-anchor="middle" x="905.3" y="-68.3" font-family="Helvetica,sans-Serif" font-size="14.00">process_args.h</text>
</a>
</g>
</g>
<!-- Node1&#45;&gt;Node7 -->
<g id="edge25" class="edge">
<title>Node1&#45;&gt;Node7</title>
<path fill="none" stroke="midnightblue" d="M799.94,-240.28C810.65,-230.22 823.5,-217.12 833.3,-204 860.46,-167.66 884.1,-119.87 896.36,-93.21"/>
<polygon fill="midnightblue" stroke="midnightblue" points="899.69,-94.34 900.63,-83.79 893.32,-91.45 899.69,-94.34"/>
</g>
<!-- Node18 -->
<g id="node18" class="node">
<title>Node18</title>
<g id="a_node18"><a xlink:href="../../de/dfb/seperate_8h.html" target="_top" xlink:title=" ">
<polygon fill="white" stroke="black" points="733.8,-180.5 733.8,-203.5 824.8,-203.5 824.8,-180.5 733.8,-180.5"/>
<text text-anchor="middle" x="779.3" y="-188.3" font-family="Helvetica,sans-Serif" font-size="14.00">seperate.h</text>
</a>
</g>
</g>
<!-- Node1&#45;&gt;Node18 -->
<g id="edge26" class="edge">
<title>Node1&#45;&gt;Node18</title>
<path fill="none" stroke="midnightblue" d="M779.3,-240.25C779.3,-232.04 779.3,-222.31 779.3,-213.81"/>
<polygon fill="midnightblue" stroke="midnightblue" points="782.8,-213.59 779.3,-203.59 775.8,-213.59 782.8,-213.59"/>
</g>
<!-- Node3 -->
<g id="node3" class="node">
<title>Node3</title>
<g id="a_node3"><a xlink:href="../../de/d09/narray_8h.html" target="_top" xlink:title=" ">
<polygon fill="white" stroke="black" points="509.8,-60.5 509.8,-83.5 582.8,-83.5 582.8,-60.5 509.8,-60.5"/>
<text text-anchor="middle" x="546.3" y="-68.3" font-family="Helvetica,sans-Serif" font-size="14.00">narray.h</text>
</a>
</g>
</g>
<!-- Node2&#45;&gt;Node3 -->
<g id="edge2" class="edge">
<title>Node2&#45;&gt;Node3</title>
<path fill="none" stroke="midnightblue" d="M493.23,-120.36C502.66,-111.94 516.03,-100.01 526.99,-90.23"/>
<polygon fill="midnightblue" stroke="midnightblue" points="529.33,-92.84 534.46,-83.57 524.67,-87.62 529.33,-92.84"/>
</g>
<!-- Node4 -->
<g id="node4" class="node">
<title>Node4</title>
<g id="a_node4"><a xlink:title=" ">
<polygon fill="white" stroke="#bfbfbf" points="514.3,-0.5 514.3,-23.5 578.3,-23.5 578.3,-0.5 514.3,-0.5"/>
<text text-anchor="middle" x="546.3" y="-8.3" font-family="Helvetica,sans-Serif" font-size="14.00">stdio.h</text>
</a>
</g>
</g>
<!-- Node2&#45;&gt;Node4 -->
<g id="edge20" class="edge">
<title>Node2&#45;&gt;Node4</title>
<path fill="none" stroke="midnightblue" d="M482.45,-120.25C484.37,-105.75 489.18,-79.51 500.3,-60 506.62,-48.91 516.19,-38.55 524.97,-30.39"/>
<polygon fill="midnightblue" stroke="midnightblue" points="527.52,-32.8 532.7,-23.55 522.89,-27.56 527.52,-32.8"/>
</g>
<!-- Node5 -->
<g id="node5" class="node">
<title>Node5</title>
<g id="a_node5"><a xlink:title=" ">
<polygon fill="white" stroke="#bfbfbf" points="386.3,-0.5 386.3,-23.5 454.3,-23.5 454.3,-0.5 386.3,-0.5"/>
<text text-anchor="middle" x="420.3" y="-8.3" font-family="Helvetica,sans-Serif" font-size="14.00">stdlib.h</text>
</a>
</g>
</g>
<!-- Node2&#45;&gt;Node5 -->
<g id="edge21" class="edge">
<title>Node2&#45;&gt;Node5</title>
<path fill="none" stroke="midnightblue" d="M446.13,-130.12C342.4,-127.16 43.17,-115.92 14.3,-84 7.15,-76.09 7.21,-67.96 14.3,-60 38.07,-33.33 275.66,-19.54 375.98,-14.86"/>
<polygon fill="midnightblue" stroke="midnightblue" points="376.27,-18.35 386.1,-14.4 375.95,-11.36 376.27,-18.35"/>
</g>
<!-- Node6 -->
<g id="node6" class="node">
<title>Node6</title>
<g id="a_node6"><a xlink:title=" ">
<polygon fill="white" stroke="#bfbfbf" points="647.8,-0.5 647.8,-23.5 718.8,-23.5 718.8,-0.5 647.8,-0.5"/>
<text text-anchor="middle" x="683.3" y="-8.3" font-family="Helvetica,sans-Serif" font-size="14.00">string.h</text>
</a>
</g>
</g>
<!-- Node2&#45;&gt;Node6 -->
<g id="edge22" class="edge">
<title>Node2&#45;&gt;Node6</title>
<path fill="none" stroke="midnightblue" d="M511.71,-120.4C534.37,-111.93 565.69,-99.03 591.3,-84 617.92,-68.38 645.58,-46.08 663.53,-30.66"/>
<polygon fill="midnightblue" stroke="midnightblue" points="666.27,-32.91 671.51,-23.7 661.67,-27.63 666.27,-32.91"/>
</g>
<!-- Node2&#45;&gt;Node7 -->
<g id="edge6" class="edge">
<title>Node2&#45;&gt;Node7</title>
<path fill="none" stroke="midnightblue" d="M516.36,-126.2C586.07,-116.67 743.25,-95.17 835.03,-82.61"/>
<polygon fill="midnightblue" stroke="midnightblue" points="835.64,-86.06 845.07,-81.24 834.69,-79.13 835.64,-86.06"/>
</g>
<!-- Node12 -->
<g id="node12" class="node">
<title>Node12</title>
<g id="a_node12"><a xlink:href="../../d2/db0/splay_8h.html" target="_top" xlink:title=" ">
<polygon fill="white" stroke="black" points="387.8,-60.5 387.8,-83.5 452.8,-83.5 452.8,-60.5 387.8,-60.5"/>
<text text-anchor="middle" x="420.3" y="-68.3" font-family="Helvetica,sans-Serif" font-size="14.00">splay.h</text>
</a>
</g>
</g>
<!-- Node2&#45;&gt;Node12 -->
<g id="edge14" class="edge">
<title>Node2&#45;&gt;Node12</title>
<path fill="none" stroke="midnightblue" d="M470.12,-120.36C461.34,-112.02 448.95,-100.24 438.73,-90.52"/>
<polygon fill="midnightblue" stroke="midnightblue" points="441.08,-87.92 431.42,-83.57 436.26,-93 441.08,-87.92"/>
</g>
<!-- Node13 -->
<g id="node13" class="node">
<title>Node13</title>
<g id="a_node13"><a xlink:title=" ">
<polygon fill="white" stroke="#bfbfbf" points="23.8,-60.5 23.8,-83.5 96.8,-83.5 96.8,-60.5 23.8,-60.5"/>
<text text-anchor="middle" x="60.3" y="-68.3" font-family="Helvetica,sans-Serif" font-size="14.00">assert.h</text>
</a>
</g>
</g>
<!-- Node2&#45;&gt;Node13 -->
<g id="edge17" class="edge">
<title>Node2&#45;&gt;Node13</title>
<path fill="none" stroke="midnightblue" d="M446.21,-127.9C381.3,-121.89 237.94,-107.31 107.09,-83.97"/>
<polygon fill="midnightblue" stroke="midnightblue" points="107.35,-80.46 96.89,-82.13 106.1,-87.35 107.35,-80.46"/>
</g>
<!-- Node14 -->
<g id="node14" class="node">
<title>Node14</title>
<g id="a_node14"><a xlink:title=" ">
<polygon fill="white" stroke="#bfbfbf" points="115.3,-60.5 115.3,-83.5 171.3,-83.5 171.3,-60.5 115.3,-60.5"/>
<text text-anchor="middle" x="143.3" y="-68.3" font-family="Helvetica,sans-Serif" font-size="14.00">glib.h</text>
</a>
</g>
</g>
<!-- Node2&#45;&gt;Node14 -->
<g id="edge18" class="edge">
<title>Node2&#45;&gt;Node14</title>
<path fill="none" stroke="midnightblue" d="M446.26,-127.08C391.58,-120.62 282.58,-106.4 181.26,-84"/>
<polygon fill="midnightblue" stroke="midnightblue" points="182.01,-80.58 171.48,-81.8 180.47,-87.41 182.01,-80.58"/>
</g>
<!-- Node15 -->
<g id="node15" class="node">
<title>Node15</title>
<g id="a_node15"><a xlink:title=" ">
<polygon fill="white" stroke="#bfbfbf" points="189.8,-60.5 189.8,-83.5 262.8,-83.5 262.8,-60.5 189.8,-60.5"/>
<text text-anchor="middle" x="226.3" y="-68.3" font-family="Helvetica,sans-Serif" font-size="14.00">libgen.h</text>
</a>
</g>
</g>
<!-- Node2&#45;&gt;Node15 -->
<g id="edge19" class="edge">
<title>Node2&#45;&gt;Node15</title>
<path fill="none" stroke="midnightblue" d="M445.96,-123.31C406.14,-114.6 339.24,-99.82 272.91,-84.35"/>
<polygon fill="midnightblue" stroke="midnightblue" points="273.66,-80.93 263.13,-82.06 272.07,-87.75 273.66,-80.93"/>
</g>
<!-- Node16 -->
<g id="node16" class="node">
<title>Node16</title>
<g id="a_node16"><a xlink:title=" ">
<polygon fill="white" stroke="#bfbfbf" points="280.8,-60.5 280.8,-83.5 369.8,-83.5 369.8,-60.5 280.8,-60.5"/>
<text text-anchor="middle" x="325.3" y="-68.3" font-family="Helvetica,sans-Serif" font-size="14.00">sys/time.h</text>
</a>
</g>
</g>
<!-- Node2&#45;&gt;Node16 -->
<g id="edge23" class="edge">
<title>Node2&#45;&gt;Node16</title>
<path fill="none" stroke="midnightblue" d="M453.05,-120.5C427.84,-111.12 390.73,-97.32 362.99,-87.01"/>
<polygon fill="midnightblue" stroke="midnightblue" points="364.2,-83.73 353.61,-83.52 361.76,-90.29 364.2,-83.73"/>
</g>
<!-- Node17 -->
<g id="node17" class="node">
<title>Node17</title>
<g id="a_node17"><a xlink:title=" ">
<polygon fill="white" stroke="#bfbfbf" points="639.3,-60.5 639.3,-83.5 713.3,-83.5 713.3,-60.5 639.3,-60.5"/>
<text text-anchor="middle" x="676.3" y="-68.3" font-family="Helvetica,sans-Serif" font-size="14.00">unistd.h</text>
</a>
</g>
</g>
<!-- Node2&#45;&gt;Node17 -->
<g id="edge24" class="edge">
<title>Node2&#45;&gt;Node17</title>
<path fill="none" stroke="midnightblue" d="M516.62,-120.5C548.68,-110.96 596.15,-96.84 631,-86.48"/>
<polygon fill="midnightblue" stroke="midnightblue" points="632.34,-89.73 640.92,-83.52 630.34,-83.02 632.34,-89.73"/>
</g>
<!-- Node3&#45;&gt;Node4 -->
<g id="edge3" class="edge">
<title>Node3&#45;&gt;Node4</title>
<path fill="none" stroke="midnightblue" d="M546.3,-60.36C546.3,-52.92 546.3,-42.74 546.3,-33.73"/>
<polygon fill="midnightblue" stroke="midnightblue" points="549.8,-33.57 546.3,-23.57 542.8,-33.57 549.8,-33.57"/>
</g>
<!-- Node3&#45;&gt;Node5 -->
<g id="edge4" class="edge">
<title>Node3&#45;&gt;Node5</title>
<path fill="none" stroke="midnightblue" d="M523.49,-60.5C503.72,-51.4 474.89,-38.13 452.73,-27.93"/>
<polygon fill="midnightblue" stroke="midnightblue" points="453.92,-24.62 443.38,-23.62 451,-30.98 453.92,-24.62"/>
</g>
<!-- Node3&#45;&gt;Node6 -->
<g id="edge5" class="edge">
<title>Node3&#45;&gt;Node6</title>
<path fill="none" stroke="midnightblue" d="M571.11,-60.5C592.8,-51.32 624.51,-37.89 648.7,-27.65"/>
<polygon fill="midnightblue" stroke="midnightblue" points="650.37,-30.74 658.22,-23.62 647.64,-24.3 650.37,-30.74"/>
</g>
<!-- Node7&#45;&gt;Node4 -->
<g id="edge9" class="edge">
<title>Node7&#45;&gt;Node4</title>
<path fill="none" stroke="midnightblue" d="M845.22,-61.29C772.61,-49.56 652.3,-30.12 588.71,-19.85"/>
<polygon fill="midnightblue" stroke="midnightblue" points="589.07,-16.36 578.64,-18.22 587.95,-23.27 589.07,-16.36"/>
</g>
<!-- Node7&#45;&gt;Node5 -->
<g id="edge10" class="edge">
<title>Node7&#45;&gt;Node5</title>
<path fill="none" stroke="midnightblue" d="M845.3,-64.17C767.04,-55.22 625.88,-38.89 505.3,-24 492.14,-22.37 477.83,-20.55 464.77,-18.86"/>
<polygon fill="midnightblue" stroke="midnightblue" points="464.99,-15.35 454.62,-17.53 464.08,-22.29 464.99,-15.35"/>
</g>
<!-- Node7&#45;&gt;Node6 -->
<g id="edge11" class="edge">
<title>Node7&#45;&gt;Node6</title>
<path fill="none" stroke="midnightblue" d="M865.1,-60.5C826.63,-50.45 768.68,-35.31 728.6,-24.83"/>
<polygon fill="midnightblue" stroke="midnightblue" points="729.37,-21.42 718.81,-22.28 727.6,-28.19 729.37,-21.42"/>
</g>
<!-- Node8 -->
<g id="node8" class="node">
<title>Node8</title>
<g id="a_node8"><a xlink:title=" ">
<polygon fill="white" stroke="#bfbfbf" points="786.8,-0.5 786.8,-23.5 847.8,-23.5 847.8,-0.5 786.8,-0.5"/>
<text text-anchor="middle" x="817.3" y="-8.3" font-family="Helvetica,sans-Serif" font-size="14.00">fcntl.h</text>
</a>
</g>
</g>
<!-- Node7&#45;&gt;Node8 -->
<g id="edge7" class="edge">
<title>Node7&#45;&gt;Node8</title>
<path fill="none" stroke="midnightblue" d="M889.16,-60.36C875.89,-51.61 856.87,-39.08 841.73,-29.1"/>
<polygon fill="midnightblue" stroke="midnightblue" points="843.62,-26.15 833.34,-23.57 839.77,-32 843.62,-26.15"/>
</g>
<!-- Node9 -->
<g id="node9" class="node">
<title>Node9</title>
<g id="a_node9"><a xlink:title=" ">
<polygon fill="white" stroke="#bfbfbf" points="866.8,-0.5 866.8,-23.5 941.8,-23.5 941.8,-0.5 866.8,-0.5"/>
<text text-anchor="middle" x="904.3" y="-8.3" font-family="Helvetica,sans-Serif" font-size="14.00">getopt.h</text>
</a>
</g>
</g>
<!-- Node7&#45;&gt;Node9 -->
<g id="edge8" class="edge">
<title>Node7&#45;&gt;Node9</title>
<path fill="none" stroke="midnightblue" d="M905.12,-60.36C904.99,-52.92 904.82,-42.74 904.66,-33.73"/>
<polygon fill="midnightblue" stroke="midnightblue" points="908.16,-33.51 904.49,-23.57 901.16,-33.63 908.16,-33.51"/>
</g>
<!-- Node10 -->
<g id="node10" class="node">
<title>Node10</title>
<g id="a_node10"><a xlink:title=" ">
<polygon fill="white" stroke="#bfbfbf" points="959.3,-0.5 959.3,-23.5 1043.3,-23.5 1043.3,-0.5 959.3,-0.5"/>
<text text-anchor="middle" x="1001.3" y="-8.3" font-family="Helvetica,sans-Serif" font-size="14.00">sys/stat.h</text>
</a>
</g>
</g>
<!-- Node7&#45;&gt;Node10 -->
<g id="edge12" class="edge">
<title>Node7&#45;&gt;Node10</title>
<path fill="none" stroke="midnightblue" d="M922.91,-60.36C937.53,-51.53 958.53,-38.84 975.12,-28.82"/>
<polygon fill="midnightblue" stroke="midnightblue" points="977.06,-31.74 983.81,-23.57 973.44,-25.75 977.06,-31.74"/>
</g>
<!-- Node11 -->
<g id="node11" class="node">
<title>Node11</title>
<g id="a_node11"><a xlink:title=" ">
<polygon fill="white" stroke="#bfbfbf" points="1061.3,-0.5 1061.3,-23.5 1157.3,-23.5 1157.3,-0.5 1061.3,-0.5"/>
<text text-anchor="middle" x="1109.3" y="-8.3" font-family="Helvetica,sans-Serif" font-size="14.00">sys/types.h</text>
</a>
</g>
</g>
<!-- Node7&#45;&gt;Node11 -->
<g id="edge13" class="edge">
<title>Node7&#45;&gt;Node11</title>
<path fill="none" stroke="midnightblue" d="M942.25,-60.5C975.94,-50.92 1025.88,-36.72 1062.38,-26.34"/>
<polygon fill="midnightblue" stroke="midnightblue" points="1063.63,-29.62 1072.29,-23.52 1061.72,-22.89 1063.63,-29.62"/>
</g>
<!-- Node12&#45;&gt;Node4 -->
<g id="edge15" class="edge">
<title>Node12&#45;&gt;Node4</title>
<path fill="none" stroke="midnightblue" d="M443.12,-60.5C462.89,-51.4 491.72,-38.13 513.88,-27.93"/>
<polygon fill="midnightblue" stroke="midnightblue" points="515.61,-30.98 523.23,-23.62 512.68,-24.62 515.61,-30.98"/>
</g>
<!-- Node12&#45;&gt;Node5 -->
<g id="edge16" class="edge">
<title>Node12&#45;&gt;Node5</title>
<path fill="none" stroke="midnightblue" d="M420.3,-60.36C420.3,-52.92 420.3,-42.74 420.3,-33.73"/>
<polygon fill="midnightblue" stroke="midnightblue" points="423.8,-33.57 420.3,-23.57 416.8,-33.57 423.8,-33.57"/>
</g>
<!-- Node18&#45;&gt;Node2 -->
<g id="edge27" class="edge">
<title>Node18&#45;&gt;Node2</title>
<path fill="none" stroke="midnightblue" d="M733.72,-182.13C677.54,-171.19 582.66,-152.73 526.61,-141.82"/>
<polygon fill="midnightblue" stroke="midnightblue" points="527.1,-138.35 516.62,-139.87 525.76,-145.22 527.1,-138.35"/>
</g>
<!-- Node18&#45;&gt;Node4 -->
<g id="edge30" class="edge">
<title>Node18&#45;&gt;Node4</title>
<path fill="none" stroke="midnightblue" d="M777.83,-180.34C773.81,-155.35 760.28,-92.68 722.3,-60 702.36,-42.83 633.97,-28.12 588.55,-19.93"/>
<polygon fill="midnightblue" stroke="midnightblue" points="589.13,-16.48 578.67,-18.19 587.91,-23.37 589.13,-16.48"/>
</g>
<!-- Node18&#45;&gt;Node5 -->
<g id="edge31" class="edge">
<title>Node18&#45;&gt;Node5</title>
<path fill="none" stroke="midnightblue" d="M733.7,-188.14C574.96,-177.7 53.57,-139.44 5.3,-84 -1.7,-75.96 -1.8,-67.96 5.3,-60 29.68,-32.71 273.63,-19.23 375.74,-14.76"/>
<polygon fill="midnightblue" stroke="midnightblue" points="376.19,-18.24 386.03,-14.31 375.89,-11.25 376.19,-18.24"/>
</g>
<!-- Node18&#45;&gt;Node6 -->
<g id="edge32" class="edge">
<title>Node18&#45;&gt;Node6</title>
<path fill="none" stroke="midnightblue" d="M780.04,-180.46C781.15,-156.8 780.91,-98.51 755.3,-60 746.3,-46.47 731.94,-35.94 718.39,-28.32"/>
<polygon fill="midnightblue" stroke="midnightblue" points="719.71,-25.05 709.23,-23.5 716.45,-31.25 719.71,-25.05"/>
</g>
<!-- Node18&#45;&gt;Node8 -->
<g id="edge28" class="edge">
<title>Node18&#45;&gt;Node8</title>
<path fill="none" stroke="midnightblue" d="M782.86,-180.26C785.92,-170.79 790.29,-156.58 793.3,-144 802.56,-105.42 810.19,-59.7 814.22,-33.74"/>
<polygon fill="midnightblue" stroke="midnightblue" points="817.71,-34.02 815.76,-23.61 810.79,-32.97 817.71,-34.02"/>
</g>
<!-- Node18&#45;&gt;Node9 -->
<g id="edge29" class="edge">
<title>Node18&#45;&gt;Node9</title>
<path fill="none" stroke="midnightblue" d="M824.69,-180.47C871.52,-166.91 942.14,-138.33 974.3,-84 987.44,-61.81 961.58,-41.4 937.67,-28.22"/>
<polygon fill="midnightblue" stroke="midnightblue" points="939.17,-25.05 928.68,-23.53 935.93,-31.26 939.17,-25.05"/>
</g>
<!-- Node18&#45;&gt;Node10 -->
<g id="edge33" class="edge">
<title>Node18&#45;&gt;Node10</title>
<path fill="none" stroke="midnightblue" d="M824.99,-185.46C859.53,-179.55 906.9,-167.62 942.3,-144 970.71,-125.05 976.56,-115.26 990.3,-84 997.34,-67.99 999.97,-48.21 1000.91,-33.6"/>
<polygon fill="midnightblue" stroke="midnightblue" points="1004.41,-33.72 1001.34,-23.58 997.41,-33.42 1004.41,-33.72"/>
</g>
<!-- Node18&#45;&gt;Node11 -->
<g id="edge34" class="edge">
<title>Node18&#45;&gt;Node11</title>
<path fill="none" stroke="midnightblue" d="M825.16,-186.52C865.64,-181.03 925.22,-169.16 971.3,-144 1024.38,-115.02 1072.12,-60.5 1095.01,-31.79"/>
<polygon fill="midnightblue" stroke="midnightblue" points="1097.88,-33.79 1101.29,-23.76 1092.37,-29.47 1097.88,-33.79"/>
</g>
<!-- Node18&#45;&gt;Node17 -->
<g id="edge35" class="edge">
<title>Node18&#45;&gt;Node17</title>
<path fill="none" stroke="midnightblue" d="M766.2,-180.5C755.23,-171.41 739.47,-157.61 727.3,-144 712.7,-127.66 698.35,-107.17 688.61,-92.41"/>
<polygon fill="midnightblue" stroke="midnightblue" points="691.3,-90.12 682.92,-83.63 685.42,-93.93 691.3,-90.12"/>
</g>
</g>
</svg>
        <g id="navigator" transform="translate(0 0)" fill="#404254">
                <rect fill="#f2f5e9" fill-opacity="0.5" stroke="#606060" stroke-width=".5" x="0" y="0" width="60" height="60"/>
                <use id="zoomplus" xlink:href="#zoomPlus" x="17" y="9" onmousedown="handleZoom(evt,'in')"/>
                <use id="zoomminus" xlink:href="#zoomMin" x="42" y="9" onmousedown="handleZoom(evt,'out')"/>
                <use id="reset" xlink:href="#resetDef" x="30" y="36" onmousedown="handleReset()"/>
                <g id="arrowUp" xlink:href="#dirArrow" transform="translate(30 24)" onmousedown="handlePan(0,-1)">
                  <use xlink:href="#rim" fill="#404040">
                        <set attributeName="fill" to="#808080" begin="arrowUp.mouseover" end="arrowUp.mouseout"/>
                  </use>
                  <path fill="none" stroke="white" stroke-width="1.5" d="M0,-3.0v7 M-2.5,-0.5L0,-3.0L2.5,-0.5"/>
                </g>
                <g id="arrowRight" xlink:href="#dirArrow" transform="rotate(90) translate(36 -43)" onmousedown="handlePan(1,0)">
                  <use xlink:href="#rim" fill="#404040">
                        <set attributeName="fill" to="#808080" begin="arrowRight.mouseover" end="arrowRight.mouseout"/>
                  </use>
                  <path fill="none" stroke="white" stroke-width="1.5" d="M0,-3.0v7 M-2.5,-0.5L0,-3.0L2.5,-0.5"/>
                </g>
                <g id="arrowDown" xlink:href="#dirArrow" transform="rotate(180) translate(-30 -48)" onmousedown="handlePan(0,1)">
                  <use xlink:href="#rim" fill="#404040">
                        <set attributeName="fill" to="#808080" begin="arrowDown.mouseover" end="arrowDown.mouseout"/>
                  </use>
                  <path fill="none" stroke="white" stroke-width="1.5" d="M0,-3.0v7 M-2.5,-0.5L0,-3.0L2.5,-0.5"/>
                </g>
                <g id="arrowLeft" xlink:href="#dirArrow" transform="rotate(270) translate(-36 17)" onmousedown="handlePan(-1,0)">
                  <use xlink:href="#rim" fill="#404040">
                        <set attributeName="fill" to="#808080" begin="arrowLeft.mouseover" end="arrowLeft.mouseout"/>
                  </use>
                  <path fill="none" stroke="white" stroke-width="1.5" d="M0,-3.0v7 M-2.5,-0.5L0,-3.0L2.5,-0.5"/>
                </g>
        </g>
        <svg viewBox="0 0 15 15" width="100%" height="30px" preserveAspectRatio="xMaxYMin meet">
         <g id="arrow_out" transform="scale(0.3 0.3)">
          <a xlink:href="main_8c__incl_org.svg" target="_base">
           <rect id="button" ry="5" rx="5" y="6" x="6" height="38" width="38"
                fill="#f2f5e9" fill-opacity="0.5" stroke="#606060" stroke-width="1.0"/>
           <path id="arrow"
             d="M 11.500037,31.436501 C 11.940474,20.09759 22.043105,11.32322 32.158766,21.979434 L 37.068811,17.246167 C 37.068811,17.246167 37.088388,32 37.088388,32 L 22.160133,31.978069 C 22.160133,31.978069 26.997745,27.140456 26.997745,27.140456 C 18.528582,18.264221 13.291696,25.230495 11.500037,31.436501 z"
             style="fill:#404040;"/>
          </a>
         </g>
        </svg>
</svg>
