<?xml version="1.0" encoding="UTF-8" standalone="no"?>
<!DOCTYPE svg PUBLIC "-//W3C//DTD SVG 1.1//EN"
 "http://www.w3.org/Graphics/SVG/1.1/DTD/svg11.dtd">
<!-- Generated by graphviz version 2.43.0 (0)
 -->
<!-- Title: PPT&#45;GPU/llvm_tool/mekong&#45;utils/inc/Mekong&#45;Utils.h Pages: 1 -->
<svg width="570pt" height="122pt"
 viewBox="0.00 0.00 569.50 122.00" xmlns="http://www.w3.org/2000/svg" xmlns:xlink="http://www.w3.org/1999/xlink">
<g id="graph0" class="graph" transform="scale(1 1) rotate(0) translate(4 118)">
<title>PPT&#45;GPU/llvm_tool/mekong&#45;utils/inc/Mekong&#45;Utils.h</title>
<polygon fill="white" stroke="transparent" points="-4,4 -4,-118 565.5,-118 565.5,4 -4,4"/>
<!-- Node1 -->
<g id="node1" class="node">
<title>Node1</title>
<g id="a_node1"><a xlink:title=" ">
<polygon fill="#bfbfbf" stroke="black" points="160.5,-75.5 160.5,-113.5 361.5,-113.5 361.5,-75.5 160.5,-75.5"/>
<text text-anchor="start" x="168.5" y="-98.3" font-family="Helvetica,sans-Serif" font-size="14.00">PPT&#45;GPU/llvm_tool/mekong</text>
<text text-anchor="middle" x="261" y="-83.3" font-family="Helvetica,sans-Serif" font-size="14.00">&#45;utils/inc/Mekong&#45;Utils.h</text>
</a>
</g>
</g>
<!-- Node2 -->
<g id="node2" class="node">
<title>Node2</title>
<g id="a_node2"><a xlink:href="../../df/d50/fluxDevicePass_8cpp.html" target="_top" xlink:title=" ">
<polygon fill="white" stroke="black" points="0,-0.5 0,-38.5 162,-38.5 162,-0.5 0,-0.5"/>
<text text-anchor="start" x="8" y="-23.3" font-family="Helvetica,sans-Serif" font-size="14.00">PPT&#45;GPU/llvm_tool/lib</text>
<text text-anchor="middle" x="81" y="-8.3" font-family="Helvetica,sans-Serif" font-size="14.00">/fluxDevicePass.cpp</text>
</a>
</g>
</g>
<!-- Node1&#45;&gt;Node2 -->
<g id="edge1" class="edge">
<title>Node1&#45;&gt;Node2</title>
<path fill="none" stroke="midnightblue" d="M207.16,-71.66C181.14,-61.11 150.29,-48.6 125.61,-38.59"/>
<polygon fill="midnightblue" stroke="midnightblue" points="205.92,-74.94 216.51,-75.46 208.55,-68.45 205.92,-74.94"/>
</g>
<!-- Node3 -->
<g id="node3" class="node">
<title>Node3</title>
<g id="a_node3"><a xlink:href="../../d9/d28/fluxHostPass_8cpp.html" target="_top" xlink:title=" ">
<polygon fill="white" stroke="black" points="180,-0.5 180,-38.5 342,-38.5 342,-0.5 180,-0.5"/>
<text text-anchor="start" x="188" y="-23.3" font-family="Helvetica,sans-Serif" font-size="14.00">PPT&#45;GPU/llvm_tool/lib</text>
<text text-anchor="middle" x="261" y="-8.3" font-family="Helvetica,sans-Serif" font-size="14.00">/fluxHostPass.cpp</text>
</a>
</g>
</g>
<!-- Node1&#45;&gt;Node3 -->
<g id="edge2" class="edge">
<title>Node1&#45;&gt;Node3</title>
<path fill="none" stroke="midnightblue" d="M261,-65.37C261,-56.38 261,-46.67 261,-38.59"/>
<polygon fill="midnightblue" stroke="midnightblue" points="257.5,-65.46 261,-75.46 264.5,-65.46 257.5,-65.46"/>
</g>
<!-- Node4 -->
<g id="node4" class="node">
<title>Node4</title>
<g id="a_node4"><a xlink:href="../../db/d96/HostUtils_8cpp.html" target="_top" xlink:title=" ">
<polygon fill="white" stroke="black" points="360.5,-0.5 360.5,-38.5 561.5,-38.5 561.5,-0.5 360.5,-0.5"/>
<text text-anchor="start" x="368.5" y="-23.3" font-family="Helvetica,sans-Serif" font-size="14.00">PPT&#45;GPU/llvm_tool/mekong</text>
<text text-anchor="middle" x="461" y="-8.3" font-family="Helvetica,sans-Serif" font-size="14.00">&#45;utils/src/HostUtils.cpp</text>
</a>
</g>
</g>
<!-- Node1&#45;&gt;Node4 -->
<g id="edge3" class="edge">
<title>Node1&#45;&gt;Node4</title>
<path fill="none" stroke="midnightblue" d="M320.06,-71.94C349.13,-61.33 383.77,-48.69 411.44,-38.59"/>
<polygon fill="midnightblue" stroke="midnightblue" points="318.63,-68.74 310.44,-75.46 321.03,-75.31 318.63,-68.74"/>
</g>
</g>
</svg>
