<?xml version="1.0" encoding="UTF-8" standalone="no"?>
<!DOCTYPE svg PUBLIC "-//W3C//DTD SVG 1.1//EN"
 "http://www.w3.org/Graphics/SVG/1.1/DTD/svg11.dtd">
<!-- Generated by graphviz version 2.43.0 (0)
 -->
<!-- Title: cuGraphDestroyNode_params_st Pages: 1 -->
<svg width="173pt" height="122pt"
 viewBox="0.00 0.00 173.00 122.00" xmlns="http://www.w3.org/2000/svg" xmlns:xlink="http://www.w3.org/1999/xlink">
<g id="graph0" class="graph" transform="scale(1 1) rotate(0) translate(4 118)">
<title>cuGraphDestroyNode_params_st</title>
<polygon fill="white" stroke="transparent" points="-4,4 -4,-118 169,-118 169,4 -4,4"/>
<!-- Node1 -->
<g id="node1" class="node">
<title>Node1</title>
<g id="a_node1"><a xlink:title=" ">
<polygon fill="#bfbfbf" stroke="black" points="0,-0.5 0,-38.5 165,-38.5 165,-0.5 0,-0.5"/>
<text text-anchor="start" x="8" y="-23.3" font-family="Helvetica,sans-Serif" font-size="14.00">cuGraphDestroyNode</text>
<text text-anchor="middle" x="82.5" y="-8.3" font-family="Helvetica,sans-Serif" font-size="14.00">_params_st</text>
</a>
</g>
</g>
<!-- Node2 -->
<g id="node2" class="node">
<title>Node2</title>
<g id="a_node2"><a xlink:title=" ">
<polygon fill="white" stroke="#bfbfbf" points="54,-90.5 54,-113.5 111,-113.5 111,-90.5 54,-90.5"/>
<text text-anchor="middle" x="82.5" y="-98.3" font-family="Helvetica,sans-Serif" font-size="14.00">struct</text>
</a>
</g>
</g>
<!-- Node2&#45;&gt;Node1 -->
<g id="edge1" class="edge">
<title>Node2&#45;&gt;Node1</title>
<path fill="none" stroke="#9a32cd" stroke-dasharray="5,2" d="M82.5,-80.28C82.5,-67.43 82.5,-51.07 82.5,-38.72"/>
<polygon fill="#9a32cd" stroke="#9a32cd" points="79,-80.48 82.5,-90.48 86,-80.48 79,-80.48"/>
<text text-anchor="middle" x="107.5" y="-60.8" font-family="Helvetica,sans-Serif" font-size="14.00"> hNode</text>
</g>
</g>
</svg>
