<?xml version="1.0" encoding="UTF-8" standalone="no"?>
<!DOCTYPE svg PUBLIC "-//W3C//DTD SVG 1.1//EN"
 "http://www.w3.org/Graphics/SVG/1.1/DTD/svg11.dtd">
<!-- Generated by graphviz version 2.43.0 (0)
 -->
<!-- Title: PPT&#45;GPU/llvm_tool/mekong&#45;utils/inc/Mekong&#45;Utils.h Pages: 1 -->
<svg width="1944pt" height="227pt"
 viewBox="0.00 0.00 1944.32 227.00" xmlns="http://www.w3.org/2000/svg" xmlns:xlink="http://www.w3.org/1999/xlink">
<g id="graph0" class="graph" transform="scale(1 1) rotate(0) translate(4 223)">
<title>PPT&#45;GPU/llvm_tool/mekong&#45;utils/inc/Mekong&#45;Utils.h</title>
<polygon fill="white" stroke="transparent" points="-4,4 -4,-223 1940.32,-223 1940.32,4 -4,4"/>
<!-- Node1 -->
<g id="node1" class="node">
<title>Node1</title>
<g id="a_node1"><a xlink:title=" ">
<polygon fill="#bfbfbf" stroke="black" points="86.32,-180.5 86.32,-218.5 287.32,-218.5 287.32,-180.5 86.32,-180.5"/>
<text text-anchor="start" x="94.32" y="-203.3" font-family="Helvetica,sans-Serif" font-size="14.00">PPT&#45;GPU/llvm_tool/mekong</text>
<text text-anchor="middle" x="186.82" y="-188.3" font-family="Helvetica,sans-Serif" font-size="14.00">&#45;utils/inc/Mekong&#45;Utils.h</text>
</a>
</g>
</g>
<!-- Node2 -->
<g id="node2" class="node">
<title>Node2</title>
<g id="a_node2"><a xlink:href="../../d3/dee/DeviceUtils_8h.html" target="_top" xlink:title=" ">
<polygon fill="white" stroke="black" points="15.32,-120.5 15.32,-143.5 122.32,-143.5 122.32,-120.5 15.32,-120.5"/>
<text text-anchor="middle" x="68.82" y="-128.3" font-family="Helvetica,sans-Serif" font-size="14.00">DeviceUtils.h</text>
</a>
</g>
</g>
<!-- Node1&#45;&gt;Node2 -->
<g id="edge1" class="edge">
<title>Node1&#45;&gt;Node2</title>
<path fill="none" stroke="midnightblue" d="M154.26,-180.43C136.31,-170.46 114.23,-158.2 97.01,-148.65"/>
<polygon fill="midnightblue" stroke="midnightblue" points="98.45,-145.44 88.01,-143.65 95.05,-151.56 98.45,-145.44"/>
</g>
<!-- Node5 -->
<g id="node5" class="node">
<title>Node5</title>
<g id="a_node5"><a xlink:href="../../d4/de6/HostUtils_8h.html" target="_top" xlink:title=" ">
<polygon fill="white" stroke="black" points="140.82,-120.5 140.82,-143.5 232.82,-143.5 232.82,-120.5 140.82,-120.5"/>
<text text-anchor="middle" x="186.82" y="-128.3" font-family="Helvetica,sans-Serif" font-size="14.00">HostUtils.h</text>
</a>
</g>
</g>
<!-- Node1&#45;&gt;Node5 -->
<g id="edge4" class="edge">
<title>Node1&#45;&gt;Node5</title>
<path fill="none" stroke="midnightblue" d="M186.82,-180.25C186.82,-172.04 186.82,-162.31 186.82,-153.81"/>
<polygon fill="midnightblue" stroke="midnightblue" points="190.32,-153.59 186.82,-143.59 183.32,-153.59 190.32,-153.59"/>
</g>
<!-- Node7 -->
<g id="node7" class="node">
<title>Node7</title>
<g id="a_node7"><a xlink:href="../../db/d19/IRUtils_8h.html" target="_top" xlink:title=" ">
<polygon fill="white" stroke="black" points="907.32,-120.5 907.32,-143.5 982.32,-143.5 982.32,-120.5 907.32,-120.5"/>
<text text-anchor="middle" x="944.82" y="-128.3" font-family="Helvetica,sans-Serif" font-size="14.00">IRUtils.h</text>
</a>
</g>
</g>
<!-- Node1&#45;&gt;Node7 -->
<g id="edge8" class="edge">
<title>Node1&#45;&gt;Node7</title>
<path fill="none" stroke="midnightblue" d="M287.48,-189.8C452.81,-175.52 775.63,-147.62 897.08,-137.13"/>
<polygon fill="midnightblue" stroke="midnightblue" points="897.52,-140.6 907.18,-136.25 896.92,-133.63 897.52,-140.6"/>
</g>
<!-- Node3 -->
<g id="node3" class="node">
<title>Node3</title>
<g id="a_node3"><a xlink:title=" ">
<polygon fill="white" stroke="#bfbfbf" points="145.82,-0.5 145.82,-23.5 205.82,-23.5 205.82,-0.5 145.82,-0.5"/>
<text text-anchor="middle" x="175.82" y="-8.3" font-family="Helvetica,sans-Serif" font-size="14.00">vector</text>
</a>
</g>
</g>
<!-- Node2&#45;&gt;Node3 -->
<g id="edge2" class="edge">
<title>Node2&#45;&gt;Node3</title>
<path fill="none" stroke="midnightblue" d="M47.08,-120.42C22.36,-106.95 -12.48,-82.7 4.82,-60 20.58,-39.33 89.94,-25.48 135.34,-18.45"/>
<polygon fill="midnightblue" stroke="midnightblue" points="136.1,-21.87 145.47,-16.93 135.07,-14.95 136.1,-21.87"/>
</g>
<!-- Node4 -->
<g id="node4" class="node">
<title>Node4</title>
<g id="a_node4"><a xlink:title=" ">
<polygon fill="white" stroke="#bfbfbf" points="14.32,-60.5 14.32,-83.5 147.32,-83.5 147.32,-60.5 14.32,-60.5"/>
<text text-anchor="middle" x="80.82" y="-68.3" font-family="Helvetica,sans-Serif" font-size="14.00">llvm/IR/Module.h</text>
</a>
</g>
</g>
<!-- Node2&#45;&gt;Node4 -->
<g id="edge3" class="edge">
<title>Node2&#45;&gt;Node4</title>
<path fill="none" stroke="midnightblue" d="M71.02,-120.36C72.58,-112.84 74.71,-102.52 76.59,-93.43"/>
<polygon fill="midnightblue" stroke="midnightblue" points="80.04,-94.07 78.63,-83.57 73.18,-92.65 80.04,-94.07"/>
</g>
<!-- Node5&#45;&gt;Node3 -->
<g id="edge7" class="edge">
<title>Node5&#45;&gt;Node3</title>
<path fill="none" stroke="midnightblue" d="M185.81,-120.11C183.98,-100.52 180.11,-59.02 177.76,-33.82"/>
<polygon fill="midnightblue" stroke="midnightblue" points="181.22,-33.16 176.8,-23.52 174.25,-33.81 181.22,-33.16"/>
</g>
<!-- Node5&#45;&gt;Node4 -->
<g id="edge6" class="edge">
<title>Node5&#45;&gt;Node4</title>
<path fill="none" stroke="midnightblue" d="M167.38,-120.36C151.02,-111.41 127.41,-98.49 108.98,-88.41"/>
<polygon fill="midnightblue" stroke="midnightblue" points="110.59,-85.3 100.14,-83.57 107.23,-91.44 110.59,-85.3"/>
</g>
<!-- Node6 -->
<g id="node6" class="node">
<title>Node6</title>
<g id="a_node6"><a xlink:title=" ">
<polygon fill="white" stroke="#bfbfbf" points="204.32,-60.5 204.32,-83.5 369.32,-83.5 369.32,-60.5 204.32,-60.5"/>
<text text-anchor="middle" x="286.82" y="-68.3" font-family="Helvetica,sans-Serif" font-size="14.00">llvm/IR/Instructions.h</text>
</a>
</g>
</g>
<!-- Node5&#45;&gt;Node6 -->
<g id="edge5" class="edge">
<title>Node5&#45;&gt;Node6</title>
<path fill="none" stroke="midnightblue" d="M205.16,-120.36C220.39,-111.53 242.26,-98.84 259.54,-88.82"/>
<polygon fill="midnightblue" stroke="midnightblue" points="261.7,-91.62 268.6,-83.57 258.19,-85.56 261.7,-91.62"/>
</g>
<!-- Node7&#45;&gt;Node4 -->
<g id="edge15" class="edge">
<title>Node7&#45;&gt;Node4</title>
<path fill="none" stroke="midnightblue" d="M906.94,-129.08C796.87,-123.39 467.61,-105.7 194.82,-84 182.82,-83.05 170.12,-81.93 157.72,-80.78"/>
<polygon fill="midnightblue" stroke="midnightblue" points="157.68,-77.26 147.4,-79.8 157.03,-84.23 157.68,-77.26"/>
</g>
<!-- Node7&#45;&gt;Node6 -->
<g id="edge14" class="edge">
<title>Node7&#45;&gt;Node6</title>
<path fill="none" stroke="midnightblue" d="M907.29,-128.38C817.82,-122.03 584.73,-104.86 379.68,-84.16"/>
<polygon fill="midnightblue" stroke="midnightblue" points="379.94,-80.67 369.63,-83.14 379.23,-87.64 379.94,-80.67"/>
</g>
<!-- Node8 -->
<g id="node8" class="node">
<title>Node8</title>
<g id="a_node8"><a xlink:href="../../d9/dc8/BasicBlockEnumerator_8h.html" target="_top" xlink:title=" ">
<polygon fill="white" stroke="black" points="1751.32,-60.5 1751.32,-83.5 1936.32,-83.5 1936.32,-60.5 1751.32,-60.5"/>
<text text-anchor="middle" x="1843.82" y="-68.3" font-family="Helvetica,sans-Serif" font-size="14.00">BasicBlockEnumerator.h</text>
</a>
</g>
</g>
<!-- Node7&#45;&gt;Node8 -->
<g id="edge9" class="edge">
<title>Node7&#45;&gt;Node8</title>
<path fill="none" stroke="midnightblue" d="M982.42,-129.36C1096.31,-124.28 1447.44,-107.66 1737.82,-84 1738.9,-83.91 1739.99,-83.82 1741.09,-83.73"/>
<polygon fill="midnightblue" stroke="midnightblue" points="1741.4,-87.22 1751.06,-82.87 1740.8,-80.24 1741.4,-87.22"/>
</g>
<!-- Node10 -->
<g id="node10" class="node">
<title>Node10</title>
<g id="a_node10"><a xlink:href="../../db/d2b/PTXFunction_8h.html" target="_top" xlink:title=" ">
<polygon fill="white" stroke="black" points="1579.82,-60.5 1579.82,-83.5 1695.82,-83.5 1695.82,-60.5 1579.82,-60.5"/>
<text text-anchor="middle" x="1637.82" y="-68.3" font-family="Helvetica,sans-Serif" font-size="14.00">PTXFunction.h</text>
</a>
</g>
</g>
<!-- Node7&#45;&gt;Node10 -->
<g id="edge11" class="edge">
<title>Node7&#45;&gt;Node10</title>
<path fill="none" stroke="midnightblue" d="M982.62,-129.28C1078.7,-124.68 1340.22,-110.65 1569.43,-83.95"/>
<polygon fill="midnightblue" stroke="midnightblue" points="1570.11,-87.39 1579.63,-82.75 1569.29,-80.44 1570.11,-87.39"/>
</g>
<!-- Node11 -->
<g id="node11" class="node">
<title>Node11</title>
<g id="a_node11"><a xlink:title=" ">
<polygon fill="white" stroke="#bfbfbf" points="1649.32,-0.5 1649.32,-23.5 1706.32,-23.5 1706.32,-0.5 1649.32,-0.5"/>
<text text-anchor="middle" x="1677.82" y="-8.3" font-family="Helvetica,sans-Serif" font-size="14.00">string</text>
</a>
</g>
</g>
<!-- Node7&#45;&gt;Node11 -->
<g id="edge22" class="edge">
<title>Node7&#45;&gt;Node11</title>
<path fill="none" stroke="midnightblue" d="M982.41,-130.09C1132.21,-126.28 1679.82,-110.59 1704.82,-84 1718.46,-69.49 1706.61,-47.39 1694.6,-31.7"/>
<polygon fill="midnightblue" stroke="midnightblue" points="1697.11,-29.25 1688.07,-23.74 1691.7,-33.69 1697.11,-29.25"/>
</g>
<!-- Node12 -->
<g id="node12" class="node">
<title>Node12</title>
<g id="a_node12"><a xlink:title=" ">
<polygon fill="white" stroke="#bfbfbf" points="387.32,-60.5 387.32,-83.5 580.32,-83.5 580.32,-60.5 387.32,-60.5"/>
<text text-anchor="middle" x="483.82" y="-68.3" font-family="Helvetica,sans-Serif" font-size="14.00">llvm/IRReader/IRReader.h</text>
</a>
</g>
</g>
<!-- Node7&#45;&gt;Node12 -->
<g id="edge16" class="edge">
<title>Node7&#45;&gt;Node12</title>
<path fill="none" stroke="midnightblue" d="M907.1,-126.25C835.71,-117.27 678.97,-97.55 577.56,-84.79"/>
<polygon fill="midnightblue" stroke="midnightblue" points="577.98,-81.32 567.62,-83.54 577.1,-88.26 577.98,-81.32"/>
</g>
<!-- Node13 -->
<g id="node13" class="node">
<title>Node13</title>
<g id="a_node13"><a xlink:title=" ">
<polygon fill="white" stroke="#bfbfbf" points="598.32,-60.5 598.32,-83.5 749.32,-83.5 749.32,-60.5 598.32,-60.5"/>
<text text-anchor="middle" x="673.82" y="-68.3" font-family="Helvetica,sans-Serif" font-size="14.00">llvm/Linker/Linker.h</text>
</a>
</g>
</g>
<!-- Node7&#45;&gt;Node13 -->
<g id="edge17" class="edge">
<title>Node7&#45;&gt;Node13</title>
<path fill="none" stroke="midnightblue" d="M907.14,-122.94C862.05,-113.29 786.02,-97.01 733.05,-85.68"/>
<polygon fill="midnightblue" stroke="midnightblue" points="733.62,-82.22 723.11,-83.55 732.16,-89.07 733.62,-82.22"/>
</g>
<!-- Node14 -->
<g id="node14" class="node">
<title>Node14</title>
<g id="a_node14"><a xlink:title=" ">
<polygon fill="white" stroke="#bfbfbf" points="767.82,-60.5 767.82,-83.5 943.82,-83.5 943.82,-60.5 767.82,-60.5"/>
<text text-anchor="middle" x="855.82" y="-68.3" font-family="Helvetica,sans-Serif" font-size="14.00">llvm/Support/Casting.h</text>
</a>
</g>
</g>
<!-- Node7&#45;&gt;Node14 -->
<g id="edge18" class="edge">
<title>Node7&#45;&gt;Node14</title>
<path fill="none" stroke="midnightblue" d="M928.5,-120.36C915.07,-111.61 895.84,-99.08 880.53,-89.1"/>
<polygon fill="midnightblue" stroke="midnightblue" points="882.33,-86.1 872.04,-83.57 878.51,-91.96 882.33,-86.1"/>
</g>
<!-- Node15 -->
<g id="node15" class="node">
<title>Node15</title>
<g id="a_node15"><a xlink:title=" ">
<polygon fill="white" stroke="#bfbfbf" points="962.32,-60.5 962.32,-83.5 1107.32,-83.5 1107.32,-60.5 962.32,-60.5"/>
<text text-anchor="middle" x="1034.82" y="-68.3" font-family="Helvetica,sans-Serif" font-size="14.00">llvm/IR/IRBuilder.h</text>
</a>
</g>
</g>
<!-- Node7&#45;&gt;Node15 -->
<g id="edge19" class="edge">
<title>Node7&#45;&gt;Node15</title>
<path fill="none" stroke="midnightblue" d="M961.33,-120.36C974.9,-111.61 994.35,-99.08 1009.84,-89.1"/>
<polygon fill="midnightblue" stroke="midnightblue" points="1011.91,-91.93 1018.42,-83.57 1008.12,-86.05 1011.91,-91.93"/>
</g>
<!-- Node16 -->
<g id="node16" class="node">
<title>Node16</title>
<g id="a_node16"><a xlink:title=" ">
<polygon fill="white" stroke="#bfbfbf" points="1125.32,-60.5 1125.32,-83.5 1346.32,-83.5 1346.32,-60.5 1125.32,-60.5"/>
<text text-anchor="middle" x="1235.82" y="-68.3" font-family="Helvetica,sans-Serif" font-size="14.00">llvm/Support/MemoryBuffer.h</text>
</a>
</g>
</g>
<!-- Node7&#45;&gt;Node16 -->
<g id="edge20" class="edge">
<title>Node7&#45;&gt;Node16</title>
<path fill="none" stroke="midnightblue" d="M982.57,-123.48C1030.8,-113.86 1114.99,-97.08 1172.97,-85.53"/>
<polygon fill="midnightblue" stroke="midnightblue" points="1174,-88.89 1183.12,-83.5 1172.63,-82.03 1174,-88.89"/>
</g>
<!-- Node17 -->
<g id="node17" class="node">
<title>Node17</title>
<g id="a_node17"><a xlink:title=" ">
<polygon fill="white" stroke="#bfbfbf" points="1364.32,-60.5 1364.32,-83.5 1561.32,-83.5 1561.32,-60.5 1364.32,-60.5"/>
<text text-anchor="middle" x="1462.82" y="-68.3" font-family="Helvetica,sans-Serif" font-size="14.00">llvm/Support/SourceMgr.h</text>
</a>
</g>
</g>
<!-- Node7&#45;&gt;Node17 -->
<g id="edge21" class="edge">
<title>Node7&#45;&gt;Node17</title>
<path fill="none" stroke="midnightblue" d="M982.49,-126.78C1060.65,-118.03 1242.82,-97.63 1359,-84.62"/>
<polygon fill="midnightblue" stroke="midnightblue" points="1359.44,-88.1 1368.99,-83.51 1358.66,-81.14 1359.44,-88.1"/>
</g>
<!-- Node9 -->
<g id="node9" class="node">
<title>Node9</title>
<g id="a_node9"><a xlink:title=" ">
<polygon fill="white" stroke="#bfbfbf" points="1765.32,-0.5 1765.32,-23.5 1922.32,-23.5 1922.32,-0.5 1765.32,-0.5"/>
<text text-anchor="middle" x="1843.82" y="-8.3" font-family="Helvetica,sans-Serif" font-size="14.00">llvm/IR/BasicBlock.h</text>
</a>
</g>
</g>
<!-- Node8&#45;&gt;Node9 -->
<g id="edge10" class="edge">
<title>Node8&#45;&gt;Node9</title>
<path fill="none" stroke="midnightblue" d="M1843.82,-60.36C1843.82,-52.92 1843.82,-42.74 1843.82,-33.73"/>
<polygon fill="midnightblue" stroke="midnightblue" points="1847.32,-33.57 1843.82,-23.57 1840.32,-33.57 1847.32,-33.57"/>
</g>
<!-- Node10&#45;&gt;Node3 -->
<g id="edge13" class="edge">
<title>Node10&#45;&gt;Node3</title>
<path fill="none" stroke="midnightblue" d="M1579.65,-61.09C1576.33,-60.68 1573.03,-60.31 1569.82,-60 1296.79,-33.42 415.13,-17.07 216.03,-13.67"/>
<polygon fill="midnightblue" stroke="midnightblue" points="216.06,-10.17 206,-13.5 215.94,-17.17 216.06,-10.17"/>
</g>
<!-- Node10&#45;&gt;Node11 -->
<g id="edge12" class="edge">
<title>Node10&#45;&gt;Node11</title>
<path fill="none" stroke="midnightblue" d="M1645.16,-60.36C1650.63,-52.43 1658.24,-41.39 1664.74,-31.96"/>
<polygon fill="midnightblue" stroke="midnightblue" points="1667.74,-33.79 1670.53,-23.57 1661.97,-29.82 1667.74,-33.79"/>
</g>
</g>
</svg>
