<?xml version="1.0" encoding="UTF-8" standalone="no"?>
<!DOCTYPE svg PUBLIC "-//W3C//DTD SVG 1.1//EN"
 "http://www.w3.org/Graphics/SVG/1.1/DTD/svg11.dtd">
<!-- Generated by graphviz version 2.43.0 (0)
 -->
<!-- Title: PPT&#45;GPU/llvm_tool/lib/hostRuntime.cpp Pages: 1 -->
<svg width="1341pt" height="122pt"
 viewBox="0.00 0.00 1340.50 122.00" xmlns="http://www.w3.org/2000/svg" xmlns:xlink="http://www.w3.org/1999/xlink">
<g id="graph0" class="graph" transform="scale(1 1) rotate(0) translate(4 118)">
<title>PPT&#45;GPU/llvm_tool/lib/hostRuntime.cpp</title>
<polygon fill="white" stroke="transparent" points="-4,4 -4,-118 1336.5,-118 1336.5,4 -4,4"/>
<!-- Node1 -->
<g id="node1" class="node">
<title>Node1</title>
<g id="a_node1"><a xlink:title=" ">
<polygon fill="#bfbfbf" stroke="black" points="588.5,-75.5 588.5,-113.5 750.5,-113.5 750.5,-75.5 588.5,-75.5"/>
<text text-anchor="start" x="596.5" y="-98.3" font-family="Helvetica,sans-Serif" font-size="14.00">PPT&#45;GPU/llvm_tool/lib</text>
<text text-anchor="middle" x="669.5" y="-83.3" font-family="Helvetica,sans-Serif" font-size="14.00">/hostRuntime.cpp</text>
</a>
</g>
</g>
<!-- Node2 -->
<g id="node2" class="node">
<title>Node2</title>
<g id="a_node2"><a xlink:title=" ">
<polygon fill="white" stroke="#bfbfbf" points="0,-0.5 0,-38.5 221,-38.5 221,-0.5 0,-0.5"/>
<text text-anchor="start" x="8" y="-23.3" font-family="Helvetica,sans-Serif" font-size="14.00">/software/GPU/Cuda</text>
<text text-anchor="middle" x="110.5" y="-8.3" font-family="Helvetica,sans-Serif" font-size="14.00">/10.1/include/cuda_runtime.h</text>
</a>
</g>
</g>
<!-- Node1&#45;&gt;Node2 -->
<g id="edge1" class="edge">
<title>Node1&#45;&gt;Node2</title>
<path fill="none" stroke="midnightblue" d="M588.49,-84.17C502.57,-74.1 362.58,-57.24 231.53,-39.12"/>
<polygon fill="midnightblue" stroke="midnightblue" points="231.69,-35.61 221.31,-37.7 230.73,-42.55 231.69,-35.61"/>
</g>
<!-- Node3 -->
<g id="node3" class="node">
<title>Node3</title>
<g id="a_node3"><a xlink:title=" ">
<polygon fill="white" stroke="#bfbfbf" points="239.5,-8 239.5,-31 301.5,-31 301.5,-8 239.5,-8"/>
<text text-anchor="middle" x="270.5" y="-15.8" font-family="Helvetica,sans-Serif" font-size="14.00">cstdlib</text>
</a>
</g>
</g>
<!-- Node1&#45;&gt;Node3 -->
<g id="edge2" class="edge">
<title>Node1&#45;&gt;Node3</title>
<path fill="none" stroke="midnightblue" d="M588.22,-87.75C514.5,-80.99 403.47,-66.94 310.5,-39 306.92,-37.92 303.25,-36.58 299.65,-35.12"/>
<polygon fill="midnightblue" stroke="midnightblue" points="300.98,-31.88 290.42,-31.06 298.16,-38.29 300.98,-31.88"/>
</g>
<!-- Node4 -->
<g id="node4" class="node">
<title>Node4</title>
<g id="a_node4"><a xlink:title=" ">
<polygon fill="white" stroke="#bfbfbf" points="320,-8 320,-31 385,-31 385,-8 320,-8"/>
<text text-anchor="middle" x="352.5" y="-15.8" font-family="Helvetica,sans-Serif" font-size="14.00">cstring</text>
</a>
</g>
</g>
<!-- Node1&#45;&gt;Node4 -->
<g id="edge3" class="edge">
<title>Node1&#45;&gt;Node4</title>
<path fill="none" stroke="midnightblue" d="M588.31,-82.21C532.93,-73.34 458.33,-59.11 394.5,-39 390.87,-37.86 387.13,-36.49 383.44,-35.03"/>
<polygon fill="midnightblue" stroke="midnightblue" points="384.52,-31.69 373.95,-31.03 381.8,-38.14 384.52,-31.69"/>
</g>
<!-- Node5 -->
<g id="node5" class="node">
<title>Node5</title>
<g id="a_node5"><a xlink:title=" ">
<polygon fill="white" stroke="#bfbfbf" points="403.5,-8 403.5,-31 473.5,-31 473.5,-8 403.5,-8"/>
<text text-anchor="middle" x="438.5" y="-15.8" font-family="Helvetica,sans-Serif" font-size="14.00">fstream</text>
</a>
</g>
</g>
<!-- Node1&#45;&gt;Node5 -->
<g id="edge4" class="edge">
<title>Node1&#45;&gt;Node5</title>
<path fill="none" stroke="midnightblue" d="M600.51,-75.43C564.95,-65.6 521.06,-52.68 482.5,-39 479.01,-37.76 475.41,-36.4 471.83,-34.98"/>
<polygon fill="midnightblue" stroke="midnightblue" points="473.09,-31.72 462.51,-31.18 470.45,-38.2 473.09,-31.72"/>
</g>
<!-- Node6 -->
<g id="node6" class="node">
<title>Node6</title>
<g id="a_node6"><a xlink:title=" ">
<polygon fill="white" stroke="#bfbfbf" points="492,-8 492,-31 569,-31 569,-8 492,-8"/>
<text text-anchor="middle" x="530.5" y="-15.8" font-family="Helvetica,sans-Serif" font-size="14.00">iostream</text>
</a>
</g>
</g>
<!-- Node1&#45;&gt;Node6 -->
<g id="edge5" class="edge">
<title>Node1&#45;&gt;Node6</title>
<path fill="none" stroke="midnightblue" d="M635.14,-75.46C611.93,-63.26 581.61,-47.34 559.59,-35.78"/>
<polygon fill="midnightblue" stroke="midnightblue" points="561.19,-32.66 550.71,-31.11 557.94,-38.86 561.19,-32.66"/>
</g>
<!-- Node7 -->
<g id="node7" class="node">
<title>Node7</title>
<g id="a_node7"><a xlink:title=" ">
<polygon fill="white" stroke="#bfbfbf" points="587.5,-8 587.5,-31 655.5,-31 655.5,-8 587.5,-8"/>
<text text-anchor="middle" x="621.5" y="-15.8" font-family="Helvetica,sans-Serif" font-size="14.00">stdlib.h</text>
</a>
</g>
</g>
<!-- Node1&#45;&gt;Node7 -->
<g id="edge6" class="edge">
<title>Node1&#45;&gt;Node7</title>
<path fill="none" stroke="midnightblue" d="M657.63,-75.46C650.52,-64.64 641.48,-50.88 634.22,-39.84"/>
<polygon fill="midnightblue" stroke="midnightblue" points="637.04,-37.76 628.62,-31.33 631.19,-41.6 637.04,-37.76"/>
</g>
<!-- Node8 -->
<g id="node8" class="node">
<title>Node8</title>
<g id="a_node8"><a xlink:title=" ">
<polygon fill="white" stroke="#bfbfbf" points="674,-8 674,-31 763,-31 763,-8 674,-8"/>
<text text-anchor="middle" x="718.5" y="-15.8" font-family="Helvetica,sans-Serif" font-size="14.00">sys/time.h</text>
</a>
</g>
</g>
<!-- Node1&#45;&gt;Node8 -->
<g id="edge7" class="edge">
<title>Node1&#45;&gt;Node8</title>
<path fill="none" stroke="midnightblue" d="M681.61,-75.46C688.87,-64.64 698.11,-50.88 705.52,-39.84"/>
<polygon fill="midnightblue" stroke="midnightblue" points="708.57,-41.58 711.23,-31.33 702.75,-37.68 708.57,-41.58"/>
</g>
<!-- Node9 -->
<g id="node9" class="node">
<title>Node9</title>
<g id="a_node9"><a xlink:title=" ">
<polygon fill="white" stroke="#bfbfbf" points="781,-8 781,-31 906,-31 906,-8 781,-8"/>
<text text-anchor="middle" x="843.5" y="-15.8" font-family="Helvetica,sans-Serif" font-size="14.00">unordered_map</text>
</a>
</g>
</g>
<!-- Node1&#45;&gt;Node9 -->
<g id="edge8" class="edge">
<title>Node1&#45;&gt;Node9</title>
<path fill="none" stroke="midnightblue" d="M712.51,-75.46C742.31,-62.95 781.45,-46.53 809.16,-34.91"/>
<polygon fill="midnightblue" stroke="midnightblue" points="810.59,-38.1 818.45,-31.01 807.88,-31.65 810.59,-38.1"/>
</g>
<!-- Node10 -->
<g id="node10" class="node">
<title>Node10</title>
<g id="a_node10"><a xlink:title=" ">
<polygon fill="white" stroke="#bfbfbf" points="924.5,-8 924.5,-31 984.5,-31 984.5,-8 924.5,-8"/>
<text text-anchor="middle" x="954.5" y="-15.8" font-family="Helvetica,sans-Serif" font-size="14.00">vector</text>
</a>
</g>
</g>
<!-- Node1&#45;&gt;Node10 -->
<g id="edge9" class="edge">
<title>Node1&#45;&gt;Node10</title>
<path fill="none" stroke="midnightblue" d="M750.53,-80.3C799.11,-71.22 861.71,-57.45 915.5,-39 918.62,-37.93 921.82,-36.68 924.98,-35.35"/>
<polygon fill="midnightblue" stroke="midnightblue" points="926.54,-38.48 934.22,-31.18 923.66,-32.1 926.54,-38.48"/>
</g>
<!-- Node11 -->
<g id="node11" class="node">
<title>Node11</title>
<g id="a_node11"><a xlink:title=" ">
<polygon fill="white" stroke="#bfbfbf" points="1003,-8 1003,-31 1116,-31 1116,-8 1003,-8"/>
<text text-anchor="middle" x="1059.5" y="-15.8" font-family="Helvetica,sans-Serif" font-size="14.00">bits/stdc++.h</text>
</a>
</g>
</g>
<!-- Node1&#45;&gt;Node11 -->
<g id="edge10" class="edge">
<title>Node1&#45;&gt;Node11</title>
<path fill="none" stroke="midnightblue" d="M750.52,-82.32C816.34,-72.65 911.39,-57.36 993.5,-39 1000.29,-37.48 1007.42,-35.69 1014.38,-33.84"/>
<polygon fill="midnightblue" stroke="midnightblue" points="1015.68,-37.11 1024.4,-31.09 1013.83,-30.36 1015.68,-37.11"/>
</g>
<!-- Node12 -->
<g id="node12" class="node">
<title>Node12</title>
<g id="a_node12"><a xlink:title=" ">
<polygon fill="white" stroke="#bfbfbf" points="1134.5,-8 1134.5,-31 1218.5,-31 1218.5,-8 1134.5,-8"/>
<text text-anchor="middle" x="1176.5" y="-15.8" font-family="Helvetica,sans-Serif" font-size="14.00">sys/stat.h</text>
</a>
</g>
</g>
<!-- Node1&#45;&gt;Node12 -->
<g id="edge11" class="edge">
<title>Node1&#45;&gt;Node12</title>
<path fill="none" stroke="midnightblue" d="M750.79,-89.41C842.77,-83.49 996.54,-69.67 1125.5,-39 1130.64,-37.78 1135.97,-36.2 1141.17,-34.49"/>
<polygon fill="midnightblue" stroke="midnightblue" points="1142.62,-37.69 1150.91,-31.08 1140.31,-31.08 1142.62,-37.69"/>
</g>
<!-- Node13 -->
<g id="node13" class="node">
<title>Node13</title>
<g id="a_node13"><a xlink:title=" ">
<polygon fill="white" stroke="#bfbfbf" points="1236.5,-8 1236.5,-31 1332.5,-31 1332.5,-8 1236.5,-8"/>
<text text-anchor="middle" x="1284.5" y="-15.8" font-family="Helvetica,sans-Serif" font-size="14.00">sys/types.h</text>
</a>
</g>
</g>
<!-- Node1&#45;&gt;Node13 -->
<g id="edge12" class="edge">
<title>Node1&#45;&gt;Node13</title>
<path fill="none" stroke="midnightblue" d="M750.72,-91.07C860.08,-86.55 1060.27,-73.87 1227.5,-39 1233.72,-37.7 1240.21,-35.97 1246.49,-34.09"/>
<polygon fill="midnightblue" stroke="midnightblue" points="1247.64,-37.4 1256.12,-31.05 1245.53,-30.72 1247.64,-37.4"/>
</g>
</g>
</svg>
