<?xml version="1.0" encoding="UTF-8" standalone="no"?>
<!DOCTYPE svg PUBLIC "-//W3C//DTD SVG 1.1//EN"
 "http://www.w3.org/Graphics/SVG/1.1/DTD/svg11.dtd">
<!-- Generated by graphviz version 2.43.0 (0)
 -->
<!-- Title: PPT&#45;GPU/llvm_tool/mekong&#45;utils/inc/HostUtils.h Pages: 1 -->
<svg width="403pt" height="107pt"
 viewBox="0.00 0.00 402.50 107.00" xmlns="http://www.w3.org/2000/svg" xmlns:xlink="http://www.w3.org/1999/xlink">
<g id="graph0" class="graph" transform="scale(1 1) rotate(0) translate(4 103)">
<title>PPT&#45;GPU/llvm_tool/mekong&#45;utils/inc/HostUtils.h</title>
<polygon fill="white" stroke="transparent" points="-4,4 -4,-103 398.5,-103 398.5,4 -4,4"/>
<!-- Node1 -->
<g id="node1" class="node">
<title>Node1</title>
<g id="a_node1"><a xlink:title=" ">
<polygon fill="#bfbfbf" stroke="black" points="149,-60.5 149,-98.5 350,-98.5 350,-60.5 149,-60.5"/>
<text text-anchor="start" x="157" y="-83.3" font-family="Helvetica,sans-Serif" font-size="14.00">PPT&#45;GPU/llvm_tool/mekong</text>
<text text-anchor="middle" x="249.5" y="-68.3" font-family="Helvetica,sans-Serif" font-size="14.00">&#45;utils/inc/HostUtils.h</text>
</a>
</g>
</g>
<!-- Node2 -->
<g id="node2" class="node">
<title>Node2</title>
<g id="a_node2"><a xlink:title=" ">
<polygon fill="white" stroke="#bfbfbf" points="0,-0.5 0,-23.5 165,-23.5 165,-0.5 0,-0.5"/>
<text text-anchor="middle" x="82.5" y="-8.3" font-family="Helvetica,sans-Serif" font-size="14.00">llvm/IR/Instructions.h</text>
</a>
</g>
</g>
<!-- Node1&#45;&gt;Node2 -->
<g id="edge1" class="edge">
<title>Node1&#45;&gt;Node2</title>
<path fill="none" stroke="midnightblue" d="M203.42,-60.43C176.83,-50 143.86,-37.06 119.06,-27.34"/>
<polygon fill="midnightblue" stroke="midnightblue" points="120.24,-24.04 109.65,-23.65 117.68,-30.56 120.24,-24.04"/>
</g>
<!-- Node3 -->
<g id="node3" class="node">
<title>Node3</title>
<g id="a_node3"><a xlink:title=" ">
<polygon fill="white" stroke="#bfbfbf" points="183,-0.5 183,-23.5 316,-23.5 316,-0.5 183,-0.5"/>
<text text-anchor="middle" x="249.5" y="-8.3" font-family="Helvetica,sans-Serif" font-size="14.00">llvm/IR/Module.h</text>
</a>
</g>
</g>
<!-- Node1&#45;&gt;Node3 -->
<g id="edge2" class="edge">
<title>Node1&#45;&gt;Node3</title>
<path fill="none" stroke="midnightblue" d="M249.5,-60.25C249.5,-52.04 249.5,-42.31 249.5,-33.81"/>
<polygon fill="midnightblue" stroke="midnightblue" points="253,-33.59 249.5,-23.59 246,-33.59 253,-33.59"/>
</g>
<!-- Node4 -->
<g id="node4" class="node">
<title>Node4</title>
<g id="a_node4"><a xlink:title=" ">
<polygon fill="white" stroke="#bfbfbf" points="334.5,-0.5 334.5,-23.5 394.5,-23.5 394.5,-0.5 334.5,-0.5"/>
<text text-anchor="middle" x="364.5" y="-8.3" font-family="Helvetica,sans-Serif" font-size="14.00">vector</text>
</a>
</g>
</g>
<!-- Node1&#45;&gt;Node4 -->
<g id="edge3" class="edge">
<title>Node1&#45;&gt;Node4</title>
<path fill="none" stroke="midnightblue" d="M281.23,-60.43C298.73,-50.46 320.25,-38.2 337.03,-28.65"/>
<polygon fill="midnightblue" stroke="midnightblue" points="338.85,-31.64 345.8,-23.65 335.38,-25.56 338.85,-31.64"/>
</g>
</g>
</svg>
