<?xml version="1.0" encoding="UTF-8" standalone="no"?>
<!DOCTYPE svg PUBLIC "-//W3C//DTD SVG 1.1//EN"
 "http://www.w3.org/Graphics/SVG/1.1/DTD/svg11.dtd">
<!-- Generated by graphviz version 2.43.0 (0)
 -->
<!-- Title: parda_get_abend Pages: 1 -->
<svg width="388pt" height="74pt"
 viewBox="0.00 0.00 388.00 74.00" xmlns="http://www.w3.org/2000/svg" xmlns:xlink="http://www.w3.org/1999/xlink">
<g id="graph0" class="graph" transform="scale(1 1) rotate(0) translate(4 70)">
<title>parda_get_abend</title>
<polygon fill="white" stroke="transparent" points="-4,4 -4,-70 384,-70 384,4 -4,4"/>
<!-- Node1 -->
<g id="node1" class="node">
<title>Node1</title>
<g id="a_node1"><a xlink:title=" ">
<polygon fill="#bfbfbf" stroke="black" points="0,-21.5 0,-44.5 136,-44.5 136,-21.5 0,-21.5"/>
<text text-anchor="middle" x="68" y="-29.3" font-family="Helvetica,sans-Serif" font-size="14.00">parda_get_abend</text>
</a>
</g>
</g>
<!-- Node2 -->
<g id="node2" class="node">
<title>Node2</title>
<g id="a_node2"><a xlink:href="../../d1/df7/splay_8c.html#a7860ad42bad70e478b3778c1eb4c42b7" target="_top" xlink:title=" ">
<polygon fill="white" stroke="black" points="203.5,-42.5 203.5,-65.5 259.5,-65.5 259.5,-42.5 203.5,-42.5"/>
<text text-anchor="middle" x="231.5" y="-50.3" font-family="Helvetica,sans-Serif" font-size="14.00">insert</text>
</a>
</g>
</g>
<!-- Node1&#45;&gt;Node2 -->
<g id="edge1" class="edge">
<title>Node1&#45;&gt;Node2</title>
<path fill="none" stroke="midnightblue" d="M136.09,-41.72C155.61,-44.26 176.23,-46.94 193.2,-49.15"/>
<polygon fill="midnightblue" stroke="midnightblue" points="192.88,-52.64 203.25,-50.46 193.79,-45.7 192.88,-52.64"/>
</g>
<!-- Node4 -->
<g id="node4" class="node">
<title>Node4</title>
<g id="a_node4"><a xlink:href="../../de/d09/narray_8h.html#a58849f5cfc81dd047535c06f2e97cfb0" target="_top" xlink:title=" ">
<polygon fill="white" stroke="black" points="172,-0.5 172,-23.5 291,-23.5 291,-0.5 172,-0.5"/>
<text text-anchor="middle" x="231.5" y="-8.3" font-family="Helvetica,sans-Serif" font-size="14.00">narray_get_len</text>
</a>
</g>
</g>
<!-- Node1&#45;&gt;Node4 -->
<g id="edge3" class="edge">
<title>Node1&#45;&gt;Node4</title>
<path fill="none" stroke="midnightblue" d="M136.09,-24.28C144.62,-23.17 153.36,-22.03 161.92,-20.92"/>
<polygon fill="midnightblue" stroke="midnightblue" points="162.39,-24.39 171.86,-19.63 161.49,-17.44 162.39,-24.39"/>
</g>
<!-- Node3 -->
<g id="node3" class="node">
<title>Node3</title>
<g id="a_node3"><a xlink:href="../../d1/df7/splay_8c.html#a504c21ef77c65b86162e01d158acd1d6" target="_top" xlink:title=" ">
<polygon fill="white" stroke="black" points="327,-42.5 327,-65.5 380,-65.5 380,-42.5 327,-42.5"/>
<text text-anchor="middle" x="353.5" y="-50.3" font-family="Helvetica,sans-Serif" font-size="14.00">splay</text>
</a>
</g>
</g>
<!-- Node2&#45;&gt;Node3 -->
<g id="edge2" class="edge">
<title>Node2&#45;&gt;Node3</title>
<path fill="none" stroke="midnightblue" d="M259.73,-54C276.49,-54 298.18,-54 316.37,-54"/>
<polygon fill="midnightblue" stroke="midnightblue" points="316.61,-57.5 326.61,-54 316.61,-50.5 316.61,-57.5"/>
</g>
</g>
</svg>
