<?xml version="1.0" encoding="UTF-8" standalone="no"?>
<!DOCTYPE svg PUBLIC "-//W3C//DTD SVG 1.1//EN"
 "http://www.w3.org/Graphics/SVG/1.1/DTD/svg11.dtd">
<!-- Generated by graphviz version 2.43.0 (0)
 -->
<!-- Title: parda_generate_end Pages: 1 -->
<svg width="563pt" height="74pt"
 viewBox="0.00 0.00 563.00 74.00" xmlns="http://www.w3.org/2000/svg" xmlns:xlink="http://www.w3.org/1999/xlink">
<g id="graph0" class="graph" transform="scale(1 1) rotate(0) translate(4 70)">
<title>parda_generate_end</title>
<polygon fill="white" stroke="transparent" points="-4,4 -4,-70 559,-70 559,4 -4,4"/>
<!-- Node1 -->
<g id="node1" class="node">
<title>Node1</title>
<g id="a_node1"><a xlink:title=" ">
<polygon fill="#bfbfbf" stroke="black" points="0,-21.5 0,-44.5 158,-44.5 158,-21.5 0,-21.5"/>
<text text-anchor="middle" x="79" y="-29.3" font-family="Helvetica,sans-Serif" font-size="14.00">parda_generate_end</text>
</a>
</g>
</g>
<!-- Node2 -->
<g id="node2" class="node">
<title>Node2</title>
<g id="a_node2"><a xlink:href="../../d0/d96/parda_8c.html#a91a802bec195082a1e725e3f307b099a" target="_top" xlink:title=" ">
<polygon fill="white" stroke="black" points="208.5,-42.5 208.5,-65.5 276.5,-65.5 276.5,-42.5 208.5,-42.5"/>
<text text-anchor="middle" x="242.5" y="-50.3" font-family="Helvetica,sans-Serif" font-size="14.00">iterator</text>
</a>
</g>
</g>
<!-- Node1&#45;&gt;Node2 -->
<g id="edge1" class="edge">
<title>Node1&#45;&gt;Node2</title>
<path fill="none" stroke="midnightblue" d="M158.38,-43.19C172.2,-44.99 186.1,-46.8 198.48,-48.41"/>
<polygon fill="midnightblue" stroke="midnightblue" points="198.12,-51.89 208.49,-49.71 199.02,-44.95 198.12,-51.89"/>
</g>
<!-- Node5 -->
<g id="node5" class="node">
<title>Node5</title>
<g id="a_node5"><a xlink:href="../../dc/dce/narray_8c.html#a32d99037d1eb9c14a4802ce1999cd8d6" target="_top" xlink:title=" ">
<polygon fill="white" stroke="black" points="194,-0.5 194,-23.5 291,-23.5 291,-0.5 194,-0.5"/>
<text text-anchor="middle" x="242.5" y="-8.3" font-family="Helvetica,sans-Serif" font-size="14.00">narray_new</text>
</a>
</g>
</g>
<!-- Node1&#45;&gt;Node5 -->
<g id="edge4" class="edge">
<title>Node1&#45;&gt;Node5</title>
<path fill="none" stroke="midnightblue" d="M158.38,-22.81C166.86,-21.71 175.37,-20.6 183.54,-19.54"/>
<polygon fill="midnightblue" stroke="midnightblue" points="184.22,-22.98 193.68,-18.22 183.32,-16.04 184.22,-22.98"/>
</g>
<!-- Node3 -->
<g id="node3" class="node">
<title>Node3</title>
<g id="a_node3"><a xlink:href="../../dc/dce/narray_8c.html#a00e1ac7249125879d43230a3f1a49b1d" target="_top" xlink:title=" ">
<polygon fill="white" stroke="black" points="327,-42.5 327,-65.5 475,-65.5 475,-42.5 327,-42.5"/>
<text text-anchor="middle" x="401" y="-50.3" font-family="Helvetica,sans-Serif" font-size="14.00">narray_append_val</text>
</a>
</g>
</g>
<!-- Node2&#45;&gt;Node3 -->
<g id="edge2" class="edge">
<title>Node2&#45;&gt;Node3</title>
<path fill="none" stroke="midnightblue" d="M276.69,-54C288.53,-54 302.46,-54 316.61,-54"/>
<polygon fill="midnightblue" stroke="midnightblue" points="316.93,-57.5 326.93,-54 316.93,-50.5 316.93,-57.5"/>
</g>
<!-- Node4 -->
<g id="node4" class="node">
<title>Node4</title>
<g id="a_node4"><a xlink:href="../../da/de5/hostRuntime_8cpp.html#ae206dc2056b70c9901731e30447df1aa" target="_top" xlink:title=" ">
<polygon fill="white" stroke="black" points="511,-42.5 511,-65.5 555,-65.5 555,-42.5 511,-42.5"/>
<text text-anchor="middle" x="533" y="-50.3" font-family="Helvetica,sans-Serif" font-size="14.00">free</text>
</a>
</g>
</g>
<!-- Node3&#45;&gt;Node4 -->
<g id="edge3" class="edge">
<title>Node3&#45;&gt;Node4</title>
<path fill="none" stroke="midnightblue" d="M475.36,-54C484.31,-54 493.04,-54 500.87,-54"/>
<polygon fill="midnightblue" stroke="midnightblue" points="500.91,-57.5 510.91,-54 500.91,-50.5 500.91,-57.5"/>
</g>
</g>
</svg>
