<?xml version="1.0" encoding="UTF-8" standalone="no"?>
<!DOCTYPE svg PUBLIC "-//W3C//DTD SVG 1.1//EN"
 "http://www.w3.org/Graphics/SVG/1.1/DTD/svg11.dtd">
<!-- Generated by graphviz version 2.43.0 (0)
 -->
<!-- Title: parda_get_abfront Pages: 1 -->
<svg width="424pt" height="116pt"
 viewBox="0.00 0.00 424.00 116.00" xmlns="http://www.w3.org/2000/svg" xmlns:xlink="http://www.w3.org/1999/xlink">
<g id="graph0" class="graph" transform="scale(1 1) rotate(0) translate(4 112)">
<title>parda_get_abfront</title>
<polygon fill="white" stroke="transparent" points="-4,4 -4,-112 420,-112 420,4 -4,4"/>
<!-- Node1 -->
<g id="node1" class="node">
<title>Node1</title>
<g id="a_node1"><a xlink:title=" ">
<polygon fill="#bfbfbf" stroke="black" points="0,-42.5 0,-65.5 143,-65.5 143,-42.5 0,-42.5"/>
<text text-anchor="middle" x="71.5" y="-50.3" font-family="Helvetica,sans-Serif" font-size="14.00">parda_get_abfront</text>
</a>
</g>
</g>
<!-- Node2 -->
<g id="node2" class="node">
<title>Node2</title>
<g id="a_node2"><a xlink:href="../../d1/df7/splay_8c.html#a7860ad42bad70e478b3778c1eb4c42b7" target="_top" xlink:title=" ">
<polygon fill="white" stroke="black" points="225,-84.5 225,-107.5 281,-107.5 281,-84.5 225,-84.5"/>
<text text-anchor="middle" x="253" y="-92.3" font-family="Helvetica,sans-Serif" font-size="14.00">insert</text>
</a>
</g>
</g>
<!-- Node1&#45;&gt;Node2 -->
<g id="edge1" class="edge">
<title>Node1&#45;&gt;Node2</title>
<path fill="none" stroke="midnightblue" d="M122.02,-65.59C151.47,-72.48 188.2,-81.07 215.09,-87.36"/>
<polygon fill="midnightblue" stroke="midnightblue" points="214.35,-90.78 224.88,-89.66 215.94,-83.97 214.35,-90.78"/>
</g>
<!-- Node4 -->
<g id="node4" class="node">
<title>Node4</title>
<g id="a_node4"><a xlink:href="../../dc/dce/narray_8c.html#a00e1ac7249125879d43230a3f1a49b1d" target="_top" xlink:title=" ">
<polygon fill="white" stroke="black" points="179,-42.5 179,-65.5 327,-65.5 327,-42.5 179,-42.5"/>
<text text-anchor="middle" x="253" y="-50.3" font-family="Helvetica,sans-Serif" font-size="14.00">narray_append_val</text>
</a>
</g>
</g>
<!-- Node1&#45;&gt;Node4 -->
<g id="edge3" class="edge">
<title>Node1&#45;&gt;Node4</title>
<path fill="none" stroke="midnightblue" d="M143.19,-54C151.49,-54 160.01,-54 168.47,-54"/>
<polygon fill="midnightblue" stroke="midnightblue" points="168.72,-57.5 178.72,-54 168.72,-50.5 168.72,-57.5"/>
</g>
<!-- Node6 -->
<g id="node6" class="node">
<title>Node6</title>
<g id="a_node6"><a xlink:href="../../de/d09/narray_8h.html#a58849f5cfc81dd047535c06f2e97cfb0" target="_top" xlink:title=" ">
<polygon fill="white" stroke="black" points="193.5,-0.5 193.5,-23.5 312.5,-23.5 312.5,-0.5 193.5,-0.5"/>
<text text-anchor="middle" x="253" y="-8.3" font-family="Helvetica,sans-Serif" font-size="14.00">narray_get_len</text>
</a>
</g>
</g>
<!-- Node1&#45;&gt;Node6 -->
<g id="edge5" class="edge">
<title>Node1&#45;&gt;Node6</title>
<path fill="none" stroke="midnightblue" d="M122.02,-42.41C143.9,-37.29 169.8,-31.23 192.69,-25.88"/>
<polygon fill="midnightblue" stroke="midnightblue" points="193.7,-29.24 202.64,-23.55 192.1,-22.42 193.7,-29.24"/>
</g>
<!-- Node3 -->
<g id="node3" class="node">
<title>Node3</title>
<g id="a_node3"><a xlink:href="../../d1/df7/splay_8c.html#a504c21ef77c65b86162e01d158acd1d6" target="_top" xlink:title=" ">
<polygon fill="white" stroke="black" points="363,-84.5 363,-107.5 416,-107.5 416,-84.5 363,-84.5"/>
<text text-anchor="middle" x="389.5" y="-92.3" font-family="Helvetica,sans-Serif" font-size="14.00">splay</text>
</a>
</g>
</g>
<!-- Node2&#45;&gt;Node3 -->
<g id="edge2" class="edge">
<title>Node2&#45;&gt;Node3</title>
<path fill="none" stroke="midnightblue" d="M281.22,-96C301.76,-96 330.14,-96 352.55,-96"/>
<polygon fill="midnightblue" stroke="midnightblue" points="352.69,-99.5 362.69,-96 352.69,-92.5 352.69,-99.5"/>
</g>
<!-- Node5 -->
<g id="node5" class="node">
<title>Node5</title>
<g id="a_node5"><a xlink:href="../../da/de5/hostRuntime_8cpp.html#ae206dc2056b70c9901731e30447df1aa" target="_top" xlink:title=" ">
<polygon fill="white" stroke="black" points="367.5,-42.5 367.5,-65.5 411.5,-65.5 411.5,-42.5 367.5,-42.5"/>
<text text-anchor="middle" x="389.5" y="-50.3" font-family="Helvetica,sans-Serif" font-size="14.00">free</text>
</a>
</g>
</g>
<!-- Node4&#45;&gt;Node5 -->
<g id="edge4" class="edge">
<title>Node4&#45;&gt;Node5</title>
<path fill="none" stroke="midnightblue" d="M327.15,-54C337.78,-54 348.21,-54 357.37,-54"/>
<polygon fill="midnightblue" stroke="midnightblue" points="357.48,-57.5 367.48,-54 357.48,-50.5 357.48,-57.5"/>
</g>
</g>
</svg>
