<?xml version="1.0" encoding="UTF-8" standalone="no"?>
<!DOCTYPE svg PUBLIC "-//W3C//DTD SVG 1.1//EN"
 "http://www.w3.org/Graphics/SVG/1.1/DTD/svg11.dtd">
<!-- Generated by graphviz version 2.43.0 (0)
 -->
<!-- Title: classical_tree_based_stackdist Pages: 1 -->
<!--zoomable 332 -->
<svg id="main" version="1.1" xmlns="http://www.w3.org/2000/svg" xmlns:xlink="http://www.w3.org/1999/xlink" xml:space="preserve" onload="init(evt)">
<style type="text/css"><![CDATA[
.edge:hover path { stroke: red; }
.edge:hover polygon { stroke: red; fill: red; }
]]></style>
<script type="text/javascript"><![CDATA[
var edges = document.getElementsByTagName('g');
if (edges && edges.length) {
  for (var i=0;i<edges.length;i++) {
    if (edges[i].id.substr(0,4)=='edge') {
      edges[i].setAttribute('class','edge');
    }
  }
}
]]></script>
        <defs>
                <circle id="rim" cx="0" cy="0" r="7"/>
                <circle id="rim2" cx="0" cy="0" r="3.5"/>
                <g id="zoomPlus">
                        <use xlink:href="#rim" fill="#404040">
                                <set attributeName="fill" to="#808080" begin="zoomplus.mouseover" end="zoomplus.mouseout"/>
                        </use>
                        <path d="M-4,0h8M0,-4v8" fill="none" stroke="white" stroke-width="1.5" pointer-events="none"/>
                </g>
                <g id="zoomMin">
                        <use xlink:href="#rim" fill="#404040">
                                <set attributeName="fill" to="#808080" begin="zoomminus.mouseover" end="zoomminus.mouseout"/>
                        </use>
                        <path d="M-4,0h8" fill="none" stroke="white" stroke-width="1.5" pointer-events="none"/>
                </g>
                <g id="dirArrow">
                        <path fill="none" stroke="white" stroke-width="1.5" d="M0,-3.0v7 M-2.5,-0.5L0,-3.0L2.5,-0.5"/>
                </g>
               <g id="resetDef">
                       <use xlink:href="#rim2" fill="#404040">
                               <set attributeName="fill" to="#808080" begin="reset.mouseover" end="reset.mouseout"/>
                       </use>
               </g>
        </defs>

<script type="text/javascript">
var viewWidth = 1160;
var viewHeight = 332;
var sectionId = 'dynsection-1';
</script>
<script xlink:href="../../svgpan.js"/>
<svg id="graph" class="graph">
<g id="viewport">
<title>classical_tree_based_stackdist</title>
<polygon fill="white" stroke="transparent" points="-4,4 -4,-328.28 1156,-328.28 1156,4 -4,4"/>
<!-- Node1 -->
<g id="node1" class="node">
<title>Node1</title>
<g id="a_node1"><a xlink:title=" ">
<polygon fill="#bfbfbf" stroke="black" points="0,-126.5 0,-164.5 157,-164.5 157,-126.5 0,-126.5"/>
<text text-anchor="start" x="8" y="-149.3" font-family="Helvetica,sans-Serif" font-size="14.00">classical_tree_based</text>
<text text-anchor="middle" x="78.5" y="-134.3" font-family="Helvetica,sans-Serif" font-size="14.00">_stackdist</text>
</a>
</g>
</g>
<!-- Node2 -->
<g id="node2" class="node">
<title>Node2</title>
<g id="a_node2"><a xlink:href="../../de/d09/narray_8h.html#a58849f5cfc81dd047535c06f2e97cfb0" target="_top" xlink:title=" ">
<polygon fill="white" stroke="black" points="234.5,-252 234.5,-275 353.5,-275 353.5,-252 234.5,-252"/>
<text text-anchor="middle" x="294" y="-259.8" font-family="Helvetica,sans-Serif" font-size="14.00">narray_get_len</text>
</a>
</g>
</g>
<!-- Node1&#45;&gt;Node2 -->
<g id="edge1" class="edge">
<title>Node1&#45;&gt;Node2</title>
<path fill="none" stroke="midnightblue" d="M97.79,-164.58C118.85,-185.47 155.42,-218.51 193,-237.5 202.81,-242.45 213.65,-246.53 224.46,-249.85"/>
<polygon fill="midnightblue" stroke="midnightblue" points="223.78,-253.3 234.36,-252.71 225.72,-246.57 223.78,-253.3"/>
</g>
<!-- Node3 -->
<g id="node3" class="node">
<title>Node3</title>
<g id="a_node3"><a xlink:href="../../d0/d96/parda_8c.html#aaecfcceb1c1b235b54a68a2d917874d8" target="_top" xlink:title=" ">
<polygon fill="white" stroke="black" points="756.5,-235 756.5,-258 846.5,-258 846.5,-235 756.5,-235"/>
<text text-anchor="middle" x="801.5" y="-242.8" font-family="Helvetica,sans-Serif" font-size="14.00">parda_free</text>
</a>
</g>
</g>
<!-- Node1&#45;&gt;Node3 -->
<g id="edge2" class="edge">
<title>Node1&#45;&gt;Node3</title>
<path fill="none" stroke="midnightblue" d="M157.26,-160.37C169.22,-162.52 181.43,-164.63 193,-166.5 396.26,-199.38 639.44,-228.27 745.98,-240.41"/>
<polygon fill="midnightblue" stroke="midnightblue" points="745.83,-243.92 756.16,-241.57 746.62,-236.96 745.83,-243.92"/>
</g>
<!-- Node7 -->
<g id="node7" class="node">
<title>Node7</title>
<g id="a_node7"><a xlink:href="../../d0/d96/parda_8c.html#ac09d652f19b088bdb26be5372506e473" target="_top" xlink:title=" ">
<polygon fill="white" stroke="black" points="251.5,-134 251.5,-157 336.5,-157 336.5,-134 251.5,-134"/>
<text text-anchor="middle" x="294" y="-141.8" font-family="Helvetica,sans-Serif" font-size="14.00">parda_init</text>
</a>
</g>
</g>
<!-- Node1&#45;&gt;Node7 -->
<g id="edge9" class="edge">
<title>Node1&#45;&gt;Node7</title>
<path fill="none" stroke="midnightblue" d="M157.18,-145.5C185.16,-145.5 216.02,-145.5 241.25,-145.5"/>
<polygon fill="midnightblue" stroke="midnightblue" points="241.33,-149 251.33,-145.5 241.33,-142 241.33,-149"/>
</g>
<!-- Node10 -->
<g id="node10" class="node">
<title>Node10</title>
<g id="a_node10"><a xlink:href="../../d0/d96/parda_8c.html#a1505668d8e66fe882bf0368896c3a8ec" target="_top" xlink:title=" ">
<polygon fill="white" stroke="black" points="193,-71 193,-94 395,-94 395,-71 193,-71"/>
<text text-anchor="middle" x="294" y="-78.8" font-family="Helvetica,sans-Serif" font-size="14.00">parda_input_with_filename</text>
</a>
</g>
</g>
<!-- Node1&#45;&gt;Node10 -->
<g id="edge13" class="edge">
<title>Node1&#45;&gt;Node10</title>
<path fill="none" stroke="midnightblue" d="M144.14,-126.43C176.33,-116.93 214.62,-105.63 244.3,-96.87"/>
<polygon fill="midnightblue" stroke="midnightblue" points="245.41,-100.19 254.02,-94 243.43,-93.48 245.41,-100.19"/>
</g>
<!-- Node18 -->
<g id="node18" class="node">
<title>Node18</title>
<g id="a_node18"><a xlink:href="../../d0/dbf/parda_8h.html#aec88f011d490ecb12982491fe94340c6" target="_top" xlink:title=" ">
<polygon fill="white" stroke="black" points="207.5,-29 207.5,-52 380.5,-52 380.5,-29 207.5,-29"/>
<text text-anchor="middle" x="294" y="-36.8" font-family="Helvetica,sans-Serif" font-size="14.00">parda_print_histogram</text>
</a>
</g>
</g>
<!-- Node1&#45;&gt;Node18 -->
<g id="edge24" class="edge">
<title>Node1&#45;&gt;Node18</title>
<path fill="none" stroke="midnightblue" d="M99.52,-126.42C120.94,-107.08 156.77,-77.77 193,-61.5 198.39,-59.08 204.07,-56.93 209.88,-55.03"/>
<polygon fill="midnightblue" stroke="midnightblue" points="211.17,-58.3 219.73,-52.05 209.15,-51.59 211.17,-58.3"/>
</g>
<!-- Node4 -->
<g id="node4" class="node">
<title>Node4</title>
<g id="a_node4"><a xlink:href="../../da/de5/hostRuntime_8cpp.html#ae206dc2056b70c9901731e30447df1aa" target="_top" xlink:title=" ">
<polygon fill="white" stroke="black" points="1103.5,-214 1103.5,-237 1147.5,-237 1147.5,-214 1103.5,-214"/>
<text text-anchor="middle" x="1125.5" y="-221.8" font-family="Helvetica,sans-Serif" font-size="14.00">free</text>
</a>
</g>
</g>
<!-- Node3&#45;&gt;Node4 -->
<g id="edge3" class="edge">
<title>Node3&#45;&gt;Node4</title>
<path fill="none" stroke="midnightblue" d="M818.23,-258.15C839.09,-272.8 877.63,-297.16 915,-306.5 978.81,-322.45 1004.08,-335.74 1063,-306.5 1088.17,-294.01 1105.81,-265.75 1115.56,-246.16"/>
<polygon fill="midnightblue" stroke="midnightblue" points="1118.73,-247.62 1119.82,-237.08 1112.4,-244.64 1118.73,-247.62"/>
</g>
<!-- Node5 -->
<g id="node5" class="node">
<title>Node5</title>
<g id="a_node5"><a xlink:href="../../d1/df7/splay_8c.html#aa92af4ddcdf3134ef4943b684eb5c421" target="_top" xlink:title=" ">
<polygon fill="white" stroke="black" points="953.5,-256 953.5,-279 1024.5,-279 1024.5,-256 953.5,-256"/>
<text text-anchor="middle" x="989" y="-263.8" font-family="Helvetica,sans-Serif" font-size="14.00">freetree</text>
</a>
</g>
</g>
<!-- Node3&#45;&gt;Node5 -->
<g id="edge4" class="edge">
<title>Node3&#45;&gt;Node5</title>
<path fill="none" stroke="midnightblue" d="M846.93,-251.53C875.95,-254.82 913.73,-259.09 942.88,-262.39"/>
<polygon fill="midnightblue" stroke="midnightblue" points="942.87,-265.91 953.2,-263.56 943.66,-258.96 942.87,-265.91"/>
</g>
<!-- Node6 -->
<g id="node6" class="node">
<title>Node6</title>
<g id="a_node6"><a xlink:href="../../dc/dce/narray_8c.html#ad4a6215f48c72db2c016b1f3d8aa2723" target="_top" xlink:title=" ">
<polygon fill="white" stroke="black" points="941.5,-214 941.5,-237 1036.5,-237 1036.5,-214 941.5,-214"/>
<text text-anchor="middle" x="989" y="-221.8" font-family="Helvetica,sans-Serif" font-size="14.00">narray_free</text>
</a>
</g>
</g>
<!-- Node3&#45;&gt;Node6 -->
<g id="edge7" class="edge">
<title>Node3&#45;&gt;Node6</title>
<path fill="none" stroke="midnightblue" d="M846.93,-241.47C872.21,-238.61 904.14,-234.99 931.22,-231.93"/>
<polygon fill="midnightblue" stroke="midnightblue" points="931.8,-235.38 941.34,-230.78 931.01,-228.43 931.8,-235.38"/>
</g>
<!-- Node5&#45;&gt;Node4 -->
<g id="edge5" class="edge">
<title>Node5&#45;&gt;Node4</title>
<path fill="none" stroke="midnightblue" d="M1024.64,-257.91C1036.81,-254.44 1050.55,-250.42 1063,-246.5 1072.99,-243.36 1083.81,-239.74 1093.55,-236.4"/>
<polygon fill="midnightblue" stroke="midnightblue" points="1094.93,-239.62 1103.24,-233.05 1092.64,-233.01 1094.93,-239.62"/>
</g>
<!-- Node5&#45;&gt;Node5 -->
<g id="edge6" class="edge">
<title>Node5&#45;&gt;Node5</title>
<path fill="none" stroke="midnightblue" d="M966.79,-279.2C958.49,-288.26 965.89,-297.5 989,-297.5 1003.44,-297.5 1011.75,-293.89 1013.92,-288.97"/>
<polygon fill="midnightblue" stroke="midnightblue" points="1017.26,-287.9 1011.21,-279.2 1010.51,-289.77 1017.26,-287.9"/>
</g>
<!-- Node6&#45;&gt;Node4 -->
<g id="edge8" class="edge">
<title>Node6&#45;&gt;Node4</title>
<path fill="none" stroke="midnightblue" d="M1036.66,-225.5C1055.21,-225.5 1076.07,-225.5 1092.81,-225.5"/>
<polygon fill="midnightblue" stroke="midnightblue" points="1093.14,-229 1103.14,-225.5 1093.14,-222 1093.14,-229"/>
</g>
<!-- Node7&#45;&gt;Node4 -->
<g id="edge11" class="edge">
<title>Node7&#45;&gt;Node4</title>
<path fill="none" stroke="midnightblue" d="M336.53,-152.94C363.4,-157.5 399.17,-163.09 431,-166.5 710.8,-196.45 786.91,-150.1 1063,-204.5 1073.19,-206.51 1084,-209.79 1093.67,-213.16"/>
<polygon fill="midnightblue" stroke="midnightblue" points="1092.66,-216.52 1103.26,-216.67 1095.07,-209.95 1092.66,-216.52"/>
</g>
<!-- Node8 -->
<g id="node8" class="node">
<title>Node8</title>
<g id="a_node8"><a xlink:href="../../d0/d96/parda_8c.html#a91944ae0f09f2add974175b82819b9b1" target="_top" xlink:title=" ">
<polygon fill="white" stroke="black" points="494,-134 494,-157 625,-157 625,-134 494,-134"/>
<text text-anchor="middle" x="559.5" y="-141.8" font-family="Helvetica,sans-Serif" font-size="14.00">compare_strings</text>
</a>
</g>
</g>
<!-- Node7&#45;&gt;Node8 -->
<g id="edge10" class="edge">
<title>Node7&#45;&gt;Node8</title>
<path fill="none" stroke="midnightblue" d="M336.75,-145.5C376.09,-145.5 435.95,-145.5 483.56,-145.5"/>
<polygon fill="midnightblue" stroke="midnightblue" points="483.83,-149 493.83,-145.5 483.83,-142 483.83,-149"/>
</g>
<!-- Node9 -->
<g id="node9" class="node">
<title>Node9</title>
<g id="a_node9"><a xlink:href="../../dc/dce/narray_8c.html#a32d99037d1eb9c14a4802ce1999cd8d6" target="_top" xlink:title=" ">
<polygon fill="white" stroke="black" points="511,-92 511,-115 608,-115 608,-92 511,-92"/>
<text text-anchor="middle" x="559.5" y="-99.8" font-family="Helvetica,sans-Serif" font-size="14.00">narray_new</text>
</a>
</g>
</g>
<!-- Node7&#45;&gt;Node9 -->
<g id="edge12" class="edge">
<title>Node7&#45;&gt;Node9</title>
<path fill="none" stroke="midnightblue" d="M336.75,-138.84C381.01,-131.79 451.23,-120.6 500.77,-112.7"/>
<polygon fill="midnightblue" stroke="midnightblue" points="501.37,-116.15 510.7,-111.12 500.27,-109.24 501.37,-116.15"/>
</g>
<!-- Node11 -->
<g id="node11" class="node">
<title>Node11</title>
<g id="a_node11"><a xlink:href="../../d0/d96/parda_8c.html#a2db3eea4fc07fce7ce243d7f257355f1" target="_top" xlink:title=" ">
<polygon fill="white" stroke="black" points="431,-50 431,-73 688,-73 688,-50 431,-50"/>
<text text-anchor="middle" x="559.5" y="-57.8" font-family="Helvetica,sans-Serif" font-size="14.00">parda_input_with_binaryfilepointer</text>
</a>
</g>
</g>
<!-- Node10&#45;&gt;Node11 -->
<g id="edge14" class="edge">
<title>Node10&#45;&gt;Node11</title>
<path fill="none" stroke="midnightblue" d="M395.37,-74.5C403.73,-73.83 412.27,-73.15 420.85,-72.47"/>
<polygon fill="midnightblue" stroke="midnightblue" points="421.23,-75.95 430.92,-71.67 420.68,-68.97 421.23,-75.95"/>
</g>
<!-- Node12 -->
<g id="node12" class="node">
<title>Node12</title>
<g id="a_node12"><a xlink:href="../../d0/d96/parda_8c.html#a2e011afd5d113d7b404cff2b9467af8d" target="_top" xlink:title=" ">
<polygon fill="white" stroke="black" points="440,-8 440,-31 679,-31 679,-8 440,-8"/>
<text text-anchor="middle" x="559.5" y="-15.8" font-family="Helvetica,sans-Serif" font-size="14.00">parda_input_with_textfilepointer</text>
</a>
</g>
</g>
<!-- Node10&#45;&gt;Node12 -->
<g id="edge15" class="edge">
<title>Node10&#45;&gt;Node12</title>
<path fill="none" stroke="midnightblue" d="M364.43,-70.95C374.83,-68.35 385.32,-65.23 395,-61.5 412.29,-54.84 413.57,-46.78 431,-40.5 438.5,-37.8 446.38,-35.44 454.38,-33.39"/>
<polygon fill="midnightblue" stroke="midnightblue" points="455.29,-36.77 464.19,-31.03 453.65,-29.96 455.29,-36.77"/>
</g>
<!-- Node13 -->
<g id="node13" class="node">
<title>Node13</title>
<g id="a_node13"><a xlink:href="../../d0/dbf/parda_8h.html#aba642b919a1605f65607ac245ce94fa9" target="_top" xlink:title=" ">
<polygon fill="white" stroke="black" points="724,-58 724,-81 879,-81 879,-58 724,-58"/>
<text text-anchor="middle" x="801.5" y="-65.8" font-family="Helvetica,sans-Serif" font-size="14.00">process_one_access</text>
</a>
</g>
</g>
<!-- Node12&#45;&gt;Node13 -->
<g id="edge16" class="edge">
<title>Node12&#45;&gt;Node13</title>
<path fill="none" stroke="midnightblue" d="M637.23,-31C654.01,-33.83 671.65,-37.05 688,-40.5 708.25,-44.77 730.34,-50.28 749.55,-55.34"/>
<polygon fill="midnightblue" stroke="midnightblue" points="748.74,-58.75 759.3,-57.94 750.54,-51.98 748.74,-58.75"/>
</g>
<!-- Node17 -->
<g id="node17" class="node">
<title>Node17</title>
<g id="a_node17"><a xlink:href="../../d0/dbf/parda_8h.html#ab88eb69b6dc07345fb2318fe9c2093d1" target="_top" xlink:title=" ">
<polygon fill="white" stroke="black" points="724,-0.5 724,-38.5 879,-38.5 879,-0.5 724,-0.5"/>
<text text-anchor="start" x="732" y="-23.3" font-family="Helvetica,sans-Serif" font-size="14.00">process_one_access</text>
<text text-anchor="middle" x="801.5" y="-8.3" font-family="Helvetica,sans-Serif" font-size="14.00">_shared</text>
</a>
</g>
</g>
<!-- Node12&#45;&gt;Node17 -->
<g id="edge21" class="edge">
<title>Node12&#45;&gt;Node17</title>
<path fill="none" stroke="midnightblue" d="M679.09,-19.5C690.76,-19.5 702.44,-19.5 713.7,-19.5"/>
<polygon fill="midnightblue" stroke="midnightblue" points="713.91,-23 723.91,-19.5 713.91,-16 713.91,-23"/>
</g>
<!-- Node14 -->
<g id="node14" class="node">
<title>Node14</title>
<g id="a_node14"><a xlink:href="../../d1/df7/splay_8c.html#a7860ad42bad70e478b3778c1eb4c42b7" target="_top" xlink:title=" ">
<polygon fill="white" stroke="black" points="961,-12 961,-35 1017,-35 1017,-12 961,-12"/>
<text text-anchor="middle" x="989" y="-19.8" font-family="Helvetica,sans-Serif" font-size="14.00">insert</text>
</a>
</g>
</g>
<!-- Node13&#45;&gt;Node14 -->
<g id="edge17" class="edge">
<title>Node13&#45;&gt;Node14</title>
<path fill="none" stroke="midnightblue" d="M849.31,-57.89C880.8,-50.08 921.74,-39.93 950.97,-32.68"/>
<polygon fill="midnightblue" stroke="midnightblue" points="951.91,-36.05 960.78,-30.25 950.23,-29.26 951.91,-36.05"/>
</g>
<!-- Node16 -->
<g id="node16" class="node">
<title>Node16</title>
<g id="a_node16"><a xlink:href="../../dc/dce/narray_8c.html#a00e1ac7249125879d43230a3f1a49b1d" target="_top" xlink:title=" ">
<polygon fill="white" stroke="black" points="915,-58 915,-81 1063,-81 1063,-58 915,-58"/>
<text text-anchor="middle" x="989" y="-65.8" font-family="Helvetica,sans-Serif" font-size="14.00">narray_append_val</text>
</a>
</g>
</g>
<!-- Node13&#45;&gt;Node16 -->
<g id="edge19" class="edge">
<title>Node13&#45;&gt;Node16</title>
<path fill="none" stroke="midnightblue" d="M879.02,-69.5C887.56,-69.5 896.28,-69.5 904.9,-69.5"/>
<polygon fill="midnightblue" stroke="midnightblue" points="904.94,-73 914.94,-69.5 904.94,-66 904.94,-73"/>
</g>
<!-- Node15 -->
<g id="node15" class="node">
<title>Node15</title>
<g id="a_node15"><a xlink:href="../../d1/df7/splay_8c.html#a504c21ef77c65b86162e01d158acd1d6" target="_top" xlink:title=" ">
<polygon fill="white" stroke="black" points="1099,-12 1099,-35 1152,-35 1152,-12 1099,-12"/>
<text text-anchor="middle" x="1125.5" y="-19.8" font-family="Helvetica,sans-Serif" font-size="14.00">splay</text>
</a>
</g>
</g>
<!-- Node14&#45;&gt;Node15 -->
<g id="edge18" class="edge">
<title>Node14&#45;&gt;Node15</title>
<path fill="none" stroke="midnightblue" d="M1017.22,-23.5C1037.76,-23.5 1066.14,-23.5 1088.55,-23.5"/>
<polygon fill="midnightblue" stroke="midnightblue" points="1088.69,-27 1098.69,-23.5 1088.69,-20 1088.69,-27"/>
</g>
<!-- Node16&#45;&gt;Node4 -->
<g id="edge20" class="edge">
<title>Node16&#45;&gt;Node4</title>
<path fill="none" stroke="midnightblue" d="M1000.11,-81.23C1023.09,-107.88 1079.43,-173.23 1107.72,-206.04"/>
<polygon fill="midnightblue" stroke="midnightblue" points="1105.09,-208.35 1114.27,-213.64 1110.39,-203.78 1105.09,-208.35"/>
</g>
<!-- Node17&#45;&gt;Node14 -->
<g id="edge22" class="edge">
<title>Node17&#45;&gt;Node14</title>
<path fill="none" stroke="midnightblue" d="M879.02,-21.15C903.67,-21.68 929.89,-22.25 950.44,-22.69"/>
<polygon fill="midnightblue" stroke="midnightblue" points="950.55,-26.19 960.63,-22.91 950.7,-19.19 950.55,-26.19"/>
</g>
<!-- Node17&#45;&gt;Node16 -->
<g id="edge23" class="edge">
<title>Node17&#45;&gt;Node16</title>
<path fill="none" stroke="midnightblue" d="M873.16,-38.55C893.82,-44.12 916.04,-50.1 935.37,-55.32"/>
<polygon fill="midnightblue" stroke="midnightblue" points="934.63,-58.74 945.2,-57.96 936.46,-51.98 934.63,-58.74"/>
</g>
</g>
</svg>
        <g id="navigator" transform="translate(0 0)" fill="#404254">
                <rect fill="#f2f5e9" fill-opacity="0.5" stroke="#606060" stroke-width=".5" x="0" y="0" width="60" height="60"/>
                <use id="zoomplus" xlink:href="#zoomPlus" x="17" y="9" onmousedown="handleZoom(evt,'in')"/>
                <use id="zoomminus" xlink:href="#zoomMin" x="42" y="9" onmousedown="handleZoom(evt,'out')"/>
                <use id="reset" xlink:href="#resetDef" x="30" y="36" onmousedown="handleReset()"/>
                <g id="arrowUp" xlink:href="#dirArrow" transform="translate(30 24)" onmousedown="handlePan(0,-1)">
                  <use xlink:href="#rim" fill="#404040">
                        <set attributeName="fill" to="#808080" begin="arrowUp.mouseover" end="arrowUp.mouseout"/>
                  </use>
                  <path fill="none" stroke="white" stroke-width="1.5" d="M0,-3.0v7 M-2.5,-0.5L0,-3.0L2.5,-0.5"/>
                </g>
                <g id="arrowRight" xlink:href="#dirArrow" transform="rotate(90) translate(36 -43)" onmousedown="handlePan(1,0)">
                  <use xlink:href="#rim" fill="#404040">
                        <set attributeName="fill" to="#808080" begin="arrowRight.mouseover" end="arrowRight.mouseout"/>
                  </use>
                  <path fill="none" stroke="white" stroke-width="1.5" d="M0,-3.0v7 M-2.5,-0.5L0,-3.0L2.5,-0.5"/>
                </g>
                <g id="arrowDown" xlink:href="#dirArrow" transform="rotate(180) translate(-30 -48)" onmousedown="handlePan(0,1)">
                  <use xlink:href="#rim" fill="#404040">
                        <set attributeName="fill" to="#808080" begin="arrowDown.mouseover" end="arrowDown.mouseout"/>
                  </use>
                  <path fill="none" stroke="white" stroke-width="1.5" d="M0,-3.0v7 M-2.5,-0.5L0,-3.0L2.5,-0.5"/>
                </g>
                <g id="arrowLeft" xlink:href="#dirArrow" transform="rotate(270) translate(-36 17)" onmousedown="handlePan(-1,0)">
                  <use xlink:href="#rim" fill="#404040">
                        <set attributeName="fill" to="#808080" begin="arrowLeft.mouseover" end="arrowLeft.mouseout"/>
                  </use>
                  <path fill="none" stroke="white" stroke-width="1.5" d="M0,-3.0v7 M-2.5,-0.5L0,-3.0L2.5,-0.5"/>
                </g>
        </g>
        <svg viewBox="0 0 15 15" width="100%" height="30px" preserveAspectRatio="xMaxYMin meet">
         <g id="arrow_out" transform="scale(0.3 0.3)">
          <a xlink:href="parda_8c_ab5b52d038b8aaf5acd36508c229bd923_cgraph_org.svg" target="_base">
           <rect id="button" ry="5" rx="5" y="6" x="6" height="38" width="38"
                fill="#f2f5e9" fill-opacity="0.5" stroke="#606060" stroke-width="1.0"/>
           <path id="arrow"
             d="M 11.500037,31.436501 C 11.940474,20.09759 22.043105,11.32322 32.158766,21.979434 L 37.068811,17.246167 C 37.068811,17.246167 37.088388,32 37.088388,32 L 22.160133,31.978069 C 22.160133,31.978069 26.997745,27.140456 26.997745,27.140456 C 18.528582,18.264221 13.291696,25.230495 11.500037,31.436501 z"
             style="fill:#404040;"/>
          </a>
         </g>
        </svg>
</svg>
