<?xml version="1.0" encoding="UTF-8" standalone="no"?>
<!DOCTYPE svg PUBLIC "-//W3C//DTD SVG 1.1//EN"
 "http://www.w3.org/Graphics/SVG/1.1/DTD/svg11.dtd">
<!-- Generated by graphviz version 2.43.0 (0)
 -->
<!-- Title: parda_input_with_textfilepointer Pages: 1 -->
<svg width="711pt" height="90pt"
 viewBox="0.00 0.00 711.00 89.50" xmlns="http://www.w3.org/2000/svg" xmlns:xlink="http://www.w3.org/1999/xlink">
<g id="graph0" class="graph" transform="scale(1 1) rotate(0) translate(4 85.5)">
<title>parda_input_with_textfilepointer</title>
<polygon fill="white" stroke="transparent" points="-4,4 -4,-85.5 707,-85.5 707,4 -4,4"/>
<!-- Node1 -->
<g id="node1" class="node">
<title>Node1</title>
<g id="a_node1"><a xlink:title=" ">
<polygon fill="#bfbfbf" stroke="black" points="0,-33 0,-56 239,-56 239,-33 0,-33"/>
<text text-anchor="middle" x="119.5" y="-40.8" font-family="Helvetica,sans-Serif" font-size="14.00">parda_input_with_textfilepointer</text>
</a>
</g>
</g>
<!-- Node2 -->
<g id="node2" class="node">
<title>Node2</title>
<g id="a_node2"><a xlink:href="../../d0/dbf/parda_8h.html#aba642b919a1605f65607ac245ce94fa9" target="_top" xlink:title=" ">
<polygon fill="white" stroke="black" points="275,-58 275,-81 430,-81 430,-58 275,-58"/>
<text text-anchor="middle" x="352.5" y="-65.8" font-family="Helvetica,sans-Serif" font-size="14.00">process_one_access</text>
</a>
</g>
</g>
<!-- Node1&#45;&gt;Node2 -->
<g id="edge1" class="edge">
<title>Node1&#45;&gt;Node2</title>
<path fill="none" stroke="midnightblue" d="M226.87,-56.01C239.55,-57.38 252.37,-58.77 264.72,-60.11"/>
<polygon fill="midnightblue" stroke="midnightblue" points="264.65,-63.62 274.97,-61.22 265.41,-56.66 264.65,-63.62"/>
</g>
<!-- Node7 -->
<g id="node7" class="node">
<title>Node7</title>
<g id="a_node7"><a xlink:href="../../d0/dbf/parda_8h.html#ab88eb69b6dc07345fb2318fe9c2093d1" target="_top" xlink:title=" ">
<polygon fill="white" stroke="black" points="275,-0.5 275,-38.5 430,-38.5 430,-0.5 275,-0.5"/>
<text text-anchor="start" x="283" y="-23.3" font-family="Helvetica,sans-Serif" font-size="14.00">process_one_access</text>
<text text-anchor="middle" x="352.5" y="-8.3" font-family="Helvetica,sans-Serif" font-size="14.00">_shared</text>
</a>
</g>
</g>
<!-- Node1&#45;&gt;Node7 -->
<g id="edge6" class="edge">
<title>Node1&#45;&gt;Node7</title>
<path fill="none" stroke="midnightblue" d="M226.87,-32.99C239.55,-31.62 252.37,-30.23 264.72,-28.89"/>
<polygon fill="midnightblue" stroke="midnightblue" points="265.41,-32.34 274.97,-27.78 264.65,-25.38 265.41,-32.34"/>
</g>
<!-- Node3 -->
<g id="node3" class="node">
<title>Node3</title>
<g id="a_node3"><a xlink:href="../../d1/df7/splay_8c.html#a7860ad42bad70e478b3778c1eb4c42b7" target="_top" xlink:title=" ">
<polygon fill="white" stroke="black" points="512,-56 512,-79 568,-79 568,-56 512,-56"/>
<text text-anchor="middle" x="540" y="-63.8" font-family="Helvetica,sans-Serif" font-size="14.00">insert</text>
</a>
</g>
</g>
<!-- Node2&#45;&gt;Node3 -->
<g id="edge2" class="edge">
<title>Node2&#45;&gt;Node3</title>
<path fill="none" stroke="midnightblue" d="M430.02,-68.67C454.67,-68.41 480.89,-68.13 501.44,-67.9"/>
<polygon fill="midnightblue" stroke="midnightblue" points="501.66,-71.4 511.63,-67.8 501.59,-64.4 501.66,-71.4"/>
</g>
<!-- Node5 -->
<g id="node5" class="node">
<title>Node5</title>
<g id="a_node5"><a xlink:href="../../dc/dce/narray_8c.html#a00e1ac7249125879d43230a3f1a49b1d" target="_top" xlink:title=" ">
<polygon fill="white" stroke="black" points="466,-12 466,-35 614,-35 614,-12 466,-12"/>
<text text-anchor="middle" x="540" y="-19.8" font-family="Helvetica,sans-Serif" font-size="14.00">narray_append_val</text>
</a>
</g>
</g>
<!-- Node2&#45;&gt;Node5 -->
<g id="edge4" class="edge">
<title>Node2&#45;&gt;Node5</title>
<path fill="none" stroke="midnightblue" d="M400.31,-57.89C425.34,-51.69 456.34,-44 482.68,-37.47"/>
<polygon fill="midnightblue" stroke="midnightblue" points="483.66,-40.83 492.53,-35.02 481.98,-34.03 483.66,-40.83"/>
</g>
<!-- Node4 -->
<g id="node4" class="node">
<title>Node4</title>
<g id="a_node4"><a xlink:href="../../d1/df7/splay_8c.html#a504c21ef77c65b86162e01d158acd1d6" target="_top" xlink:title=" ">
<polygon fill="white" stroke="black" points="650,-56 650,-79 703,-79 703,-56 650,-56"/>
<text text-anchor="middle" x="676.5" y="-63.8" font-family="Helvetica,sans-Serif" font-size="14.00">splay</text>
</a>
</g>
</g>
<!-- Node3&#45;&gt;Node4 -->
<g id="edge3" class="edge">
<title>Node3&#45;&gt;Node4</title>
<path fill="none" stroke="midnightblue" d="M568.22,-67.5C588.76,-67.5 617.14,-67.5 639.55,-67.5"/>
<polygon fill="midnightblue" stroke="midnightblue" points="639.69,-71 649.69,-67.5 639.69,-64 639.69,-71"/>
</g>
<!-- Node6 -->
<g id="node6" class="node">
<title>Node6</title>
<g id="a_node6"><a xlink:href="../../da/de5/hostRuntime_8cpp.html#ae206dc2056b70c9901731e30447df1aa" target="_top" xlink:title=" ">
<polygon fill="white" stroke="black" points="654.5,-12 654.5,-35 698.5,-35 698.5,-12 654.5,-12"/>
<text text-anchor="middle" x="676.5" y="-19.8" font-family="Helvetica,sans-Serif" font-size="14.00">free</text>
</a>
</g>
</g>
<!-- Node5&#45;&gt;Node6 -->
<g id="edge5" class="edge">
<title>Node5&#45;&gt;Node6</title>
<path fill="none" stroke="midnightblue" d="M614.15,-23.5C624.78,-23.5 635.21,-23.5 644.37,-23.5"/>
<polygon fill="midnightblue" stroke="midnightblue" points="644.48,-27 654.48,-23.5 644.48,-20 644.48,-27"/>
</g>
<!-- Node7&#45;&gt;Node3 -->
<g id="edge7" class="edge">
<title>Node7&#45;&gt;Node3</title>
<path fill="none" stroke="midnightblue" d="M427.08,-38.54C452.64,-45.15 480.23,-52.29 501.62,-57.83"/>
<polygon fill="midnightblue" stroke="midnightblue" points="501.02,-61.29 511.58,-60.41 502.78,-54.51 501.02,-61.29"/>
</g>
<!-- Node7&#45;&gt;Node5 -->
<g id="edge8" class="edge">
<title>Node7&#45;&gt;Node5</title>
<path fill="none" stroke="midnightblue" d="M430.02,-21.15C438.56,-21.33 447.28,-21.52 455.9,-21.71"/>
<polygon fill="midnightblue" stroke="midnightblue" points="455.86,-25.21 465.94,-21.92 456.02,-18.21 455.86,-25.21"/>
</g>
</g>
</svg>
