<?xml version="1.0" encoding="UTF-8" standalone="no"?>
<!DOCTYPE svg PUBLIC "-//W3C//DTD SVG 1.1//EN"
 "http://www.w3.org/Graphics/SVG/1.1/DTD/svg11.dtd">
<!-- Generated by graphviz version 2.43.0 (0)
 -->
<!-- Title: parda_input_with_filename Pages: 1 -->
<svg width="490pt" height="90pt"
 viewBox="0.00 0.00 490.00 89.50" xmlns="http://www.w3.org/2000/svg" xmlns:xlink="http://www.w3.org/1999/xlink">
<g id="graph0" class="graph" transform="scale(1 1) rotate(0) translate(4 85.5)">
<title>parda_input_with_filename</title>
<polygon fill="white" stroke="transparent" points="-4,4 -4,-85.5 486,-85.5 486,4 -4,4"/>
<!-- Node1 -->
<g id="node1" class="node">
<title>Node1</title>
<g id="a_node1"><a xlink:title=" ">
<polygon fill="#bfbfbf" stroke="black" points="280,-25.5 280,-48.5 482,-48.5 482,-25.5 280,-25.5"/>
<text text-anchor="middle" x="381" y="-33.3" font-family="Helvetica,sans-Serif" font-size="14.00">parda_input_with_filename</text>
</a>
</g>
</g>
<!-- Node2 -->
<g id="node2" class="node">
<title>Node2</title>
<g id="a_node2"><a xlink:href="../../d0/dbf/parda_8h.html#ab5b52d038b8aaf5acd36508c229bd923" target="_top" xlink:title=" ">
<polygon fill="white" stroke="black" points="87,-43 87,-81 244,-81 244,-43 87,-43"/>
<text text-anchor="start" x="95" y="-65.8" font-family="Helvetica,sans-Serif" font-size="14.00">classical_tree_based</text>
<text text-anchor="middle" x="165.5" y="-50.8" font-family="Helvetica,sans-Serif" font-size="14.00">_stackdist</text>
</a>
</g>
</g>
<!-- Node1&#45;&gt;Node2 -->
<g id="edge1" class="edge">
<title>Node1&#45;&gt;Node2</title>
<path fill="none" stroke="midnightblue" d="M271.64,-49.69C262.37,-50.77 253.12,-51.86 244.16,-52.91"/>
<polygon fill="midnightblue" stroke="midnightblue" points="272.16,-53.15 281.69,-48.51 271.35,-46.2 272.16,-53.15"/>
</g>
<!-- Node4 -->
<g id="node4" class="node">
<title>Node4</title>
<g id="a_node4"><a xlink:href="../../d5/d13/parda__omp_8h.html#ae6fbeb3538f797cfc948e920386b4741" target="_top" xlink:title=" ">
<polygon fill="white" stroke="black" points="97,-0.5 97,-23.5 234,-23.5 234,-0.5 97,-0.5"/>
<text text-anchor="middle" x="165.5" y="-8.3" font-family="Helvetica,sans-Serif" font-size="14.00">parda_omp_input</text>
</a>
</g>
</g>
<!-- Node1&#45;&gt;Node4 -->
<g id="edge3" class="edge">
<title>Node1&#45;&gt;Node4</title>
<path fill="none" stroke="midnightblue" d="M271.49,-24.29C258.76,-22.8 246.06,-21.32 234.13,-19.92"/>
<polygon fill="midnightblue" stroke="midnightblue" points="271.35,-27.8 281.69,-25.49 272.16,-20.85 271.35,-27.8"/>
</g>
<!-- Node3 -->
<g id="node3" class="node">
<title>Node3</title>
<g id="a_node3"><a xlink:href="../../d0/d29/main_8c.html#a3c04138a5bfe5d72780bb7e82a18e627" target="_top" xlink:title=" ">
<polygon fill="white" stroke="black" points="0,-50.5 0,-73.5 51,-73.5 51,-50.5 0,-50.5"/>
<text text-anchor="middle" x="25.5" y="-58.3" font-family="Helvetica,sans-Serif" font-size="14.00">main</text>
</a>
</g>
</g>
<!-- Node2&#45;&gt;Node3 -->
<g id="edge2" class="edge">
<title>Node2&#45;&gt;Node3</title>
<path fill="none" stroke="midnightblue" d="M76.52,-62C67.35,-62 58.66,-62 51.18,-62"/>
<polygon fill="midnightblue" stroke="midnightblue" points="76.63,-65.5 86.63,-62 76.63,-58.5 76.63,-65.5"/>
</g>
</g>
</svg>
