<?xml version="1.0" encoding="UTF-8" standalone="no"?>
<!DOCTYPE svg PUBLIC "-//W3C//DTD SVG 1.1//EN"
 "http://www.w3.org/Graphics/SVG/1.1/DTD/svg11.dtd">
<!-- Generated by graphviz version 2.43.0 (0)
 -->
<!-- Title: parda_init Pages: 1 -->
<svg width="260pt" height="116pt"
 viewBox="0.00 0.00 260.00 116.00" xmlns="http://www.w3.org/2000/svg" xmlns:xlink="http://www.w3.org/1999/xlink">
<g id="graph0" class="graph" transform="scale(1 1) rotate(0) translate(4 112)">
<title>parda_init</title>
<polygon fill="white" stroke="transparent" points="-4,4 -4,-112 256,-112 256,4 -4,4"/>
<!-- Node1 -->
<g id="node1" class="node">
<title>Node1</title>
<g id="a_node1"><a xlink:title=" ">
<polygon fill="#bfbfbf" stroke="black" points="0,-42.5 0,-65.5 85,-65.5 85,-42.5 0,-42.5"/>
<text text-anchor="middle" x="42.5" y="-50.3" font-family="Helvetica,sans-Serif" font-size="14.00">parda_init</text>
</a>
</g>
</g>
<!-- Node2 -->
<g id="node2" class="node">
<title>Node2</title>
<g id="a_node2"><a xlink:href="../../d0/d96/parda_8c.html#a91944ae0f09f2add974175b82819b9b1" target="_top" xlink:title=" ">
<polygon fill="white" stroke="black" points="121,-84.5 121,-107.5 252,-107.5 252,-84.5 121,-84.5"/>
<text text-anchor="middle" x="186.5" y="-92.3" font-family="Helvetica,sans-Serif" font-size="14.00">compare_strings</text>
</a>
</g>
</g>
<!-- Node1&#45;&gt;Node2 -->
<g id="edge1" class="edge">
<title>Node1&#45;&gt;Node2</title>
<path fill="none" stroke="midnightblue" d="M82.68,-65.59C99.28,-70.5 118.82,-76.28 136.38,-81.47"/>
<polygon fill="midnightblue" stroke="midnightblue" points="135.87,-84.97 146.45,-84.45 137.85,-78.26 135.87,-84.97"/>
</g>
<!-- Node3 -->
<g id="node3" class="node">
<title>Node3</title>
<g id="a_node3"><a xlink:href="../../da/de5/hostRuntime_8cpp.html#ae206dc2056b70c9901731e30447df1aa" target="_top" xlink:title=" ">
<polygon fill="white" stroke="black" points="164.5,-42.5 164.5,-65.5 208.5,-65.5 208.5,-42.5 164.5,-42.5"/>
<text text-anchor="middle" x="186.5" y="-50.3" font-family="Helvetica,sans-Serif" font-size="14.00">free</text>
</a>
</g>
</g>
<!-- Node1&#45;&gt;Node3 -->
<g id="edge2" class="edge">
<title>Node1&#45;&gt;Node3</title>
<path fill="none" stroke="midnightblue" d="M85.34,-54C107.39,-54 133.98,-54 154.23,-54"/>
<polygon fill="midnightblue" stroke="midnightblue" points="154.46,-57.5 164.46,-54 154.46,-50.5 154.46,-57.5"/>
</g>
<!-- Node4 -->
<g id="node4" class="node">
<title>Node4</title>
<g id="a_node4"><a xlink:href="../../dc/dce/narray_8c.html#a32d99037d1eb9c14a4802ce1999cd8d6" target="_top" xlink:title=" ">
<polygon fill="white" stroke="black" points="138,-0.5 138,-23.5 235,-23.5 235,-0.5 138,-0.5"/>
<text text-anchor="middle" x="186.5" y="-8.3" font-family="Helvetica,sans-Serif" font-size="14.00">narray_new</text>
</a>
</g>
</g>
<!-- Node1&#45;&gt;Node4 -->
<g id="edge3" class="edge">
<title>Node1&#45;&gt;Node4</title>
<path fill="none" stroke="midnightblue" d="M82.68,-42.41C99.28,-37.5 118.82,-31.72 136.38,-26.53"/>
<polygon fill="midnightblue" stroke="midnightblue" points="137.85,-29.74 146.45,-23.55 135.87,-23.03 137.85,-29.74"/>
</g>
</g>
</svg>
