<?xml version="1.0" encoding="UTF-8" standalone="no"?>
<!DOCTYPE svg PUBLIC "-//W3C//DTD SVG 1.1//EN"
 "http://www.w3.org/Graphics/SVG/1.1/DTD/svg11.dtd">
<!-- Generated by graphviz version 2.43.0 (0)
 -->
<!-- Title: iterator Pages: 1 -->
<svg width="340pt" height="32pt"
 viewBox="0.00 0.00 340.00 32.00" xmlns="http://www.w3.org/2000/svg" xmlns:xlink="http://www.w3.org/1999/xlink">
<g id="graph0" class="graph" transform="scale(1 1) rotate(0) translate(4 28)">
<title>iterator</title>
<polygon fill="white" stroke="transparent" points="-4,4 -4,-28 336,-28 336,4 -4,4"/>
<!-- Node1 -->
<g id="node1" class="node">
<title>Node1</title>
<g id="a_node1"><a xlink:title=" ">
<polygon fill="#bfbfbf" stroke="black" points="0,-0.5 0,-23.5 68,-23.5 68,-0.5 0,-0.5"/>
<text text-anchor="middle" x="34" y="-8.3" font-family="Helvetica,sans-Serif" font-size="14.00">iterator</text>
</a>
</g>
</g>
<!-- Node2 -->
<g id="node2" class="node">
<title>Node2</title>
<g id="a_node2"><a xlink:href="../../dc/dce/narray_8c.html#a00e1ac7249125879d43230a3f1a49b1d" target="_top" xlink:title=" ">
<polygon fill="white" stroke="black" points="104,-0.5 104,-23.5 252,-23.5 252,-0.5 104,-0.5"/>
<text text-anchor="middle" x="178" y="-8.3" font-family="Helvetica,sans-Serif" font-size="14.00">narray_append_val</text>
</a>
</g>
</g>
<!-- Node1&#45;&gt;Node2 -->
<g id="edge1" class="edge">
<title>Node1&#45;&gt;Node2</title>
<path fill="none" stroke="midnightblue" d="M68.29,-12C76.09,-12 84.75,-12 93.68,-12"/>
<polygon fill="midnightblue" stroke="midnightblue" points="93.84,-15.5 103.84,-12 93.84,-8.5 93.84,-15.5"/>
</g>
<!-- Node3 -->
<g id="node3" class="node">
<title>Node3</title>
<g id="a_node3"><a xlink:href="../../da/de5/hostRuntime_8cpp.html#ae206dc2056b70c9901731e30447df1aa" target="_top" xlink:title=" ">
<polygon fill="white" stroke="black" points="288,-0.5 288,-23.5 332,-23.5 332,-0.5 288,-0.5"/>
<text text-anchor="middle" x="310" y="-8.3" font-family="Helvetica,sans-Serif" font-size="14.00">free</text>
</a>
</g>
</g>
<!-- Node2&#45;&gt;Node3 -->
<g id="edge2" class="edge">
<title>Node2&#45;&gt;Node3</title>
<path fill="none" stroke="midnightblue" d="M252.36,-12C261.31,-12 270.04,-12 277.87,-12"/>
<polygon fill="midnightblue" stroke="midnightblue" points="277.91,-15.5 287.91,-12 277.91,-8.5 277.91,-15.5"/>
</g>
</g>
</svg>
