<?xml version="1.0" encoding="UTF-8" standalone="no"?>
<!DOCTYPE svg PUBLIC "-//W3C//DTD SVG 1.1//EN"
 "http://www.w3.org/Graphics/SVG/1.1/DTD/svg11.dtd">
<!-- Generated by graphviz version 2.43.0 (0)
 -->
<!-- Title: compare_strings Pages: 1 -->
<svg width="704pt" height="90pt"
 viewBox="0.00 0.00 704.00 89.50" xmlns="http://www.w3.org/2000/svg" xmlns:xlink="http://www.w3.org/1999/xlink">
<g id="graph0" class="graph" transform="scale(1 1) rotate(0) translate(4 85.5)">
<title>compare_strings</title>
<polygon fill="white" stroke="transparent" points="-4,4 -4,-85.5 700,-85.5 700,4 -4,4"/>
<!-- Node1 -->
<g id="node1" class="node">
<title>Node1</title>
<g id="a_node1"><a xlink:title=" ">
<polygon fill="#bfbfbf" stroke="black" points="565,-25.5 565,-48.5 696,-48.5 696,-25.5 565,-25.5"/>
<text text-anchor="middle" x="630.5" y="-33.3" font-family="Helvetica,sans-Serif" font-size="14.00">compare_strings</text>
</a>
</g>
</g>
<!-- Node2 -->
<g id="node2" class="node">
<title>Node2</title>
<g id="a_node2"><a xlink:href="../../d0/dbf/parda_8h.html#a8ce846b74cc5c09b66895149e3f559ed" target="_top" xlink:title=" ">
<polygon fill="white" stroke="black" points="444,-25.5 444,-48.5 529,-48.5 529,-25.5 444,-25.5"/>
<text text-anchor="middle" x="486.5" y="-33.3" font-family="Helvetica,sans-Serif" font-size="14.00">parda_init</text>
</a>
</g>
</g>
<!-- Node1&#45;&gt;Node2 -->
<g id="edge1" class="edge">
<title>Node1&#45;&gt;Node2</title>
<path fill="none" stroke="midnightblue" d="M554.46,-37C545.72,-37 537.05,-37 529.01,-37"/>
<polygon fill="midnightblue" stroke="midnightblue" points="554.73,-40.5 564.73,-37 554.73,-33.5 554.73,-40.5"/>
</g>
<!-- Node3 -->
<g id="node3" class="node">
<title>Node3</title>
<g id="a_node3"><a xlink:href="../../d0/dbf/parda_8h.html#ab5b52d038b8aaf5acd36508c229bd923" target="_top" xlink:title=" ">
<polygon fill="white" stroke="black" points="90,-43 90,-81 247,-81 247,-43 90,-43"/>
<text text-anchor="start" x="98" y="-65.8" font-family="Helvetica,sans-Serif" font-size="14.00">classical_tree_based</text>
<text text-anchor="middle" x="168.5" y="-50.8" font-family="Helvetica,sans-Serif" font-size="14.00">_stackdist</text>
</a>
</g>
</g>
<!-- Node2&#45;&gt;Node3 -->
<g id="edge2" class="edge">
<title>Node2&#45;&gt;Node3</title>
<path fill="none" stroke="midnightblue" d="M433.79,-41.09C383.09,-45.1 305.17,-51.27 247.05,-55.86"/>
<polygon fill="midnightblue" stroke="midnightblue" points="434.17,-44.57 443.86,-40.29 433.62,-37.59 434.17,-44.57"/>
</g>
<!-- Node5 -->
<g id="node5" class="node">
<title>Node5</title>
<g id="a_node5"><a xlink:href="../../d5/d13/parda__omp_8h.html#a7d690cc9f8c5779105f049f091ee5e25" target="_top" xlink:title=" ">
<polygon fill="white" stroke="black" points="286,-5.5 286,-28.5 408,-28.5 408,-5.5 286,-5.5"/>
<text text-anchor="middle" x="347" y="-13.3" font-family="Helvetica,sans-Serif" font-size="14.00">parda_omp_init</text>
</a>
</g>
</g>
<!-- Node2&#45;&gt;Node5 -->
<g id="edge4" class="edge">
<title>Node2&#45;&gt;Node5</title>
<path fill="none" stroke="midnightblue" d="M433.82,-29.48C425.39,-28.26 416.6,-26.98 408,-25.73"/>
<polygon fill="midnightblue" stroke="midnightblue" points="433.47,-32.97 443.87,-30.95 434.48,-26.04 433.47,-32.97"/>
</g>
<!-- Node4 -->
<g id="node4" class="node">
<title>Node4</title>
<g id="a_node4"><a xlink:href="../../d0/d29/main_8c.html#a3c04138a5bfe5d72780bb7e82a18e627" target="_top" xlink:title=" ">
<polygon fill="white" stroke="black" points="0,-25.5 0,-48.5 51,-48.5 51,-25.5 0,-25.5"/>
<text text-anchor="middle" x="25.5" y="-33.3" font-family="Helvetica,sans-Serif" font-size="14.00">main</text>
</a>
</g>
</g>
<!-- Node3&#45;&gt;Node4 -->
<g id="edge3" class="edge">
<title>Node3&#45;&gt;Node4</title>
<path fill="none" stroke="midnightblue" d="M79.86,-46.46C69.43,-44.61 59.53,-42.86 51.16,-41.37"/>
<polygon fill="midnightblue" stroke="midnightblue" points="79.53,-49.96 89.99,-48.26 80.75,-43.06 79.53,-49.96"/>
</g>
<!-- Node6 -->
<g id="node6" class="node">
<title>Node6</title>
<g id="a_node6"><a xlink:href="../../d5/d13/parda__omp_8h.html#af99a329269ee6e1bd3f49b4442ab1097" target="_top" xlink:title=" ">
<polygon fill="white" stroke="black" points="87,-0.5 87,-23.5 250,-23.5 250,-0.5 87,-0.5"/>
<text text-anchor="middle" x="168.5" y="-8.3" font-family="Helvetica,sans-Serif" font-size="14.00">parda_omp_stackdist</text>
</a>
</g>
</g>
<!-- Node5&#45;&gt;Node6 -->
<g id="edge5" class="edge">
<title>Node5&#45;&gt;Node6</title>
<path fill="none" stroke="midnightblue" d="M275.64,-15.01C267.24,-14.77 258.61,-14.52 250.08,-14.28"/>
<polygon fill="midnightblue" stroke="midnightblue" points="275.66,-18.51 285.75,-15.29 275.86,-11.51 275.66,-18.51"/>
</g>
<!-- Node6&#45;&gt;Node4 -->
<g id="edge6" class="edge">
<title>Node6&#45;&gt;Node4</title>
<path fill="none" stroke="midnightblue" d="M92.12,-25.37C77.34,-27.99 62.84,-30.56 51.25,-32.61"/>
<polygon fill="midnightblue" stroke="midnightblue" points="93.13,-28.74 102.37,-23.55 91.91,-21.85 93.13,-28.74"/>
</g>
</g>
</svg>
