<?xml version="1.0" encoding="UTF-8" standalone="no"?>
<!DOCTYPE svg PUBLIC "-//W3C//DTD SVG 1.1//EN"
 "http://www.w3.org/Graphics/SVG/1.1/DTD/svg11.dtd">
<!-- Generated by graphviz version 2.43.0 (0)
 -->
<!-- Title: parda_merge Pages: 1 -->
<svg width="728pt" height="278pt"
 viewBox="0.00 0.00 728.00 277.87" xmlns="http://www.w3.org/2000/svg" xmlns:xlink="http://www.w3.org/1999/xlink">
<g id="graph0" class="graph" transform="scale(1 1) rotate(0) translate(4 273.87)">
<title>parda_merge</title>
<polygon fill="white" stroke="transparent" points="-4,4 -4,-273.87 724,-273.87 724,4 -4,4"/>
<!-- Node1 -->
<g id="node1" class="node">
<title>Node1</title>
<g id="a_node1"><a xlink:title=" ">
<polygon fill="#bfbfbf" stroke="black" points="0,-144.5 0,-167.5 107,-167.5 107,-144.5 0,-144.5"/>
<text text-anchor="middle" x="53.5" y="-152.3" font-family="Helvetica,sans-Serif" font-size="14.00">parda_merge</text>
</a>
</g>
</g>
<!-- Node2 -->
<g id="node2" class="node">
<title>Node2</title>
<g id="a_node2"><a xlink:href="../../da/de5/hostRuntime_8cpp.html#ae206dc2056b70c9901731e30447df1aa" target="_top" xlink:title=" ">
<polygon fill="white" stroke="black" points="676,-204.5 676,-227.5 720,-227.5 720,-204.5 676,-204.5"/>
<text text-anchor="middle" x="698" y="-212.3" font-family="Helvetica,sans-Serif" font-size="14.00">free</text>
</a>
</g>
</g>
<!-- Node1&#45;&gt;Node2 -->
<g id="edge1" class="edge">
<title>Node1&#45;&gt;Node2</title>
<path fill="none" stroke="midnightblue" d="M98.38,-167.61C112.55,-171.03 128.36,-174.52 143,-177 339.94,-210.37 580.94,-215.27 665.72,-215.93"/>
<polygon fill="midnightblue" stroke="midnightblue" points="665.92,-219.43 675.95,-215.99 665.97,-212.43 665.92,-219.43"/>
</g>
<!-- Node3 -->
<g id="node3" class="node">
<title>Node3</title>
<g id="a_node3"><a xlink:href="../../dc/dce/narray_8c.html#ad4a6215f48c72db2c016b1f3d8aa2723" target="_top" xlink:title=" ">
<polygon fill="white" stroke="black" points="518.5,-244.5 518.5,-267.5 613.5,-267.5 613.5,-244.5 518.5,-244.5"/>
<text text-anchor="middle" x="566" y="-252.3" font-family="Helvetica,sans-Serif" font-size="14.00">narray_free</text>
</a>
</g>
</g>
<!-- Node1&#45;&gt;Node3 -->
<g id="edge2" class="edge">
<title>Node1&#45;&gt;Node3</title>
<path fill="none" stroke="midnightblue" d="M63.92,-167.59C78.69,-184.8 109.14,-216.51 143,-230 265.91,-278.94 424.92,-271.86 508.28,-263.38"/>
<polygon fill="midnightblue" stroke="midnightblue" points="508.74,-266.85 518.31,-262.31 508,-259.89 508.74,-266.85"/>
</g>
<!-- Node4 -->
<g id="node4" class="node">
<title>Node4</title>
<g id="a_node4"><a xlink:href="../../d0/d96/parda_8c.html#a961dead466e68fdb22133f3544e60bda" target="_top" xlink:title=" ">
<polygon fill="white" stroke="black" points="143,-144.5 143,-167.5 301,-167.5 301,-144.5 143,-144.5"/>
<text text-anchor="middle" x="222" y="-152.3" font-family="Helvetica,sans-Serif" font-size="14.00">parda_generate_end</text>
</a>
</g>
</g>
<!-- Node1&#45;&gt;Node4 -->
<g id="edge4" class="edge">
<title>Node1&#45;&gt;Node4</title>
<path fill="none" stroke="midnightblue" d="M107.18,-156C115.33,-156 123.93,-156 132.61,-156"/>
<polygon fill="midnightblue" stroke="midnightblue" points="132.81,-159.5 142.81,-156 132.81,-152.5 132.81,-159.5"/>
</g>
<!-- Node8 -->
<g id="node8" class="node">
<title>Node8</title>
<g id="a_node8"><a xlink:href="../../d0/d96/parda_8c.html#a757e86b5a2b7eac055f98a355da1c184" target="_top" xlink:title=" ">
<polygon fill="white" stroke="black" points="154,-40.5 154,-63.5 290,-63.5 290,-40.5 154,-40.5"/>
<text text-anchor="middle" x="222" y="-48.3" font-family="Helvetica,sans-Serif" font-size="14.00">parda_get_abend</text>
</a>
</g>
</g>
<!-- Node1&#45;&gt;Node8 -->
<g id="edge9" class="edge">
<title>Node1&#45;&gt;Node8</title>
<path fill="none" stroke="midnightblue" d="M63.53,-144.47C78.23,-126.49 109.14,-91.86 143,-73 146.9,-70.83 151.03,-68.88 155.28,-67.12"/>
<polygon fill="midnightblue" stroke="midnightblue" points="156.59,-70.36 164.72,-63.57 154.12,-63.81 156.59,-70.36"/>
</g>
<!-- Node12 -->
<g id="node12" class="node">
<title>Node12</title>
<g id="a_node12"><a xlink:href="../../d0/d96/parda_8c.html#a8e4c1106b242bf781e1ec7d62fc21a41" target="_top" xlink:title=" ">
<polygon fill="white" stroke="black" points="150.5,-82.5 150.5,-105.5 293.5,-105.5 293.5,-82.5 150.5,-82.5"/>
<text text-anchor="middle" x="222" y="-90.3" font-family="Helvetica,sans-Serif" font-size="14.00">parda_get_abfront</text>
</a>
</g>
</g>
<!-- Node1&#45;&gt;Node12 -->
<g id="edge13" class="edge">
<title>Node1&#45;&gt;Node12</title>
<path fill="none" stroke="midnightblue" d="M85.43,-144.48C112.21,-134.51 151.15,-120.01 180.43,-109.11"/>
<polygon fill="midnightblue" stroke="midnightblue" points="181.81,-112.33 189.96,-105.56 179.36,-105.77 181.81,-112.33"/>
</g>
<!-- Node3&#45;&gt;Node2 -->
<g id="edge3" class="edge">
<title>Node3&#45;&gt;Node2</title>
<path fill="none" stroke="midnightblue" d="M604.6,-244.43C624.09,-238.43 647.6,-231.2 666.03,-225.53"/>
<polygon fill="midnightblue" stroke="midnightblue" points="667.15,-228.85 675.68,-222.56 665.1,-222.15 667.15,-228.85"/>
</g>
<!-- Node5 -->
<g id="node5" class="node">
<title>Node5</title>
<g id="a_node5"><a xlink:href="../../d0/d96/parda_8c.html#a91a802bec195082a1e725e3f307b099a" target="_top" xlink:title=" ">
<polygon fill="white" stroke="black" points="362.5,-122.5 362.5,-145.5 430.5,-145.5 430.5,-122.5 362.5,-122.5"/>
<text text-anchor="middle" x="396.5" y="-130.3" font-family="Helvetica,sans-Serif" font-size="14.00">iterator</text>
</a>
</g>
</g>
<!-- Node4&#45;&gt;Node5 -->
<g id="edge5" class="edge">
<title>Node4&#45;&gt;Node5</title>
<path fill="none" stroke="midnightblue" d="M301.17,-146.03C318.7,-143.79 336.68,-141.5 352.17,-139.53"/>
<polygon fill="midnightblue" stroke="midnightblue" points="352.99,-142.95 362.47,-138.21 352.11,-136.01 352.99,-142.95"/>
</g>
<!-- Node7 -->
<g id="node7" class="node">
<title>Node7</title>
<g id="a_node7"><a xlink:href="../../dc/dce/narray_8c.html#a32d99037d1eb9c14a4802ce1999cd8d6" target="_top" xlink:title=" ">
<polygon fill="white" stroke="black" points="348,-164.5 348,-187.5 445,-187.5 445,-164.5 348,-164.5"/>
<text text-anchor="middle" x="396.5" y="-172.3" font-family="Helvetica,sans-Serif" font-size="14.00">narray_new</text>
</a>
</g>
</g>
<!-- Node4&#45;&gt;Node7 -->
<g id="edge8" class="edge">
<title>Node4&#45;&gt;Node7</title>
<path fill="none" stroke="midnightblue" d="M301.17,-165.06C313.45,-166.49 325.94,-167.94 337.65,-169.29"/>
<polygon fill="midnightblue" stroke="midnightblue" points="337.37,-172.78 347.71,-170.46 338.18,-165.83 337.37,-172.78"/>
</g>
<!-- Node6 -->
<g id="node6" class="node">
<title>Node6</title>
<g id="a_node6"><a xlink:href="../../dc/dce/narray_8c.html#a00e1ac7249125879d43230a3f1a49b1d" target="_top" xlink:title=" ">
<polygon fill="white" stroke="black" points="492,-122.5 492,-145.5 640,-145.5 640,-122.5 492,-122.5"/>
<text text-anchor="middle" x="566" y="-130.3" font-family="Helvetica,sans-Serif" font-size="14.00">narray_append_val</text>
</a>
</g>
</g>
<!-- Node5&#45;&gt;Node6 -->
<g id="edge6" class="edge">
<title>Node5&#45;&gt;Node6</title>
<path fill="none" stroke="midnightblue" d="M430.59,-134C445.39,-134 463.58,-134 481.73,-134"/>
<polygon fill="midnightblue" stroke="midnightblue" points="481.79,-137.5 491.79,-134 481.79,-130.5 481.79,-137.5"/>
</g>
<!-- Node6&#45;&gt;Node2 -->
<g id="edge7" class="edge">
<title>Node6&#45;&gt;Node2</title>
<path fill="none" stroke="midnightblue" d="M585.35,-145.57C607.42,-159.49 644.64,-182.97 669.99,-198.96"/>
<polygon fill="midnightblue" stroke="midnightblue" points="668.42,-202.11 678.74,-204.48 672.15,-196.19 668.42,-202.11"/>
</g>
<!-- Node9 -->
<g id="node9" class="node">
<title>Node9</title>
<g id="a_node9"><a xlink:href="../../d1/df7/splay_8c.html#a7860ad42bad70e478b3778c1eb4c42b7" target="_top" xlink:title=" ">
<polygon fill="white" stroke="black" points="368.5,-42.5 368.5,-65.5 424.5,-65.5 424.5,-42.5 368.5,-42.5"/>
<text text-anchor="middle" x="396.5" y="-50.3" font-family="Helvetica,sans-Serif" font-size="14.00">insert</text>
</a>
</g>
</g>
<!-- Node8&#45;&gt;Node9 -->
<g id="edge10" class="edge">
<title>Node8&#45;&gt;Node9</title>
<path fill="none" stroke="midnightblue" d="M290.19,-52.78C313.28,-53.05 338.29,-53.34 358.15,-53.57"/>
<polygon fill="midnightblue" stroke="midnightblue" points="358.27,-57.07 368.31,-53.68 358.35,-50.07 358.27,-57.07"/>
</g>
<!-- Node11 -->
<g id="node11" class="node">
<title>Node11</title>
<g id="a_node11"><a xlink:href="../../de/d09/narray_8h.html#a58849f5cfc81dd047535c06f2e97cfb0" target="_top" xlink:title=" ">
<polygon fill="white" stroke="black" points="337,-0.5 337,-23.5 456,-23.5 456,-0.5 337,-0.5"/>
<text text-anchor="middle" x="396.5" y="-8.3" font-family="Helvetica,sans-Serif" font-size="14.00">narray_get_len</text>
</a>
</g>
</g>
<!-- Node8&#45;&gt;Node11 -->
<g id="edge12" class="edge">
<title>Node8&#45;&gt;Node11</title>
<path fill="none" stroke="midnightblue" d="M272.89,-40.43C292.56,-35.87 315.32,-30.59 335.84,-25.83"/>
<polygon fill="midnightblue" stroke="midnightblue" points="336.77,-29.21 345.72,-23.54 335.19,-22.39 336.77,-29.21"/>
</g>
<!-- Node10 -->
<g id="node10" class="node">
<title>Node10</title>
<g id="a_node10"><a xlink:href="../../d1/df7/splay_8c.html#a504c21ef77c65b86162e01d158acd1d6" target="_top" xlink:title=" ">
<polygon fill="white" stroke="black" points="539.5,-42.5 539.5,-65.5 592.5,-65.5 592.5,-42.5 539.5,-42.5"/>
<text text-anchor="middle" x="566" y="-50.3" font-family="Helvetica,sans-Serif" font-size="14.00">splay</text>
</a>
</g>
</g>
<!-- Node9&#45;&gt;Node10 -->
<g id="edge11" class="edge">
<title>Node9&#45;&gt;Node10</title>
<path fill="none" stroke="midnightblue" d="M424.78,-54C453.27,-54 498.06,-54 529.33,-54"/>
<polygon fill="midnightblue" stroke="midnightblue" points="529.38,-57.5 539.38,-54 529.38,-50.5 529.38,-57.5"/>
</g>
<!-- Node12&#45;&gt;Node6 -->
<g id="edge15" class="edge">
<title>Node12&#45;&gt;Node6</title>
<path fill="none" stroke="midnightblue" d="M293.57,-97.75C339.89,-100.7 401.71,-105.58 456,-113 470.74,-115.01 486.5,-117.72 501.32,-120.52"/>
<polygon fill="midnightblue" stroke="midnightblue" points="500.93,-124.01 511.41,-122.47 502.26,-117.14 500.93,-124.01"/>
</g>
<!-- Node12&#45;&gt;Node9 -->
<g id="edge14" class="edge">
<title>Node12&#45;&gt;Node9</title>
<path fill="none" stroke="midnightblue" d="M272.89,-82.43C300.18,-76.1 333.41,-68.4 358.39,-62.61"/>
<polygon fill="midnightblue" stroke="midnightblue" points="359.25,-66 368.2,-60.33 357.67,-59.18 359.25,-66"/>
</g>
<!-- Node12&#45;&gt;Node11 -->
<g id="edge16" class="edge">
<title>Node12&#45;&gt;Node11</title>
<path fill="none" stroke="midnightblue" d="M281.22,-82.37C288.14,-79.83 294.9,-76.74 301,-73 321.38,-60.49 317.14,-46.33 337,-33 339.73,-31.17 342.64,-29.47 345.65,-27.91"/>
<polygon fill="midnightblue" stroke="midnightblue" points="347.31,-31 354.89,-23.6 344.35,-24.65 347.31,-31"/>
</g>
</g>
</svg>
