<?xml version="1.0" encoding="UTF-8" standalone="no"?>
<!DOCTYPE svg PUBLIC "-//W3C//DTD SVG 1.1//EN"
 "http://www.w3.org/Graphics/SVG/1.1/DTD/svg11.dtd">
<!-- Generated by graphviz version 2.43.0 (0)
 -->
<!-- Title: parda_get_processor_info Pages: 1 -->
<svg width="453pt" height="112pt"
 viewBox="0.00 0.00 453.00 112.00" xmlns="http://www.w3.org/2000/svg" xmlns:xlink="http://www.w3.org/1999/xlink">
<g id="graph0" class="graph" transform="scale(1 1) rotate(0) translate(4 108)">
<title>parda_get_processor_info</title>
<polygon fill="white" stroke="transparent" points="-4,4 -4,-108 449,-108 449,4 -4,4"/>
<!-- Node1 -->
<g id="node1" class="node">
<title>Node1</title>
<g id="a_node1"><a xlink:title=" ">
<polygon fill="#bfbfbf" stroke="black" points="0,-40.5 0,-63.5 193,-63.5 193,-40.5 0,-40.5"/>
<text text-anchor="middle" x="96.5" y="-48.3" font-family="Helvetica,sans-Serif" font-size="14.00">parda_get_processor_info</text>
</a>
</g>
</g>
<!-- Node2 -->
<g id="node2" class="node">
<title>Node2</title>
<g id="a_node2"><a xlink:href="../../d0/dbf/parda_8h.html#acaab2e6efac0dda49e7cd3681b821bb1" target="_top" xlink:title=" ">
<polygon fill="white" stroke="black" points="229,-80.5 229,-103.5 323,-103.5 323,-80.5 229,-80.5"/>
<text text-anchor="middle" x="276" y="-88.3" font-family="Helvetica,sans-Serif" font-size="14.00">parda_high</text>
</a>
</g>
</g>
<!-- Node1&#45;&gt;Node2 -->
<g id="edge1" class="edge">
<title>Node1&#45;&gt;Node2</title>
<path fill="none" stroke="midnightblue" d="M148.84,-63.57C170.77,-68.51 196.43,-74.29 218.86,-79.35"/>
<polygon fill="midnightblue" stroke="midnightblue" points="218.39,-82.83 228.92,-81.62 219.93,-76 218.39,-82.83"/>
</g>
<!-- Node3 -->
<g id="node3" class="node">
<title>Node3</title>
<g id="a_node3"><a xlink:href="../../d0/dbf/parda_8h.html#ae98c5df9941618081aa7dd90a30627fc" target="_top" xlink:title=" ">
<polygon fill="white" stroke="black" points="359,-40.5 359,-63.5 445,-63.5 445,-40.5 359,-40.5"/>
<text text-anchor="middle" x="402" y="-48.3" font-family="Helvetica,sans-Serif" font-size="14.00">parda_low</text>
</a>
</g>
</g>
<!-- Node1&#45;&gt;Node3 -->
<g id="edge3" class="edge">
<title>Node1&#45;&gt;Node3</title>
<path fill="none" stroke="midnightblue" d="M193.11,-52C244.48,-52 305.83,-52 348.52,-52"/>
<polygon fill="midnightblue" stroke="midnightblue" points="348.68,-55.5 358.68,-52 348.68,-48.5 348.68,-55.5"/>
</g>
<!-- Node4 -->
<g id="node4" class="node">
<title>Node4</title>
<g id="a_node4"><a xlink:href="../../d0/dbf/parda_8h.html#a8b096049ef5ab82de4e5eaa0c22aedd6" target="_top" xlink:title=" ">
<polygon fill="white" stroke="black" points="231,-0.5 231,-23.5 321,-23.5 321,-0.5 231,-0.5"/>
<text text-anchor="middle" x="276" y="-8.3" font-family="Helvetica,sans-Serif" font-size="14.00">parda_size</text>
</a>
</g>
</g>
<!-- Node1&#45;&gt;Node4 -->
<g id="edge4" class="edge">
<title>Node1&#45;&gt;Node4</title>
<path fill="none" stroke="midnightblue" d="M148.84,-40.43C171.49,-35.33 198.13,-29.32 221.07,-24.15"/>
<polygon fill="midnightblue" stroke="midnightblue" points="222.01,-27.53 230.99,-21.92 220.47,-20.7 222.01,-27.53"/>
</g>
<!-- Node2&#45;&gt;Node3 -->
<g id="edge2" class="edge">
<title>Node2&#45;&gt;Node3</title>
<path fill="none" stroke="midnightblue" d="M312.87,-80.43C326.23,-76.12 341.58,-71.17 355.69,-66.62"/>
<polygon fill="midnightblue" stroke="midnightblue" points="356.77,-69.94 365.21,-63.54 354.62,-63.28 356.77,-69.94"/>
</g>
<!-- Node4&#45;&gt;Node3 -->
<g id="edge5" class="edge">
<title>Node4&#45;&gt;Node3</title>
<path fill="none" stroke="midnightblue" d="M312.87,-23.57C326.23,-27.88 341.58,-32.83 355.69,-37.38"/>
<polygon fill="midnightblue" stroke="midnightblue" points="354.62,-40.72 365.21,-40.46 356.77,-34.06 354.62,-40.72"/>
</g>
</g>
</svg>
