<?xml version="1.0" encoding="UTF-8" standalone="no"?>
<!DOCTYPE svg PUBLIC "-//W3C//DTD SVG 1.1//EN"
 "http://www.w3.org/Graphics/SVG/1.1/DTD/svg11.dtd">
<!-- Generated by graphviz version 2.43.0 (0)
 -->
<!-- Title: src.kernels.Kernel.kernel_call Pages: 1 -->
<svg width="966pt" height="318pt"
 viewBox="0.00 0.00 966.00 318.00" xmlns="http://www.w3.org/2000/svg" xmlns:xlink="http://www.w3.org/1999/xlink">
<g id="graph0" class="graph" transform="scale(1 1) rotate(0) translate(4 314)">
<title>src.kernels.Kernel.kernel_call</title>
<polygon fill="white" stroke="transparent" points="-4,4 -4,-314 962,-314 962,4 -4,4"/>
<!-- Node1 -->
<g id="node1" class="node">
<title>Node1</title>
<g id="a_node1"><a xlink:title=" ">
<polygon fill="#bfbfbf" stroke="black" points="0,-179 0,-202 215,-202 215,-179 0,-179"/>
<text text-anchor="middle" x="107.5" y="-186.8" font-family="Helvetica,sans-Serif" font-size="14.00">src.kernels.Kernel.kernel_call</text>
</a>
</g>
</g>
<!-- Node2 -->
<g id="node2" class="node">
<title>Node2</title>
<g id="a_node2"><a xlink:href="../../dd/d03/classsrc_1_1kernels_1_1Kernel.html#abdb5a17e8d0ef91c1184a3dc7d15557b" target="_top" xlink:title=" ">
<polygon fill="white" stroke="black" points="260.5,-271.5 260.5,-309.5 439.5,-309.5 439.5,-271.5 260.5,-271.5"/>
<text text-anchor="start" x="268.5" y="-294.3" font-family="Helvetica,sans-Serif" font-size="14.00">src.kernels.Kernel.block</text>
<text text-anchor="middle" x="350" y="-279.3" font-family="Helvetica,sans-Serif" font-size="14.00">List_has_active_warps</text>
</a>
</g>
</g>
<!-- Node1&#45;&gt;Node2 -->
<g id="edge1" class="edge">
<title>Node1&#45;&gt;Node2</title>
<path fill="none" stroke="midnightblue" d="M128.75,-202.01C155.93,-217.11 205.99,-243.78 251,-261.5 256.91,-263.82 263.07,-266.07 269.31,-268.2"/>
<polygon fill="midnightblue" stroke="midnightblue" points="268.56,-271.64 279.16,-271.47 270.77,-265 268.56,-271.64"/>
</g>
<!-- Node3 -->
<g id="node3" class="node">
<title>Node3</title>
<g id="a_node3"><a xlink:href="../../db/dd9/namespacesrc_1_1helper__methods.html#a200b4ba9800320e04640ea79314bbec6" target="_top" xlink:title=" ">
<polygon fill="white" stroke="black" points="259.5,-229 259.5,-252 440.5,-252 440.5,-229 259.5,-229"/>
<text text-anchor="middle" x="350" y="-236.8" font-family="Helvetica,sans-Serif" font-size="14.00">src.helper_methods.ceil</text>
</a>
</g>
</g>
<!-- Node1&#45;&gt;Node3 -->
<g id="edge2" class="edge">
<title>Node1&#45;&gt;Node3</title>
<path fill="none" stroke="midnightblue" d="M163.98,-202.03C199.63,-209.45 246.12,-219.11 283.57,-226.9"/>
<polygon fill="midnightblue" stroke="midnightblue" points="282.88,-230.33 293.39,-228.94 284.31,-223.48 282.88,-230.33"/>
</g>
<!-- Node4 -->
<g id="node4" class="node">
<title>Node4</title>
<g id="a_node4"><a xlink:href="../../db/dd9/namespacesrc_1_1helper__methods.html#ac0d3b86d6104d92062ef1ff28600b10b" target="_top" xlink:title=" ">
<polygon fill="white" stroke="black" points="251,-171.5 251,-209.5 449,-209.5 449,-171.5 251,-171.5"/>
<text text-anchor="start" x="259" y="-194.3" font-family="Helvetica,sans-Serif" font-size="14.00">src.helper_methods.dump</text>
<text text-anchor="middle" x="350" y="-179.3" font-family="Helvetica,sans-Serif" font-size="14.00">_output</text>
</a>
</g>
</g>
<!-- Node1&#45;&gt;Node4 -->
<g id="edge3" class="edge">
<title>Node1&#45;&gt;Node4</title>
<path fill="none" stroke="midnightblue" d="M215.04,-190.5C223.62,-190.5 232.29,-190.5 240.88,-190.5"/>
<polygon fill="midnightblue" stroke="midnightblue" points="240.91,-194 250.91,-190.5 240.91,-187 240.91,-194"/>
</g>
<!-- Node7 -->
<g id="node7" class="node">
<title>Node7</title>
<g id="a_node7"><a xlink:href="../../de/db9/namespacesrc_1_1memory__model.html#a274a5f5a23dfb02170d3fa39cc00d000" target="_top" xlink:title=" ">
<polygon fill="white" stroke="black" points="262,-114.5 262,-152.5 438,-152.5 438,-114.5 262,-114.5"/>
<text text-anchor="start" x="270" y="-137.3" font-family="Helvetica,sans-Serif" font-size="14.00">src.memory_model.get</text>
<text text-anchor="middle" x="350" y="-122.3" font-family="Helvetica,sans-Serif" font-size="14.00">_memory_perf</text>
</a>
</g>
</g>
<!-- Node1&#45;&gt;Node7 -->
<g id="edge6" class="edge">
<title>Node1&#45;&gt;Node7</title>
<path fill="none" stroke="midnightblue" d="M157.17,-178.97C186.28,-172.07 224.18,-163.08 258.6,-154.92"/>
<polygon fill="midnightblue" stroke="midnightblue" points="259.76,-158.25 268.68,-152.54 258.14,-151.44 259.76,-158.25"/>
</g>
<!-- Node12 -->
<g id="node12" class="node">
<title>Node12</title>
<g id="a_node12"><a xlink:href="../../dd/d03/classsrc_1_1kernels_1_1Kernel.html#aecaab1395b99beee47683bdc374f9e77" target="_top" xlink:title=" ">
<polygon fill="white" stroke="black" points="256,-57.5 256,-95.5 444,-95.5 444,-57.5 256,-57.5"/>
<text text-anchor="start" x="264" y="-80.3" font-family="Helvetica,sans-Serif" font-size="14.00">src.kernels.Kernel.spawn</text>
<text text-anchor="middle" x="350" y="-65.3" font-family="Helvetica,sans-Serif" font-size="14.00">_blocks</text>
</a>
</g>
</g>
<!-- Node1&#45;&gt;Node12 -->
<g id="edge11" class="edge">
<title>Node1&#45;&gt;Node12</title>
<path fill="none" stroke="midnightblue" d="M124.87,-178.87C150.64,-161 202.71,-126.65 251,-105.5 256.31,-103.17 261.86,-100.97 267.5,-98.89"/>
<polygon fill="midnightblue" stroke="midnightblue" points="268.8,-102.15 277.06,-95.52 266.47,-95.55 268.8,-102.15"/>
</g>
<!-- Node5 -->
<g id="node5" class="node">
<title>Node5</title>
<g id="a_node5"><a xlink:href="../../db/dd9/namespacesrc_1_1helper__methods.html#a98a286a57a703d618a2379389654ac00" target="_top" xlink:title=" ">
<polygon fill="white" stroke="black" points="485,-229 485,-252 725,-252 725,-229 485,-229"/>
<text text-anchor="middle" x="605" y="-236.8" font-family="Helvetica,sans-Serif" font-size="14.00">src.helper_methods.convert_sec</text>
</a>
</g>
</g>
<!-- Node4&#45;&gt;Node5 -->
<g id="edge4" class="edge">
<title>Node4&#45;&gt;Node5</title>
<path fill="none" stroke="midnightblue" d="M436.68,-209.56C452.72,-212.98 469.35,-216.43 485,-219.5 498.25,-222.1 512.36,-224.72 526.07,-227.19"/>
<polygon fill="midnightblue" stroke="midnightblue" points="525.49,-230.64 535.95,-228.96 526.72,-223.75 525.49,-230.64"/>
</g>
<!-- Node6 -->
<g id="node6" class="node">
<title>Node6</title>
<g id="a_node6"><a xlink:href="../../db/dd9/namespacesrc_1_1helper__methods.html#ac1a37d6a6c9bf80123c1e1761349484b" target="_top" xlink:title=" ">
<polygon fill="white" stroke="black" points="508,-171.5 508,-209.5 702,-209.5 702,-171.5 508,-171.5"/>
<text text-anchor="start" x="516" y="-194.3" font-family="Helvetica,sans-Serif" font-size="14.00">src.helper_methods.place</text>
<text text-anchor="middle" x="605" y="-179.3" font-family="Helvetica,sans-Serif" font-size="14.00">_value</text>
</a>
</g>
</g>
<!-- Node4&#45;&gt;Node6 -->
<g id="edge5" class="edge">
<title>Node4&#45;&gt;Node6</title>
<path fill="none" stroke="midnightblue" d="M449.18,-190.5C465.02,-190.5 481.48,-190.5 497.5,-190.5"/>
<polygon fill="midnightblue" stroke="midnightblue" points="497.96,-194 507.96,-190.5 497.96,-187 497.96,-194"/>
</g>
<!-- Node8 -->
<g id="node8" class="node">
<title>Node8</title>
<g id="a_node8"><a xlink:href="../../de/db9/namespacesrc_1_1memory__model.html#a8ab81f12956def8507e91bc6c4f63c29" target="_top" xlink:title=" ">
<polygon fill="white" stroke="black" points="517,-114.5 517,-152.5 693,-152.5 693,-114.5 517,-114.5"/>
<text text-anchor="start" x="525" y="-137.3" font-family="Helvetica,sans-Serif" font-size="14.00">src.memory_model.get</text>
<text text-anchor="middle" x="605" y="-122.3" font-family="Helvetica,sans-Serif" font-size="14.00">_hit_rate_analytical</text>
</a>
</g>
</g>
<!-- Node7&#45;&gt;Node8 -->
<g id="edge7" class="edge">
<title>Node7&#45;&gt;Node8</title>
<path fill="none" stroke="midnightblue" d="M438.07,-133.5C460.13,-133.5 483.97,-133.5 506.52,-133.5"/>
<polygon fill="midnightblue" stroke="midnightblue" points="506.77,-137 516.77,-133.5 506.77,-130 506.77,-137"/>
</g>
<!-- Node10 -->
<g id="node10" class="node">
<title>Node10</title>
<g id="a_node10"><a xlink:href="../../de/db9/namespacesrc_1_1memory__model.html#a965a7bf1cde6b370a9bf1dcda323fd51" target="_top" xlink:title=" ">
<polygon fill="white" stroke="black" points="494,-57.5 494,-95.5 716,-95.5 716,-57.5 494,-57.5"/>
<text text-anchor="start" x="502" y="-80.3" font-family="Helvetica,sans-Serif" font-size="14.00">src.memory_model.interleave</text>
<text text-anchor="middle" x="605" y="-65.3" font-family="Helvetica,sans-Serif" font-size="14.00">_trace</text>
</a>
</g>
</g>
<!-- Node7&#45;&gt;Node10 -->
<g id="edge9" class="edge">
<title>Node7&#45;&gt;Node10</title>
<path fill="none" stroke="midnightblue" d="M435.6,-114.44C459.33,-109.09 485.29,-103.25 509.56,-97.78"/>
<polygon fill="midnightblue" stroke="midnightblue" points="510.5,-101.15 519.48,-95.54 508.96,-94.32 510.5,-101.15"/>
</g>
<!-- Node11 -->
<g id="node11" class="node">
<title>Node11</title>
<g id="a_node11"><a xlink:href="../../de/db9/namespacesrc_1_1memory__model.html#ae7d28577d201057426edebbed1a7b02e" target="_top" xlink:title=" ">
<polygon fill="white" stroke="black" points="490.5,-0.5 490.5,-38.5 719.5,-38.5 719.5,-0.5 490.5,-0.5"/>
<text text-anchor="start" x="498.5" y="-23.3" font-family="Helvetica,sans-Serif" font-size="14.00">src.memory_model.preprocess</text>
<text text-anchor="middle" x="605" y="-8.3" font-family="Helvetica,sans-Serif" font-size="14.00">_shared_trace</text>
</a>
</g>
</g>
<!-- Node7&#45;&gt;Node11 -->
<g id="edge10" class="edge">
<title>Node7&#45;&gt;Node11</title>
<path fill="none" stroke="midnightblue" d="M434.86,-114.25C439.85,-111.69 444.61,-108.79 449,-105.5 472.98,-87.54 460.67,-65.99 485,-48.5 487.55,-46.67 490.2,-44.95 492.94,-43.34"/>
<polygon fill="midnightblue" stroke="midnightblue" points="494.74,-46.34 501.92,-38.55 491.45,-40.16 494.74,-46.34"/>
</g>
<!-- Node9 -->
<g id="node9" class="node">
<title>Node9</title>
<g id="a_node9"><a xlink:href="../../db/dd9/namespacesrc_1_1helper__methods.html#a3d32aea1067f90390d01df20424039dc" target="_top" xlink:title=" ">
<polygon fill="white" stroke="black" points="761,-122 761,-145 958,-145 958,-122 761,-122"/>
<text text-anchor="middle" x="859.5" y="-129.8" font-family="Helvetica,sans-Serif" font-size="14.00">src.helper_methods.qfunc</text>
</a>
</g>
</g>
<!-- Node8&#45;&gt;Node9 -->
<g id="edge8" class="edge">
<title>Node8&#45;&gt;Node9</title>
<path fill="none" stroke="midnightblue" d="M693.25,-133.5C711.74,-133.5 731.46,-133.5 750.61,-133.5"/>
<polygon fill="midnightblue" stroke="midnightblue" points="750.87,-137 760.87,-133.5 750.87,-130 750.87,-137"/>
</g>
</g>
</svg>
