<?xml version="1.0" encoding="UTF-8" standalone="no"?>
<!DOCTYPE svg PUBLIC "-//W3C//DTD SVG 1.1//EN"
 "http://www.w3.org/Graphics/SVG/1.1/DTD/svg11.dtd">
<!-- Generated by graphviz version 2.43.0 (0)
 -->
<!-- Title: parda_get_thread_info Pages: 1 -->
<svg width="430pt" height="112pt"
 viewBox="0.00 0.00 430.00 112.00" xmlns="http://www.w3.org/2000/svg" xmlns:xlink="http://www.w3.org/1999/xlink">
<g id="graph0" class="graph" transform="scale(1 1) rotate(0) translate(4 108)">
<title>parda_get_thread_info</title>
<polygon fill="white" stroke="transparent" points="-4,4 -4,-108 426,-108 426,4 -4,4"/>
<!-- Node1 -->
<g id="node1" class="node">
<title>Node1</title>
<g id="a_node1"><a xlink:title=" ">
<polygon fill="#bfbfbf" stroke="black" points="0,-40.5 0,-63.5 170,-63.5 170,-40.5 0,-40.5"/>
<text text-anchor="middle" x="85" y="-48.3" font-family="Helvetica,sans-Serif" font-size="14.00">parda_get_thread_info</text>
</a>
</g>
</g>
<!-- Node2 -->
<g id="node2" class="node">
<title>Node2</title>
<g id="a_node2"><a xlink:href="../../d0/dbf/parda_8h.html#acaab2e6efac0dda49e7cd3681b821bb1" target="_top" xlink:title=" ">
<polygon fill="white" stroke="black" points="206,-80.5 206,-103.5 300,-103.5 300,-80.5 206,-80.5"/>
<text text-anchor="middle" x="253" y="-88.3" font-family="Helvetica,sans-Serif" font-size="14.00">parda_high</text>
</a>
</g>
</g>
<!-- Node1&#45;&gt;Node2 -->
<g id="edge1" class="edge">
<title>Node1&#45;&gt;Node2</title>
<path fill="none" stroke="midnightblue" d="M134.01,-63.57C153.35,-68.23 175.78,-73.63 195.86,-78.47"/>
<polygon fill="midnightblue" stroke="midnightblue" points="195.27,-81.93 205.81,-80.87 196.91,-75.12 195.27,-81.93"/>
</g>
<!-- Node3 -->
<g id="node3" class="node">
<title>Node3</title>
<g id="a_node3"><a xlink:href="../../d0/dbf/parda_8h.html#ae98c5df9941618081aa7dd90a30627fc" target="_top" xlink:title=" ">
<polygon fill="white" stroke="black" points="336,-40.5 336,-63.5 422,-63.5 422,-40.5 336,-40.5"/>
<text text-anchor="middle" x="379" y="-48.3" font-family="Helvetica,sans-Serif" font-size="14.00">parda_low</text>
</a>
</g>
</g>
<!-- Node1&#45;&gt;Node3 -->
<g id="edge3" class="edge">
<title>Node1&#45;&gt;Node3</title>
<path fill="none" stroke="midnightblue" d="M170.07,-52C220.29,-52 282.52,-52 325.75,-52"/>
<polygon fill="midnightblue" stroke="midnightblue" points="325.76,-55.5 335.76,-52 325.76,-48.5 325.76,-55.5"/>
</g>
<!-- Node4 -->
<g id="node4" class="node">
<title>Node4</title>
<g id="a_node4"><a xlink:href="../../d0/dbf/parda_8h.html#a8b096049ef5ab82de4e5eaa0c22aedd6" target="_top" xlink:title=" ">
<polygon fill="white" stroke="black" points="208,-0.5 208,-23.5 298,-23.5 298,-0.5 208,-0.5"/>
<text text-anchor="middle" x="253" y="-8.3" font-family="Helvetica,sans-Serif" font-size="14.00">parda_size</text>
</a>
</g>
</g>
<!-- Node1&#45;&gt;Node4 -->
<g id="edge4" class="edge">
<title>Node1&#45;&gt;Node4</title>
<path fill="none" stroke="midnightblue" d="M134.01,-40.43C154.01,-35.61 177.32,-29.99 197.92,-25.03"/>
<polygon fill="midnightblue" stroke="midnightblue" points="198.88,-28.4 207.79,-22.65 197.24,-21.59 198.88,-28.4"/>
</g>
<!-- Node2&#45;&gt;Node3 -->
<g id="edge2" class="edge">
<title>Node2&#45;&gt;Node3</title>
<path fill="none" stroke="midnightblue" d="M289.87,-80.43C303.23,-76.12 318.58,-71.17 332.69,-66.62"/>
<polygon fill="midnightblue" stroke="midnightblue" points="333.77,-69.94 342.21,-63.54 331.62,-63.28 333.77,-69.94"/>
</g>
<!-- Node4&#45;&gt;Node3 -->
<g id="edge5" class="edge">
<title>Node4&#45;&gt;Node3</title>
<path fill="none" stroke="midnightblue" d="M289.87,-23.57C303.23,-27.88 318.58,-32.83 332.69,-37.38"/>
<polygon fill="midnightblue" stroke="midnightblue" points="331.62,-40.72 342.21,-40.46 333.77,-34.06 331.62,-40.72"/>
</g>
</g>
</svg>
