<?xml version="1.0" encoding="UTF-8" standalone="no"?>
<!DOCTYPE svg PUBLIC "-//W3C//DTD SVG 1.1//EN"
 "http://www.w3.org/Graphics/SVG/1.1/DTD/svg11.dtd">
<!-- Generated by graphviz version 2.43.0 (0)
 -->
<!-- Title: PPT&#45;GPU/tracing_tool/nvbit/nvbit_tool.h Pages: 1 -->
<svg width="246pt" height="107pt"
 viewBox="0.00 0.00 246.00 107.00" xmlns="http://www.w3.org/2000/svg" xmlns:xlink="http://www.w3.org/1999/xlink">
<g id="graph0" class="graph" transform="scale(1 1) rotate(0) translate(4 103)">
<title>PPT&#45;GPU/tracing_tool/nvbit/nvbit_tool.h</title>
<polygon fill="white" stroke="transparent" points="-4,4 -4,-103 242,-103 242,4 -4,4"/>
<!-- Node1 -->
<g id="node1" class="node">
<title>Node1</title>
<g id="a_node1"><a xlink:title=" ">
<polygon fill="#bfbfbf" stroke="black" points="35.5,-60.5 35.5,-98.5 196.5,-98.5 196.5,-60.5 35.5,-60.5"/>
<text text-anchor="start" x="43.5" y="-83.3" font-family="Helvetica,sans-Serif" font-size="14.00">PPT&#45;GPU/tracing_tool</text>
<text text-anchor="middle" x="116" y="-68.3" font-family="Helvetica,sans-Serif" font-size="14.00">/nvbit/nvbit_tool.h</text>
</a>
</g>
</g>
<!-- Node2 -->
<g id="node2" class="node">
<title>Node2</title>
<g id="a_node2"><a xlink:title=" ">
<polygon fill="white" stroke="#bfbfbf" points="0,-0.5 0,-23.5 64,-23.5 64,-0.5 0,-0.5"/>
<text text-anchor="middle" x="32" y="-8.3" font-family="Helvetica,sans-Serif" font-size="14.00">stdio.h</text>
</a>
</g>
</g>
<!-- Node1&#45;&gt;Node2 -->
<g id="edge1" class="edge">
<title>Node1&#45;&gt;Node2</title>
<path fill="none" stroke="midnightblue" d="M92.6,-60.25C80.41,-50.75 65.61,-39.21 53.68,-29.91"/>
<polygon fill="midnightblue" stroke="midnightblue" points="55.62,-26.98 45.58,-23.59 51.32,-32.5 55.62,-26.98"/>
</g>
<!-- Node3 -->
<g id="node3" class="node">
<title>Node3</title>
<g id="a_node3"><a xlink:title=" ">
<polygon fill="white" stroke="#bfbfbf" points="82.5,-0.5 82.5,-23.5 149.5,-23.5 149.5,-0.5 82.5,-0.5"/>
<text text-anchor="middle" x="116" y="-8.3" font-family="Helvetica,sans-Serif" font-size="14.00">cassert</text>
</a>
</g>
</g>
<!-- Node1&#45;&gt;Node3 -->
<g id="edge2" class="edge">
<title>Node1&#45;&gt;Node3</title>
<path fill="none" stroke="midnightblue" d="M116,-60.25C116,-52.04 116,-42.31 116,-33.81"/>
<polygon fill="midnightblue" stroke="midnightblue" points="119.5,-33.59 116,-23.59 112.5,-33.59 119.5,-33.59"/>
</g>
<!-- Node4 -->
<g id="node4" class="node">
<title>Node4</title>
<g id="a_node4"><a xlink:title=" ">
<polygon fill="white" stroke="#bfbfbf" points="168,-0.5 168,-23.5 238,-23.5 238,-0.5 168,-0.5"/>
<text text-anchor="middle" x="203" y="-8.3" font-family="Helvetica,sans-Serif" font-size="14.00">stdint.h</text>
</a>
</g>
</g>
<!-- Node1&#45;&gt;Node4 -->
<g id="edge3" class="edge">
<title>Node1&#45;&gt;Node4</title>
<path fill="none" stroke="midnightblue" d="M140.23,-60.25C152.98,-50.66 168.49,-38.98 180.9,-29.64"/>
<polygon fill="midnightblue" stroke="midnightblue" points="183.05,-32.4 188.93,-23.59 178.84,-26.81 183.05,-32.4"/>
</g>
</g>
</svg>
