<?xml version="1.0" encoding="UTF-8" standalone="no"?>
<!DOCTYPE svg PUBLIC "-//W3C//DTD SVG 1.1//EN"
 "http://www.w3.org/Graphics/SVG/1.1/DTD/svg11.dtd">
<!-- Generated by graphviz version 2.43.0 (0)
 -->
<!-- Title: PPT&#45;GPU/reuse_distance_tool/splay.h Pages: 1 -->
<svg width="191pt" height="107pt"
 viewBox="0.00 0.00 191.00 107.00" xmlns="http://www.w3.org/2000/svg" xmlns:xlink="http://www.w3.org/1999/xlink">
<g id="graph0" class="graph" transform="scale(1 1) rotate(0) translate(4 103)">
<title>PPT&#45;GPU/reuse_distance_tool/splay.h</title>
<polygon fill="white" stroke="transparent" points="-4,4 -4,-103 187,-103 187,4 -4,4"/>
<!-- Node1 -->
<g id="node1" class="node">
<title>Node1</title>
<g id="a_node1"><a xlink:title=" ">
<polygon fill="#bfbfbf" stroke="black" points="0,-60.5 0,-98.5 183,-98.5 183,-60.5 0,-60.5"/>
<text text-anchor="start" x="8" y="-83.3" font-family="Helvetica,sans-Serif" font-size="14.00">PPT&#45;GPU/reuse_distance</text>
<text text-anchor="middle" x="91.5" y="-68.3" font-family="Helvetica,sans-Serif" font-size="14.00">_tool/splay.h</text>
</a>
</g>
</g>
<!-- Node2 -->
<g id="node2" class="node">
<title>Node2</title>
<g id="a_node2"><a xlink:title=" ">
<polygon fill="white" stroke="#bfbfbf" points="17.5,-0.5 17.5,-23.5 81.5,-23.5 81.5,-0.5 17.5,-0.5"/>
<text text-anchor="middle" x="49.5" y="-8.3" font-family="Helvetica,sans-Serif" font-size="14.00">stdio.h</text>
</a>
</g>
</g>
<!-- Node1&#45;&gt;Node2 -->
<g id="edge1" class="edge">
<title>Node1&#45;&gt;Node2</title>
<path fill="none" stroke="midnightblue" d="M79.8,-60.25C74.18,-51.49 67.45,-40.99 61.75,-32.11"/>
<polygon fill="midnightblue" stroke="midnightblue" points="64.64,-30.12 56.29,-23.59 58.74,-33.9 64.64,-30.12"/>
</g>
<!-- Node3 -->
<g id="node3" class="node">
<title>Node3</title>
<g id="a_node3"><a xlink:title=" ">
<polygon fill="white" stroke="#bfbfbf" points="99.5,-0.5 99.5,-23.5 167.5,-23.5 167.5,-0.5 99.5,-0.5"/>
<text text-anchor="middle" x="133.5" y="-8.3" font-family="Helvetica,sans-Serif" font-size="14.00">stdlib.h</text>
</a>
</g>
</g>
<!-- Node1&#45;&gt;Node3 -->
<g id="edge2" class="edge">
<title>Node1&#45;&gt;Node3</title>
<path fill="none" stroke="midnightblue" d="M103.2,-60.25C108.82,-51.49 115.55,-40.99 121.25,-32.11"/>
<polygon fill="midnightblue" stroke="midnightblue" points="124.26,-33.9 126.71,-23.59 118.36,-30.12 124.26,-33.9"/>
</g>
</g>
</svg>
