<?xml version="1.0" encoding="UTF-8" standalone="no"?>
<!DOCTYPE svg PUBLIC "-//W3C//DTD SVG 1.1//EN"
 "http://www.w3.org/Graphics/SVG/1.1/DTD/svg11.dtd">
<!-- Generated by graphviz version 2.43.0 (0)
 -->
<!-- Title: cuStreamBatchMemOp_ptsz_params_st Pages: 1 -->
<svg width="184pt" height="122pt"
 viewBox="0.00 0.00 184.00 122.00" xmlns="http://www.w3.org/2000/svg" xmlns:xlink="http://www.w3.org/1999/xlink">
<g id="graph0" class="graph" transform="scale(1 1) rotate(0) translate(4 118)">
<title>cuStreamBatchMemOp_ptsz_params_st</title>
<polygon fill="white" stroke="transparent" points="-4,4 -4,-118 180,-118 180,4 -4,4"/>
<!-- Node1 -->
<g id="node1" class="node">
<title>Node1</title>
<g id="a_node1"><a xlink:title=" ">
<polygon fill="#bfbfbf" stroke="black" points="0,-0.5 0,-38.5 176,-38.5 176,-0.5 0,-0.5"/>
<text text-anchor="start" x="8" y="-23.3" font-family="Helvetica,sans-Serif" font-size="14.00">cuStreamBatchMemOp</text>
<text text-anchor="middle" x="88" y="-8.3" font-family="Helvetica,sans-Serif" font-size="14.00">_ptsz_params_st</text>
</a>
</g>
</g>
<!-- Node2 -->
<g id="node2" class="node">
<title>Node2</title>
<g id="a_node2"><a xlink:title=" ">
<polygon fill="white" stroke="#bfbfbf" points="59.5,-90.5 59.5,-113.5 116.5,-113.5 116.5,-90.5 59.5,-90.5"/>
<text text-anchor="middle" x="88" y="-98.3" font-family="Helvetica,sans-Serif" font-size="14.00">struct</text>
</a>
</g>
</g>
<!-- Node2&#45;&gt;Node1 -->
<g id="edge1" class="edge">
<title>Node2&#45;&gt;Node1</title>
<path fill="none" stroke="#9a32cd" stroke-dasharray="5,2" d="M88,-80.28C88,-67.43 88,-51.07 88,-38.72"/>
<polygon fill="#9a32cd" stroke="#9a32cd" points="84.5,-80.48 88,-90.48 91.5,-80.48 84.5,-80.48"/>
<text text-anchor="middle" x="114.5" y="-60.8" font-family="Helvetica,sans-Serif" font-size="14.00"> stream</text>
</g>
</g>
</svg>
