<?xml version="1.0" encoding="UTF-8" standalone="no"?>
<!DOCTYPE svg PUBLIC "-//W3C//DTD SVG 1.1//EN"
 "http://www.w3.org/Graphics/SVG/1.1/DTD/svg11.dtd">
<!-- Generated by graphviz version 2.43.0 (0)
 -->
<!-- Title: PPT&#45;GPU/reuse_distance_tool/process_args.c Pages: 1 -->
<svg width="637pt" height="167pt"
 viewBox="0.00 0.00 636.50 167.00" xmlns="http://www.w3.org/2000/svg" xmlns:xlink="http://www.w3.org/1999/xlink">
<g id="graph0" class="graph" transform="scale(1 1) rotate(0) translate(4 163)">
<title>PPT&#45;GPU/reuse_distance_tool/process_args.c</title>
<polygon fill="white" stroke="transparent" points="-4,4 -4,-163 632.5,-163 632.5,4 -4,4"/>
<!-- Node1 -->
<g id="node1" class="node">
<title>Node1</title>
<g id="a_node1"><a xlink:title=" ">
<polygon fill="#bfbfbf" stroke="black" points="197,-120.5 197,-158.5 380,-158.5 380,-120.5 197,-120.5"/>
<text text-anchor="start" x="205" y="-143.3" font-family="Helvetica,sans-Serif" font-size="14.00">PPT&#45;GPU/reuse_distance</text>
<text text-anchor="middle" x="288.5" y="-128.3" font-family="Helvetica,sans-Serif" font-size="14.00">_tool/process_args.c</text>
</a>
</g>
</g>
<!-- Node2 -->
<g id="node2" class="node">
<title>Node2</title>
<g id="a_node2"><a xlink:href="../../da/d28/process__args_8h.html" target="_top" xlink:title=" ">
<polygon fill="white" stroke="black" points="228.5,-60.5 228.5,-83.5 348.5,-83.5 348.5,-60.5 228.5,-60.5"/>
<text text-anchor="middle" x="288.5" y="-68.3" font-family="Helvetica,sans-Serif" font-size="14.00">process_args.h</text>
</a>
</g>
</g>
<!-- Node1&#45;&gt;Node2 -->
<g id="edge1" class="edge">
<title>Node1&#45;&gt;Node2</title>
<path fill="none" stroke="midnightblue" d="M288.5,-120.25C288.5,-112.04 288.5,-102.31 288.5,-93.81"/>
<polygon fill="midnightblue" stroke="midnightblue" points="292,-93.59 288.5,-83.59 285,-93.59 292,-93.59"/>
</g>
<!-- Node3 -->
<g id="node3" class="node">
<title>Node3</title>
<g id="a_node3"><a xlink:title=" ">
<polygon fill="white" stroke="#bfbfbf" points="0,-0.5 0,-23.5 61,-23.5 61,-0.5 0,-0.5"/>
<text text-anchor="middle" x="30.5" y="-8.3" font-family="Helvetica,sans-Serif" font-size="14.00">fcntl.h</text>
</a>
</g>
</g>
<!-- Node2&#45;&gt;Node3 -->
<g id="edge2" class="edge">
<title>Node2&#45;&gt;Node3</title>
<path fill="none" stroke="midnightblue" d="M234.73,-60.45C192.52,-51.95 132.07,-39.27 70.92,-24.26"/>
<polygon fill="midnightblue" stroke="midnightblue" points="71.66,-20.84 61.11,-21.83 69.97,-27.63 71.66,-20.84"/>
</g>
<!-- Node4 -->
<g id="node4" class="node">
<title>Node4</title>
<g id="a_node4"><a xlink:title=" ">
<polygon fill="white" stroke="#bfbfbf" points="79,-0.5 79,-23.5 154,-23.5 154,-0.5 79,-0.5"/>
<text text-anchor="middle" x="116.5" y="-8.3" font-family="Helvetica,sans-Serif" font-size="14.00">getopt.h</text>
</a>
</g>
</g>
<!-- Node2&#45;&gt;Node4 -->
<g id="edge3" class="edge">
<title>Node2&#45;&gt;Node4</title>
<path fill="none" stroke="midnightblue" d="M257.35,-60.5C229.31,-51.04 187.92,-37.08 157.25,-26.74"/>
<polygon fill="midnightblue" stroke="midnightblue" points="158.3,-23.4 147.71,-23.52 156.06,-30.03 158.3,-23.4"/>
</g>
<!-- Node5 -->
<g id="node5" class="node">
<title>Node5</title>
<g id="a_node5"><a xlink:title=" ">
<polygon fill="white" stroke="#bfbfbf" points="172.5,-0.5 172.5,-23.5 236.5,-23.5 236.5,-0.5 172.5,-0.5"/>
<text text-anchor="middle" x="204.5" y="-8.3" font-family="Helvetica,sans-Serif" font-size="14.00">stdio.h</text>
</a>
</g>
</g>
<!-- Node2&#45;&gt;Node5 -->
<g id="edge4" class="edge">
<title>Node2&#45;&gt;Node5</title>
<path fill="none" stroke="midnightblue" d="M273.09,-60.36C260.54,-51.7 242.61,-39.31 228.23,-29.38"/>
<polygon fill="midnightblue" stroke="midnightblue" points="230.03,-26.37 219.81,-23.57 226.05,-32.13 230.03,-26.37"/>
</g>
<!-- Node6 -->
<g id="node6" class="node">
<title>Node6</title>
<g id="a_node6"><a xlink:title=" ">
<polygon fill="white" stroke="#bfbfbf" points="254.5,-0.5 254.5,-23.5 322.5,-23.5 322.5,-0.5 254.5,-0.5"/>
<text text-anchor="middle" x="288.5" y="-8.3" font-family="Helvetica,sans-Serif" font-size="14.00">stdlib.h</text>
</a>
</g>
</g>
<!-- Node2&#45;&gt;Node6 -->
<g id="edge5" class="edge">
<title>Node2&#45;&gt;Node6</title>
<path fill="none" stroke="midnightblue" d="M288.5,-60.36C288.5,-52.92 288.5,-42.74 288.5,-33.73"/>
<polygon fill="midnightblue" stroke="midnightblue" points="292,-33.57 288.5,-23.57 285,-33.57 292,-33.57"/>
</g>
<!-- Node7 -->
<g id="node7" class="node">
<title>Node7</title>
<g id="a_node7"><a xlink:title=" ">
<polygon fill="white" stroke="#bfbfbf" points="341,-0.5 341,-23.5 412,-23.5 412,-0.5 341,-0.5"/>
<text text-anchor="middle" x="376.5" y="-8.3" font-family="Helvetica,sans-Serif" font-size="14.00">string.h</text>
</a>
</g>
</g>
<!-- Node2&#45;&gt;Node7 -->
<g id="edge6" class="edge">
<title>Node2&#45;&gt;Node7</title>
<path fill="none" stroke="midnightblue" d="M304.64,-60.36C317.91,-51.61 336.93,-39.08 352.07,-29.1"/>
<polygon fill="midnightblue" stroke="midnightblue" points="354.04,-32 360.46,-23.57 350.19,-26.15 354.04,-32"/>
</g>
<!-- Node8 -->
<g id="node8" class="node">
<title>Node8</title>
<g id="a_node8"><a xlink:title=" ">
<polygon fill="white" stroke="#bfbfbf" points="430.5,-0.5 430.5,-23.5 514.5,-23.5 514.5,-0.5 430.5,-0.5"/>
<text text-anchor="middle" x="472.5" y="-8.3" font-family="Helvetica,sans-Serif" font-size="14.00">sys/stat.h</text>
</a>
</g>
</g>
<!-- Node2&#45;&gt;Node8 -->
<g id="edge7" class="edge">
<title>Node2&#45;&gt;Node8</title>
<path fill="none" stroke="midnightblue" d="M321.82,-60.5C351.95,-51 396.48,-36.96 429.33,-26.61"/>
<polygon fill="midnightblue" stroke="midnightblue" points="430.63,-29.87 439.12,-23.52 428.53,-23.19 430.63,-29.87"/>
</g>
<!-- Node9 -->
<g id="node9" class="node">
<title>Node9</title>
<g id="a_node9"><a xlink:title=" ">
<polygon fill="white" stroke="#bfbfbf" points="532.5,-0.5 532.5,-23.5 628.5,-23.5 628.5,-0.5 532.5,-0.5"/>
<text text-anchor="middle" x="580.5" y="-8.3" font-family="Helvetica,sans-Serif" font-size="14.00">sys/types.h</text>
</a>
</g>
</g>
<!-- Node2&#45;&gt;Node9 -->
<g id="edge8" class="edge">
<title>Node2&#45;&gt;Node9</title>
<path fill="none" stroke="midnightblue" d="M341.38,-60.5C392.48,-50.35 469.72,-35 522.49,-24.52"/>
<polygon fill="midnightblue" stroke="midnightblue" points="523.25,-27.94 532.37,-22.56 521.88,-21.07 523.25,-27.94"/>
</g>
</g>
</svg>
