<?xml version="1.0" encoding="UTF-8" standalone="no"?>
<!DOCTYPE svg PUBLIC "-//W3C//DTD SVG 1.1//EN"
 "http://www.w3.org/Graphics/SVG/1.1/DTD/svg11.dtd">
<!-- Generated by graphviz version 2.43.0 (0)
 -->
<!-- Title: PPT&#45;GPU/reuse_distance_tool/process_args.h Pages: 1 -->
<svg width="637pt" height="107pt"
 viewBox="0.00 0.00 636.50 107.00" xmlns="http://www.w3.org/2000/svg" xmlns:xlink="http://www.w3.org/1999/xlink">
<g id="graph0" class="graph" transform="scale(1 1) rotate(0) translate(4 103)">
<title>PPT&#45;GPU/reuse_distance_tool/process_args.h</title>
<polygon fill="white" stroke="transparent" points="-4,4 -4,-103 632.5,-103 632.5,4 -4,4"/>
<!-- Node1 -->
<g id="node1" class="node">
<title>Node1</title>
<g id="a_node1"><a xlink:title=" ">
<polygon fill="#bfbfbf" stroke="black" points="197,-60.5 197,-98.5 380,-98.5 380,-60.5 197,-60.5"/>
<text text-anchor="start" x="205" y="-83.3" font-family="Helvetica,sans-Serif" font-size="14.00">PPT&#45;GPU/reuse_distance</text>
<text text-anchor="middle" x="288.5" y="-68.3" font-family="Helvetica,sans-Serif" font-size="14.00">_tool/process_args.h</text>
</a>
</g>
</g>
<!-- Node2 -->
<g id="node2" class="node">
<title>Node2</title>
<g id="a_node2"><a xlink:title=" ">
<polygon fill="white" stroke="#bfbfbf" points="0,-0.5 0,-23.5 61,-23.5 61,-0.5 0,-0.5"/>
<text text-anchor="middle" x="30.5" y="-8.3" font-family="Helvetica,sans-Serif" font-size="14.00">fcntl.h</text>
</a>
</g>
</g>
<!-- Node1&#45;&gt;Node2 -->
<g id="edge1" class="edge">
<title>Node1&#45;&gt;Node2</title>
<path fill="none" stroke="midnightblue" d="M213.6,-60.47C173.71,-50.72 123.59,-38.25 70.98,-24.35"/>
<polygon fill="midnightblue" stroke="midnightblue" points="71.7,-20.92 61.13,-21.74 69.9,-27.68 71.7,-20.92"/>
</g>
<!-- Node3 -->
<g id="node3" class="node">
<title>Node3</title>
<g id="a_node3"><a xlink:title=" ">
<polygon fill="white" stroke="#bfbfbf" points="79,-0.5 79,-23.5 154,-23.5 154,-0.5 79,-0.5"/>
<text text-anchor="middle" x="116.5" y="-8.3" font-family="Helvetica,sans-Serif" font-size="14.00">getopt.h</text>
</a>
</g>
</g>
<!-- Node1&#45;&gt;Node3 -->
<g id="edge2" class="edge">
<title>Node1&#45;&gt;Node3</title>
<path fill="none" stroke="midnightblue" d="M241.04,-60.43C213.54,-49.95 179.39,-36.95 153.81,-27.21"/>
<polygon fill="midnightblue" stroke="midnightblue" points="155.05,-23.94 144.46,-23.65 152.56,-30.48 155.05,-23.94"/>
</g>
<!-- Node4 -->
<g id="node4" class="node">
<title>Node4</title>
<g id="a_node4"><a xlink:title=" ">
<polygon fill="white" stroke="#bfbfbf" points="172.5,-0.5 172.5,-23.5 236.5,-23.5 236.5,-0.5 172.5,-0.5"/>
<text text-anchor="middle" x="204.5" y="-8.3" font-family="Helvetica,sans-Serif" font-size="14.00">stdio.h</text>
</a>
</g>
</g>
<!-- Node1&#45;&gt;Node4 -->
<g id="edge3" class="edge">
<title>Node1&#45;&gt;Node4</title>
<path fill="none" stroke="midnightblue" d="M265.1,-60.25C252.91,-50.75 238.11,-39.21 226.18,-29.91"/>
<polygon fill="midnightblue" stroke="midnightblue" points="228.12,-26.98 218.08,-23.59 223.82,-32.5 228.12,-26.98"/>
</g>
<!-- Node5 -->
<g id="node5" class="node">
<title>Node5</title>
<g id="a_node5"><a xlink:title=" ">
<polygon fill="white" stroke="#bfbfbf" points="254.5,-0.5 254.5,-23.5 322.5,-23.5 322.5,-0.5 254.5,-0.5"/>
<text text-anchor="middle" x="288.5" y="-8.3" font-family="Helvetica,sans-Serif" font-size="14.00">stdlib.h</text>
</a>
</g>
</g>
<!-- Node1&#45;&gt;Node5 -->
<g id="edge4" class="edge">
<title>Node1&#45;&gt;Node5</title>
<path fill="none" stroke="midnightblue" d="M288.5,-60.25C288.5,-52.04 288.5,-42.31 288.5,-33.81"/>
<polygon fill="midnightblue" stroke="midnightblue" points="292,-33.59 288.5,-23.59 285,-33.59 292,-33.59"/>
</g>
<!-- Node6 -->
<g id="node6" class="node">
<title>Node6</title>
<g id="a_node6"><a xlink:title=" ">
<polygon fill="white" stroke="#bfbfbf" points="341,-0.5 341,-23.5 412,-23.5 412,-0.5 341,-0.5"/>
<text text-anchor="middle" x="376.5" y="-8.3" font-family="Helvetica,sans-Serif" font-size="14.00">string.h</text>
</a>
</g>
</g>
<!-- Node1&#45;&gt;Node6 -->
<g id="edge5" class="edge">
<title>Node1&#45;&gt;Node6</title>
<path fill="none" stroke="midnightblue" d="M313.01,-60.25C325.91,-50.66 341.59,-38.98 354.15,-29.64"/>
<polygon fill="midnightblue" stroke="midnightblue" points="356.34,-32.37 362.27,-23.59 352.16,-26.76 356.34,-32.37"/>
</g>
<!-- Node7 -->
<g id="node7" class="node">
<title>Node7</title>
<g id="a_node7"><a xlink:title=" ">
<polygon fill="white" stroke="#bfbfbf" points="430.5,-0.5 430.5,-23.5 514.5,-23.5 514.5,-0.5 430.5,-0.5"/>
<text text-anchor="middle" x="472.5" y="-8.3" font-family="Helvetica,sans-Serif" font-size="14.00">sys/stat.h</text>
</a>
</g>
</g>
<!-- Node1&#45;&gt;Node7 -->
<g id="edge6" class="edge">
<title>Node1&#45;&gt;Node7</title>
<path fill="none" stroke="midnightblue" d="M339.27,-60.43C368.92,-49.87 405.78,-36.75 433.21,-26.99"/>
<polygon fill="midnightblue" stroke="midnightblue" points="434.61,-30.2 442.85,-23.55 432.26,-23.61 434.61,-30.2"/>
</g>
<!-- Node8 -->
<g id="node8" class="node">
<title>Node8</title>
<g id="a_node8"><a xlink:title=" ">
<polygon fill="white" stroke="#bfbfbf" points="532.5,-0.5 532.5,-23.5 628.5,-23.5 628.5,-0.5 532.5,-0.5"/>
<text text-anchor="middle" x="580.5" y="-8.3" font-family="Helvetica,sans-Serif" font-size="14.00">sys/types.h</text>
</a>
</g>
</g>
<!-- Node1&#45;&gt;Node8 -->
<g id="edge7" class="edge">
<title>Node1&#45;&gt;Node8</title>
<path fill="none" stroke="midnightblue" d="M369.06,-60.43C418.08,-49.43 479.51,-35.65 523.5,-25.79"/>
<polygon fill="midnightblue" stroke="midnightblue" points="524.46,-29.16 533.45,-23.55 522.93,-22.33 524.46,-29.16"/>
</g>
</g>
</svg>
