<?xml version="1.0" encoding="UTF-8" standalone="no"?>
<!DOCTYPE svg PUBLIC "-//W3C//DTD SVG 1.1//EN"
 "http://www.w3.org/Graphics/SVG/1.1/DTD/svg11.dtd">
<!-- Generated by graphviz version 2.43.0 (0)
 -->
<!-- Title: PPT&#45;GPU/tracing_tool/nvbit/utils/utils.h Pages: 1 -->
<svg width="189pt" height="122pt"
 viewBox="0.00 0.00 189.00 122.00" xmlns="http://www.w3.org/2000/svg" xmlns:xlink="http://www.w3.org/1999/xlink">
<g id="graph0" class="graph" transform="scale(1 1) rotate(0) translate(4 118)">
<title>PPT&#45;GPU/tracing_tool/nvbit/utils/utils.h</title>
<polygon fill="white" stroke="transparent" points="-4,4 -4,-118 185,-118 185,4 -4,4"/>
<!-- Node1 -->
<g id="node1" class="node">
<title>Node1</title>
<g id="a_node1"><a xlink:title=" ">
<polygon fill="#bfbfbf" stroke="black" points="10,-75.5 10,-113.5 171,-113.5 171,-75.5 10,-75.5"/>
<text text-anchor="start" x="18" y="-98.3" font-family="Helvetica,sans-Serif" font-size="14.00">PPT&#45;GPU/tracing_tool</text>
<text text-anchor="middle" x="90.5" y="-83.3" font-family="Helvetica,sans-Serif" font-size="14.00">/nvbit/utils/utils.h</text>
</a>
</g>
</g>
<!-- Node2 -->
<g id="node2" class="node">
<title>Node2</title>
<g id="a_node2"><a xlink:href="../../db/d20/channel_8hpp.html" target="_top" xlink:title=" ">
<polygon fill="white" stroke="black" points="0,-0.5 0,-38.5 181,-38.5 181,-0.5 0,-0.5"/>
<text text-anchor="start" x="8" y="-23.3" font-family="Helvetica,sans-Serif" font-size="14.00">PPT&#45;GPU/tracing_tool</text>
<text text-anchor="middle" x="90.5" y="-8.3" font-family="Helvetica,sans-Serif" font-size="14.00">/nvbit/utils/channel.hpp</text>
</a>
</g>
</g>
<!-- Node1&#45;&gt;Node2 -->
<g id="edge1" class="edge">
<title>Node1&#45;&gt;Node2</title>
<path fill="none" stroke="midnightblue" d="M90.5,-65.37C90.5,-56.38 90.5,-46.67 90.5,-38.59"/>
<polygon fill="midnightblue" stroke="midnightblue" points="87,-65.46 90.5,-75.46 94,-65.46 87,-65.46"/>
</g>
</g>
</svg>
