<?xml version="1.0" encoding="UTF-8" standalone="no"?>
<!DOCTYPE svg PUBLIC "-//W3C//DTD SVG 1.1//EN"
 "http://www.w3.org/Graphics/SVG/1.1/DTD/svg11.dtd">
<!-- Generated by graphviz version 2.43.0 (0)
 -->
<!-- Title: PPT&#45;GPU/llvm_tool/mekong&#45;utils/inc/IRUtils.h Pages: 1 -->
<!--zoomable 167 -->
<svg id="main" version="1.1" xmlns="http://www.w3.org/2000/svg" xmlns:xlink="http://www.w3.org/1999/xlink" xml:space="preserve" onload="init(evt)">
<style type="text/css"><![CDATA[
.edge:hover path { stroke: red; }
.edge:hover polygon { stroke: red; fill: red; }
]]></style>
<script type="text/javascript"><![CDATA[
var edges = document.getElementsByTagName('g');
if (edges && edges.length) {
  for (var i=0;i<edges.length;i++) {
    if (edges[i].id.substr(0,4)=='edge') {
      edges[i].setAttribute('class','edge');
    }
  }
}
]]></script>
        <defs>
                <circle id="rim" cx="0" cy="0" r="7"/>
                <circle id="rim2" cx="0" cy="0" r="3.5"/>
                <g id="zoomPlus">
                        <use xlink:href="#rim" fill="#404040">
                                <set attributeName="fill" to="#808080" begin="zoomplus.mouseover" end="zoomplus.mouseout"/>
                        </use>
                        <path d="M-4,0h8M0,-4v8" fill="none" stroke="white" stroke-width="1.5" pointer-events="none"/>
                </g>
                <g id="zoomMin">
                        <use xlink:href="#rim" fill="#404040">
                                <set attributeName="fill" to="#808080" begin="zoomminus.mouseover" end="zoomminus.mouseout"/>
                        </use>
                        <path d="M-4,0h8" fill="none" stroke="white" stroke-width="1.5" pointer-events="none"/>
                </g>
                <g id="dirArrow">
                        <path fill="none" stroke="white" stroke-width="1.5" d="M0,-3.0v7 M-2.5,-0.5L0,-3.0L2.5,-0.5"/>
                </g>
               <g id="resetDef">
                       <use xlink:href="#rim2" fill="#404040">
                               <set attributeName="fill" to="#808080" begin="reset.mouseover" end="reset.mouseout"/>
                       </use>
               </g>
        </defs>

<script type="text/javascript">
var viewWidth = 1891;
var viewHeight = 167;
var sectionId = 'dynsection-0';
</script>
<script xlink:href="../../svgpan.js"/>
<svg id="graph" class="graph">
<g id="viewport">
<title>PPT&#45;GPU/llvm_tool/mekong&#45;utils/inc/IRUtils.h</title>
<polygon fill="white" stroke="transparent" points="-4,4 -4,-163 1887,-163 1887,4 -4,4"/>
<!-- Node1 -->
<g id="node1" class="node">
<title>Node1</title>
<g id="a_node1"><a xlink:title=" ">
<polygon fill="#bfbfbf" stroke="black" points="705,-120.5 705,-158.5 906,-158.5 906,-120.5 705,-120.5"/>
<text text-anchor="start" x="713" y="-143.3" font-family="Helvetica,sans-Serif" font-size="14.00">PPT&#45;GPU/llvm_tool/mekong</text>
<text text-anchor="middle" x="805.5" y="-128.3" font-family="Helvetica,sans-Serif" font-size="14.00">&#45;utils/inc/IRUtils.h</text>
</a>
</g>
</g>
<!-- Node2 -->
<g id="node2" class="node">
<title>Node2</title>
<g id="a_node2"><a xlink:href="../../d9/dc8/BasicBlockEnumerator_8h.html" target="_top" xlink:title=" ">
<polygon fill="white" stroke="black" points="0,-60.5 0,-83.5 185,-83.5 185,-60.5 0,-60.5"/>
<text text-anchor="middle" x="92.5" y="-68.3" font-family="Helvetica,sans-Serif" font-size="14.00">BasicBlockEnumerator.h</text>
</a>
</g>
</g>
<!-- Node1&#45;&gt;Node2 -->
<g id="edge1" class="edge">
<title>Node1&#45;&gt;Node2</title>
<path fill="none" stroke="midnightblue" d="M704.77,-129.89C584.31,-119.49 376.61,-101.24 198.5,-84 197.42,-83.9 196.33,-83.79 195.24,-83.68"/>
<polygon fill="midnightblue" stroke="midnightblue" points="195.57,-80.2 185.28,-82.7 194.88,-87.17 195.57,-80.2"/>
</g>
<!-- Node4 -->
<g id="node4" class="node">
<title>Node4</title>
<g id="a_node4"><a xlink:href="../../db/d2b/PTXFunction_8h.html" target="_top" xlink:title=" ">
<polygon fill="white" stroke="black" points="240.5,-60.5 240.5,-83.5 356.5,-83.5 356.5,-60.5 240.5,-60.5"/>
<text text-anchor="middle" x="298.5" y="-68.3" font-family="Helvetica,sans-Serif" font-size="14.00">PTXFunction.h</text>
</a>
</g>
</g>
<!-- Node1&#45;&gt;Node4 -->
<g id="edge3" class="edge">
<title>Node1&#45;&gt;Node4</title>
<path fill="none" stroke="midnightblue" d="M704.67,-127.05C617.95,-116.96 489.25,-101.39 366.66,-83.98"/>
<polygon fill="midnightblue" stroke="midnightblue" points="367.11,-80.51 356.72,-82.56 366.12,-87.44 367.11,-80.51"/>
</g>
<!-- Node5 -->
<g id="node5" class="node">
<title>Node5</title>
<g id="a_node5"><a xlink:title=" ">
<polygon fill="white" stroke="#bfbfbf" points="191,-0.5 191,-23.5 248,-23.5 248,-0.5 191,-0.5"/>
<text text-anchor="middle" x="219.5" y="-8.3" font-family="Helvetica,sans-Serif" font-size="14.00">string</text>
</a>
</g>
</g>
<!-- Node1&#45;&gt;Node5 -->
<g id="edge14" class="edge">
<title>Node1&#45;&gt;Node5</title>
<path fill="none" stroke="midnightblue" d="M704.73,-135.5C549.3,-129.91 265.36,-115.48 231.5,-84 218.04,-71.48 216.08,-49.92 216.86,-33.83"/>
<polygon fill="midnightblue" stroke="midnightblue" points="220.35,-34.01 217.72,-23.74 213.38,-33.41 220.35,-34.01"/>
</g>
<!-- Node7 -->
<g id="node7" class="node">
<title>Node7</title>
<g id="a_node7"><a xlink:title=" ">
<polygon fill="white" stroke="#bfbfbf" points="375,-60.5 375,-83.5 540,-83.5 540,-60.5 375,-60.5"/>
<text text-anchor="middle" x="457.5" y="-68.3" font-family="Helvetica,sans-Serif" font-size="14.00">llvm/IR/Instructions.h</text>
</a>
</g>
</g>
<!-- Node1&#45;&gt;Node7 -->
<g id="edge6" class="edge">
<title>Node1&#45;&gt;Node7</title>
<path fill="none" stroke="midnightblue" d="M709.49,-120.43C650.23,-109.28 575.77,-95.26 523.2,-85.37"/>
<polygon fill="midnightblue" stroke="midnightblue" points="523.79,-81.92 513.32,-83.51 522.5,-88.8 523.79,-81.92"/>
</g>
<!-- Node8 -->
<g id="node8" class="node">
<title>Node8</title>
<g id="a_node8"><a xlink:title=" ">
<polygon fill="white" stroke="#bfbfbf" points="558,-60.5 558,-83.5 691,-83.5 691,-60.5 558,-60.5"/>
<text text-anchor="middle" x="624.5" y="-68.3" font-family="Helvetica,sans-Serif" font-size="14.00">llvm/IR/Module.h</text>
</a>
</g>
</g>
<!-- Node1&#45;&gt;Node8 -->
<g id="edge7" class="edge">
<title>Node1&#45;&gt;Node8</title>
<path fill="none" stroke="midnightblue" d="M755.56,-120.43C726.39,-109.87 690.13,-96.75 663.15,-86.99"/>
<polygon fill="midnightblue" stroke="midnightblue" points="664.26,-83.67 653.66,-83.55 661.88,-90.25 664.26,-83.67"/>
</g>
<!-- Node9 -->
<g id="node9" class="node">
<title>Node9</title>
<g id="a_node9"><a xlink:title=" ">
<polygon fill="white" stroke="#bfbfbf" points="709,-60.5 709,-83.5 902,-83.5 902,-60.5 709,-60.5"/>
<text text-anchor="middle" x="805.5" y="-68.3" font-family="Helvetica,sans-Serif" font-size="14.00">llvm/IRReader/IRReader.h</text>
</a>
</g>
</g>
<!-- Node1&#45;&gt;Node9 -->
<g id="edge8" class="edge">
<title>Node1&#45;&gt;Node9</title>
<path fill="none" stroke="midnightblue" d="M805.5,-120.25C805.5,-112.04 805.5,-102.31 805.5,-93.81"/>
<polygon fill="midnightblue" stroke="midnightblue" points="809,-93.59 805.5,-83.59 802,-93.59 809,-93.59"/>
</g>
<!-- Node10 -->
<g id="node10" class="node">
<title>Node10</title>
<g id="a_node10"><a xlink:title=" ">
<polygon fill="white" stroke="#bfbfbf" points="920,-60.5 920,-83.5 1071,-83.5 1071,-60.5 920,-60.5"/>
<text text-anchor="middle" x="995.5" y="-68.3" font-family="Helvetica,sans-Serif" font-size="14.00">llvm/Linker/Linker.h</text>
</a>
</g>
</g>
<!-- Node1&#45;&gt;Node10 -->
<g id="edge9" class="edge">
<title>Node1&#45;&gt;Node10</title>
<path fill="none" stroke="midnightblue" d="M857.92,-120.43C888.68,-109.83 926.94,-96.64 955.3,-86.86"/>
<polygon fill="midnightblue" stroke="midnightblue" points="956.57,-90.12 964.89,-83.55 954.29,-83.5 956.57,-90.12"/>
</g>
<!-- Node11 -->
<g id="node11" class="node">
<title>Node11</title>
<g id="a_node11"><a xlink:title=" ">
<polygon fill="white" stroke="#bfbfbf" points="1089.5,-60.5 1089.5,-83.5 1265.5,-83.5 1265.5,-60.5 1089.5,-60.5"/>
<text text-anchor="middle" x="1177.5" y="-68.3" font-family="Helvetica,sans-Serif" font-size="14.00">llvm/Support/Casting.h</text>
</a>
</g>
</g>
<!-- Node1&#45;&gt;Node11 -->
<g id="edge10" class="edge">
<title>Node1&#45;&gt;Node11</title>
<path fill="none" stroke="midnightblue" d="M906.17,-120.77C970.01,-109.53 1050.97,-95.28 1107.77,-85.28"/>
<polygon fill="midnightblue" stroke="midnightblue" points="1108.49,-88.7 1117.74,-83.52 1107.28,-81.81 1108.49,-88.7"/>
</g>
<!-- Node12 -->
<g id="node12" class="node">
<title>Node12</title>
<g id="a_node12"><a xlink:title=" ">
<polygon fill="white" stroke="#bfbfbf" points="1284,-60.5 1284,-83.5 1429,-83.5 1429,-60.5 1284,-60.5"/>
<text text-anchor="middle" x="1356.5" y="-68.3" font-family="Helvetica,sans-Serif" font-size="14.00">llvm/IR/IRBuilder.h</text>
</a>
</g>
</g>
<!-- Node1&#45;&gt;Node12 -->
<g id="edge11" class="edge">
<title>Node1&#45;&gt;Node12</title>
<path fill="none" stroke="midnightblue" d="M906.2,-127.32C998.89,-116.91 1140.5,-100.7 1273.65,-84.09"/>
<polygon fill="midnightblue" stroke="midnightblue" points="1274.14,-87.56 1283.63,-82.84 1273.27,-80.61 1274.14,-87.56"/>
</g>
<!-- Node13 -->
<g id="node13" class="node">
<title>Node13</title>
<g id="a_node13"><a xlink:title=" ">
<polygon fill="white" stroke="#bfbfbf" points="1447,-60.5 1447,-83.5 1668,-83.5 1668,-60.5 1447,-60.5"/>
<text text-anchor="middle" x="1557.5" y="-68.3" font-family="Helvetica,sans-Serif" font-size="14.00">llvm/Support/MemoryBuffer.h</text>
</a>
</g>
</g>
<!-- Node1&#45;&gt;Node13 -->
<g id="edge12" class="edge">
<title>Node1&#45;&gt;Node13</title>
<path fill="none" stroke="midnightblue" d="M906.1,-130.03C1028.85,-119.66 1243.02,-101.42 1436.88,-84.14"/>
<polygon fill="midnightblue" stroke="midnightblue" points="1437.32,-87.62 1446.97,-83.24 1436.7,-80.64 1437.32,-87.62"/>
</g>
<!-- Node14 -->
<g id="node14" class="node">
<title>Node14</title>
<g id="a_node14"><a xlink:title=" ">
<polygon fill="white" stroke="#bfbfbf" points="1686,-60.5 1686,-83.5 1883,-83.5 1883,-60.5 1686,-60.5"/>
<text text-anchor="middle" x="1784.5" y="-68.3" font-family="Helvetica,sans-Serif" font-size="14.00">llvm/Support/SourceMgr.h</text>
</a>
</g>
</g>
<!-- Node1&#45;&gt;Node14 -->
<g id="edge13" class="edge">
<title>Node1&#45;&gt;Node14</title>
<path fill="none" stroke="midnightblue" d="M906.3,-133.51C1066.87,-125.28 1390.89,-107.47 1675.86,-84.11"/>
<polygon fill="midnightblue" stroke="midnightblue" points="1676.3,-87.59 1685.98,-83.28 1675.73,-80.61 1676.3,-87.59"/>
</g>
<!-- Node3 -->
<g id="node3" class="node">
<title>Node3</title>
<g id="a_node3"><a xlink:title=" ">
<polygon fill="white" stroke="#bfbfbf" points="14,-0.5 14,-23.5 171,-23.5 171,-0.5 14,-0.5"/>
<text text-anchor="middle" x="92.5" y="-8.3" font-family="Helvetica,sans-Serif" font-size="14.00">llvm/IR/BasicBlock.h</text>
</a>
</g>
</g>
<!-- Node2&#45;&gt;Node3 -->
<g id="edge2" class="edge">
<title>Node2&#45;&gt;Node3</title>
<path fill="none" stroke="midnightblue" d="M92.5,-60.36C92.5,-52.92 92.5,-42.74 92.5,-33.73"/>
<polygon fill="midnightblue" stroke="midnightblue" points="96,-33.57 92.5,-23.57 89,-33.57 96,-33.57"/>
</g>
<!-- Node4&#45;&gt;Node5 -->
<g id="edge4" class="edge">
<title>Node4&#45;&gt;Node5</title>
<path fill="none" stroke="midnightblue" d="M284.01,-60.36C272.32,-51.78 255.66,-39.55 242.2,-29.66"/>
<polygon fill="midnightblue" stroke="midnightblue" points="244.03,-26.67 233.9,-23.57 239.89,-32.31 244.03,-26.67"/>
</g>
<!-- Node6 -->
<g id="node6" class="node">
<title>Node6</title>
<g id="a_node6"><a xlink:title=" ">
<polygon fill="white" stroke="#bfbfbf" points="268.5,-0.5 268.5,-23.5 328.5,-23.5 328.5,-0.5 268.5,-0.5"/>
<text text-anchor="middle" x="298.5" y="-8.3" font-family="Helvetica,sans-Serif" font-size="14.00">vector</text>
</a>
</g>
</g>
<!-- Node4&#45;&gt;Node6 -->
<g id="edge5" class="edge">
<title>Node4&#45;&gt;Node6</title>
<path fill="none" stroke="midnightblue" d="M298.5,-60.36C298.5,-52.92 298.5,-42.74 298.5,-33.73"/>
<polygon fill="midnightblue" stroke="midnightblue" points="302,-33.57 298.5,-23.57 295,-33.57 302,-33.57"/>
</g>
</g>
</svg>
        <g id="navigator" transform="translate(0 0)" fill="#404254">
                <rect fill="#f2f5e9" fill-opacity="0.5" stroke="#606060" stroke-width=".5" x="0" y="0" width="60" height="60"/>
                <use id="zoomplus" xlink:href="#zoomPlus" x="17" y="9" onmousedown="handleZoom(evt,'in')"/>
                <use id="zoomminus" xlink:href="#zoomMin" x="42" y="9" onmousedown="handleZoom(evt,'out')"/>
                <use id="reset" xlink:href="#resetDef" x="30" y="36" onmousedown="handleReset()"/>
                <g id="arrowUp" xlink:href="#dirArrow" transform="translate(30 24)" onmousedown="handlePan(0,-1)">
                  <use xlink:href="#rim" fill="#404040">
                        <set attributeName="fill" to="#808080" begin="arrowUp.mouseover" end="arrowUp.mouseout"/>
                  </use>
                  <path fill="none" stroke="white" stroke-width="1.5" d="M0,-3.0v7 M-2.5,-0.5L0,-3.0L2.5,-0.5"/>
                </g>
                <g id="arrowRight" xlink:href="#dirArrow" transform="rotate(90) translate(36 -43)" onmousedown="handlePan(1,0)">
                  <use xlink:href="#rim" fill="#404040">
                        <set attributeName="fill" to="#808080" begin="arrowRight.mouseover" end="arrowRight.mouseout"/>
                  </use>
                  <path fill="none" stroke="white" stroke-width="1.5" d="M0,-3.0v7 M-2.5,-0.5L0,-3.0L2.5,-0.5"/>
                </g>
                <g id="arrowDown" xlink:href="#dirArrow" transform="rotate(180) translate(-30 -48)" onmousedown="handlePan(0,1)">
                  <use xlink:href="#rim" fill="#404040">
                        <set attributeName="fill" to="#808080" begin="arrowDown.mouseover" end="arrowDown.mouseout"/>
                  </use>
                  <path fill="none" stroke="white" stroke-width="1.5" d="M0,-3.0v7 M-2.5,-0.5L0,-3.0L2.5,-0.5"/>
                </g>
                <g id="arrowLeft" xlink:href="#dirArrow" transform="rotate(270) translate(-36 17)" onmousedown="handlePan(-1,0)">
                  <use xlink:href="#rim" fill="#404040">
                        <set attributeName="fill" to="#808080" begin="arrowLeft.mouseover" end="arrowLeft.mouseout"/>
                  </use>
                  <path fill="none" stroke="white" stroke-width="1.5" d="M0,-3.0v7 M-2.5,-0.5L0,-3.0L2.5,-0.5"/>
                </g>
        </g>
        <svg viewBox="0 0 15 15" width="100%" height="30px" preserveAspectRatio="xMaxYMin meet">
         <g id="arrow_out" transform="scale(0.3 0.3)">
          <a xlink:href="IRUtils_8h__incl_org.svg" target="_base">
           <rect id="button" ry="5" rx="5" y="6" x="6" height="38" width="38"
                fill="#f2f5e9" fill-opacity="0.5" stroke="#606060" stroke-width="1.0"/>
           <path id="arrow"
             d="M 11.500037,31.436501 C 11.940474,20.09759 22.043105,11.32322 32.158766,21.979434 L 37.068811,17.246167 C 37.068811,17.246167 37.088388,32 37.088388,32 L 22.160133,31.978069 C 22.160133,31.978069 26.997745,27.140456 26.997745,27.140456 C 18.528582,18.264221 13.291696,25.230495 11.500037,31.436501 z"
             style="fill:#404040;"/>
          </a>
         </g>
        </svg>
</svg>
