<?xml version="1.0" encoding="UTF-8" standalone="no"?>
<!DOCTYPE svg PUBLIC "-//W3C//DTD SVG 1.1//EN"
 "http://www.w3.org/Graphics/SVG/1.1/DTD/svg11.dtd">
<!-- Generated by graphviz version 2.43.0 (0)
 -->
<!-- Title: narray_append_val Pages: 1 -->
<!--zoomable 213 -->
<svg id="main" version="1.1" xmlns="http://www.w3.org/2000/svg" xmlns:xlink="http://www.w3.org/1999/xlink" xml:space="preserve" onload="init(evt)">
<style type="text/css"><![CDATA[
.edge:hover path { stroke: red; }
.edge:hover polygon { stroke: red; fill: red; }
]]></style>
<script type="text/javascript"><![CDATA[
var edges = document.getElementsByTagName('g');
if (edges && edges.length) {
  for (var i=0;i<edges.length;i++) {
    if (edges[i].id.substr(0,4)=='edge') {
      edges[i].setAttribute('class','edge');
    }
  }
}
]]></script>
        <defs>
                <circle id="rim" cx="0" cy="0" r="7"/>
                <circle id="rim2" cx="0" cy="0" r="3.5"/>
                <g id="zoomPlus">
                        <use xlink:href="#rim" fill="#404040">
                                <set attributeName="fill" to="#808080" begin="zoomplus.mouseover" end="zoomplus.mouseout"/>
                        </use>
                        <path d="M-4,0h8M0,-4v8" fill="none" stroke="white" stroke-width="1.5" pointer-events="none"/>
                </g>
                <g id="zoomMin">
                        <use xlink:href="#rim" fill="#404040">
                                <set attributeName="fill" to="#808080" begin="zoomminus.mouseover" end="zoomminus.mouseout"/>
                        </use>
                        <path d="M-4,0h8" fill="none" stroke="white" stroke-width="1.5" pointer-events="none"/>
                </g>
                <g id="dirArrow">
                        <path fill="none" stroke="white" stroke-width="1.5" d="M0,-3.0v7 M-2.5,-0.5L0,-3.0L2.5,-0.5"/>
                </g>
               <g id="resetDef">
                       <use xlink:href="#rim2" fill="#404040">
                               <set attributeName="fill" to="#808080" begin="reset.mouseover" end="reset.mouseout"/>
                       </use>
               </g>
        </defs>

<script type="text/javascript">
var viewWidth = 1355;
var viewHeight = 213;
var sectionId = 'dynsection-3';
</script>
<script xlink:href="../../svgpan.js"/>
<svg id="graph" class="graph">
<g id="viewport">
<title>narray_append_val</title>
<polygon fill="white" stroke="transparent" points="-4,4 -4,-209 1351,-209 1351,4 -4,4"/>
<!-- Node1 -->
<g id="node1" class="node">
<title>Node1</title>
<g id="a_node1"><a xlink:title=" ">
<polygon fill="#bfbfbf" stroke="black" points="1199,-92.5 1199,-115.5 1347,-115.5 1347,-92.5 1199,-92.5"/>
<text text-anchor="middle" x="1273" y="-100.3" font-family="Helvetica,sans-Serif" font-size="14.00">narray_append_val</text>
</a>
</g>
</g>
<!-- Node2 -->
<g id="node2" class="node">
<title>Node2</title>
<g id="a_node2"><a xlink:href="../../d0/dbf/parda_8h.html#a91a802bec195082a1e725e3f307b099a" target="_top" xlink:title=" ">
<polygon fill="white" stroke="black" points="1051.5,-181.5 1051.5,-204.5 1119.5,-204.5 1119.5,-181.5 1051.5,-181.5"/>
<text text-anchor="middle" x="1085.5" y="-189.3" font-family="Helvetica,sans-Serif" font-size="14.00">iterator</text>
</a>
</g>
</g>
<!-- Node1&#45;&gt;Node2 -->
<g id="edge1" class="edge">
<title>Node1&#45;&gt;Node2</title>
<path fill="none" stroke="midnightblue" d="M1245.38,-120.92C1223.73,-134.24 1192.11,-152.71 1163,-166 1149.16,-172.32 1133.39,-178.11 1119.77,-182.7"/>
<polygon fill="midnightblue" stroke="midnightblue" points="1247.36,-123.81 1254.01,-115.56 1243.67,-117.86 1247.36,-123.81"/>
</g>
<!-- Node9 -->
<g id="node9" class="node">
<title>Node9</title>
<g id="a_node9"><a xlink:href="../../d0/dbf/parda_8h.html#a8e4c1106b242bf781e1ec7d62fc21a41" target="_top" xlink:title=" ">
<polygon fill="white" stroke="black" points="781,-139.5 781,-162.5 924,-162.5 924,-139.5 781,-139.5"/>
<text text-anchor="middle" x="852.5" y="-147.3" font-family="Helvetica,sans-Serif" font-size="14.00">parda_get_abfront</text>
</a>
</g>
</g>
<!-- Node1&#45;&gt;Node9 -->
<g id="edge8" class="edge">
<title>Node1&#45;&gt;Node9</title>
<path fill="none" stroke="midnightblue" d="M1224.9,-118.19C1205.85,-123.37 1183.54,-128.76 1163,-132 1081.77,-144.81 987.29,-149.1 924.29,-150.47"/>
<polygon fill="midnightblue" stroke="midnightblue" points="1225.84,-121.56 1234.54,-115.5 1223.96,-114.81 1225.84,-121.56"/>
</g>
<!-- Node10 -->
<g id="node10" class="node">
<title>Node10</title>
<g id="a_node10"><a xlink:href="../../d0/dbf/parda_8h.html#a7d0ee3d41b9ae3b5ea299e358099b7c7" target="_top" xlink:title=" ">
<polygon fill="white" stroke="black" points="1027.5,-0.5 1027.5,-23.5 1143.5,-23.5 1143.5,-0.5 1027.5,-0.5"/>
<text text-anchor="middle" x="1085.5" y="-8.3" font-family="Helvetica,sans-Serif" font-size="14.00">parda_process</text>
</a>
</g>
</g>
<!-- Node1&#45;&gt;Node10 -->
<g id="edge10" class="edge">
<title>Node1&#45;&gt;Node10</title>
<path fill="none" stroke="midnightblue" d="M1249.27,-86.17C1228.02,-70.26 1194.86,-47.33 1163,-33 1154.96,-29.38 1146.16,-26.26 1137.48,-23.62"/>
<polygon fill="midnightblue" stroke="midnightblue" points="1247.26,-89.04 1257.34,-92.31 1251.5,-83.47 1247.26,-89.04"/>
</g>
<!-- Node11 -->
<g id="node11" class="node">
<title>Node11</title>
<g id="a_node11"><a xlink:href="../../d0/dbf/parda_8h.html#aba642b919a1605f65607ac245ce94fa9" target="_top" xlink:title=" ">
<polygon fill="white" stroke="black" points="1008,-42.5 1008,-65.5 1163,-65.5 1163,-42.5 1008,-42.5"/>
<text text-anchor="middle" x="1085.5" y="-50.3" font-family="Helvetica,sans-Serif" font-size="14.00">process_one_access</text>
</a>
</g>
</g>
<!-- Node1&#45;&gt;Node11 -->
<g id="edge11" class="edge">
<title>Node1&#45;&gt;Node11</title>
<path fill="none" stroke="midnightblue" d="M1219.19,-89.77C1190.72,-82.09 1156.05,-72.75 1129.29,-65.53"/>
<polygon fill="midnightblue" stroke="midnightblue" points="1218.41,-93.18 1228.98,-92.4 1220.23,-86.42 1218.41,-93.18"/>
</g>
<!-- Node15 -->
<g id="node15" class="node">
<title>Node15</title>
<g id="a_node15"><a xlink:href="../../d0/dbf/parda_8h.html#ab88eb69b6dc07345fb2318fe9c2093d1" target="_top" xlink:title=" ">
<polygon fill="white" stroke="black" points="1008,-85 1008,-123 1163,-123 1163,-85 1008,-85"/>
<text text-anchor="start" x="1016" y="-107.8" font-family="Helvetica,sans-Serif" font-size="14.00">process_one_access</text>
<text text-anchor="middle" x="1085.5" y="-92.8" font-family="Helvetica,sans-Serif" font-size="14.00">_shared</text>
</a>
</g>
</g>
<!-- Node1&#45;&gt;Node15 -->
<g id="edge18" class="edge">
<title>Node1&#45;&gt;Node15</title>
<path fill="none" stroke="midnightblue" d="M1188.94,-104C1180.35,-104 1171.66,-104 1163.14,-104"/>
<polygon fill="midnightblue" stroke="midnightblue" points="1188.95,-107.5 1198.95,-104 1188.95,-100.5 1188.95,-107.5"/>
</g>
<!-- Node3 -->
<g id="node3" class="node">
<title>Node3</title>
<g id="a_node3"><a xlink:href="../../d0/dbf/parda_8h.html#a961dead466e68fdb22133f3544e60bda" target="_top" xlink:title=" ">
<polygon fill="white" stroke="black" points="773.5,-181.5 773.5,-204.5 931.5,-204.5 931.5,-181.5 773.5,-181.5"/>
<text text-anchor="middle" x="852.5" y="-189.3" font-family="Helvetica,sans-Serif" font-size="14.00">parda_generate_end</text>
</a>
</g>
</g>
<!-- Node2&#45;&gt;Node3 -->
<g id="edge2" class="edge">
<title>Node2&#45;&gt;Node3</title>
<path fill="none" stroke="midnightblue" d="M1041.05,-193C1010.36,-193 968.38,-193 931.92,-193"/>
<polygon fill="midnightblue" stroke="midnightblue" points="1041.4,-196.5 1051.4,-193 1041.4,-189.5 1041.4,-196.5"/>
</g>
<!-- Node4 -->
<g id="node4" class="node">
<title>Node4</title>
<g id="a_node4"><a xlink:href="../../d0/dbf/parda_8h.html#ac66e3c12653af16fe2738d9e0089acfc" target="_top" xlink:title=" ">
<polygon fill="white" stroke="black" points="542.5,-147.5 542.5,-170.5 649.5,-170.5 649.5,-147.5 542.5,-147.5"/>
<text text-anchor="middle" x="596" y="-155.3" font-family="Helvetica,sans-Serif" font-size="14.00">parda_merge</text>
</a>
</g>
</g>
<!-- Node3&#45;&gt;Node4 -->
<g id="edge3" class="edge">
<title>Node3&#45;&gt;Node4</title>
<path fill="none" stroke="midnightblue" d="M763.38,-181.23C725.45,-176.16 682.39,-170.41 649.58,-166.02"/>
<polygon fill="midnightblue" stroke="midnightblue" points="763.04,-184.71 773.41,-182.57 763.96,-177.77 763.04,-184.71"/>
</g>
<!-- Node5 -->
<g id="node5" class="node">
<title>Node5</title>
<g id="a_node5"><a xlink:href="../../d5/d13/parda__omp_8h.html#ae6fbeb3538f797cfc948e920386b4741" target="_top" xlink:title=" ">
<polygon fill="white" stroke="black" points="304,-97.5 304,-120.5 441,-120.5 441,-97.5 304,-97.5"/>
<text text-anchor="middle" x="372.5" y="-105.3" font-family="Helvetica,sans-Serif" font-size="14.00">parda_omp_input</text>
</a>
</g>
</g>
<!-- Node4&#45;&gt;Node5 -->
<g id="edge4" class="edge">
<title>Node4&#45;&gt;Node5</title>
<path fill="none" stroke="midnightblue" d="M533.99,-145.23C499.67,-137.48 457.31,-127.92 424.72,-120.56"/>
<polygon fill="midnightblue" stroke="midnightblue" points="533.38,-148.68 543.91,-147.47 534.92,-141.85 533.38,-148.68"/>
</g>
<!-- Node6 -->
<g id="node6" class="node">
<title>Node6</title>
<g id="a_node6"><a xlink:href="../../d0/d82/parda__omp_8c.html#a9608f67126e55a4e283694263aef00a4" target="_top" xlink:title=" ">
<polygon fill="white" stroke="black" points="286,-140 286,-178 459,-178 459,-140 286,-140"/>
<text text-anchor="start" x="294" y="-162.8" font-family="Helvetica,sans-Serif" font-size="14.00">parda_omp_input_with</text>
<text text-anchor="middle" x="372.5" y="-147.8" font-family="Helvetica,sans-Serif" font-size="14.00">_filename</text>
</a>
</g>
</g>
<!-- Node4&#45;&gt;Node6 -->
<g id="edge5" class="edge">
<title>Node4&#45;&gt;Node6</title>
<path fill="none" stroke="midnightblue" d="M532.07,-159C509.41,-159 483.45,-159 459.18,-159"/>
<polygon fill="midnightblue" stroke="midnightblue" points="532.23,-162.5 542.23,-159 532.23,-155.5 532.23,-162.5"/>
</g>
<!-- Node7 -->
<g id="node7" class="node">
<title>Node7</title>
<g id="a_node7"><a xlink:href="../../d5/d13/parda__omp_8h.html#af99a329269ee6e1bd3f49b4442ab1097" target="_top" xlink:title=" ">
<polygon fill="white" stroke="black" points="87,-137.5 87,-160.5 250,-160.5 250,-137.5 87,-137.5"/>
<text text-anchor="middle" x="168.5" y="-145.3" font-family="Helvetica,sans-Serif" font-size="14.00">parda_omp_stackdist</text>
</a>
</g>
</g>
<!-- Node6&#45;&gt;Node7 -->
<g id="edge6" class="edge">
<title>Node6&#45;&gt;Node7</title>
<path fill="none" stroke="midnightblue" d="M275.8,-154.26C267.22,-153.84 258.59,-153.41 250.16,-152.99"/>
<polygon fill="midnightblue" stroke="midnightblue" points="275.67,-157.76 285.83,-154.76 276.02,-150.77 275.67,-157.76"/>
</g>
<!-- Node8 -->
<g id="node8" class="node">
<title>Node8</title>
<g id="a_node8"><a xlink:href="../../d0/d29/main_8c.html#a3c04138a5bfe5d72780bb7e82a18e627" target="_top" xlink:title=" ">
<polygon fill="white" stroke="black" points="0,-102.5 0,-125.5 51,-125.5 51,-102.5 0,-102.5"/>
<text text-anchor="middle" x="25.5" y="-110.3" font-family="Helvetica,sans-Serif" font-size="14.00">main</text>
</a>
</g>
</g>
<!-- Node7&#45;&gt;Node8 -->
<g id="edge7" class="edge">
<title>Node7&#45;&gt;Node8</title>
<path fill="none" stroke="midnightblue" d="M111.21,-135.03C90.39,-129.86 67.84,-124.26 51.25,-120.14"/>
<polygon fill="midnightblue" stroke="midnightblue" points="110.39,-138.43 120.94,-137.44 112.08,-131.64 110.39,-138.43"/>
</g>
<!-- Node9&#45;&gt;Node4 -->
<g id="edge9" class="edge">
<title>Node9&#45;&gt;Node4</title>
<path fill="none" stroke="midnightblue" d="M770.8,-153.54C731.29,-154.78 684.83,-156.24 649.9,-157.34"/>
<polygon fill="midnightblue" stroke="midnightblue" points="771.06,-157.03 780.95,-153.22 770.84,-150.03 771.06,-157.03"/>
</g>
<!-- Node12 -->
<g id="node12" class="node">
<title>Node12</title>
<g id="a_node12"><a xlink:href="../../d0/dbf/parda_8h.html#a2e011afd5d113d7b404cff2b9467af8d" target="_top" xlink:title=" ">
<polygon fill="white" stroke="black" points="733,-84.5 733,-107.5 972,-107.5 972,-84.5 733,-84.5"/>
<text text-anchor="middle" x="852.5" y="-92.3" font-family="Helvetica,sans-Serif" font-size="14.00">parda_input_with_textfilepointer</text>
</a>
</g>
</g>
<!-- Node11&#45;&gt;Node12 -->
<g id="edge12" class="edge">
<title>Node11&#45;&gt;Node12</title>
<path fill="none" stroke="midnightblue" d="M1010.98,-67.37C980.69,-72.88 945.93,-79.19 916.79,-84.49"/>
<polygon fill="midnightblue" stroke="midnightblue" points="1011.86,-70.76 1021.07,-65.53 1010.61,-63.88 1011.86,-70.76"/>
</g>
<!-- Node12&#45;&gt;Node6 -->
<g id="edge17" class="edge">
<title>Node12&#45;&gt;Node6</title>
<path fill="none" stroke="midnightblue" d="M730.44,-108.62C661.35,-116.24 573.18,-126.65 495,-138 483.35,-139.69 471.1,-141.63 459.04,-143.62"/>
<polygon fill="midnightblue" stroke="midnightblue" points="730.94,-112.09 740.5,-107.52 730.17,-105.13 730.94,-112.09"/>
</g>
<!-- Node13 -->
<g id="node13" class="node">
<title>Node13</title>
<g id="a_node13"><a xlink:href="../../d0/dbf/parda_8h.html#a1505668d8e66fe882bf0368896c3a8ec" target="_top" xlink:title=" ">
<polygon fill="white" stroke="black" points="495,-67.5 495,-90.5 697,-90.5 697,-67.5 495,-67.5"/>
<text text-anchor="middle" x="596" y="-75.3" font-family="Helvetica,sans-Serif" font-size="14.00">parda_input_with_filename</text>
</a>
</g>
</g>
<!-- Node12&#45;&gt;Node13 -->
<g id="edge13" class="edge">
<title>Node12&#45;&gt;Node13</title>
<path fill="none" stroke="midnightblue" d="M722.74,-87.4C714.16,-86.83 705.58,-86.25 697.17,-85.69"/>
<polygon fill="midnightblue" stroke="midnightblue" points="722.61,-90.9 732.82,-88.07 723.07,-83.91 722.61,-90.9"/>
</g>
<!-- Node13&#45;&gt;Node5 -->
<g id="edge16" class="edge">
<title>Node13&#45;&gt;Node5</title>
<path fill="none" stroke="midnightblue" d="M500.02,-91.86C480.2,-94.55 459.68,-97.33 441.09,-99.84"/>
<polygon fill="midnightblue" stroke="midnightblue" points="500.56,-95.32 510,-90.51 499.62,-88.39 500.56,-95.32"/>
</g>
<!-- Node14 -->
<g id="node14" class="node">
<title>Node14</title>
<g id="a_node14"><a xlink:href="../../d0/dbf/parda_8h.html#ab5b52d038b8aaf5acd36508c229bd923" target="_top" xlink:title=" ">
<polygon fill="white" stroke="black" points="90,-70 90,-108 247,-108 247,-70 90,-70"/>
<text text-anchor="start" x="98" y="-92.8" font-family="Helvetica,sans-Serif" font-size="14.00">classical_tree_based</text>
<text text-anchor="middle" x="168.5" y="-77.8" font-family="Helvetica,sans-Serif" font-size="14.00">_stackdist</text>
</a>
</g>
</g>
<!-- Node13&#45;&gt;Node14 -->
<g id="edge14" class="edge">
<title>Node13&#45;&gt;Node14</title>
<path fill="none" stroke="midnightblue" d="M484.62,-81.59C410.17,-83.34 313.77,-85.61 247.3,-87.17"/>
<polygon fill="midnightblue" stroke="midnightblue" points="485.06,-85.08 494.97,-81.35 484.89,-78.09 485.06,-85.08"/>
</g>
<!-- Node14&#45;&gt;Node8 -->
<g id="edge15" class="edge">
<title>Node14&#45;&gt;Node8</title>
<path fill="none" stroke="midnightblue" d="M79.86,-104.54C69.43,-106.39 59.53,-108.14 51.16,-109.63"/>
<polygon fill="midnightblue" stroke="midnightblue" points="80.75,-107.94 89.99,-102.74 79.53,-101.04 80.75,-107.94"/>
</g>
<!-- Node15&#45;&gt;Node12 -->
<g id="edge19" class="edge">
<title>Node15&#45;&gt;Node12</title>
<path fill="none" stroke="midnightblue" d="M997.74,-101C989.32,-100.7 980.67,-100.4 972.01,-100.1"/>
<polygon fill="midnightblue" stroke="midnightblue" points="997.79,-104.5 1007.9,-101.35 998.03,-97.5 997.79,-104.5"/>
</g>
</g>
</svg>
        <g id="navigator" transform="translate(0 0)" fill="#404254">
                <rect fill="#f2f5e9" fill-opacity="0.5" stroke="#606060" stroke-width=".5" x="0" y="0" width="60" height="60"/>
                <use id="zoomplus" xlink:href="#zoomPlus" x="17" y="9" onmousedown="handleZoom(evt,'in')"/>
                <use id="zoomminus" xlink:href="#zoomMin" x="42" y="9" onmousedown="handleZoom(evt,'out')"/>
                <use id="reset" xlink:href="#resetDef" x="30" y="36" onmousedown="handleReset()"/>
                <g id="arrowUp" xlink:href="#dirArrow" transform="translate(30 24)" onmousedown="handlePan(0,-1)">
                  <use xlink:href="#rim" fill="#404040">
                        <set attributeName="fill" to="#808080" begin="arrowUp.mouseover" end="arrowUp.mouseout"/>
                  </use>
                  <path fill="none" stroke="white" stroke-width="1.5" d="M0,-3.0v7 M-2.5,-0.5L0,-3.0L2.5,-0.5"/>
                </g>
                <g id="arrowRight" xlink:href="#dirArrow" transform="rotate(90) translate(36 -43)" onmousedown="handlePan(1,0)">
                  <use xlink:href="#rim" fill="#404040">
                        <set attributeName="fill" to="#808080" begin="arrowRight.mouseover" end="arrowRight.mouseout"/>
                  </use>
                  <path fill="none" stroke="white" stroke-width="1.5" d="M0,-3.0v7 M-2.5,-0.5L0,-3.0L2.5,-0.5"/>
                </g>
                <g id="arrowDown" xlink:href="#dirArrow" transform="rotate(180) translate(-30 -48)" onmousedown="handlePan(0,1)">
                  <use xlink:href="#rim" fill="#404040">
                        <set attributeName="fill" to="#808080" begin="arrowDown.mouseover" end="arrowDown.mouseout"/>
                  </use>
                  <path fill="none" stroke="white" stroke-width="1.5" d="M0,-3.0v7 M-2.5,-0.5L0,-3.0L2.5,-0.5"/>
                </g>
                <g id="arrowLeft" xlink:href="#dirArrow" transform="rotate(270) translate(-36 17)" onmousedown="handlePan(-1,0)">
                  <use xlink:href="#rim" fill="#404040">
                        <set attributeName="fill" to="#808080" begin="arrowLeft.mouseover" end="arrowLeft.mouseout"/>
                  </use>
                  <path fill="none" stroke="white" stroke-width="1.5" d="M0,-3.0v7 M-2.5,-0.5L0,-3.0L2.5,-0.5"/>
                </g>
        </g>
        <svg viewBox="0 0 15 15" width="100%" height="30px" preserveAspectRatio="xMaxYMin meet">
         <g id="arrow_out" transform="scale(0.3 0.3)">
          <a xlink:href="narray_8h_a00e1ac7249125879d43230a3f1a49b1d_icgraph_org.svg" target="_base">
           <rect id="button" ry="5" rx="5" y="6" x="6" height="38" width="38"
                fill="#f2f5e9" fill-opacity="0.5" stroke="#606060" stroke-width="1.0"/>
           <path id="arrow"
             d="M 11.500037,31.436501 C 11.940474,20.09759 22.043105,11.32322 32.158766,21.979434 L 37.068811,17.246167 C 37.068811,17.246167 37.088388,32 37.088388,32 L 22.160133,31.978069 C 22.160133,31.978069 26.997745,27.140456 26.997745,27.140456 C 18.528582,18.264221 13.291696,25.230495 11.500037,31.436501 z"
             style="fill:#404040;"/>
          </a>
         </g>
        </svg>
</svg>
