<?xml version="1.0" encoding="UTF-8" standalone="no"?>
<!DOCTYPE svg PUBLIC "-//W3C//DTD SVG 1.1//EN"
 "http://www.w3.org/Graphics/SVG/1.1/DTD/svg11.dtd">
<!-- Generated by graphviz version 2.43.0 (0)
 -->
<!-- Title: narray_get_len Pages: 1 -->
<svg width="944pt" height="294pt"
 viewBox="0.00 0.00 944.00 294.45" xmlns="http://www.w3.org/2000/svg" xmlns:xlink="http://www.w3.org/1999/xlink">
<g id="graph0" class="graph" transform="scale(1 1) rotate(0) translate(4 290.45)">
<title>narray_get_len</title>
<polygon fill="white" stroke="transparent" points="-4,4 -4,-290.45 940,-290.45 940,4 -4,4"/>
<!-- Node1 -->
<g id="node1" class="node">
<title>Node1</title>
<g id="a_node1"><a xlink:title=" ">
<polygon fill="#bfbfbf" stroke="black" points="817,-122.5 817,-145.5 936,-145.5 936,-122.5 817,-122.5"/>
<text text-anchor="middle" x="876.5" y="-130.3" font-family="Helvetica,sans-Serif" font-size="14.00">narray_get_len</text>
</a>
</g>
</g>
<!-- Node2 -->
<g id="node2" class="node">
<title>Node2</title>
<g id="a_node2"><a xlink:href="../../d0/dbf/parda_8h.html#ab5b52d038b8aaf5acd36508c229bd923" target="_top" xlink:title=" ">
<polygon fill="white" stroke="black" points="90,-212 90,-250 247,-250 247,-212 90,-212"/>
<text text-anchor="start" x="98" y="-234.8" font-family="Helvetica,sans-Serif" font-size="14.00">classical_tree_based</text>
<text text-anchor="middle" x="168.5" y="-219.8" font-family="Helvetica,sans-Serif" font-size="14.00">_stackdist</text>
</a>
</g>
</g>
<!-- Node1&#45;&gt;Node2 -->
<g id="edge1" class="edge">
<title>Node1&#45;&gt;Node2</title>
<path fill="none" stroke="midnightblue" d="M864.34,-154.55C849.26,-179.9 819.74,-221.75 781,-239 599.63,-319.77 356.94,-278.27 239.3,-250.03"/>
<polygon fill="midnightblue" stroke="midnightblue" points="867.46,-156.15 869.4,-145.73 861.39,-152.66 867.46,-156.15"/>
</g>
<!-- Node4 -->
<g id="node4" class="node">
<title>Node4</title>
<g id="a_node4"><a xlink:href="../../de/d09/narray_8h.html#a9c512162016892bed48c4ccd75caead3" target="_top" xlink:title=" ">
<polygon fill="white" stroke="black" points="659,-206.5 659,-229.5 760,-229.5 760,-206.5 659,-206.5"/>
<text text-anchor="middle" x="709.5" y="-214.3" font-family="Helvetica,sans-Serif" font-size="14.00">narray_print</text>
</a>
</g>
</g>
<!-- Node1&#45;&gt;Node4 -->
<g id="edge3" class="edge">
<title>Node1&#45;&gt;Node4</title>
<path fill="none" stroke="midnightblue" d="M852.87,-151.91C834.41,-165.8 807.2,-184.71 781,-197 773.37,-200.58 764.99,-203.71 756.75,-206.38"/>
<polygon fill="midnightblue" stroke="midnightblue" points="855.13,-154.59 860.95,-145.73 850.88,-149.03 855.13,-154.59"/>
</g>
<!-- Node5 -->
<g id="node5" class="node">
<title>Node5</title>
<g id="a_node5"><a xlink:href="../../d0/dbf/parda_8h.html#a757e86b5a2b7eac055f98a355da1c184" target="_top" xlink:title=" ">
<polygon fill="white" stroke="black" points="641.5,-164.5 641.5,-187.5 777.5,-187.5 777.5,-164.5 641.5,-164.5"/>
<text text-anchor="middle" x="709.5" y="-172.3" font-family="Helvetica,sans-Serif" font-size="14.00">parda_get_abend</text>
</a>
</g>
</g>
<!-- Node1&#45;&gt;Node5 -->
<g id="edge4" class="edge">
<title>Node1&#45;&gt;Node5</title>
<path fill="none" stroke="midnightblue" d="M820.26,-148.06C799.34,-153.39 775.79,-159.38 755.88,-164.45"/>
<polygon fill="midnightblue" stroke="midnightblue" points="821.15,-151.45 829.98,-145.59 819.42,-144.66 821.15,-151.45"/>
</g>
<!-- Node9 -->
<g id="node9" class="node">
<title>Node9</title>
<g id="a_node9"><a xlink:href="../../d5/d13/parda__omp_8h.html#af99a329269ee6e1bd3f49b4442ab1097" target="_top" xlink:title=" ">
<polygon fill="white" stroke="black" points="87,-143.5 87,-166.5 250,-166.5 250,-143.5 87,-143.5"/>
<text text-anchor="middle" x="168.5" y="-151.3" font-family="Helvetica,sans-Serif" font-size="14.00">parda_omp_stackdist</text>
</a>
</g>
</g>
<!-- Node1&#45;&gt;Node9 -->
<g id="edge12" class="edge">
<title>Node1&#45;&gt;Node9</title>
<path fill="none" stroke="midnightblue" d="M822.9,-120.18C809.35,-117.2 794.71,-114.51 781,-113 673.29,-101.18 343.22,-119.06 286,-127 260.04,-130.6 231.41,-137.44 209.03,-143.46"/>
<polygon fill="midnightblue" stroke="midnightblue" points="822.49,-123.67 833.02,-122.49 824.05,-116.85 822.49,-123.67"/>
</g>
<!-- Node10 -->
<g id="node10" class="node">
<title>Node10</title>
<g id="a_node10"><a xlink:href="../../d0/dbf/parda_8h.html#a8e4c1106b242bf781e1ec7d62fc21a41" target="_top" xlink:title=" ">
<polygon fill="white" stroke="black" points="638,-122.5 638,-145.5 781,-145.5 781,-122.5 638,-122.5"/>
<text text-anchor="middle" x="709.5" y="-130.3" font-family="Helvetica,sans-Serif" font-size="14.00">parda_get_abfront</text>
</a>
</g>
</g>
<!-- Node1&#45;&gt;Node10 -->
<g id="edge10" class="edge">
<title>Node1&#45;&gt;Node10</title>
<path fill="none" stroke="midnightblue" d="M806.67,-134C798.22,-134 789.57,-134 781.09,-134"/>
<polygon fill="midnightblue" stroke="midnightblue" points="806.86,-137.5 816.86,-134 806.86,-130.5 806.86,-137.5"/>
</g>
<!-- Node11 -->
<g id="node11" class="node">
<title>Node11</title>
<g id="a_node11"><a xlink:href="../../dd/dad/parda__print_8c.html#ac25e106696636d4fd3ee3467ed29cbb6" target="_top" xlink:title=" ">
<polygon fill="white" stroke="black" points="645,-42.5 645,-65.5 774,-65.5 774,-42.5 645,-42.5"/>
<text text-anchor="middle" x="709.5" y="-50.3" font-family="Helvetica,sans-Serif" font-size="14.00">parda_print_end</text>
</a>
</g>
</g>
<!-- Node1&#45;&gt;Node11 -->
<g id="edge13" class="edge">
<title>Node1&#45;&gt;Node11</title>
<path fill="none" stroke="midnightblue" d="M848.64,-117.06C830.06,-105.74 804.55,-90.98 781,-80 769.65,-74.71 756.9,-69.73 745.39,-65.57"/>
<polygon fill="midnightblue" stroke="midnightblue" points="846.81,-120.04 857.16,-122.3 850.48,-114.08 846.81,-120.04"/>
</g>
<!-- Node12 -->
<g id="node12" class="node">
<title>Node12</title>
<g id="a_node12"><a xlink:href="../../dd/dad/parda__print_8c.html#a10c5fba0fabbe35ce5451af0d934fd52" target="_top" xlink:title=" ">
<polygon fill="white" stroke="black" points="641.5,-0.5 641.5,-23.5 777.5,-23.5 777.5,-0.5 641.5,-0.5"/>
<text text-anchor="middle" x="709.5" y="-8.3" font-family="Helvetica,sans-Serif" font-size="14.00">parda_print_front</text>
</a>
</g>
</g>
<!-- Node1&#45;&gt;Node12 -->
<g id="edge14" class="edge">
<title>Node1&#45;&gt;Node12</title>
<path fill="none" stroke="midnightblue" d="M862.02,-114.18C845.5,-91.36 815.43,-54.3 781,-33 774.92,-29.24 768.12,-26.12 761.22,-23.53"/>
<polygon fill="midnightblue" stroke="midnightblue" points="859.23,-116.29 867.86,-122.44 864.95,-112.25 859.23,-116.29"/>
</g>
<!-- Node3 -->
<g id="node3" class="node">
<title>Node3</title>
<g id="a_node3"><a xlink:href="../../d0/d29/main_8c.html#a3c04138a5bfe5d72780bb7e82a18e627" target="_top" xlink:title=" ">
<polygon fill="white" stroke="black" points="0,-168.5 0,-191.5 51,-191.5 51,-168.5 0,-168.5"/>
<text text-anchor="middle" x="25.5" y="-176.3" font-family="Helvetica,sans-Serif" font-size="14.00">main</text>
</a>
</g>
</g>
<!-- Node2&#45;&gt;Node3 -->
<g id="edge2" class="edge">
<title>Node2&#45;&gt;Node3</title>
<path fill="none" stroke="midnightblue" d="M105.05,-208.41C86.04,-201.54 66.24,-194.37 51.27,-188.96"/>
<polygon fill="midnightblue" stroke="midnightblue" points="104,-211.75 114.6,-211.86 106.38,-205.17 104,-211.75"/>
</g>
<!-- Node6 -->
<g id="node6" class="node">
<title>Node6</title>
<g id="a_node6"><a xlink:href="../../d0/dbf/parda_8h.html#ac66e3c12653af16fe2738d9e0089acfc" target="_top" xlink:title=" ">
<polygon fill="white" stroke="black" points="495,-153.5 495,-176.5 602,-176.5 602,-153.5 495,-153.5"/>
<text text-anchor="middle" x="548.5" y="-161.3" font-family="Helvetica,sans-Serif" font-size="14.00">parda_merge</text>
</a>
</g>
</g>
<!-- Node5&#45;&gt;Node6 -->
<g id="edge5" class="edge">
<title>Node5&#45;&gt;Node6</title>
<path fill="none" stroke="midnightblue" d="M630.92,-170.63C621.15,-169.96 611.34,-169.28 602.08,-168.64"/>
<polygon fill="midnightblue" stroke="midnightblue" points="630.85,-174.14 641.07,-171.34 631.34,-167.15 630.85,-174.14"/>
</g>
<!-- Node7 -->
<g id="node7" class="node">
<title>Node7</title>
<g id="a_node7"><a xlink:href="../../d5/d13/parda__omp_8h.html#ae6fbeb3538f797cfc948e920386b4741" target="_top" xlink:title=" ">
<polygon fill="white" stroke="black" points="304,-193.5 304,-216.5 441,-216.5 441,-193.5 304,-193.5"/>
<text text-anchor="middle" x="372.5" y="-201.3" font-family="Helvetica,sans-Serif" font-size="14.00">parda_omp_input</text>
</a>
</g>
</g>
<!-- Node6&#45;&gt;Node7 -->
<g id="edge6" class="edge">
<title>Node6&#45;&gt;Node7</title>
<path fill="none" stroke="midnightblue" d="M487.21,-178.86C466.49,-183.62 443.54,-188.9 423.71,-193.46"/>
<polygon fill="midnightblue" stroke="midnightblue" points="488.21,-182.22 497.17,-176.57 486.64,-175.4 488.21,-182.22"/>
</g>
<!-- Node8 -->
<g id="node8" class="node">
<title>Node8</title>
<g id="a_node8"><a xlink:href="../../d0/d82/parda__omp_8c.html#a9608f67126e55a4e283694263aef00a4" target="_top" xlink:title=" ">
<polygon fill="white" stroke="black" points="286,-136 286,-174 459,-174 459,-136 286,-136"/>
<text text-anchor="start" x="294" y="-158.8" font-family="Helvetica,sans-Serif" font-size="14.00">parda_omp_input_with</text>
<text text-anchor="middle" x="372.5" y="-143.8" font-family="Helvetica,sans-Serif" font-size="14.00">_filename</text>
</a>
</g>
</g>
<!-- Node6&#45;&gt;Node8 -->
<g id="edge7" class="edge">
<title>Node6&#45;&gt;Node8</title>
<path fill="none" stroke="midnightblue" d="M484.81,-161.4C476.46,-160.92 467.77,-160.42 459.11,-159.92"/>
<polygon fill="midnightblue" stroke="midnightblue" points="484.64,-164.89 494.82,-161.97 485.04,-157.9 484.64,-164.89"/>
</g>
<!-- Node8&#45;&gt;Node9 -->
<g id="edge8" class="edge">
<title>Node8&#45;&gt;Node9</title>
<path fill="none" stroke="midnightblue" d="M275.8,-155C267.22,-155 258.59,-155 250.16,-155"/>
<polygon fill="midnightblue" stroke="midnightblue" points="275.83,-158.5 285.83,-155 275.83,-151.5 275.83,-158.5"/>
</g>
<!-- Node9&#45;&gt;Node3 -->
<g id="edge9" class="edge">
<title>Node9&#45;&gt;Node3</title>
<path fill="none" stroke="midnightblue" d="M92.12,-168.37C77.34,-170.99 62.84,-173.56 51.25,-175.61"/>
<polygon fill="midnightblue" stroke="midnightblue" points="93.13,-171.74 102.37,-166.55 91.91,-164.85 93.13,-171.74"/>
</g>
<!-- Node10&#45;&gt;Node6 -->
<g id="edge11" class="edge">
<title>Node10&#45;&gt;Node6</title>
<path fill="none" stroke="midnightblue" d="M639.39,-147.47C626.93,-149.9 614.11,-152.4 602.21,-154.72"/>
<polygon fill="midnightblue" stroke="midnightblue" points="640.15,-150.89 649.29,-145.54 638.81,-144.02 640.15,-150.89"/>
</g>
<!-- Node13 -->
<g id="node13" class="node">
<title>Node13</title>
<g id="a_node13"><a xlink:href="../../dd/dad/parda__print_8c.html#a3167143aad2db58a43433302ab5b0432" target="_top" xlink:title=" ">
<polygon fill="white" stroke="black" points="500.5,-0.5 500.5,-23.5 596.5,-23.5 596.5,-0.5 500.5,-0.5"/>
<text text-anchor="middle" x="548.5" y="-8.3" font-family="Helvetica,sans-Serif" font-size="14.00">parda_print</text>
</a>
</g>
</g>
<!-- Node12&#45;&gt;Node13 -->
<g id="edge15" class="edge">
<title>Node12&#45;&gt;Node13</title>
<path fill="none" stroke="midnightblue" d="M630.88,-12C619.24,-12 607.55,-12 596.8,-12"/>
<polygon fill="midnightblue" stroke="midnightblue" points="631.07,-15.5 641.07,-12 631.07,-8.5 631.07,-15.5"/>
</g>
</g>
</svg>
