<?xml version="1.0" encoding="UTF-8" standalone="no"?>
<!DOCTYPE svg PUBLIC "-//W3C//DTD SVG 1.1//EN"
 "http://www.w3.org/Graphics/SVG/1.1/DTD/svg11.dtd">
<!-- Generated by graphviz version 2.43.0 (0)
 -->
<!-- Title: narray_free Pages: 1 -->
<!--zoomable 139 -->
<svg id="main" version="1.1" xmlns="http://www.w3.org/2000/svg" xmlns:xlink="http://www.w3.org/1999/xlink" xml:space="preserve" onload="init(evt)">
<style type="text/css"><![CDATA[
.edge:hover path { stroke: red; }
.edge:hover polygon { stroke: red; fill: red; }
]]></style>
<script type="text/javascript"><![CDATA[
var edges = document.getElementsByTagName('g');
if (edges && edges.length) {
  for (var i=0;i<edges.length;i++) {
    if (edges[i].id.substr(0,4)=='edge') {
      edges[i].setAttribute('class','edge');
    }
  }
}
]]></script>
        <defs>
                <circle id="rim" cx="0" cy="0" r="7"/>
                <circle id="rim2" cx="0" cy="0" r="3.5"/>
                <g id="zoomPlus">
                        <use xlink:href="#rim" fill="#404040">
                                <set attributeName="fill" to="#808080" begin="zoomplus.mouseover" end="zoomplus.mouseout"/>
                        </use>
                        <path d="M-4,0h8M0,-4v8" fill="none" stroke="white" stroke-width="1.5" pointer-events="none"/>
                </g>
                <g id="zoomMin">
                        <use xlink:href="#rim" fill="#404040">
                                <set attributeName="fill" to="#808080" begin="zoomminus.mouseover" end="zoomminus.mouseout"/>
                        </use>
                        <path d="M-4,0h8" fill="none" stroke="white" stroke-width="1.5" pointer-events="none"/>
                </g>
                <g id="dirArrow">
                        <path fill="none" stroke="white" stroke-width="1.5" d="M0,-3.0v7 M-2.5,-0.5L0,-3.0L2.5,-0.5"/>
                </g>
               <g id="resetDef">
                       <use xlink:href="#rim2" fill="#404040">
                               <set attributeName="fill" to="#808080" begin="reset.mouseover" end="reset.mouseout"/>
                       </use>
               </g>
        </defs>

<script type="text/javascript">
var viewWidth = 741;
var viewHeight = 139;
var sectionId = 'dynsection-4';
</script>
<script xlink:href="../../svgpan.js"/>
<svg id="graph" class="graph">
<g id="viewport">
<title>narray_free</title>
<polygon fill="white" stroke="transparent" points="-4,4 -4,-135 737,-135 737,4 -4,4"/>
<!-- Node1 -->
<g id="node1" class="node">
<title>Node1</title>
<g id="a_node1"><a xlink:title=" ">
<polygon fill="#bfbfbf" stroke="black" points="638,-78 638,-101 733,-101 733,-78 638,-78"/>
<text text-anchor="middle" x="685.5" y="-85.8" font-family="Helvetica,sans-Serif" font-size="14.00">narray_free</text>
</a>
</g>
</g>
<!-- Node2 -->
<g id="node2" class="node">
<title>Node2</title>
<g id="a_node2"><a xlink:href="../../d0/dbf/parda_8h.html#aaecfcceb1c1b235b54a68a2d917874d8" target="_top" xlink:title=" ">
<polygon fill="white" stroke="black" points="327.5,-100 327.5,-123 417.5,-123 417.5,-100 327.5,-100"/>
<text text-anchor="middle" x="372.5" y="-107.8" font-family="Helvetica,sans-Serif" font-size="14.00">parda_free</text>
</a>
</g>
</g>
<!-- Node1&#45;&gt;Node2 -->
<g id="edge1" class="edge">
<title>Node1&#45;&gt;Node2</title>
<path fill="none" stroke="midnightblue" d="M627.8,-93.51C567.31,-97.79 472.77,-104.48 417.61,-108.38"/>
<polygon fill="midnightblue" stroke="midnightblue" points="628.21,-96.99 637.94,-92.79 627.72,-90.01 628.21,-96.99"/>
</g>
<!-- Node6 -->
<g id="node6" class="node">
<title>Node6</title>
<g id="a_node6"><a xlink:href="../../d0/dbf/parda_8h.html#ac66e3c12653af16fe2738d9e0089acfc" target="_top" xlink:title=" ">
<polygon fill="white" stroke="black" points="495,-58 495,-81 602,-81 602,-58 495,-58"/>
<text text-anchor="middle" x="548.5" y="-65.8" font-family="Helvetica,sans-Serif" font-size="14.00">parda_merge</text>
</a>
</g>
</g>
<!-- Node1&#45;&gt;Node6 -->
<g id="edge6" class="edge">
<title>Node1&#45;&gt;Node6</title>
<path fill="none" stroke="midnightblue" d="M627.57,-81.07C619.18,-79.82 610.57,-78.55 602.26,-77.32"/>
<polygon fill="midnightblue" stroke="midnightblue" points="627.26,-84.56 637.66,-82.56 628.28,-77.63 627.26,-84.56"/>
</g>
<!-- Node3 -->
<g id="node3" class="node">
<title>Node3</title>
<g id="a_node3"><a xlink:href="../../d0/dbf/parda_8h.html#ab5b52d038b8aaf5acd36508c229bd923" target="_top" xlink:title=" ">
<polygon fill="white" stroke="black" points="90,-92.5 90,-130.5 247,-130.5 247,-92.5 90,-92.5"/>
<text text-anchor="start" x="98" y="-115.3" font-family="Helvetica,sans-Serif" font-size="14.00">classical_tree_based</text>
<text text-anchor="middle" x="168.5" y="-100.3" font-family="Helvetica,sans-Serif" font-size="14.00">_stackdist</text>
</a>
</g>
</g>
<!-- Node2&#45;&gt;Node3 -->
<g id="edge2" class="edge">
<title>Node2&#45;&gt;Node3</title>
<path fill="none" stroke="midnightblue" d="M316.94,-111.5C295.46,-111.5 270.41,-111.5 247.11,-111.5"/>
<polygon fill="midnightblue" stroke="midnightblue" points="317.17,-115 327.17,-111.5 317.17,-108 317.17,-115"/>
</g>
<!-- Node5 -->
<g id="node5" class="node">
<title>Node5</title>
<g id="a_node5"><a xlink:href="../../d5/d13/parda__omp_8h.html#af99a329269ee6e1bd3f49b4442ab1097" target="_top" xlink:title=" ">
<polygon fill="white" stroke="black" points="87,-50 87,-73 250,-73 250,-50 87,-50"/>
<text text-anchor="middle" x="168.5" y="-57.8" font-family="Helvetica,sans-Serif" font-size="14.00">parda_omp_stackdist</text>
</a>
</g>
</g>
<!-- Node2&#45;&gt;Node5 -->
<g id="edge4" class="edge">
<title>Node2&#45;&gt;Node5</title>
<path fill="none" stroke="midnightblue" d="M317.31,-98.22C306.92,-95.66 296.12,-93 286,-90.5 262.83,-84.77 237.08,-78.37 215.7,-73.03"/>
<polygon fill="midnightblue" stroke="midnightblue" points="316.57,-101.64 327.12,-100.63 318.24,-94.84 316.57,-101.64"/>
</g>
<!-- Node4 -->
<g id="node4" class="node">
<title>Node4</title>
<g id="a_node4"><a xlink:href="../../d0/d29/main_8c.html#a3c04138a5bfe5d72780bb7e82a18e627" target="_top" xlink:title=" ">
<polygon fill="white" stroke="black" points="0,-75 0,-98 51,-98 51,-75 0,-75"/>
<text text-anchor="middle" x="25.5" y="-82.8" font-family="Helvetica,sans-Serif" font-size="14.00">main</text>
</a>
</g>
</g>
<!-- Node3&#45;&gt;Node4 -->
<g id="edge3" class="edge">
<title>Node3&#45;&gt;Node4</title>
<path fill="none" stroke="midnightblue" d="M79.86,-95.96C69.43,-94.11 59.53,-92.36 51.16,-90.87"/>
<polygon fill="midnightblue" stroke="midnightblue" points="79.53,-99.46 89.99,-97.76 80.75,-92.56 79.53,-99.46"/>
</g>
<!-- Node5&#45;&gt;Node4 -->
<g id="edge5" class="edge">
<title>Node5&#45;&gt;Node4</title>
<path fill="none" stroke="midnightblue" d="M92.12,-74.87C77.34,-77.49 62.84,-80.06 51.25,-82.11"/>
<polygon fill="midnightblue" stroke="midnightblue" points="93.13,-78.24 102.37,-73.05 91.91,-71.35 93.13,-78.24"/>
</g>
<!-- Node7 -->
<g id="node7" class="node">
<title>Node7</title>
<g id="a_node7"><a xlink:href="../../d5/d13/parda__omp_8h.html#ae6fbeb3538f797cfc948e920386b4741" target="_top" xlink:title=" ">
<polygon fill="white" stroke="black" points="304,-58 304,-81 441,-81 441,-58 304,-58"/>
<text text-anchor="middle" x="372.5" y="-65.8" font-family="Helvetica,sans-Serif" font-size="14.00">parda_omp_input</text>
</a>
</g>
</g>
<!-- Node6&#45;&gt;Node7 -->
<g id="edge7" class="edge">
<title>Node6&#45;&gt;Node7</title>
<path fill="none" stroke="midnightblue" d="M484.71,-69.5C470.55,-69.5 455.47,-69.5 441.13,-69.5"/>
<polygon fill="midnightblue" stroke="midnightblue" points="484.82,-73 494.82,-69.5 484.82,-66 484.82,-73"/>
</g>
<!-- Node8 -->
<g id="node8" class="node">
<title>Node8</title>
<g id="a_node8"><a xlink:href="../../d0/d82/parda__omp_8c.html#a9608f67126e55a4e283694263aef00a4" target="_top" xlink:title=" ">
<polygon fill="white" stroke="black" points="286,-0.5 286,-38.5 459,-38.5 459,-0.5 286,-0.5"/>
<text text-anchor="start" x="294" y="-23.3" font-family="Helvetica,sans-Serif" font-size="14.00">parda_omp_input_with</text>
<text text-anchor="middle" x="372.5" y="-8.3" font-family="Helvetica,sans-Serif" font-size="14.00">_filename</text>
</a>
</g>
</g>
<!-- Node6&#45;&gt;Node8 -->
<g id="edge8" class="edge">
<title>Node6&#45;&gt;Node8</title>
<path fill="none" stroke="midnightblue" d="M497.46,-55.12C479.51,-49.96 458.99,-44.07 439.87,-38.57"/>
<polygon fill="midnightblue" stroke="midnightblue" points="496.57,-58.51 507.14,-57.9 498.5,-51.78 496.57,-58.51"/>
</g>
<!-- Node8&#45;&gt;Node5 -->
<g id="edge9" class="edge">
<title>Node8&#45;&gt;Node5</title>
<path fill="none" stroke="midnightblue" d="M275.62,-39.44C258.2,-43.06 240.58,-46.72 224.83,-50"/>
<polygon fill="midnightblue" stroke="midnightblue" points="276.76,-42.77 285.83,-37.31 275.33,-35.92 276.76,-42.77"/>
</g>
</g>
</svg>
        <g id="navigator" transform="translate(0 0)" fill="#404254">
                <rect fill="#f2f5e9" fill-opacity="0.5" stroke="#606060" stroke-width=".5" x="0" y="0" width="60" height="60"/>
                <use id="zoomplus" xlink:href="#zoomPlus" x="17" y="9" onmousedown="handleZoom(evt,'in')"/>
                <use id="zoomminus" xlink:href="#zoomMin" x="42" y="9" onmousedown="handleZoom(evt,'out')"/>
                <use id="reset" xlink:href="#resetDef" x="30" y="36" onmousedown="handleReset()"/>
                <g id="arrowUp" xlink:href="#dirArrow" transform="translate(30 24)" onmousedown="handlePan(0,-1)">
                  <use xlink:href="#rim" fill="#404040">
                        <set attributeName="fill" to="#808080" begin="arrowUp.mouseover" end="arrowUp.mouseout"/>
                  </use>
                  <path fill="none" stroke="white" stroke-width="1.5" d="M0,-3.0v7 M-2.5,-0.5L0,-3.0L2.5,-0.5"/>
                </g>
                <g id="arrowRight" xlink:href="#dirArrow" transform="rotate(90) translate(36 -43)" onmousedown="handlePan(1,0)">
                  <use xlink:href="#rim" fill="#404040">
                        <set attributeName="fill" to="#808080" begin="arrowRight.mouseover" end="arrowRight.mouseout"/>
                  </use>
                  <path fill="none" stroke="white" stroke-width="1.5" d="M0,-3.0v7 M-2.5,-0.5L0,-3.0L2.5,-0.5"/>
                </g>
                <g id="arrowDown" xlink:href="#dirArrow" transform="rotate(180) translate(-30 -48)" onmousedown="handlePan(0,1)">
                  <use xlink:href="#rim" fill="#404040">
                        <set attributeName="fill" to="#808080" begin="arrowDown.mouseover" end="arrowDown.mouseout"/>
                  </use>
                  <path fill="none" stroke="white" stroke-width="1.5" d="M0,-3.0v7 M-2.5,-0.5L0,-3.0L2.5,-0.5"/>
                </g>
                <g id="arrowLeft" xlink:href="#dirArrow" transform="rotate(270) translate(-36 17)" onmousedown="handlePan(-1,0)">
                  <use xlink:href="#rim" fill="#404040">
                        <set attributeName="fill" to="#808080" begin="arrowLeft.mouseover" end="arrowLeft.mouseout"/>
                  </use>
                  <path fill="none" stroke="white" stroke-width="1.5" d="M0,-3.0v7 M-2.5,-0.5L0,-3.0L2.5,-0.5"/>
                </g>
        </g>
        <svg viewBox="0 0 15 15" width="100%" height="30px" preserveAspectRatio="xMaxYMin meet">
         <g id="arrow_out" transform="scale(0.3 0.3)">
          <a xlink:href="narray_8c_ad4a6215f48c72db2c016b1f3d8aa2723_icgraph_org.svg" target="_base">
           <rect id="button" ry="5" rx="5" y="6" x="6" height="38" width="38"
                fill="#f2f5e9" fill-opacity="0.5" stroke="#606060" stroke-width="1.0"/>
           <path id="arrow"
             d="M 11.500037,31.436501 C 11.940474,20.09759 22.043105,11.32322 32.158766,21.979434 L 37.068811,17.246167 C 37.068811,17.246167 37.088388,32 37.088388,32 L 22.160133,31.978069 C 22.160133,31.978069 26.997745,27.140456 26.997745,27.140456 C 18.528582,18.264221 13.291696,25.230495 11.500037,31.436501 z"
             style="fill:#404040;"/>
          </a>
         </g>
        </svg>
</svg>
