<?xml version="1.0" encoding="UTF-8" standalone="no"?>
<!DOCTYPE svg PUBLIC "-//W3C//DTD SVG 1.1//EN"
 "http://www.w3.org/Graphics/SVG/1.1/DTD/svg11.dtd">
<!-- Generated by graphviz version 2.43.0 (0)
 -->
<!-- Title: narray_new Pages: 1 -->
<!--zoomable 180 -->
<svg id="main" version="1.1" xmlns="http://www.w3.org/2000/svg" xmlns:xlink="http://www.w3.org/1999/xlink" xml:space="preserve" onload="init(evt)">
<style type="text/css"><![CDATA[
.edge:hover path { stroke: red; }
.edge:hover polygon { stroke: red; fill: red; }
]]></style>
<script type="text/javascript"><![CDATA[
var edges = document.getElementsByTagName('g');
if (edges && edges.length) {
  for (var i=0;i<edges.length;i++) {
    if (edges[i].id.substr(0,4)=='edge') {
      edges[i].setAttribute('class','edge');
    }
  }
}
]]></script>
        <defs>
                <circle id="rim" cx="0" cy="0" r="7"/>
                <circle id="rim2" cx="0" cy="0" r="3.5"/>
                <g id="zoomPlus">
                        <use xlink:href="#rim" fill="#404040">
                                <set attributeName="fill" to="#808080" begin="zoomplus.mouseover" end="zoomplus.mouseout"/>
                        </use>
                        <path d="M-4,0h8M0,-4v8" fill="none" stroke="white" stroke-width="1.5" pointer-events="none"/>
                </g>
                <g id="zoomMin">
                        <use xlink:href="#rim" fill="#404040">
                                <set attributeName="fill" to="#808080" begin="zoomminus.mouseover" end="zoomminus.mouseout"/>
                        </use>
                        <path d="M-4,0h8" fill="none" stroke="white" stroke-width="1.5" pointer-events="none"/>
                </g>
                <g id="dirArrow">
                        <path fill="none" stroke="white" stroke-width="1.5" d="M0,-3.0v7 M-2.5,-0.5L0,-3.0L2.5,-0.5"/>
                </g>
               <g id="resetDef">
                       <use xlink:href="#rim2" fill="#404040">
                               <set attributeName="fill" to="#808080" begin="reset.mouseover" end="reset.mouseout"/>
                       </use>
               </g>
        </defs>

<script type="text/javascript">
var viewWidth = 937;
var viewHeight = 180;
var sectionId = 'dynsection-5';
</script>
<script xlink:href="../../svgpan.js"/>
<svg id="graph" class="graph">
<g id="viewport">
<title>narray_new</title>
<polygon fill="white" stroke="transparent" points="-4,4 -4,-175.5 933,-175.5 933,4 -4,4"/>
<!-- Node1 -->
<g id="node1" class="node">
<title>Node1</title>
<g id="a_node1"><a xlink:title=" ">
<polygon fill="#bfbfbf" stroke="black" points="832,-73 832,-96 929,-96 929,-73 832,-73"/>
<text text-anchor="middle" x="880.5" y="-80.8" font-family="Helvetica,sans-Serif" font-size="14.00">narray_new</text>
</a>
</g>
</g>
<!-- Node2 -->
<g id="node2" class="node">
<title>Node2</title>
<g id="a_node2"><a xlink:href="../../d0/dbf/parda_8h.html#a961dead466e68fdb22133f3544e60bda" target="_top" xlink:title=" ">
<polygon fill="white" stroke="black" points="638,-95 638,-118 796,-118 796,-95 638,-95"/>
<text text-anchor="middle" x="717" y="-102.8" font-family="Helvetica,sans-Serif" font-size="14.00">parda_generate_end</text>
</a>
</g>
</g>
<!-- Node1&#45;&gt;Node2 -->
<g id="edge1" class="edge">
<title>Node1&#45;&gt;Node2</title>
<path fill="none" stroke="midnightblue" d="M821.92,-92.34C813.56,-93.48 804.83,-94.67 796.14,-95.86"/>
<polygon fill="midnightblue" stroke="midnightblue" points="822.48,-95.8 831.92,-90.98 821.54,-88.86 822.48,-95.8"/>
</g>
<!-- Node8 -->
<g id="node8" class="node">
<title>Node8</title>
<g id="a_node8"><a xlink:href="../../d0/dbf/parda_8h.html#a8ce846b74cc5c09b66895149e3f559ed" target="_top" xlink:title=" ">
<polygon fill="white" stroke="black" points="506,-48 506,-71 591,-71 591,-48 506,-48"/>
<text text-anchor="middle" x="548.5" y="-55.8" font-family="Helvetica,sans-Serif" font-size="14.00">parda_init</text>
</a>
</g>
</g>
<!-- Node1&#45;&gt;Node8 -->
<g id="edge7" class="edge">
<title>Node1&#45;&gt;Node8</title>
<path fill="none" stroke="midnightblue" d="M821.64,-80.12C755.66,-75.12 649.42,-67.07 591.11,-62.65"/>
<polygon fill="midnightblue" stroke="midnightblue" points="821.63,-83.63 831.87,-80.89 822.16,-76.65 821.63,-83.63"/>
</g>
<!-- Node3 -->
<g id="node3" class="node">
<title>Node3</title>
<g id="a_node3"><a xlink:href="../../d0/dbf/parda_8h.html#ac66e3c12653af16fe2738d9e0089acfc" target="_top" xlink:title=" ">
<polygon fill="white" stroke="black" points="495,-98 495,-121 602,-121 602,-98 495,-98"/>
<text text-anchor="middle" x="548.5" y="-105.8" font-family="Helvetica,sans-Serif" font-size="14.00">parda_merge</text>
</a>
</g>
</g>
<!-- Node2&#45;&gt;Node3 -->
<g id="edge2" class="edge">
<title>Node2&#45;&gt;Node3</title>
<path fill="none" stroke="midnightblue" d="M627.51,-108.09C618.9,-108.25 610.37,-108.4 602.29,-108.55"/>
<polygon fill="midnightblue" stroke="midnightblue" points="627.69,-111.59 637.63,-107.91 627.56,-104.59 627.69,-111.59"/>
</g>
<!-- Node4 -->
<g id="node4" class="node">
<title>Node4</title>
<g id="a_node4"><a xlink:href="../../d5/d13/parda__omp_8h.html#ae6fbeb3538f797cfc948e920386b4741" target="_top" xlink:title=" ">
<polygon fill="white" stroke="black" points="304,-148 304,-171 441,-171 441,-148 304,-148"/>
<text text-anchor="middle" x="372.5" y="-155.8" font-family="Helvetica,sans-Serif" font-size="14.00">parda_omp_input</text>
</a>
</g>
</g>
<!-- Node3&#45;&gt;Node4 -->
<g id="edge3" class="edge">
<title>Node3&#45;&gt;Node4</title>
<path fill="none" stroke="midnightblue" d="M504.43,-124.34C490.06,-129.1 473.9,-134.23 459,-138.5 447.54,-141.78 435.12,-145.01 423.4,-147.92"/>
<polygon fill="midnightblue" stroke="midnightblue" points="505.69,-127.61 514.07,-121.12 503.47,-120.97 505.69,-127.61"/>
</g>
<!-- Node5 -->
<g id="node5" class="node">
<title>Node5</title>
<g id="a_node5"><a xlink:href="../../d0/d82/parda__omp_8c.html#a9608f67126e55a4e283694263aef00a4" target="_top" xlink:title=" ">
<polygon fill="white" stroke="black" points="286,-90.5 286,-128.5 459,-128.5 459,-90.5 286,-90.5"/>
<text text-anchor="start" x="294" y="-113.3" font-family="Helvetica,sans-Serif" font-size="14.00">parda_omp_input_with</text>
<text text-anchor="middle" x="372.5" y="-98.3" font-family="Helvetica,sans-Serif" font-size="14.00">_filename</text>
</a>
</g>
</g>
<!-- Node3&#45;&gt;Node5 -->
<g id="edge4" class="edge">
<title>Node3&#45;&gt;Node5</title>
<path fill="none" stroke="midnightblue" d="M484.81,-109.5C476.46,-109.5 467.77,-109.5 459.11,-109.5"/>
<polygon fill="midnightblue" stroke="midnightblue" points="484.82,-113 494.82,-109.5 484.82,-106 484.82,-113"/>
</g>
<!-- Node6 -->
<g id="node6" class="node">
<title>Node6</title>
<g id="a_node6"><a xlink:href="../../d5/d13/parda__omp_8h.html#af99a329269ee6e1bd3f49b4442ab1097" target="_top" xlink:title=" ">
<polygon fill="white" stroke="black" points="87,-58 87,-81 250,-81 250,-58 87,-58"/>
<text text-anchor="middle" x="168.5" y="-65.8" font-family="Helvetica,sans-Serif" font-size="14.00">parda_omp_stackdist</text>
</a>
</g>
</g>
<!-- Node5&#45;&gt;Node6 -->
<g id="edge5" class="edge">
<title>Node5&#45;&gt;Node6</title>
<path fill="none" stroke="midnightblue" d="M275.69,-90.53C259.33,-87.29 242.79,-84.01 227.8,-81.04"/>
<polygon fill="midnightblue" stroke="midnightblue" points="275.34,-94.03 285.83,-92.54 276.7,-87.16 275.34,-94.03"/>
</g>
<!-- Node7 -->
<g id="node7" class="node">
<title>Node7</title>
<g id="a_node7"><a xlink:href="../../d0/d29/main_8c.html#a3c04138a5bfe5d72780bb7e82a18e627" target="_top" xlink:title=" ">
<polygon fill="white" stroke="black" points="0,-33 0,-56 51,-56 51,-33 0,-33"/>
<text text-anchor="middle" x="25.5" y="-40.8" font-family="Helvetica,sans-Serif" font-size="14.00">main</text>
</a>
</g>
</g>
<!-- Node6&#45;&gt;Node7 -->
<g id="edge6" class="edge">
<title>Node6&#45;&gt;Node7</title>
<path fill="none" stroke="midnightblue" d="M92.12,-56.13C77.34,-53.51 62.84,-50.94 51.25,-48.89"/>
<polygon fill="midnightblue" stroke="midnightblue" points="91.91,-59.65 102.37,-57.95 93.13,-52.76 91.91,-59.65"/>
</g>
<!-- Node9 -->
<g id="node9" class="node">
<title>Node9</title>
<g id="a_node9"><a xlink:href="../../d0/dbf/parda_8h.html#ab5b52d038b8aaf5acd36508c229bd923" target="_top" xlink:title=" ">
<polygon fill="white" stroke="black" points="90,-0.5 90,-38.5 247,-38.5 247,-0.5 90,-0.5"/>
<text text-anchor="start" x="98" y="-23.3" font-family="Helvetica,sans-Serif" font-size="14.00">classical_tree_based</text>
<text text-anchor="middle" x="168.5" y="-8.3" font-family="Helvetica,sans-Serif" font-size="14.00">_stackdist</text>
</a>
</g>
</g>
<!-- Node8&#45;&gt;Node9 -->
<g id="edge8" class="edge">
<title>Node8&#45;&gt;Node9</title>
<path fill="none" stroke="midnightblue" d="M496,-45.75C483.94,-42.95 471.08,-40.32 459,-38.5 387.77,-27.79 305.79,-23.12 247.29,-21.08"/>
<polygon fill="midnightblue" stroke="midnightblue" points="495.37,-49.19 505.91,-48.12 497,-42.39 495.37,-49.19"/>
</g>
<!-- Node10 -->
<g id="node10" class="node">
<title>Node10</title>
<g id="a_node10"><a xlink:href="../../d5/d13/parda__omp_8h.html#a7d690cc9f8c5779105f049f091ee5e25" target="_top" xlink:title=" ">
<polygon fill="white" stroke="black" points="311.5,-48 311.5,-71 433.5,-71 433.5,-48 311.5,-48"/>
<text text-anchor="middle" x="372.5" y="-55.8" font-family="Helvetica,sans-Serif" font-size="14.00">parda_omp_init</text>
</a>
</g>
</g>
<!-- Node8&#45;&gt;Node10 -->
<g id="edge10" class="edge">
<title>Node8&#45;&gt;Node10</title>
<path fill="none" stroke="midnightblue" d="M495.61,-59.5C476.11,-59.5 453.78,-59.5 433.6,-59.5"/>
<polygon fill="midnightblue" stroke="midnightblue" points="495.82,-63 505.82,-59.5 495.82,-56 495.82,-63"/>
</g>
<!-- Node9&#45;&gt;Node7 -->
<g id="edge9" class="edge">
<title>Node9&#45;&gt;Node7</title>
<path fill="none" stroke="midnightblue" d="M79.86,-35.04C69.43,-36.89 59.53,-38.64 51.16,-40.13"/>
<polygon fill="midnightblue" stroke="midnightblue" points="80.75,-38.44 89.99,-33.24 79.53,-31.54 80.75,-38.44"/>
</g>
<!-- Node10&#45;&gt;Node6 -->
<g id="edge11" class="edge">
<title>Node10&#45;&gt;Node6</title>
<path fill="none" stroke="midnightblue" d="M301.35,-62.97C284.87,-63.79 267.18,-64.66 250.28,-65.5"/>
<polygon fill="midnightblue" stroke="midnightblue" points="301.63,-66.46 311.44,-62.47 301.28,-59.47 301.63,-66.46"/>
</g>
</g>
</svg>
        <g id="navigator" transform="translate(0 0)" fill="#404254">
                <rect fill="#f2f5e9" fill-opacity="0.5" stroke="#606060" stroke-width=".5" x="0" y="0" width="60" height="60"/>
                <use id="zoomplus" xlink:href="#zoomPlus" x="17" y="9" onmousedown="handleZoom(evt,'in')"/>
                <use id="zoomminus" xlink:href="#zoomMin" x="42" y="9" onmousedown="handleZoom(evt,'out')"/>
                <use id="reset" xlink:href="#resetDef" x="30" y="36" onmousedown="handleReset()"/>
                <g id="arrowUp" xlink:href="#dirArrow" transform="translate(30 24)" onmousedown="handlePan(0,-1)">
                  <use xlink:href="#rim" fill="#404040">
                        <set attributeName="fill" to="#808080" begin="arrowUp.mouseover" end="arrowUp.mouseout"/>
                  </use>
                  <path fill="none" stroke="white" stroke-width="1.5" d="M0,-3.0v7 M-2.5,-0.5L0,-3.0L2.5,-0.5"/>
                </g>
                <g id="arrowRight" xlink:href="#dirArrow" transform="rotate(90) translate(36 -43)" onmousedown="handlePan(1,0)">
                  <use xlink:href="#rim" fill="#404040">
                        <set attributeName="fill" to="#808080" begin="arrowRight.mouseover" end="arrowRight.mouseout"/>
                  </use>
                  <path fill="none" stroke="white" stroke-width="1.5" d="M0,-3.0v7 M-2.5,-0.5L0,-3.0L2.5,-0.5"/>
                </g>
                <g id="arrowDown" xlink:href="#dirArrow" transform="rotate(180) translate(-30 -48)" onmousedown="handlePan(0,1)">
                  <use xlink:href="#rim" fill="#404040">
                        <set attributeName="fill" to="#808080" begin="arrowDown.mouseover" end="arrowDown.mouseout"/>
                  </use>
                  <path fill="none" stroke="white" stroke-width="1.5" d="M0,-3.0v7 M-2.5,-0.5L0,-3.0L2.5,-0.5"/>
                </g>
                <g id="arrowLeft" xlink:href="#dirArrow" transform="rotate(270) translate(-36 17)" onmousedown="handlePan(-1,0)">
                  <use xlink:href="#rim" fill="#404040">
                        <set attributeName="fill" to="#808080" begin="arrowLeft.mouseover" end="arrowLeft.mouseout"/>
                  </use>
                  <path fill="none" stroke="white" stroke-width="1.5" d="M0,-3.0v7 M-2.5,-0.5L0,-3.0L2.5,-0.5"/>
                </g>
        </g>
        <svg viewBox="0 0 15 15" width="100%" height="30px" preserveAspectRatio="xMaxYMin meet">
         <g id="arrow_out" transform="scale(0.3 0.3)">
          <a xlink:href="narray_8c_a32d99037d1eb9c14a4802ce1999cd8d6_icgraph_org.svg" target="_base">
           <rect id="button" ry="5" rx="5" y="6" x="6" height="38" width="38"
                fill="#f2f5e9" fill-opacity="0.5" stroke="#606060" stroke-width="1.0"/>
           <path id="arrow"
             d="M 11.500037,31.436501 C 11.940474,20.09759 22.043105,11.32322 32.158766,21.979434 L 37.068811,17.246167 C 37.068811,17.246167 37.088388,32 37.088388,32 L 22.160133,31.978069 C 22.160133,31.978069 26.997745,27.140456 26.997745,27.140456 C 18.528582,18.264221 13.291696,25.230495 11.500037,31.436501 z"
             style="fill:#404040;"/>
          </a>
         </g>
        </svg>
</svg>
