<?xml version="1.0" encoding="UTF-8" standalone="no"?>
<!DOCTYPE svg PUBLIC "-//W3C//DTD SVG 1.1//EN"
 "http://www.w3.org/Graphics/SVG/1.1/DTD/svg11.dtd">
<!-- Generated by graphviz version 2.43.0 (0)
 -->
<!-- Title: cuOccupancyMaxActiveBlocksPerMultiprocessorWithFlags_params_st Pages: 1 -->
<svg width="234pt" height="137pt"
 viewBox="0.00 0.00 234.00 137.00" xmlns="http://www.w3.org/2000/svg" xmlns:xlink="http://www.w3.org/1999/xlink">
<g id="graph0" class="graph" transform="scale(1 1) rotate(0) translate(4 133)">
<title>cuOccupancyMaxActiveBlocksPerMultiprocessorWithFlags_params_st</title>
<polygon fill="white" stroke="transparent" points="-4,4 -4,-133 230,-133 230,4 -4,4"/>
<!-- Node1 -->
<g id="node1" class="node">
<title>Node1</title>
<g id="a_node1"><a xlink:title=" ">
<polygon fill="#bfbfbf" stroke="black" points="0,-0.5 0,-53.5 226,-53.5 226,-0.5 0,-0.5"/>
<text text-anchor="start" x="8" y="-38.3" font-family="Helvetica,sans-Serif" font-size="14.00">cuOccupancyMaxActiveBlocks</text>
<text text-anchor="start" x="8" y="-23.3" font-family="Helvetica,sans-Serif" font-size="14.00">PerMultiprocessorWithFlags</text>
<text text-anchor="middle" x="113" y="-8.3" font-family="Helvetica,sans-Serif" font-size="14.00">_params_st</text>
</a>
</g>
</g>
<!-- Node2 -->
<g id="node2" class="node">
<title>Node2</title>
<g id="a_node2"><a xlink:title=" ">
<polygon fill="white" stroke="#bfbfbf" points="84.5,-105.5 84.5,-128.5 141.5,-128.5 141.5,-105.5 84.5,-105.5"/>
<text text-anchor="middle" x="113" y="-113.3" font-family="Helvetica,sans-Serif" font-size="14.00">struct</text>
</a>
</g>
</g>
<!-- Node2&#45;&gt;Node1 -->
<g id="edge1" class="edge">
<title>Node2&#45;&gt;Node1</title>
<path fill="none" stroke="#9a32cd" stroke-dasharray="5,2" d="M113,-94.94C113,-82.54 113,-66.77 113,-53.65"/>
<polygon fill="#9a32cd" stroke="#9a32cd" points="109.5,-95.21 113,-105.21 116.5,-95.21 109.5,-95.21"/>
<text text-anchor="middle" x="131" y="-75.8" font-family="Helvetica,sans-Serif" font-size="14.00"> func</text>
</g>
</g>
</svg>
