<?xml version="1.0" encoding="UTF-8" standalone="no"?>
<!DOCTYPE svg PUBLIC "-//W3C//DTD SVG 1.1//EN"
 "http://www.w3.org/Graphics/SVG/1.1/DTD/svg11.dtd">
<!-- Generated by graphviz version 2.43.0 (0)
 -->
<!-- Title: PPT&#45;GPU/tracing_tool/nvbit/instr_types.h Pages: 1 -->
<svg width="238pt" height="107pt"
 viewBox="0.00 0.00 237.50 107.00" xmlns="http://www.w3.org/2000/svg" xmlns:xlink="http://www.w3.org/1999/xlink">
<g id="graph0" class="graph" transform="scale(1 1) rotate(0) translate(4 103)">
<title>PPT&#45;GPU/tracing_tool/nvbit/instr_types.h</title>
<polygon fill="white" stroke="transparent" points="-4,4 -4,-103 233.5,-103 233.5,4 -4,4"/>
<!-- Node1 -->
<g id="node1" class="node">
<title>Node1</title>
<g id="a_node1"><a xlink:title=" ">
<polygon fill="#bfbfbf" stroke="black" points="24.5,-60.5 24.5,-98.5 185.5,-98.5 185.5,-60.5 24.5,-60.5"/>
<text text-anchor="start" x="32.5" y="-83.3" font-family="Helvetica,sans-Serif" font-size="14.00">PPT&#45;GPU/tracing_tool</text>
<text text-anchor="middle" x="105" y="-68.3" font-family="Helvetica,sans-Serif" font-size="14.00">/nvbit/instr_types.h</text>
</a>
</g>
</g>
<!-- Node2 -->
<g id="node2" class="node">
<title>Node2</title>
<g id="a_node2"><a xlink:title=" ">
<polygon fill="white" stroke="#bfbfbf" points="0,-0.5 0,-23.5 86,-23.5 86,-0.5 0,-0.5"/>
<text text-anchor="middle" x="43" y="-8.3" font-family="Helvetica,sans-Serif" font-size="14.00">inttypes.h</text>
</a>
</g>
</g>
<!-- Node1&#45;&gt;Node2 -->
<g id="edge1" class="edge">
<title>Node1&#45;&gt;Node2</title>
<path fill="none" stroke="midnightblue" d="M87.73,-60.25C79.08,-51.12 68.65,-40.1 60.04,-31"/>
<polygon fill="midnightblue" stroke="midnightblue" points="62.44,-28.45 53.03,-23.59 57.36,-33.26 62.44,-28.45"/>
</g>
<!-- Node3 -->
<g id="node3" class="node">
<title>Node3</title>
<g id="a_node3"><a xlink:title=" ">
<polygon fill="white" stroke="#bfbfbf" points="104.5,-0.5 104.5,-23.5 229.5,-23.5 229.5,-0.5 104.5,-0.5"/>
<text text-anchor="middle" x="167" y="-8.3" font-family="Helvetica,sans-Serif" font-size="14.00">unordered_map</text>
</a>
</g>
</g>
<!-- Node1&#45;&gt;Node3 -->
<g id="edge2" class="edge">
<title>Node1&#45;&gt;Node3</title>
<path fill="none" stroke="midnightblue" d="M122.27,-60.25C130.92,-51.12 141.35,-40.1 149.96,-31"/>
<polygon fill="midnightblue" stroke="midnightblue" points="152.64,-33.26 156.97,-23.59 147.56,-28.45 152.64,-33.26"/>
</g>
</g>
</svg>
