<?xml version="1.0" encoding="UTF-8" standalone="no"?>
<!DOCTYPE svg PUBLIC "-//W3C//DTD SVG 1.1//EN"
 "http://www.w3.org/Graphics/SVG/1.1/DTD/svg11.dtd">
<!-- Generated by graphviz version 2.43.0 (0)
 -->
<!-- Title: seperate_textfile Pages: 1 -->
<svg width="499pt" height="94pt"
 viewBox="0.00 0.00 499.00 94.00" xmlns="http://www.w3.org/2000/svg" xmlns:xlink="http://www.w3.org/1999/xlink">
<g id="graph0" class="graph" transform="scale(1 1) rotate(0) translate(4 90)">
<title>seperate_textfile</title>
<polygon fill="white" stroke="transparent" points="-4,4 -4,-90 495,-90 495,4 -4,4"/>
<!-- Node1 -->
<g id="node1" class="node">
<title>Node1</title>
<g id="a_node1"><a xlink:title=" ">
<polygon fill="#bfbfbf" stroke="black" points="0,-20.5 0,-43.5 132,-43.5 132,-20.5 0,-20.5"/>
<text text-anchor="middle" x="66" y="-28.3" font-family="Helvetica,sans-Serif" font-size="14.00">seperate_textfile</text>
</a>
</g>
</g>
<!-- Node2 -->
<g id="node2" class="node">
<title>Node2</title>
<g id="a_node2"><a xlink:href="../../d0/dbf/parda_8h.html#aa791bc155904822d2963775bdc5be422" target="_top" xlink:title=" ">
<polygon fill="white" stroke="black" points="168,-62.5 168,-85.5 369,-85.5 369,-62.5 168,-62.5"/>
<text text-anchor="middle" x="268.5" y="-70.3" font-family="Helvetica,sans-Serif" font-size="14.00">parda_generate_pfilename</text>
</a>
</g>
</g>
<!-- Node1&#45;&gt;Node2 -->
<g id="edge1" class="edge">
<title>Node1&#45;&gt;Node2</title>
<path fill="none" stroke="midnightblue" d="M122.05,-43.53C146.92,-48.74 176.49,-54.93 202.44,-60.37"/>
<polygon fill="midnightblue" stroke="midnightblue" points="202.06,-63.87 212.57,-62.49 203.5,-57.02 202.06,-63.87"/>
</g>
<!-- Node3 -->
<g id="node3" class="node">
<title>Node3</title>
<g id="a_node3"><a xlink:href="../../d0/dbf/parda_8h.html#acaab2e6efac0dda49e7cd3681b821bb1" target="_top" xlink:title=" ">
<polygon fill="white" stroke="black" points="221.5,-20.5 221.5,-43.5 315.5,-43.5 315.5,-20.5 221.5,-20.5"/>
<text text-anchor="middle" x="268.5" y="-28.3" font-family="Helvetica,sans-Serif" font-size="14.00">parda_high</text>
</a>
</g>
</g>
<!-- Node1&#45;&gt;Node3 -->
<g id="edge2" class="edge">
<title>Node1&#45;&gt;Node3</title>
<path fill="none" stroke="midnightblue" d="M132.1,-32C157.61,-32 186.6,-32 211.19,-32"/>
<polygon fill="midnightblue" stroke="midnightblue" points="211.44,-35.5 221.44,-32 211.44,-28.5 211.44,-35.5"/>
</g>
<!-- Node4 -->
<g id="node4" class="node">
<title>Node4</title>
<g id="a_node4"><a xlink:href="../../d0/dbf/parda_8h.html#ae98c5df9941618081aa7dd90a30627fc" target="_top" xlink:title=" ">
<polygon fill="white" stroke="black" points="405,-0.5 405,-23.5 491,-23.5 491,-0.5 405,-0.5"/>
<text text-anchor="middle" x="448" y="-8.3" font-family="Helvetica,sans-Serif" font-size="14.00">parda_low</text>
</a>
</g>
</g>
<!-- Node1&#45;&gt;Node4 -->
<g id="edge4" class="edge">
<title>Node1&#45;&gt;Node4</title>
<path fill="none" stroke="midnightblue" d="M112.44,-20.49C129.72,-16.66 149.65,-12.89 168,-11 246.7,-2.9 338.55,-5.55 394.73,-8.52"/>
<polygon fill="midnightblue" stroke="midnightblue" points="394.62,-12.02 404.8,-9.08 395,-5.03 394.62,-12.02"/>
</g>
<!-- Node3&#45;&gt;Node4 -->
<g id="edge3" class="edge">
<title>Node3&#45;&gt;Node4</title>
<path fill="none" stroke="midnightblue" d="M315.67,-26.8C339.87,-24.07 369.6,-20.72 394.65,-17.9"/>
<polygon fill="midnightblue" stroke="midnightblue" points="395.16,-21.36 404.71,-16.77 394.38,-14.41 395.16,-21.36"/>
</g>
</g>
</svg>
