<?xml version="1.0" encoding="UTF-8" standalone="no"?>
<!DOCTYPE svg PUBLIC "-//W3C//DTD SVG 1.1//EN"
 "http://www.w3.org/Graphics/SVG/1.1/DTD/svg11.dtd">
<!-- Generated by graphviz version 2.43.0 (0)
 -->
<!-- Title: seperate_binaryfile Pages: 1 -->
<svg width="516pt" height="94pt"
 viewBox="0.00 0.00 516.00 94.00" xmlns="http://www.w3.org/2000/svg" xmlns:xlink="http://www.w3.org/1999/xlink">
<g id="graph0" class="graph" transform="scale(1 1) rotate(0) translate(4 90)">
<title>seperate_binaryfile</title>
<polygon fill="white" stroke="transparent" points="-4,4 -4,-90 512,-90 512,4 -4,4"/>
<!-- Node1 -->
<g id="node1" class="node">
<title>Node1</title>
<g id="a_node1"><a xlink:title=" ">
<polygon fill="#bfbfbf" stroke="black" points="0,-20.5 0,-43.5 149,-43.5 149,-20.5 0,-20.5"/>
<text text-anchor="middle" x="74.5" y="-28.3" font-family="Helvetica,sans-Serif" font-size="14.00">seperate_binaryfile</text>
</a>
</g>
</g>
<!-- Node2 -->
<g id="node2" class="node">
<title>Node2</title>
<g id="a_node2"><a xlink:href="../../d0/dbf/parda_8h.html#aa791bc155904822d2963775bdc5be422" target="_top" xlink:title=" ">
<polygon fill="white" stroke="black" points="185,-62.5 185,-85.5 386,-85.5 386,-62.5 185,-62.5"/>
<text text-anchor="middle" x="285.5" y="-70.3" font-family="Helvetica,sans-Serif" font-size="14.00">parda_generate_pfilename</text>
</a>
</g>
</g>
<!-- Node1&#45;&gt;Node2 -->
<g id="edge1" class="edge">
<title>Node1&#45;&gt;Node2</title>
<path fill="none" stroke="midnightblue" d="M132.89,-43.53C159.04,-48.79 190.17,-55.04 217.4,-60.52"/>
<polygon fill="midnightblue" stroke="midnightblue" points="216.75,-63.95 227.24,-62.49 218.13,-57.09 216.75,-63.95"/>
</g>
<!-- Node3 -->
<g id="node3" class="node">
<title>Node3</title>
<g id="a_node3"><a xlink:href="../../d0/dbf/parda_8h.html#acaab2e6efac0dda49e7cd3681b821bb1" target="_top" xlink:title=" ">
<polygon fill="white" stroke="black" points="238.5,-20.5 238.5,-43.5 332.5,-43.5 332.5,-20.5 238.5,-20.5"/>
<text text-anchor="middle" x="285.5" y="-28.3" font-family="Helvetica,sans-Serif" font-size="14.00">parda_high</text>
</a>
</g>
</g>
<!-- Node1&#45;&gt;Node3 -->
<g id="edge2" class="edge">
<title>Node1&#45;&gt;Node3</title>
<path fill="none" stroke="midnightblue" d="M149.19,-32C175.2,-32 204.02,-32 228.35,-32"/>
<polygon fill="midnightblue" stroke="midnightblue" points="228.48,-35.5 238.48,-32 228.48,-28.5 228.48,-35.5"/>
</g>
<!-- Node4 -->
<g id="node4" class="node">
<title>Node4</title>
<g id="a_node4"><a xlink:href="../../d0/dbf/parda_8h.html#ae98c5df9941618081aa7dd90a30627fc" target="_top" xlink:title=" ">
<polygon fill="white" stroke="black" points="422,-0.5 422,-23.5 508,-23.5 508,-0.5 422,-0.5"/>
<text text-anchor="middle" x="465" y="-8.3" font-family="Helvetica,sans-Serif" font-size="14.00">parda_low</text>
</a>
</g>
</g>
<!-- Node1&#45;&gt;Node4 -->
<g id="edge4" class="edge">
<title>Node1&#45;&gt;Node4</title>
<path fill="none" stroke="midnightblue" d="M124.82,-20.48C143.55,-16.65 165.15,-12.89 185,-11 273.93,-2.55 296.67,-10.43 386,-11 394.37,-11.05 403.25,-11.14 411.9,-11.24"/>
<polygon fill="midnightblue" stroke="midnightblue" points="411.86,-14.74 421.9,-11.36 411.94,-7.74 411.86,-14.74"/>
</g>
<!-- Node3&#45;&gt;Node4 -->
<g id="edge3" class="edge">
<title>Node3&#45;&gt;Node4</title>
<path fill="none" stroke="midnightblue" d="M332.67,-26.8C356.87,-24.07 386.6,-20.72 411.65,-17.9"/>
<polygon fill="midnightblue" stroke="midnightblue" points="412.16,-21.36 421.71,-16.77 411.38,-14.41 412.16,-21.36"/>
</g>
</g>
</svg>
