<?xml version="1.0" encoding="UTF-8" standalone="no"?>
<!DOCTYPE svg PUBLIC "-//W3C//DTD SVG 1.1//EN"
 "http://www.w3.org/Graphics/SVG/1.1/DTD/svg11.dtd">
<!-- Generated by graphviz version 2.43.0 (0)
 -->
<!-- Title: parda_seperate_file Pages: 1 -->
<svg width="704pt" height="133pt"
 viewBox="0.00 0.00 704.00 132.77" xmlns="http://www.w3.org/2000/svg" xmlns:xlink="http://www.w3.org/1999/xlink">
<g id="graph0" class="graph" transform="scale(1 1) rotate(0) translate(4 128.77)">
<title>parda_seperate_file</title>
<polygon fill="white" stroke="transparent" points="-4,4 -4,-128.77 700,-128.77 700,4 -4,4"/>
<!-- Node1 -->
<g id="node1" class="node">
<title>Node1</title>
<g id="a_node1"><a xlink:title=" ">
<polygon fill="#bfbfbf" stroke="black" points="0,-59.27 0,-82.27 152,-82.27 152,-59.27 0,-59.27"/>
<text text-anchor="middle" x="76" y="-67.07" font-family="Helvetica,sans-Serif" font-size="14.00">parda_seperate_file</text>
</a>
</g>
</g>
<!-- Node2 -->
<g id="node2" class="node">
<title>Node2</title>
<g id="a_node2"><a xlink:href="../../dc/d40/seperate_8c.html#a9595fc1446e2a34fa3413e3a93b31978" target="_top" xlink:title=" ">
<polygon fill="white" stroke="black" points="209.5,-101.27 209.5,-124.27 315.5,-124.27 315.5,-101.27 209.5,-101.27"/>
<text text-anchor="middle" x="262.5" y="-109.07" font-family="Helvetica,sans-Serif" font-size="14.00">get_file_lines</text>
</a>
</g>
</g>
<!-- Node1&#45;&gt;Node2 -->
<g id="edge1" class="edge">
<title>Node1&#45;&gt;Node2</title>
<path fill="none" stroke="midnightblue" d="M127.9,-82.35C150.49,-87.49 177.24,-93.59 200.86,-98.96"/>
<polygon fill="midnightblue" stroke="midnightblue" points="200.23,-102.41 210.76,-101.22 201.79,-95.58 200.23,-102.41"/>
</g>
<!-- Node3 -->
<g id="node3" class="node">
<title>Node3</title>
<g id="a_node3"><a xlink:href="../../dc/d40/seperate_8c.html#adc18bc6000d39fe9a557b3882da19f8c" target="_top" xlink:title=" ">
<polygon fill="white" stroke="black" points="188,-17.27 188,-40.27 337,-40.27 337,-17.27 188,-17.27"/>
<text text-anchor="middle" x="262.5" y="-25.07" font-family="Helvetica,sans-Serif" font-size="14.00">seperate_binaryfile</text>
</a>
</g>
</g>
<!-- Node1&#45;&gt;Node3 -->
<g id="edge2" class="edge">
<title>Node1&#45;&gt;Node3</title>
<path fill="none" stroke="midnightblue" d="M127.9,-59.18C150.49,-54.04 177.24,-47.95 200.86,-42.57"/>
<polygon fill="midnightblue" stroke="midnightblue" points="201.79,-45.95 210.76,-40.32 200.23,-39.12 201.79,-45.95"/>
</g>
<!-- Node7 -->
<g id="node7" class="node">
<title>Node7</title>
<g id="a_node7"><a xlink:href="../../dc/d40/seperate_8c.html#a7baa57c40ff9963a510495ea573b3530" target="_top" xlink:title=" ">
<polygon fill="white" stroke="black" points="196.5,-59.27 196.5,-82.27 328.5,-82.27 328.5,-59.27 196.5,-59.27"/>
<text text-anchor="middle" x="262.5" y="-67.07" font-family="Helvetica,sans-Serif" font-size="14.00">seperate_textfile</text>
</a>
</g>
</g>
<!-- Node1&#45;&gt;Node7 -->
<g id="edge7" class="edge">
<title>Node1&#45;&gt;Node7</title>
<path fill="none" stroke="midnightblue" d="M152.04,-70.77C163.27,-70.77 174.85,-70.77 186.09,-70.77"/>
<polygon fill="midnightblue" stroke="midnightblue" points="186.29,-74.27 196.29,-70.77 186.29,-67.27 186.29,-74.27"/>
</g>
<!-- Node4 -->
<g id="node4" class="node">
<title>Node4</title>
<g id="a_node4"><a xlink:href="../../d0/dbf/parda_8h.html#aa791bc155904822d2963775bdc5be422" target="_top" xlink:title=" ">
<polygon fill="white" stroke="black" points="373,-59.27 373,-82.27 574,-82.27 574,-59.27 373,-59.27"/>
<text text-anchor="middle" x="473.5" y="-67.07" font-family="Helvetica,sans-Serif" font-size="14.00">parda_generate_pfilename</text>
</a>
</g>
</g>
<!-- Node3&#45;&gt;Node4 -->
<g id="edge3" class="edge">
<title>Node3&#45;&gt;Node4</title>
<path fill="none" stroke="midnightblue" d="M320.89,-40.3C347.04,-45.55 378.17,-51.81 405.4,-57.28"/>
<polygon fill="midnightblue" stroke="midnightblue" points="404.75,-60.72 415.24,-59.26 406.13,-53.86 404.75,-60.72"/>
</g>
<!-- Node5 -->
<g id="node5" class="node">
<title>Node5</title>
<g id="a_node5"><a xlink:href="../../d0/dbf/parda_8h.html#acaab2e6efac0dda49e7cd3681b821bb1" target="_top" xlink:title=" ">
<polygon fill="white" stroke="black" points="426.5,-17.27 426.5,-40.27 520.5,-40.27 520.5,-17.27 426.5,-17.27"/>
<text text-anchor="middle" x="473.5" y="-25.07" font-family="Helvetica,sans-Serif" font-size="14.00">parda_high</text>
</a>
</g>
</g>
<!-- Node3&#45;&gt;Node5 -->
<g id="edge4" class="edge">
<title>Node3&#45;&gt;Node5</title>
<path fill="none" stroke="midnightblue" d="M337.19,-28.77C363.2,-28.77 392.02,-28.77 416.35,-28.77"/>
<polygon fill="midnightblue" stroke="midnightblue" points="416.48,-32.27 426.48,-28.77 416.48,-25.27 416.48,-32.27"/>
</g>
<!-- Node6 -->
<g id="node6" class="node">
<title>Node6</title>
<g id="a_node6"><a xlink:href="../../d0/dbf/parda_8h.html#ae98c5df9941618081aa7dd90a30627fc" target="_top" xlink:title=" ">
<polygon fill="white" stroke="black" points="610,-17.27 610,-40.27 696,-40.27 696,-17.27 610,-17.27"/>
<text text-anchor="middle" x="653" y="-25.07" font-family="Helvetica,sans-Serif" font-size="14.00">parda_low</text>
</a>
</g>
</g>
<!-- Node3&#45;&gt;Node6 -->
<g id="edge6" class="edge">
<title>Node3&#45;&gt;Node6</title>
<path fill="none" stroke="midnightblue" d="M312.82,-17.25C331.55,-13.42 353.15,-9.65 373,-7.77 461.93,0.69 485.44,3.95 574,-7.77 584.96,-9.22 596.57,-11.76 607.39,-14.6"/>
<polygon fill="midnightblue" stroke="midnightblue" points="606.49,-17.98 617.06,-17.26 608.35,-11.23 606.49,-17.98"/>
</g>
<!-- Node5&#45;&gt;Node6 -->
<g id="edge5" class="edge">
<title>Node5&#45;&gt;Node6</title>
<path fill="none" stroke="midnightblue" d="M520.67,-28.77C544.87,-28.77 574.6,-28.77 599.65,-28.77"/>
<polygon fill="midnightblue" stroke="midnightblue" points="599.71,-32.27 609.71,-28.77 599.71,-25.27 599.71,-32.27"/>
</g>
<!-- Node7&#45;&gt;Node4 -->
<g id="edge8" class="edge">
<title>Node7&#45;&gt;Node4</title>
<path fill="none" stroke="midnightblue" d="M328.77,-70.77C339.61,-70.77 351.1,-70.77 362.69,-70.77"/>
<polygon fill="midnightblue" stroke="midnightblue" points="362.88,-74.27 372.88,-70.77 362.88,-67.27 362.88,-74.27"/>
</g>
<!-- Node7&#45;&gt;Node5 -->
<g id="edge9" class="edge">
<title>Node7&#45;&gt;Node5</title>
<path fill="none" stroke="midnightblue" d="M320.89,-59.23C350.61,-53.26 386.77,-45.99 416.32,-40.05"/>
<polygon fill="midnightblue" stroke="midnightblue" points="417.36,-43.42 426.48,-38.01 415.99,-36.55 417.36,-43.42"/>
</g>
<!-- Node7&#45;&gt;Node6 -->
<g id="edge10" class="edge">
<title>Node7&#45;&gt;Node6</title>
<path fill="none" stroke="midnightblue" d="M312.82,-82.28C331.55,-86.11 353.15,-89.88 373,-91.77 461.93,-100.22 489.77,-121.53 574,-91.77 598.6,-83.07 621.13,-62.96 635.58,-47.79"/>
<polygon fill="midnightblue" stroke="midnightblue" points="638.19,-50.12 642.37,-40.39 633.03,-45.39 638.19,-50.12"/>
</g>
</g>
</svg>
