<?xml version="1.0" encoding="UTF-8" standalone="no"?>
<!DOCTYPE svg PUBLIC "-//W3C//DTD SVG 1.1//EN"
 "http://www.w3.org/Graphics/SVG/1.1/DTD/svg11.dtd">
<!-- Generated by graphviz version 2.43.0 (0)
 -->
<!-- Title: cuMemcpyPeerAsync_params_st Pages: 1 -->
<svg width="251pt" height="137pt"
 viewBox="0.00 0.00 251.00 137.00" xmlns="http://www.w3.org/2000/svg" xmlns:xlink="http://www.w3.org/1999/xlink">
<g id="graph0" class="graph" transform="scale(1 1) rotate(0) translate(4 133)">
<title>cuMemcpyPeerAsync_params_st</title>
<polygon fill="white" stroke="transparent" points="-4,4 -4,-133 247,-133 247,4 -4,4"/>
<!-- Node1 -->
<g id="node1" class="node">
<title>Node1</title>
<g id="a_node1"><a xlink:title=" ">
<polygon fill="#bfbfbf" stroke="black" points="0,-0.5 0,-23.5 243,-23.5 243,-0.5 0,-0.5"/>
<text text-anchor="middle" x="121.5" y="-8.3" font-family="Helvetica,sans-Serif" font-size="14.00">cuMemcpyPeerAsync_params_st</text>
</a>
</g>
</g>
<!-- Node2 -->
<g id="node2" class="node">
<title>Node2</title>
<g id="a_node2"><a xlink:title=" ">
<polygon fill="white" stroke="#bfbfbf" points="93,-105.5 93,-128.5 150,-128.5 150,-105.5 93,-105.5"/>
<text text-anchor="middle" x="121.5" y="-113.3" font-family="Helvetica,sans-Serif" font-size="14.00">struct</text>
</a>
</g>
</g>
<!-- Node2&#45;&gt;Node1 -->
<g id="edge1" class="edge">
<title>Node2&#45;&gt;Node1</title>
<path fill="none" stroke="#9a32cd" stroke-dasharray="5,2" d="M121.5,-95.24C121.5,-73.62 121.5,-40.6 121.5,-23.73"/>
<polygon fill="#9a32cd" stroke="#9a32cd" points="118,-95.37 121.5,-105.37 125,-95.37 118,-95.37"/>
<text text-anchor="middle" x="161" y="-75.8" font-family="Helvetica,sans-Serif" font-size="14.00"> srcContext</text>
<text text-anchor="middle" x="161" y="-60.8" font-family="Helvetica,sans-Serif" font-size="14.00">dstContext</text>
<text text-anchor="middle" x="161" y="-45.8" font-family="Helvetica,sans-Serif" font-size="14.00">hStream</text>
</g>
</g>
</svg>
