<?xml version="1.0" encoding="UTF-8" standalone="no"?>
<!DOCTYPE svg PUBLIC "-//W3C//DTD SVG 1.1//EN"
 "http://www.w3.org/Graphics/SVG/1.1/DTD/svg11.dtd">
<!-- Generated by graphviz version 2.43.0 (0)
 -->
<!-- Title: PPT&#45;GPU/llvm_tool/inc/deviceRuntime.h Pages: 1 -->
<svg width="174pt" height="122pt"
 viewBox="0.00 0.00 174.00 122.00" xmlns="http://www.w3.org/2000/svg" xmlns:xlink="http://www.w3.org/1999/xlink">
<g id="graph0" class="graph" transform="scale(1 1) rotate(0) translate(4 118)">
<title>PPT&#45;GPU/llvm_tool/inc/deviceRuntime.h</title>
<polygon fill="white" stroke="transparent" points="-4,4 -4,-118 170,-118 170,4 -4,4"/>
<!-- Node1 -->
<g id="node1" class="node">
<title>Node1</title>
<g id="a_node1"><a xlink:title=" ">
<polygon fill="#bfbfbf" stroke="black" points="0,-75.5 0,-113.5 166,-113.5 166,-75.5 0,-75.5"/>
<text text-anchor="start" x="8" y="-98.3" font-family="Helvetica,sans-Serif" font-size="14.00">PPT&#45;GPU/llvm_tool/inc</text>
<text text-anchor="middle" x="83" y="-83.3" font-family="Helvetica,sans-Serif" font-size="14.00">/deviceRuntime.h</text>
</a>
</g>
</g>
<!-- Node2 -->
<g id="node2" class="node">
<title>Node2</title>
<g id="a_node2"><a xlink:href="../../df/d50/fluxDevicePass_8cpp.html" target="_top" xlink:title=" ">
<polygon fill="white" stroke="black" points="2,-0.5 2,-38.5 164,-38.5 164,-0.5 2,-0.5"/>
<text text-anchor="start" x="10" y="-23.3" font-family="Helvetica,sans-Serif" font-size="14.00">PPT&#45;GPU/llvm_tool/lib</text>
<text text-anchor="middle" x="83" y="-8.3" font-family="Helvetica,sans-Serif" font-size="14.00">/fluxDevicePass.cpp</text>
</a>
</g>
</g>
<!-- Node1&#45;&gt;Node2 -->
<g id="edge1" class="edge">
<title>Node1&#45;&gt;Node2</title>
<path fill="none" stroke="midnightblue" d="M83,-65.37C83,-56.38 83,-46.67 83,-38.59"/>
<polygon fill="midnightblue" stroke="midnightblue" points="79.5,-65.46 83,-75.46 86.5,-65.46 79.5,-65.46"/>
</g>
</g>
</svg>
