<?xml version="1.0" encoding="UTF-8" standalone="no"?>
<!DOCTYPE svg PUBLIC "-//W3C//DTD SVG 1.1//EN"
 "http://www.w3.org/Graphics/SVG/1.1/DTD/svg11.dtd">
<!-- Generated by graphviz version 2.43.0 (0)
 -->
<!-- Title: cuEventElapsedTime_params_st Pages: 1 -->
<svg width="169pt" height="137pt"
 viewBox="0.00 0.00 169.00 137.00" xmlns="http://www.w3.org/2000/svg" xmlns:xlink="http://www.w3.org/1999/xlink">
<g id="graph0" class="graph" transform="scale(1 1) rotate(0) translate(4 133)">
<title>cuEventElapsedTime_params_st</title>
<polygon fill="white" stroke="transparent" points="-4,4 -4,-133 165,-133 165,4 -4,4"/>
<!-- Node1 -->
<g id="node1" class="node">
<title>Node1</title>
<g id="a_node1"><a xlink:title=" ">
<polygon fill="#bfbfbf" stroke="black" points="0,-0.5 0,-38.5 161,-38.5 161,-0.5 0,-0.5"/>
<text text-anchor="start" x="8" y="-23.3" font-family="Helvetica,sans-Serif" font-size="14.00">cuEventElapsedTime</text>
<text text-anchor="middle" x="80.5" y="-8.3" font-family="Helvetica,sans-Serif" font-size="14.00">_params_st</text>
</a>
</g>
</g>
<!-- Node2 -->
<g id="node2" class="node">
<title>Node2</title>
<g id="a_node2"><a xlink:title=" ">
<polygon fill="white" stroke="#bfbfbf" points="52,-105.5 52,-128.5 109,-128.5 109,-105.5 52,-105.5"/>
<text text-anchor="middle" x="80.5" y="-113.3" font-family="Helvetica,sans-Serif" font-size="14.00">struct</text>
</a>
</g>
</g>
<!-- Node2&#45;&gt;Node1 -->
<g id="edge1" class="edge">
<title>Node2&#45;&gt;Node1</title>
<path fill="none" stroke="#9a32cd" stroke-dasharray="5,2" d="M80.5,-94.96C80.5,-78.09 80.5,-54.67 80.5,-38.63"/>
<polygon fill="#9a32cd" stroke="#9a32cd" points="77,-95.41 80.5,-105.41 84,-95.41 77,-95.41"/>
<text text-anchor="middle" x="102" y="-75.8" font-family="Helvetica,sans-Serif" font-size="14.00"> hEnd</text>
<text text-anchor="middle" x="102" y="-60.8" font-family="Helvetica,sans-Serif" font-size="14.00">hStart</text>
</g>
</g>
</svg>
