<?xml version="1.0" encoding="UTF-8" standalone="no"?>
<!DOCTYPE svg PUBLIC "-//W3C//DTD SVG 1.1//EN"
 "http://www.w3.org/Graphics/SVG/1.1/DTD/svg11.dtd">
<!-- Generated by graphviz version 2.43.0 (0)
 -->
<!-- Title: PPT&#45;GPU/llvm_tool/lib/fluxDevicePass.cpp Pages: 1 -->
<svg width="3271pt" height="302pt"
 viewBox="0.00 0.00 3270.50 302.00" xmlns="http://www.w3.org/2000/svg" xmlns:xlink="http://www.w3.org/1999/xlink">
<g id="graph0" class="graph" transform="scale(1 1) rotate(0) translate(4 298)">
<title>PPT&#45;GPU/llvm_tool/lib/fluxDevicePass.cpp</title>
<polygon fill="white" stroke="transparent" points="-4,4 -4,-298 3266.5,-298 3266.5,4 -4,4"/>
<!-- Node1 -->
<g id="node1" class="node">
<title>Node1</title>
<g id="a_node1"><a xlink:title=" ">
<polygon fill="#bfbfbf" stroke="black" points="2047,-255.5 2047,-293.5 2209,-293.5 2209,-255.5 2047,-255.5"/>
<text text-anchor="start" x="2055" y="-278.3" font-family="Helvetica,sans-Serif" font-size="14.00">PPT&#45;GPU/llvm_tool/lib</text>
<text text-anchor="middle" x="2128" y="-263.3" font-family="Helvetica,sans-Serif" font-size="14.00">/fluxDevicePass.cpp</text>
</a>
</g>
</g>
<!-- Node2 -->
<g id="node2" class="node">
<title>Node2</title>
<g id="a_node2"><a xlink:href="../../de/d8a/Mekong-Utils_8h.html" target="_top" xlink:title=" ">
<polygon fill="white" stroke="black" points="474,-188 474,-211 594,-211 594,-188 474,-188"/>
<text text-anchor="middle" x="534" y="-195.8" font-family="Helvetica,sans-Serif" font-size="14.00">Mekong&#45;Utils.h</text>
</a>
</g>
</g>
<!-- Node1&#45;&gt;Node2 -->
<g id="edge1" class="edge">
<title>Node1&#45;&gt;Node2</title>
<path fill="none" stroke="midnightblue" d="M2046.76,-269.78C1769.57,-257.09 863.87,-215.61 604.18,-203.71"/>
<polygon fill="midnightblue" stroke="midnightblue" points="604.27,-200.21 594.12,-203.25 603.95,-207.21 604.27,-200.21"/>
</g>
<!-- Node4 -->
<g id="node4" class="node">
<title>Node4</title>
<g id="a_node4"><a xlink:title=" ">
<polygon fill="white" stroke="#bfbfbf" points="0,-0.5 0,-23.5 60,-23.5 60,-0.5 0,-0.5"/>
<text text-anchor="middle" x="30" y="-8.3" font-family="Helvetica,sans-Serif" font-size="14.00">vector</text>
</a>
</g>
</g>
<!-- Node1&#45;&gt;Node4 -->
<g id="edge56" class="edge">
<title>Node1&#45;&gt;Node4</title>
<path fill="none" stroke="midnightblue" d="M2046.67,-272.46C1757.09,-268.52 776.94,-252.94 465,-219 283.88,-199.29 221.32,-232.37 62,-144 30.37,-126.45 20.11,-117.71 7,-84 0.3,-66.76 8.22,-46.68 16.54,-32.28"/>
<polygon fill="midnightblue" stroke="midnightblue" points="19.56,-34.05 21.92,-23.72 13.63,-30.32 19.56,-34.05"/>
</g>
<!-- Node12 -->
<g id="node12" class="node">
<title>Node12</title>
<g id="a_node12"><a xlink:title=" ">
<polygon fill="white" stroke="#bfbfbf" points="2105.5,-0.5 2105.5,-23.5 2162.5,-23.5 2162.5,-0.5 2105.5,-0.5"/>
<text text-anchor="middle" x="2134" y="-8.3" font-family="Helvetica,sans-Serif" font-size="14.00">string</text>
</a>
</g>
</g>
<!-- Node1&#45;&gt;Node12 -->
<g id="edge55" class="edge">
<title>Node1&#45;&gt;Node12</title>
<path fill="none" stroke="midnightblue" d="M2134.5,-255.29C2142.94,-234.17 2159.66,-199.75 2185,-180 2227.57,-146.81 2268.98,-187.46 2301,-144 2341.89,-88.5 2233.83,-44.15 2172.68,-24.3"/>
<polygon fill="midnightblue" stroke="midnightblue" points="2173.53,-20.9 2162.94,-21.22 2171.42,-27.57 2173.53,-20.9"/>
</g>
<!-- Node16 -->
<g id="node16" class="node">
<title>Node16</title>
<g id="a_node16"><a xlink:title=" ">
<polygon fill="white" stroke="#bfbfbf" points="1699.5,-60.5 1699.5,-83.5 1844.5,-83.5 1844.5,-60.5 1699.5,-60.5"/>
<text text-anchor="middle" x="1772" y="-68.3" font-family="Helvetica,sans-Serif" font-size="14.00">llvm/IR/IRBuilder.h</text>
</a>
</g>
</g>
<!-- Node1&#45;&gt;Node16 -->
<g id="edge45" class="edge">
<title>Node1&#45;&gt;Node16</title>
<path fill="none" stroke="midnightblue" d="M2046.8,-267.54C1966.87,-260.24 1851.74,-245.46 1816,-219 1776.8,-189.97 1771.23,-127.08 1771.19,-94.12"/>
<polygon fill="midnightblue" stroke="midnightblue" points="1774.7,-93.88 1771.36,-83.82 1767.7,-93.76 1774.7,-93.88"/>
</g>
<!-- Node19 -->
<g id="node19" class="node">
<title>Node19</title>
<g id="a_node19"><a xlink:href="../../d0/d88/cudaFluxPasses_8h.html" target="_top" xlink:title=" ">
<polygon fill="white" stroke="black" points="1185,-188 1185,-211 1325,-211 1325,-188 1185,-188"/>
<text text-anchor="middle" x="1255" y="-195.8" font-family="Helvetica,sans-Serif" font-size="14.00">cudaFluxPasses.h</text>
</a>
</g>
</g>
<!-- Node1&#45;&gt;Node19 -->
<g id="edge24" class="edge">
<title>Node1&#45;&gt;Node19</title>
<path fill="none" stroke="midnightblue" d="M2046.65,-266.7C1879.88,-252.75 1500.98,-221.07 1335.19,-207.21"/>
<polygon fill="midnightblue" stroke="midnightblue" points="1335.32,-203.7 1325.06,-206.36 1334.73,-210.68 1335.32,-203.7"/>
</g>
<!-- Node20 -->
<g id="node20" class="node">
<title>Node20</title>
<g id="a_node20"><a xlink:title=" ">
<polygon fill="white" stroke="#bfbfbf" points="610.5,-120.5 610.5,-143.5 705.5,-143.5 705.5,-120.5 610.5,-120.5"/>
<text text-anchor="middle" x="658" y="-128.3" font-family="Helvetica,sans-Serif" font-size="14.00">llvm/Pass.h</text>
</a>
</g>
</g>
<!-- Node1&#45;&gt;Node20 -->
<g id="edge46" class="edge">
<title>Node1&#45;&gt;Node20</title>
<path fill="none" stroke="midnightblue" d="M2046.9,-271.66C1882.29,-267.3 1497.34,-253.96 1176,-219 970.81,-196.67 917.93,-182.84 715.65,-145.04"/>
<polygon fill="midnightblue" stroke="midnightblue" points="716.06,-141.56 705.59,-143.16 714.78,-148.44 716.06,-141.56"/>
</g>
<!-- Node22 -->
<g id="node22" class="node">
<title>Node22</title>
<g id="a_node22"><a xlink:title=" ">
<polygon fill="white" stroke="#bfbfbf" points="1519,-120.5 1519,-143.5 1731,-143.5 1731,-120.5 1519,-120.5"/>
<text text-anchor="middle" x="1625" y="-128.3" font-family="Helvetica,sans-Serif" font-size="14.00">llvm/Support/raw_ostream.h</text>
</a>
</g>
</g>
<!-- Node1&#45;&gt;Node22 -->
<g id="edge47" class="edge">
<title>Node1&#45;&gt;Node22</title>
<path fill="none" stroke="midnightblue" d="M2046.64,-273.06C1967.07,-270.09 1843.8,-258.64 1745,-219 1704.75,-202.85 1665.28,-170.47 1643.14,-150.38"/>
<polygon fill="midnightblue" stroke="midnightblue" points="1645.52,-147.81 1635.8,-143.58 1640.76,-152.95 1645.52,-147.81"/>
</g>
<!-- Node25 -->
<g id="node25" class="node">
<title>Node25</title>
<g id="a_node25"><a xlink:href="../../d3/d7e/deviceRuntime_8h.html" target="_top" xlink:title=" ">
<polygon fill="white" stroke="black" points="1845.5,-188 1845.5,-211 1978.5,-211 1978.5,-188 1845.5,-188"/>
<text text-anchor="middle" x="1912" y="-195.8" font-family="Helvetica,sans-Serif" font-size="14.00">deviceRuntime.h</text>
</a>
</g>
</g>
<!-- Node1&#45;&gt;Node25 -->
<g id="edge32" class="edge">
<title>Node1&#45;&gt;Node25</title>
<path fill="none" stroke="midnightblue" d="M2074.61,-255.46C2036.97,-242.74 1987.33,-225.96 1952.84,-214.3"/>
<polygon fill="midnightblue" stroke="midnightblue" points="1953.69,-210.89 1943.09,-211.01 1951.45,-217.53 1953.69,-210.89"/>
</g>
<!-- Node26 -->
<g id="node26" class="node">
<title>Node26</title>
<g id="a_node26"><a xlink:href="../../d4/d85/ptx__parser_8h.html" target="_top" xlink:title=" ">
<polygon fill="white" stroke="black" points="1996.5,-188 1996.5,-211 2099.5,-211 2099.5,-188 1996.5,-188"/>
<text text-anchor="middle" x="2048" y="-195.8" font-family="Helvetica,sans-Serif" font-size="14.00">ptx_parser.h</text>
</a>
</g>
</g>
<!-- Node1&#45;&gt;Node26 -->
<g id="edge33" class="edge">
<title>Node1&#45;&gt;Node26</title>
<path fill="none" stroke="midnightblue" d="M2108.22,-255.46C2095.78,-244.09 2079.78,-229.5 2067.4,-218.2"/>
<polygon fill="midnightblue" stroke="midnightblue" points="2069.61,-215.48 2059.86,-211.33 2064.89,-220.65 2069.61,-215.48"/>
</g>
<!-- Node27 -->
<g id="node27" class="node">
<title>Node27</title>
<g id="a_node27"><a xlink:title=" ">
<polygon fill="white" stroke="#bfbfbf" points="1787,-120.5 1787,-143.5 1857,-143.5 1857,-120.5 1787,-120.5"/>
<text text-anchor="middle" x="1822" y="-128.3" font-family="Helvetica,sans-Serif" font-size="14.00">fstream</text>
</a>
</g>
</g>
<!-- Node1&#45;&gt;Node27 -->
<g id="edge51" class="edge">
<title>Node1&#45;&gt;Node27</title>
<path fill="none" stroke="midnightblue" d="M2046.7,-268.62C1970.69,-262.29 1864.7,-248.37 1836,-219 1819.31,-201.92 1817.88,-173.19 1819.24,-153.68"/>
<polygon fill="midnightblue" stroke="midnightblue" points="1822.73,-153.97 1820.23,-143.67 1815.76,-153.28 1822.73,-153.97"/>
</g>
<!-- Node30 -->
<g id="node30" class="node">
<title>Node30</title>
<g id="a_node30"><a xlink:title=" ">
<polygon fill="white" stroke="#bfbfbf" points="2245.5,-120.5 2245.5,-143.5 2292.5,-143.5 2292.5,-120.5 2245.5,-120.5"/>
<text text-anchor="middle" x="2269" y="-128.3" font-family="Helvetica,sans-Serif" font-size="14.00">map</text>
</a>
</g>
</g>
<!-- Node1&#45;&gt;Node30 -->
<g id="edge52" class="edge">
<title>Node1&#45;&gt;Node30</title>
<path fill="none" stroke="midnightblue" d="M2127.98,-255.45C2128.9,-234.82 2133.43,-201.17 2152,-180 2163.38,-167.03 2205.13,-152.2 2235.52,-142.73"/>
<polygon fill="midnightblue" stroke="midnightblue" points="2236.78,-146 2245.33,-139.74 2234.74,-139.31 2236.78,-146"/>
</g>
<!-- Node32 -->
<g id="node32" class="node">
<title>Node32</title>
<g id="a_node32"><a xlink:title=" ">
<polygon fill="white" stroke="#bfbfbf" points="2194.5,-188 2194.5,-211 2407.5,-211 2407.5,-188 2194.5,-188"/>
<text text-anchor="middle" x="2301" y="-195.8" font-family="Helvetica,sans-Serif" font-size="14.00">llvm/Bitcode/BitcodeWriter.h</text>
</a>
</g>
</g>
<!-- Node1&#45;&gt;Node32 -->
<g id="edge42" class="edge">
<title>Node1&#45;&gt;Node32</title>
<path fill="none" stroke="midnightblue" d="M2170.76,-255.46C2200.3,-242.99 2239.07,-226.63 2266.61,-215.01"/>
<polygon fill="midnightblue" stroke="midnightblue" points="2267.99,-218.23 2275.85,-211.11 2265.27,-211.78 2267.99,-218.23"/>
</g>
<!-- Node33 -->
<g id="node33" class="node">
<title>Node33</title>
<g id="a_node33"><a xlink:title=" ">
<polygon fill="white" stroke="#bfbfbf" points="2426,-188 2426,-211 2578,-211 2578,-188 2426,-188"/>
<text text-anchor="middle" x="2502" y="-195.8" font-family="Helvetica,sans-Serif" font-size="14.00">llvm/IR/Constants.h</text>
</a>
</g>
</g>
<!-- Node1&#45;&gt;Node33 -->
<g id="edge43" class="edge">
<title>Node1&#45;&gt;Node33</title>
<path fill="none" stroke="midnightblue" d="M2209.11,-258.71C2266.87,-248.04 2346.29,-233.09 2416,-219 2425.01,-217.18 2434.55,-215.19 2443.85,-213.21"/>
<polygon fill="midnightblue" stroke="midnightblue" points="2444.78,-216.59 2453.83,-211.08 2443.32,-209.75 2444.78,-216.59"/>
</g>
<!-- Node34 -->
<g id="node34" class="node">
<title>Node34</title>
<g id="a_node34"><a xlink:title=" ">
<polygon fill="white" stroke="#bfbfbf" points="2596,-188 2596,-211 2738,-211 2738,-188 2596,-188"/>
<text text-anchor="middle" x="2667" y="-195.8" font-family="Helvetica,sans-Serif" font-size="14.00">llvm/IR/Function.h</text>
</a>
</g>
</g>
<!-- Node1&#45;&gt;Node34 -->
<g id="edge44" class="edge">
<title>Node1&#45;&gt;Node34</title>
<path fill="none" stroke="midnightblue" d="M2209.23,-266.56C2301.27,-258.06 2455.57,-241.93 2587,-219 2596.18,-217.4 2605.89,-215.41 2615.25,-213.33"/>
<polygon fill="midnightblue" stroke="midnightblue" points="2616.27,-216.69 2625.24,-211.06 2614.71,-209.87 2616.27,-216.69"/>
</g>
<!-- Node35 -->
<g id="node35" class="node">
<title>Node35</title>
<g id="a_node35"><a xlink:title=" ">
<polygon fill="white" stroke="#bfbfbf" points="2756.5,-180.5 2756.5,-218.5 2919.5,-218.5 2919.5,-180.5 2756.5,-180.5"/>
<text text-anchor="start" x="2764.5" y="-203.3" font-family="Helvetica,sans-Serif" font-size="14.00">llvm/Transforms/Utils</text>
<text text-anchor="middle" x="2838" y="-188.3" font-family="Helvetica,sans-Serif" font-size="14.00">/Cloning.h</text>
</a>
</g>
</g>
<!-- Node1&#45;&gt;Node35 -->
<g id="edge48" class="edge">
<title>Node1&#45;&gt;Node35</title>
<path fill="none" stroke="midnightblue" d="M2209.45,-269.26C2326.17,-262.54 2547.85,-247.34 2746.2,-219.02"/>
<polygon fill="midnightblue" stroke="midnightblue" points="2746.83,-222.47 2756.22,-217.58 2745.83,-215.54 2746.83,-222.47"/>
</g>
<!-- Node36 -->
<g id="node36" class="node">
<title>Node36</title>
<g id="a_node36"><a xlink:title=" ">
<polygon fill="white" stroke="#bfbfbf" points="2937.5,-188 2937.5,-211 2990.5,-211 2990.5,-188 2937.5,-188"/>
<text text-anchor="middle" x="2964" y="-195.8" font-family="Helvetica,sans-Serif" font-size="14.00">array</text>
</a>
</g>
</g>
<!-- Node1&#45;&gt;Node36 -->
<g id="edge49" class="edge">
<title>Node1&#45;&gt;Node36</title>
<path fill="none" stroke="midnightblue" d="M2209.28,-272.25C2385.07,-268.84 2795.52,-256.96 2929,-219 2932.17,-218.1 2935.39,-216.88 2938.51,-215.51"/>
<polygon fill="midnightblue" stroke="midnightblue" points="2940.12,-218.62 2947.51,-211.03 2937,-212.35 2940.12,-218.62"/>
</g>
<!-- Node37 -->
<g id="node37" class="node">
<title>Node37</title>
<g id="a_node37"><a xlink:title=" ">
<polygon fill="white" stroke="#bfbfbf" points="3009,-188 3009,-211 3067,-211 3067,-188 3009,-188"/>
<text text-anchor="middle" x="3038" y="-195.8" font-family="Helvetica,sans-Serif" font-size="14.00">cstdio</text>
</a>
</g>
</g>
<!-- Node1&#45;&gt;Node37 -->
<g id="edge50" class="edge">
<title>Node1&#45;&gt;Node37</title>
<path fill="none" stroke="midnightblue" d="M2209.3,-272.44C2396.28,-269.37 2852.13,-257.98 3000,-219 3003.62,-218.05 3007.3,-216.74 3010.88,-215.25"/>
<polygon fill="midnightblue" stroke="midnightblue" points="3012.39,-218.41 3020.01,-211.04 3009.46,-212.06 3012.39,-218.41"/>
</g>
<!-- Node38 -->
<g id="node38" class="node">
<title>Node38</title>
<g id="a_node38"><a xlink:title=" ">
<polygon fill="white" stroke="#bfbfbf" points="3085,-188 3085,-211 3159,-211 3159,-188 3085,-188"/>
<text text-anchor="middle" x="3122" y="-195.8" font-family="Helvetica,sans-Serif" font-size="14.00">memory</text>
</a>
</g>
</g>
<!-- Node1&#45;&gt;Node38 -->
<g id="edge53" class="edge">
<title>Node1&#45;&gt;Node38</title>
<path fill="none" stroke="midnightblue" d="M2209.14,-272.21C2407.34,-268.51 2911.9,-255.68 3076,-219 3080.79,-217.93 3085.72,-216.42 3090.51,-214.72"/>
<polygon fill="midnightblue" stroke="midnightblue" points="3091.95,-217.91 3100.01,-211.03 3089.42,-211.39 3091.95,-217.91"/>
</g>
<!-- Node39 -->
<g id="node39" class="node">
<title>Node39</title>
<g id="a_node39"><a xlink:title=" ">
<polygon fill="white" stroke="#bfbfbf" points="3177.5,-188 3177.5,-211 3262.5,-211 3262.5,-188 3177.5,-188"/>
<text text-anchor="middle" x="3220" y="-195.8" font-family="Helvetica,sans-Serif" font-size="14.00">stdexcept</text>
</a>
</g>
</g>
<!-- Node1&#45;&gt;Node39 -->
<g id="edge54" class="edge">
<title>Node1&#45;&gt;Node39</title>
<path fill="none" stroke="midnightblue" d="M2209.08,-272.28C2420.51,-268.6 2984.93,-255.55 3168,-219 3173.78,-217.85 3179.78,-216.18 3185.57,-214.31"/>
<polygon fill="midnightblue" stroke="midnightblue" points="3186.72,-217.62 3195.02,-211.04 3184.43,-211 3186.72,-217.62"/>
</g>
<!-- Node3 -->
<g id="node3" class="node">
<title>Node3</title>
<g id="a_node3"><a xlink:href="../../d3/dee/DeviceUtils_8h.html" target="_top" xlink:title=" ">
<polygon fill="white" stroke="black" points="71.5,-120.5 71.5,-143.5 178.5,-143.5 178.5,-120.5 71.5,-120.5"/>
<text text-anchor="middle" x="125" y="-128.3" font-family="Helvetica,sans-Serif" font-size="14.00">DeviceUtils.h</text>
</a>
</g>
</g>
<!-- Node2&#45;&gt;Node3 -->
<g id="edge2" class="edge">
<title>Node2&#45;&gt;Node3</title>
<path fill="none" stroke="midnightblue" d="M473.65,-188.84C397.41,-176.63 266.79,-155.71 188.9,-143.23"/>
<polygon fill="midnightblue" stroke="midnightblue" points="189.17,-139.73 178.74,-141.61 188.06,-146.64 189.17,-139.73"/>
</g>
<!-- Node6 -->
<g id="node6" class="node">
<title>Node6</title>
<g id="a_node6"><a xlink:href="../../d4/de6/HostUtils_8h.html" target="_top" xlink:title=" ">
<polygon fill="white" stroke="black" points="222,-120.5 222,-143.5 314,-143.5 314,-120.5 222,-120.5"/>
<text text-anchor="middle" x="268" y="-128.3" font-family="Helvetica,sans-Serif" font-size="14.00">HostUtils.h</text>
</a>
</g>
</g>
<!-- Node2&#45;&gt;Node6 -->
<g id="edge5" class="edge">
<title>Node2&#45;&gt;Node6</title>
<path fill="none" stroke="midnightblue" d="M491.26,-187.98C444.96,-176.57 371.02,-158.37 321.04,-146.06"/>
<polygon fill="midnightblue" stroke="midnightblue" points="321.62,-142.6 311.07,-143.61 319.95,-149.4 321.62,-142.6"/>
</g>
<!-- Node8 -->
<g id="node8" class="node">
<title>Node8</title>
<g id="a_node8"><a xlink:href="../../db/d19/IRUtils_8h.html" target="_top" xlink:title=" ">
<polygon fill="white" stroke="black" points="762.5,-120.5 762.5,-143.5 837.5,-143.5 837.5,-120.5 762.5,-120.5"/>
<text text-anchor="middle" x="800" y="-128.3" font-family="Helvetica,sans-Serif" font-size="14.00">IRUtils.h</text>
</a>
</g>
</g>
<!-- Node2&#45;&gt;Node8 -->
<g id="edge9" class="edge">
<title>Node2&#45;&gt;Node8</title>
<path fill="none" stroke="midnightblue" d="M576.74,-187.98C624.69,-176.17 702.28,-157.06 752.2,-144.77"/>
<polygon fill="midnightblue" stroke="midnightblue" points="753.23,-148.12 762.11,-142.33 751.56,-141.32 753.23,-148.12"/>
</g>
<!-- Node3&#45;&gt;Node4 -->
<g id="edge3" class="edge">
<title>Node3&#45;&gt;Node4</title>
<path fill="none" stroke="midnightblue" d="M71.24,-121.06C50.33,-114.28 28.46,-102.94 16,-84 5.92,-68.67 11.89,-47.73 18.89,-32.57"/>
<polygon fill="midnightblue" stroke="midnightblue" points="22.06,-34.05 23.47,-23.55 15.82,-30.88 22.06,-34.05"/>
</g>
<!-- Node5 -->
<g id="node5" class="node">
<title>Node5</title>
<g id="a_node5"><a xlink:title=" ">
<polygon fill="white" stroke="#bfbfbf" points="58.5,-60.5 58.5,-83.5 191.5,-83.5 191.5,-60.5 58.5,-60.5"/>
<text text-anchor="middle" x="125" y="-68.3" font-family="Helvetica,sans-Serif" font-size="14.00">llvm/IR/Module.h</text>
</a>
</g>
</g>
<!-- Node3&#45;&gt;Node5 -->
<g id="edge4" class="edge">
<title>Node3&#45;&gt;Node5</title>
<path fill="none" stroke="midnightblue" d="M125,-120.36C125,-112.92 125,-102.74 125,-93.73"/>
<polygon fill="midnightblue" stroke="midnightblue" points="128.5,-93.57 125,-83.57 121.5,-93.57 128.5,-93.57"/>
</g>
<!-- Node6&#45;&gt;Node4 -->
<g id="edge8" class="edge">
<title>Node6&#45;&gt;Node4</title>
<path fill="none" stroke="midnightblue" d="M221.87,-123.72C161.39,-113.79 61.47,-95.86 49,-84 35.53,-71.19 31.24,-49.98 30.04,-34.06"/>
<polygon fill="midnightblue" stroke="midnightblue" points="33.52,-33.47 29.63,-23.61 26.53,-33.74 33.52,-33.47"/>
</g>
<!-- Node6&#45;&gt;Node5 -->
<g id="edge7" class="edge">
<title>Node6&#45;&gt;Node5</title>
<path fill="none" stroke="midnightblue" d="M242.1,-120.5C219.37,-111.27 186.07,-97.77 160.79,-87.52"/>
<polygon fill="midnightblue" stroke="midnightblue" points="161.77,-84.14 151.19,-83.62 159.14,-90.62 161.77,-84.14"/>
</g>
<!-- Node7 -->
<g id="node7" class="node">
<title>Node7</title>
<g id="a_node7"><a xlink:title=" ">
<polygon fill="white" stroke="#bfbfbf" points="209.5,-60.5 209.5,-83.5 374.5,-83.5 374.5,-60.5 209.5,-60.5"/>
<text text-anchor="middle" x="292" y="-68.3" font-family="Helvetica,sans-Serif" font-size="14.00">llvm/IR/Instructions.h</text>
</a>
</g>
</g>
<!-- Node6&#45;&gt;Node7 -->
<g id="edge6" class="edge">
<title>Node6&#45;&gt;Node7</title>
<path fill="none" stroke="midnightblue" d="M272.4,-120.36C275.58,-112.68 279.97,-102.07 283.79,-92.84"/>
<polygon fill="midnightblue" stroke="midnightblue" points="287.04,-94.15 287.63,-83.57 280.57,-91.47 287.04,-94.15"/>
</g>
<!-- Node8&#45;&gt;Node5 -->
<g id="edge16" class="edge">
<title>Node8&#45;&gt;Node5</title>
<path fill="none" stroke="midnightblue" d="M762.34,-122.37C757.53,-121.47 752.66,-120.64 748,-120 509.51,-87.11 444.49,-109.11 201.82,-84.12"/>
<polygon fill="midnightblue" stroke="midnightblue" points="201.93,-80.61 191.62,-83.05 201.2,-87.58 201.93,-80.61"/>
</g>
<!-- Node8&#45;&gt;Node7 -->
<g id="edge15" class="edge">
<title>Node8&#45;&gt;Node7</title>
<path fill="none" stroke="midnightblue" d="M762.32,-122.52C757.51,-121.59 752.65,-120.72 748,-120 590.21,-95.6 546.8,-101.52 385.13,-84.21"/>
<polygon fill="midnightblue" stroke="midnightblue" points="385.14,-80.69 374.82,-83.09 384.38,-87.65 385.14,-80.69"/>
</g>
<!-- Node9 -->
<g id="node9" class="node">
<title>Node9</title>
<g id="a_node9"><a xlink:href="../../d9/dc8/BasicBlockEnumerator_8h.html" target="_top" xlink:title=" ">
<polygon fill="white" stroke="black" points="1420.5,-60.5 1420.5,-83.5 1605.5,-83.5 1605.5,-60.5 1420.5,-60.5"/>
<text text-anchor="middle" x="1513" y="-68.3" font-family="Helvetica,sans-Serif" font-size="14.00">BasicBlockEnumerator.h</text>
</a>
</g>
</g>
<!-- Node8&#45;&gt;Node9 -->
<g id="edge10" class="edge">
<title>Node8&#45;&gt;Node9</title>
<path fill="none" stroke="midnightblue" d="M837.6,-121.62C840.77,-121.01 843.93,-120.45 847,-120 1092.2,-83.74 1158.99,-104.9 1410.28,-84.02"/>
<polygon fill="midnightblue" stroke="midnightblue" points="1410.78,-87.49 1420.45,-83.16 1410.19,-80.51 1410.78,-87.49"/>
</g>
<!-- Node11 -->
<g id="node11" class="node">
<title>Node11</title>
<g id="a_node11"><a xlink:href="../../db/d2b/PTXFunction_8h.html" target="_top" xlink:title=" ">
<polygon fill="white" stroke="black" points="1993,-60.5 1993,-83.5 2109,-83.5 2109,-60.5 1993,-60.5"/>
<text text-anchor="middle" x="2051" y="-68.3" font-family="Helvetica,sans-Serif" font-size="14.00">PTXFunction.h</text>
</a>
</g>
</g>
<!-- Node8&#45;&gt;Node11 -->
<g id="edge12" class="edge">
<title>Node8&#45;&gt;Node11</title>
<path fill="none" stroke="midnightblue" d="M837.59,-121.52C840.76,-120.93 843.93,-120.41 847,-120 1290.46,-60.74 1406.07,-104.41 1853,-84 1896.07,-82.03 1944.38,-79.36 1982.5,-77.14"/>
<polygon fill="midnightblue" stroke="midnightblue" points="1983.19,-80.6 1992.97,-76.53 1982.78,-73.62 1983.19,-80.6"/>
</g>
<!-- Node8&#45;&gt;Node12 -->
<g id="edge23" class="edge">
<title>Node8&#45;&gt;Node12</title>
<path fill="none" stroke="midnightblue" d="M837.6,-121.56C840.76,-120.96 843.93,-120.43 847,-120 1185,-72.92 1278.03,-143.88 1614,-84 1648.87,-77.78 1655.32,-67.23 1690,-60 1837.66,-29.19 2017.39,-18.06 2095.11,-14.5"/>
<polygon fill="midnightblue" stroke="midnightblue" points="2095.55,-17.98 2105.38,-14.04 2095.24,-10.99 2095.55,-17.98"/>
</g>
<!-- Node13 -->
<g id="node13" class="node">
<title>Node13</title>
<g id="a_node13"><a xlink:title=" ">
<polygon fill="white" stroke="#bfbfbf" points="1209.5,-60.5 1209.5,-83.5 1402.5,-83.5 1402.5,-60.5 1209.5,-60.5"/>
<text text-anchor="middle" x="1306" y="-68.3" font-family="Helvetica,sans-Serif" font-size="14.00">llvm/IRReader/IRReader.h</text>
</a>
</g>
</g>
<!-- Node8&#45;&gt;Node13 -->
<g id="edge17" class="edge">
<title>Node8&#45;&gt;Node13</title>
<path fill="none" stroke="midnightblue" d="M837.62,-121.75C840.79,-121.11 843.94,-120.51 847,-120 999.35,-94.51 1041.41,-99.9 1199.17,-84.07"/>
<polygon fill="midnightblue" stroke="midnightblue" points="1199.64,-87.54 1209.24,-83.05 1198.94,-80.58 1199.64,-87.54"/>
</g>
<!-- Node14 -->
<g id="node14" class="node">
<title>Node14</title>
<g id="a_node14"><a xlink:title=" ">
<polygon fill="white" stroke="#bfbfbf" points="392.5,-60.5 392.5,-83.5 543.5,-83.5 543.5,-60.5 392.5,-60.5"/>
<text text-anchor="middle" x="468" y="-68.3" font-family="Helvetica,sans-Serif" font-size="14.00">llvm/Linker/Linker.h</text>
</a>
</g>
</g>
<!-- Node8&#45;&gt;Node14 -->
<g id="edge18" class="edge">
<title>Node8&#45;&gt;Node14</title>
<path fill="none" stroke="midnightblue" d="M762.26,-122.82C757.47,-121.84 752.62,-120.88 748,-120 679.7,-107.05 601.67,-94.1 545.37,-85.09"/>
<polygon fill="midnightblue" stroke="midnightblue" points="545.89,-81.63 535.47,-83.51 544.79,-88.54 545.89,-81.63"/>
</g>
<!-- Node15 -->
<g id="node15" class="node">
<title>Node15</title>
<g id="a_node15"><a xlink:title=" ">
<polygon fill="white" stroke="#bfbfbf" points="562,-60.5 562,-83.5 738,-83.5 738,-60.5 562,-60.5"/>
<text text-anchor="middle" x="650" y="-68.3" font-family="Helvetica,sans-Serif" font-size="14.00">llvm/Support/Casting.h</text>
</a>
</g>
</g>
<!-- Node8&#45;&gt;Node15 -->
<g id="edge19" class="edge">
<title>Node8&#45;&gt;Node15</title>
<path fill="none" stroke="midnightblue" d="M772.84,-120.5C748.7,-111.16 713.22,-97.44 686.59,-87.15"/>
<polygon fill="midnightblue" stroke="midnightblue" points="687.8,-83.87 677.21,-83.52 685.28,-90.39 687.8,-83.87"/>
</g>
<!-- Node8&#45;&gt;Node16 -->
<g id="edge20" class="edge">
<title>Node8&#45;&gt;Node16</title>
<path fill="none" stroke="midnightblue" d="M837.6,-121.56C840.76,-120.96 843.93,-120.42 847,-120 1199.56,-71.24 1291.87,-107.61 1647,-84 1660.64,-83.09 1675.11,-81.97 1689.18,-80.79"/>
<polygon fill="midnightblue" stroke="midnightblue" points="1689.67,-84.26 1699.33,-79.92 1689.07,-77.29 1689.67,-84.26"/>
</g>
<!-- Node17 -->
<g id="node17" class="node">
<title>Node17</title>
<g id="a_node17"><a xlink:title=" ">
<polygon fill="white" stroke="#bfbfbf" points="755.5,-60.5 755.5,-83.5 976.5,-83.5 976.5,-60.5 755.5,-60.5"/>
<text text-anchor="middle" x="866" y="-68.3" font-family="Helvetica,sans-Serif" font-size="14.00">llvm/Support/MemoryBuffer.h</text>
</a>
</g>
</g>
<!-- Node8&#45;&gt;Node17 -->
<g id="edge21" class="edge">
<title>Node8&#45;&gt;Node17</title>
<path fill="none" stroke="midnightblue" d="M812.11,-120.36C821.69,-111.94 835.26,-100.01 846.39,-90.23"/>
<polygon fill="midnightblue" stroke="midnightblue" points="848.77,-92.8 853.97,-83.57 844.15,-87.54 848.77,-92.8"/>
</g>
<!-- Node18 -->
<g id="node18" class="node">
<title>Node18</title>
<g id="a_node18"><a xlink:title=" ">
<polygon fill="white" stroke="#bfbfbf" points="994.5,-60.5 994.5,-83.5 1191.5,-83.5 1191.5,-60.5 994.5,-60.5"/>
<text text-anchor="middle" x="1093" y="-68.3" font-family="Helvetica,sans-Serif" font-size="14.00">llvm/Support/SourceMgr.h</text>
</a>
</g>
</g>
<!-- Node8&#45;&gt;Node18 -->
<g id="edge22" class="edge">
<title>Node8&#45;&gt;Node18</title>
<path fill="none" stroke="midnightblue" d="M837.68,-122.04C840.83,-121.33 843.97,-120.64 847,-120 906.69,-107.32 974.86,-94.42 1024.27,-85.35"/>
<polygon fill="midnightblue" stroke="midnightblue" points="1025.01,-88.77 1034.21,-83.53 1023.75,-81.89 1025.01,-88.77"/>
</g>
<!-- Node10 -->
<g id="node10" class="node">
<title>Node10</title>
<g id="a_node10"><a xlink:title=" ">
<polygon fill="white" stroke="#bfbfbf" points="1513.5,-0.5 1513.5,-23.5 1670.5,-23.5 1670.5,-0.5 1513.5,-0.5"/>
<text text-anchor="middle" x="1592" y="-8.3" font-family="Helvetica,sans-Serif" font-size="14.00">llvm/IR/BasicBlock.h</text>
</a>
</g>
</g>
<!-- Node9&#45;&gt;Node10 -->
<g id="edge11" class="edge">
<title>Node9&#45;&gt;Node10</title>
<path fill="none" stroke="midnightblue" d="M1527.49,-60.36C1539.18,-51.78 1555.84,-39.55 1569.3,-29.66"/>
<polygon fill="midnightblue" stroke="midnightblue" points="1571.61,-32.31 1577.6,-23.57 1567.47,-26.67 1571.61,-32.31"/>
</g>
<!-- Node11&#45;&gt;Node4 -->
<g id="edge14" class="edge">
<title>Node11&#45;&gt;Node4</title>
<path fill="none" stroke="midnightblue" d="M1992.94,-66.15C1964.62,-63.95 1930.05,-61.51 1899,-60 1166.02,-24.28 269.94,-14.99 70.56,-13.31"/>
<polygon fill="midnightblue" stroke="midnightblue" points="70.3,-9.81 60.27,-13.23 70.24,-16.81 70.3,-9.81"/>
</g>
<!-- Node11&#45;&gt;Node12 -->
<g id="edge13" class="edge">
<title>Node11&#45;&gt;Node12</title>
<path fill="none" stroke="midnightblue" d="M2066.22,-60.36C2078.63,-51.7 2096.35,-39.31 2110.56,-29.38"/>
<polygon fill="midnightblue" stroke="midnightblue" points="2112.68,-32.17 2118.87,-23.57 2108.67,-26.43 2112.68,-32.17"/>
</g>
<!-- Node19&#45;&gt;Node5 -->
<g id="edge26" class="edge">
<title>Node19&#45;&gt;Node5</title>
<path fill="none" stroke="midnightblue" d="M1184.53,-194.69C1065.77,-187.62 831.06,-170.73 753,-144 733.75,-137.41 733.38,-126.22 714,-120 499.16,-50.99 429.71,-106.94 201.89,-84.11"/>
<polygon fill="midnightblue" stroke="midnightblue" points="201.93,-80.6 191.62,-83.04 201.21,-87.56 201.93,-80.6"/>
</g>
<!-- Node19&#45;&gt;Node10 -->
<g id="edge25" class="edge">
<title>Node19&#45;&gt;Node10</title>
<path fill="none" stroke="midnightblue" d="M1317.6,-187.95C1361.62,-179.28 1421.29,-164.98 1471,-144 1489.75,-136.09 1491.61,-128.71 1510,-120 1554.2,-99.06 1585.63,-123.84 1614,-84 1625.03,-68.5 1616.07,-47.31 1606.47,-32.12"/>
<polygon fill="midnightblue" stroke="midnightblue" points="1609.13,-29.81 1600.59,-23.55 1603.36,-33.77 1609.13,-29.81"/>
</g>
<!-- Node19&#45;&gt;Node20 -->
<g id="edge27" class="edge">
<title>Node19&#45;&gt;Node20</title>
<path fill="none" stroke="midnightblue" d="M1184.69,-193.01C1082.23,-184.63 885.98,-167.15 720,-144 718.55,-143.8 717.07,-143.59 715.59,-143.37"/>
<polygon fill="midnightblue" stroke="midnightblue" points="716.09,-139.9 705.67,-141.82 715.01,-146.82 716.09,-139.9"/>
</g>
<!-- Node21 -->
<g id="node21" class="node">
<title>Node21</title>
<g id="a_node21"><a xlink:title=" ">
<polygon fill="white" stroke="#bfbfbf" points="856,-120.5 856,-143.5 1026,-143.5 1026,-120.5 856,-120.5"/>
<text text-anchor="middle" x="941" y="-128.3" font-family="Helvetica,sans-Serif" font-size="14.00">llvm/Support/Debug.h</text>
</a>
</g>
</g>
<!-- Node19&#45;&gt;Node21 -->
<g id="edge28" class="edge">
<title>Node19&#45;&gt;Node21</title>
<path fill="none" stroke="midnightblue" d="M1204.55,-187.98C1149.24,-176.44 1060.53,-157.93 1001.52,-145.62"/>
<polygon fill="midnightblue" stroke="midnightblue" points="1002.09,-142.17 991.58,-143.55 1000.66,-149.02 1002.09,-142.17"/>
</g>
<!-- Node19&#45;&gt;Node22 -->
<g id="edge29" class="edge">
<title>Node19&#45;&gt;Node22</title>
<path fill="none" stroke="midnightblue" d="M1314.45,-187.98C1380.16,-176.34 1485.89,-157.63 1555.41,-145.32"/>
<polygon fill="midnightblue" stroke="midnightblue" points="1556.16,-148.74 1565.39,-143.55 1554.94,-141.85 1556.16,-148.74"/>
</g>
<!-- Node23 -->
<g id="node23" class="node">
<title>Node23</title>
<g id="a_node23"><a xlink:title=" ">
<polygon fill="white" stroke="#bfbfbf" points="1044.5,-120.5 1044.5,-143.5 1247.5,-143.5 1247.5,-120.5 1044.5,-120.5"/>
<text text-anchor="middle" x="1146" y="-128.3" font-family="Helvetica,sans-Serif" font-size="14.00">llvm/Support/YAMLParser.h</text>
</a>
</g>
</g>
<!-- Node19&#45;&gt;Node23 -->
<g id="edge30" class="edge">
<title>Node19&#45;&gt;Node23</title>
<path fill="none" stroke="midnightblue" d="M1237.49,-187.98C1219.95,-177.44 1192.75,-161.09 1172.55,-148.96"/>
<polygon fill="midnightblue" stroke="midnightblue" points="1174.21,-145.87 1163.83,-143.72 1170.6,-151.87 1174.21,-145.87"/>
</g>
<!-- Node24 -->
<g id="node24" class="node">
<title>Node24</title>
<g id="a_node24"><a xlink:title=" ">
<polygon fill="white" stroke="#bfbfbf" points="1265.5,-120.5 1265.5,-143.5 1462.5,-143.5 1462.5,-120.5 1265.5,-120.5"/>
<text text-anchor="middle" x="1364" y="-128.3" font-family="Helvetica,sans-Serif" font-size="14.00">llvm/Support/YAMLTraits.h</text>
</a>
</g>
</g>
<!-- Node19&#45;&gt;Node24 -->
<g id="edge31" class="edge">
<title>Node19&#45;&gt;Node24</title>
<path fill="none" stroke="midnightblue" d="M1272.51,-187.98C1290.05,-177.44 1317.25,-161.09 1337.45,-148.96"/>
<polygon fill="midnightblue" stroke="midnightblue" points="1339.4,-151.87 1346.17,-143.72 1335.79,-145.87 1339.4,-151.87"/>
</g>
<!-- Node26&#45;&gt;Node4 -->
<g id="edge41" class="edge">
<title>Node26&#45;&gt;Node4</title>
<path fill="none" stroke="midnightblue" d="M2012.44,-187.98C1975.54,-176.55 1920.91,-158.05 1904,-144 1870.41,-116.08 1890.78,-81.91 1853,-60 1773.31,-13.79 331.33,-12.76 70.33,-12.95"/>
<polygon fill="midnightblue" stroke="midnightblue" points="70.16,-9.45 60.16,-12.96 70.17,-16.45 70.16,-9.45"/>
</g>
<!-- Node26&#45;&gt;Node11 -->
<g id="edge34" class="edge">
<title>Node26&#45;&gt;Node11</title>
<path fill="none" stroke="midnightblue" d="M2078.18,-187.96C2108.07,-176.84 2150.68,-158.9 2160,-144 2176.97,-116.87 2141.77,-98.03 2106.95,-86.6"/>
<polygon fill="midnightblue" stroke="midnightblue" points="2107.77,-83.19 2097.18,-83.58 2105.7,-89.88 2107.77,-83.19"/>
</g>
<!-- Node26&#45;&gt;Node12 -->
<g id="edge40" class="edge">
<title>Node26&#45;&gt;Node12</title>
<path fill="none" stroke="midnightblue" d="M2084.6,-187.99C2118.85,-177.34 2166.28,-160.16 2177,-144 2200.65,-108.33 2170.29,-58.59 2149.83,-31.83"/>
<polygon fill="midnightblue" stroke="midnightblue" points="2152.32,-29.34 2143.36,-23.69 2146.84,-33.69 2152.32,-29.34"/>
</g>
<!-- Node26&#45;&gt;Node27 -->
<g id="edge35" class="edge">
<title>Node26&#45;&gt;Node27</title>
<path fill="none" stroke="midnightblue" d="M2013.51,-187.93C2004.86,-185.31 1995.6,-182.53 1987,-180 1946.47,-168.08 1900.21,-154.94 1867,-145.6"/>
<polygon fill="midnightblue" stroke="midnightblue" points="1867.71,-142.16 1857.13,-142.82 1865.81,-148.9 1867.71,-142.16"/>
</g>
<!-- Node28 -->
<g id="node28" class="node">
<title>Node28</title>
<g id="a_node28"><a xlink:title=" ">
<polygon fill="white" stroke="#bfbfbf" points="1913.5,-120.5 1913.5,-143.5 1990.5,-143.5 1990.5,-120.5 1913.5,-120.5"/>
<text text-anchor="middle" x="1952" y="-128.3" font-family="Helvetica,sans-Serif" font-size="14.00">iostream</text>
</a>
</g>
</g>
<!-- Node26&#45;&gt;Node28 -->
<g id="edge36" class="edge">
<title>Node26&#45;&gt;Node28</title>
<path fill="none" stroke="midnightblue" d="M2032.58,-187.98C2017.41,-177.63 1994.03,-161.68 1976.35,-149.62"/>
<polygon fill="midnightblue" stroke="midnightblue" points="1977.94,-146.46 1967.7,-143.72 1973.99,-152.24 1977.94,-146.46"/>
</g>
<!-- Node29 -->
<g id="node29" class="node">
<title>Node29</title>
<g id="a_node29"><a xlink:title=" ">
<polygon fill="white" stroke="#bfbfbf" points="2009,-120.5 2009,-143.5 2077,-143.5 2077,-120.5 2009,-120.5"/>
<text text-anchor="middle" x="2043" y="-128.3" font-family="Helvetica,sans-Serif" font-size="14.00">istream</text>
</a>
</g>
</g>
<!-- Node26&#45;&gt;Node29 -->
<g id="edge37" class="edge">
<title>Node26&#45;&gt;Node29</title>
<path fill="none" stroke="midnightblue" d="M2047.2,-187.98C2046.49,-178.77 2045.45,-165.12 2044.58,-153.73"/>
<polygon fill="midnightblue" stroke="midnightblue" points="2048.07,-153.42 2043.82,-143.72 2041.09,-153.95 2048.07,-153.42"/>
</g>
<!-- Node26&#45;&gt;Node30 -->
<g id="edge38" class="edge">
<title>Node26&#45;&gt;Node30</title>
<path fill="none" stroke="midnightblue" d="M2083.51,-187.98C2125.46,-175.54 2194.73,-155.01 2235.7,-142.87"/>
<polygon fill="midnightblue" stroke="midnightblue" points="2236.88,-146.17 2245.47,-139.97 2234.89,-139.46 2236.88,-146.17"/>
</g>
<!-- Node31 -->
<g id="node31" class="node">
<title>Node31</title>
<g id="a_node31"><a xlink:title=" ">
<polygon fill="white" stroke="#bfbfbf" points="2095,-120.5 2095,-143.5 2151,-143.5 2151,-120.5 2095,-120.5"/>
<text text-anchor="middle" x="2123" y="-128.3" font-family="Helvetica,sans-Serif" font-size="14.00">regex</text>
</a>
</g>
</g>
<!-- Node26&#45;&gt;Node31 -->
<g id="edge39" class="edge">
<title>Node26&#45;&gt;Node31</title>
<path fill="none" stroke="midnightblue" d="M2060.05,-187.98C2071.57,-177.91 2089.16,-162.55 2102.82,-150.62"/>
<polygon fill="midnightblue" stroke="midnightblue" points="2105.5,-152.93 2110.73,-143.72 2100.9,-147.66 2105.5,-152.93"/>
</g>
</g>
</svg>
