<?xml version="1.0" encoding="UTF-8" standalone="no"?>
<!DOCTYPE svg PUBLIC "-//W3C//DTD SVG 1.1//EN"
 "http://www.w3.org/Graphics/SVG/1.1/DTD/svg11.dtd">
<!-- Generated by graphviz version 2.43.0 (0)
 -->
<!-- Title: cuEventRecord_params_st Pages: 1 -->
<svg width="207pt" height="122pt"
 viewBox="0.00 0.00 207.00 122.00" xmlns="http://www.w3.org/2000/svg" xmlns:xlink="http://www.w3.org/1999/xlink">
<g id="graph0" class="graph" transform="scale(1 1) rotate(0) translate(4 118)">
<title>cuEventRecord_params_st</title>
<polygon fill="white" stroke="transparent" points="-4,4 -4,-118 203,-118 203,4 -4,4"/>
<!-- Node1 -->
<g id="node1" class="node">
<title>Node1</title>
<g id="a_node1"><a xlink:title=" ">
<polygon fill="#bfbfbf" stroke="black" points="0,-0.5 0,-23.5 199,-23.5 199,-0.5 0,-0.5"/>
<text text-anchor="middle" x="99.5" y="-8.3" font-family="Helvetica,sans-Serif" font-size="14.00">cuEventRecord_params_st</text>
</a>
</g>
</g>
<!-- Node2 -->
<g id="node2" class="node">
<title>Node2</title>
<g id="a_node2"><a xlink:title=" ">
<polygon fill="white" stroke="#bfbfbf" points="71,-90.5 71,-113.5 128,-113.5 128,-90.5 71,-90.5"/>
<text text-anchor="middle" x="99.5" y="-98.3" font-family="Helvetica,sans-Serif" font-size="14.00">struct</text>
</a>
</g>
</g>
<!-- Node2&#45;&gt;Node1 -->
<g id="edge1" class="edge">
<title>Node2&#45;&gt;Node1</title>
<path fill="none" stroke="#9a32cd" stroke-dasharray="5,2" d="M99.5,-79.96C99.5,-62.2 99.5,-37.5 99.5,-23.6"/>
<polygon fill="#9a32cd" stroke="#9a32cd" points="96,-80.21 99.5,-90.21 103,-80.21 96,-80.21"/>
<text text-anchor="middle" x="129" y="-60.8" font-family="Helvetica,sans-Serif" font-size="14.00"> hEvent</text>
<text text-anchor="middle" x="129" y="-45.8" font-family="Helvetica,sans-Serif" font-size="14.00">hStream</text>
</g>
</g>
</svg>
