<?xml version="1.0" encoding="UTF-8" standalone="no"?>
<!DOCTYPE svg PUBLIC "-//W3C//DTD SVG 1.1//EN"
 "http://www.w3.org/Graphics/SVG/1.1/DTD/svg11.dtd">
<!-- Generated by graphviz version 2.43.0 (0)
 -->
<!-- Title: PPT&#45;GPU/llvm_tool/lib/registerPasses.cpp Pages: 1 -->
<svg width="1283pt" height="182pt"
 viewBox="0.00 0.00 1283.00 182.00" xmlns="http://www.w3.org/2000/svg" xmlns:xlink="http://www.w3.org/1999/xlink">
<g id="graph0" class="graph" transform="scale(1 1) rotate(0) translate(4 178)">
<title>PPT&#45;GPU/llvm_tool/lib/registerPasses.cpp</title>
<polygon fill="white" stroke="transparent" points="-4,4 -4,-178 1279,-178 1279,4 -4,4"/>
<!-- Node1 -->
<g id="node1" class="node">
<title>Node1</title>
<g id="a_node1"><a xlink:title=" ">
<polygon fill="#bfbfbf" stroke="black" points="457.5,-135.5 457.5,-173.5 619.5,-173.5 619.5,-135.5 457.5,-135.5"/>
<text text-anchor="start" x="465.5" y="-158.3" font-family="Helvetica,sans-Serif" font-size="14.00">PPT&#45;GPU/llvm_tool/lib</text>
<text text-anchor="middle" x="538.5" y="-143.3" font-family="Helvetica,sans-Serif" font-size="14.00">/registerPasses.cpp</text>
</a>
</g>
</g>
<!-- Node2 -->
<g id="node2" class="node">
<title>Node2</title>
<g id="a_node2"><a xlink:href="../../d0/d88/cudaFluxPasses_8h.html" target="_top" xlink:title=" ">
<polygon fill="white" stroke="black" points="369.5,-68 369.5,-91 509.5,-91 509.5,-68 369.5,-68"/>
<text text-anchor="middle" x="439.5" y="-75.8" font-family="Helvetica,sans-Serif" font-size="14.00">cudaFluxPasses.h</text>
</a>
</g>
</g>
<!-- Node1&#45;&gt;Node2 -->
<g id="edge1" class="edge">
<title>Node1&#45;&gt;Node2</title>
<path fill="none" stroke="midnightblue" d="M514.03,-135.46C498.23,-123.81 477.82,-108.76 462.36,-97.35"/>
<polygon fill="midnightblue" stroke="midnightblue" points="464.02,-94.23 453.89,-91.11 459.87,-99.87 464.02,-94.23"/>
</g>
<!-- Node5 -->
<g id="node5" class="node">
<title>Node5</title>
<g id="a_node5"><a xlink:title=" ">
<polygon fill="white" stroke="#bfbfbf" points="0,-0.5 0,-23.5 95,-23.5 95,-0.5 0,-0.5"/>
<text text-anchor="middle" x="47.5" y="-8.3" font-family="Helvetica,sans-Serif" font-size="14.00">llvm/Pass.h</text>
</a>
</g>
</g>
<!-- Node1&#45;&gt;Node5 -->
<g id="edge10" class="edge">
<title>Node1&#45;&gt;Node5</title>
<path fill="none" stroke="midnightblue" d="M475.57,-135.49C375.65,-106.9 182.98,-51.77 94.28,-26.39"/>
<polygon fill="midnightblue" stroke="midnightblue" points="95.08,-22.97 84.5,-23.59 93.15,-29.7 95.08,-22.97"/>
</g>
<!-- Node10 -->
<g id="node10" class="node">
<title>Node10</title>
<g id="a_node10"><a xlink:title=" ">
<polygon fill="white" stroke="#bfbfbf" points="528,-68 528,-91 749,-91 749,-68 528,-68"/>
<text text-anchor="middle" x="638.5" y="-75.8" font-family="Helvetica,sans-Serif" font-size="14.00">llvm/IR/LegacyPassManager.h</text>
</a>
</g>
</g>
<!-- Node1&#45;&gt;Node10 -->
<g id="edge9" class="edge">
<title>Node1&#45;&gt;Node10</title>
<path fill="none" stroke="midnightblue" d="M563.22,-135.46C579.32,-123.7 600.18,-108.48 615.85,-97.04"/>
<polygon fill="midnightblue" stroke="midnightblue" points="617.95,-99.84 623.96,-91.11 613.82,-94.18 617.95,-99.84"/>
</g>
<!-- Node11 -->
<g id="node11" class="node">
<title>Node11</title>
<g id="a_node11"><a xlink:title=" ">
<polygon fill="white" stroke="#bfbfbf" points="767.5,-60.5 767.5,-98.5 941.5,-98.5 941.5,-60.5 767.5,-60.5"/>
<text text-anchor="start" x="775.5" y="-83.3" font-family="Helvetica,sans-Serif" font-size="14.00">llvm/Transforms/IPO</text>
<text text-anchor="middle" x="854.5" y="-68.3" font-family="Helvetica,sans-Serif" font-size="14.00">/PassManagerBuilder.h</text>
</a>
</g>
</g>
<!-- Node1&#45;&gt;Node11 -->
<g id="edge11" class="edge">
<title>Node1&#45;&gt;Node11</title>
<path fill="none" stroke="midnightblue" d="M616.61,-135.46C662.09,-124.95 719.54,-111.68 766.59,-100.81"/>
<polygon fill="midnightblue" stroke="midnightblue" points="767.51,-104.19 776.47,-98.53 765.93,-97.37 767.51,-104.19"/>
</g>
<!-- Node3 -->
<g id="node3" class="node">
<title>Node3</title>
<g id="a_node3"><a xlink:title=" ">
<polygon fill="white" stroke="#bfbfbf" points="113,-0.5 113,-23.5 270,-23.5 270,-0.5 113,-0.5"/>
<text text-anchor="middle" x="191.5" y="-8.3" font-family="Helvetica,sans-Serif" font-size="14.00">llvm/IR/BasicBlock.h</text>
</a>
</g>
</g>
<!-- Node2&#45;&gt;Node3 -->
<g id="edge2" class="edge">
<title>Node2&#45;&gt;Node3</title>
<path fill="none" stroke="midnightblue" d="M399.65,-67.98C356.67,-56.62 288.13,-38.52 241.54,-26.22"/>
<polygon fill="midnightblue" stroke="midnightblue" points="242.22,-22.78 231.66,-23.61 240.43,-29.54 242.22,-22.78"/>
</g>
<!-- Node4 -->
<g id="node4" class="node">
<title>Node4</title>
<g id="a_node4"><a xlink:title=" ">
<polygon fill="white" stroke="#bfbfbf" points="288,-0.5 288,-23.5 421,-23.5 421,-0.5 288,-0.5"/>
<text text-anchor="middle" x="354.5" y="-8.3" font-family="Helvetica,sans-Serif" font-size="14.00">llvm/IR/Module.h</text>
</a>
</g>
</g>
<!-- Node2&#45;&gt;Node4 -->
<g id="edge3" class="edge">
<title>Node2&#45;&gt;Node4</title>
<path fill="none" stroke="midnightblue" d="M425.84,-67.98C412.54,-57.72 392.09,-41.97 376.5,-29.95"/>
<polygon fill="midnightblue" stroke="midnightblue" points="378.46,-27.05 368.41,-23.72 374.19,-32.59 378.46,-27.05"/>
</g>
<!-- Node2&#45;&gt;Node5 -->
<g id="edge4" class="edge">
<title>Node2&#45;&gt;Node5</title>
<path fill="none" stroke="midnightblue" d="M370.53,-68C304.79,-57.83 202.75,-41.65 105.17,-24.26"/>
<polygon fill="midnightblue" stroke="midnightblue" points="105.6,-20.78 95.14,-22.47 104.37,-27.68 105.6,-20.78"/>
</g>
<!-- Node6 -->
<g id="node6" class="node">
<title>Node6</title>
<g id="a_node6"><a xlink:title=" ">
<polygon fill="white" stroke="#bfbfbf" points="439.5,-0.5 439.5,-23.5 609.5,-23.5 609.5,-0.5 439.5,-0.5"/>
<text text-anchor="middle" x="524.5" y="-8.3" font-family="Helvetica,sans-Serif" font-size="14.00">llvm/Support/Debug.h</text>
</a>
</g>
</g>
<!-- Node2&#45;&gt;Node6 -->
<g id="edge5" class="edge">
<title>Node2&#45;&gt;Node6</title>
<path fill="none" stroke="midnightblue" d="M453.16,-67.98C466.46,-57.72 486.91,-41.97 502.5,-29.95"/>
<polygon fill="midnightblue" stroke="midnightblue" points="504.81,-32.59 510.59,-23.72 500.54,-27.05 504.81,-32.59"/>
</g>
<!-- Node7 -->
<g id="node7" class="node">
<title>Node7</title>
<g id="a_node7"><a xlink:title=" ">
<polygon fill="white" stroke="#bfbfbf" points="627.5,-0.5 627.5,-23.5 839.5,-23.5 839.5,-0.5 627.5,-0.5"/>
<text text-anchor="middle" x="733.5" y="-8.3" font-family="Helvetica,sans-Serif" font-size="14.00">llvm/Support/raw_ostream.h</text>
</a>
</g>
</g>
<!-- Node2&#45;&gt;Node7 -->
<g id="edge6" class="edge">
<title>Node2&#45;&gt;Node7</title>
<path fill="none" stroke="midnightblue" d="M484.75,-67.94C496.09,-65.32 508.24,-62.54 519.5,-60 571.89,-48.19 631.58,-35.11 674.59,-25.76"/>
<polygon fill="midnightblue" stroke="midnightblue" points="675.57,-29.12 684.59,-23.58 674.08,-22.28 675.57,-29.12"/>
</g>
<!-- Node8 -->
<g id="node8" class="node">
<title>Node8</title>
<g id="a_node8"><a xlink:title=" ">
<polygon fill="white" stroke="#bfbfbf" points="857,-0.5 857,-23.5 1060,-23.5 1060,-0.5 857,-0.5"/>
<text text-anchor="middle" x="958.5" y="-8.3" font-family="Helvetica,sans-Serif" font-size="14.00">llvm/Support/YAMLParser.h</text>
</a>
</g>
</g>
<!-- Node2&#45;&gt;Node8 -->
<g id="edge7" class="edge">
<title>Node2&#45;&gt;Node8</title>
<path fill="none" stroke="midnightblue" d="M480.83,-67.94C493.2,-65.05 506.85,-62.13 519.5,-60 550.97,-54.7 727.25,-36.41 846.63,-24.27"/>
<polygon fill="midnightblue" stroke="midnightblue" points="847.32,-27.72 856.92,-23.22 846.61,-20.75 847.32,-27.72"/>
</g>
<!-- Node9 -->
<g id="node9" class="node">
<title>Node9</title>
<g id="a_node9"><a xlink:title=" ">
<polygon fill="white" stroke="#bfbfbf" points="1078,-0.5 1078,-23.5 1275,-23.5 1275,-0.5 1078,-0.5"/>
<text text-anchor="middle" x="1176.5" y="-8.3" font-family="Helvetica,sans-Serif" font-size="14.00">llvm/Support/YAMLTraits.h</text>
</a>
</g>
</g>
<!-- Node2&#45;&gt;Node9 -->
<g id="edge8" class="edge">
<title>Node2&#45;&gt;Node9</title>
<path fill="none" stroke="midnightblue" d="M479.14,-68C491.94,-64.97 506.24,-61.95 519.5,-60 758.54,-24.78 823.62,-43.99 1067.73,-24.12"/>
<polygon fill="midnightblue" stroke="midnightblue" points="1068.3,-27.58 1077.98,-23.27 1067.73,-20.6 1068.3,-27.58"/>
</g>
</g>
</svg>
