<?xml version="1.0" encoding="UTF-8" standalone="no"?>
<!DOCTYPE svg PUBLIC "-//W3C//DTD SVG 1.1//EN"
 "http://www.w3.org/Graphics/SVG/1.1/DTD/svg11.dtd">
<!-- Generated by graphviz version 2.43.0 (0)
 -->
<!-- Title: simian.DuplicateKeyException Pages: 1 -->
<svg width="233pt" height="152pt"
 viewBox="0.00 0.00 233.00 152.00" xmlns="http://www.w3.org/2000/svg" xmlns:xlink="http://www.w3.org/1999/xlink">
<g id="graph0" class="graph" transform="scale(1 1) rotate(0) translate(4 148)">
<title>simian.DuplicateKeyException</title>
<polygon fill="white" stroke="transparent" points="-4,4 -4,-148 229,-148 229,4 -4,4"/>
<!-- Node1 -->
<g id="node1" class="node">
<title>Node1</title>
<g id="a_node1"><a xlink:title=" ">
<polygon fill="#bfbfbf" stroke="black" points="0,-0.5 0,-23.5 225,-23.5 225,-0.5 0,-0.5"/>
<text text-anchor="middle" x="112.5" y="-8.3" font-family="Helvetica,sans-Serif" font-size="14.00">simian.DuplicateKeyException</text>
</a>
</g>
</g>
<!-- Node2 -->
<g id="node2" class="node">
<title>Node2</title>
<g id="a_node2"><a xlink:href="../../d7/deb/classsimian_1_1UnpackException.html" target="_top" xlink:title=" ">
<polygon fill="white" stroke="black" points="18.5,-60.5 18.5,-83.5 206.5,-83.5 206.5,-60.5 18.5,-60.5"/>
<text text-anchor="middle" x="112.5" y="-68.3" font-family="Helvetica,sans-Serif" font-size="14.00">simian.UnpackException</text>
</a>
</g>
</g>
<!-- Node2&#45;&gt;Node1 -->
<g id="edge1" class="edge">
<title>Node2&#45;&gt;Node1</title>
<path fill="none" stroke="midnightblue" d="M112.5,-50.19C112.5,-41.17 112.5,-30.99 112.5,-23.57"/>
<polygon fill="midnightblue" stroke="midnightblue" points="109,-50.36 112.5,-60.36 116,-50.36 109,-50.36"/>
</g>
<!-- Node3 -->
<g id="node3" class="node">
<title>Node3</title>
<g id="a_node3"><a xlink:title=" ">
<polygon fill="white" stroke="#bfbfbf" points="70,-120.5 70,-143.5 155,-143.5 155,-120.5 70,-120.5"/>
<text text-anchor="middle" x="112.5" y="-128.3" font-family="Helvetica,sans-Serif" font-size="14.00">Exception</text>
</a>
</g>
</g>
<!-- Node3&#45;&gt;Node2 -->
<g id="edge2" class="edge">
<title>Node3&#45;&gt;Node2</title>
<path fill="none" stroke="midnightblue" d="M112.5,-110.19C112.5,-101.17 112.5,-90.99 112.5,-83.57"/>
<polygon fill="midnightblue" stroke="midnightblue" points="109,-110.36 112.5,-120.36 116,-110.36 109,-110.36"/>
</g>
</g>
</svg>
