<?xml version="1.0" encoding="UTF-8" standalone="no"?>
<!DOCTYPE svg PUBLIC "-//W3C//DTD SVG 1.1//EN"
 "http://www.w3.org/Graphics/SVG/1.1/DTD/svg11.dtd">
<!-- Generated by graphviz version 2.43.0 (0)
 -->
<!-- Title: PPT&#45;GPU/reuse_distance_tool/splay.c Pages: 1 -->
<svg width="191pt" height="167pt"
 viewBox="0.00 0.00 191.00 167.00" xmlns="http://www.w3.org/2000/svg" xmlns:xlink="http://www.w3.org/1999/xlink">
<g id="graph0" class="graph" transform="scale(1 1) rotate(0) translate(4 163)">
<title>PPT&#45;GPU/reuse_distance_tool/splay.c</title>
<polygon fill="white" stroke="transparent" points="-4,4 -4,-163 187,-163 187,4 -4,4"/>
<!-- Node1 -->
<g id="node1" class="node">
<title>Node1</title>
<g id="a_node1"><a xlink:title=" ">
<polygon fill="#bfbfbf" stroke="black" points="0,-120.5 0,-158.5 183,-158.5 183,-120.5 0,-120.5"/>
<text text-anchor="start" x="8" y="-143.3" font-family="Helvetica,sans-Serif" font-size="14.00">PPT&#45;GPU/reuse_distance</text>
<text text-anchor="middle" x="91.5" y="-128.3" font-family="Helvetica,sans-Serif" font-size="14.00">_tool/splay.c</text>
</a>
</g>
</g>
<!-- Node2 -->
<g id="node2" class="node">
<title>Node2</title>
<g id="a_node2"><a xlink:href="../../d2/db0/splay_8h.html" target="_top" xlink:title=" ">
<polygon fill="white" stroke="black" points="59,-60.5 59,-83.5 124,-83.5 124,-60.5 59,-60.5"/>
<text text-anchor="middle" x="91.5" y="-68.3" font-family="Helvetica,sans-Serif" font-size="14.00">splay.h</text>
</a>
</g>
</g>
<!-- Node1&#45;&gt;Node2 -->
<g id="edge1" class="edge">
<title>Node1&#45;&gt;Node2</title>
<path fill="none" stroke="midnightblue" d="M91.5,-120.25C91.5,-112.04 91.5,-102.31 91.5,-93.81"/>
<polygon fill="midnightblue" stroke="midnightblue" points="95,-93.59 91.5,-83.59 88,-93.59 95,-93.59"/>
</g>
<!-- Node3 -->
<g id="node3" class="node">
<title>Node3</title>
<g id="a_node3"><a xlink:title=" ">
<polygon fill="white" stroke="#bfbfbf" points="17.5,-0.5 17.5,-23.5 81.5,-23.5 81.5,-0.5 17.5,-0.5"/>
<text text-anchor="middle" x="49.5" y="-8.3" font-family="Helvetica,sans-Serif" font-size="14.00">stdio.h</text>
</a>
</g>
</g>
<!-- Node2&#45;&gt;Node3 -->
<g id="edge2" class="edge">
<title>Node2&#45;&gt;Node3</title>
<path fill="none" stroke="midnightblue" d="M83.8,-60.36C78.05,-52.43 70.06,-41.39 63.23,-31.96"/>
<polygon fill="midnightblue" stroke="midnightblue" points="65.85,-29.62 57.15,-23.57 60.18,-33.72 65.85,-29.62"/>
</g>
<!-- Node4 -->
<g id="node4" class="node">
<title>Node4</title>
<g id="a_node4"><a xlink:title=" ">
<polygon fill="white" stroke="#bfbfbf" points="99.5,-0.5 99.5,-23.5 167.5,-23.5 167.5,-0.5 99.5,-0.5"/>
<text text-anchor="middle" x="133.5" y="-8.3" font-family="Helvetica,sans-Serif" font-size="14.00">stdlib.h</text>
</a>
</g>
</g>
<!-- Node2&#45;&gt;Node4 -->
<g id="edge3" class="edge">
<title>Node2&#45;&gt;Node4</title>
<path fill="none" stroke="midnightblue" d="M99.2,-60.36C104.95,-52.43 112.94,-41.39 119.77,-31.96"/>
<polygon fill="midnightblue" stroke="midnightblue" points="122.82,-33.72 125.85,-23.57 117.15,-29.62 122.82,-33.72"/>
</g>
</g>
</svg>
