<?xml version="1.0" encoding="UTF-8" standalone="no"?>
<!DOCTYPE svg PUBLIC "-//W3C//DTD SVG 1.1//EN"
 "http://www.w3.org/Graphics/SVG/1.1/DTD/svg11.dtd">
<!-- Generated by graphviz version 2.43.0 (0)
 -->
<!-- Title: simian.Simian.fossilCollect Pages: 1 -->
<svg width="598pt" height="32pt"
 viewBox="0.00 0.00 598.00 32.00" xmlns="http://www.w3.org/2000/svg" xmlns:xlink="http://www.w3.org/1999/xlink">
<g id="graph0" class="graph" transform="scale(1 1) rotate(0) translate(4 28)">
<title>simian.Simian.fossilCollect</title>
<polygon fill="white" stroke="transparent" points="-4,4 -4,-28 594,-28 594,4 -4,4"/>
<!-- Node1 -->
<g id="node1" class="node">
<title>Node1</title>
<g id="a_node1"><a xlink:title=" ">
<polygon fill="#bfbfbf" stroke="black" points="389,-0.5 389,-23.5 590,-23.5 590,-0.5 389,-0.5"/>
<text text-anchor="middle" x="489.5" y="-8.3" font-family="Helvetica,sans-Serif" font-size="14.00">simian.Simian.fossilCollect</text>
</a>
</g>
</g>
<!-- Node2 -->
<g id="node2" class="node">
<title>Node2</title>
<g id="a_node2"><a xlink:href="../../df/d7a/classsimian_1_1Simian.html#ab18ef87741fe5b92928e27dd03f494b2" target="_top" xlink:title=" ">
<polygon fill="white" stroke="black" points="179,-0.5 179,-23.5 353,-23.5 353,-0.5 179,-0.5"/>
<text text-anchor="middle" x="266" y="-8.3" font-family="Helvetica,sans-Serif" font-size="14.00">simian.Simian.calcGVT</text>
</a>
</g>
</g>
<!-- Node1&#45;&gt;Node2 -->
<g id="edge1" class="edge">
<title>Node1&#45;&gt;Node2</title>
<path fill="none" stroke="midnightblue" d="M378.76,-12C370.22,-12 361.67,-12 353.32,-12"/>
<polygon fill="midnightblue" stroke="midnightblue" points="378.77,-15.5 388.77,-12 378.77,-8.5 378.77,-15.5"/>
</g>
<!-- Node3 -->
<g id="node3" class="node">
<title>Node3</title>
<g id="a_node3"><a xlink:href="../../df/d7a/classsimian_1_1Simian.html#a22ae19f2746cde70f9b4d1adacdd602f" target="_top" xlink:title=" ">
<polygon fill="white" stroke="black" points="0,-0.5 0,-23.5 143,-23.5 143,-0.5 0,-0.5"/>
<text text-anchor="middle" x="71.5" y="-8.3" font-family="Helvetica,sans-Serif" font-size="14.00">simian.Simian.run</text>
</a>
</g>
</g>
<!-- Node2&#45;&gt;Node3 -->
<g id="edge2" class="edge">
<title>Node2&#45;&gt;Node3</title>
<path fill="none" stroke="midnightblue" d="M168.8,-12C160.2,-12 151.59,-12 143.26,-12"/>
<polygon fill="midnightblue" stroke="midnightblue" points="168.88,-15.5 178.88,-12 168.88,-8.5 168.88,-15.5"/>
</g>
</g>
</svg>
