<?xml version="1.0" encoding="UTF-8" standalone="no"?>
<!DOCTYPE svg PUBLIC "-//W3C//DTD SVG 1.1//EN"
 "http://www.w3.org/Graphics/SVG/1.1/DTD/svg11.dtd">
<!-- Generated by graphviz version 2.43.0 (0)
 -->
<!-- Title: simian.Simian.addEntity Pages: 1 -->
<svg width="447pt" height="74pt"
 viewBox="0.00 0.00 447.00 74.00" xmlns="http://www.w3.org/2000/svg" xmlns:xlink="http://www.w3.org/1999/xlink">
<g id="graph0" class="graph" transform="scale(1 1) rotate(0) translate(4 70)">
<title>simian.Simian.addEntity</title>
<polygon fill="white" stroke="transparent" points="-4,4 -4,-70 443,-70 443,4 -4,4"/>
<!-- Node1 -->
<g id="node1" class="node">
<title>Node1</title>
<g id="a_node1"><a xlink:title=" ">
<polygon fill="#bfbfbf" stroke="black" points="0,-21.5 0,-44.5 185,-44.5 185,-21.5 0,-21.5"/>
<text text-anchor="middle" x="92.5" y="-29.3" font-family="Helvetica,sans-Serif" font-size="14.00">simian.Simian.addEntity</text>
</a>
</g>
</g>
<!-- Node2 -->
<g id="node2" class="node">
<title>Node2</title>
<g id="a_node2"><a xlink:href="../../df/d7a/classsimian_1_1Simian.html#a48c8c99599ff7ceb93c7930f52f4d764" target="_top" xlink:title=" ">
<polygon fill="white" stroke="black" points="225,-42.5 225,-65.5 435,-65.5 435,-42.5 225,-42.5"/>
<text text-anchor="middle" x="330" y="-50.3" font-family="Helvetica,sans-Serif" font-size="14.00">simian.Simian.getBaseRank</text>
</a>
</g>
</g>
<!-- Node1&#45;&gt;Node2 -->
<g id="edge1" class="edge">
<title>Node1&#45;&gt;Node2</title>
<path fill="none" stroke="midnightblue" d="M185.22,-41.18C194.81,-42.03 204.64,-42.91 214.44,-43.78"/>
<polygon fill="midnightblue" stroke="midnightblue" points="214.35,-47.29 224.62,-44.69 214.97,-40.32 214.35,-47.29"/>
</g>
<!-- Node3 -->
<g id="node3" class="node">
<title>Node3</title>
<g id="a_node3"><a xlink:href="../../df/d7a/classsimian_1_1Simian.html#a4082cdef9ad0dd62ce0ede7b345bc55e" target="_top" xlink:title=" ">
<polygon fill="white" stroke="black" points="221,-0.5 221,-23.5 439,-23.5 439,-0.5 221,-0.5"/>
<text text-anchor="middle" x="330" y="-8.3" font-family="Helvetica,sans-Serif" font-size="14.00">simian.Simian.getOffsetRank</text>
</a>
</g>
</g>
<!-- Node1&#45;&gt;Node3 -->
<g id="edge2" class="edge">
<title>Node1&#45;&gt;Node3</title>
<path fill="none" stroke="midnightblue" d="M185.22,-24.82C193.58,-24.08 202.12,-23.31 210.66,-22.55"/>
<polygon fill="midnightblue" stroke="midnightblue" points="211.03,-26.03 220.68,-21.66 210.41,-19.06 211.03,-26.03"/>
</g>
</g>
</svg>
