<?xml version="1.0" encoding="UTF-8" standalone="no"?>
<!DOCTYPE svg PUBLIC "-//W3C//DTD SVG 1.1//EN"
 "http://www.w3.org/Graphics/SVG/1.1/DTD/svg11.dtd">
<!-- Generated by graphviz version 2.43.0 (0)
 -->
<!-- Title: simian.Simian.processNextEvent Pages: 1 -->
<svg width="458pt" height="74pt"
 viewBox="0.00 0.00 458.00 74.00" xmlns="http://www.w3.org/2000/svg" xmlns:xlink="http://www.w3.org/1999/xlink">
<g id="graph0" class="graph" transform="scale(1 1) rotate(0) translate(4 70)">
<title>simian.Simian.processNextEvent</title>
<polygon fill="white" stroke="transparent" points="-4,4 -4,-70 454,-70 454,4 -4,4"/>
<!-- Node1 -->
<g id="node1" class="node">
<title>Node1</title>
<g id="a_node1"><a xlink:title=" ">
<polygon fill="#bfbfbf" stroke="black" points="0,-14 0,-52 204,-52 204,-14 0,-14"/>
<text text-anchor="start" x="8" y="-36.8" font-family="Helvetica,sans-Serif" font-size="14.00">simian.Simian.processNext</text>
<text text-anchor="middle" x="102" y="-21.8" font-family="Helvetica,sans-Serif" font-size="14.00">Event</text>
</a>
</g>
</g>
<!-- Node2 -->
<g id="node2" class="node">
<title>Node2</title>
<g id="a_node2"><a xlink:href="../../df/d7a/classsimian_1_1Simian.html#a58e691931cc6633da9b92b4055a3b860" target="_top" xlink:title=" ">
<polygon fill="white" stroke="black" points="240,-42.5 240,-65.5 450,-65.5 450,-42.5 240,-42.5"/>
<text text-anchor="middle" x="345" y="-50.3" font-family="Helvetica,sans-Serif" font-size="14.00">simian.Simian.cancelEvents</text>
</a>
</g>
</g>
<!-- Node1&#45;&gt;Node2 -->
<g id="edge1" class="edge">
<title>Node1&#45;&gt;Node2</title>
<path fill="none" stroke="midnightblue" d="M204.16,-41.81C212.58,-42.55 221.14,-43.29 229.65,-44.04"/>
<polygon fill="midnightblue" stroke="midnightblue" points="229.35,-47.52 239.62,-44.9 229.96,-40.55 229.35,-47.52"/>
</g>
<!-- Node3 -->
<g id="node3" class="node">
<title>Node3</title>
<g id="a_node3"><a xlink:href="../../df/d7a/classsimian_1_1Simian.html#a19dc844886ec4616990c17eb22e43508" target="_top" xlink:title=" ">
<polygon fill="white" stroke="black" points="258.5,-0.5 258.5,-23.5 431.5,-23.5 431.5,-0.5 258.5,-0.5"/>
<text text-anchor="middle" x="345" y="-8.3" font-family="Helvetica,sans-Serif" font-size="14.00">simian.Simian.rollback</text>
</a>
</g>
</g>
<!-- Node1&#45;&gt;Node3 -->
<g id="edge2" class="edge">
<title>Node1&#45;&gt;Node3</title>
<path fill="none" stroke="midnightblue" d="M204.16,-24.19C218.81,-22.91 233.85,-21.6 248.39,-20.33"/>
<polygon fill="midnightblue" stroke="midnightblue" points="248.71,-23.82 258.37,-19.46 248.1,-16.84 248.71,-23.82"/>
</g>
</g>
</svg>
