<?xml version="1.0" encoding="UTF-8" standalone="no"?>
<!DOCTYPE svg PUBLIC "-//W3C//DTD SVG 1.1//EN"
 "http://www.w3.org/Graphics/SVG/1.1/DTD/svg11.dtd">
<!-- Generated by graphviz version 2.43.0 (0)
 -->
<!-- Title: simian.Simian.run Pages: 1 -->
<svg width="637pt" height="145pt"
 viewBox="0.00 0.00 637.00 145.00" xmlns="http://www.w3.org/2000/svg" xmlns:xlink="http://www.w3.org/1999/xlink">
<g id="graph0" class="graph" transform="scale(1 1) rotate(0) translate(4 141)">
<title>simian.Simian.run</title>
<polygon fill="white" stroke="transparent" points="-4,4 -4,-141 633,-141 633,4 -4,4"/>
<!-- Node1 -->
<g id="node1" class="node">
<title>Node1</title>
<g id="a_node1"><a xlink:title=" ">
<polygon fill="#bfbfbf" stroke="black" points="0,-71.5 0,-94.5 143,-94.5 143,-71.5 0,-71.5"/>
<text text-anchor="middle" x="71.5" y="-79.3" font-family="Helvetica,sans-Serif" font-size="14.00">simian.Simian.run</text>
</a>
</g>
</g>
<!-- Node2 -->
<g id="node2" class="node">
<title>Node2</title>
<g id="a_node2"><a xlink:href="../../df/d7a/classsimian_1_1Simian.html#ab18ef87741fe5b92928e27dd03f494b2" target="_top" xlink:title=" ">
<polygon fill="white" stroke="black" points="194,-113.5 194,-136.5 368,-136.5 368,-113.5 194,-113.5"/>
<text text-anchor="middle" x="281" y="-121.3" font-family="Helvetica,sans-Serif" font-size="14.00">simian.Simian.calcGVT</text>
</a>
</g>
</g>
<!-- Node1&#45;&gt;Node2 -->
<g id="edge1" class="edge">
<title>Node1&#45;&gt;Node2</title>
<path fill="none" stroke="midnightblue" d="M129.47,-94.53C155.33,-99.76 186.08,-105.99 213.03,-111.44"/>
<polygon fill="midnightblue" stroke="midnightblue" points="212.66,-114.94 223.15,-113.49 214.05,-108.08 212.66,-114.94"/>
</g>
<!-- Node4 -->
<g id="node4" class="node">
<title>Node4</title>
<g id="a_node4"><a xlink:href="../../df/d7a/classsimian_1_1Simian.html#adfb5669ef76ba5588ad601863ae53e47" target="_top" xlink:title=" ">
<polygon fill="white" stroke="black" points="185,-71.5 185,-94.5 377,-94.5 377,-71.5 185,-71.5"/>
<text text-anchor="middle" x="281" y="-79.3" font-family="Helvetica,sans-Serif" font-size="14.00">simian.Simian.kickoffGVT</text>
</a>
</g>
</g>
<!-- Node1&#45;&gt;Node4 -->
<g id="edge3" class="edge">
<title>Node1&#45;&gt;Node4</title>
<path fill="none" stroke="midnightblue" d="M143.04,-83C153.19,-83 163.81,-83 174.46,-83"/>
<polygon fill="midnightblue" stroke="midnightblue" points="174.67,-86.5 184.67,-83 174.67,-79.5 174.67,-86.5"/>
</g>
<!-- Node5 -->
<g id="node5" class="node">
<title>Node5</title>
<g id="a_node5"><a xlink:href="../../df/d7a/classsimian_1_1Simian.html#a65f57282628f9ddceab096deb8997a89" target="_top" xlink:title=" ">
<polygon fill="white" stroke="black" points="179,-14 179,-52 383,-52 383,-14 179,-14"/>
<text text-anchor="start" x="187" y="-36.8" font-family="Helvetica,sans-Serif" font-size="14.00">simian.Simian.processNext</text>
<text text-anchor="middle" x="281" y="-21.8" font-family="Helvetica,sans-Serif" font-size="14.00">Event</text>
</a>
</g>
</g>
<!-- Node1&#45;&gt;Node5 -->
<g id="edge4" class="edge">
<title>Node1&#45;&gt;Node5</title>
<path fill="none" stroke="midnightblue" d="M120.37,-71.47C141.4,-66.4 166.81,-60.27 191.11,-54.42"/>
<polygon fill="midnightblue" stroke="midnightblue" points="192.18,-57.76 201.08,-52.02 190.54,-50.96 192.18,-57.76"/>
</g>
<!-- Node3 -->
<g id="node3" class="node">
<title>Node3</title>
<g id="a_node3"><a xlink:href="../../df/d7a/classsimian_1_1Simian.html#a7e5cef16702b702813c7707e589f9b6f" target="_top" xlink:title=" ">
<polygon fill="white" stroke="black" points="423.5,-113.5 423.5,-136.5 624.5,-136.5 624.5,-113.5 423.5,-113.5"/>
<text text-anchor="middle" x="524" y="-121.3" font-family="Helvetica,sans-Serif" font-size="14.00">simian.Simian.fossilCollect</text>
</a>
</g>
</g>
<!-- Node2&#45;&gt;Node3 -->
<g id="edge2" class="edge">
<title>Node2&#45;&gt;Node3</title>
<path fill="none" stroke="midnightblue" d="M368.33,-125C382.81,-125 398.02,-125 413,-125"/>
<polygon fill="midnightblue" stroke="midnightblue" points="413.33,-128.5 423.33,-125 413.33,-121.5 413.33,-128.5"/>
</g>
<!-- Node6 -->
<g id="node6" class="node">
<title>Node6</title>
<g id="a_node6"><a xlink:href="../../df/d7a/classsimian_1_1Simian.html#a58e691931cc6633da9b92b4055a3b860" target="_top" xlink:title=" ">
<polygon fill="white" stroke="black" points="419,-42.5 419,-65.5 629,-65.5 629,-42.5 419,-42.5"/>
<text text-anchor="middle" x="524" y="-50.3" font-family="Helvetica,sans-Serif" font-size="14.00">simian.Simian.cancelEvents</text>
</a>
</g>
</g>
<!-- Node5&#45;&gt;Node6 -->
<g id="edge5" class="edge">
<title>Node5&#45;&gt;Node6</title>
<path fill="none" stroke="midnightblue" d="M383.16,-41.81C391.58,-42.55 400.14,-43.29 408.65,-44.04"/>
<polygon fill="midnightblue" stroke="midnightblue" points="408.35,-47.52 418.62,-44.9 408.96,-40.55 408.35,-47.52"/>
</g>
<!-- Node7 -->
<g id="node7" class="node">
<title>Node7</title>
<g id="a_node7"><a xlink:href="../../df/d7a/classsimian_1_1Simian.html#a19dc844886ec4616990c17eb22e43508" target="_top" xlink:title=" ">
<polygon fill="white" stroke="black" points="437.5,-0.5 437.5,-23.5 610.5,-23.5 610.5,-0.5 437.5,-0.5"/>
<text text-anchor="middle" x="524" y="-8.3" font-family="Helvetica,sans-Serif" font-size="14.00">simian.Simian.rollback</text>
</a>
</g>
</g>
<!-- Node5&#45;&gt;Node7 -->
<g id="edge6" class="edge">
<title>Node5&#45;&gt;Node7</title>
<path fill="none" stroke="midnightblue" d="M383.16,-24.19C397.81,-22.91 412.85,-21.6 427.39,-20.33"/>
<polygon fill="midnightblue" stroke="midnightblue" points="427.71,-23.82 437.37,-19.46 427.1,-16.84 427.71,-23.82"/>
</g>
</g>
</svg>
