<?xml version="1.0" encoding="UTF-8" standalone="no"?>
<!DOCTYPE svg PUBLIC "-//W3C//DTD SVG 1.1//EN"
 "http://www.w3.org/Graphics/SVG/1.1/DTD/svg11.dtd">
<!-- Generated by graphviz version 2.43.0 (0)
 -->
<!-- Title: simian.Simian.cancelEvents Pages: 1 -->
<svg width="637pt" height="47pt"
 viewBox="0.00 0.00 637.00 47.00" xmlns="http://www.w3.org/2000/svg" xmlns:xlink="http://www.w3.org/1999/xlink">
<g id="graph0" class="graph" transform="scale(1 1) rotate(0) translate(4 43)">
<title>simian.Simian.cancelEvents</title>
<polygon fill="white" stroke="transparent" points="-4,4 -4,-43 633,-43 633,4 -4,4"/>
<!-- Node1 -->
<g id="node1" class="node">
<title>Node1</title>
<g id="a_node1"><a xlink:title=" ">
<polygon fill="#bfbfbf" stroke="black" points="419,-8 419,-31 629,-31 629,-8 419,-8"/>
<text text-anchor="middle" x="524" y="-15.8" font-family="Helvetica,sans-Serif" font-size="14.00">simian.Simian.cancelEvents</text>
</a>
</g>
</g>
<!-- Node2 -->
<g id="node2" class="node">
<title>Node2</title>
<g id="a_node2"><a xlink:href="../../df/d7a/classsimian_1_1Simian.html#a65f57282628f9ddceab096deb8997a89" target="_top" xlink:title=" ">
<polygon fill="white" stroke="black" points="179,-0.5 179,-38.5 383,-38.5 383,-0.5 179,-0.5"/>
<text text-anchor="start" x="187" y="-23.3" font-family="Helvetica,sans-Serif" font-size="14.00">simian.Simian.processNext</text>
<text text-anchor="middle" x="281" y="-8.3" font-family="Helvetica,sans-Serif" font-size="14.00">Event</text>
</a>
</g>
</g>
<!-- Node1&#45;&gt;Node2 -->
<g id="edge1" class="edge">
<title>Node1&#45;&gt;Node2</title>
<path fill="none" stroke="midnightblue" d="M408.67,-19.5C400.11,-19.5 391.51,-19.5 383.03,-19.5"/>
<polygon fill="midnightblue" stroke="midnightblue" points="408.7,-23 418.7,-19.5 408.7,-16 408.7,-23"/>
</g>
<!-- Node3 -->
<g id="node3" class="node">
<title>Node3</title>
<g id="a_node3"><a xlink:href="../../df/d7a/classsimian_1_1Simian.html#a22ae19f2746cde70f9b4d1adacdd602f" target="_top" xlink:title=" ">
<polygon fill="white" stroke="black" points="0,-8 0,-31 143,-31 143,-8 0,-8"/>
<text text-anchor="middle" x="71.5" y="-15.8" font-family="Helvetica,sans-Serif" font-size="14.00">simian.Simian.run</text>
</a>
</g>
</g>
<!-- Node2&#45;&gt;Node3 -->
<g id="edge2" class="edge">
<title>Node2&#45;&gt;Node3</title>
<path fill="none" stroke="midnightblue" d="M168.73,-19.5C160,-19.5 151.35,-19.5 143.02,-19.5"/>
<polygon fill="midnightblue" stroke="midnightblue" points="168.99,-23 178.99,-19.5 168.99,-16 168.99,-23"/>
</g>
</g>
</svg>
