<?xml version="1.0" encoding="UTF-8" standalone="no"?>
<!DOCTYPE svg PUBLIC "-//W3C//DTD SVG 1.1//EN"
 "http://www.w3.org/Graphics/SVG/1.1/DTD/svg11.dtd">
<!-- Generated by graphviz version 2.43.0 (0)
 -->
<!-- Title: simian.Simian.getOffsetRank Pages: 1 -->
<svg width="473pt" height="74pt"
 viewBox="0.00 0.00 473.00 74.00" xmlns="http://www.w3.org/2000/svg" xmlns:xlink="http://www.w3.org/1999/xlink">
<g id="graph0" class="graph" transform="scale(1 1) rotate(0) translate(4 70)">
<title>simian.Simian.getOffsetRank</title>
<polygon fill="white" stroke="transparent" points="-4,4 -4,-70 469,-70 469,4 -4,4"/>
<!-- Node1 -->
<g id="node1" class="node">
<title>Node1</title>
<g id="a_node1"><a xlink:title=" ">
<polygon fill="#bfbfbf" stroke="black" points="247,-21.5 247,-44.5 465,-44.5 465,-21.5 247,-21.5"/>
<text text-anchor="middle" x="356" y="-29.3" font-family="Helvetica,sans-Serif" font-size="14.00">simian.Simian.getOffsetRank</text>
</a>
</g>
</g>
<!-- Node2 -->
<g id="node2" class="node">
<title>Node2</title>
<g id="a_node2"><a xlink:href="../../df/d7a/classsimian_1_1Simian.html#a87b2ec2796071bb721e6add44a65aae3" target="_top" xlink:title=" ">
<polygon fill="white" stroke="black" points="13,-42.5 13,-65.5 198,-65.5 198,-42.5 13,-42.5"/>
<text text-anchor="middle" x="105.5" y="-50.3" font-family="Helvetica,sans-Serif" font-size="14.00">simian.Simian.addEntity</text>
</a>
</g>
</g>
<!-- Node1&#45;&gt;Node2 -->
<g id="edge1" class="edge">
<title>Node1&#45;&gt;Node2</title>
<path fill="none" stroke="midnightblue" d="M236.43,-43.02C223.54,-44.11 210.58,-45.2 198.09,-46.26"/>
<polygon fill="midnightblue" stroke="midnightblue" points="237.06,-46.48 246.73,-42.15 236.47,-39.5 237.06,-46.48"/>
</g>
<!-- Node3 -->
<g id="node3" class="node">
<title>Node3</title>
<g id="a_node3"><a xlink:href="../../df/d7a/classsimian_1_1Simian.html#ac7560d8d642084bd1047ee9cee947fe6" target="_top" xlink:title=" ">
<polygon fill="white" stroke="black" points="0,-0.5 0,-23.5 211,-23.5 211,-0.5 0,-0.5"/>
<text text-anchor="middle" x="105.5" y="-8.3" font-family="Helvetica,sans-Serif" font-size="14.00">simian.Simian.schedService</text>
</a>
</g>
</g>
<!-- Node1&#45;&gt;Node3 -->
<g id="edge2" class="edge">
<title>Node1&#45;&gt;Node3</title>
<path fill="none" stroke="midnightblue" d="M236.76,-23.01C228.24,-22.29 219.69,-21.57 211.26,-20.85"/>
<polygon fill="midnightblue" stroke="midnightblue" points="236.47,-26.5 246.73,-23.85 237.06,-19.52 236.47,-26.5"/>
</g>
</g>
</svg>
