<?xml version="1.0" encoding="UTF-8" standalone="no"?>
<!DOCTYPE svg PUBLIC "-//W3C//DTD SVG 1.1//EN"
 "http://www.w3.org/Graphics/SVG/1.1/DTD/svg11.dtd">
<!-- Generated by graphviz version 2.43.0 (0)
 -->
<!-- Title: PPT&#45;GPU/tracing_tool/nvbit/cuda.h Pages: 1 -->
<svg width="232pt" height="212pt"
 viewBox="0.00 0.00 232.00 212.00" xmlns="http://www.w3.org/2000/svg" xmlns:xlink="http://www.w3.org/1999/xlink">
<g id="graph0" class="graph" transform="scale(1 1) rotate(0) translate(4 208)">
<title>PPT&#45;GPU/tracing_tool/nvbit/cuda.h</title>
<polygon fill="white" stroke="transparent" points="-4,4 -4,-208 228,-208 228,4 -4,4"/>
<!-- Node1 -->
<g id="node1" class="node">
<title>Node1</title>
<g id="a_node1"><a xlink:title="Header file for the CUDA Toolkit application programming interface.">
<polygon fill="#bfbfbf" stroke="black" points="63,-165.5 63,-203.5 224,-203.5 224,-165.5 63,-165.5"/>
<text text-anchor="start" x="71" y="-188.3" font-family="Helvetica,sans-Serif" font-size="14.00">PPT&#45;GPU/tracing_tool</text>
<text text-anchor="middle" x="143.5" y="-173.3" font-family="Helvetica,sans-Serif" font-size="14.00">/nvbit/cuda.h</text>
</a>
</g>
</g>
<!-- Node2 -->
<g id="node2" class="node">
<title>Node2</title>
<g id="a_node2"><a xlink:href="../../d8/d58/generated__cuda__meta_8h.html" target="_top" xlink:title=" ">
<polygon fill="white" stroke="black" points="0,-75.5 0,-128.5 173,-128.5 173,-75.5 0,-75.5"/>
<text text-anchor="start" x="8" y="-113.3" font-family="Helvetica,sans-Serif" font-size="14.00">PPT&#45;GPU/tracing_tool</text>
<text text-anchor="start" x="8" y="-98.3" font-family="Helvetica,sans-Serif" font-size="14.00">/nvbit/generated_cuda</text>
<text text-anchor="middle" x="86.5" y="-83.3" font-family="Helvetica,sans-Serif" font-size="14.00">_meta.h</text>
</a>
</g>
</g>
<!-- Node1&#45;&gt;Node2 -->
<g id="edge1" class="edge">
<title>Node1&#45;&gt;Node2</title>
<path fill="none" stroke="midnightblue" d="M124.65,-156.88C118.18,-147.75 110.97,-137.56 104.57,-128.52"/>
<polygon fill="midnightblue" stroke="midnightblue" points="121.93,-159.09 130.57,-165.23 127.64,-155.05 121.93,-159.09"/>
</g>
<!-- Node3 -->
<g id="node3" class="node">
<title>Node3</title>
<g id="a_node3"><a xlink:href="../../d4/d49/nvbit_8h.html" target="_top" xlink:title=" ">
<polygon fill="white" stroke="black" points="63,-0.5 63,-38.5 224,-38.5 224,-0.5 63,-0.5"/>
<text text-anchor="start" x="71" y="-23.3" font-family="Helvetica,sans-Serif" font-size="14.00">PPT&#45;GPU/tracing_tool</text>
<text text-anchor="middle" x="143.5" y="-8.3" font-family="Helvetica,sans-Serif" font-size="14.00">/nvbit/nvbit.h</text>
</a>
</g>
</g>
<!-- Node1&#45;&gt;Node3 -->
<g id="edge3" class="edge">
<title>Node1&#45;&gt;Node3</title>
<path fill="none" stroke="midnightblue" d="M167.08,-157.47C173.34,-148.99 179.25,-139.14 182.5,-129 189.83,-106.15 189.83,-97.85 182.5,-75 178.16,-61.48 169.1,-48.47 160.8,-38.56"/>
<polygon fill="midnightblue" stroke="midnightblue" points="164.24,-155.42 160.8,-165.44 169.74,-159.75 164.24,-155.42"/>
</g>
<!-- Node2&#45;&gt;Node3 -->
<g id="edge2" class="edge">
<title>Node2&#45;&gt;Node3</title>
<path fill="none" stroke="midnightblue" d="M110.68,-66.86C117.45,-57.29 124.56,-47.25 130.42,-38.97"/>
<polygon fill="midnightblue" stroke="midnightblue" points="107.77,-64.9 104.85,-75.09 113.48,-68.95 107.77,-64.9"/>
</g>
</g>
</svg>
