<?xml version="1.0" encoding="UTF-8" standalone="no"?>
<!DOCTYPE svg PUBLIC "-//W3C//DTD SVG 1.1//EN"
 "http://www.w3.org/Graphics/SVG/1.1/DTD/svg11.dtd">
<!-- Generated by graphviz version 2.43.0 (0)
 -->
<!-- Title: PPT&#45;GPU/llvm_tool/mekong&#45;utils/src/DeviceUtils.cpp Pages: 1 -->
<svg width="744pt" height="182pt"
 viewBox="0.00 0.00 743.50 182.00" xmlns="http://www.w3.org/2000/svg" xmlns:xlink="http://www.w3.org/1999/xlink">
<g id="graph0" class="graph" transform="scale(1 1) rotate(0) translate(4 178)">
<title>PPT&#45;GPU/llvm_tool/mekong&#45;utils/src/DeviceUtils.cpp</title>
<polygon fill="white" stroke="transparent" points="-4,4 -4,-178 739.5,-178 739.5,4 -4,4"/>
<!-- Node1 -->
<g id="node1" class="node">
<title>Node1</title>
<g id="a_node1"><a xlink:title=" ">
<polygon fill="#bfbfbf" stroke="black" points="243.5,-135.5 243.5,-173.5 444.5,-173.5 444.5,-135.5 243.5,-135.5"/>
<text text-anchor="start" x="251.5" y="-158.3" font-family="Helvetica,sans-Serif" font-size="14.00">PPT&#45;GPU/llvm_tool/mekong</text>
<text text-anchor="middle" x="344" y="-143.3" font-family="Helvetica,sans-Serif" font-size="14.00">&#45;utils/src/DeviceUtils.cpp</text>
</a>
</g>
</g>
<!-- Node2 -->
<g id="node2" class="node">
<title>Node2</title>
<g id="a_node2"><a xlink:href="../../d3/dee/DeviceUtils_8h.html" target="_top" xlink:title=" ">
<polygon fill="white" stroke="black" points="33.5,-68 33.5,-91 140.5,-91 140.5,-68 33.5,-68"/>
<text text-anchor="middle" x="87" y="-75.8" font-family="Helvetica,sans-Serif" font-size="14.00">DeviceUtils.h</text>
</a>
</g>
</g>
<!-- Node1&#45;&gt;Node2 -->
<g id="edge1" class="edge">
<title>Node1&#45;&gt;Node2</title>
<path fill="none" stroke="midnightblue" d="M278.84,-135.4C241.16,-124.88 192.87,-111.32 150,-99 144.31,-97.37 138.35,-95.64 132.44,-93.91"/>
<polygon fill="midnightblue" stroke="midnightblue" points="133.21,-90.49 122.63,-91.04 131.24,-97.21 133.21,-90.49"/>
</g>
<!-- Node5 -->
<g id="node5" class="node">
<title>Node5</title>
<g id="a_node5"><a xlink:title=" ">
<polygon fill="white" stroke="#bfbfbf" points="158.5,-68 158.5,-91 323.5,-91 323.5,-68 158.5,-68"/>
<text text-anchor="middle" x="241" y="-75.8" font-family="Helvetica,sans-Serif" font-size="14.00">llvm/IR/Instructions.h</text>
</a>
</g>
</g>
<!-- Node1&#45;&gt;Node5 -->
<g id="edge4" class="edge">
<title>Node1&#45;&gt;Node5</title>
<path fill="none" stroke="midnightblue" d="M318.54,-135.46C301.95,-123.7 280.47,-108.48 264.33,-97.04"/>
<polygon fill="midnightblue" stroke="midnightblue" points="266.16,-94.04 255.98,-91.11 262.11,-99.75 266.16,-94.04"/>
</g>
<!-- Node6 -->
<g id="node6" class="node">
<title>Node6</title>
<g id="a_node6"><a xlink:title=" ">
<polygon fill="white" stroke="#bfbfbf" points="342,-68 342,-91 554,-91 554,-68 342,-68"/>
<text text-anchor="middle" x="448" y="-75.8" font-family="Helvetica,sans-Serif" font-size="14.00">llvm/Support/raw_ostream.h</text>
</a>
</g>
</g>
<!-- Node1&#45;&gt;Node6 -->
<g id="edge5" class="edge">
<title>Node1&#45;&gt;Node6</title>
<path fill="none" stroke="midnightblue" d="M369.71,-135.46C386.46,-123.7 408.14,-108.48 424.44,-97.04"/>
<polygon fill="midnightblue" stroke="midnightblue" points="426.71,-99.72 432.88,-91.11 422.68,-93.99 426.71,-99.72"/>
</g>
<!-- Node7 -->
<g id="node7" class="node">
<title>Node7</title>
<g id="a_node7"><a xlink:title=" ">
<polygon fill="white" stroke="#bfbfbf" points="572.5,-60.5 572.5,-98.5 735.5,-98.5 735.5,-60.5 572.5,-60.5"/>
<text text-anchor="start" x="580.5" y="-83.3" font-family="Helvetica,sans-Serif" font-size="14.00">llvm/Transforms/Utils</text>
<text text-anchor="middle" x="654" y="-68.3" font-family="Helvetica,sans-Serif" font-size="14.00">/Cloning.h</text>
</a>
</g>
</g>
<!-- Node1&#45;&gt;Node7 -->
<g id="edge6" class="edge">
<title>Node1&#45;&gt;Node7</title>
<path fill="none" stroke="midnightblue" d="M420.63,-135.46C465.15,-124.97 521.37,-111.73 567.47,-100.88"/>
<polygon fill="midnightblue" stroke="midnightblue" points="568.52,-104.23 577.45,-98.53 566.91,-97.41 568.52,-104.23"/>
</g>
<!-- Node3 -->
<g id="node3" class="node">
<title>Node3</title>
<g id="a_node3"><a xlink:title=" ">
<polygon fill="white" stroke="#bfbfbf" points="0,-0.5 0,-23.5 60,-23.5 60,-0.5 0,-0.5"/>
<text text-anchor="middle" x="30" y="-8.3" font-family="Helvetica,sans-Serif" font-size="14.00">vector</text>
</a>
</g>
</g>
<!-- Node2&#45;&gt;Node3 -->
<g id="edge2" class="edge">
<title>Node2&#45;&gt;Node3</title>
<path fill="none" stroke="midnightblue" d="M77.84,-67.98C69.25,-58.1 56.22,-43.13 45.93,-31.3"/>
<polygon fill="midnightblue" stroke="midnightblue" points="48.53,-28.96 39.32,-23.72 43.25,-33.56 48.53,-28.96"/>
</g>
<!-- Node4 -->
<g id="node4" class="node">
<title>Node4</title>
<g id="a_node4"><a xlink:title=" ">
<polygon fill="white" stroke="#bfbfbf" points="78.5,-0.5 78.5,-23.5 211.5,-23.5 211.5,-0.5 78.5,-0.5"/>
<text text-anchor="middle" x="145" y="-8.3" font-family="Helvetica,sans-Serif" font-size="14.00">llvm/IR/Module.h</text>
</a>
</g>
</g>
<!-- Node2&#45;&gt;Node4 -->
<g id="edge3" class="edge">
<title>Node2&#45;&gt;Node4</title>
<path fill="none" stroke="midnightblue" d="M96.32,-67.98C105.06,-58.1 118.32,-43.13 128.79,-31.3"/>
<polygon fill="midnightblue" stroke="midnightblue" points="131.5,-33.52 135.51,-23.72 126.26,-28.88 131.5,-33.52"/>
</g>
</g>
</svg>
