<?xml version="1.0" encoding="UTF-8" standalone="no"?>
<!DOCTYPE svg PUBLIC "-//W3C//DTD SVG 1.1//EN"
 "http://www.w3.org/Graphics/SVG/1.1/DTD/svg11.dtd">
<!-- Generated by graphviz version 2.43.0 (0)
 -->
<!-- Title: simian.UnpackException Pages: 1 -->
<svg width="598pt" height="200pt"
 viewBox="0.00 0.00 598.00 200.00" xmlns="http://www.w3.org/2000/svg" xmlns:xlink="http://www.w3.org/1999/xlink">
<g id="graph0" class="graph" transform="scale(1 1) rotate(0) translate(4 196)">
<title>simian.UnpackException</title>
<polygon fill="white" stroke="transparent" points="-4,4 -4,-196 594,-196 594,4 -4,4"/>
<!-- Node1 -->
<g id="node1" class="node">
<title>Node1</title>
<g id="a_node1"><a xlink:title=" ">
<polygon fill="#bfbfbf" stroke="black" points="121,-84.5 121,-107.5 309,-107.5 309,-84.5 121,-84.5"/>
<text text-anchor="middle" x="215" y="-92.3" font-family="Helvetica,sans-Serif" font-size="14.00">simian.UnpackException</text>
</a>
</g>
</g>
<!-- Node3 -->
<g id="node3" class="node">
<title>Node3</title>
<g id="a_node3"><a xlink:href="../../d6/dd2/classsimian_1_1DuplicateKeyException.html" target="_top" xlink:title=" ">
<polygon fill="white" stroke="black" points="355,-168.5 355,-191.5 580,-191.5 580,-168.5 355,-168.5"/>
<text text-anchor="middle" x="467.5" y="-176.3" font-family="Helvetica,sans-Serif" font-size="14.00">simian.DuplicateKeyException</text>
</a>
</g>
</g>
<!-- Node1&#45;&gt;Node3 -->
<g id="edge2" class="edge">
<title>Node1&#45;&gt;Node3</title>
<path fill="none" stroke="midnightblue" d="M244.13,-112.64C269.63,-127.01 308.67,-147.25 345,-159 356.61,-162.75 369.07,-165.88 381.43,-168.46"/>
<polygon fill="midnightblue" stroke="midnightblue" points="245.8,-109.56 235.38,-107.64 242.32,-115.64 245.8,-109.56"/>
</g>
<!-- Node4 -->
<g id="node4" class="node">
<title>Node4</title>
<g id="a_node4"><a xlink:href="../../d9/d7e/classsimian_1_1InsufficientDataException.html" target="_top" xlink:title=" ">
<polygon fill="white" stroke="black" points="345,-126.5 345,-149.5 590,-149.5 590,-126.5 345,-126.5"/>
<text text-anchor="middle" x="467.5" y="-134.3" font-family="Helvetica,sans-Serif" font-size="14.00">simian.InsufficientDataException</text>
</a>
</g>
</g>
<!-- Node1&#45;&gt;Node4 -->
<g id="edge3" class="edge">
<title>Node1&#45;&gt;Node4</title>
<path fill="none" stroke="midnightblue" d="M294.87,-109.22C327.92,-114.77 366,-121.15 397.87,-126.49"/>
<polygon fill="midnightblue" stroke="midnightblue" points="295.22,-105.73 284.78,-107.53 294.07,-112.64 295.22,-105.73"/>
</g>
<!-- Node5 -->
<g id="node5" class="node">
<title>Node5</title>
<g id="a_node5"><a xlink:href="../../d4/d43/classsimian_1_1InvalidStringException.html" target="_top" xlink:title=" ">
<polygon fill="white" stroke="black" points="355.5,-84.5 355.5,-107.5 579.5,-107.5 579.5,-84.5 355.5,-84.5"/>
<text text-anchor="middle" x="467.5" y="-92.3" font-family="Helvetica,sans-Serif" font-size="14.00">simian.InvalidStringException</text>
</a>
</g>
</g>
<!-- Node1&#45;&gt;Node5 -->
<g id="edge4" class="edge">
<title>Node1&#45;&gt;Node5</title>
<path fill="none" stroke="midnightblue" d="M319.58,-96C331.39,-96 343.47,-96 355.37,-96"/>
<polygon fill="midnightblue" stroke="midnightblue" points="319.28,-92.5 309.28,-96 319.28,-99.5 319.28,-92.5"/>
</g>
<!-- Node6 -->
<g id="node6" class="node">
<title>Node6</title>
<g id="a_node6"><a xlink:href="../../d4/d3d/classsimian_1_1ReservedCodeException.html" target="_top" xlink:title=" ">
<polygon fill="white" stroke="black" points="350,-42.5 350,-65.5 585,-65.5 585,-42.5 350,-42.5"/>
<text text-anchor="middle" x="467.5" y="-50.3" font-family="Helvetica,sans-Serif" font-size="14.00">simian.ReservedCodeException</text>
</a>
</g>
</g>
<!-- Node1&#45;&gt;Node6 -->
<g id="edge5" class="edge">
<title>Node1&#45;&gt;Node6</title>
<path fill="none" stroke="midnightblue" d="M294.87,-82.78C327.92,-77.23 366,-70.85 397.87,-65.51"/>
<polygon fill="midnightblue" stroke="midnightblue" points="294.07,-79.36 284.78,-84.47 295.22,-86.27 294.07,-79.36"/>
</g>
<!-- Node7 -->
<g id="node7" class="node">
<title>Node7</title>
<g id="a_node7"><a xlink:href="../../d7/dc7/classsimian_1_1UnhashableKeyException.html" target="_top" xlink:title=" ">
<polygon fill="white" stroke="black" points="346.5,-0.5 346.5,-23.5 588.5,-23.5 588.5,-0.5 346.5,-0.5"/>
<text text-anchor="middle" x="467.5" y="-8.3" font-family="Helvetica,sans-Serif" font-size="14.00">simian.UnhashableKeyException</text>
</a>
</g>
</g>
<!-- Node1&#45;&gt;Node7 -->
<g id="edge6" class="edge">
<title>Node1&#45;&gt;Node7</title>
<path fill="none" stroke="midnightblue" d="M244.13,-79.36C269.63,-64.99 308.67,-44.75 345,-33 356.61,-29.25 369.07,-26.12 381.43,-23.54"/>
<polygon fill="midnightblue" stroke="midnightblue" points="242.32,-76.36 235.38,-84.36 245.8,-82.44 242.32,-76.36"/>
</g>
<!-- Node2 -->
<g id="node2" class="node">
<title>Node2</title>
<g id="a_node2"><a xlink:title=" ">
<polygon fill="white" stroke="#bfbfbf" points="0,-84.5 0,-107.5 85,-107.5 85,-84.5 0,-84.5"/>
<text text-anchor="middle" x="42.5" y="-92.3" font-family="Helvetica,sans-Serif" font-size="14.00">Exception</text>
</a>
</g>
</g>
<!-- Node2&#45;&gt;Node1 -->
<g id="edge1" class="edge">
<title>Node2&#45;&gt;Node1</title>
<path fill="none" stroke="midnightblue" d="M95.27,-96C103.45,-96 112.11,-96 120.88,-96"/>
<polygon fill="midnightblue" stroke="midnightblue" points="95.21,-92.5 85.21,-96 95.21,-99.5 95.21,-92.5"/>
</g>
</g>
</svg>
