<?xml version="1.0" encoding="UTF-8" standalone="no"?>
<!DOCTYPE svg PUBLIC "-//W3C//DTD SVG 1.1//EN"
 "http://www.w3.org/Graphics/SVG/1.1/DTD/svg11.dtd">
<!-- Generated by graphviz version 2.43.0 (0)
 -->
<!-- Title: PPT&#45;GPU/reuse_distance_tool/parda.c Pages: 1 -->
<svg width="1065pt" height="227pt"
 viewBox="0.00 0.00 1064.56 227.00" xmlns="http://www.w3.org/2000/svg" xmlns:xlink="http://www.w3.org/1999/xlink">
<g id="graph0" class="graph" transform="scale(1 1) rotate(0) translate(4 223)">
<title>PPT&#45;GPU/reuse_distance_tool/parda.c</title>
<polygon fill="white" stroke="transparent" points="-4,4 -4,-223 1060.56,-223 1060.56,4 -4,4"/>
<!-- Node1 -->
<g id="node1" class="node">
<title>Node1</title>
<g id="a_node1"><a xlink:title=" ">
<polygon fill="#bfbfbf" stroke="black" points="451.56,-180.5 451.56,-218.5 634.56,-218.5 634.56,-180.5 451.56,-180.5"/>
<text text-anchor="start" x="459.56" y="-203.3" font-family="Helvetica,sans-Serif" font-size="14.00">PPT&#45;GPU/reuse_distance</text>
<text text-anchor="middle" x="543.06" y="-188.3" font-family="Helvetica,sans-Serif" font-size="14.00">_tool/parda.c</text>
</a>
</g>
</g>
<!-- Node2 -->
<g id="node2" class="node">
<title>Node2</title>
<g id="a_node2"><a xlink:href="../../d0/dbf/parda_8h.html" target="_top" xlink:title=" ">
<polygon fill="white" stroke="black" points="356.06,-120.5 356.06,-143.5 426.06,-143.5 426.06,-120.5 356.06,-120.5"/>
<text text-anchor="middle" x="391.06" y="-128.3" font-family="Helvetica,sans-Serif" font-size="14.00">parda.h</text>
</a>
</g>
</g>
<!-- Node1&#45;&gt;Node2 -->
<g id="edge1" class="edge">
<title>Node1&#45;&gt;Node2</title>
<path fill="none" stroke="midnightblue" d="M501.13,-180.43C477.25,-170.14 447.71,-157.41 425.24,-147.73"/>
<polygon fill="midnightblue" stroke="midnightblue" points="426.35,-144.39 415.78,-143.65 423.58,-150.82 426.35,-144.39"/>
</g>
<!-- Node3 -->
<g id="node3" class="node">
<title>Node3</title>
<g id="a_node3"><a xlink:href="../../de/d09/narray_8h.html" target="_top" xlink:title=" ">
<polygon fill="white" stroke="black" points="596.56,-60.5 596.56,-83.5 669.56,-83.5 669.56,-60.5 596.56,-60.5"/>
<text text-anchor="middle" x="633.06" y="-68.3" font-family="Helvetica,sans-Serif" font-size="14.00">narray.h</text>
</a>
</g>
</g>
<!-- Node1&#45;&gt;Node3 -->
<g id="edge25" class="edge">
<title>Node1&#45;&gt;Node3</title>
<path fill="none" stroke="midnightblue" d="M543.72,-180.45C545.14,-163.46 549.42,-138.02 562.06,-120 571.38,-106.73 585.74,-96.2 599.12,-88.5"/>
<polygon fill="midnightblue" stroke="midnightblue" points="601.02,-91.46 608.16,-83.62 597.69,-85.3 601.02,-91.46"/>
</g>
<!-- Node18 -->
<g id="node18" class="node">
<title>Node18</title>
<g id="a_node18"><a xlink:title=" ">
<polygon fill="white" stroke="#bfbfbf" points="571.56,-120.5 571.56,-143.5 632.56,-143.5 632.56,-120.5 571.56,-120.5"/>
<text text-anchor="middle" x="602.06" y="-128.3" font-family="Helvetica,sans-Serif" font-size="14.00">omp.h</text>
</a>
</g>
</g>
<!-- Node1&#45;&gt;Node18 -->
<g id="edge26" class="edge">
<title>Node1&#45;&gt;Node18</title>
<path fill="none" stroke="midnightblue" d="M559.5,-180.25C567.64,-171.21 577.45,-160.32 585.6,-151.28"/>
<polygon fill="midnightblue" stroke="midnightblue" points="588.43,-153.36 592.52,-143.59 583.23,-148.68 588.43,-153.36"/>
</g>
<!-- Node2&#45;&gt;Node3 -->
<g id="edge2" class="edge">
<title>Node2&#45;&gt;Node3</title>
<path fill="none" stroke="midnightblue" d="M426.25,-122.57C468.51,-112.44 539.53,-95.42 586.35,-84.2"/>
<polygon fill="midnightblue" stroke="midnightblue" points="587.34,-87.56 596.25,-81.82 585.71,-80.75 587.34,-87.56"/>
</g>
<!-- Node4 -->
<g id="node4" class="node">
<title>Node4</title>
<g id="a_node4"><a xlink:title=" ">
<polygon fill="white" stroke="#bfbfbf" points="412.06,-0.5 412.06,-23.5 476.06,-23.5 476.06,-0.5 412.06,-0.5"/>
<text text-anchor="middle" x="444.06" y="-8.3" font-family="Helvetica,sans-Serif" font-size="14.00">stdio.h</text>
</a>
</g>
</g>
<!-- Node2&#45;&gt;Node4 -->
<g id="edge20" class="edge">
<title>Node2&#45;&gt;Node4</title>
<path fill="none" stroke="midnightblue" d="M355.85,-130.02C291.4,-127.42 158.45,-117.95 130.06,-84 123.22,-75.82 123.1,-68.08 130.06,-60 164.6,-19.91 323.91,-13.52 401.44,-12.83"/>
<polygon fill="midnightblue" stroke="midnightblue" points="401.84,-16.32 411.82,-12.76 401.8,-9.32 401.84,-16.32"/>
</g>
<!-- Node5 -->
<g id="node5" class="node">
<title>Node5</title>
<g id="a_node5"><a xlink:title=" ">
<polygon fill="white" stroke="#bfbfbf" points="120.06,-0.5 120.06,-23.5 188.06,-23.5 188.06,-0.5 120.06,-0.5"/>
<text text-anchor="middle" x="154.06" y="-8.3" font-family="Helvetica,sans-Serif" font-size="14.00">stdlib.h</text>
</a>
</g>
</g>
<!-- Node2&#45;&gt;Node5 -->
<g id="edge21" class="edge">
<title>Node2&#45;&gt;Node5</title>
<path fill="none" stroke="midnightblue" d="M355.89,-129.3C265.56,-124.56 30.95,-109.87 8.06,-84 -24.66,-47.02 55.8,-27.4 109.84,-18.7"/>
<polygon fill="midnightblue" stroke="midnightblue" points="110.57,-22.13 119.92,-17.15 109.51,-15.21 110.57,-22.13"/>
</g>
<!-- Node6 -->
<g id="node6" class="node">
<title>Node6</title>
<g id="a_node6"><a xlink:title=" ">
<polygon fill="white" stroke="#bfbfbf" points="597.56,-0.5 597.56,-23.5 668.56,-23.5 668.56,-0.5 597.56,-0.5"/>
<text text-anchor="middle" x="633.06" y="-8.3" font-family="Helvetica,sans-Serif" font-size="14.00">string.h</text>
</a>
</g>
</g>
<!-- Node2&#45;&gt;Node6 -->
<g id="edge22" class="edge">
<title>Node2&#45;&gt;Node6</title>
<path fill="none" stroke="midnightblue" d="M426.21,-127.8C499.42,-120.77 662.82,-103.11 679.06,-84 693.58,-66.92 674.44,-44.97 656.61,-30.03"/>
<polygon fill="midnightblue" stroke="midnightblue" points="658.65,-27.17 648.64,-23.7 654.29,-32.66 658.65,-27.17"/>
</g>
<!-- Node7 -->
<g id="node7" class="node">
<title>Node7</title>
<g id="a_node7"><a xlink:href="../../da/d28/process__args_8h.html" target="_top" xlink:title=" ">
<polygon fill="white" stroke="black" points="726.06,-60.5 726.06,-83.5 846.06,-83.5 846.06,-60.5 726.06,-60.5"/>
<text text-anchor="middle" x="786.06" y="-68.3" font-family="Helvetica,sans-Serif" font-size="14.00">process_args.h</text>
</a>
</g>
</g>
<!-- Node2&#45;&gt;Node7 -->
<g id="edge6" class="edge">
<title>Node2&#45;&gt;Node7</title>
<path fill="none" stroke="midnightblue" d="M426.22,-125.88C485.27,-117.27 608.15,-99.33 712.06,-84 713.33,-83.81 714.61,-83.62 715.89,-83.43"/>
<polygon fill="midnightblue" stroke="midnightblue" points="716.51,-86.88 725.89,-81.96 715.49,-79.96 716.51,-86.88"/>
</g>
<!-- Node12 -->
<g id="node12" class="node">
<title>Node12</title>
<g id="a_node12"><a xlink:href="../../d2/db0/splay_8h.html" target="_top" xlink:title=" ">
<polygon fill="white" stroke="black" points="17.56,-60.5 17.56,-83.5 82.56,-83.5 82.56,-60.5 17.56,-60.5"/>
<text text-anchor="middle" x="50.06" y="-68.3" font-family="Helvetica,sans-Serif" font-size="14.00">splay.h</text>
</a>
</g>
</g>
<!-- Node2&#45;&gt;Node12 -->
<g id="edge14" class="edge">
<title>Node2&#45;&gt;Node12</title>
<path fill="none" stroke="midnightblue" d="M355.62,-126.17C300.23,-118.43 189.88,-102.26 97.06,-84 95.6,-83.71 94.11,-83.41 92.61,-83.1"/>
<polygon fill="midnightblue" stroke="midnightblue" points="93.13,-79.63 82.62,-80.94 91.65,-86.47 93.13,-79.63"/>
</g>
<!-- Node13 -->
<g id="node13" class="node">
<title>Node13</title>
<g id="a_node13"><a xlink:title=" ">
<polygon fill="white" stroke="#bfbfbf" points="139.56,-60.5 139.56,-83.5 212.56,-83.5 212.56,-60.5 139.56,-60.5"/>
<text text-anchor="middle" x="176.06" y="-68.3" font-family="Helvetica,sans-Serif" font-size="14.00">assert.h</text>
</a>
</g>
</g>
<!-- Node2&#45;&gt;Node13 -->
<g id="edge17" class="edge">
<title>Node2&#45;&gt;Node13</title>
<path fill="none" stroke="midnightblue" d="M356.04,-121.55C319.73,-111.76 262.78,-96.39 222.68,-85.58"/>
<polygon fill="midnightblue" stroke="midnightblue" points="223.44,-82.16 212.87,-82.93 221.62,-88.91 223.44,-82.16"/>
</g>
<!-- Node14 -->
<g id="node14" class="node">
<title>Node14</title>
<g id="a_node14"><a xlink:title=" ">
<polygon fill="white" stroke="#bfbfbf" points="231.06,-60.5 231.06,-83.5 287.06,-83.5 287.06,-60.5 231.06,-60.5"/>
<text text-anchor="middle" x="259.06" y="-68.3" font-family="Helvetica,sans-Serif" font-size="14.00">glib.h</text>
</a>
</g>
</g>
<!-- Node2&#45;&gt;Node14 -->
<g id="edge18" class="edge">
<title>Node2&#45;&gt;Node14</title>
<path fill="none" stroke="midnightblue" d="M367.16,-120.5C346.27,-111.32 315.71,-97.89 292.41,-87.65"/>
<polygon fill="midnightblue" stroke="midnightblue" points="293.8,-84.44 283.24,-83.62 290.98,-90.85 293.8,-84.44"/>
</g>
<!-- Node15 -->
<g id="node15" class="node">
<title>Node15</title>
<g id="a_node15"><a xlink:title=" ">
<polygon fill="white" stroke="#bfbfbf" points="305.56,-60.5 305.56,-83.5 378.56,-83.5 378.56,-60.5 305.56,-60.5"/>
<text text-anchor="middle" x="342.06" y="-68.3" font-family="Helvetica,sans-Serif" font-size="14.00">libgen.h</text>
</a>
</g>
</g>
<!-- Node2&#45;&gt;Node15 -->
<g id="edge19" class="edge">
<title>Node2&#45;&gt;Node15</title>
<path fill="none" stroke="midnightblue" d="M382.08,-120.36C375.24,-112.27 365.66,-100.93 357.59,-91.38"/>
<polygon fill="midnightblue" stroke="midnightblue" points="360.12,-88.95 351,-83.57 354.78,-93.47 360.12,-88.95"/>
</g>
<!-- Node16 -->
<g id="node16" class="node">
<title>Node16</title>
<g id="a_node16"><a xlink:title=" ">
<polygon fill="white" stroke="#bfbfbf" points="396.56,-60.5 396.56,-83.5 485.56,-83.5 485.56,-60.5 396.56,-60.5"/>
<text text-anchor="middle" x="441.06" y="-68.3" font-family="Helvetica,sans-Serif" font-size="14.00">sys/time.h</text>
</a>
</g>
</g>
<!-- Node2&#45;&gt;Node16 -->
<g id="edge23" class="edge">
<title>Node2&#45;&gt;Node16</title>
<path fill="none" stroke="midnightblue" d="M400.24,-120.36C407.21,-112.27 416.99,-100.93 425.22,-91.38"/>
<polygon fill="midnightblue" stroke="midnightblue" points="428.07,-93.43 431.95,-83.57 422.77,-88.86 428.07,-93.43"/>
</g>
<!-- Node17 -->
<g id="node17" class="node">
<title>Node17</title>
<g id="a_node17"><a xlink:title=" ">
<polygon fill="white" stroke="#bfbfbf" points="504.06,-60.5 504.06,-83.5 578.06,-83.5 578.06,-60.5 504.06,-60.5"/>
<text text-anchor="middle" x="541.06" y="-68.3" font-family="Helvetica,sans-Serif" font-size="14.00">unistd.h</text>
</a>
</g>
</g>
<!-- Node2&#45;&gt;Node17 -->
<g id="edge24" class="edge">
<title>Node2&#45;&gt;Node17</title>
<path fill="none" stroke="midnightblue" d="M418.23,-120.5C442.37,-111.16 477.85,-97.44 504.48,-87.15"/>
<polygon fill="midnightblue" stroke="midnightblue" points="505.79,-90.39 513.85,-83.52 503.26,-83.87 505.79,-90.39"/>
</g>
<!-- Node3&#45;&gt;Node4 -->
<g id="edge3" class="edge">
<title>Node3&#45;&gt;Node4</title>
<path fill="none" stroke="midnightblue" d="M598.84,-60.5C567.08,-50.75 519.74,-36.22 485.78,-25.8"/>
<polygon fill="midnightblue" stroke="midnightblue" points="486.73,-22.43 476.15,-22.85 484.68,-29.12 486.73,-22.43"/>
</g>
<!-- Node3&#45;&gt;Node5 -->
<g id="edge4" class="edge">
<title>Node3&#45;&gt;Node5</title>
<path fill="none" stroke="midnightblue" d="M596.49,-61.81C593.31,-61.15 590.14,-60.53 587.06,-60 446.06,-35.59 276.89,-21.58 198.26,-15.94"/>
<polygon fill="midnightblue" stroke="midnightblue" points="198.45,-12.45 188.23,-15.23 197.96,-19.43 198.45,-12.45"/>
</g>
<!-- Node3&#45;&gt;Node6 -->
<g id="edge5" class="edge">
<title>Node3&#45;&gt;Node6</title>
<path fill="none" stroke="midnightblue" d="M633.06,-60.36C633.06,-52.92 633.06,-42.74 633.06,-33.73"/>
<polygon fill="midnightblue" stroke="midnightblue" points="636.56,-33.57 633.06,-23.57 629.56,-33.57 636.56,-33.57"/>
</g>
<!-- Node7&#45;&gt;Node4 -->
<g id="edge9" class="edge">
<title>Node7&#45;&gt;Node4</title>
<path fill="none" stroke="midnightblue" d="M725.71,-60.76C657.01,-49.11 546.55,-30.38 486.41,-20.18"/>
<polygon fill="midnightblue" stroke="midnightblue" points="486.94,-16.72 476.49,-18.5 485.77,-23.62 486.94,-16.72"/>
</g>
<!-- Node7&#45;&gt;Node5 -->
<g id="edge10" class="edge">
<title>Node7&#45;&gt;Node5</title>
<path fill="none" stroke="midnightblue" d="M725.81,-64.67C710.56,-63.1 694.21,-61.46 679.06,-60 500.98,-42.87 288.7,-24.49 198.32,-16.76"/>
<polygon fill="midnightblue" stroke="midnightblue" points="198.43,-13.26 188.17,-15.9 197.83,-20.24 198.43,-13.26"/>
</g>
<!-- Node7&#45;&gt;Node6 -->
<g id="edge11" class="edge">
<title>Node7&#45;&gt;Node6</title>
<path fill="none" stroke="midnightblue" d="M758.36,-60.5C733.74,-51.16 697.55,-37.44 670.38,-27.15"/>
<polygon fill="midnightblue" stroke="midnightblue" points="671.42,-23.8 660.82,-23.52 668.93,-30.34 671.42,-23.8"/>
</g>
<!-- Node8 -->
<g id="node8" class="node">
<title>Node8</title>
<g id="a_node8"><a xlink:title=" ">
<polygon fill="white" stroke="#bfbfbf" points="995.56,-0.5 995.56,-23.5 1056.56,-23.5 1056.56,-0.5 995.56,-0.5"/>
<text text-anchor="middle" x="1026.06" y="-8.3" font-family="Helvetica,sans-Serif" font-size="14.00">fcntl.h</text>
</a>
</g>
</g>
<!-- Node7&#45;&gt;Node8 -->
<g id="edge7" class="edge">
<title>Node7&#45;&gt;Node8</title>
<path fill="none" stroke="midnightblue" d="M833.06,-60.48C871.53,-51.75 927.58,-38.76 985.78,-24.01"/>
<polygon fill="midnightblue" stroke="midnightblue" points="986.69,-27.39 995.52,-21.53 984.97,-20.6 986.69,-27.39"/>
</g>
<!-- Node9 -->
<g id="node9" class="node">
<title>Node9</title>
<g id="a_node9"><a xlink:title=" ">
<polygon fill="white" stroke="#bfbfbf" points="686.56,-0.5 686.56,-23.5 761.56,-23.5 761.56,-0.5 686.56,-0.5"/>
<text text-anchor="middle" x="724.06" y="-8.3" font-family="Helvetica,sans-Serif" font-size="14.00">getopt.h</text>
</a>
</g>
</g>
<!-- Node7&#45;&gt;Node9 -->
<g id="edge8" class="edge">
<title>Node7&#45;&gt;Node9</title>
<path fill="none" stroke="midnightblue" d="M774.69,-60.36C765.78,-52.02 753.19,-40.24 742.79,-30.52"/>
<polygon fill="midnightblue" stroke="midnightblue" points="745.06,-27.85 735.36,-23.57 740.28,-32.96 745.06,-27.85"/>
</g>
<!-- Node10 -->
<g id="node10" class="node">
<title>Node10</title>
<g id="a_node10"><a xlink:title=" ">
<polygon fill="white" stroke="#bfbfbf" points="779.06,-0.5 779.06,-23.5 863.06,-23.5 863.06,-0.5 779.06,-0.5"/>
<text text-anchor="middle" x="821.06" y="-8.3" font-family="Helvetica,sans-Serif" font-size="14.00">sys/stat.h</text>
</a>
</g>
</g>
<!-- Node7&#45;&gt;Node10 -->
<g id="edge12" class="edge">
<title>Node7&#45;&gt;Node10</title>
<path fill="none" stroke="midnightblue" d="M792.48,-60.36C797.22,-52.51 803.8,-41.62 809.45,-32.25"/>
<polygon fill="midnightblue" stroke="midnightblue" points="812.52,-33.94 814.69,-23.57 806.52,-30.32 812.52,-33.94"/>
</g>
<!-- Node11 -->
<g id="node11" class="node">
<title>Node11</title>
<g id="a_node11"><a xlink:title=" ">
<polygon fill="white" stroke="#bfbfbf" points="881.06,-0.5 881.06,-23.5 977.06,-23.5 977.06,-0.5 881.06,-0.5"/>
<text text-anchor="middle" x="929.06" y="-8.3" font-family="Helvetica,sans-Serif" font-size="14.00">sys/types.h</text>
</a>
</g>
</g>
<!-- Node7&#45;&gt;Node11 -->
<g id="edge13" class="edge">
<title>Node7&#45;&gt;Node11</title>
<path fill="none" stroke="midnightblue" d="M811.96,-60.5C834.7,-51.27 868,-37.77 893.28,-27.52"/>
<polygon fill="midnightblue" stroke="midnightblue" points="894.93,-30.62 902.88,-23.62 892.3,-24.14 894.93,-30.62"/>
</g>
<!-- Node12&#45;&gt;Node4 -->
<g id="edge15" class="edge">
<title>Node12&#45;&gt;Node4</title>
<path fill="none" stroke="midnightblue" d="M82.6,-62.96C87.43,-61.89 92.37,-60.87 97.06,-60 206.31,-39.87 336.39,-24.53 401.9,-17.4"/>
<polygon fill="midnightblue" stroke="midnightblue" points="402.28,-20.88 411.85,-16.33 401.53,-13.92 402.28,-20.88"/>
</g>
<!-- Node12&#45;&gt;Node5 -->
<g id="edge16" class="edge">
<title>Node12&#45;&gt;Node5</title>
<path fill="none" stroke="midnightblue" d="M69.14,-60.36C85.12,-51.45 108.15,-38.61 126.19,-28.54"/>
<polygon fill="midnightblue" stroke="midnightblue" points="128.08,-31.5 135.11,-23.57 124.67,-25.38 128.08,-31.5"/>
</g>
</g>
</svg>
