<?xml version="1.0" encoding="UTF-8" standalone="no"?>
<!DOCTYPE svg PUBLIC "-//W3C//DTD SVG 1.1//EN"
 "http://www.w3.org/Graphics/SVG/1.1/DTD/svg11.dtd">
<!-- Generated by graphviz version 2.43.0 (0)
 -->
<!-- Title: print_iterator Pages: 1 -->
<svg width="420pt" height="32pt"
 viewBox="0.00 0.00 420.00 32.00" xmlns="http://www.w3.org/2000/svg" xmlns:xlink="http://www.w3.org/1999/xlink">
<g id="graph0" class="graph" transform="scale(1 1) rotate(0) translate(4 28)">
<title>print_iterator</title>
<polygon fill="white" stroke="transparent" points="-4,4 -4,-28 416,-28 416,4 -4,4"/>
<!-- Node1 -->
<g id="node1" class="node">
<title>Node1</title>
<g id="a_node1"><a xlink:title=" ">
<polygon fill="#bfbfbf" stroke="black" points="305,-0.5 305,-23.5 412,-23.5 412,-0.5 305,-0.5"/>
<text text-anchor="middle" x="358.5" y="-8.3" font-family="Helvetica,sans-Serif" font-size="14.00">print_iterator</text>
</a>
</g>
</g>
<!-- Node2 -->
<g id="node2" class="node">
<title>Node2</title>
<g id="a_node2"><a xlink:href="../../dd/dad/parda__print_8c.html#a2cde8523020cc29d7a7168acfe21d3a6" target="_top" xlink:title=" ">
<polygon fill="white" stroke="black" points="132,-0.5 132,-23.5 269,-23.5 269,-0.5 132,-0.5"/>
<text text-anchor="middle" x="200.5" y="-8.3" font-family="Helvetica,sans-Serif" font-size="14.00">parda_print_hash</text>
</a>
</g>
</g>
<!-- Node1&#45;&gt;Node2 -->
<g id="edge1" class="edge">
<title>Node1&#45;&gt;Node2</title>
<path fill="none" stroke="midnightblue" d="M294.62,-12C286.25,-12 277.64,-12 269.19,-12"/>
<polygon fill="midnightblue" stroke="midnightblue" points="294.69,-15.5 304.69,-12 294.69,-8.5 294.69,-15.5"/>
</g>
<!-- Node3 -->
<g id="node3" class="node">
<title>Node3</title>
<g id="a_node3"><a xlink:href="../../dd/dad/parda__print_8c.html#a3167143aad2db58a43433302ab5b0432" target="_top" xlink:title=" ">
<polygon fill="white" stroke="black" points="0,-0.5 0,-23.5 96,-23.5 96,-0.5 0,-0.5"/>
<text text-anchor="middle" x="48" y="-8.3" font-family="Helvetica,sans-Serif" font-size="14.00">parda_print</text>
</a>
</g>
</g>
<!-- Node2&#45;&gt;Node3 -->
<g id="edge2" class="edge">
<title>Node2&#45;&gt;Node3</title>
<path fill="none" stroke="midnightblue" d="M121.56,-12C112.89,-12 104.27,-12 96.16,-12"/>
<polygon fill="midnightblue" stroke="midnightblue" points="121.73,-15.5 131.73,-12 121.73,-8.5 121.73,-15.5"/>
</g>
</g>
</svg>
