<?xml version="1.0" encoding="UTF-8" standalone="no"?>
<!DOCTYPE svg PUBLIC "-//W3C//DTD SVG 1.1//EN"
 "http://www.w3.org/Graphics/SVG/1.1/DTD/svg11.dtd">
<!-- Generated by graphviz version 2.43.0 (0)
 -->
<!-- Title: parda_print_histogram Pages: 1 -->
<svg width="467pt" height="90pt"
 viewBox="0.00 0.00 467.00 89.50" xmlns="http://www.w3.org/2000/svg" xmlns:xlink="http://www.w3.org/1999/xlink">
<g id="graph0" class="graph" transform="scale(1 1) rotate(0) translate(4 85.5)">
<title>parda_print_histogram</title>
<polygon fill="white" stroke="transparent" points="-4,4 -4,-85.5 463,-85.5 463,4 -4,4"/>
<!-- Node1 -->
<g id="node1" class="node">
<title>Node1</title>
<g id="a_node1"><a xlink:title=" ">
<polygon fill="#bfbfbf" stroke="black" points="286,-25.5 286,-48.5 459,-48.5 459,-25.5 286,-25.5"/>
<text text-anchor="middle" x="372.5" y="-33.3" font-family="Helvetica,sans-Serif" font-size="14.00">parda_print_histogram</text>
</a>
</g>
</g>
<!-- Node2 -->
<g id="node2" class="node">
<title>Node2</title>
<g id="a_node2"><a xlink:href="../../d0/dbf/parda_8h.html#ab5b52d038b8aaf5acd36508c229bd923" target="_top" xlink:title=" ">
<polygon fill="white" stroke="black" points="90,-43 90,-81 247,-81 247,-43 90,-43"/>
<text text-anchor="start" x="98" y="-65.8" font-family="Helvetica,sans-Serif" font-size="14.00">classical_tree_based</text>
<text text-anchor="middle" x="168.5" y="-50.8" font-family="Helvetica,sans-Serif" font-size="14.00">_stackdist</text>
</a>
</g>
</g>
<!-- Node1&#45;&gt;Node2 -->
<g id="edge1" class="edge">
<title>Node1&#45;&gt;Node2</title>
<path fill="none" stroke="midnightblue" d="M275.88,-48.83C266.3,-50.02 256.65,-51.21 247.28,-52.37"/>
<polygon fill="midnightblue" stroke="midnightblue" points="276.34,-52.3 285.83,-47.6 275.48,-45.36 276.34,-52.3"/>
</g>
<!-- Node4 -->
<g id="node4" class="node">
<title>Node4</title>
<g id="a_node4"><a xlink:href="../../d5/d13/parda__omp_8h.html#af99a329269ee6e1bd3f49b4442ab1097" target="_top" xlink:title=" ">
<polygon fill="white" stroke="black" points="87,-0.5 87,-23.5 250,-23.5 250,-0.5 87,-0.5"/>
<text text-anchor="middle" x="168.5" y="-8.3" font-family="Helvetica,sans-Serif" font-size="14.00">parda_omp_stackdist</text>
</a>
</g>
</g>
<!-- Node1&#45;&gt;Node4 -->
<g id="edge3" class="edge">
<title>Node1&#45;&gt;Node4</title>
<path fill="none" stroke="midnightblue" d="M275.8,-25.16C267.22,-24.09 258.59,-23.03 250.16,-21.98"/>
<polygon fill="midnightblue" stroke="midnightblue" points="275.48,-28.64 285.83,-26.4 276.34,-21.7 275.48,-28.64"/>
</g>
<!-- Node3 -->
<g id="node3" class="node">
<title>Node3</title>
<g id="a_node3"><a xlink:href="../../d0/d29/main_8c.html#a3c04138a5bfe5d72780bb7e82a18e627" target="_top" xlink:title=" ">
<polygon fill="white" stroke="black" points="0,-25.5 0,-48.5 51,-48.5 51,-25.5 0,-25.5"/>
<text text-anchor="middle" x="25.5" y="-33.3" font-family="Helvetica,sans-Serif" font-size="14.00">main</text>
</a>
</g>
</g>
<!-- Node2&#45;&gt;Node3 -->
<g id="edge2" class="edge">
<title>Node2&#45;&gt;Node3</title>
<path fill="none" stroke="midnightblue" d="M79.86,-46.46C69.43,-44.61 59.53,-42.86 51.16,-41.37"/>
<polygon fill="midnightblue" stroke="midnightblue" points="79.53,-49.96 89.99,-48.26 80.75,-43.06 79.53,-49.96"/>
</g>
<!-- Node4&#45;&gt;Node3 -->
<g id="edge4" class="edge">
<title>Node4&#45;&gt;Node3</title>
<path fill="none" stroke="midnightblue" d="M92.12,-25.37C77.34,-27.99 62.84,-30.56 51.25,-32.61"/>
<polygon fill="midnightblue" stroke="midnightblue" points="93.13,-28.74 102.37,-23.55 91.91,-21.85 93.13,-28.74"/>
</g>
</g>
</svg>
