<?xml version="1.0" encoding="UTF-8" standalone="no"?>
<!DOCTYPE svg PUBLIC "-//W3C//DTD SVG 1.1//EN"
 "http://www.w3.org/Graphics/SVG/1.1/DTD/svg11.dtd">
<!-- Generated by graphviz version 2.43.0 (0)
 -->
<!-- Title: parda_print_tree Pages: 1 -->
<svg width="251pt" height="50pt"
 viewBox="0.00 0.00 251.00 50.00" xmlns="http://www.w3.org/2000/svg" xmlns:xlink="http://www.w3.org/1999/xlink">
<g id="graph0" class="graph" transform="scale(1 1) rotate(0) translate(4 46)">
<title>parda_print_tree</title>
<polygon fill="white" stroke="transparent" points="-4,4 -4,-46 247,-46 247,4 -4,4"/>
<!-- Node1 -->
<g id="node1" class="node">
<title>Node1</title>
<g id="a_node1"><a xlink:title=" ">
<polygon fill="#bfbfbf" stroke="black" points="0,-0.5 0,-23.5 130,-23.5 130,-0.5 0,-0.5"/>
<text text-anchor="middle" x="65" y="-8.3" font-family="Helvetica,sans-Serif" font-size="14.00">parda_print_tree</text>
</a>
</g>
</g>
<!-- Node2 -->
<g id="node2" class="node">
<title>Node2</title>
<g id="a_node2"><a xlink:href="../../d1/df7/splay_8c.html#a6aad0c93712dcf637c21efdccd0f79b4" target="_top" xlink:title=" ">
<polygon fill="white" stroke="black" points="166,-0.5 166,-23.5 243,-23.5 243,-0.5 166,-0.5"/>
<text text-anchor="middle" x="204.5" y="-8.3" font-family="Helvetica,sans-Serif" font-size="14.00">printtree</text>
</a>
</g>
</g>
<!-- Node1&#45;&gt;Node2 -->
<g id="edge1" class="edge">
<title>Node1&#45;&gt;Node2</title>
<path fill="none" stroke="midnightblue" d="M130.32,-12C138.87,-12 147.52,-12 155.72,-12"/>
<polygon fill="midnightblue" stroke="midnightblue" points="155.83,-15.5 165.83,-12 155.83,-8.5 155.83,-15.5"/>
</g>
<!-- Node2&#45;&gt;Node2 -->
<g id="edge2" class="edge">
<title>Node2&#45;&gt;Node2</title>
<path fill="none" stroke="midnightblue" d="M181.97,-23.7C173.54,-32.76 181.05,-42 204.5,-42 219.16,-42 227.59,-38.39 229.79,-33.47"/>
<polygon fill="midnightblue" stroke="midnightblue" points="233.12,-32.38 227.03,-23.7 226.38,-34.28 233.12,-32.38"/>
</g>
</g>
</svg>
