<?xml version="1.0" encoding="UTF-8" standalone="no"?>
<!DOCTYPE svg PUBLIC "-//W3C//DTD SVG 1.1//EN"
 "http://www.w3.org/Graphics/SVG/1.1/DTD/svg11.dtd">
<!-- Generated by graphviz version 2.43.0 (0)
 -->
<!-- Title: PPT&#45;GPU/tracing_tool/nvbit/nvbit.h Pages: 1 -->
<!--zoomable 227 -->
<svg id="main" version="1.1" xmlns="http://www.w3.org/2000/svg" xmlns:xlink="http://www.w3.org/1999/xlink" xml:space="preserve" onload="init(evt)">
<style type="text/css"><![CDATA[
.edge:hover path { stroke: red; }
.edge:hover polygon { stroke: red; fill: red; }
]]></style>
<script type="text/javascript"><![CDATA[
var edges = document.getElementsByTagName('g');
if (edges && edges.length) {
  for (var i=0;i<edges.length;i++) {
    if (edges[i].id.substr(0,4)=='edge') {
      edges[i].setAttribute('class','edge');
    }
  }
}
]]></script>
        <defs>
                <circle id="rim" cx="0" cy="0" r="7"/>
                <circle id="rim2" cx="0" cy="0" r="3.5"/>
                <g id="zoomPlus">
                        <use xlink:href="#rim" fill="#404040">
                                <set attributeName="fill" to="#808080" begin="zoomplus.mouseover" end="zoomplus.mouseout"/>
                        </use>
                        <path d="M-4,0h8M0,-4v8" fill="none" stroke="white" stroke-width="1.5" pointer-events="none"/>
                </g>
                <g id="zoomMin">
                        <use xlink:href="#rim" fill="#404040">
                                <set attributeName="fill" to="#808080" begin="zoomminus.mouseover" end="zoomminus.mouseout"/>
                        </use>
                        <path d="M-4,0h8" fill="none" stroke="white" stroke-width="1.5" pointer-events="none"/>
                </g>
                <g id="dirArrow">
                        <path fill="none" stroke="white" stroke-width="1.5" d="M0,-3.0v7 M-2.5,-0.5L0,-3.0L2.5,-0.5"/>
                </g>
               <g id="resetDef">
                       <use xlink:href="#rim2" fill="#404040">
                               <set attributeName="fill" to="#808080" begin="reset.mouseover" end="reset.mouseout"/>
                       </use>
               </g>
        </defs>

<script type="text/javascript">
var viewWidth = 1081;
var viewHeight = 227;
var sectionId = 'dynsection-0';
</script>
<script xlink:href="../../svgpan.js"/>
<svg id="graph" class="graph">
<g id="viewport">
<title>PPT&#45;GPU/tracing_tool/nvbit/nvbit.h</title>
<polygon fill="white" stroke="transparent" points="-4,4 -4,-223 1076.67,-223 1076.67,4 -4,4"/>
<!-- Node1 -->
<g id="node1" class="node">
<title>Node1</title>
<g id="a_node1"><a xlink:title=" ">
<polygon fill="#bfbfbf" stroke="black" points="328.17,-180.5 328.17,-218.5 489.17,-218.5 489.17,-180.5 328.17,-180.5"/>
<text text-anchor="start" x="336.17" y="-203.3" font-family="Helvetica,sans-Serif" font-size="14.00">PPT&#45;GPU/tracing_tool</text>
<text text-anchor="middle" x="408.67" y="-188.3" font-family="Helvetica,sans-Serif" font-size="14.00">/nvbit/nvbit.h</text>
</a>
</g>
</g>
<!-- Node2 -->
<g id="node2" class="node">
<title>Node2</title>
<g id="a_node2"><a xlink:title=" ">
<polygon fill="white" stroke="#bfbfbf" points="351.67,-0.5 351.67,-23.5 421.67,-23.5 421.67,-0.5 351.67,-0.5"/>
<text text-anchor="middle" x="386.67" y="-8.3" font-family="Helvetica,sans-Serif" font-size="14.00">stdint.h</text>
</a>
</g>
</g>
<!-- Node1&#45;&gt;Node2 -->
<g id="edge1" class="edge">
<title>Node1&#45;&gt;Node2</title>
<path fill="none" stroke="midnightblue" d="M327.83,-199.17C225.3,-198.1 57.04,-189.24 17.67,-144 -74.82,-37.73 224.27,-17.67 341.55,-13.88"/>
<polygon fill="midnightblue" stroke="midnightblue" points="341.77,-17.38 351.66,-13.58 341.56,-10.38 341.77,-17.38"/>
</g>
<!-- Node3 -->
<g id="node3" class="node">
<title>Node3</title>
<g id="a_node3"><a xlink:title=" ">
<polygon fill="white" stroke="#bfbfbf" points="26.67,-120.5 26.67,-143.5 90.67,-143.5 90.67,-120.5 26.67,-120.5"/>
<text text-anchor="middle" x="58.67" y="-128.3" font-family="Helvetica,sans-Serif" font-size="14.00">stdio.h</text>
</a>
</g>
</g>
<!-- Node1&#45;&gt;Node3 -->
<g id="edge2" class="edge">
<title>Node1&#45;&gt;Node3</title>
<path fill="none" stroke="midnightblue" d="M327.94,-186.25C267.75,-176.65 183.37,-162.23 100.65,-144.09"/>
<polygon fill="midnightblue" stroke="midnightblue" points="101.35,-140.66 90.83,-141.91 99.84,-147.49 101.35,-140.66"/>
</g>
<!-- Node4 -->
<g id="node4" class="node">
<title>Node4</title>
<g id="a_node4"><a xlink:title=" ">
<polygon fill="white" stroke="#bfbfbf" points="109.17,-120.5 109.17,-143.5 176.17,-143.5 176.17,-120.5 109.17,-120.5"/>
<text text-anchor="middle" x="142.67" y="-128.3" font-family="Helvetica,sans-Serif" font-size="14.00">cassert</text>
</a>
</g>
</g>
<!-- Node1&#45;&gt;Node4 -->
<g id="edge3" class="edge">
<title>Node1&#45;&gt;Node4</title>
<path fill="none" stroke="midnightblue" d="M334.03,-180.47C293.15,-170.54 241.33,-157.88 186.39,-144.16"/>
<polygon fill="midnightblue" stroke="midnightblue" points="187.01,-140.71 176.46,-141.68 185.31,-147.5 187.01,-140.71"/>
</g>
<!-- Node5 -->
<g id="node5" class="node">
<title>Node5</title>
<g id="a_node5"><a xlink:title=" ">
<polygon fill="white" stroke="#bfbfbf" points="194.67,-120.5 194.67,-143.5 266.67,-143.5 266.67,-120.5 194.67,-120.5"/>
<text text-anchor="middle" x="230.67" y="-128.3" font-family="Helvetica,sans-Serif" font-size="14.00">iomanip</text>
</a>
</g>
</g>
<!-- Node1&#45;&gt;Node5 -->
<g id="edge4" class="edge">
<title>Node1&#45;&gt;Node5</title>
<path fill="none" stroke="midnightblue" d="M359.56,-180.43C331,-169.92 295.53,-156.87 269.03,-147.12"/>
<polygon fill="midnightblue" stroke="midnightblue" points="269.94,-143.72 259.35,-143.55 267.53,-150.29 269.94,-143.72"/>
</g>
<!-- Node6 -->
<g id="node6" class="node">
<title>Node6</title>
<g id="a_node6"><a xlink:title=" ">
<polygon fill="white" stroke="#bfbfbf" points="285.17,-120.5 285.17,-143.5 362.17,-143.5 362.17,-120.5 285.17,-120.5"/>
<text text-anchor="middle" x="323.67" y="-128.3" font-family="Helvetica,sans-Serif" font-size="14.00">iostream</text>
</a>
</g>
</g>
<!-- Node1&#45;&gt;Node6 -->
<g id="edge5" class="edge">
<title>Node1&#45;&gt;Node6</title>
<path fill="none" stroke="midnightblue" d="M384.99,-180.25C372.66,-170.75 357.68,-159.21 345.61,-149.91"/>
<polygon fill="midnightblue" stroke="midnightblue" points="347.47,-146.92 337.42,-143.59 343.2,-152.47 347.47,-146.92"/>
</g>
<!-- Node7 -->
<g id="node7" class="node">
<title>Node7</title>
<g id="a_node7"><a xlink:title=" ">
<polygon fill="white" stroke="#bfbfbf" points="380.17,-120.5 380.17,-143.5 437.17,-143.5 437.17,-120.5 380.17,-120.5"/>
<text text-anchor="middle" x="408.67" y="-128.3" font-family="Helvetica,sans-Serif" font-size="14.00">string</text>
</a>
</g>
</g>
<!-- Node1&#45;&gt;Node7 -->
<g id="edge6" class="edge">
<title>Node1&#45;&gt;Node7</title>
<path fill="none" stroke="midnightblue" d="M408.67,-180.25C408.67,-172.04 408.67,-162.31 408.67,-153.81"/>
<polygon fill="midnightblue" stroke="midnightblue" points="412.17,-153.59 408.67,-143.59 405.17,-153.59 412.17,-153.59"/>
</g>
<!-- Node8 -->
<g id="node8" class="node">
<title>Node8</title>
<g id="a_node8"><a xlink:title=" ">
<polygon fill="white" stroke="#bfbfbf" points="455.67,-120.5 455.67,-143.5 515.67,-143.5 515.67,-120.5 455.67,-120.5"/>
<text text-anchor="middle" x="485.67" y="-128.3" font-family="Helvetica,sans-Serif" font-size="14.00">vector</text>
</a>
</g>
</g>
<!-- Node1&#45;&gt;Node8 -->
<g id="edge7" class="edge">
<title>Node1&#45;&gt;Node8</title>
<path fill="none" stroke="midnightblue" d="M430.12,-180.25C441.18,-170.84 454.6,-159.43 465.48,-150.18"/>
<polygon fill="midnightblue" stroke="midnightblue" points="467.87,-152.74 473.22,-143.59 463.33,-147.41 467.87,-152.74"/>
</g>
<!-- Node9 -->
<g id="node9" class="node">
<title>Node9</title>
<g id="a_node9"><a xlink:href="../../df/d4b/instr__types_8h.html" target="_top" xlink:title=" ">
<polygon fill="white" stroke="black" points="534.17,-120.5 534.17,-143.5 641.17,-143.5 641.17,-120.5 534.17,-120.5"/>
<text text-anchor="middle" x="587.67" y="-128.3" font-family="Helvetica,sans-Serif" font-size="14.00">instr_types.h</text>
</a>
</g>
</g>
<!-- Node1&#45;&gt;Node9 -->
<g id="edge8" class="edge">
<title>Node1&#45;&gt;Node9</title>
<path fill="none" stroke="midnightblue" d="M458.06,-180.43C486.78,-169.92 522.45,-156.87 549.09,-147.12"/>
<polygon fill="midnightblue" stroke="midnightblue" points="550.64,-150.28 558.83,-143.55 548.24,-143.7 550.64,-150.28"/>
</g>
<!-- Node12 -->
<g id="node12" class="node">
<title>Node12</title>
<g id="a_node12"><a xlink:href="../../dc/d1d/tools__cuda__api__meta_8h.html" target="_top" xlink:title=" ">
<polygon fill="white" stroke="black" points="659.17,-120.5 659.17,-143.5 832.17,-143.5 832.17,-120.5 659.17,-120.5"/>
<text text-anchor="middle" x="745.67" y="-128.3" font-family="Helvetica,sans-Serif" font-size="14.00">tools_cuda_api_meta.h</text>
</a>
</g>
</g>
<!-- Node1&#45;&gt;Node12 -->
<g id="edge11" class="edge">
<title>Node1&#45;&gt;Node12</title>
<path fill="none" stroke="midnightblue" d="M489.39,-182.81C548.33,-171.36 627.14,-156.04 681.73,-145.43"/>
<polygon fill="midnightblue" stroke="midnightblue" points="682.49,-148.85 691.64,-143.5 681.15,-141.97 682.49,-148.85"/>
</g>
<!-- Node13 -->
<g id="node13" class="node">
<title>Node13</title>
<g id="a_node13"><a xlink:href="../../dc/d57/cuda_8h.html" target="_top" xlink:title="Header file for the CUDA Toolkit application programming interface.">
<polygon fill="white" stroke="black" points="828.67,-60.5 828.67,-83.5 892.67,-83.5 892.67,-60.5 828.67,-60.5"/>
<text text-anchor="middle" x="860.67" y="-68.3" font-family="Helvetica,sans-Serif" font-size="14.00">cuda.h</text>
</a>
</g>
</g>
<!-- Node1&#45;&gt;Node13 -->
<g id="edge12" class="edge">
<title>Node1&#45;&gt;Node13</title>
<path fill="none" stroke="midnightblue" d="M489.22,-198.77C599.77,-197.43 790.64,-188.51 841.67,-144 855.89,-131.6 860.02,-109.83 860.97,-93.66"/>
<polygon fill="midnightblue" stroke="midnightblue" points="864.48,-93.62 861.21,-83.54 857.48,-93.46 864.48,-93.62"/>
</g>
<!-- Node15 -->
<g id="node15" class="node">
<title>Node15</title>
<g id="a_node15"><a xlink:href="../../d8/d58/generated__cuda__meta_8h.html" target="_top" xlink:title=" ">
<polygon fill="white" stroke="black" points="888.67,-120.5 888.67,-143.5 1072.67,-143.5 1072.67,-120.5 888.67,-120.5"/>
<text text-anchor="middle" x="980.67" y="-128.3" font-family="Helvetica,sans-Serif" font-size="14.00">generated_cuda_meta.h</text>
</a>
</g>
</g>
<!-- Node1&#45;&gt;Node15 -->
<g id="edge15" class="edge">
<title>Node1&#45;&gt;Node15</title>
<path fill="none" stroke="midnightblue" d="M489.41,-189.25C591.39,-177.58 766.97,-157.47 878.27,-144.73"/>
<polygon fill="midnightblue" stroke="midnightblue" points="878.97,-148.17 888.51,-143.55 878.17,-141.21 878.97,-148.17"/>
</g>
<!-- Node10 -->
<g id="node10" class="node">
<title>Node10</title>
<g id="a_node10"><a xlink:title=" ">
<polygon fill="white" stroke="#bfbfbf" points="482.67,-60.5 482.67,-83.5 568.67,-83.5 568.67,-60.5 482.67,-60.5"/>
<text text-anchor="middle" x="525.67" y="-68.3" font-family="Helvetica,sans-Serif" font-size="14.00">inttypes.h</text>
</a>
</g>
</g>
<!-- Node9&#45;&gt;Node10 -->
<g id="edge9" class="edge">
<title>Node9&#45;&gt;Node10</title>
<path fill="none" stroke="midnightblue" d="M576.3,-120.36C567.38,-112.02 554.79,-100.24 544.39,-90.52"/>
<polygon fill="midnightblue" stroke="midnightblue" points="546.66,-87.85 536.97,-83.57 541.88,-92.96 546.66,-87.85"/>
</g>
<!-- Node11 -->
<g id="node11" class="node">
<title>Node11</title>
<g id="a_node11"><a xlink:title=" ">
<polygon fill="white" stroke="#bfbfbf" points="587.17,-60.5 587.17,-83.5 712.17,-83.5 712.17,-60.5 587.17,-60.5"/>
<text text-anchor="middle" x="649.67" y="-68.3" font-family="Helvetica,sans-Serif" font-size="14.00">unordered_map</text>
</a>
</g>
</g>
<!-- Node9&#45;&gt;Node11 -->
<g id="edge10" class="edge">
<title>Node9&#45;&gt;Node11</title>
<path fill="none" stroke="midnightblue" d="M599.04,-120.36C607.96,-112.02 620.55,-100.24 630.95,-90.52"/>
<polygon fill="midnightblue" stroke="midnightblue" points="633.46,-92.96 638.37,-83.57 628.68,-87.85 633.46,-92.96"/>
</g>
<!-- Node13&#45;&gt;Node2 -->
<g id="edge14" class="edge">
<title>Node13&#45;&gt;Node2</title>
<path fill="none" stroke="midnightblue" d="M828.46,-67.06C746.02,-56.97 527.16,-30.19 431.96,-18.54"/>
<polygon fill="midnightblue" stroke="midnightblue" points="432.14,-15.04 421.79,-17.3 431.29,-21.99 432.14,-15.04"/>
</g>
<!-- Node14 -->
<g id="node14" class="node">
<title>Node14</title>
<g id="a_node14"><a xlink:title=" ">
<polygon fill="white" stroke="#bfbfbf" points="826.67,-0.5 826.67,-23.5 894.67,-23.5 894.67,-0.5 826.67,-0.5"/>
<text text-anchor="middle" x="860.67" y="-8.3" font-family="Helvetica,sans-Serif" font-size="14.00">stdlib.h</text>
</a>
</g>
</g>
<!-- Node13&#45;&gt;Node14 -->
<g id="edge13" class="edge">
<title>Node13&#45;&gt;Node14</title>
<path fill="none" stroke="midnightblue" d="M860.67,-60.36C860.67,-52.92 860.67,-42.74 860.67,-33.73"/>
<polygon fill="midnightblue" stroke="midnightblue" points="864.17,-33.57 860.67,-23.57 857.17,-33.57 864.17,-33.57"/>
</g>
<!-- Node15&#45;&gt;Node13 -->
<g id="edge16" class="edge">
<title>Node15&#45;&gt;Node13</title>
<path fill="none" stroke="midnightblue" d="M958.94,-120.5C940.2,-111.44 912.9,-98.25 891.83,-88.06"/>
<polygon fill="midnightblue" stroke="midnightblue" points="893.17,-84.82 882.64,-83.62 890.13,-91.12 893.17,-84.82"/>
</g>
</g>
</svg>
        <g id="navigator" transform="translate(0 0)" fill="#404254">
                <rect fill="#f2f5e9" fill-opacity="0.5" stroke="#606060" stroke-width=".5" x="0" y="0" width="60" height="60"/>
                <use id="zoomplus" xlink:href="#zoomPlus" x="17" y="9" onmousedown="handleZoom(evt,'in')"/>
                <use id="zoomminus" xlink:href="#zoomMin" x="42" y="9" onmousedown="handleZoom(evt,'out')"/>
                <use id="reset" xlink:href="#resetDef" x="30" y="36" onmousedown="handleReset()"/>
                <g id="arrowUp" xlink:href="#dirArrow" transform="translate(30 24)" onmousedown="handlePan(0,-1)">
                  <use xlink:href="#rim" fill="#404040">
                        <set attributeName="fill" to="#808080" begin="arrowUp.mouseover" end="arrowUp.mouseout"/>
                  </use>
                  <path fill="none" stroke="white" stroke-width="1.5" d="M0,-3.0v7 M-2.5,-0.5L0,-3.0L2.5,-0.5"/>
                </g>
                <g id="arrowRight" xlink:href="#dirArrow" transform="rotate(90) translate(36 -43)" onmousedown="handlePan(1,0)">
                  <use xlink:href="#rim" fill="#404040">
                        <set attributeName="fill" to="#808080" begin="arrowRight.mouseover" end="arrowRight.mouseout"/>
                  </use>
                  <path fill="none" stroke="white" stroke-width="1.5" d="M0,-3.0v7 M-2.5,-0.5L0,-3.0L2.5,-0.5"/>
                </g>
                <g id="arrowDown" xlink:href="#dirArrow" transform="rotate(180) translate(-30 -48)" onmousedown="handlePan(0,1)">
                  <use xlink:href="#rim" fill="#404040">
                        <set attributeName="fill" to="#808080" begin="arrowDown.mouseover" end="arrowDown.mouseout"/>
                  </use>
                  <path fill="none" stroke="white" stroke-width="1.5" d="M0,-3.0v7 M-2.5,-0.5L0,-3.0L2.5,-0.5"/>
                </g>
                <g id="arrowLeft" xlink:href="#dirArrow" transform="rotate(270) translate(-36 17)" onmousedown="handlePan(-1,0)">
                  <use xlink:href="#rim" fill="#404040">
                        <set attributeName="fill" to="#808080" begin="arrowLeft.mouseover" end="arrowLeft.mouseout"/>
                  </use>
                  <path fill="none" stroke="white" stroke-width="1.5" d="M0,-3.0v7 M-2.5,-0.5L0,-3.0L2.5,-0.5"/>
                </g>
        </g>
        <svg viewBox="0 0 15 15" width="100%" height="30px" preserveAspectRatio="xMaxYMin meet">
         <g id="arrow_out" transform="scale(0.3 0.3)">
          <a xlink:href="nvbit_8h__incl_org.svg" target="_base">
           <rect id="button" ry="5" rx="5" y="6" x="6" height="38" width="38"
                fill="#f2f5e9" fill-opacity="0.5" stroke="#606060" stroke-width="1.0"/>
           <path id="arrow"
             d="M 11.500037,31.436501 C 11.940474,20.09759 22.043105,11.32322 32.158766,21.979434 L 37.068811,17.246167 C 37.068811,17.246167 37.088388,32 37.088388,32 L 22.160133,31.978069 C 22.160133,31.978069 26.997745,27.140456 26.997745,27.140456 C 18.528582,18.264221 13.291696,25.230495 11.500037,31.436501 z"
             style="fill:#404040;"/>
          </a>
         </g>
        </svg>
</svg>
