<?xml version="1.0" encoding="UTF-8" standalone="no"?>
<!DOCTYPE svg PUBLIC "-//W3C//DTD SVG 1.1//EN"
 "http://www.w3.org/Graphics/SVG/1.1/DTD/svg11.dtd">
<!-- Generated by graphviz version 2.43.0 (0)
 -->
<!-- Title: CUDA_EXTERNAL_SEMAPHORE_SIGNAL_PARAMS_st Pages: 1 -->
<svg width="240pt" height="122pt"
 viewBox="0.00 0.00 240.00 122.00" xmlns="http://www.w3.org/2000/svg" xmlns:xlink="http://www.w3.org/1999/xlink">
<g id="graph0" class="graph" transform="scale(1 1) rotate(0) translate(4 118)">
<title>CUDA_EXTERNAL_SEMAPHORE_SIGNAL_PARAMS_st</title>
<polygon fill="white" stroke="transparent" points="-4,4 -4,-118 236,-118 236,4 -4,4"/>
<!-- Node1 -->
<g id="node1" class="node">
<title>Node1</title>
<g id="a_node1"><a xlink:title=" ">
<polygon fill="#bfbfbf" stroke="black" points="0,-0.5 0,-38.5 232,-38.5 232,-0.5 0,-0.5"/>
<text text-anchor="start" x="8" y="-23.3" font-family="Helvetica,sans-Serif" font-size="14.00">CUDA_EXTERNAL_SEMAPHORE</text>
<text text-anchor="middle" x="116" y="-8.3" font-family="Helvetica,sans-Serif" font-size="14.00">_SIGNAL_PARAMS_st</text>
</a>
</g>
</g>
<!-- Node2 -->
<g id="node2" class="node">
<title>Node2</title>
<g id="a_node2"><a xlink:title=" ">
<polygon fill="white" stroke="#bfbfbf" points="87.5,-90.5 87.5,-113.5 144.5,-113.5 144.5,-90.5 87.5,-90.5"/>
<text text-anchor="middle" x="116" y="-98.3" font-family="Helvetica,sans-Serif" font-size="14.00">struct</text>
</a>
</g>
</g>
<!-- Node2&#45;&gt;Node1 -->
<g id="edge1" class="edge">
<title>Node2&#45;&gt;Node1</title>
<path fill="none" stroke="#9a32cd" stroke-dasharray="5,2" d="M116,-80.28C116,-67.43 116,-51.07 116,-38.72"/>
<polygon fill="#9a32cd" stroke="#9a32cd" points="112.5,-80.48 116,-90.48 119.5,-80.48 112.5,-80.48"/>
<text text-anchor="middle" x="145" y="-60.8" font-family="Helvetica,sans-Serif" font-size="14.00"> params</text>
</g>
</g>
</svg>
