<?xml version="1.0" encoding="UTF-8" standalone="no"?>
<!DOCTYPE svg PUBLIC "-//W3C//DTD SVG 1.1//EN"
 "http://www.w3.org/Graphics/SVG/1.1/DTD/svg11.dtd">
<!-- Generated by graphviz version 2.43.0 (0)
 -->
<!-- Title: PPT&#45;GPU/reuse_distance_tool/narray.h Pages: 1 -->
<svg width="1003pt" height="272pt"
 viewBox="0.00 0.00 1003.00 272.00" xmlns="http://www.w3.org/2000/svg" xmlns:xlink="http://www.w3.org/1999/xlink">
<g id="graph0" class="graph" transform="scale(1 1) rotate(0) translate(4 268)">
<title>PPT&#45;GPU/reuse_distance_tool/narray.h</title>
<polygon fill="white" stroke="transparent" points="-4,4 -4,-268 999,-268 999,4 -4,4"/>
<!-- Node1 -->
<g id="node1" class="node">
<title>Node1</title>
<g id="a_node1"><a xlink:title=" ">
<polygon fill="#bfbfbf" stroke="black" points="692,-225.5 692,-263.5 875,-263.5 875,-225.5 692,-225.5"/>
<text text-anchor="start" x="700" y="-248.3" font-family="Helvetica,sans-Serif" font-size="14.00">PPT&#45;GPU/reuse_distance</text>
<text text-anchor="middle" x="783.5" y="-233.3" font-family="Helvetica,sans-Serif" font-size="14.00">_tool/narray.h</text>
</a>
</g>
</g>
<!-- Node2 -->
<g id="node2" class="node">
<title>Node2</title>
<g id="a_node2"><a xlink:href="../../d0/dbf/parda_8h.html" target="_top" xlink:title=" ">
<polygon fill="white" stroke="black" points="481,-150.5 481,-188.5 664,-188.5 664,-150.5 481,-150.5"/>
<text text-anchor="start" x="489" y="-173.3" font-family="Helvetica,sans-Serif" font-size="14.00">PPT&#45;GPU/reuse_distance</text>
<text text-anchor="middle" x="572.5" y="-158.3" font-family="Helvetica,sans-Serif" font-size="14.00">_tool/parda.h</text>
</a>
</g>
</g>
<!-- Node1&#45;&gt;Node2 -->
<g id="edge1" class="edge">
<title>Node1&#45;&gt;Node2</title>
<path fill="none" stroke="midnightblue" d="M721.59,-222.08C690.84,-211.44 654.1,-198.73 624.79,-188.59"/>
<polygon fill="midnightblue" stroke="midnightblue" points="720.75,-225.49 731.34,-225.46 723.04,-218.88 720.75,-225.49"/>
</g>
<!-- Node6 -->
<g id="node6" class="node">
<title>Node6</title>
<g id="a_node6"><a xlink:href="../../d0/d96/parda_8c.html" target="_top" xlink:title=" ">
<polygon fill="white" stroke="black" points="783,-75.5 783,-113.5 966,-113.5 966,-75.5 783,-75.5"/>
<text text-anchor="start" x="791" y="-98.3" font-family="Helvetica,sans-Serif" font-size="14.00">PPT&#45;GPU/reuse_distance</text>
<text text-anchor="middle" x="874.5" y="-83.3" font-family="Helvetica,sans-Serif" font-size="14.00">_tool/parda.c</text>
</a>
</g>
</g>
<!-- Node1&#45;&gt;Node6 -->
<g id="edge11" class="edge">
<title>Node1&#45;&gt;Node6</title>
<path fill="none" stroke="midnightblue" d="M784.48,-215.08C786.32,-195.48 791.16,-169.54 803.5,-150 812.88,-135.15 827.81,-122.8 841.57,-113.62"/>
<polygon fill="midnightblue" stroke="midnightblue" points="780.98,-215 783.74,-225.23 787.96,-215.52 780.98,-215"/>
</g>
<!-- Node10 -->
<g id="node10" class="node">
<title>Node10</title>
<g id="a_node10"><a xlink:href="../../dc/dce/narray_8c.html" target="_top" xlink:title=" ">
<polygon fill="white" stroke="black" points="812,-150.5 812,-188.5 995,-188.5 995,-150.5 812,-150.5"/>
<text text-anchor="start" x="820" y="-173.3" font-family="Helvetica,sans-Serif" font-size="14.00">PPT&#45;GPU/reuse_distance</text>
<text text-anchor="middle" x="903.5" y="-158.3" font-family="Helvetica,sans-Serif" font-size="14.00">_tool/narray.c</text>
</a>
</g>
</g>
<!-- Node1&#45;&gt;Node10 -->
<g id="edge10" class="edge">
<title>Node1&#45;&gt;Node10</title>
<path fill="none" stroke="midnightblue" d="M822.16,-219.98C838.89,-209.8 858.17,-198.07 873.76,-188.59"/>
<polygon fill="midnightblue" stroke="midnightblue" points="819.89,-217.27 813.16,-225.46 823.53,-223.25 819.89,-217.27"/>
</g>
<!-- Node3 -->
<g id="node3" class="node">
<title>Node3</title>
<g id="a_node3"><a xlink:href="../../d0/d29/main_8c.html" target="_top" xlink:title=" ">
<polygon fill="white" stroke="black" points="0,-0.5 0,-38.5 183,-38.5 183,-0.5 0,-0.5"/>
<text text-anchor="start" x="8" y="-23.3" font-family="Helvetica,sans-Serif" font-size="14.00">PPT&#45;GPU/reuse_distance</text>
<text text-anchor="middle" x="91.5" y="-8.3" font-family="Helvetica,sans-Serif" font-size="14.00">_tool/main.c</text>
</a>
</g>
</g>
<!-- Node2&#45;&gt;Node3 -->
<g id="edge2" class="edge">
<title>Node2&#45;&gt;Node3</title>
<path fill="none" stroke="midnightblue" d="M470.58,-163C368.84,-156.05 220.62,-141.51 170.5,-114 138.64,-96.51 114.1,-60.67 101.31,-38.8"/>
<polygon fill="midnightblue" stroke="midnightblue" points="470.37,-166.49 480.58,-163.67 470.84,-159.51 470.37,-166.49"/>
</g>
<!-- Node4 -->
<g id="node4" class="node">
<title>Node4</title>
<g id="a_node4"><a xlink:href="../../de/dfb/seperate_8h.html" target="_top" xlink:title=" ">
<polygon fill="white" stroke="black" points="180,-75.5 180,-113.5 363,-113.5 363,-75.5 180,-75.5"/>
<text text-anchor="start" x="188" y="-98.3" font-family="Helvetica,sans-Serif" font-size="14.00">PPT&#45;GPU/reuse_distance</text>
<text text-anchor="middle" x="271.5" y="-83.3" font-family="Helvetica,sans-Serif" font-size="14.00">_tool/seperate.h</text>
</a>
</g>
</g>
<!-- Node2&#45;&gt;Node4 -->
<g id="edge3" class="edge">
<title>Node2&#45;&gt;Node4</title>
<path fill="none" stroke="midnightblue" d="M488.12,-148.04C443.4,-137.19 388.95,-123.98 345.83,-113.53"/>
<polygon fill="midnightblue" stroke="midnightblue" points="487.55,-151.5 498.1,-150.46 489.2,-144.7 487.55,-151.5"/>
</g>
<!-- Node2&#45;&gt;Node6 -->
<g id="edge6" class="edge">
<title>Node2&#45;&gt;Node6</title>
<path fill="none" stroke="midnightblue" d="M656.87,-148.11C701.8,-137.25 756.57,-124.01 799.92,-113.53"/>
<polygon fill="midnightblue" stroke="midnightblue" points="656.05,-144.7 647.15,-150.46 657.69,-151.51 656.05,-144.7"/>
</g>
<!-- Node7 -->
<g id="node7" class="node">
<title>Node7</title>
<g id="a_node7"><a xlink:href="../../d5/d13/parda__omp_8h.html" target="_top" xlink:title=" ">
<polygon fill="white" stroke="black" points="381,-75.5 381,-113.5 564,-113.5 564,-75.5 381,-75.5"/>
<text text-anchor="start" x="389" y="-98.3" font-family="Helvetica,sans-Serif" font-size="14.00">PPT&#45;GPU/reuse_distance</text>
<text text-anchor="middle" x="472.5" y="-83.3" font-family="Helvetica,sans-Serif" font-size="14.00">_tool/parda_omp.h</text>
</a>
</g>
</g>
<!-- Node2&#45;&gt;Node7 -->
<g id="edge7" class="edge">
<title>Node2&#45;&gt;Node7</title>
<path fill="none" stroke="midnightblue" d="M539.51,-144.42C525.75,-134.37 510.03,-122.9 497.28,-113.59"/>
<polygon fill="midnightblue" stroke="midnightblue" points="537.64,-147.39 547.78,-150.46 541.77,-141.73 537.64,-147.39"/>
</g>
<!-- Node9 -->
<g id="node9" class="node">
<title>Node9</title>
<g id="a_node9"><a xlink:href="../../dd/dad/parda__print_8c.html" target="_top" xlink:title=" ">
<polygon fill="white" stroke="black" points="582,-75.5 582,-113.5 765,-113.5 765,-75.5 582,-75.5"/>
<text text-anchor="start" x="590" y="-98.3" font-family="Helvetica,sans-Serif" font-size="14.00">PPT&#45;GPU/reuse_distance</text>
<text text-anchor="middle" x="673.5" y="-83.3" font-family="Helvetica,sans-Serif" font-size="14.00">_tool/parda_print.c</text>
</a>
</g>
</g>
<!-- Node2&#45;&gt;Node9 -->
<g id="edge9" class="edge">
<title>Node2&#45;&gt;Node9</title>
<path fill="none" stroke="midnightblue" d="M605.82,-144.42C619.72,-134.37 635.59,-122.9 648.47,-113.59"/>
<polygon fill="midnightblue" stroke="midnightblue" points="603.52,-141.76 597.47,-150.46 607.62,-147.43 603.52,-141.76"/>
</g>
<!-- Node4&#45;&gt;Node3 -->
<g id="edge4" class="edge">
<title>Node4&#45;&gt;Node3</title>
<path fill="none" stroke="midnightblue" d="M217.66,-71.66C191.64,-61.11 160.79,-48.6 136.11,-38.59"/>
<polygon fill="midnightblue" stroke="midnightblue" points="216.42,-74.94 227.01,-75.46 219.05,-68.45 216.42,-74.94"/>
</g>
<!-- Node5 -->
<g id="node5" class="node">
<title>Node5</title>
<g id="a_node5"><a xlink:href="../../dc/d40/seperate_8c.html" target="_top" xlink:title=" ">
<polygon fill="white" stroke="black" points="201,-0.5 201,-38.5 384,-38.5 384,-0.5 201,-0.5"/>
<text text-anchor="start" x="209" y="-23.3" font-family="Helvetica,sans-Serif" font-size="14.00">PPT&#45;GPU/reuse_distance</text>
<text text-anchor="middle" x="292.5" y="-8.3" font-family="Helvetica,sans-Serif" font-size="14.00">_tool/seperate.c</text>
</a>
</g>
</g>
<!-- Node4&#45;&gt;Node5 -->
<g id="edge5" class="edge">
<title>Node4&#45;&gt;Node5</title>
<path fill="none" stroke="midnightblue" d="M279.51,-65.66C282.12,-56.59 284.95,-46.76 287.3,-38.59"/>
<polygon fill="midnightblue" stroke="midnightblue" points="276.09,-64.88 276.69,-75.46 282.82,-66.81 276.09,-64.88"/>
</g>
<!-- Node8 -->
<g id="node8" class="node">
<title>Node8</title>
<g id="a_node8"><a xlink:href="../../d0/d82/parda__omp_8c.html" target="_top" xlink:title=" ">
<polygon fill="white" stroke="black" points="402,-0.5 402,-38.5 585,-38.5 585,-0.5 402,-0.5"/>
<text text-anchor="start" x="410" y="-23.3" font-family="Helvetica,sans-Serif" font-size="14.00">PPT&#45;GPU/reuse_distance</text>
<text text-anchor="middle" x="493.5" y="-8.3" font-family="Helvetica,sans-Serif" font-size="14.00">_tool/parda_omp.c</text>
</a>
</g>
</g>
<!-- Node7&#45;&gt;Node8 -->
<g id="edge8" class="edge">
<title>Node7&#45;&gt;Node8</title>
<path fill="none" stroke="midnightblue" d="M480.51,-65.66C483.12,-56.59 485.95,-46.76 488.3,-38.59"/>
<polygon fill="midnightblue" stroke="midnightblue" points="477.09,-64.88 477.69,-75.46 483.82,-66.81 477.09,-64.88"/>
</g>
</g>
</svg>
