<?xml version="1.0" encoding="UTF-8" standalone="no"?>
<!DOCTYPE svg PUBLIC "-//W3C//DTD SVG 1.1//EN"
 "http://www.w3.org/Graphics/SVG/1.1/DTD/svg11.dtd">
<!-- Generated by graphviz version 2.43.0 (0)
 -->
<!-- Title: exec Pages: 1 -->
<svg width="527pt" height="52pt"
 viewBox="0.00 0.00 527.00 52.00" xmlns="http://www.w3.org/2000/svg" xmlns:xlink="http://www.w3.org/1999/xlink">
<g id="graph0" class="graph" transform="scale(1 1) rotate(0) translate(4 48)">
<title>exec</title>
<polygon fill="white" stroke="transparent" points="-4,4 -4,-48 523,-48 523,4 -4,4"/>
<!-- Node1 -->
<g id="node1" class="node">
<title>Node1</title>
<g id="a_node1"><a xlink:title=" ">
<polygon fill="#bfbfbf" stroke="black" points="471,-0.5 471,-23.5 519,-23.5 519,-0.5 471,-0.5"/>
<text text-anchor="middle" x="495" y="-8.3" font-family="Helvetica,sans-Serif" font-size="14.00">exec</text>
</a>
</g>
</g>
<!-- Node2 -->
<g id="node2" class="node">
<title>Node2</title>
<g id="a_node2"><a xlink:href="../../df/d50/fluxDevicePass_8cpp.html#a2ac711460e8e656c38736b76db7c9e92" target="_top" xlink:title=" ">
<polygon fill="white" stroke="black" points="263,-20.5 263,-43.5 435,-43.5 435,-20.5 263,-20.5"/>
<text text-anchor="middle" x="349" y="-28.3" font-family="Helvetica,sans-Serif" font-size="14.00">ptxInstructionAnalysis</text>
</a>
</g>
</g>
<!-- Node1&#45;&gt;Node2 -->
<g id="edge1" class="edge">
<title>Node1&#45;&gt;Node2</title>
<path fill="none" stroke="midnightblue" d="M460.72,-16.62C452.23,-17.8 442.72,-19.12 432.94,-20.48"/>
<polygon fill="midnightblue" stroke="midnightblue" points="461.44,-20.06 470.86,-15.21 460.48,-13.12 461.44,-20.06"/>
</g>
<!-- Node3 -->
<g id="node3" class="node">
<title>Node3</title>
<g id="a_node3"><a xlink:href="../../d8/d73/structFluxDevicePass.html#a7f76b1ede2deac3e76586fdc4f227aa7" target="_top" xlink:title=" ">
<polygon fill="white" stroke="black" points="0,-0.5 0,-23.5 227,-23.5 227,-0.5 0,-0.5"/>
<text text-anchor="middle" x="113.5" y="-8.3" font-family="Helvetica,sans-Serif" font-size="14.00">FluxDevicePass::runOnModule</text>
</a>
</g>
</g>
<!-- Node1&#45;&gt;Node3 -->
<g id="edge3" class="edge">
<title>Node1&#45;&gt;Node3</title>
<path fill="none" stroke="midnightblue" d="M460.57,-11.33C452.22,-11.2 443.28,-11.07 435,-11 366.01,-10.42 288.65,-10.63 227.23,-11.01"/>
<polygon fill="midnightblue" stroke="midnightblue" points="460.68,-14.84 470.74,-11.51 460.81,-7.84 460.68,-14.84"/>
</g>
<!-- Node2&#45;&gt;Node3 -->
<g id="edge2" class="edge">
<title>Node2&#45;&gt;Node3</title>
<path fill="none" stroke="midnightblue" d="M252.56,-23.82C244.16,-23.11 235.61,-22.37 227.09,-21.64"/>
<polygon fill="midnightblue" stroke="midnightblue" points="252.45,-27.33 262.71,-24.69 253.05,-20.35 252.45,-27.33"/>
</g>
</g>
</svg>
