<?xml version="1.0" encoding="UTF-8" standalone="no"?>
<!DOCTYPE svg PUBLIC "-//W3C//DTD SVG 1.1//EN"
 "http://www.w3.org/Graphics/SVG/1.1/DTD/svg11.dtd">
<!-- Generated by graphviz version 2.43.0 (0)
 -->
<!-- Title: ptxInstructionAnalysis Pages: 1 -->
<!--zoomable 284 -->
<svg id="main" version="1.1" xmlns="http://www.w3.org/2000/svg" xmlns:xlink="http://www.w3.org/1999/xlink" xml:space="preserve" onload="init(evt)">
<style type="text/css"><![CDATA[
.edge:hover path { stroke: red; }
.edge:hover polygon { stroke: red; fill: red; }
]]></style>
<script type="text/javascript"><![CDATA[
var edges = document.getElementsByTagName('g');
if (edges && edges.length) {
  for (var i=0;i<edges.length;i++) {
    if (edges[i].id.substr(0,4)=='edge') {
      edges[i].setAttribute('class','edge');
    }
  }
}
]]></script>
        <defs>
                <circle id="rim" cx="0" cy="0" r="7"/>
                <circle id="rim2" cx="0" cy="0" r="3.5"/>
                <g id="zoomPlus">
                        <use xlink:href="#rim" fill="#404040">
                                <set attributeName="fill" to="#808080" begin="zoomplus.mouseover" end="zoomplus.mouseout"/>
                        </use>
                        <path d="M-4,0h8M0,-4v8" fill="none" stroke="white" stroke-width="1.5" pointer-events="none"/>
                </g>
                <g id="zoomMin">
                        <use xlink:href="#rim" fill="#404040">
                                <set attributeName="fill" to="#808080" begin="zoomminus.mouseover" end="zoomminus.mouseout"/>
                        </use>
                        <path d="M-4,0h8" fill="none" stroke="white" stroke-width="1.5" pointer-events="none"/>
                </g>
                <g id="dirArrow">
                        <path fill="none" stroke="white" stroke-width="1.5" d="M0,-3.0v7 M-2.5,-0.5L0,-3.0L2.5,-0.5"/>
                </g>
               <g id="resetDef">
                       <use xlink:href="#rim2" fill="#404040">
                               <set attributeName="fill" to="#808080" begin="reset.mouseover" end="reset.mouseout"/>
                       </use>
               </g>
        </defs>

<script type="text/javascript">
var viewWidth = 640;
var viewHeight = 284;
var sectionId = 'dynsection-4';
</script>
<script xlink:href="../../svgpan.js"/>
<svg id="graph" class="graph">
<g id="viewport">
<title>ptxInstructionAnalysis</title>
<polygon fill="white" stroke="transparent" points="-4,4 -4,-280 636,-280 636,4 -4,4"/>
<!-- Node1 -->
<g id="node1" class="node">
<title>Node1</title>
<g id="a_node1"><a xlink:title=" ">
<polygon fill="#bfbfbf" stroke="black" points="0,-126.5 0,-149.5 172,-149.5 172,-126.5 0,-126.5"/>
<text text-anchor="middle" x="86" y="-134.3" font-family="Helvetica,sans-Serif" font-size="14.00">ptxInstructionAnalysis</text>
</a>
</g>
</g>
<!-- Node2 -->
<g id="node2" class="node">
<title>Node2</title>
<g id="a_node2"><a xlink:href="../../d3/dcd/namespacemekong.html#a96bab515b21a605171ce9159c92df460" target="_top" xlink:title=" ">
<polygon fill="white" stroke="black" points="208,-252.5 208,-275.5 417,-275.5 417,-252.5 208,-252.5"/>
<text text-anchor="middle" x="312.5" y="-260.3" font-family="Helvetica,sans-Serif" font-size="14.00">mekong::dumpModuleToFile</text>
</a>
</g>
</g>
<!-- Node1&#45;&gt;Node2 -->
<g id="edge1" class="edge">
<title>Node1&#45;&gt;Node2</title>
<path fill="none" stroke="midnightblue" d="M96.63,-149.64C115.52,-171.65 159.84,-219.29 208,-243 212.83,-245.38 217.92,-247.49 223.14,-249.36"/>
<polygon fill="midnightblue" stroke="midnightblue" points="222.05,-252.69 232.64,-252.47 224.23,-246.03 222.05,-252.69"/>
</g>
<!-- Node3 -->
<g id="node3" class="node">
<title>Node3</title>
<g id="a_node3"><a xlink:href="../../df/d50/fluxDevicePass_8cpp.html#a43b669bccb8bce8ea862a58a9dc116bd" target="_top" xlink:title=" ">
<polygon fill="white" stroke="black" points="288.5,-210.5 288.5,-233.5 336.5,-233.5 336.5,-210.5 288.5,-210.5"/>
<text text-anchor="middle" x="312.5" y="-218.3" font-family="Helvetica,sans-Serif" font-size="14.00">exec</text>
</a>
</g>
</g>
<!-- Node1&#45;&gt;Node3 -->
<g id="edge2" class="edge">
<title>Node1&#45;&gt;Node3</title>
<path fill="none" stroke="midnightblue" d="M105.13,-149.51C128.18,-163.64 169.6,-187.41 208,-201 230.81,-209.07 257.62,-214.4 278.23,-217.67"/>
<polygon fill="midnightblue" stroke="midnightblue" points="277.98,-221.18 288.39,-219.2 279.02,-214.25 277.98,-221.18"/>
</g>
<!-- Node4 -->
<g id="node4" class="node">
<title>Node4</title>
<g id="a_node4"><a xlink:href="../../d3/dcd/namespacemekong.html#a51a6949c9e5f60d1635f94ef386d397f" target="_top" xlink:title="===&#45;&#45;&#45;&#45;&#45;&#45;&#45;&#45;&#45;&#45;&#45;&#45;&#45;&#45;&#45;&#45;&#45;&#45;&#45;&#45;&#45;&#45;&#45;&#45;&#45;&#45;&#45;&#45;&#45;&#45;&#45;&#45;&#45;&#45;&#45;&#45;&#45;&#45;&#45;&#45;&#45;&#45;&#45;&#45;&#45;&#45;&#45;&#45;&#45;&#45;&#45;&#45;&#45;&#45;&#45;&#45;&#45;&#45;&#45;&#45;&#45;&#45;&#45;—===// Analysis Functions ===&#45;&#45;&#45;&#45;&#45;&#45;...">
<polygon fill="white" stroke="black" points="235.5,-168.5 235.5,-191.5 389.5,-191.5 389.5,-168.5 235.5,-168.5"/>
<text text-anchor="middle" x="312.5" y="-176.3" font-family="Helvetica,sans-Serif" font-size="14.00">mekong::getKernels</text>
</a>
</g>
</g>
<!-- Node1&#45;&gt;Node4 -->
<g id="edge3" class="edge">
<title>Node1&#45;&gt;Node4</title>
<path fill="none" stroke="midnightblue" d="M148.64,-149.53C176.86,-154.81 210.47,-161.1 239.81,-166.59"/>
<polygon fill="midnightblue" stroke="midnightblue" points="239.52,-170.09 249.99,-168.49 240.81,-163.21 239.52,-170.09"/>
</g>
<!-- Node5 -->
<g id="node5" class="node">
<title>Node5</title>
<g id="a_node5"><a xlink:href="../../d3/dcd/namespacemekong.html#a4d2a109ee246b5b72d6f02bd022443d0" target="_top" xlink:title="===&#45;&#45;&#45;&#45;&#45;&#45;&#45;&#45;&#45;&#45;&#45;&#45;&#45;&#45;&#45;&#45;&#45;&#45;&#45;&#45;&#45;&#45;&#45;&#45;&#45;&#45;&#45;&#45;&#45;&#45;&#45;&#45;&#45;&#45;&#45;&#45;&#45;&#45;&#45;&#45;&#45;&#45;&#45;&#45;&#45;&#45;&#45;&#45;&#45;&#45;&#45;&#45;&#45;&#45;&#45;&#45;&#45;&#45;&#45;&#45;&#45;&#45;&#45;—===// Utility Functions ===&#45;&#45;&#45;&#45;&#45;&#45;&#45;...">
<polygon fill="white" stroke="black" points="216,-126.5 216,-149.5 409,-149.5 409,-126.5 216,-126.5"/>
<text text-anchor="middle" x="312.5" y="-134.3" font-family="Helvetica,sans-Serif" font-size="14.00">mekong::getModulePrefix</text>
</a>
</g>
</g>
<!-- Node1&#45;&gt;Node5 -->
<g id="edge4" class="edge">
<title>Node1&#45;&gt;Node5</title>
<path fill="none" stroke="midnightblue" d="M172.19,-138C183.12,-138 194.4,-138 205.6,-138"/>
<polygon fill="midnightblue" stroke="midnightblue" points="205.85,-141.5 215.85,-138 205.85,-134.5 205.85,-141.5"/>
</g>
<!-- Node7 -->
<g id="node7" class="node">
<title>Node7</title>
<g id="a_node7"><a xlink:href="../../d3/dcd/namespacemekong.html#a3b07cd56e0e49b51928468d8b403d04d" target="_top" xlink:title=" ">
<polygon fill="white" stroke="black" points="221.5,-84.5 221.5,-107.5 403.5,-107.5 403.5,-84.5 221.5,-84.5"/>
<text text-anchor="middle" x="312.5" y="-92.3" font-family="Helvetica,sans-Serif" font-size="14.00">mekong::lexicalAnalysis</text>
</a>
</g>
</g>
<!-- Node1&#45;&gt;Node7 -->
<g id="edge6" class="edge">
<title>Node1&#45;&gt;Node7</title>
<path fill="none" stroke="midnightblue" d="M148.64,-126.47C176.86,-121.19 210.47,-114.9 239.81,-109.41"/>
<polygon fill="midnightblue" stroke="midnightblue" points="240.81,-112.79 249.99,-107.51 239.52,-105.91 240.81,-112.79"/>
</g>
<!-- Node8 -->
<g id="node8" class="node">
<title>Node8</title>
<g id="a_node8"><a xlink:href="../../da/de5/hostRuntime_8cpp.html#a5cea9cb5a5e08d11f5e41f8ca34d9e53" target="_top" xlink:title=" ">
<polygon fill="white" stroke="black" points="282.5,-42.5 282.5,-65.5 342.5,-65.5 342.5,-42.5 282.5,-42.5"/>
<text text-anchor="middle" x="312.5" y="-50.3" font-family="Helvetica,sans-Serif" font-size="14.00">outfile</text>
</a>
</g>
</g>
<!-- Node1&#45;&gt;Node8 -->
<g id="edge7" class="edge">
<title>Node1&#45;&gt;Node8</title>
<path fill="none" stroke="midnightblue" d="M105.13,-126.49C128.18,-112.36 169.6,-88.59 208,-75 228.66,-67.69 252.59,-62.63 272.23,-59.31"/>
<polygon fill="midnightblue" stroke="midnightblue" points="273.04,-62.72 282.36,-57.68 271.93,-55.81 273.04,-62.72"/>
</g>
<!-- Node9 -->
<g id="node9" class="node">
<title>Node9</title>
<g id="a_node9"><a xlink:href="../../d3/dcd/namespacemekong.html#a2ffe7a5f9b1a44da5f20c80b3fc39c0c" target="_top" xlink:title=" ">
<polygon fill="white" stroke="black" points="252.5,-0.5 252.5,-23.5 372.5,-23.5 372.5,-0.5 252.5,-0.5"/>
<text text-anchor="middle" x="312.5" y="-8.3" font-family="Helvetica,sans-Serif" font-size="14.00">mekong::parse</text>
</a>
</g>
</g>
<!-- Node1&#45;&gt;Node9 -->
<g id="edge8" class="edge">
<title>Node1&#45;&gt;Node9</title>
<path fill="none" stroke="midnightblue" d="M96.63,-126.36C115.52,-104.35 159.84,-56.71 208,-33 218.67,-27.75 230.57,-23.81 242.4,-20.86"/>
<polygon fill="midnightblue" stroke="midnightblue" points="243.32,-24.24 252.29,-18.6 241.76,-17.41 243.32,-24.24"/>
</g>
<!-- Node6 -->
<g id="node6" class="node">
<title>Node6</title>
<g id="a_node6"><a xlink:href="../../da/d38/x65599_8h.html#abc38f406ef9bc26963ae3e5e8220d60d" target="_top" xlink:title=" ">
<polygon fill="white" stroke="black" points="485.5,-126.5 485.5,-149.5 599.5,-149.5 599.5,-126.5 485.5,-126.5"/>
<text text-anchor="middle" x="542.5" y="-134.3" font-family="Helvetica,sans-Serif" font-size="14.00">generateHash</text>
</a>
</g>
</g>
<!-- Node5&#45;&gt;Node6 -->
<g id="edge5" class="edge">
<title>Node5&#45;&gt;Node6</title>
<path fill="none" stroke="midnightblue" d="M409.2,-138C431.41,-138 454.56,-138 475.18,-138"/>
<polygon fill="midnightblue" stroke="midnightblue" points="475.4,-141.5 485.4,-138 475.4,-134.5 475.4,-141.5"/>
</g>
<!-- Node10 -->
<g id="node10" class="node">
<title>Node10</title>
<g id="a_node10"><a xlink:href="../../d3/dcd/namespacemekong.html#ab00b89dec5d437648073ae49182698c4" target="_top" xlink:title=" ">
<polygon fill="white" stroke="black" points="453,-0.5 453,-23.5 632,-23.5 632,-0.5 453,-0.5"/>
<text text-anchor="middle" x="542.5" y="-8.3" font-family="Helvetica,sans-Serif" font-size="14.00">mekong::parseFunction</text>
</a>
</g>
</g>
<!-- Node9&#45;&gt;Node10 -->
<g id="edge9" class="edge">
<title>Node9&#45;&gt;Node10</title>
<path fill="none" stroke="midnightblue" d="M372.51,-12C393.87,-12 418.62,-12 442.47,-12"/>
<polygon fill="midnightblue" stroke="midnightblue" points="442.63,-15.5 452.63,-12 442.63,-8.5 442.63,-15.5"/>
</g>
</g>
</svg>
        <g id="navigator" transform="translate(0 0)" fill="#404254">
                <rect fill="#f2f5e9" fill-opacity="0.5" stroke="#606060" stroke-width=".5" x="0" y="0" width="60" height="60"/>
                <use id="zoomplus" xlink:href="#zoomPlus" x="17" y="9" onmousedown="handleZoom(evt,'in')"/>
                <use id="zoomminus" xlink:href="#zoomMin" x="42" y="9" onmousedown="handleZoom(evt,'out')"/>
                <use id="reset" xlink:href="#resetDef" x="30" y="36" onmousedown="handleReset()"/>
                <g id="arrowUp" xlink:href="#dirArrow" transform="translate(30 24)" onmousedown="handlePan(0,-1)">
                  <use xlink:href="#rim" fill="#404040">
                        <set attributeName="fill" to="#808080" begin="arrowUp.mouseover" end="arrowUp.mouseout"/>
                  </use>
                  <path fill="none" stroke="white" stroke-width="1.5" d="M0,-3.0v7 M-2.5,-0.5L0,-3.0L2.5,-0.5"/>
                </g>
                <g id="arrowRight" xlink:href="#dirArrow" transform="rotate(90) translate(36 -43)" onmousedown="handlePan(1,0)">
                  <use xlink:href="#rim" fill="#404040">
                        <set attributeName="fill" to="#808080" begin="arrowRight.mouseover" end="arrowRight.mouseout"/>
                  </use>
                  <path fill="none" stroke="white" stroke-width="1.5" d="M0,-3.0v7 M-2.5,-0.5L0,-3.0L2.5,-0.5"/>
                </g>
                <g id="arrowDown" xlink:href="#dirArrow" transform="rotate(180) translate(-30 -48)" onmousedown="handlePan(0,1)">
                  <use xlink:href="#rim" fill="#404040">
                        <set attributeName="fill" to="#808080" begin="arrowDown.mouseover" end="arrowDown.mouseout"/>
                  </use>
                  <path fill="none" stroke="white" stroke-width="1.5" d="M0,-3.0v7 M-2.5,-0.5L0,-3.0L2.5,-0.5"/>
                </g>
                <g id="arrowLeft" xlink:href="#dirArrow" transform="rotate(270) translate(-36 17)" onmousedown="handlePan(-1,0)">
                  <use xlink:href="#rim" fill="#404040">
                        <set attributeName="fill" to="#808080" begin="arrowLeft.mouseover" end="arrowLeft.mouseout"/>
                  </use>
                  <path fill="none" stroke="white" stroke-width="1.5" d="M0,-3.0v7 M-2.5,-0.5L0,-3.0L2.5,-0.5"/>
                </g>
        </g>
        <svg viewBox="0 0 15 15" width="100%" height="30px" preserveAspectRatio="xMaxYMin meet">
         <g id="arrow_out" transform="scale(0.3 0.3)">
          <a xlink:href="fluxDevicePass_8cpp_a2ac711460e8e656c38736b76db7c9e92_cgraph_org.svg" target="_base">
           <rect id="button" ry="5" rx="5" y="6" x="6" height="38" width="38"
                fill="#f2f5e9" fill-opacity="0.5" stroke="#606060" stroke-width="1.0"/>
           <path id="arrow"
             d="M 11.500037,31.436501 C 11.940474,20.09759 22.043105,11.32322 32.158766,21.979434 L 37.068811,17.246167 C 37.068811,17.246167 37.088388,32 37.088388,32 L 22.160133,31.978069 C 22.160133,31.978069 26.997745,27.140456 26.997745,27.140456 C 18.528582,18.264221 13.291696,25.230495 11.500037,31.436501 z"
             style="fill:#404040;"/>
          </a>
         </g>
        </svg>
</svg>
