<?xml version="1.0" encoding="UTF-8" standalone="no"?>
<!DOCTYPE svg PUBLIC "-//W3C//DTD SVG 1.1//EN"
 "http://www.w3.org/Graphics/SVG/1.1/DTD/svg11.dtd">
<!-- Generated by graphviz version 2.43.0 (0)
 -->
<!-- Title: basicBlockInstrumentation Pages: 1 -->
<svg width="450pt" height="158pt"
 viewBox="0.00 0.00 450.00 158.00" xmlns="http://www.w3.org/2000/svg" xmlns:xlink="http://www.w3.org/1999/xlink">
<g id="graph0" class="graph" transform="scale(1 1) rotate(0) translate(4 154)">
<title>basicBlockInstrumentation</title>
<polygon fill="white" stroke="transparent" points="-4,4 -4,-154 446,-154 446,4 -4,4"/>
<!-- Node1 -->
<g id="node1" class="node">
<title>Node1</title>
<g id="a_node1"><a xlink:title=" ">
<polygon fill="#bfbfbf" stroke="black" points="0,-63.5 0,-86.5 202,-86.5 202,-63.5 0,-63.5"/>
<text text-anchor="middle" x="101" y="-71.3" font-family="Helvetica,sans-Serif" font-size="14.00">basicBlockInstrumentation</text>
</a>
</g>
</g>
<!-- Node2 -->
<g id="node2" class="node">
<title>Node2</title>
<g id="a_node2"><a xlink:href="../../d3/dcd/namespacemekong.html#a64c2cc8ef711bb2c9c8c88d992aa9d83" target="_top" xlink:title="===&#45;&#45;&#45;&#45;&#45;&#45;&#45;&#45;&#45;&#45;&#45;&#45;&#45;&#45;&#45;&#45;&#45;&#45;&#45;&#45;&#45;&#45;&#45;&#45;&#45;&#45;&#45;&#45;&#45;&#45;&#45;&#45;&#45;&#45;&#45;&#45;&#45;&#45;&#45;&#45;&#45;&#45;&#45;&#45;&#45;&#45;&#45;&#45;&#45;&#45;&#45;&#45;&#45;&#45;&#45;&#45;&#45;&#45;&#45;&#45;&#45;&#45;&#45;—===// Transformation Functions ===...">
<polygon fill="white" stroke="black" points="238,-126.5 238,-149.5 442,-149.5 442,-126.5 238,-126.5"/>
<text text-anchor="middle" x="340" y="-134.3" font-family="Helvetica,sans-Serif" font-size="14.00">mekong::cloneAndAddArgs</text>
</a>
</g>
</g>
<!-- Node1&#45;&gt;Node2 -->
<g id="edge1" class="edge">
<title>Node1&#45;&gt;Node2</title>
<path fill="none" stroke="midnightblue" d="M136.12,-86.52C163.47,-95.52 202.94,-107.96 238,-117 247.99,-119.57 258.59,-122.05 269.03,-124.35"/>
<polygon fill="midnightblue" stroke="midnightblue" points="268.46,-127.81 278.97,-126.49 269.93,-120.96 268.46,-127.81"/>
</g>
<!-- Node3 -->
<g id="node3" class="node">
<title>Node3</title>
<g id="a_node3"><a xlink:href="../../d3/dcd/namespacemekong.html#a769701c40cf1cb06898926ad2b7e6c6e" target="_top" xlink:title=" ">
<polygon fill="white" stroke="black" points="247.5,-84.5 247.5,-107.5 432.5,-107.5 432.5,-84.5 247.5,-84.5"/>
<text text-anchor="middle" x="340" y="-92.3" font-family="Helvetica,sans-Serif" font-size="14.00">mekong::getBlockIDMap</text>
</a>
</g>
</g>
<!-- Node1&#45;&gt;Node3 -->
<g id="edge2" class="edge">
<title>Node1&#45;&gt;Node3</title>
<path fill="none" stroke="midnightblue" d="M202.17,-83.88C213.79,-84.91 225.66,-85.96 237.31,-86.99"/>
<polygon fill="midnightblue" stroke="midnightblue" points="237.21,-90.49 247.48,-87.89 237.83,-83.52 237.21,-90.49"/>
</g>
<!-- Node4 -->
<g id="node4" class="node">
<title>Node4</title>
<g id="a_node4"><a xlink:href="../../d3/dcd/namespacemekong.html#a51a6949c9e5f60d1635f94ef386d397f" target="_top" xlink:title="===&#45;&#45;&#45;&#45;&#45;&#45;&#45;&#45;&#45;&#45;&#45;&#45;&#45;&#45;&#45;&#45;&#45;&#45;&#45;&#45;&#45;&#45;&#45;&#45;&#45;&#45;&#45;&#45;&#45;&#45;&#45;&#45;&#45;&#45;&#45;&#45;&#45;&#45;&#45;&#45;&#45;&#45;&#45;&#45;&#45;&#45;&#45;&#45;&#45;&#45;&#45;&#45;&#45;&#45;&#45;&#45;&#45;&#45;&#45;&#45;&#45;&#45;&#45;—===// Analysis Functions ===&#45;&#45;&#45;&#45;&#45;&#45;...">
<polygon fill="white" stroke="black" points="263,-42.5 263,-65.5 417,-65.5 417,-42.5 263,-42.5"/>
<text text-anchor="middle" x="340" y="-50.3" font-family="Helvetica,sans-Serif" font-size="14.00">mekong::getKernels</text>
</a>
</g>
</g>
<!-- Node1&#45;&gt;Node4 -->
<g id="edge3" class="edge">
<title>Node1&#45;&gt;Node4</title>
<path fill="none" stroke="midnightblue" d="M202.17,-66.12C219.01,-64.63 236.36,-63.09 252.81,-61.64"/>
<polygon fill="midnightblue" stroke="midnightblue" points="253.27,-65.11 262.92,-60.74 252.65,-58.14 253.27,-65.11"/>
</g>
<!-- Node5 -->
<g id="node5" class="node">
<title>Node5</title>
<g id="a_node5"><a xlink:href="../../d3/dcd/namespacemekong.html#a47c4770f047f5adfcc1ba8cc9d673480" target="_top" xlink:title="Adds metadata to the current module that will make the given function callable as kernel.">
<polygon fill="white" stroke="black" points="260,-0.5 260,-23.5 420,-23.5 420,-0.5 260,-0.5"/>
<text text-anchor="middle" x="340" y="-8.3" font-family="Helvetica,sans-Serif" font-size="14.00">mekong::markKernel</text>
</a>
</g>
</g>
<!-- Node1&#45;&gt;Node5 -->
<g id="edge4" class="edge">
<title>Node1&#45;&gt;Node5</title>
<path fill="none" stroke="midnightblue" d="M136.12,-63.48C163.47,-54.48 202.94,-42.04 238,-33 247.99,-30.43 258.59,-27.95 269.03,-25.65"/>
<polygon fill="midnightblue" stroke="midnightblue" points="269.93,-29.04 278.97,-23.51 268.46,-22.19 269.93,-29.04"/>
</g>
</g>
</svg>
