<?xml version="1.0" encoding="UTF-8" standalone="no"?>
<!DOCTYPE svg PUBLIC "-//W3C//DTD SVG 1.1//EN"
 "http://www.w3.org/Graphics/SVG/1.1/DTD/svg11.dtd">
<!-- Generated by graphviz version 2.43.0 (0)
 -->
<!-- Title: PPT&#45;GPU/llvm_tool/mekong&#45;utils/inc/PTXFunction.h Pages: 1 -->
<svg width="701pt" height="272pt"
 viewBox="0.00 0.00 700.50 272.00" xmlns="http://www.w3.org/2000/svg" xmlns:xlink="http://www.w3.org/1999/xlink">
<g id="graph0" class="graph" transform="scale(1 1) rotate(0) translate(4 268)">
<title>PPT&#45;GPU/llvm_tool/mekong&#45;utils/inc/PTXFunction.h</title>
<polygon fill="white" stroke="transparent" points="-4,4 -4,-268 696.5,-268 696.5,4 -4,4"/>
<!-- Node1 -->
<g id="node1" class="node">
<title>Node1</title>
<g id="a_node1"><a xlink:title=" ">
<polygon fill="#bfbfbf" stroke="black" points="381.5,-225.5 381.5,-263.5 582.5,-263.5 582.5,-225.5 381.5,-225.5"/>
<text text-anchor="start" x="389.5" y="-248.3" font-family="Helvetica,sans-Serif" font-size="14.00">PPT&#45;GPU/llvm_tool/mekong</text>
<text text-anchor="middle" x="482" y="-233.3" font-family="Helvetica,sans-Serif" font-size="14.00">&#45;utils/inc/PTXFunction.h</text>
</a>
</g>
</g>
<!-- Node2 -->
<g id="node2" class="node">
<title>Node2</title>
<g id="a_node2"><a xlink:href="../../db/d19/IRUtils_8h.html" target="_top" xlink:title=" ">
<polygon fill="white" stroke="black" points="272.5,-150.5 272.5,-188.5 473.5,-188.5 473.5,-150.5 272.5,-150.5"/>
<text text-anchor="start" x="280.5" y="-173.3" font-family="Helvetica,sans-Serif" font-size="14.00">PPT&#45;GPU/llvm_tool/mekong</text>
<text text-anchor="middle" x="373" y="-158.3" font-family="Helvetica,sans-Serif" font-size="14.00">&#45;utils/inc/IRUtils.h</text>
</a>
</g>
</g>
<!-- Node1&#45;&gt;Node2 -->
<g id="edge1" class="edge">
<title>Node1&#45;&gt;Node2</title>
<path fill="none" stroke="midnightblue" d="M446.46,-219.7C431.36,-209.59 414.04,-197.99 400.01,-188.59"/>
<polygon fill="midnightblue" stroke="midnightblue" points="444.8,-222.8 455.06,-225.46 448.7,-216.98 444.8,-222.8"/>
</g>
<!-- Node8 -->
<g id="node8" class="node">
<title>Node8</title>
<g id="a_node8"><a xlink:href="../../d4/d85/ptx__parser_8h.html" target="_top" xlink:title=" ">
<polygon fill="white" stroke="black" points="491.5,-150.5 491.5,-188.5 692.5,-188.5 692.5,-150.5 491.5,-150.5"/>
<text text-anchor="start" x="499.5" y="-173.3" font-family="Helvetica,sans-Serif" font-size="14.00">PPT&#45;GPU/llvm_tool/mekong</text>
<text text-anchor="middle" x="592" y="-158.3" font-family="Helvetica,sans-Serif" font-size="14.00">&#45;utils/inc/ptx_parser.h</text>
</a>
</g>
</g>
<!-- Node1&#45;&gt;Node8 -->
<g id="edge7" class="edge">
<title>Node1&#45;&gt;Node8</title>
<path fill="none" stroke="midnightblue" d="M517.86,-219.7C533.1,-209.59 550.58,-197.99 564.74,-188.59"/>
<polygon fill="midnightblue" stroke="midnightblue" points="515.59,-217.01 509.19,-225.46 519.46,-222.84 515.59,-217.01"/>
</g>
<!-- Node3 -->
<g id="node3" class="node">
<title>Node3</title>
<g id="a_node3"><a xlink:href="../../de/d8a/Mekong-Utils_8h.html" target="_top" xlink:title=" ">
<polygon fill="white" stroke="black" points="143.5,-75.5 143.5,-113.5 344.5,-113.5 344.5,-75.5 143.5,-75.5"/>
<text text-anchor="start" x="151.5" y="-98.3" font-family="Helvetica,sans-Serif" font-size="14.00">PPT&#45;GPU/llvm_tool/mekong</text>
<text text-anchor="middle" x="244" y="-83.3" font-family="Helvetica,sans-Serif" font-size="14.00">&#45;utils/inc/Mekong&#45;Utils.h</text>
</a>
</g>
</g>
<!-- Node2&#45;&gt;Node3 -->
<g id="edge2" class="edge">
<title>Node2&#45;&gt;Node3</title>
<path fill="none" stroke="midnightblue" d="M331.94,-145.27C313.84,-135.02 292.88,-123.16 275.97,-113.59"/>
<polygon fill="midnightblue" stroke="midnightblue" points="330.69,-148.58 341.11,-150.46 334.13,-142.48 330.69,-148.58"/>
</g>
<!-- Node7 -->
<g id="node7" class="node">
<title>Node7</title>
<g id="a_node7"><a xlink:href="../../d9/d85/IRUtils_8cpp.html" target="_top" xlink:title=" ">
<polygon fill="white" stroke="black" points="362.5,-75.5 362.5,-113.5 563.5,-113.5 563.5,-75.5 362.5,-75.5"/>
<text text-anchor="start" x="370.5" y="-98.3" font-family="Helvetica,sans-Serif" font-size="14.00">PPT&#45;GPU/llvm_tool/mekong</text>
<text text-anchor="middle" x="463" y="-83.3" font-family="Helvetica,sans-Serif" font-size="14.00">&#45;utils/src/IRUtils.cpp</text>
</a>
</g>
</g>
<!-- Node2&#45;&gt;Node7 -->
<g id="edge6" class="edge">
<title>Node2&#45;&gt;Node7</title>
<path fill="none" stroke="midnightblue" d="M403.04,-144.13C415.35,-134.15 429.33,-122.81 440.7,-113.59"/>
<polygon fill="midnightblue" stroke="midnightblue" points="400.81,-141.44 395.25,-150.46 405.22,-146.87 400.81,-141.44"/>
</g>
<!-- Node4 -->
<g id="node4" class="node">
<title>Node4</title>
<g id="a_node4"><a xlink:href="../../df/d50/fluxDevicePass_8cpp.html" target="_top" xlink:title=" ">
<polygon fill="white" stroke="black" points="474,-0.5 474,-38.5 636,-38.5 636,-0.5 474,-0.5"/>
<text text-anchor="start" x="482" y="-23.3" font-family="Helvetica,sans-Serif" font-size="14.00">PPT&#45;GPU/llvm_tool/lib</text>
<text text-anchor="middle" x="555" y="-8.3" font-family="Helvetica,sans-Serif" font-size="14.00">/fluxDevicePass.cpp</text>
</a>
</g>
</g>
<!-- Node3&#45;&gt;Node4 -->
<g id="edge3" class="edge">
<title>Node3&#45;&gt;Node4</title>
<path fill="none" stroke="midnightblue" d="M330.89,-73.11C377.15,-62.25 433.55,-49.01 478.2,-38.53"/>
<polygon fill="midnightblue" stroke="midnightblue" points="329.81,-69.76 320.88,-75.46 331.41,-76.58 329.81,-69.76"/>
</g>
<!-- Node5 -->
<g id="node5" class="node">
<title>Node5</title>
<g id="a_node5"><a xlink:href="../../d9/d28/fluxHostPass_8cpp.html" target="_top" xlink:title=" ">
<polygon fill="white" stroke="black" points="0,-0.5 0,-38.5 162,-38.5 162,-0.5 0,-0.5"/>
<text text-anchor="start" x="8" y="-23.3" font-family="Helvetica,sans-Serif" font-size="14.00">PPT&#45;GPU/llvm_tool/lib</text>
<text text-anchor="middle" x="81" y="-8.3" font-family="Helvetica,sans-Serif" font-size="14.00">/fluxHostPass.cpp</text>
</a>
</g>
</g>
<!-- Node3&#45;&gt;Node5 -->
<g id="edge4" class="edge">
<title>Node3&#45;&gt;Node5</title>
<path fill="none" stroke="midnightblue" d="M194.31,-71.25C170.95,-60.78 143.45,-48.47 121.39,-38.59"/>
<polygon fill="midnightblue" stroke="midnightblue" points="193.15,-74.56 203.71,-75.46 196.01,-68.17 193.15,-74.56"/>
</g>
<!-- Node6 -->
<g id="node6" class="node">
<title>Node6</title>
<g id="a_node6"><a xlink:href="../../db/d96/HostUtils_8cpp.html" target="_top" xlink:title=" ">
<polygon fill="white" stroke="black" points="180.5,-0.5 180.5,-38.5 381.5,-38.5 381.5,-0.5 180.5,-0.5"/>
<text text-anchor="start" x="188.5" y="-23.3" font-family="Helvetica,sans-Serif" font-size="14.00">PPT&#45;GPU/llvm_tool/mekong</text>
<text text-anchor="middle" x="281" y="-8.3" font-family="Helvetica,sans-Serif" font-size="14.00">&#45;utils/src/HostUtils.cpp</text>
</a>
</g>
</g>
<!-- Node3&#45;&gt;Node6 -->
<g id="edge5" class="edge">
<title>Node3&#45;&gt;Node6</title>
<path fill="none" stroke="midnightblue" d="M257.81,-66.25C262.49,-57.01 267.6,-46.93 271.83,-38.59"/>
<polygon fill="midnightblue" stroke="midnightblue" points="254.55,-64.95 253.15,-75.46 260.79,-68.12 254.55,-64.95"/>
</g>
<!-- Node8&#45;&gt;Node4 -->
<g id="edge8" class="edge">
<title>Node8&#45;&gt;Node4</title>
<path fill="none" stroke="midnightblue" d="M586.72,-140.54C583.02,-121.88 577.73,-96.85 572,-75 568.78,-62.73 564.53,-49.1 561.09,-38.55"/>
<polygon fill="midnightblue" stroke="midnightblue" points="583.3,-141.31 588.65,-150.46 590.17,-139.97 583.3,-141.31"/>
</g>
</g>
</svg>
