<?xml version="1.0" encoding="UTF-8" standalone="no"?>
<!DOCTYPE svg PUBLIC "-//W3C//DTD SVG 1.1//EN"
 "http://www.w3.org/Graphics/SVG/1.1/DTD/svg11.dtd">
<!-- Generated by graphviz version 2.43.0 (0)
 -->
<!-- Title: cuMemcpyAtoA_v2_ptds_params_st Pages: 1 -->
<svg width="193pt" height="137pt"
 viewBox="0.00 0.00 193.00 137.00" xmlns="http://www.w3.org/2000/svg" xmlns:xlink="http://www.w3.org/1999/xlink">
<g id="graph0" class="graph" transform="scale(1 1) rotate(0) translate(4 133)">
<title>cuMemcpyAtoA_v2_ptds_params_st</title>
<polygon fill="white" stroke="transparent" points="-4,4 -4,-133 189,-133 189,4 -4,4"/>
<!-- Node1 -->
<g id="node1" class="node">
<title>Node1</title>
<g id="a_node1"><a xlink:title=" ">
<polygon fill="#bfbfbf" stroke="black" points="0,-0.5 0,-38.5 185,-38.5 185,-0.5 0,-0.5"/>
<text text-anchor="start" x="8" y="-23.3" font-family="Helvetica,sans-Serif" font-size="14.00">cuMemcpyAtoA_v2_ptds</text>
<text text-anchor="middle" x="92.5" y="-8.3" font-family="Helvetica,sans-Serif" font-size="14.00">_params_st</text>
</a>
</g>
</g>
<!-- Node2 -->
<g id="node2" class="node">
<title>Node2</title>
<g id="a_node2"><a xlink:title=" ">
<polygon fill="white" stroke="#bfbfbf" points="64,-105.5 64,-128.5 121,-128.5 121,-105.5 64,-105.5"/>
<text text-anchor="middle" x="92.5" y="-113.3" font-family="Helvetica,sans-Serif" font-size="14.00">struct</text>
</a>
</g>
</g>
<!-- Node2&#45;&gt;Node1 -->
<g id="edge1" class="edge">
<title>Node2&#45;&gt;Node1</title>
<path fill="none" stroke="#9a32cd" stroke-dasharray="5,2" d="M92.5,-94.96C92.5,-78.09 92.5,-54.67 92.5,-38.63"/>
<polygon fill="#9a32cd" stroke="#9a32cd" points="89,-95.41 92.5,-105.41 96,-95.41 89,-95.41"/>
<text text-anchor="middle" x="124.5" y="-75.8" font-family="Helvetica,sans-Serif" font-size="14.00"> dstArray</text>
<text text-anchor="middle" x="124.5" y="-60.8" font-family="Helvetica,sans-Serif" font-size="14.00">srcArray</text>
</g>
</g>
</svg>
