<?xml version="1.0" encoding="UTF-8" standalone="no"?>
<!DOCTYPE svg PUBLIC "-//W3C//DTD SVG 1.1//EN"
 "http://www.w3.org/Graphics/SVG/1.1/DTD/svg11.dtd">
<!-- Generated by graphviz version 2.43.0 (0)
 -->
<!-- Title: PPT&#45;GPU/llvm_tool/lib/fluxHostPass.cpp Pages: 1 -->
<!--zoomable 302 -->
<svg id="main" version="1.1" xmlns="http://www.w3.org/2000/svg" xmlns:xlink="http://www.w3.org/1999/xlink" xml:space="preserve" onload="init(evt)">
<style type="text/css"><![CDATA[
.edge:hover path { stroke: red; }
.edge:hover polygon { stroke: red; fill: red; }
]]></style>
<script type="text/javascript"><![CDATA[
var edges = document.getElementsByTagName('g');
if (edges && edges.length) {
  for (var i=0;i<edges.length;i++) {
    if (edges[i].id.substr(0,4)=='edge') {
      edges[i].setAttribute('class','edge');
    }
  }
}
]]></script>
        <defs>
                <circle id="rim" cx="0" cy="0" r="7"/>
                <circle id="rim2" cx="0" cy="0" r="3.5"/>
                <g id="zoomPlus">
                        <use xlink:href="#rim" fill="#404040">
                                <set attributeName="fill" to="#808080" begin="zoomplus.mouseover" end="zoomplus.mouseout"/>
                        </use>
                        <path d="M-4,0h8M0,-4v8" fill="none" stroke="white" stroke-width="1.5" pointer-events="none"/>
                </g>
                <g id="zoomMin">
                        <use xlink:href="#rim" fill="#404040">
                                <set attributeName="fill" to="#808080" begin="zoomminus.mouseover" end="zoomminus.mouseout"/>
                        </use>
                        <path d="M-4,0h8" fill="none" stroke="white" stroke-width="1.5" pointer-events="none"/>
                </g>
                <g id="dirArrow">
                        <path fill="none" stroke="white" stroke-width="1.5" d="M0,-3.0v7 M-2.5,-0.5L0,-3.0L2.5,-0.5"/>
                </g>
               <g id="resetDef">
                       <use xlink:href="#rim2" fill="#404040">
                               <set attributeName="fill" to="#808080" begin="reset.mouseover" end="reset.mouseout"/>
                       </use>
               </g>
        </defs>

<script type="text/javascript">
var viewWidth = 3135;
var viewHeight = 302;
var sectionId = 'dynsection-0';
</script>
<script xlink:href="../../svgpan.js"/>
<svg id="graph" class="graph">
<g id="viewport">
<title>PPT&#45;GPU/llvm_tool/lib/fluxHostPass.cpp</title>
<polygon fill="white" stroke="transparent" points="-4,4 -4,-298 3131.18,-298 3131.18,4 -4,4"/>
<!-- Node1 -->
<g id="node1" class="node">
<title>Node1</title>
<g id="a_node1"><a xlink:title=" ">
<polygon fill="#bfbfbf" stroke="black" points="1815.68,-255.5 1815.68,-293.5 1977.68,-293.5 1977.68,-255.5 1815.68,-255.5"/>
<text text-anchor="start" x="1823.68" y="-278.3" font-family="Helvetica,sans-Serif" font-size="14.00">PPT&#45;GPU/llvm_tool/lib</text>
<text text-anchor="middle" x="1896.68" y="-263.3" font-family="Helvetica,sans-Serif" font-size="14.00">/fluxHostPass.cpp</text>
</a>
</g>
</g>
<!-- Node2 -->
<g id="node2" class="node">
<title>Node2</title>
<g id="a_node2"><a xlink:href="../../de/d8a/Mekong-Utils_8h.html" target="_top" xlink:title=" ">
<polygon fill="white" stroke="black" points="665.68,-188 665.68,-211 785.68,-211 785.68,-188 665.68,-188"/>
<text text-anchor="middle" x="725.68" y="-195.8" font-family="Helvetica,sans-Serif" font-size="14.00">Mekong&#45;Utils.h</text>
</a>
</g>
</g>
<!-- Node1&#45;&gt;Node2 -->
<g id="edge1" class="edge">
<title>Node1&#45;&gt;Node2</title>
<path fill="none" stroke="midnightblue" d="M1815.27,-268.42C1596.84,-254.81 1000.56,-217.64 795.81,-204.87"/>
<polygon fill="midnightblue" stroke="midnightblue" points="795.97,-201.38 785.77,-204.25 795.54,-208.36 795.97,-201.38"/>
</g>
<!-- Node4 -->
<g id="node4" class="node">
<title>Node4</title>
<g id="a_node4"><a xlink:title=" ">
<polygon fill="white" stroke="#bfbfbf" points="196.68,-0.5 196.68,-23.5 256.68,-23.5 256.68,-0.5 196.68,-0.5"/>
<text text-anchor="middle" x="226.68" y="-8.3" font-family="Helvetica,sans-Serif" font-size="14.00">vector</text>
</a>
</g>
</g>
<!-- Node1&#45;&gt;Node4 -->
<g id="edge45" class="edge">
<title>Node1&#45;&gt;Node4</title>
<path fill="none" stroke="midnightblue" d="M1815.52,-273.2C1502.85,-271.7 386.12,-263.28 233.68,-219 120.22,-186.04 63.29,-186.59 4.68,-84 -0.61,-74.74 -2.04,-68.29 4.68,-60 27.1,-32.34 128.53,-20.31 186.22,-15.63"/>
<polygon fill="midnightblue" stroke="midnightblue" points="186.76,-19.09 196.46,-14.83 186.22,-12.12 186.76,-19.09"/>
</g>
<!-- Node7 -->
<g id="node7" class="node">
<title>Node7</title>
<g id="a_node7"><a xlink:title=" ">
<polygon fill="white" stroke="#bfbfbf" points="14.18,-60.5 14.18,-83.5 179.18,-83.5 179.18,-60.5 14.18,-60.5"/>
<text text-anchor="middle" x="96.68" y="-68.3" font-family="Helvetica,sans-Serif" font-size="14.00">llvm/IR/Instructions.h</text>
</a>
</g>
</g>
<!-- Node1&#45;&gt;Node7 -->
<g id="edge37" class="edge">
<title>Node1&#45;&gt;Node7</title>
<path fill="none" stroke="midnightblue" d="M1815.59,-272.9C1617.32,-270.8 1092.33,-261.33 656.68,-219 434.34,-197.4 356,-250.59 159.68,-144 137.53,-131.97 119.35,-108.97 108.31,-92.4"/>
<polygon fill="midnightblue" stroke="midnightblue" points="110.98,-90.07 102.66,-83.52 105.08,-93.83 110.98,-90.07"/>
</g>
<!-- Node12 -->
<g id="node12" class="node">
<title>Node12</title>
<g id="a_node12"><a xlink:title=" ">
<polygon fill="white" stroke="#bfbfbf" points="1569.18,-0.5 1569.18,-23.5 1626.18,-23.5 1626.18,-0.5 1569.18,-0.5"/>
<text text-anchor="middle" x="1597.68" y="-8.3" font-family="Helvetica,sans-Serif" font-size="14.00">string</text>
</a>
</g>
</g>
<!-- Node1&#45;&gt;Node12 -->
<g id="edge44" class="edge">
<title>Node1&#45;&gt;Node12</title>
<path fill="none" stroke="midnightblue" d="M1815.43,-270.56C1767,-265.17 1706.61,-251.67 1662.68,-219 1624.19,-190.37 1587.48,-155.56 1619.68,-120 1674.1,-59.92 1928.26,-144.08 1982.68,-84 1989.84,-76.09 1989.75,-67.99 1982.68,-60 1959.96,-34.33 1729.74,-19.76 1636.54,-14.87"/>
<polygon fill="midnightblue" stroke="midnightblue" points="1636.56,-11.37 1626.4,-14.35 1636.2,-18.36 1636.56,-11.37"/>
</g>
<!-- Node16 -->
<g id="node16" class="node">
<title>Node16</title>
<g id="a_node16"><a xlink:title=" ">
<polygon fill="white" stroke="#bfbfbf" points="1828.18,-60.5 1828.18,-83.5 1973.18,-83.5 1973.18,-60.5 1828.18,-60.5"/>
<text text-anchor="middle" x="1900.68" y="-68.3" font-family="Helvetica,sans-Serif" font-size="14.00">llvm/IR/IRBuilder.h</text>
</a>
</g>
</g>
<!-- Node1&#45;&gt;Node16 -->
<g id="edge36" class="edge">
<title>Node1&#45;&gt;Node16</title>
<path fill="none" stroke="midnightblue" d="M1815.38,-270.67C1733.53,-265.92 1615.36,-253.16 1586.68,-219 1558.39,-185.3 1557.96,-153.34 1586.68,-120 1588.59,-117.79 1725.74,-97.88 1818.13,-84.7"/>
<polygon fill="midnightblue" stroke="midnightblue" points="1818.63,-88.16 1828.04,-83.28 1817.65,-81.23 1818.63,-88.16"/>
</g>
<!-- Node19 -->
<g id="node19" class="node">
<title>Node19</title>
<g id="a_node19"><a xlink:href="../../d0/d88/cudaFluxPasses_8h.html" target="_top" xlink:title=" ">
<polygon fill="white" stroke="black" points="1685.68,-188 1685.68,-211 1825.68,-211 1825.68,-188 1685.68,-188"/>
<text text-anchor="middle" x="1755.68" y="-195.8" font-family="Helvetica,sans-Serif" font-size="14.00">cudaFluxPasses.h</text>
</a>
</g>
</g>
<!-- Node1&#45;&gt;Node19 -->
<g id="edge24" class="edge">
<title>Node1&#45;&gt;Node19</title>
<path fill="none" stroke="midnightblue" d="M1861.83,-255.46C1838.28,-243.26 1807.53,-227.34 1785.19,-215.78"/>
<polygon fill="midnightblue" stroke="midnightblue" points="1786.67,-212.6 1776.18,-211.11 1783.45,-218.82 1786.67,-212.6"/>
</g>
<!-- Node20 -->
<g id="node20" class="node">
<title>Node20</title>
<g id="a_node20"><a xlink:title=" ">
<polygon fill="white" stroke="#bfbfbf" points="1629.18,-120.5 1629.18,-143.5 1724.18,-143.5 1724.18,-120.5 1629.18,-120.5"/>
<text text-anchor="middle" x="1676.68" y="-128.3" font-family="Helvetica,sans-Serif" font-size="14.00">llvm/Pass.h</text>
</a>
</g>
</g>
<!-- Node1&#45;&gt;Node20 -->
<g id="edge38" class="edge">
<title>Node1&#45;&gt;Node20</title>
<path fill="none" stroke="midnightblue" d="M1815.48,-263.88C1760.17,-255.47 1693.96,-241.08 1676.68,-219 1662.23,-200.53 1665.51,-172.36 1670.2,-153.34"/>
<polygon fill="midnightblue" stroke="midnightblue" points="1673.61,-154.16 1672.93,-143.58 1666.87,-152.27 1673.61,-154.16"/>
</g>
<!-- Node22 -->
<g id="node22" class="node">
<title>Node22</title>
<g id="a_node22"><a xlink:title=" ">
<polygon fill="white" stroke="#bfbfbf" points="2405.68,-120.5 2405.68,-143.5 2617.68,-143.5 2617.68,-120.5 2405.68,-120.5"/>
<text text-anchor="middle" x="2511.68" y="-128.3" font-family="Helvetica,sans-Serif" font-size="14.00">llvm/Support/raw_ostream.h</text>
</a>
</g>
</g>
<!-- Node1&#45;&gt;Node22 -->
<g id="edge40" class="edge">
<title>Node1&#45;&gt;Node22</title>
<path fill="none" stroke="midnightblue" d="M1883.31,-255.25C1869.81,-234.42 1853.47,-200.59 1872.68,-180 1912.12,-137.73 2334.06,-148.64 2391.68,-144 2392.8,-143.91 2393.93,-143.82 2395.06,-143.73"/>
<polygon fill="midnightblue" stroke="midnightblue" points="2395.69,-147.19 2405.36,-142.87 2395.11,-140.21 2395.69,-147.19"/>
</g>
<!-- Node25 -->
<g id="node25" class="node">
<title>Node25</title>
<g id="a_node25"><a xlink:href="../../dd/dda/hostRuntime_8h.html" target="_top" xlink:title=" ">
<polygon fill="white" stroke="black" points="1881.68,-188 1881.68,-211 1999.68,-211 1999.68,-188 1881.68,-188"/>
<text text-anchor="middle" x="1940.68" y="-195.8" font-family="Helvetica,sans-Serif" font-size="14.00">hostRuntime.h</text>
</a>
</g>
</g>
<!-- Node1&#45;&gt;Node25 -->
<g id="edge32" class="edge">
<title>Node1&#45;&gt;Node25</title>
<path fill="none" stroke="midnightblue" d="M1907.56,-255.46C1914.01,-244.74 1922.2,-231.16 1928.82,-220.17"/>
<polygon fill="midnightblue" stroke="midnightblue" points="1931.99,-221.7 1934.16,-211.33 1926,-218.08 1931.99,-221.7"/>
</g>
<!-- Node26 -->
<g id="node26" class="node">
<title>Node26</title>
<g id="a_node26"><a xlink:title=" ">
<polygon fill="white" stroke="#bfbfbf" points="2018.18,-188 2018.18,-211 2231.18,-211 2231.18,-188 2018.18,-188"/>
<text text-anchor="middle" x="2124.68" y="-195.8" font-family="Helvetica,sans-Serif" font-size="14.00">llvm/Bitcode/BitcodeWriter.h</text>
</a>
</g>
</g>
<!-- Node1&#45;&gt;Node26 -->
<g id="edge33" class="edge">
<title>Node1&#45;&gt;Node26</title>
<path fill="none" stroke="midnightblue" d="M1953.04,-255.46C1992.94,-242.68 2045.62,-225.81 2082.04,-214.15"/>
<polygon fill="midnightblue" stroke="midnightblue" points="2083.4,-217.39 2091.86,-211.01 2081.27,-210.72 2083.4,-217.39"/>
</g>
<!-- Node27 -->
<g id="node27" class="node">
<title>Node27</title>
<g id="a_node27"><a xlink:title=" ">
<polygon fill="white" stroke="#bfbfbf" points="2249.68,-188 2249.68,-211 2401.68,-211 2401.68,-188 2249.68,-188"/>
<text text-anchor="middle" x="2325.68" y="-195.8" font-family="Helvetica,sans-Serif" font-size="14.00">llvm/IR/Constants.h</text>
</a>
</g>
</g>
<!-- Node1&#45;&gt;Node27 -->
<g id="edge34" class="edge">
<title>Node1&#45;&gt;Node27</title>
<path fill="none" stroke="midnightblue" d="M1977.88,-261.97C2047.73,-251.74 2151.09,-235.83 2240.68,-219 2250.04,-217.24 2259.96,-215.23 2269.57,-213.19"/>
<polygon fill="midnightblue" stroke="midnightblue" points="2270.42,-216.59 2279.46,-211.06 2268.95,-209.74 2270.42,-216.59"/>
</g>
<!-- Node28 -->
<g id="node28" class="node">
<title>Node28</title>
<g id="a_node28"><a xlink:title=" ">
<polygon fill="white" stroke="#bfbfbf" points="2419.68,-188 2419.68,-211 2561.68,-211 2561.68,-188 2419.68,-188"/>
<text text-anchor="middle" x="2490.68" y="-195.8" font-family="Helvetica,sans-Serif" font-size="14.00">llvm/IR/Function.h</text>
</a>
</g>
</g>
<!-- Node1&#45;&gt;Node28 -->
<g id="edge35" class="edge">
<title>Node1&#45;&gt;Node28</title>
<path fill="none" stroke="midnightblue" d="M1978.11,-267.94C2079.81,-260.29 2258.91,-244.5 2410.68,-219 2420.07,-217.42 2430.01,-215.41 2439.57,-213.29"/>
<polygon fill="midnightblue" stroke="midnightblue" points="2440.38,-216.7 2449.35,-211.07 2438.82,-209.87 2440.38,-216.7"/>
</g>
<!-- Node29 -->
<g id="node29" class="node">
<title>Node29</title>
<g id="a_node29"><a xlink:title=" ">
<polygon fill="white" stroke="#bfbfbf" points="2579.68,-188 2579.68,-211 2791.68,-211 2791.68,-188 2579.68,-188"/>
<text text-anchor="middle" x="2685.68" y="-195.8" font-family="Helvetica,sans-Serif" font-size="14.00">llvm/Support/VersionTuple.h</text>
</a>
</g>
</g>
<!-- Node1&#45;&gt;Node29 -->
<g id="edge39" class="edge">
<title>Node1&#45;&gt;Node29</title>
<path fill="none" stroke="midnightblue" d="M1977.81,-269.01C2104.63,-261.53 2357.39,-244.74 2570.68,-219 2585.28,-217.24 2600.86,-214.98 2615.7,-212.66"/>
<polygon fill="midnightblue" stroke="midnightblue" points="2616.5,-216.08 2625.82,-211.05 2615.4,-209.16 2616.5,-216.08"/>
</g>
<!-- Node30 -->
<g id="node30" class="node">
<title>Node30</title>
<g id="a_node30"><a xlink:title=" ">
<polygon fill="white" stroke="#bfbfbf" points="2810.18,-180.5 2810.18,-218.5 2973.18,-218.5 2973.18,-180.5 2810.18,-180.5"/>
<text text-anchor="start" x="2818.18" y="-203.3" font-family="Helvetica,sans-Serif" font-size="14.00">llvm/Transforms/Utils</text>
<text text-anchor="middle" x="2891.68" y="-188.3" font-family="Helvetica,sans-Serif" font-size="14.00">/Cloning.h</text>
</a>
</g>
</g>
<!-- Node1&#45;&gt;Node30 -->
<g id="edge41" class="edge">
<title>Node1&#45;&gt;Node30</title>
<path fill="none" stroke="midnightblue" d="M1977.77,-272.42C2134.74,-269.5 2491.07,-258.82 2799.88,-218.99"/>
<polygon fill="midnightblue" stroke="midnightblue" points="2800.46,-222.45 2809.92,-217.69 2799.55,-215.51 2800.46,-222.45"/>
</g>
<!-- Node31 -->
<g id="node31" class="node">
<title>Node31</title>
<g id="a_node31"><a xlink:title=" ">
<polygon fill="white" stroke="#bfbfbf" points="2991.68,-188 2991.68,-211 3061.68,-211 3061.68,-188 2991.68,-188"/>
<text text-anchor="middle" x="3026.68" y="-195.8" font-family="Helvetica,sans-Serif" font-size="14.00">fstream</text>
</a>
</g>
</g>
<!-- Node1&#45;&gt;Node31 -->
<g id="edge42" class="edge">
<title>Node1&#45;&gt;Node31</title>
<path fill="none" stroke="midnightblue" d="M1977.89,-273.06C2196.12,-271.31 2791.6,-262.55 2982.68,-219 2987.16,-217.98 2991.77,-216.53 2996.24,-214.89"/>
<polygon fill="midnightblue" stroke="midnightblue" points="2997.73,-218.06 3005.69,-211.07 2995.11,-211.57 2997.73,-218.06"/>
</g>
<!-- Node32 -->
<g id="node32" class="node">
<title>Node32</title>
<g id="a_node32"><a xlink:title=" ">
<polygon fill="white" stroke="#bfbfbf" points="3080.18,-188 3080.18,-211 3127.18,-211 3127.18,-188 3080.18,-188"/>
<text text-anchor="middle" x="3103.68" y="-195.8" font-family="Helvetica,sans-Serif" font-size="14.00">map</text>
</a>
</g>
</g>
<!-- Node1&#45;&gt;Node32 -->
<g id="edge43" class="edge">
<title>Node1&#45;&gt;Node32</title>
<path fill="none" stroke="midnightblue" d="M1977.83,-271.9C2226.34,-266.69 2966.47,-248.82 3070.68,-219 3073.52,-218.19 3076.38,-217.09 3079.17,-215.83"/>
<polygon fill="midnightblue" stroke="midnightblue" points="3080.97,-218.84 3088.23,-211.11 3077.74,-212.63 3080.97,-218.84"/>
</g>
<!-- Node3 -->
<g id="node3" class="node">
<title>Node3</title>
<g id="a_node3"><a xlink:href="../../d3/dee/DeviceUtils_8h.html" target="_top" xlink:title=" ">
<polygon fill="white" stroke="black" points="287.18,-120.5 287.18,-143.5 394.18,-143.5 394.18,-120.5 287.18,-120.5"/>
<text text-anchor="middle" x="340.68" y="-128.3" font-family="Helvetica,sans-Serif" font-size="14.00">DeviceUtils.h</text>
</a>
</g>
</g>
<!-- Node2&#45;&gt;Node3 -->
<g id="edge2" class="edge">
<title>Node2&#45;&gt;Node3</title>
<path fill="none" stroke="midnightblue" d="M665.52,-188.27C594.43,-176.17 476.64,-156.13 404.13,-143.8"/>
<polygon fill="midnightblue" stroke="midnightblue" points="404.66,-140.33 394.21,-142.11 403.48,-147.24 404.66,-140.33"/>
</g>
<!-- Node6 -->
<g id="node6" class="node">
<title>Node6</title>
<g id="a_node6"><a xlink:href="../../d4/de6/HostUtils_8h.html" target="_top" xlink:title=" ">
<polygon fill="white" stroke="black" points="168.68,-120.5 168.68,-143.5 260.68,-143.5 260.68,-120.5 168.68,-120.5"/>
<text text-anchor="middle" x="214.68" y="-128.3" font-family="Helvetica,sans-Serif" font-size="14.00">HostUtils.h</text>
</a>
</g>
</g>
<!-- Node2&#45;&gt;Node6 -->
<g id="edge5" class="edge">
<title>Node2&#45;&gt;Node6</title>
<path fill="none" stroke="midnightblue" d="M665.4,-192.17C579.26,-182.9 416.03,-164.48 277.68,-144 275.36,-143.66 273,-143.3 270.62,-142.92"/>
<polygon fill="midnightblue" stroke="midnightblue" points="271.17,-139.47 260.74,-141.33 270.06,-146.38 271.17,-139.47"/>
</g>
<!-- Node8 -->
<g id="node8" class="node">
<title>Node8</title>
<g id="a_node8"><a xlink:href="../../db/d19/IRUtils_8h.html" target="_top" xlink:title=" ">
<polygon fill="white" stroke="black" points="964.18,-120.5 964.18,-143.5 1039.18,-143.5 1039.18,-120.5 964.18,-120.5"/>
<text text-anchor="middle" x="1001.68" y="-128.3" font-family="Helvetica,sans-Serif" font-size="14.00">IRUtils.h</text>
</a>
</g>
</g>
<!-- Node2&#45;&gt;Node8 -->
<g id="edge9" class="edge">
<title>Node2&#45;&gt;Node8</title>
<path fill="none" stroke="midnightblue" d="M770.03,-187.98C820.45,-176.01 902.47,-156.54 954.18,-144.27"/>
<polygon fill="midnightblue" stroke="midnightblue" points="955.18,-147.63 964.1,-141.92 953.56,-140.82 955.18,-147.63"/>
</g>
<!-- Node3&#45;&gt;Node4 -->
<g id="edge3" class="edge">
<title>Node3&#45;&gt;Node4</title>
<path fill="none" stroke="midnightblue" d="M316.82,-120.37C300.58,-112.22 279.45,-99.72 264.68,-84 250.84,-69.26 240.51,-48.52 234.14,-33.25"/>
<polygon fill="midnightblue" stroke="midnightblue" points="237.3,-31.72 230.37,-23.71 230.79,-34.29 237.3,-31.72"/>
</g>
<!-- Node5 -->
<g id="node5" class="node">
<title>Node5</title>
<g id="a_node5"><a xlink:title=" ">
<polygon fill="white" stroke="#bfbfbf" points="274.18,-60.5 274.18,-83.5 407.18,-83.5 407.18,-60.5 274.18,-60.5"/>
<text text-anchor="middle" x="340.68" y="-68.3" font-family="Helvetica,sans-Serif" font-size="14.00">llvm/IR/Module.h</text>
</a>
</g>
</g>
<!-- Node3&#45;&gt;Node5 -->
<g id="edge4" class="edge">
<title>Node3&#45;&gt;Node5</title>
<path fill="none" stroke="midnightblue" d="M340.68,-120.36C340.68,-112.92 340.68,-102.74 340.68,-93.73"/>
<polygon fill="midnightblue" stroke="midnightblue" points="344.18,-93.57 340.68,-83.57 337.18,-93.57 344.18,-93.57"/>
</g>
<!-- Node6&#45;&gt;Node4 -->
<g id="edge8" class="edge">
<title>Node6&#45;&gt;Node4</title>
<path fill="none" stroke="midnightblue" d="M215.79,-120.11C217.79,-100.43 222.04,-58.65 224.6,-33.48"/>
<polygon fill="midnightblue" stroke="midnightblue" points="228.08,-33.83 225.61,-23.52 221.12,-33.12 228.08,-33.83"/>
</g>
<!-- Node6&#45;&gt;Node5 -->
<g id="edge7" class="edge">
<title>Node6&#45;&gt;Node5</title>
<path fill="none" stroke="midnightblue" d="M237.5,-120.5C257.27,-111.4 286.09,-98.13 308.26,-87.93"/>
<polygon fill="midnightblue" stroke="midnightblue" points="309.99,-90.98 317.61,-83.62 307.06,-84.62 309.99,-90.98"/>
</g>
<!-- Node6&#45;&gt;Node7 -->
<g id="edge6" class="edge">
<title>Node6&#45;&gt;Node7</title>
<path fill="none" stroke="midnightblue" d="M193.31,-120.5C174.88,-111.44 148.04,-98.25 127.33,-88.06"/>
<polygon fill="midnightblue" stroke="midnightblue" points="128.81,-84.89 118.29,-83.62 125.72,-91.17 128.81,-84.89"/>
</g>
<!-- Node8&#45;&gt;Node5 -->
<g id="edge16" class="edge">
<title>Node8&#45;&gt;Node5</title>
<path fill="none" stroke="midnightblue" d="M963.89,-128.83C872.08,-123.38 629.79,-107.88 417.4,-84.14"/>
<polygon fill="midnightblue" stroke="midnightblue" points="417.64,-80.64 407.31,-83 416.85,-87.6 417.64,-80.64"/>
</g>
<!-- Node8&#45;&gt;Node7 -->
<g id="edge15" class="edge">
<title>Node8&#45;&gt;Node7</title>
<path fill="none" stroke="midnightblue" d="M964.1,-128.63C855.63,-121.77 532.72,-101.32 264.68,-84 240.33,-82.43 213.99,-80.71 189.55,-79.11"/>
<polygon fill="midnightblue" stroke="midnightblue" points="189.77,-75.62 179.57,-78.46 189.32,-82.6 189.77,-75.62"/>
</g>
<!-- Node9 -->
<g id="node9" class="node">
<title>Node9</title>
<g id="a_node9"><a xlink:href="../../d9/dc8/BasicBlockEnumerator_8h.html" target="_top" xlink:title=" ">
<polygon fill="white" stroke="black" points="1625.18,-60.5 1625.18,-83.5 1810.18,-83.5 1810.18,-60.5 1625.18,-60.5"/>
<text text-anchor="middle" x="1717.68" y="-68.3" font-family="Helvetica,sans-Serif" font-size="14.00">BasicBlockEnumerator.h</text>
</a>
</g>
</g>
<!-- Node8&#45;&gt;Node9 -->
<g id="edge10" class="edge">
<title>Node8&#45;&gt;Node9</title>
<path fill="none" stroke="midnightblue" d="M1039.19,-128.46C1134.75,-121.9 1395.09,-103.58 1611.68,-84 1612.76,-83.9 1613.85,-83.8 1614.95,-83.7"/>
<polygon fill="midnightblue" stroke="midnightblue" points="1615.28,-87.19 1624.91,-82.77 1614.63,-80.22 1615.28,-87.19"/>
</g>
<!-- Node11 -->
<g id="node11" class="node">
<title>Node11</title>
<g id="a_node11"><a xlink:href="../../db/d2b/PTXFunction_8h.html" target="_top" xlink:title=" ">
<polygon fill="white" stroke="black" points="1453.68,-60.5 1453.68,-83.5 1569.68,-83.5 1569.68,-60.5 1453.68,-60.5"/>
<text text-anchor="middle" x="1511.68" y="-68.3" font-family="Helvetica,sans-Serif" font-size="14.00">PTXFunction.h</text>
</a>
</g>
</g>
<!-- Node8&#45;&gt;Node11 -->
<g id="edge12" class="edge">
<title>Node8&#45;&gt;Node11</title>
<path fill="none" stroke="midnightblue" d="M1039.31,-127.7C1114.05,-120.98 1286.71,-104.72 1443.19,-84"/>
<polygon fill="midnightblue" stroke="midnightblue" points="1444.02,-87.42 1453.47,-82.63 1443.1,-80.48 1444.02,-87.42"/>
</g>
<!-- Node8&#45;&gt;Node12 -->
<g id="edge23" class="edge">
<title>Node8&#45;&gt;Node12</title>
<path fill="none" stroke="midnightblue" d="M1039.42,-130.41C1161.05,-128.17 1537.34,-118.49 1578.68,-84 1593.17,-71.91 1597.26,-50.1 1598.13,-33.83"/>
<polygon fill="midnightblue" stroke="midnightblue" points="1601.63,-33.7 1598.31,-23.64 1594.63,-33.58 1601.63,-33.7"/>
</g>
<!-- Node13 -->
<g id="node13" class="node">
<title>Node13</title>
<g id="a_node13"><a xlink:title=" ">
<polygon fill="white" stroke="#bfbfbf" points="425.18,-60.5 425.18,-83.5 618.18,-83.5 618.18,-60.5 425.18,-60.5"/>
<text text-anchor="middle" x="521.68" y="-68.3" font-family="Helvetica,sans-Serif" font-size="14.00">llvm/IRReader/IRReader.h</text>
</a>
</g>
</g>
<!-- Node8&#45;&gt;Node13 -->
<g id="edge17" class="edge">
<title>Node8&#45;&gt;Node13</title>
<path fill="none" stroke="midnightblue" d="M964.02,-126.45C890.37,-117.55 725.2,-97.59 618.85,-84.74"/>
<polygon fill="midnightblue" stroke="midnightblue" points="619.09,-81.25 608.74,-83.52 618.25,-88.19 619.09,-81.25"/>
</g>
<!-- Node14 -->
<g id="node14" class="node">
<title>Node14</title>
<g id="a_node14"><a xlink:title=" ">
<polygon fill="white" stroke="#bfbfbf" points="636.18,-60.5 636.18,-83.5 787.18,-83.5 787.18,-60.5 636.18,-60.5"/>
<text text-anchor="middle" x="711.68" y="-68.3" font-family="Helvetica,sans-Serif" font-size="14.00">llvm/Linker/Linker.h</text>
</a>
</g>
</g>
<!-- Node8&#45;&gt;Node14 -->
<g id="edge18" class="edge">
<title>Node8&#45;&gt;Node14</title>
<path fill="none" stroke="midnightblue" d="M964.07,-123.48C915.99,-113.86 832.1,-97.08 774.32,-85.53"/>
<polygon fill="midnightblue" stroke="midnightblue" points="774.69,-82.03 764.2,-83.5 773.32,-88.9 774.69,-82.03"/>
</g>
<!-- Node15 -->
<g id="node15" class="node">
<title>Node15</title>
<g id="a_node15"><a xlink:title=" ">
<polygon fill="white" stroke="#bfbfbf" points="805.68,-60.5 805.68,-83.5 981.68,-83.5 981.68,-60.5 805.68,-60.5"/>
<text text-anchor="middle" x="893.68" y="-68.3" font-family="Helvetica,sans-Serif" font-size="14.00">llvm/Support/Casting.h</text>
</a>
</g>
</g>
<!-- Node8&#45;&gt;Node15 -->
<g id="edge19" class="edge">
<title>Node8&#45;&gt;Node15</title>
<path fill="none" stroke="midnightblue" d="M982.12,-120.5C965.48,-111.56 941.35,-98.6 922.5,-88.48"/>
<polygon fill="midnightblue" stroke="midnightblue" points="923.92,-85.27 913.46,-83.62 920.61,-91.44 923.92,-85.27"/>
</g>
<!-- Node8&#45;&gt;Node16 -->
<g id="edge20" class="edge">
<title>Node8&#45;&gt;Node16</title>
<path fill="none" stroke="midnightblue" d="M1039.22,-129.85C1154.08,-126.14 1511.07,-112.98 1817.86,-84.01"/>
<polygon fill="midnightblue" stroke="midnightblue" points="1818.21,-87.5 1827.84,-83.06 1817.55,-80.53 1818.21,-87.5"/>
</g>
<!-- Node17 -->
<g id="node17" class="node">
<title>Node17</title>
<g id="a_node17"><a xlink:title=" ">
<polygon fill="white" stroke="#bfbfbf" points="999.18,-60.5 999.18,-83.5 1220.18,-83.5 1220.18,-60.5 999.18,-60.5"/>
<text text-anchor="middle" x="1109.68" y="-68.3" font-family="Helvetica,sans-Serif" font-size="14.00">llvm/Support/MemoryBuffer.h</text>
</a>
</g>
</g>
<!-- Node8&#45;&gt;Node17 -->
<g id="edge21" class="edge">
<title>Node8&#45;&gt;Node17</title>
<path fill="none" stroke="midnightblue" d="M1021.24,-120.5C1037.88,-111.56 1062.01,-98.6 1080.86,-88.48"/>
<polygon fill="midnightblue" stroke="midnightblue" points="1082.75,-91.44 1089.9,-83.62 1079.44,-85.27 1082.75,-91.44"/>
</g>
<!-- Node18 -->
<g id="node18" class="node">
<title>Node18</title>
<g id="a_node18"><a xlink:title=" ">
<polygon fill="white" stroke="#bfbfbf" points="1238.18,-60.5 1238.18,-83.5 1435.18,-83.5 1435.18,-60.5 1238.18,-60.5"/>
<text text-anchor="middle" x="1336.68" y="-68.3" font-family="Helvetica,sans-Serif" font-size="14.00">llvm/Support/SourceMgr.h</text>
</a>
</g>
</g>
<!-- Node8&#45;&gt;Node18 -->
<g id="edge22" class="edge">
<title>Node8&#45;&gt;Node18</title>
<path fill="none" stroke="midnightblue" d="M1039.46,-124.46C1094.26,-114.97 1196.79,-97.22 1265.9,-85.25"/>
<polygon fill="midnightblue" stroke="midnightblue" points="1266.59,-88.69 1275.84,-83.53 1265.39,-81.79 1266.59,-88.69"/>
</g>
<!-- Node10 -->
<g id="node10" class="node">
<title>Node10</title>
<g id="a_node10"><a xlink:title=" ">
<polygon fill="white" stroke="#bfbfbf" points="1971.18,-0.5 1971.18,-23.5 2128.18,-23.5 2128.18,-0.5 1971.18,-0.5"/>
<text text-anchor="middle" x="2049.68" y="-8.3" font-family="Helvetica,sans-Serif" font-size="14.00">llvm/IR/BasicBlock.h</text>
</a>
</g>
</g>
<!-- Node9&#45;&gt;Node10 -->
<g id="edge11" class="edge">
<title>Node9&#45;&gt;Node10</title>
<path fill="none" stroke="midnightblue" d="M1777.8,-60.5C1834.51,-50.59 1919.5,-35.74 1979.32,-25.29"/>
<polygon fill="midnightblue" stroke="midnightblue" points="1980.2,-28.69 1989.45,-23.52 1978.99,-21.8 1980.2,-28.69"/>
</g>
<!-- Node11&#45;&gt;Node4 -->
<g id="edge14" class="edge">
<title>Node11&#45;&gt;Node4</title>
<path fill="none" stroke="midnightblue" d="M1453.5,-61.11C1450.19,-60.7 1446.89,-60.32 1443.68,-60 983.44,-14.06 421.14,-12.31 267.25,-12.78"/>
<polygon fill="midnightblue" stroke="midnightblue" points="266.87,-9.28 256.88,-12.81 266.89,-16.28 266.87,-9.28"/>
</g>
<!-- Node11&#45;&gt;Node12 -->
<g id="edge13" class="edge">
<title>Node11&#45;&gt;Node12</title>
<path fill="none" stroke="midnightblue" d="M1527.45,-60.36C1540.3,-51.7 1558.67,-39.31 1573.39,-29.38"/>
<polygon fill="midnightblue" stroke="midnightblue" points="1575.67,-32.06 1582.01,-23.57 1571.76,-26.26 1575.67,-32.06"/>
</g>
<!-- Node19&#45;&gt;Node5 -->
<g id="edge26" class="edge">
<title>Node19&#45;&gt;Node5</title>
<path fill="none" stroke="midnightblue" d="M1685.42,-194.74C1545.96,-187.04 1224.35,-168.17 954.68,-144 717.89,-122.77 656.41,-115.04 417.36,-84.19"/>
<polygon fill="midnightblue" stroke="midnightblue" points="417.69,-80.71 407.32,-82.9 416.79,-87.65 417.69,-80.71"/>
</g>
<!-- Node19&#45;&gt;Node10 -->
<g id="edge25" class="edge">
<title>Node19&#45;&gt;Node10</title>
<path fill="none" stroke="midnightblue" d="M1808.69,-187.97C1825,-185.03 1843.03,-182.08 1859.68,-180 1914.84,-173.12 2320.81,-184.7 2358.68,-144 2429.19,-68.22 2253.06,-34.53 2138.63,-21.01"/>
<polygon fill="midnightblue" stroke="midnightblue" points="2138.78,-17.5 2128.45,-19.84 2137.98,-24.46 2138.78,-17.5"/>
</g>
<!-- Node19&#45;&gt;Node20 -->
<g id="edge27" class="edge">
<title>Node19&#45;&gt;Node20</title>
<path fill="none" stroke="midnightblue" d="M1742.99,-187.98C1730.74,-177.82 1711.97,-162.26 1697.53,-150.28"/>
<polygon fill="midnightblue" stroke="midnightblue" points="1699.54,-147.4 1689.6,-143.72 1695.07,-152.79 1699.54,-147.4"/>
</g>
<!-- Node21 -->
<g id="node21" class="node">
<title>Node21</title>
<g id="a_node21"><a xlink:title=" ">
<polygon fill="white" stroke="#bfbfbf" points="1957.68,-120.5 1957.68,-143.5 2127.68,-143.5 2127.68,-120.5 1957.68,-120.5"/>
<text text-anchor="middle" x="2042.68" y="-128.3" font-family="Helvetica,sans-Serif" font-size="14.00">llvm/Support/Debug.h</text>
</a>
</g>
</g>
<!-- Node19&#45;&gt;Node21 -->
<g id="edge28" class="edge">
<title>Node19&#45;&gt;Node21</title>
<path fill="none" stroke="midnightblue" d="M1801.79,-187.98C1851.96,-176.53 1932.19,-158.22 1986.12,-145.91"/>
<polygon fill="midnightblue" stroke="midnightblue" points="1987.24,-149.24 1996.21,-143.61 1985.68,-142.42 1987.24,-149.24"/>
</g>
<!-- Node19&#45;&gt;Node22 -->
<g id="edge29" class="edge">
<title>Node19&#45;&gt;Node22</title>
<path fill="none" stroke="midnightblue" d="M1797.76,-187.92C1811.09,-184.93 1825.93,-181.95 1839.68,-180 2083.1,-145.46 2146.58,-163.22 2391.68,-144 2392.8,-143.91 2393.93,-143.82 2395.06,-143.73"/>
<polygon fill="midnightblue" stroke="midnightblue" points="2395.68,-147.19 2405.37,-142.89 2395.11,-140.22 2395.68,-147.19"/>
</g>
<!-- Node23 -->
<g id="node23" class="node">
<title>Node23</title>
<g id="a_node23"><a xlink:title=" ">
<polygon fill="white" stroke="#bfbfbf" points="2146.18,-120.5 2146.18,-143.5 2349.18,-143.5 2349.18,-120.5 2146.18,-120.5"/>
<text text-anchor="middle" x="2247.68" y="-128.3" font-family="Helvetica,sans-Serif" font-size="14.00">llvm/Support/YAMLParser.h</text>
</a>
</g>
</g>
<!-- Node19&#45;&gt;Node23 -->
<g id="edge30" class="edge">
<title>Node19&#45;&gt;Node23</title>
<path fill="none" stroke="midnightblue" d="M1799.55,-187.95C1812.43,-185.1 1826.57,-182.19 1839.68,-180 1894.75,-170.79 2035.15,-155.26 2135.86,-144.58"/>
<polygon fill="midnightblue" stroke="midnightblue" points="2136.51,-148.04 2146.09,-143.5 2135.78,-141.07 2136.51,-148.04"/>
</g>
<!-- Node24 -->
<g id="node24" class="node">
<title>Node24</title>
<g id="a_node24"><a xlink:title=" ">
<polygon fill="white" stroke="#bfbfbf" points="1742.18,-120.5 1742.18,-143.5 1939.18,-143.5 1939.18,-120.5 1742.18,-120.5"/>
<text text-anchor="middle" x="1840.68" y="-128.3" font-family="Helvetica,sans-Serif" font-size="14.00">llvm/Support/YAMLTraits.h</text>
</a>
</g>
</g>
<!-- Node19&#45;&gt;Node24 -->
<g id="edge31" class="edge">
<title>Node19&#45;&gt;Node24</title>
<path fill="none" stroke="midnightblue" d="M1769.34,-187.98C1782.64,-177.72 1803.09,-161.97 1818.68,-149.95"/>
<polygon fill="midnightblue" stroke="midnightblue" points="1820.99,-152.59 1826.78,-143.72 1816.72,-147.05 1820.99,-152.59"/>
</g>
</g>
</svg>
        <g id="navigator" transform="translate(0 0)" fill="#404254">
                <rect fill="#f2f5e9" fill-opacity="0.5" stroke="#606060" stroke-width=".5" x="0" y="0" width="60" height="60"/>
                <use id="zoomplus" xlink:href="#zoomPlus" x="17" y="9" onmousedown="handleZoom(evt,'in')"/>
                <use id="zoomminus" xlink:href="#zoomMin" x="42" y="9" onmousedown="handleZoom(evt,'out')"/>
                <use id="reset" xlink:href="#resetDef" x="30" y="36" onmousedown="handleReset()"/>
                <g id="arrowUp" xlink:href="#dirArrow" transform="translate(30 24)" onmousedown="handlePan(0,-1)">
                  <use xlink:href="#rim" fill="#404040">
                        <set attributeName="fill" to="#808080" begin="arrowUp.mouseover" end="arrowUp.mouseout"/>
                  </use>
                  <path fill="none" stroke="white" stroke-width="1.5" d="M0,-3.0v7 M-2.5,-0.5L0,-3.0L2.5,-0.5"/>
                </g>
                <g id="arrowRight" xlink:href="#dirArrow" transform="rotate(90) translate(36 -43)" onmousedown="handlePan(1,0)">
                  <use xlink:href="#rim" fill="#404040">
                        <set attributeName="fill" to="#808080" begin="arrowRight.mouseover" end="arrowRight.mouseout"/>
                  </use>
                  <path fill="none" stroke="white" stroke-width="1.5" d="M0,-3.0v7 M-2.5,-0.5L0,-3.0L2.5,-0.5"/>
                </g>
                <g id="arrowDown" xlink:href="#dirArrow" transform="rotate(180) translate(-30 -48)" onmousedown="handlePan(0,1)">
                  <use xlink:href="#rim" fill="#404040">
                        <set attributeName="fill" to="#808080" begin="arrowDown.mouseover" end="arrowDown.mouseout"/>
                  </use>
                  <path fill="none" stroke="white" stroke-width="1.5" d="M0,-3.0v7 M-2.5,-0.5L0,-3.0L2.5,-0.5"/>
                </g>
                <g id="arrowLeft" xlink:href="#dirArrow" transform="rotate(270) translate(-36 17)" onmousedown="handlePan(-1,0)">
                  <use xlink:href="#rim" fill="#404040">
                        <set attributeName="fill" to="#808080" begin="arrowLeft.mouseover" end="arrowLeft.mouseout"/>
                  </use>
                  <path fill="none" stroke="white" stroke-width="1.5" d="M0,-3.0v7 M-2.5,-0.5L0,-3.0L2.5,-0.5"/>
                </g>
        </g>
        <svg viewBox="0 0 15 15" width="100%" height="30px" preserveAspectRatio="xMaxYMin meet">
         <g id="arrow_out" transform="scale(0.3 0.3)">
          <a xlink:href="fluxHostPass_8cpp__incl_org.svg" target="_base">
           <rect id="button" ry="5" rx="5" y="6" x="6" height="38" width="38"
                fill="#f2f5e9" fill-opacity="0.5" stroke="#606060" stroke-width="1.0"/>
           <path id="arrow"
             d="M 11.500037,31.436501 C 11.940474,20.09759 22.043105,11.32322 32.158766,21.979434 L 37.068811,17.246167 C 37.068811,17.246167 37.088388,32 37.088388,32 L 22.160133,31.978069 C 22.160133,31.978069 26.997745,27.140456 26.997745,27.140456 C 18.528582,18.264221 13.291696,25.230495 11.500037,31.436501 z"
             style="fill:#404040;"/>
          </a>
         </g>
        </svg>
</svg>
