<?xml version="1.0" encoding="UTF-8" standalone="no"?>
<!DOCTYPE svg PUBLIC "-//W3C//DTD SVG 1.1//EN"
 "http://www.w3.org/Graphics/SVG/1.1/DTD/svg11.dtd">
<!-- Generated by graphviz version 2.43.0 (0)
 -->
<!-- Title: PPT&#45;GPU/reuse_distance_tool/narray.c Pages: 1 -->
<svg width="248pt" height="167pt"
 viewBox="0.00 0.00 247.50 167.00" xmlns="http://www.w3.org/2000/svg" xmlns:xlink="http://www.w3.org/1999/xlink">
<g id="graph0" class="graph" transform="scale(1 1) rotate(0) translate(4 163)">
<title>PPT&#45;GPU/reuse_distance_tool/narray.c</title>
<polygon fill="white" stroke="transparent" points="-4,4 -4,-163 243.5,-163 243.5,4 -4,4"/>
<!-- Node1 -->
<g id="node1" class="node">
<title>Node1</title>
<g id="a_node1"><a xlink:title=" ">
<polygon fill="#bfbfbf" stroke="black" points="24.5,-120.5 24.5,-158.5 207.5,-158.5 207.5,-120.5 24.5,-120.5"/>
<text text-anchor="start" x="32.5" y="-143.3" font-family="Helvetica,sans-Serif" font-size="14.00">PPT&#45;GPU/reuse_distance</text>
<text text-anchor="middle" x="116" y="-128.3" font-family="Helvetica,sans-Serif" font-size="14.00">_tool/narray.c</text>
</a>
</g>
</g>
<!-- Node2 -->
<g id="node2" class="node">
<title>Node2</title>
<g id="a_node2"><a xlink:href="../../de/d09/narray_8h.html" target="_top" xlink:title=" ">
<polygon fill="white" stroke="black" points="79.5,-60.5 79.5,-83.5 152.5,-83.5 152.5,-60.5 79.5,-60.5"/>
<text text-anchor="middle" x="116" y="-68.3" font-family="Helvetica,sans-Serif" font-size="14.00">narray.h</text>
</a>
</g>
</g>
<!-- Node1&#45;&gt;Node2 -->
<g id="edge1" class="edge">
<title>Node1&#45;&gt;Node2</title>
<path fill="none" stroke="midnightblue" d="M116,-120.25C116,-112.04 116,-102.31 116,-93.81"/>
<polygon fill="midnightblue" stroke="midnightblue" points="119.5,-93.59 116,-83.59 112.5,-93.59 119.5,-93.59"/>
</g>
<!-- Node3 -->
<g id="node3" class="node">
<title>Node3</title>
<g id="a_node3"><a xlink:title=" ">
<polygon fill="white" stroke="#bfbfbf" points="0,-0.5 0,-23.5 64,-23.5 64,-0.5 0,-0.5"/>
<text text-anchor="middle" x="32" y="-8.3" font-family="Helvetica,sans-Serif" font-size="14.00">stdio.h</text>
</a>
</g>
</g>
<!-- Node2&#45;&gt;Node3 -->
<g id="edge2" class="edge">
<title>Node2&#45;&gt;Node3</title>
<path fill="none" stroke="midnightblue" d="M100.59,-60.36C88.04,-51.7 70.11,-39.31 55.73,-29.38"/>
<polygon fill="midnightblue" stroke="midnightblue" points="57.53,-26.37 47.31,-23.57 53.55,-32.13 57.53,-26.37"/>
</g>
<!-- Node4 -->
<g id="node4" class="node">
<title>Node4</title>
<g id="a_node4"><a xlink:title=" ">
<polygon fill="white" stroke="#bfbfbf" points="82,-0.5 82,-23.5 150,-23.5 150,-0.5 82,-0.5"/>
<text text-anchor="middle" x="116" y="-8.3" font-family="Helvetica,sans-Serif" font-size="14.00">stdlib.h</text>
</a>
</g>
</g>
<!-- Node2&#45;&gt;Node4 -->
<g id="edge3" class="edge">
<title>Node2&#45;&gt;Node4</title>
<path fill="none" stroke="midnightblue" d="M116,-60.36C116,-52.92 116,-42.74 116,-33.73"/>
<polygon fill="midnightblue" stroke="midnightblue" points="119.5,-33.57 116,-23.57 112.5,-33.57 119.5,-33.57"/>
</g>
<!-- Node5 -->
<g id="node5" class="node">
<title>Node5</title>
<g id="a_node5"><a xlink:title=" ">
<polygon fill="white" stroke="#bfbfbf" points="168.5,-0.5 168.5,-23.5 239.5,-23.5 239.5,-0.5 168.5,-0.5"/>
<text text-anchor="middle" x="204" y="-8.3" font-family="Helvetica,sans-Serif" font-size="14.00">string.h</text>
</a>
</g>
</g>
<!-- Node2&#45;&gt;Node5 -->
<g id="edge4" class="edge">
<title>Node2&#45;&gt;Node5</title>
<path fill="none" stroke="midnightblue" d="M132.14,-60.36C145.41,-51.61 164.43,-39.08 179.57,-29.1"/>
<polygon fill="midnightblue" stroke="midnightblue" points="181.54,-32 187.96,-23.57 177.69,-26.15 181.54,-32"/>
</g>
</g>
</svg>
