<?xml version="1.0" encoding="UTF-8" standalone="no"?>
<!DOCTYPE svg PUBLIC "-//W3C//DTD SVG 1.1//EN"
 "http://www.w3.org/Graphics/SVG/1.1/DTD/svg11.dtd">
<!-- Generated by graphviz version 2.43.0 (0)
 -->
<!-- Title: PPT&#45;GPU/llvm_tool/inc/cudaFluxPasses.h Pages: 1 -->
<svg width="1283pt" height="107pt"
 viewBox="0.00 0.00 1283.00 107.00" xmlns="http://www.w3.org/2000/svg" xmlns:xlink="http://www.w3.org/1999/xlink">
<g id="graph0" class="graph" transform="scale(1 1) rotate(0) translate(4 103)">
<title>PPT&#45;GPU/llvm_tool/inc/cudaFluxPasses.h</title>
<polygon fill="white" stroke="transparent" points="-4,4 -4,-103 1279,-103 1279,4 -4,4"/>
<!-- Node1 -->
<g id="node1" class="node">
<title>Node1</title>
<g id="a_node1"><a xlink:title=" ">
<polygon fill="#bfbfbf" stroke="black" points="441.5,-60.5 441.5,-98.5 607.5,-98.5 607.5,-60.5 441.5,-60.5"/>
<text text-anchor="start" x="449.5" y="-83.3" font-family="Helvetica,sans-Serif" font-size="14.00">PPT&#45;GPU/llvm_tool/inc</text>
<text text-anchor="middle" x="524.5" y="-68.3" font-family="Helvetica,sans-Serif" font-size="14.00">/cudaFluxPasses.h</text>
</a>
</g>
</g>
<!-- Node2 -->
<g id="node2" class="node">
<title>Node2</title>
<g id="a_node2"><a xlink:title=" ">
<polygon fill="white" stroke="#bfbfbf" points="0,-0.5 0,-23.5 157,-23.5 157,-0.5 0,-0.5"/>
<text text-anchor="middle" x="78.5" y="-8.3" font-family="Helvetica,sans-Serif" font-size="14.00">llvm/IR/BasicBlock.h</text>
</a>
</g>
</g>
<!-- Node1&#45;&gt;Node2 -->
<g id="edge1" class="edge">
<title>Node1&#45;&gt;Node2</title>
<path fill="none" stroke="midnightblue" d="M441.4,-66.3C361.04,-54.49 240.02,-36.72 160.15,-24.99"/>
<polygon fill="midnightblue" stroke="midnightblue" points="160.54,-21.51 150.14,-23.52 159.52,-28.44 160.54,-21.51"/>
</g>
<!-- Node3 -->
<g id="node3" class="node">
<title>Node3</title>
<g id="a_node3"><a xlink:title=" ">
<polygon fill="white" stroke="#bfbfbf" points="175,-0.5 175,-23.5 308,-23.5 308,-0.5 175,-0.5"/>
<text text-anchor="middle" x="241.5" y="-8.3" font-family="Helvetica,sans-Serif" font-size="14.00">llvm/IR/Module.h</text>
</a>
</g>
</g>
<!-- Node1&#45;&gt;Node3 -->
<g id="edge2" class="edge">
<title>Node1&#45;&gt;Node3</title>
<path fill="none" stroke="midnightblue" d="M446.42,-60.43C399.01,-49.46 339.63,-35.71 297.01,-25.85"/>
<polygon fill="midnightblue" stroke="midnightblue" points="297.63,-22.4 287.1,-23.55 296.05,-29.22 297.63,-22.4"/>
</g>
<!-- Node4 -->
<g id="node4" class="node">
<title>Node4</title>
<g id="a_node4"><a xlink:title=" ">
<polygon fill="white" stroke="#bfbfbf" points="326,-0.5 326,-23.5 421,-23.5 421,-0.5 326,-0.5"/>
<text text-anchor="middle" x="373.5" y="-8.3" font-family="Helvetica,sans-Serif" font-size="14.00">llvm/Pass.h</text>
</a>
</g>
</g>
<!-- Node1&#45;&gt;Node4 -->
<g id="edge3" class="edge">
<title>Node1&#45;&gt;Node4</title>
<path fill="none" stroke="midnightblue" d="M482.84,-60.43C459.11,-50.14 429.77,-37.41 407.45,-27.73"/>
<polygon fill="midnightblue" stroke="midnightblue" points="408.62,-24.42 398.05,-23.65 405.83,-30.84 408.62,-24.42"/>
</g>
<!-- Node5 -->
<g id="node5" class="node">
<title>Node5</title>
<g id="a_node5"><a xlink:title=" ">
<polygon fill="white" stroke="#bfbfbf" points="439.5,-0.5 439.5,-23.5 609.5,-23.5 609.5,-0.5 439.5,-0.5"/>
<text text-anchor="middle" x="524.5" y="-8.3" font-family="Helvetica,sans-Serif" font-size="14.00">llvm/Support/Debug.h</text>
</a>
</g>
</g>
<!-- Node1&#45;&gt;Node5 -->
<g id="edge4" class="edge">
<title>Node1&#45;&gt;Node5</title>
<path fill="none" stroke="midnightblue" d="M524.5,-60.25C524.5,-52.04 524.5,-42.31 524.5,-33.81"/>
<polygon fill="midnightblue" stroke="midnightblue" points="528,-33.59 524.5,-23.59 521,-33.59 528,-33.59"/>
</g>
<!-- Node6 -->
<g id="node6" class="node">
<title>Node6</title>
<g id="a_node6"><a xlink:title=" ">
<polygon fill="white" stroke="#bfbfbf" points="627.5,-0.5 627.5,-23.5 839.5,-23.5 839.5,-0.5 627.5,-0.5"/>
<text text-anchor="middle" x="733.5" y="-8.3" font-family="Helvetica,sans-Serif" font-size="14.00">llvm/Support/raw_ostream.h</text>
</a>
</g>
</g>
<!-- Node1&#45;&gt;Node6 -->
<g id="edge5" class="edge">
<title>Node1&#45;&gt;Node6</title>
<path fill="none" stroke="midnightblue" d="M582.16,-60.43C616.29,-49.73 658.82,-36.41 690.09,-26.6"/>
<polygon fill="midnightblue" stroke="midnightblue" points="691.33,-29.88 699.83,-23.55 689.24,-23.2 691.33,-29.88"/>
</g>
<!-- Node7 -->
<g id="node7" class="node">
<title>Node7</title>
<g id="a_node7"><a xlink:title=" ">
<polygon fill="white" stroke="#bfbfbf" points="857,-0.5 857,-23.5 1060,-23.5 1060,-0.5 857,-0.5"/>
<text text-anchor="middle" x="958.5" y="-8.3" font-family="Helvetica,sans-Serif" font-size="14.00">llvm/Support/YAMLParser.h</text>
</a>
</g>
</g>
<!-- Node1&#45;&gt;Node7 -->
<g id="edge6" class="edge">
<title>Node1&#45;&gt;Node7</title>
<path fill="none" stroke="midnightblue" d="M607.67,-65.95C685.75,-54.16 801.77,-36.65 878.73,-25.04"/>
<polygon fill="midnightblue" stroke="midnightblue" points="879.49,-28.46 888.86,-23.51 878.45,-21.54 879.49,-28.46"/>
</g>
<!-- Node8 -->
<g id="node8" class="node">
<title>Node8</title>
<g id="a_node8"><a xlink:title=" ">
<polygon fill="white" stroke="#bfbfbf" points="1078,-0.5 1078,-23.5 1275,-23.5 1275,-0.5 1078,-0.5"/>
<text text-anchor="middle" x="1176.5" y="-8.3" font-family="Helvetica,sans-Serif" font-size="14.00">llvm/Support/YAMLTraits.h</text>
</a>
</g>
</g>
<!-- Node1&#45;&gt;Node8 -->
<g id="edge7" class="edge">
<title>Node1&#45;&gt;Node8</title>
<path fill="none" stroke="midnightblue" d="M607.61,-70.26C712.39,-59.86 898.39,-41.34 1067.86,-24.16"/>
<polygon fill="midnightblue" stroke="midnightblue" points="1068.37,-27.63 1077.97,-23.14 1067.67,-20.67 1068.37,-27.63"/>
</g>
</g>
</svg>
